<svg width="21" height="36" viewBox="0 0 21 36" fill="none" xmlns="http://www.w3.org/2000/svg">
<path d="M10.6536 0C5.49458 0 1.3125 4.17675 1.3125 9.32888C1.3125 14.4811 5.49458 18.6582 10.6536 18.6582C15.8126 18.6582 19.9947 14.4811 19.9947 9.32888C19.9947 4.17675 15.8126 0 10.6536 0ZM10.6536 13.1855C8.52103 13.1855 6.79218 11.4588 6.79218 9.32901C6.79218 7.19925 8.52103 5.47266 10.6536 5.47266C12.7861 5.47266 14.515 7.19925 14.515 9.32901C14.515 11.4588 12.7861 13.1855 10.6536 13.1855Z" fill="white"/>
<path d="M13.9499 26.0812C17.6895 25.3203 19.9304 23.5517 20.049 23.4568C21.1433 22.5803 21.3191 20.9839 20.4415 19.8909C19.564 18.7981 17.9657 18.6225 16.8711 19.4988C16.848 19.5175 14.4578 21.3486 10.5252 21.3513C6.59269 21.3486 4.15202 19.5175 4.12889 19.4988C3.03434 18.6225 1.43597 18.7981 0.558515 19.8909C-0.319074 20.9839 -0.143288 22.5803 0.950991 23.4568C1.07117 23.553 3.40463 25.3677 7.24904 26.1107L1.89114 31.7028C0.917439 32.7113 0.946714 34.3171 1.95651 35.2895C2.44938 35.7641 3.08461 36 3.71931 36C4.38475 36 5.04952 35.7403 5.54787 35.2241L10.5253 29.9287L16.0055 35.2584C16.9985 36.2484 18.6064 36.2468 19.5974 35.2556C20.5885 34.2642 20.5873 32.6582 19.5946 31.6684L13.9499 26.0812Z" fill="white"/>
<path d="M10.5253 21.3513C10.519 21.3513 10.5314 21.3515 10.5253 21.3516C10.5191 21.3515 10.5315 21.3513 10.5253 21.3513Z" fill="white"/>
</svg>
