<svg width="360" height="79" viewBox="0 0 360 79" fill="none" xmlns="http://www.w3.org/2000/svg">
<path d="M107.469 37.0071V25.0735H118.132V20.5861C112.159 20.5861 108.95 20.5861 102.977 20.5861V57.5209H118.823V53.0335H107.469V41.4945H116.404V37.0071H107.469Z" fill="#111111"/>
<path d="M135.301 32.8648H139.793V26.1584L134.314 20.6848H126.81L121.331 26.1584V51.7514L126.761 57.5209H134.363L139.793 51.7514V37.4509H130.315V41.889H135.301V49.9761L132.29 53.2307H128.834L125.823 49.9761V27.9829L128.785 24.9749H132.339L135.301 27.9829V32.8648Z" fill="#111111"/>
<path d="M162.435 25.6653L156.856 20.093H149.797L144.219 25.6653V51.7514L149.748 57.6688H156.856L162.435 51.7514V25.6653ZM154.931 53.2307H151.673L148.662 50.0254V27.4898L151.624 24.5311H154.98L157.942 27.4898V50.0254L154.931 53.2307Z" fill="#111111"/>
<path d="M171.122 25.1229H175.663L178.674 28.1309V37.3029L175.614 40.6068H171.122V25.1229ZM171.122 45.0942H175.021L180.797 57.5209H185.734L179.168 43.3683L183.167 39.0782V26.3063L177.49 20.5861H166.629V57.5209H171.122V45.0942Z" fill="#111111"/>
<path d="M205.465 25.6653L199.887 20.093H192.828L187.249 25.6653V51.7514L192.778 57.6688H199.887L205.465 51.7514V25.6653ZM197.962 53.2307H194.703L191.692 50.0254V27.4898L194.654 24.5311H198.011L200.973 27.4898V50.0254L197.962 53.2307Z" fill="#111111"/>
<path d="M227.768 20.5368H223.226L218.289 53.2307H217.253L212.415 20.5368H207.824L213.353 57.7181H222.14L227.768 20.5368Z" fill="#111111"/>
<path d="M234.263 57.5209H238.804L240.236 47.905H247.937L249.369 57.5209H253.91L248.431 20.5861H239.742L234.263 57.5209ZM247.295 43.4176H240.878L243.593 25.0735H244.531L247.295 43.4176Z" fill="#111111"/>
<path d="M270.12 32.8648H274.612V26.1584L269.132 20.6848H261.629L256.149 26.1584V51.7514L261.579 57.5209H269.182L274.612 51.7514V37.4509H265.134V41.889H270.12V49.9761L267.108 53.2307H263.653L260.642 49.9761V27.9829L263.603 24.9749H267.158L270.12 27.9829V32.8648Z" fill="#111111"/>
<path d="M283.341 37.0071V25.0735H294.004V20.5861C288.031 20.5861 284.822 20.5861 278.849 20.5861V57.5209H294.695V53.0335H283.341V41.4945H292.276V37.0071H283.341Z" fill="#111111"/>
<path d="M297.253 57.5209H301.745V39.7685L301.202 28.4761H301.35L304.559 39.374L310.334 57.5209H315.123V20.6848H310.63V33.6538L311.47 47.7078H311.322L307.521 33.9004L303.324 20.6848H297.253V57.5209Z" fill="#111111"/>
<path d="M332.84 31.4348H337.332V25.8625L331.952 20.241H324.942L319.561 25.8625V51.8007L324.892 57.7674H331.952L337.332 51.8007V45.9819L332.84 46.0312V50.1241L329.977 53.28H326.867L324.053 50.1241V27.6378L326.818 24.7284H330.026L332.84 27.6378V31.4348Z" fill="#111111"/>
<path d="M351.509 43.8121L360 20.5368H355.261L352.25 28.9692L349.288 38.585L346.375 29.1171L343.364 20.5368H338.526L347.017 43.8121V57.5209H351.509V43.8121Z" fill="#111111"/>
<path fill-rule="evenodd" clip-rule="evenodd" d="M17.5875 68.5315L23.457 72.946L23.6059 62.0795L17.5875 68.5315ZM64.8418 23.3037C64.7568 23.2825 64.693 23.24 64.6292 23.1763L64.8418 23.3037ZM50.8909 8.40461L51.5289 13.9016L54.8253 12.7343L50.8909 8.40461ZM79.0054 18.9316C79.0054 18.9953 78.9628 19.0589 78.9203 19.1014L79.0054 18.9316ZM61.3116 1.91014L66.1604 6.74915L70.6263 2.84398L60.8437 1.44322L61.3116 1.91014ZM65.0332 22.7731H65.1821L66.3092 22.858L64.3952 21.7331L65.0332 22.7731ZM60.312 49.4938L50.7208 54.2691L57.2284 58.8959L59.3338 52.8684L60.312 49.4938ZM23.9036 51.0007L15.0142 58.5776L18.6933 59.6175L23.6272 61.0395L23.9036 51.0007ZM64.6504 30.2438L60.0781 29.7345L61.907 33.385L64.6504 30.2438ZM39.3219 29.6708L39.8536 34.8282L40.1939 38.0754L48.8919 29.9679L39.3219 29.6708ZM23.9249 42.023L23.776 34.6584L19.0974 37.566L11.4627 42.3202L18.1617 42.1716L23.9249 42.023ZM23.6059 23.5371L20.182 27.0603L18.9911 28.2913L23.7548 33.4699L23.6059 23.5371ZM9.76136 19.6744L4.87005 30.4773L17.7363 28.1639L18.0553 28.1003L9.76136 19.6744ZM4.14699 30.8169L2.40312 15.4297C2.38186 15.366 2.40312 15.3023 2.42439 15.2599L5.23158 9.97516L2.74339 4.69045C2.74339 4.66923 2.72212 4.66923 2.72212 4.648C2.67959 4.52066 2.76466 4.35087 2.89226 4.30842L13.398 0.827726C13.4405 0.806503 13.483 0.785279 13.5468 0.806503L26.2642 1.74035L39.6197 0C39.6409 0 39.6622 0 39.7047 0L60.0781 0.785279C60.0994 0.785279 60.1207 0.806503 60.1419 0.806503L71.2431 2.37706L81.7275 0.636713C81.8764 0.615489 82.0252 0.721608 82.0465 0.870174C82.0465 0.891398 82.0465 0.912621 82.0465 0.955069L79.0054 18.9316L78.6864 29.7345C78.6864 29.7345 78.6864 29.7557 78.6864 29.7769L75.6878 43.827L80.2388 50.2578C80.3027 50.3427 80.3026 50.4489 80.2601 50.5338L77.1127 58.7049L80.4302 69.4229C80.4515 69.4866 80.4515 69.5502 80.4302 69.6139L78.1973 76.7663C78.176 76.8724 78.0697 76.9573 77.9421 76.9361L58.8234 77.7426C58.8021 77.7426 58.7809 77.7426 58.7596 77.7426L42.3843 74.559L18.1829 78.6977C18.1404 78.6977 18.0979 78.6977 18.0766 78.6977L2.76466 75.8325C2.65832 75.8112 2.55199 75.7051 2.55199 75.5778L0 49.3452C0 49.3028 0 49.2603 0 49.2391C0 49.2179 0.0212666 49.2179 0.0212666 49.2179L4.14699 30.8169ZM70.6689 6.09122L70.9241 3.31091L67.0323 6.68548L70.6689 6.09122ZM75.9643 14.9415L71.0517 7.04629L69.6481 13.9652L78.0059 18.21L75.9643 14.9415ZM81.4298 1.37954L71.3069 6.4308L78.6013 18.1463L81.4298 1.37954ZM71.4983 2.88643L71.2431 5.85776L80.0474 1.46444L71.4983 2.88643ZM63.9486 22.0515L63.502 21.3511L61.6944 22.6457L64.374 22.7519L63.9486 22.0515ZM62.0772 16.979L60.9926 16.0027L60.2695 17.7218L59.674 19.1651L62.0772 16.979ZM59.0998 29.3737L55.5271 26.8693L54.9954 31.772L56.4415 30.923L59.0998 29.3737ZM54.9741 26.8693L50.1254 29.692L54.4425 31.8569L54.9741 26.8693ZM61.0138 28.737L60.3333 29.2039L62.0346 29.4161L64.8631 29.7345L64.3527 26.3599L61.0138 28.737ZM60.312 26.1689L59.9505 28.8219L63.5658 26.275L63.6934 26.1689H60.312ZM56.0375 26.5721L59.3976 28.928L59.6528 27.1027L59.7804 26.1901L56.0375 26.5721ZM61.8007 3.16234L60.1419 1.50689L57.356 6.09122L65.4373 6.7916L61.8007 3.16234ZM50.0403 22.6033L54.8678 22.4547L51.4226 15.1538L50.0403 22.6033ZM32.9845 9.27478L38.4287 4.41454L32.4741 3.37458L26.966 2.41951L28.5398 4.2023L32.9845 9.27478ZM49.8276 29.2463L54.7827 26.3599L49.9765 23.3461L49.8914 26.9754L49.8276 29.2463ZM50.5082 7.25852L59.2487 1.29465L40.5979 0.573041L47.0417 4.92391L50.5082 7.25852ZM59.2062 1.99503L51.7629 7.06751L53.1665 6.7916L56.718 6.06999L59.2062 1.99503ZM50.6145 23.1127L52.9963 24.6196L55.0379 25.893V22.9853L50.6145 23.1127ZM38.8115 3.92639L39.3432 0.573041L28.0506 2.0587L38.8115 3.92639ZM48.9344 6.85527L42.7246 2.65297L39.8749 0.721608L39.6409 2.18605L39.3432 4.05374L40.2151 4.30842L48.9344 6.85527ZM21.4367 5.70919L18.2467 7.93768L20.0757 9.52946L21.3942 10.6755L21.9471 9.63558L25.5199 2.86521L21.4367 5.70919ZM16.3115 15.7268L23.457 22.1364L22.9892 19.8654L21.3091 11.5882L16.3115 15.7268ZM16.992 14.4534L21.0752 11.0788L20.2245 10.3572L17.9703 8.40461L16.354 14.984L16.992 14.4534ZM23.4783 22.8792L16.3327 16.4696L18.7784 27.7394L22.3725 24.0253L23.4783 22.8792ZM17.8852 7.53443L25.4986 2.22849L14.0147 1.37954L17.8852 7.53443ZM49.5937 22.0515L50.4231 17.5308L50.9973 14.517H50.9122L45.4042 14.1138L49.0195 20.9691L49.5937 22.0515ZM49.2747 22.6033L45.0001 14.517L42.5757 22.6033H49.2747ZM38.7477 22.5396L42.0228 22.6033L43.2137 18.592L44.4259 14.5595L34.6645 22.4547L38.7477 22.5396ZM34.1541 22.1788L44.3834 13.9016L36.1107 11.0364L33.2609 10.0601L33.8777 18.4434L34.1541 22.1788ZM50.9973 13.9865L50.6996 11.5033L50.3167 8.21359L45.4892 13.562L47.6159 13.7318L50.9973 13.9865ZM39.6197 4.71167L44.9788 13.3497L45.872 12.3522L50.019 7.72545L40.1088 4.83902L39.6197 4.71167ZM36.5785 6.7916L33.4949 9.55069L35.4514 10.2298L44.2983 13.3073L38.9604 4.66923L36.5785 6.7916ZM9.33603 19.3348L2.99859 15.8754L4.57232 29.8194L9.33603 19.3348ZM12.6324 1.63423L3.36012 4.7329L5.61438 9.48702L12.6324 1.63423ZM3.27505 15.4084L9.4211 18.7618V12.6281L3.27505 15.4084ZM9.08083 12.1824L5.63565 10.336L3.27505 14.8142L3.67912 14.6444L9.08083 12.1824ZM15.716 15.3023L17.4173 8.42583L10.2505 12.2249L15.716 15.3023ZM17.4386 7.81034L16.8431 6.8765L13.5894 1.67668L10.527 10.5694L10.1654 11.6518L17.4386 7.81034ZM9.95276 12.6706V18.7618L15.1631 15.8117L9.95276 12.6706ZM12.8238 2.24972L5.95465 9.91149L9.52743 11.8216L11.5478 5.92143L12.8238 2.24972ZM32.4315 9.46579L26.8384 3.07744L26.328 2.48318L21.9684 10.7604L32.4315 9.46579ZM26.4131 18.7194L32.4103 9.99639L21.7983 11.3335L24.01 22.2L26.4131 18.7194ZM32.7505 10.4421L24.3928 22.6033L33.5161 22.4547H33.6437L32.7505 10.4421ZM39.1093 45.5886H33.8351L33.3247 49.5362L39.1093 45.5886ZM38.8115 29.9255L33.4311 34.4462L39.6622 38.1179L38.8115 29.9255ZM33.3247 33.8307L38.1948 29.7345L33.8351 30.1377L33.3247 33.8307ZM38.9179 38.3089L36.8125 37.0779L33.2609 34.9767L33.3885 38.0542L35.5152 38.1603L38.9179 38.3089ZM65.3735 7.32219L59.6528 6.83405L57.356 6.62181L59.6953 11.1849L65.3735 7.32219ZM51.0398 7.76789L55.1655 12.2886L56.5266 6.66426L53.9533 7.17363L51.0398 7.76789ZM55.6759 12.4583L59.2062 11.3972L58.5257 10.0601L56.9945 7.08873L55.6759 12.4583ZM61.8007 11.9277L64.8206 12.8191L65.7563 7.70422L60.227 11.482L61.8007 11.9277ZM54.7827 14.7293L56.08 15.0052L55.1655 13.18L52.2945 14.2199L54.7827 14.7293ZM56.2714 15.5995L51.7841 14.6444L55.1868 21.818L56.2714 15.5995ZM58.6107 20.0777L56.6967 16.2362L56.2714 18.7406L55.6759 22.1152L56.5479 21.5209L58.6107 20.0777ZM60.4822 15.8117L57.9302 15.7056L57.0157 15.6844L57.3135 16.2786L58.951 19.5259L60.4822 15.8117ZM75.0923 17.3398L70.0309 14.7717L72.3489 18.783L77.6656 18.6557L75.0923 17.3398ZM71.7535 18.8042L69.5843 15.0689L69.4567 18.9316L71.7535 18.8042ZM68.925 18.6769L69.0313 14.8991L69.0526 14.8142L68.6486 15.2387L66.8622 17.1063L68.925 18.6769ZM66.5644 16.6394L68.8187 14.2836L67.8617 14.0713L65.4373 13.5408L66.5644 16.6394ZM68.1382 12.14L66.2454 8.00136L65.331 12.9465L68.8612 13.7318L68.1382 12.14ZM70.5838 6.64303L66.5432 7.32219L69.244 13.2436L70.2223 8.42583L70.5838 6.64303ZM70.6476 25.1289L77.9633 19.1863L72.4127 19.3136L71.7747 21.3723L70.6476 25.1289ZM77.7932 29.7345L70.9241 26.5721L74.3693 31.4536L77.7932 29.7345ZM78.4524 19.4834L70.6476 25.8293L78.176 29.31L78.4524 19.4834ZM71.4345 19.3561L69.3503 19.4622L68.1594 22.2L71.4345 19.3561ZM67.2875 22.8155L68.6911 19.6532L64.2464 21.0327L67.2875 22.8155ZM64.3102 20.4597L67.3938 19.4834L68.606 19.1014L66.5219 17.5308L64.3102 20.4597ZM69.6056 25.7444L67.6916 23.8343V26.1901L68.6486 25.9779L69.6056 25.7444ZM71.6684 19.8654L69.6481 21.627L67.8192 23.1976L70.0096 25.3836L71.6684 19.8654ZM65.7988 29.883L73.6675 31.3899L73.2634 30.8169L70.0734 26.2962L65.7988 29.883ZM65.3522 29.2888L66.9898 26.7207L64.8844 26.2538L65.3522 29.2888ZM67.5852 26.7632L66.3518 28.7157L68.3083 27.0603L69.0952 26.4236L67.5852 26.7632ZM41.1934 38.4362L48.1263 38.8395L50.253 34.7008L41.1934 38.4362ZM73.391 50.9158L68.7336 55.9458L66.4368 58.4078H76.4321L73.391 50.9158ZM53.7194 57.0707L50.5082 54.7785L50.9122 61.1881L56.7818 59.2355L53.7194 57.0707ZM38.6201 54.1842L35.3876 52.0194L33.2822 50.6187L33.5374 53.6749L38.6201 54.1842ZM39.7047 45.8433L33.4523 50.0881L33.7288 50.2791L39.407 54.0569L39.5984 48.8783L39.7047 45.8433ZM66.1178 37.7358L62.3962 34.6796L63.5658 38.1179L64.459 40.6859L66.1178 37.7358ZM66.0753 37.0142L65.012 30.6471L62.226 33.8307L66.0753 37.0142ZM63.7785 40.41L61.6306 34.0853L55.5696 32.7482L63.7785 40.41ZM63.5871 40.9618L54.6764 32.6421L54.6126 32.727L48.8281 38.9031L63.5871 40.9618ZM55.3995 32.154L61.3541 33.4699L59.4827 29.7769L58.9085 30.1165L55.3995 32.154ZM52.8687 33.4699L51.0398 34.3825L50.5294 35.3588L49.4235 37.4811L52.252 34.4462L53.4429 33.1727L52.8687 33.4699ZM54.0597 32.2601L52.0819 31.2838L49.9765 30.2226L50.9973 33.7882L52.4434 33.0666L54.0597 32.2601ZM44.6598 36.42L50.5082 34.0217L49.7851 31.4536L49.4235 30.2226L42.8096 36.3775L41.2572 37.8207L44.6598 36.42ZM75.4964 44.485L75.0923 45.8857L73.8376 50.1305H79.4945L75.4964 44.485ZM75.0498 44.0817L72.0725 43.4026L65.2459 41.8108L73.3485 49.897L75.0498 44.0817ZM61.503 49.1542L65.9052 58.2168L72.9231 50.6187L61.503 49.1542ZM64.4803 41.8108L61.4392 48.6024L72.7317 50.0456L67.2024 44.5274L64.4803 41.8108ZM61.0776 49.515L57.7601 59.0233L65.416 58.4502L61.0776 49.515ZM60.2908 48.8995L56.399 47.8171L48.6367 45.6947L50.3806 53.8447L55.7823 51.1492L60.2908 48.8995ZM49.2534 39.5186L60.9288 48.3902L63.9912 41.5561L51.3801 39.8158L49.2534 39.5186ZM59.7804 48.1991L52.7199 42.8295L48.5516 39.646V45.1217L59.7804 48.1991ZM78.0484 30.2014L77.2403 30.6047L74.5607 31.9417L75.4964 42.1079L78.0484 30.2014ZM74.0928 43.2965L66.5432 38.0754L64.7993 41.1529L72.115 42.8508L74.0928 43.2965ZM74.0503 32.3026L66.926 37.6722L75.0711 43.3389L74.2629 34.6372L74.0503 32.3026ZM66.6495 37.184L67.9468 36.2077L73.6249 31.9417L65.5224 30.3712L65.735 31.6234L66.6495 37.184ZM41.3423 53.1443L40.3002 54.2691L49.8701 53.972L48.1263 45.8857L41.3423 53.1443ZM47.6584 45.5886H40.2577L40.0237 52.0194L39.9599 53.8447L47.6584 45.5886ZM75.2412 76.5116L70.9241 75.8325L64.5016 76.8512L63.4808 76.9998L75.2412 76.5116ZM70.5625 72.3093L68.3083 70.4629L63.3957 66.4516L59.2913 76.9786L64.2038 74.9411L70.5625 72.3093ZM46.5951 66.8124L41.8952 66.1757L40.7043 66.0059L40.0025 71.333L46.5951 66.8124ZM38.0885 63.9259L35.6215 61.6975L35.0048 63.1407L34.0053 65.4328H39.7685L38.0885 63.9259ZM35.1111 61.5064L25.1158 61.655L33.4736 65.3267L34.7496 62.3342L35.1111 61.5064ZM33.0908 65.7512L24.1376 61.8036L23.9887 72.9248L33.0908 65.7512ZM52.6348 69.2743L50.5719 62.1856L47.701 66.5577L52.6348 69.2743ZM50.1892 61.8036L44.915 61.5277L47.3394 66.112L48.9344 63.7137L50.1892 61.8036ZM41.6825 63.9259L43.8517 61.5064H36.217L40.4491 65.3055L41.6825 63.9259ZM44.4046 61.6975L41.002 65.4965L46.1485 66.2181L46.829 66.303L45.6594 64.0745L44.4046 61.6975ZM73.8801 50.6823L76.8149 57.9621L79.6221 50.6823H73.8801ZM63.1618 65.4965L65.4373 58.9808L64.0975 59.0869L57.9302 59.5539L63.1618 65.4965ZM62.8215 65.8998L57.4623 59.8298L57.2497 60.3179L53.5493 69.3592L62.8215 65.8998ZM53.1027 69.0197L56.9094 59.7661L55.0805 60.3816L50.9973 61.7187L51.4013 63.077L53.1027 69.0197ZM79.771 69.9323L71.7322 72.4579L77.7932 76.2569L79.771 69.9323ZM76.6873 76.1933L73.5399 74.2407L71.3281 72.8611L71.2005 75.3231L76.6873 76.1933ZM70.4775 71.524L65.8414 59.469L64.2251 64.0957L63.5871 65.921L70.4775 71.524ZM76.7937 59.469L74.8159 64.1806L71.5621 71.9485L73.5399 71.333L79.8348 69.338L76.7937 59.469ZM71.0942 71.6514L76.4321 58.9596H66.2242L67.8404 63.2043L71.0942 71.6514ZM40.1088 71.9273L42.1716 73.7313L42.3205 73.8799L46.3612 67.6401L40.7043 71.524L40.1088 71.9273ZM39.4708 71.3118L40.1513 65.9634H34.2392L36.0681 67.8311L39.4708 71.3118ZM39.088 71.6938L33.5799 66.0483L24.6054 73.1371L39.088 71.6938ZM39.5771 72.182L27.519 73.3917L32.1763 73.5827L41.6187 73.986L39.5771 72.182ZM39.8323 74.4529L23.8186 73.7738L19.0123 77.9973L39.8323 74.4529ZM70.7965 72.7975L60.9926 76.8512L70.6689 75.3231L70.7539 73.7525L70.7965 72.7975ZM57.0157 71.6302L62.141 66.7275L53.4642 69.9747L54.1447 71.142L55.3569 73.2219L57.0157 71.6302ZM57.2284 76.1508L55.1868 73.9223L53.2303 74.0285L44.6173 74.4529L58.0578 77.0422L57.2284 76.1508ZM62.5876 67.0458L55.6759 73.6676L57.0795 75.1958L58.7171 76.9786L61.8007 69.0409L62.5876 67.0458ZM6.99671 73.9436L17.8214 78.0185L16.9495 68.9772L12.3134 71.2906L6.99671 73.9436ZM9.4211 75.4292L6.33744 74.2619L3.72165 75.4504L15.1843 77.594L9.4211 75.4292ZM23.2869 73.5191L21.2453 71.9697L17.5024 69.147L18.3531 77.8699L21.7557 74.8562L23.2869 73.5191ZM54.8465 73.413L52.9538 70.1657L43.9155 73.9436L54.8465 73.413ZM43.0861 73.7101L52.4434 69.8049L49.5299 68.1707L47.4032 67.0034L43.0861 73.7101ZM6.84784 51.2554L0.637998 49.6636L1.36106 52.6137L6.12478 72.0122L6.78404 53.3777L6.84784 51.2554ZM18.1617 27.4423L15.716 16.1301L12.1432 18.1251L10.1229 19.2712L18.1617 27.4423ZM7.03924 50.5338L9.91023 43.2965L6.12478 45.7796L0.93573 49.1967L5.31665 50.3003L6.97544 50.7248L7.03924 50.5338ZM7.20937 36.8444L4.50852 31.6234L0.680531 48.7085L10.1229 42.5112L7.20937 36.8444ZM23.6272 34.1278L18.6721 28.737L11.2288 41.832L23.6272 34.1278ZM10.4844 42.0443L18.0979 28.6521L13.2704 29.5222L4.82752 31.0291L10.4844 42.0443ZM23.2444 50.173L10.612 42.9993L7.52837 50.7672L23.2444 50.173ZM23.9249 42.5749H23.4358L11.4627 42.8508L14.0997 44.3576L23.9249 49.9395V42.5749ZM3.06239 75.1533L4.55105 74.4742L6.01844 73.8162L0.893197 52.9957L3.06239 75.1533ZM23.4358 50.7035L21.2453 50.7884L7.74104 51.2978L14.4825 58.3229L23.4358 50.7035ZM6.63518 72.8187L10.7822 65.0296L14.1423 58.7261L7.37951 51.7011L6.63518 72.8187ZM16.1839 63.9259L17.311 68.0221L19.7779 65.3904L23.372 61.5277L14.8441 59.0869L16.1839 63.9259ZM16.8644 68.4254L14.3762 59.4053L6.97544 73.3493L16.8644 68.4254Z" fill="#111111"/>
</svg>
