<svg width="182" height="94" viewBox="0 0 182 94" fill="none" xmlns="http://www.w3.org/2000/svg">
<path d="M178.45 55.581C178.62 55.871 177.95 56.1909 178.48 56.4809C178.52 56.5009 178.54 56.701 178.51 56.721C178.05 57.001 178.03 57.241 178.39 57.681C178.73 58.101 178.59 58.461 178.14 58.681C177.5 58.981 176.89 59.291 176.4 59.821C176.19 60.041 175.79 60.151 175.47 60.191C174.02 60.361 172.57 60.511 171.12 60.631C170.19 60.711 169.25 60.741 168.32 60.801C167.1 60.881 166.27 61.541 165.68 62.571C165.24 63.331 164.76 64.061 164.34 64.821C164.09 65.281 163.88 65.771 163.73 66.271C163.6 66.711 163.6 67.201 163.5 67.651C163.2 68.951 163.25 70.0809 164.7 70.7009C164.81 70.7509 164.84 70.9909 164.91 71.1409C164.45 72.1009 163.44 71.701 162.71 72.101C162.45 73.131 162.83 74.1609 162.81 75.2009C162.81 75.4009 162.97 75.641 163.12 75.811C164.05 76.821 164.3 78.061 164.35 79.371C164.4 80.551 164.57 81.6909 165.02 82.7909C165.53 84.0509 165.4 85.3009 164.77 86.5109C164.55 86.9309 164.24 87.101 163.78 87.091C162.09 87.041 160.41 87.001 158.72 86.961C158.2 86.951 157.64 86.901 157.24 87.321C156.91 87.661 156.52 87.651 156.11 87.631C152.37 87.471 148.64 87.311 144.9 87.161C141.57 87.031 138.24 86.911 134.91 86.781C131.64 86.661 128.37 86.541 125.09 86.401C123.98 86.351 122.87 86.231 121.77 86.191C116.45 86.031 111.13 85.841 105.8 85.751C103 85.701 100.19 85.9209 97.38 85.8909C94.8 85.8609 92.24 86.1409 89.67 86.2009C84.41 86.3109 79.14 86.3609 73.88 86.5109C68.97 86.6509 64.07 86.911 59.16 87.061C55.77 87.161 52.38 87.2309 48.99 87.2009C44.25 87.1609 39.52 87.001 34.78 86.901C32.15 86.841 29.52 86.8009 26.89 86.7309C26.31 86.7209 25.72 86.651 25.14 86.601C24.34 86.521 23.71 86.1009 23.18 85.5409C23.03 85.3809 22.83 85.1409 22.84 84.9509C22.89 84.2009 22.58 83.641 22.23 83.001C21.95 82.501 21.99 81.811 22.46 81.241C22.94 80.661 23.37 80.0309 23.77 79.3909C23.89 79.2009 23.8 78.871 23.81 78.591C24.68 78.111 24.68 78.111 25.65 76.781C25.52 76.741 25.36 76.681 25.21 76.621C25.05 76.561 24.9 76.4909 24.65 76.3909C25.53 75.5309 26.46 75.0809 27.68 75.1109C29.37 75.1509 31.07 75.0809 32.77 75.0409C33.03 75.0309 33.28 74.931 33.53 74.781C31.24 74.371 28.93 74.5509 26.66 74.4209C26.45 73.9809 26.71 73.831 27 73.781C28.41 73.521 29.8 73.1509 31.18 73.2309C31.47 72.6609 31.21 72.431 30.84 72.351C30.39 72.241 29.92 72.181 29.45 72.161C27.82 72.091 26.2 71.911 24.56 72.071C23.34 72.191 22.11 72.261 20.88 72.311C20.48 72.331 20.08 72.2309 19.69 72.1709C19.46 72.1309 19.22 71.941 19.03 71.991C17.98 72.291 17.26 71.641 16.44 71.211C15.61 70.771 15.22 70.031 15.35 69.191C15.61 67.481 14.69 66.161 14.05 64.741C13.89 64.381 13.56 64.091 13.26 63.811C12.92 63.491 12.53 63.2209 12.18 62.9209C10.86 61.7609 9.33 61.1309 7.56 61.0409C7.16 61.0209 6.74002 60.971 6.36002 60.841C4.88002 60.331 4.04 59.2209 4.22 57.6709C4.31 56.8709 4.17002 56.171 3.96002 55.381C4.83002 54.171 4.77002 52.661 5.08002 51.251C5.14002 50.981 4.71002 50.661 5.11002 50.341C5.67002 49.881 5.39001 49.411 5.04001 48.911C5.37001 48.301 6.02002 47.701 5.36002 46.911C5.31002 46.851 5.34001 46.681 5.39001 46.591C5.77001 45.911 5.42 45.331 5.12 44.781C4.84 44.271 4.44002 43.831 4.49002 43.101C4.87002 42.901 5.29001 42.7209 5.67001 42.4809C6.12001 42.2009 6.17999 41.821 5.92999 41.281C5.66999 40.711 5.44001 38.7409 5.67001 38.2909C6.09001 37.5009 6.11 36.681 6.12 35.811C6.13 35.111 6.57 34.4209 6.13 33.6709C5.92 33.6409 5.69002 33.611 5.46002 33.581C5.46002 33.491 5.43001 33.401 5.45001 33.321C5.67001 32.401 6.58 31.921 6.94 30.961C6.75 30.631 6.52002 30.241 6.33002 29.911C6.46002 29.711 6.72 29.4909 6.72 29.2609C6.72 28.3909 6.63 27.5109 6.59 26.6409C6.56 26.0809 6.73 25.701 7.25 25.341C8.42 24.531 8.60001 22.791 7.79001 21.631C7.52001 21.241 7.24999 20.911 6.67999 20.741C7.23999 20.391 7.99 20.2709 7.87 19.4209C7.86 19.3209 7.92002 19.1809 7.99002 19.1109C8.23002 18.8709 8.70002 18.6709 8.71002 18.4209C8.76002 17.7409 8.72 17.031 8.53 16.381C8.27 15.481 8.33999 14.7809 9.17999 14.2609C10.22 13.6209 10.38 12.431 10.77 11.441C10.99 10.881 10.68 10.111 10.61 9.38097C10.89 9.09097 11.19 8.72097 11.55 8.44097C11.86 8.20097 12.23 7.99096 12.61 7.87096C14.69 7.21096 16.83 6.92096 19.01 6.87096C21.94 6.80096 24.86 6.75096 27.79 6.65096C31.12 6.53096 34.44 6.35095 37.77 6.24095C39.23 6.19095 40.69 6.28094 42.16 6.29094C46.14 6.33094 50.12 6.35095 54.1 6.42095C55.14 6.44095 56.18 6.64095 57.22 6.67095C58.26 6.70095 59.31 6.61096 60.36 6.56096C60.89 6.54096 61.41 6.46095 61.94 6.49095C63.76 6.59095 65.56 6.48094 67.37 6.29094C68 6.22094 68.65 6.29096 69.29 6.28096C69.78 6.27096 70.21 6.34096 70.55 6.75096C70.83 7.09096 71.23 7.14095 71.66 7.14095C73.47 7.15095 75.28 7.19096 77.09 7.22096C77.38 7.22096 77.68 7.28096 77.97 7.25096C79.18 7.11096 80.27 7.30097 81.26 8.10097C81.87 8.59097 82.7 8.53096 83.46 8.56096C83.8 8.57096 84.1 8.49095 84.28 8.96095C84.35 9.13095 84.91 9.22096 85.22 9.18096C87.57 8.89096 89.88 9.28097 92.17 9.69097C92.83 9.81097 93.59 9.65095 94.22 10.241C93.57 10.451 92.98 10.641 92.41 10.821C92.24 11.891 93.47 11.3309 93.65 11.9509C93.57 12.0409 93.5 12.171 93.42 12.181C91.96 12.291 90.53 12.531 89.14 13.021C88.6 13.211 87.99 13.2209 87.41 13.2609C86.67 13.3109 86.01 13.501 85.64 14.191C85.23 14.941 85.33 15.6609 86 16.3909C87.4 16.4809 88.91 16.631 90.42 16.661C94.04 16.731 97.67 16.7709 101.29 16.7609C105.56 16.7509 109.83 16.6709 114.1 16.6409C115.21 16.6309 116.32 16.691 117.44 16.721C122.18 16.871 126.91 17.001 131.65 17.181C134.75 17.301 137.84 17.5109 140.94 17.6409C143.8 17.7609 146.67 17.8409 149.53 17.9209C150 17.9309 150.42 17.991 150.87 18.191C151.33 18.391 151.89 18.4109 152.41 18.4509C154.62 18.6309 156.84 18.801 159.06 18.961C160.75 19.081 162.38 19.431 163.95 20.091C164.16 20.181 164.39 20.261 164.62 20.281C165.44 20.361 166.18 20.5409 166.8 21.1709C167.02 21.3909 167.47 21.361 167.77 21.521C168.17 21.731 168.52 22.031 168.97 22.351C168.41 23.461 168.28 24.5309 168.83 25.5409C168.52 26.0009 168.21 26.361 168.02 26.771C167.77 27.301 167.62 27.871 168.01 28.441C168.17 28.671 168.31 28.961 168.33 29.241C168.38 29.851 168.75 30.1609 169.22 30.4509C169.36 30.5309 169.44 30.701 169.6 30.901C169.4 31.301 169.17 31.701 169 32.121C168.78 32.681 168.9 33.1609 169.41 33.5109C169.84 33.8009 170.32 34.0209 170.79 34.2609C171.83 34.7809 172.14 35.941 171.47 36.901C171.2 37.281 170.85 37.621 170.65 38.031C170.4 38.551 170.26 39.1209 170.09 39.6409C170.87 40.4909 171.86 40.181 172.71 40.221C172.95 40.631 172.75 40.811 172.46 40.941C172.06 41.131 171.76 41.371 171.85 41.871C171.92 41.951 171.98 42.071 172.07 42.121C172.35 42.261 172.81 42.161 172.8 42.681C172.79 43.011 172.63 43.231 172.32 43.331C171.98 43.441 171.61 43.551 171.63 43.991C171.65 44.361 171.87 44.641 172.25 44.751C173.94 45.251 174.29 46.6609 174.54 48.1409C174.6 48.4809 174.56 48.841 174.55 49.191C174.55 49.831 174.54 50.461 174.53 50.771C175.2 51.491 175.67 52.0109 176.16 52.5109C177.14 53.5109 178.29 53.891 179.67 53.441C180.06 53.311 180.46 53.2309 180.86 53.1409C180.95 53.1209 181.05 53.191 181.23 53.241C180.63 53.571 180.07 53.851 179.55 54.191C179.16 54.451 178.82 54.771 178.49 55.101C178.42 55.171 178.51 55.401 178.53 55.561L178.45 55.581ZM37.78 74.881C37.77 74.831 37.77 74.7809 37.76 74.7309C37.14 74.7609 36.52 74.791 35.91 74.821C35.91 74.871 35.91 74.921 35.91 74.971C36.54 74.941 37.16 74.911 37.78 74.881ZM34.55 74.741L34.68 74.6709L34.55 74.621V74.741ZM39.25 74.7609C39.21 74.7509 39.17 74.7309 39.12 74.7309C39.11 74.7309 39.1 74.791 39.09 74.821C39.13 74.831 39.17 74.851 39.21 74.841C39.23 74.841 39.24 74.7909 39.25 74.7609ZM34.22 0.000963646C34.11 0.000963646 34 0.0309514 33.9 0.0509514C33.94 0.110951 34 0.230944 34.03 0.230944C34.13 0.220944 34.23 0.150949 34.32 0.110949C34.29 0.060949 34.25 -0.00903635 34.22 0.000963646ZM65.24 92.6409C65.22 92.6309 65.1 92.7809 65.1 92.8609C65.1 92.9509 65.2 93.1109 65.23 93.1109C65.36 93.0809 65.48 93.0009 65.7 92.8909C65.49 92.7709 65.37 92.6909 65.24 92.6409ZM178.45 55.581C178.7 55.601 178.95 55.611 179.19 55.631C179.19 55.591 179.19 55.551 179.19 55.501C178.95 55.531 178.7 55.551 178.45 55.581C178.45 55.581 178.46 55.571 178.45 55.581ZM0.27002 57.3909C0.29002 57.3909 0.349996 57.281 0.339996 57.271C0.289996 57.211 0.210004 57.121 0.160004 57.131C0.100004 57.131 0.05 57.241 0 57.301C0.09 57.341 0.17002 57.3709 0.27002 57.3909Z" fill="white"/>
<path d="M88.0823 72.587L97.8921 71.3533L105.862 49.1473L112.607 33.7264L111.38 32.4927L108.928 28.7917L108.315 23.857L107.702 20.7729L107.089 20.156L101.571 19.5392L97.279 18.9224L95.4396 13.9877L92.3741 8.43617L89.3085 7.81934L83.7906 8.43617L74.5939 10.9035L62.3318 15.8382L54.9744 17.0719L45.7778 20.7729L35.9681 26.9412L36.5812 28.7917L34.7418 31.2591L33.5156 34.3432L34.7418 39.2779L39.0336 47.2968L53.1351 71.3533L58.04 65.185L64.1711 59.6334C63.7623 61.6896 62.9449 66.0485 62.9449 67.0355C62.9449 68.0224 63.3536 69.5028 63.558 70.1196L67.8497 71.9701H77.0464L88.0823 72.587Z" fill="#D4CAFB"/>
<path d="M35.2729 27.4226C41.6124 38.5256 47.2775 49.9741 52.256 61.768C52.3786 62.0641 52.8446 62.1627 53.0898 61.99C60.349 56.9073 68.4788 53.5641 77.185 52.0713C77.9575 51.9356 77.6264 50.7513 76.8539 50.887C68.0374 52.3921 59.7972 55.797 52.4644 60.9291C52.7465 61.0031 53.0285 61.0771 53.2983 61.1511C48.3321 49.3696 42.6547 37.9088 36.3151 26.8058C35.9473 26.1026 34.8805 26.7317 35.2729 27.4226Z" fill="#2B2C54"/>
<path d="M35.9841 28.7793C35.187 29.5071 34.3777 30.2227 33.5807 30.9505C33.3845 31.1233 33.3477 31.481 33.4826 31.7031C40.8031 43.3242 47.3143 55.4388 52.9917 67.9606C53.2002 68.4047 53.8256 68.306 54.0463 67.9606C59.2209 60.0774 68.0374 54.4273 77.3689 53.2183C78.1415 53.1196 78.1537 51.8859 77.3689 51.9846C67.5837 53.2553 58.4239 59.0536 52.9917 67.3315C53.3473 67.3315 53.7029 67.3315 54.0463 67.3315C51.0543 60.719 47.8416 54.2175 44.3837 47.8518C42.7405 44.8293 41.0483 41.8438 39.3071 38.883C38.3384 37.2422 37.3574 35.6015 36.3519 33.9854C35.0521 31.8758 34.9418 31.3576 36.8424 29.6552C37.4433 29.1247 36.5727 28.2611 35.9841 28.7793Z" fill="#2B2C54"/>
<path d="M33.2611 31.8884C31.7651 38.3775 37.0501 45.175 40.1402 50.4675C44.2112 57.45 48.503 64.3092 52.3043 71.4521C52.5373 71.8839 53.1136 71.8099 53.3589 71.4521C56.6083 66.6532 61.1699 62.7424 65.9644 59.5719C68.3065 58.0298 70.7711 56.6111 73.383 55.5748C75.0384 54.921 76.6815 54.7606 78.3614 54.3041C81.2798 53.5023 84.0388 52.1329 87.0062 51.3927C93.1619 49.8383 99.5995 49.2338 105.804 50.7759C106.27 50.8869 106.675 50.4798 106.564 50.011C103.989 39.4631 101.206 28.9152 97.7111 18.6388C96.8283 16.0234 95.9086 13.3833 94.6947 10.9037C94.1551 9.78103 93.493 8.22659 92.3281 7.60975C90.0841 6.42543 86.3073 7.26432 83.9653 7.64676C78.9745 8.46098 74.0942 10.0647 69.4468 12.0386C66.0134 13.4943 63.0827 15.2338 59.355 15.7643C55.9829 16.2455 52.6967 17.22 49.533 18.4907C44.481 20.5263 39.6252 23.3144 35.5419 26.9537C34.9533 27.4842 35.8239 28.3478 36.4125 27.8296C40.3242 24.326 45.0083 21.6366 49.8519 19.675C52.2307 18.7128 54.6709 17.9356 57.1847 17.4051C58.7787 17.0597 60.4219 17.035 62.016 16.7389C63.1196 16.5292 63.8798 16.0481 64.9221 15.5176C70.0599 12.8899 75.5043 10.7803 81.1204 9.48495C83.8426 8.85578 88.7966 7.3877 91.5555 8.65838C92.8431 9.25054 93.5052 11.1997 94.0448 12.4334C95.1484 14.9131 96.0312 17.4915 96.8896 20.0698C98.9374 26.2505 100.703 32.5175 102.395 38.8093C103.425 42.646 104.431 46.495 105.375 50.3564C105.633 50.0973 105.878 49.8506 106.135 49.5915C100.115 48.0988 93.8854 48.5306 87.8769 49.9123C84.3822 50.7142 81.1695 52.3303 77.7606 53.2309C75.9213 53.7243 74.131 53.9341 72.3039 54.6989C69.7288 55.7846 67.3009 57.1909 64.9834 58.7454C60.1398 62.0023 55.6028 65.9623 52.3043 70.823C52.6599 70.823 53.0155 70.823 53.3589 70.823C50.0971 64.704 46.4798 58.7824 42.9482 52.8237C41.2806 50.011 39.6252 47.1859 38.0556 44.3114C36.0324 40.6227 33.4328 36.5886 34.4506 32.2091C34.6222 31.4442 33.4451 31.1111 33.2611 31.8884Z" fill="#2B2C54"/>
<path d="M61.856 16.1843C66.5401 29.0391 71.8006 41.6719 77.5025 54.0949C77.8336 54.8104 78.8881 54.1936 78.557 53.4781C72.9042 41.1537 67.6805 28.6073 63.0331 15.8635C62.7756 15.111 61.5862 15.4317 61.856 16.1843Z" fill="#2B2C54"/>
<path d="M78.4585 53.4281C85.5092 48.3824 96.0547 43.7314 104.687 47.0007C105.423 47.2844 105.742 46.0878 105.018 45.8164C96.0792 42.4238 85.1414 47.1364 77.8454 52.3671C77.1955 52.8236 77.8086 53.8969 78.4585 53.4281Z" fill="#2B2C54"/>
<path d="M77.5523 52.071C85.1671 46.3838 94.2044 43.312 103.708 43.2503C104.492 43.2503 104.492 42.0166 103.708 42.0166C94.0082 42.0783 84.7257 45.1871 76.9392 51.01C76.3016 51.4665 76.9147 52.5398 77.5523 52.071Z" fill="#2B2C54"/>
<path d="M63.3516 60.7814C62.4319 63.6311 61.4509 67.0607 63.2167 69.8241C64.7862 72.2791 67.5452 72.4148 70.1816 72.4395C79.2924 72.5505 88.4277 73.7718 97.4772 72.2174C97.9432 72.1311 98.0413 71.4896 97.747 71.1812C96.251 69.6514 94.5465 67.986 94.2645 65.7654C94.0806 64.3713 94.5343 62.7305 94.8408 61.3858C95.736 57.3024 97.2074 53.3423 99.243 49.6907C99.6231 48.9998 98.5685 48.3706 98.1884 49.0738C95.7728 53.404 93.9947 58.2646 93.259 63.187C92.6827 67.0607 94.191 69.306 96.8886 72.057C96.9745 71.7116 97.0725 71.3662 97.1584 71.0208C90.5613 72.1558 83.9398 71.7363 77.2937 71.4156C74.3262 71.2675 71.2974 71.4279 68.3422 71.1688C62.4073 70.663 63.2289 65.1978 64.541 61.1021C64.774 60.3495 63.5968 60.0288 63.3516 60.7814Z" fill="#2B2C54"/>
<path d="M97.3551 19.7617C99.7707 20.0578 106.662 19.7001 107.655 22.3895C108.085 23.5368 107.729 25.4366 107.925 26.7073C108.097 27.8546 108.367 28.9526 108.845 30.0012C109.335 31.0621 110.059 31.7284 110.696 32.6536C111.273 33.4925 111.555 33.5542 111.26 34.8372C111.052 35.7501 110.463 36.6877 110.095 37.5389C108.624 40.9685 107.153 44.3858 105.669 47.8154C105.362 48.5309 106.417 49.1601 106.723 48.4322C108.587 44.102 110.451 39.7719 112.315 35.454C112.609 34.7755 113.186 33.8379 112.94 33.073C112.793 32.6043 112.241 32.3698 111.91 32.0491C110.954 31.0868 110.292 30.285 109.789 29.0266C108.931 26.8677 109.078 24.6594 108.882 22.3895C108.82 21.6123 108.955 20.6746 108.33 20.0948C107.484 19.3053 104.958 19.4657 104.001 19.3423C101.782 19.0709 99.5623 18.7995 97.3428 18.5281C96.5703 18.4294 96.5826 19.6631 97.3551 19.7617Z" fill="#2B2C54"/>
<path d="M104.626 50.2084C102.075 56.9812 98.6052 63.9762 97.2687 71.1068C97.661 71.2178 98.0534 71.3288 98.4458 71.4398C98.4826 71.2301 98.5194 71.0203 98.5562 70.8106C98.6911 70.0334 97.5139 69.7004 97.379 70.4776C97.3422 70.6873 97.3054 70.897 97.2687 71.1068C97.1338 71.884 98.2987 72.217 98.4458 71.4398C99.7947 64.3092 103.265 57.3143 105.803 50.5415C106.097 49.7889 104.908 49.4682 104.626 50.2084Z" fill="#2B2C54"/>
<path d="M107.618 22.7098C105.853 27.2991 104.075 31.8883 102.309 36.4776C102.027 37.2178 103.204 37.5385 103.486 36.8107C105.252 32.2214 107.03 27.6322 108.796 23.0429C109.09 22.2904 107.901 21.9696 107.618 22.7098Z" fill="#2B2C54"/>
<path d="M63.3154 67.4552C65.6207 62.4342 72.9534 63.5322 77.4169 63.7049C82.7019 63.9146 87.9869 64.1243 93.2719 64.3587C94.0566 64.3957 94.0566 63.162 93.2719 63.125C86.5031 62.8289 79.6976 62.3725 72.9166 62.3108C68.9927 62.2738 64.1124 62.7919 62.2608 66.826C61.9297 67.5539 62.9843 68.1831 63.3154 67.4552Z" fill="#2B2C54"/>
<path d="M62.9601 67.1222C67.7546 64.9879 73.1868 65.7898 78.2633 66.0612C83.1191 66.3326 87.9749 66.5917 92.8308 66.8631C93.6155 66.9125 93.6155 65.6665 92.8308 65.6295C87.2024 65.3211 81.5618 65.0126 75.9335 64.7042C71.2616 64.4451 66.7123 64.112 62.3347 66.0612C61.6235 66.3696 62.2489 67.4429 62.9601 67.1222Z" fill="#2B2C54"/>
<path d="M63.8177 68.0721C68.698 66.9248 74.1547 67.6897 79.1086 67.9981C83.9031 68.2942 88.6853 68.6273 93.4798 68.763C94.2646 68.7876 94.2646 67.554 93.4798 67.5293C88.3175 67.3936 83.1674 67.0112 78.0172 66.7028C73.2595 66.419 68.1707 65.7898 63.4866 66.8878C62.714 67.0605 63.0451 68.2448 63.8177 68.0721Z" fill="#2B2C54"/>
<path d="M63.9538 68.8123C69.3247 68.837 74.6342 69.9349 79.9805 70.2804C85.1674 70.6134 90.3665 70.6628 95.5534 70.3297C96.3382 70.2804 96.3382 69.0467 95.5534 69.0961C90.3665 69.4292 85.1674 69.3798 79.9805 69.0467C74.6219 68.7013 69.3247 67.6033 63.9538 67.5786C63.169 67.5786 63.169 68.8123 63.9538 68.8123Z" fill="#2B2C54"/>
<path d="M94.597 66.234C97.172 60.8552 99.4651 55.3777 101.501 49.7768C101.77 49.0243 100.593 48.7035 100.323 49.4437C98.3247 54.9459 96.0684 60.3247 93.5424 65.6048C93.1991 66.3203 94.2536 66.9495 94.597 66.234Z" fill="#2B2C54"/>
<path d="M96.0674 69.8856C98.6915 63.1992 101.181 56.4634 103.523 49.6782C103.78 48.9256 102.603 48.6049 102.346 49.3451C100.004 56.1303 97.5143 62.8661 94.8902 69.5526C94.5959 70.2928 95.7853 70.6135 96.0674 69.8856Z" fill="#2B2C54"/>
<path d="M105.571 45.1875C107.423 40.7092 109.274 36.231 111.126 31.7528C111.432 31.0249 110.243 30.7042 109.949 31.4197C108.097 35.8979 106.245 40.3761 104.394 44.8544C104.087 45.5946 105.277 45.9153 105.571 45.1875Z" fill="#2B2C54"/>
<path d="M104.418 41.6964C106.172 37.7363 107.913 33.7886 109.667 29.8285C109.985 29.113 108.931 28.4838 108.612 29.2117C106.859 33.1717 105.117 37.1195 103.364 41.0795C103.045 41.7951 104.1 42.4242 104.418 41.6964Z" fill="#2B2C54"/>
<path d="M70.599 56.3154C70.0472 58.2893 69.569 60.2755 69.1398 62.2864C68.9804 63.0636 70.1576 63.3967 70.317 62.6195C70.7461 60.6086 71.2244 58.6224 71.7762 56.6485C71.9969 55.8713 70.8197 55.5506 70.599 56.3154Z" fill="#2B2C54"/>
<path d="M43.0836 31.543C48.2092 28.2491 53.6168 25.5474 59.3433 23.4502C60.079 23.1788 59.7602 21.9821 59.0122 22.2659C53.1999 24.4001 47.6819 27.1265 42.4583 30.4821C41.7961 30.9139 42.4092 31.9748 43.0836 31.543Z" fill="#2B2C54"/>
<path d="M46.4192 36.6137C51.3118 34.2204 56.4864 30.9141 61.8573 29.8408C62.6298 29.6805 62.2987 28.4961 61.5262 28.6565C55.9959 29.7668 50.8213 33.0977 45.7938 35.5527C45.0826 35.8981 45.708 36.9591 46.4192 36.6137Z" fill="#2B2C54"/>
<path d="M49.7892 42.0172C51.5427 40.6848 53.4433 39.6115 55.5034 38.8467C56.2391 38.5752 55.9203 37.3786 55.1723 37.6623C53.0141 38.4642 51.0031 39.5622 49.1638 40.9562C48.5507 41.425 49.1638 42.4983 49.7892 42.0172Z" fill="#2B2C54"/>
<path d="M52.7707 46.6804C57.1115 44.5215 61.5872 42.6833 66.1855 41.1412C66.9335 40.8945 66.6147 39.6978 65.8544 39.9569C61.158 41.536 56.5965 43.4235 52.1453 45.6194C51.4464 45.9649 52.0718 47.0258 52.7707 46.6804Z" fill="#2B2C54"/>
<path d="M54.8175 52.0836C56.5832 51.6888 58.2386 50.9733 59.7591 49.9864C60.4213 49.5546 59.8082 48.4813 59.146 48.9254C57.7114 49.8754 56.1786 50.5292 54.4987 50.8993C53.7262 51.072 54.045 52.2563 54.8175 52.0836Z" fill="#2B2C54"/>
<path d="M72.7822 25.1896C76.4854 23.8572 80.1763 22.5372 83.8794 21.2049C84.6152 20.9458 84.2964 19.7491 83.5484 20.0205C79.8452 21.3529 76.1543 22.6729 72.4511 24.0053C71.7276 24.2644 72.0464 25.461 72.7822 25.1896Z" fill="#2B2C54"/>
<path d="M74.8057 29.8901C80.2992 27.8668 86.0869 25.0294 91.9237 24.2769C92.6962 24.1782 92.7085 22.9445 91.9237 23.0432C85.9275 23.8081 80.1275 26.6208 74.4869 28.6934C73.7389 28.9648 74.0577 30.1615 74.8057 29.8901Z" fill="#2B2C54"/>
<path d="M76.0315 35.0346C78.1038 33.4185 80.7034 33.0977 83.1558 32.3575C85.5715 31.6296 87.9013 30.7044 90.1821 29.6558C90.9055 29.3227 90.2802 28.2617 89.569 28.5948C86.7241 29.8902 83.818 30.9265 80.8015 31.7407C78.8395 32.2712 77.037 32.7153 75.4061 33.9736C74.793 34.4424 75.4061 35.5157 76.0315 35.0346Z" fill="#2B2C54"/>
<path d="M77.5888 40.3515C80.9118 39.3769 84.2349 38.39 87.5457 37.4154C89.5567 36.8232 92.7204 36.6012 94.1673 34.9604C94.6946 34.3682 93.8239 33.4923 93.2966 34.0845C91.8865 35.6759 87.5089 36.1447 85.4611 36.7492C82.7267 37.5511 79.9922 38.3653 77.2577 39.1672C76.5097 39.3893 76.8285 40.5736 77.5888 40.3515Z" fill="#2B2C54"/>
<path d="M74.7191 54.7237C74.5229 55.9327 74.2041 57.117 74.3389 58.326C74.3757 58.6345 74.5106 58.8072 74.7926 58.9183C76.9753 59.8188 79.8201 59.7201 82.1499 59.9175C85.1542 60.1643 88.1707 60.2876 91.1872 60.3123C91.5428 60.3123 91.7635 60.0286 91.8003 59.6955C92.2049 56.4139 93.0633 53.3914 94.4367 50.3936C94.7678 49.678 93.7132 49.0489 93.3821 49.7767C92.5851 51.5162 91.8861 53.2927 91.3956 55.1432C90.6967 57.8079 91.3588 59.1156 88.1707 59.0169C85.755 58.9429 83.3517 58.7948 80.9483 58.5728C79.8324 58.4741 78.41 58.5605 77.3432 58.1904C75.4793 57.5365 75.6265 56.7346 75.8962 55.0569C76.0188 54.2673 74.8417 53.9342 74.7191 54.7237Z" fill="#2B2C54"/>
<path d="M99.1575 23.0551C100.739 23.2525 102.333 23.4622 103.915 23.6596C103.744 23.3511 103.56 23.0427 103.388 22.7343C102.1 25.3127 101.095 27.9774 100.371 30.7778C100.175 31.5427 101.352 31.8758 101.549 31.1109C102.248 28.4215 103.204 25.8432 104.443 23.3635C104.663 22.907 104.381 22.4999 103.915 22.4382C102.333 22.2409 100.739 22.0311 99.1575 21.8337C98.385 21.7227 98.385 22.9564 99.1575 23.0551Z" fill="#2B2C54"/>
<path d="M75.7621 54.5515C76.8902 56.0936 78.1042 57.574 79.4039 58.9804C79.7596 59.3751 80.3359 58.7829 79.9803 58.4005C78.7295 57.0435 77.5524 55.6248 76.461 54.1321C76.1545 53.7126 75.4433 54.1197 75.7621 54.5515Z" fill="#2B2C54"/>
<path d="M78.1292 54.1934C79.5393 56.0932 81.0476 57.882 82.6907 59.5845C83.0586 59.9669 83.6349 59.3872 83.2671 59.0047C81.673 57.3639 80.2015 55.6244 78.8404 53.7863C78.5216 53.3545 77.8104 53.7739 78.1292 54.1934Z" fill="#2B2C54"/>
<path d="M80.2008 53.0339C81.6477 55.5135 83.389 57.7835 85.4122 59.819C85.7801 60.1891 86.3687 59.6093 85.9885 59.2392C84.0143 57.253 82.3221 55.0447 80.912 52.6144C80.6422 52.1579 79.931 52.5774 80.2008 53.0339Z" fill="#2B2C54"/>
<path d="M82.9595 52.3306C84.4555 54.8473 86.1845 57.1789 88.1464 59.3502C88.502 59.745 89.0783 59.1652 88.7227 58.7704C86.8098 56.6608 85.1299 54.3785 83.6585 51.9235C83.3887 51.4547 82.6775 51.8742 82.9595 52.3306Z" fill="#2B2C54"/>
<path d="M87.89 54.6499C87.9759 55.3161 88.3315 55.896 88.9569 56.1674C89.4351 56.3771 89.852 55.6739 89.3738 55.4518C89.0304 55.3038 88.7607 55.02 88.7116 54.6376C88.638 54.1318 87.8287 54.1318 87.89 54.6499Z" fill="#2B2C54"/>
<path d="M90.0706 53.6996C90.1441 53.6996 90.2177 53.6996 90.3035 53.6996C90.8308 53.6996 90.8308 52.873 90.3035 52.873C90.23 52.873 90.1564 52.873 90.0706 52.873C89.5555 52.873 89.5433 53.6996 90.0706 53.6996Z" fill="#2B2C54"/>
<path d="M71.2125 49.7646C71.654 49.5795 72.1199 49.5425 72.5981 49.5919C73.1131 49.6659 73.1131 48.8393 72.5981 48.7653C71.9728 48.679 71.3842 48.79 70.8079 49.049C70.3174 49.2588 70.7343 49.962 71.2125 49.7646Z" fill="#2B2C54"/>
<path d="M71.2979 47.4208C71.445 47.2728 71.6045 47.1124 71.7516 46.9643C72.1195 46.5942 71.5432 46.0021 71.1753 46.3845C71.0281 46.5326 70.8687 46.693 70.7216 46.841C70.3537 47.2111 70.93 47.8033 71.2979 47.4208Z" fill="#2B2C54"/>
<path d="M71.0641 44.2128C71.2113 44.0648 71.3707 43.9044 71.5179 43.7563C71.8857 43.3862 71.3094 42.7941 70.9415 43.1765C70.7944 43.3246 70.635 43.4849 70.4878 43.633C70.1077 44.0031 70.684 44.5829 71.0641 44.2128Z" fill="#2B2C54"/>
<path d="M98.5812 40.8575C99.2556 40.6477 99.9423 40.5737 100.641 40.6724C101.156 40.7464 101.377 39.9569 100.862 39.8829C100.016 39.7595 99.1821 39.8088 98.3605 40.0679C97.8578 40.2159 98.0785 41.0178 98.5812 40.8575Z" fill="#2B2C54"/>
<path d="M98.9365 37.933C99.243 37.933 99.5373 37.933 99.8439 37.933C100.371 37.933 100.371 37.1064 99.8439 37.1064C99.5373 37.1064 99.243 37.1064 98.9365 37.1064C98.4092 37.1064 98.4092 37.933 98.9365 37.933Z" fill="#2B2C54"/>
<path d="M98.7647 35.0712C98.9977 34.8368 99.2184 34.6148 99.4514 34.3804C99.8192 34.0103 99.2429 33.4181 98.875 33.8005C98.6421 34.0349 98.4213 34.257 98.1884 34.4914C97.8205 34.8615 98.3968 35.4413 98.7647 35.0712Z" fill="#2B2C54"/>
</svg>
