<svg width="182" height="94" viewBox="0 0 182 94" fill="none" xmlns="http://www.w3.org/2000/svg">
<path d="M178.45 55.581C178.62 55.871 177.95 56.1909 178.48 56.4809C178.52 56.5009 178.54 56.701 178.51 56.721C178.05 57.001 178.03 57.241 178.39 57.681C178.73 58.101 178.59 58.461 178.14 58.681C177.5 58.981 176.89 59.291 176.4 59.821C176.19 60.041 175.79 60.151 175.47 60.191C174.02 60.361 172.57 60.511 171.12 60.631C170.19 60.711 169.25 60.741 168.32 60.801C167.1 60.881 166.27 61.541 165.68 62.571C165.24 63.331 164.76 64.061 164.34 64.821C164.09 65.281 163.88 65.771 163.73 66.271C163.6 66.711 163.6 67.201 163.5 67.651C163.2 68.951 163.25 70.0809 164.7 70.7009C164.81 70.7509 164.84 70.9909 164.91 71.1409C164.45 72.1009 163.44 71.701 162.71 72.101C162.45 73.131 162.83 74.1609 162.81 75.2009C162.81 75.4009 162.97 75.641 163.12 75.811C164.05 76.821 164.3 78.061 164.35 79.371C164.4 80.551 164.57 81.6909 165.02 82.7909C165.53 84.0509 165.4 85.3009 164.77 86.5109C164.55 86.9309 164.24 87.101 163.78 87.091C162.09 87.041 160.41 87.001 158.72 86.961C158.2 86.951 157.64 86.901 157.24 87.321C156.91 87.661 156.52 87.651 156.11 87.631C152.37 87.471 148.64 87.311 144.9 87.161C141.57 87.031 138.24 86.911 134.91 86.781C131.64 86.661 128.37 86.541 125.09 86.401C123.98 86.351 122.87 86.231 121.77 86.191C116.45 86.031 111.13 85.841 105.8 85.751C103 85.701 100.19 85.9209 97.38 85.8909C94.8 85.8609 92.24 86.1409 89.67 86.2009C84.41 86.3109 79.14 86.3609 73.88 86.5109C68.97 86.6509 64.07 86.911 59.16 87.061C55.77 87.161 52.38 87.2309 48.99 87.2009C44.25 87.1609 39.52 87.001 34.78 86.901C32.15 86.841 29.52 86.8009 26.89 86.7309C26.31 86.7209 25.72 86.651 25.14 86.601C24.34 86.521 23.71 86.1009 23.18 85.5409C23.03 85.3809 22.83 85.1409 22.84 84.9509C22.89 84.2009 22.58 83.641 22.23 83.001C21.95 82.501 21.99 81.811 22.46 81.241C22.94 80.661 23.37 80.0309 23.77 79.3909C23.89 79.2009 23.8 78.871 23.81 78.591C24.68 78.111 24.68 78.111 25.65 76.781C25.52 76.741 25.36 76.681 25.21 76.621C25.05 76.561 24.9 76.4909 24.65 76.3909C25.53 75.5309 26.46 75.0809 27.68 75.1109C29.37 75.1509 31.07 75.0809 32.77 75.0409C33.03 75.0309 33.28 74.931 33.53 74.781C31.24 74.371 28.93 74.5509 26.66 74.4209C26.45 73.9809 26.71 73.831 27 73.781C28.41 73.521 29.8 73.1509 31.18 73.2309C31.47 72.6609 31.21 72.431 30.84 72.351C30.39 72.241 29.92 72.181 29.45 72.161C27.82 72.091 26.2 71.911 24.56 72.071C23.34 72.191 22.11 72.261 20.88 72.311C20.48 72.331 20.08 72.2309 19.69 72.1709C19.46 72.1309 19.22 71.941 19.03 71.991C17.98 72.291 17.26 71.641 16.44 71.211C15.61 70.771 15.22 70.031 15.35 69.191C15.61 67.481 14.69 66.161 14.05 64.741C13.89 64.381 13.56 64.091 13.26 63.811C12.92 63.491 12.53 63.2209 12.18 62.9209C10.86 61.7609 9.33 61.1309 7.56 61.0409C7.16 61.0209 6.74002 60.971 6.36002 60.841C4.88002 60.331 4.04 59.2209 4.22 57.6709C4.31 56.8709 4.17002 56.171 3.96002 55.381C4.83002 54.171 4.77002 52.661 5.08002 51.251C5.14002 50.981 4.71002 50.661 5.11002 50.341C5.67002 49.881 5.39001 49.411 5.04001 48.911C5.37001 48.301 6.02002 47.701 5.36002 46.911C5.31002 46.851 5.34001 46.681 5.39001 46.591C5.77001 45.911 5.42 45.331 5.12 44.781C4.84 44.271 4.44002 43.831 4.49002 43.101C4.87002 42.901 5.29001 42.7209 5.67001 42.4809C6.12001 42.2009 6.17999 41.821 5.92999 41.281C5.66999 40.711 5.44001 38.7409 5.67001 38.2909C6.09001 37.5009 6.11 36.681 6.12 35.811C6.13 35.111 6.57 34.4209 6.13 33.6709C5.92 33.6409 5.69002 33.611 5.46002 33.581C5.46002 33.491 5.43001 33.401 5.45001 33.321C5.67001 32.401 6.58 31.921 6.94 30.961C6.75 30.631 6.52002 30.241 6.33002 29.911C6.46002 29.711 6.72 29.4909 6.72 29.2609C6.72 28.3909 6.63 27.5109 6.59 26.6409C6.56 26.0809 6.73 25.701 7.25 25.341C8.42 24.531 8.60001 22.791 7.79001 21.631C7.52001 21.241 7.24999 20.911 6.67999 20.741C7.23999 20.391 7.99 20.2709 7.87 19.4209C7.86 19.3209 7.92002 19.1809 7.99002 19.1109C8.23002 18.8709 8.70002 18.6709 8.71002 18.4209C8.76002 17.7409 8.72 17.031 8.53 16.381C8.27 15.481 8.33999 14.7809 9.17999 14.2609C10.22 13.6209 10.38 12.431 10.77 11.441C10.99 10.881 10.68 10.111 10.61 9.38097C10.89 9.09097 11.19 8.72097 11.55 8.44097C11.86 8.20097 12.23 7.99096 12.61 7.87096C14.69 7.21096 16.83 6.92096 19.01 6.87096C21.94 6.80096 24.86 6.75096 27.79 6.65096C31.12 6.53096 34.44 6.35095 37.77 6.24095C39.23 6.19095 40.69 6.28094 42.16 6.29094C46.14 6.33094 50.12 6.35095 54.1 6.42095C55.14 6.44095 56.18 6.64095 57.22 6.67095C58.26 6.70095 59.31 6.61096 60.36 6.56096C60.89 6.54096 61.41 6.46095 61.94 6.49095C63.76 6.59095 65.56 6.48094 67.37 6.29094C68 6.22094 68.65 6.29096 69.29 6.28096C69.78 6.27096 70.21 6.34096 70.55 6.75096C70.83 7.09096 71.23 7.14095 71.66 7.14095C73.47 7.15095 75.28 7.19096 77.09 7.22096C77.38 7.22096 77.68 7.28096 77.97 7.25096C79.18 7.11096 80.27 7.30097 81.26 8.10097C81.87 8.59097 82.7 8.53096 83.46 8.56096C83.8 8.57096 84.1 8.49095 84.28 8.96095C84.35 9.13095 84.91 9.22096 85.22 9.18096C87.57 8.89096 89.88 9.28097 92.17 9.69097C92.83 9.81097 93.59 9.65095 94.22 10.241C93.57 10.451 92.98 10.641 92.41 10.821C92.24 11.891 93.47 11.3309 93.65 11.9509C93.57 12.0409 93.5 12.171 93.42 12.181C91.96 12.291 90.53 12.531 89.14 13.021C88.6 13.211 87.99 13.2209 87.41 13.2609C86.67 13.3109 86.01 13.501 85.64 14.191C85.23 14.941 85.33 15.6609 86 16.3909C87.4 16.4809 88.91 16.631 90.42 16.661C94.04 16.731 97.67 16.7709 101.29 16.7609C105.56 16.7509 109.83 16.6709 114.1 16.6409C115.21 16.6309 116.32 16.691 117.44 16.721C122.18 16.871 126.91 17.001 131.65 17.181C134.75 17.301 137.84 17.5109 140.94 17.6409C143.8 17.7609 146.67 17.8409 149.53 17.9209C150 17.9309 150.42 17.991 150.87 18.191C151.33 18.391 151.89 18.4109 152.41 18.4509C154.62 18.6309 156.84 18.801 159.06 18.961C160.75 19.081 162.38 19.431 163.95 20.091C164.16 20.181 164.39 20.261 164.62 20.281C165.44 20.361 166.18 20.5409 166.8 21.1709C167.02 21.3909 167.47 21.361 167.77 21.521C168.17 21.731 168.52 22.031 168.97 22.351C168.41 23.461 168.28 24.5309 168.83 25.5409C168.52 26.0009 168.21 26.361 168.02 26.771C167.77 27.301 167.62 27.871 168.01 28.441C168.17 28.671 168.31 28.961 168.33 29.241C168.38 29.851 168.75 30.1609 169.22 30.4509C169.36 30.5309 169.44 30.701 169.6 30.901C169.4 31.301 169.17 31.701 169 32.121C168.78 32.681 168.9 33.1609 169.41 33.5109C169.84 33.8009 170.32 34.0209 170.79 34.2609C171.83 34.7809 172.14 35.941 171.47 36.901C171.2 37.281 170.85 37.621 170.65 38.031C170.4 38.551 170.26 39.1209 170.09 39.6409C170.87 40.4909 171.86 40.181 172.71 40.221C172.95 40.631 172.75 40.811 172.46 40.941C172.06 41.131 171.76 41.371 171.85 41.871C171.92 41.951 171.98 42.071 172.07 42.121C172.35 42.261 172.81 42.161 172.8 42.681C172.79 43.011 172.63 43.231 172.32 43.331C171.98 43.441 171.61 43.551 171.63 43.991C171.65 44.361 171.87 44.641 172.25 44.751C173.94 45.251 174.29 46.6609 174.54 48.1409C174.6 48.4809 174.56 48.841 174.55 49.191C174.55 49.831 174.54 50.461 174.53 50.771C175.2 51.491 175.67 52.0109 176.16 52.5109C177.14 53.5109 178.29 53.891 179.67 53.441C180.06 53.311 180.46 53.2309 180.86 53.1409C180.95 53.1209 181.05 53.191 181.23 53.241C180.63 53.571 180.07 53.851 179.55 54.191C179.16 54.451 178.82 54.771 178.49 55.101C178.42 55.171 178.51 55.401 178.53 55.561L178.45 55.581ZM37.78 74.881C37.77 74.831 37.77 74.7809 37.76 74.7309C37.14 74.7609 36.52 74.791 35.91 74.821C35.91 74.871 35.91 74.921 35.91 74.971C36.54 74.941 37.16 74.911 37.78 74.881ZM34.55 74.741L34.68 74.6709L34.55 74.621V74.741ZM39.25 74.7609C39.21 74.7509 39.17 74.7309 39.12 74.7309C39.11 74.7309 39.1 74.791 39.09 74.821C39.13 74.831 39.17 74.851 39.21 74.841C39.23 74.841 39.24 74.7909 39.25 74.7609ZM34.22 0.000963646C34.11 0.000963646 34 0.0309514 33.9 0.0509514C33.94 0.110951 34 0.230944 34.03 0.230944C34.13 0.220944 34.23 0.150949 34.32 0.110949C34.29 0.060949 34.25 -0.00903635 34.22 0.000963646ZM65.24 92.6409C65.22 92.6309 65.1 92.7809 65.1 92.8609C65.1 92.9509 65.2 93.1109 65.23 93.1109C65.36 93.0809 65.48 93.0009 65.7 92.8909C65.49 92.7709 65.37 92.6909 65.24 92.6409ZM178.45 55.581C178.7 55.601 178.95 55.611 179.19 55.631C179.19 55.591 179.19 55.551 179.19 55.501C178.95 55.531 178.7 55.551 178.45 55.581C178.45 55.581 178.46 55.571 178.45 55.581ZM0.27002 57.3909C0.29002 57.3909 0.349996 57.281 0.339996 57.271C0.289996 57.211 0.210004 57.121 0.160004 57.131C0.100004 57.131 0.05 57.241 0 57.301C0.09 57.341 0.17002 57.3709 0.27002 57.3909Z" fill="white"/>
<path d="M95.4495 25.4121C93.9934 20.9959 90.2554 17.8736 86.3108 15.723C82.1965 13.4804 77.5484 12.3122 72.8653 12.7281C68.401 13.1246 64.0854 14.7707 60.3701 17.2771C56.6881 19.7622 53.139 23.1748 51.7355 27.5202C50.3092 31.9329 51.298 36.7757 53.314 40.8344C55.4491 45.132 58.8231 48.6614 62.1447 52.0457C63.0127 52.9307 63.8894 53.8086 64.7452 54.706C65.5362 55.5344 66.3045 56.3964 66.8067 57.439C67.827 59.5541 67.6013 62.0357 67.5803 64.3155C67.5698 65.4554 67.6083 66.5882 67.778 67.7175C67.8918 68.4733 69.031 68.1512 68.919 67.4007C68.5778 65.1244 68.9085 62.8128 68.7353 60.5259C68.6513 59.4232 68.457 58.3293 68.0335 57.3044C67.6135 56.2902 66.9765 55.4105 66.2537 54.5928C64.719 52.8581 63.0162 51.2687 61.4149 49.5978C59.7769 47.8879 58.1774 46.1267 56.7808 44.2098C54.1348 40.5795 52.1608 36.2518 52.2465 31.6656C52.2885 29.3982 52.901 27.214 54.0508 25.2652C55.1778 23.3571 56.7143 21.7252 58.3821 20.2861C61.7124 17.4081 65.7445 15.3088 70.0373 14.3636C74.4526 13.3901 78.9852 13.8255 83.1678 15.5372C87.1841 17.1797 91.3667 19.918 93.4912 23.8386C95.6945 27.9061 95.2465 32.8799 93.6417 37.0695C91.9214 41.5618 88.9044 45.2948 86.1691 49.1783C84.7953 51.1306 83.6053 53.2033 82.9963 55.5326C82.4048 57.793 82.3068 60.1701 82.6078 62.4818C82.7565 63.6252 82.9963 64.7492 83.3235 65.8554C83.5405 66.5882 84.6833 66.2767 84.4645 65.5386C83.7628 63.1809 83.4688 60.7188 83.7033 58.2638C83.9413 55.7751 84.8198 53.467 86.1341 51.3589C87.4431 49.2614 89.0094 47.3357 90.4164 45.3037C91.8007 43.3035 93.0922 41.2273 94.1002 39.0095C96.0095 34.8074 96.9282 29.8991 95.4495 25.4121Z" fill="#2B2C54" stroke="#2B2C54"/>
<path d="M92.1902 26.5873C91.7107 24.6244 90.1269 22.3658 88.7269 20.9587C87.4336 19.6577 85.7011 19.1161 84.0648 18.2965C80.7677 16.6469 76.8179 15.9566 73.1498 16.107C69.1615 16.2699 64.986 17.346 61.8079 19.8683C55.2978 25.0368 54.3615 35.0268 57.6166 42.2609C59.3701 46.1585 62.4449 49.095 65.525 51.943C66.3177 52.6757 67.1105 53.4085 67.8805 54.1643C68.6155 54.883 69.641 55.837 69.9613 56.5645C70.3288 57.3999 70.3498 59.0408 70.4075 60.1913C70.4688 61.4285 70.5318 62.6658 70.5931 63.903C70.6543 65.1403 70.8853 66.6926 70.8853 66.6926L81.0197 66.2005C81.0197 66.2005 80.8272 63.4428 80.7327 59.9293C80.668 57.5291 81.004 55.283 81.837 53.0315C83.5188 48.4879 87.1343 45.0452 89.2396 40.6944C90.2686 38.5669 91.4657 36.188 92.2357 33.9489C92.9707 31.8089 92.7379 28.8317 92.1902 26.5873Z" fill="#D4CAFB"/>
<path d="M79.6821 37.372C78.7178 37.8323 78.4063 39.0801 78.2523 40.0466C78.1998 40.3793 78.1508 40.7121 78.1 41.0449C77.6748 41.3298 77.2005 41.5334 76.672 41.5918C76.0245 41.6644 75.4032 41.4803 74.9727 41.0714C75.3315 40.8112 75.6395 40.4855 75.8583 40.0855C76.0963 39.6518 76.1733 39.0978 75.9738 38.6323C75.7393 38.0889 75.132 37.9314 74.6332 38.2234C73.711 38.7615 73.669 40.0165 74.1117 40.8909C73.9192 40.9829 73.725 41.0572 73.5465 41.1121C73.4397 41.144 73.326 41.1741 73.207 41.2024C72.843 40.1156 72.2007 38.8235 70.9774 38.65C70.4507 38.5757 69.9134 38.827 69.6737 39.3138C69.4356 39.7952 69.4951 40.3899 69.7489 40.8519C70.3247 41.898 71.7317 42.0007 72.7992 41.8697C72.8465 42.0485 72.892 42.2237 72.9322 42.3865C73.2612 43.7282 73.4992 45.0947 73.6865 46.4647C74.4442 51.9854 74.2955 57.5787 74.754 63.1259C74.81 63.8056 74.8765 64.4835 74.9517 65.1614C74.9937 65.5385 75.5853 65.542 75.5432 65.1614C74.8292 58.8283 75.1215 52.4208 74.2272 46.1054C74.0225 44.6557 73.781 43.1813 73.3767 41.7706C73.7442 41.6856 74.1065 41.5564 74.4442 41.3847C75.1512 42.1741 76.2993 42.3547 77.3143 42.0662C77.5505 41.9989 77.771 41.9033 77.9845 41.7953C77.8305 42.8202 77.6818 43.8468 77.5418 44.8752C76.6703 51.249 76.105 57.7344 76.8925 64.1472C76.9888 64.926 77.1025 65.7031 77.2373 66.4748C77.302 66.8518 77.8725 66.6925 77.8078 66.3173C76.84 60.7452 76.994 55.0493 77.5768 49.4454C77.8568 46.7514 78.2365 44.0698 78.6425 41.3918C79.3093 40.8873 79.8483 40.2023 80.2981 39.4908C80.5938 39.0252 81.0558 38.4358 81.0191 37.8517C80.9701 37.1296 80.1808 37.1313 79.6821 37.372ZM70.4769 40.8289C70.1742 40.5457 70.0167 40.0589 70.1672 39.6571C70.3352 39.2058 70.8287 39.1527 71.2172 39.3385C71.9592 39.6926 72.3634 40.4926 72.6295 41.3033C71.8577 41.3989 71.0124 41.3298 70.4769 40.8289ZM74.4512 40.1174C74.3637 39.7067 74.432 39.2447 74.7137 38.9226C74.8467 38.7721 75.0952 38.5774 75.3035 38.7049C75.461 38.8005 75.4942 39.0306 75.496 39.1987C75.5012 39.7846 75.1127 40.2536 74.6262 40.5935C74.5527 40.4484 74.488 40.2926 74.4512 40.1174ZM80.3733 38.1668C80.2788 38.4199 80.1126 38.6553 79.9743 38.8854C79.8133 39.1527 79.6453 39.4164 79.4651 39.6713C79.2586 39.9616 79.0258 40.2377 78.7721 40.4908C78.8876 39.6501 79.0381 38.7084 79.6348 38.1243C79.7713 37.9898 79.9358 37.8889 80.1196 37.8393C80.2053 37.8163 80.3698 37.7597 80.4241 37.8517C80.4661 37.9296 80.4013 38.0889 80.3733 38.1668Z" fill="#2B2C54"/>
<path d="M85.4378 66.4145C84.4123 65.5313 82.8075 65.7171 81.5598 65.7224C79.7887 65.7313 78.016 65.7773 76.2467 65.864C74.3882 65.9543 72.5051 66.0286 70.6606 66.2959C69.1696 66.5119 67.6715 66.988 66.6338 68.1438C66.5305 68.2589 66.485 68.3863 66.478 68.5102C66.0668 69.3474 66.2785 70.3475 66.891 71.0838C67.2988 71.5741 67.8325 71.8626 68.4171 72.0255C67.815 72.6609 67.6418 73.599 68.0093 74.438C68.4608 75.47 69.5126 76.0859 70.5643 76.3337C70.6956 76.3638 70.8286 76.3904 70.9633 76.4152C70.7743 76.6382 70.6396 76.9161 70.5818 77.2329C70.4348 78.0365 70.8338 78.7693 71.4761 79.2277C72.2549 79.7835 73.2734 79.934 74.2027 79.9818C75.3927 80.0419 76.5949 79.9393 77.7832 79.8649C79.4335 79.7623 82.055 79.872 82.7883 77.971C83.0666 77.2506 82.9668 76.3904 82.552 75.7425C82.4453 75.5762 82.3193 75.4363 82.1828 75.3107C83.5111 74.8682 84.6451 74.1283 84.8236 72.6521C84.9268 71.7972 84.5261 71.0378 83.8961 70.5245C84.4246 70.351 84.9128 70.1015 85.3136 69.7103C86.2061 68.843 86.4599 67.296 85.4378 66.4145ZM80.1843 75.8523C80.8108 75.8381 81.432 75.9903 81.677 76.6311C82.2335 78.0825 80.4625 78.4719 79.43 78.5657C77.736 78.718 76.0052 78.9091 74.3042 78.8896C73.5096 78.8808 72.5681 78.8383 71.9206 78.3108C71.6651 78.102 71.4901 77.8347 71.5181 77.4949C71.5409 77.2294 71.6844 76.8718 71.9871 76.84C72.0729 76.8311 72.1429 76.7992 72.2041 76.7603C72.2986 76.87 72.4369 76.9373 72.6136 76.9214C73.3416 76.8523 74.0697 76.7461 74.7959 76.6311C76.1697 76.5886 77.5225 76.3497 78.863 76.0576C79.143 75.9974 79.451 75.9408 79.7747 75.8806C79.9112 75.8664 80.0478 75.8541 80.1843 75.8523ZM83.1716 73.438C82.468 74.1708 81.3358 74.3071 80.3943 74.5071C80.0915 74.5708 79.7905 74.6363 79.4895 74.7C78.5112 74.785 77.5225 74.9903 76.5634 75.1354C75.8232 75.2469 75.0742 75.3443 74.3287 75.454C74.0732 75.4611 73.8177 75.4664 73.5586 75.4611C72.4281 75.4399 71.0456 75.5195 69.9991 75.0257C69.2378 74.6664 68.3348 73.4079 69.3218 72.7317C69.3901 72.6857 69.4408 72.6308 69.4811 72.5707C69.5406 72.5866 69.6053 72.5972 69.6806 72.5937C71.2661 72.5087 72.8359 72.2096 74.3987 71.8963C76.6387 71.6609 78.8717 71.3458 81.0978 71.0183C81.2815 70.9918 81.4723 70.967 81.6648 70.944C82.1355 70.9794 82.5905 71.0803 82.9738 71.321C83.7998 71.8379 83.8278 72.7547 83.1716 73.438ZM84.9058 68.1562C84.6258 69.3527 83.1138 69.5351 82.1198 69.6908C81.9693 69.7138 81.817 69.7368 81.6665 69.7616C80.8668 69.7068 80.0425 69.7935 79.2777 69.8731C76.6597 70.1457 74.0924 70.7546 71.4954 71.1706C70.6588 71.2626 69.8171 71.3086 69.0243 71.1759C68.3891 71.0697 67.7853 70.8042 67.4318 70.2413C67.2375 69.9315 67.1168 69.5298 67.1833 69.1651C67.283 69.1439 67.3845 69.089 67.4738 68.9881C69.0751 67.2022 71.9819 67.319 74.1677 67.1756C77.0762 66.9827 80.0005 66.8747 82.9161 66.9119C83.6791 66.9207 85.1753 67.0075 84.9058 68.1562Z" fill="#2B2C54" stroke="#2B2C54"/>
<path d="M68.1502 49.5023C66.1306 47.7729 64.2563 45.8365 62.7846 43.6063C62.0758 42.5354 61.4493 41.3955 60.9785 40.199C60.7353 39.5795 60.5288 38.9458 60.3625 38.2998C60.198 37.6537 60.142 36.9722 59.8935 36.3527C59.7413 35.9704 59.036 35.8164 58.959 36.3527C58.7752 37.6643 59.3143 39.1476 59.7763 40.3601C60.2715 41.661 60.912 42.9018 61.6698 44.0665C63.2133 46.4401 65.1734 48.511 67.3136 50.3448C67.8894 50.8369 68.7312 49.9996 68.1502 49.5023Z" fill="white"/>
<path d="M59.9066 32.3009C59.8541 32.2035 59.7508 32.0991 59.6528 32.0478C59.6423 32.0424 59.6318 32.0407 59.6213 32.0354C59.5723 32.0035 59.5181 31.9787 59.4621 31.9628C59.3238 31.9256 59.1593 31.9362 59.0386 32.0194C58.9931 32.0513 58.9406 32.0832 58.9056 32.1256C58.8968 32.1363 58.8863 32.1504 58.8758 32.161C58.8741 32.1628 58.8723 32.1628 58.8723 32.1646C58.7743 32.2743 58.7463 32.331 58.6956 32.4672C58.6921 32.4779 58.6886 32.4885 58.6868 32.4991C58.6798 32.5363 58.6693 32.6195 58.6658 32.6566C58.6658 32.6602 58.6658 32.6637 58.6641 32.6655C58.6641 32.6673 58.6641 32.669 58.6641 32.6726C58.6658 32.7009 58.6798 32.8053 58.6851 32.8319C58.6868 32.8372 58.6868 32.8407 58.6886 32.846C58.6903 32.8531 58.7061 32.8885 58.7201 32.9221C58.7218 32.9275 58.7218 32.9345 58.7253 32.9416C58.7463 32.9965 58.7673 33.0567 58.7971 33.108C58.8268 33.1593 58.8688 33.2071 58.9056 33.2531C58.9756 33.3239 59.0596 33.3717 59.1541 33.4001C59.2538 33.4266 59.3536 33.4266 59.4533 33.4001C59.5041 33.3824 59.5566 33.3593 59.6056 33.3363C59.6126 33.3328 59.6196 33.3293 59.6248 33.3257C59.6318 33.3222 59.6371 33.3169 59.6423 33.3133C59.6808 33.285 59.7246 33.2514 59.7613 33.2213C59.7648 33.2177 59.7683 33.216 59.7718 33.2124C59.8716 33.1115 59.9118 33.0195 59.9608 32.8903C59.9661 32.8761 59.9713 32.862 59.9731 32.8478C59.9853 32.7859 59.9976 32.7221 59.9976 32.6584C59.9976 32.5274 59.9696 32.4177 59.9066 32.3009Z" fill="white"/>
<path d="M64.7854 21.0558C64.0731 21.4506 63.4571 22.017 62.8604 22.5674C62.2478 23.1321 61.6721 23.7374 61.1646 24.3994C60.2231 25.6261 59.5546 27.0421 59.4163 28.5997C59.3621 29.2086 60.3106 29.2068 60.3613 28.5997C60.4768 27.2031 61.1348 25.9004 62.0116 24.8313C62.4771 24.2631 63.0021 23.7481 63.5516 23.2631C64.1326 22.748 64.7749 22.2966 65.2911 21.7143C65.5992 21.3638 65.2089 20.8204 64.7854 21.0558Z" fill="white"/>
<path d="M101.369 9.35264C100.188 10.312 99.1153 11.4147 98.011 12.4626C96.905 13.5122 95.799 14.5636 94.693 15.6132C94.4147 15.877 94.8347 16.2964 95.1112 16.0345C96.2173 14.9849 97.3233 13.9335 98.4293 12.8838C99.5318 11.836 100.687 10.8235 101.707 9.69248C101.915 9.45884 101.604 9.16147 101.369 9.35264Z" fill="#2B2C54" stroke="#2B2C54"/>
<path d="M106.615 26.7324C105.579 26.7484 104.545 26.8634 103.509 26.8882C102.471 26.913 101.433 26.8917 100.395 26.8298C100.016 26.8068 100.017 27.4033 100.395 27.4263C101.449 27.4882 102.504 27.5095 103.56 27.4829C104.597 27.4564 105.658 27.4263 106.68 27.221C106.956 27.1661 106.89 26.7289 106.615 26.7324Z" fill="#2B2C54" stroke="#2B2C54"/>
<path d="M50.3716 17.1565C48.5866 16.2379 46.9048 15.1387 45.286 13.9475C45.0568 13.7776 44.7593 14.1634 44.9798 14.3475C46.5443 15.652 48.2663 16.7406 50.0723 17.6698C50.4119 17.8433 50.7111 17.33 50.3716 17.1565Z" fill="#2B2C54" stroke="#2B2C54"/>
<path d="M45.9283 32.662C44.6438 32.4797 43.3505 32.377 42.052 32.3735C40.7657 32.37 39.4479 32.416 38.1844 32.6744C37.9009 32.7328 37.9604 33.2072 38.2527 33.1877C39.5039 33.101 40.7447 32.9682 42.0012 32.97C43.2613 32.9718 44.523 33.0603 45.7725 33.2373C46.1436 33.2904 46.3028 32.7169 45.9283 32.662Z" fill="#2B2C54" stroke="#2B2C54"/>
<path d="M49.3353 47.1213C47.958 48.594 46.5702 50.0578 45.2279 51.5623C45.0337 51.78 45.3399 52.0951 45.5482 51.8862C46.9675 50.4561 48.343 48.9816 49.7273 47.5178C49.974 47.2576 49.5803 46.8594 49.3353 47.1213Z" fill="#2B2C54" stroke="#2B2C54"/>
<path d="M107.828 48.2296C106.174 47.6561 104.52 47.0879 102.912 46.3923C101.313 45.7002 99.7551 44.9161 98.2431 44.0453C97.9123 43.8541 97.6148 44.3692 97.9438 44.5603C99.4838 45.4471 101.071 46.2454 102.702 46.9446C104.323 47.6402 105.983 48.2738 107.695 48.7075C108.006 48.7872 108.125 48.334 107.828 48.2296Z" fill="#2B2C54" stroke="#2B2C54"/>
</svg>
