<svg width="182" height="94" viewBox="0 0 182 94" fill="none" xmlns="http://www.w3.org/2000/svg">
<path d="M178.45 55.581C178.62 55.871 177.95 56.1909 178.48 56.4809C178.52 56.5009 178.54 56.701 178.51 56.721C178.05 57.001 178.03 57.241 178.39 57.681C178.73 58.101 178.59 58.461 178.14 58.681C177.5 58.981 176.89 59.291 176.4 59.821C176.19 60.041 175.79 60.151 175.47 60.191C174.02 60.361 172.57 60.511 171.12 60.631C170.19 60.711 169.25 60.741 168.32 60.801C167.1 60.881 166.27 61.541 165.68 62.571C165.24 63.331 164.76 64.061 164.34 64.821C164.09 65.281 163.88 65.771 163.73 66.271C163.6 66.711 163.6 67.201 163.5 67.651C163.2 68.951 163.25 70.0809 164.7 70.7009C164.81 70.7509 164.84 70.9909 164.91 71.1409C164.45 72.1009 163.44 71.701 162.71 72.101C162.45 73.131 162.83 74.1609 162.81 75.2009C162.81 75.4009 162.97 75.641 163.12 75.811C164.05 76.821 164.3 78.061 164.35 79.371C164.4 80.551 164.57 81.6909 165.02 82.7909C165.53 84.0509 165.4 85.3009 164.77 86.5109C164.55 86.9309 164.24 87.101 163.78 87.091C162.09 87.041 160.41 87.001 158.72 86.961C158.2 86.951 157.64 86.901 157.24 87.321C156.91 87.661 156.52 87.651 156.11 87.631C152.37 87.471 148.64 87.311 144.9 87.161C141.57 87.031 138.24 86.911 134.91 86.781C131.64 86.661 128.37 86.541 125.09 86.401C123.98 86.351 122.87 86.231 121.77 86.191C116.45 86.031 111.13 85.841 105.8 85.751C103 85.701 100.19 85.9209 97.38 85.8909C94.8 85.8609 92.24 86.1409 89.67 86.2009C84.41 86.3109 79.14 86.3609 73.88 86.5109C68.97 86.6509 64.07 86.911 59.16 87.061C55.77 87.161 52.38 87.2309 48.99 87.2009C44.25 87.1609 39.52 87.001 34.78 86.901C32.15 86.841 29.52 86.8009 26.89 86.7309C26.31 86.7209 25.72 86.651 25.14 86.601C24.34 86.521 23.71 86.1009 23.18 85.5409C23.03 85.3809 22.83 85.1409 22.84 84.9509C22.89 84.2009 22.58 83.641 22.23 83.001C21.95 82.501 21.99 81.811 22.46 81.241C22.94 80.661 23.37 80.0309 23.77 79.3909C23.89 79.2009 23.8 78.871 23.81 78.591C24.68 78.111 24.68 78.111 25.65 76.781C25.52 76.741 25.36 76.681 25.21 76.621C25.05 76.561 24.9 76.4909 24.65 76.3909C25.53 75.5309 26.46 75.0809 27.68 75.1109C29.37 75.1509 31.07 75.0809 32.77 75.0409C33.03 75.0309 33.28 74.931 33.53 74.781C31.24 74.371 28.93 74.5509 26.66 74.4209C26.45 73.9809 26.71 73.831 27 73.781C28.41 73.521 29.8 73.1509 31.18 73.2309C31.47 72.6609 31.21 72.431 30.84 72.351C30.39 72.241 29.92 72.181 29.45 72.161C27.82 72.091 26.2 71.911 24.56 72.071C23.34 72.191 22.11 72.261 20.88 72.311C20.48 72.331 20.08 72.2309 19.69 72.1709C19.46 72.1309 19.22 71.941 19.03 71.991C17.98 72.291 17.26 71.641 16.44 71.211C15.61 70.771 15.22 70.031 15.35 69.191C15.61 67.481 14.69 66.161 14.05 64.741C13.89 64.381 13.56 64.091 13.26 63.811C12.92 63.491 12.53 63.2209 12.18 62.9209C10.86 61.7609 9.33 61.1309 7.56 61.0409C7.16 61.0209 6.74002 60.971 6.36002 60.841C4.88002 60.331 4.04 59.2209 4.22 57.6709C4.31 56.8709 4.17002 56.171 3.96002 55.381C4.83002 54.171 4.77002 52.661 5.08002 51.251C5.14002 50.981 4.71002 50.661 5.11002 50.341C5.67002 49.881 5.39001 49.411 5.04001 48.911C5.37001 48.301 6.02002 47.701 5.36002 46.911C5.31002 46.851 5.34001 46.681 5.39001 46.591C5.77001 45.911 5.42 45.331 5.12 44.781C4.84 44.271 4.44002 43.831 4.49002 43.101C4.87002 42.901 5.29001 42.7209 5.67001 42.4809C6.12001 42.2009 6.17999 41.821 5.92999 41.281C5.66999 40.711 5.44001 38.7409 5.67001 38.2909C6.09001 37.5009 6.11 36.681 6.12 35.811C6.13 35.111 6.57 34.4209 6.13 33.6709C5.92 33.6409 5.69002 33.611 5.46002 33.581C5.46002 33.491 5.43001 33.401 5.45001 33.321C5.67001 32.401 6.58 31.921 6.94 30.961C6.75 30.631 6.52002 30.241 6.33002 29.911C6.46002 29.711 6.72 29.4909 6.72 29.2609C6.72 28.3909 6.63 27.5109 6.59 26.6409C6.56 26.0809 6.73 25.701 7.25 25.341C8.42 24.531 8.60001 22.791 7.79001 21.631C7.52001 21.241 7.24999 20.911 6.67999 20.741C7.23999 20.391 7.99 20.2709 7.87 19.4209C7.86 19.3209 7.92002 19.1809 7.99002 19.1109C8.23002 18.8709 8.70002 18.6709 8.71002 18.4209C8.76002 17.7409 8.72 17.031 8.53 16.381C8.27 15.481 8.33999 14.7809 9.17999 14.2609C10.22 13.6209 10.38 12.431 10.77 11.441C10.99 10.881 10.68 10.111 10.61 9.38097C10.89 9.09097 11.19 8.72097 11.55 8.44097C11.86 8.20097 12.23 7.99096 12.61 7.87096C14.69 7.21096 16.83 6.92096 19.01 6.87096C21.94 6.80096 24.86 6.75096 27.79 6.65096C31.12 6.53096 34.44 6.35095 37.77 6.24095C39.23 6.19095 40.69 6.28094 42.16 6.29094C46.14 6.33094 50.12 6.35095 54.1 6.42095C55.14 6.44095 56.18 6.64095 57.22 6.67095C58.26 6.70095 59.31 6.61096 60.36 6.56096C60.89 6.54096 61.41 6.46095 61.94 6.49095C63.76 6.59095 65.56 6.48094 67.37 6.29094C68 6.22094 68.65 6.29096 69.29 6.28096C69.78 6.27096 70.21 6.34096 70.55 6.75096C70.83 7.09096 71.23 7.14095 71.66 7.14095C73.47 7.15095 75.28 7.19096 77.09 7.22096C77.38 7.22096 77.68 7.28096 77.97 7.25096C79.18 7.11096 80.27 7.30097 81.26 8.10097C81.87 8.59097 82.7 8.53096 83.46 8.56096C83.8 8.57096 84.1 8.49095 84.28 8.96095C84.35 9.13095 84.91 9.22096 85.22 9.18096C87.57 8.89096 89.88 9.28097 92.17 9.69097C92.83 9.81097 93.59 9.65095 94.22 10.241C93.57 10.451 92.98 10.641 92.41 10.821C92.24 11.891 93.47 11.3309 93.65 11.9509C93.57 12.0409 93.5 12.171 93.42 12.181C91.96 12.291 90.53 12.531 89.14 13.021C88.6 13.211 87.99 13.2209 87.41 13.2609C86.67 13.3109 86.01 13.501 85.64 14.191C85.23 14.941 85.33 15.6609 86 16.3909C87.4 16.4809 88.91 16.631 90.42 16.661C94.04 16.731 97.67 16.7709 101.29 16.7609C105.56 16.7509 109.83 16.6709 114.1 16.6409C115.21 16.6309 116.32 16.691 117.44 16.721C122.18 16.871 126.91 17.001 131.65 17.181C134.75 17.301 137.84 17.5109 140.94 17.6409C143.8 17.7609 146.67 17.8409 149.53 17.9209C150 17.9309 150.42 17.991 150.87 18.191C151.33 18.391 151.89 18.4109 152.41 18.4509C154.62 18.6309 156.84 18.801 159.06 18.961C160.75 19.081 162.38 19.431 163.95 20.091C164.16 20.181 164.39 20.261 164.62 20.281C165.44 20.361 166.18 20.5409 166.8 21.1709C167.02 21.3909 167.47 21.361 167.77 21.521C168.17 21.731 168.52 22.031 168.97 22.351C168.41 23.461 168.28 24.5309 168.83 25.5409C168.52 26.0009 168.21 26.361 168.02 26.771C167.77 27.301 167.62 27.871 168.01 28.441C168.17 28.671 168.31 28.961 168.33 29.241C168.38 29.851 168.75 30.1609 169.22 30.4509C169.36 30.5309 169.44 30.701 169.6 30.901C169.4 31.301 169.17 31.701 169 32.121C168.78 32.681 168.9 33.1609 169.41 33.5109C169.84 33.8009 170.32 34.0209 170.79 34.2609C171.83 34.7809 172.14 35.941 171.47 36.901C171.2 37.281 170.85 37.621 170.65 38.031C170.4 38.551 170.26 39.1209 170.09 39.6409C170.87 40.4909 171.86 40.181 172.71 40.221C172.95 40.631 172.75 40.811 172.46 40.941C172.06 41.131 171.76 41.371 171.85 41.871C171.92 41.951 171.98 42.071 172.07 42.121C172.35 42.261 172.81 42.161 172.8 42.681C172.79 43.011 172.63 43.231 172.32 43.331C171.98 43.441 171.61 43.551 171.63 43.991C171.65 44.361 171.87 44.641 172.25 44.751C173.94 45.251 174.29 46.6609 174.54 48.1409C174.6 48.4809 174.56 48.841 174.55 49.191C174.55 49.831 174.54 50.461 174.53 50.771C175.2 51.491 175.67 52.0109 176.16 52.5109C177.14 53.5109 178.29 53.891 179.67 53.441C180.06 53.311 180.46 53.2309 180.86 53.1409C180.95 53.1209 181.05 53.191 181.23 53.241C180.63 53.571 180.07 53.851 179.55 54.191C179.16 54.451 178.82 54.771 178.49 55.101C178.42 55.171 178.51 55.401 178.53 55.561L178.45 55.581ZM37.78 74.881C37.77 74.831 37.77 74.7809 37.76 74.7309C37.14 74.7609 36.52 74.791 35.91 74.821C35.91 74.871 35.91 74.921 35.91 74.971C36.54 74.941 37.16 74.911 37.78 74.881ZM34.55 74.741L34.68 74.6709L34.55 74.621V74.741ZM39.25 74.7609C39.21 74.7509 39.17 74.7309 39.12 74.7309C39.11 74.7309 39.1 74.791 39.09 74.821C39.13 74.831 39.17 74.851 39.21 74.841C39.23 74.841 39.24 74.7909 39.25 74.7609ZM34.22 0.000963646C34.11 0.000963646 34 0.0309514 33.9 0.0509514C33.94 0.110951 34 0.230944 34.03 0.230944C34.13 0.220944 34.23 0.150949 34.32 0.110949C34.29 0.060949 34.25 -0.00903635 34.22 0.000963646ZM65.24 92.6409C65.22 92.6309 65.1 92.7809 65.1 92.8609C65.1 92.9509 65.2 93.1109 65.23 93.1109C65.36 93.0809 65.48 93.0009 65.7 92.8909C65.49 92.7709 65.37 92.6909 65.24 92.6409ZM178.45 55.581C178.7 55.601 178.95 55.611 179.19 55.631C179.19 55.591 179.19 55.551 179.19 55.501C178.95 55.531 178.7 55.551 178.45 55.581C178.45 55.581 178.46 55.571 178.45 55.581ZM0.27002 57.3909C0.29002 57.3909 0.349996 57.281 0.339996 57.271C0.289996 57.211 0.210004 57.121 0.160004 57.131C0.100004 57.131 0.05 57.241 0 57.301C0.09 57.341 0.17002 57.3709 0.27002 57.3909Z" fill="white"/>
<path d="M79.5098 68.9441L88.8675 69.9296L98.2252 71.9004C98.717 71.407 95.2703 4.39551 95.2703 4.39551L79.1602 68.8554L79.5098 68.9441Z" fill="#B5A4F8"/>
<path d="M33.707 73.8711C34.1988 74.3645 76.5544 79.2916 76.5544 79.2916L79.1596 68.8552L95.2698 4.39535L56.3622 2.4245C56.3622 2.4245 33.2139 73.379 33.707 73.8711ZM65.7343 45.5391L71.1026 45.9085L76.5544 46.2779L75.4116 50.431L74.141 55.0723L72.929 59.4878L71.6779 64.0312L70.3968 68.6973L64.4963 68.0316L59.3197 67.4456L53.3708 66.7708L47.4807 66.1052L42.0784 65.4943L43.5957 61.0645L44.9603 57.0928L46.4579 52.7216L47.9895 48.2474L53.53 48.6912L54.8841 44.7991L60.3112 45.1684L65.7343 45.5391Z" fill="#D4CAFB"/>
<path d="M75.4129 50.4325L76.5557 46.278L71.1039 45.9087L69.8828 49.9939L75.4129 50.4325Z" fill="#B5A4F8"/>
<path d="M74.1423 55.0735L75.4129 50.4322L69.8828 49.9937L68.5078 54.5958L74.1423 55.0735Z" fill="#B5A4F8"/>
<path d="M72.9289 59.4892L74.1409 55.0737L68.5064 54.596L67.1914 59.001L72.9289 59.4892Z" fill="#B5A4F8"/>
<path d="M64.6016 49.5752L69.8812 49.9942L71.1023 45.9089L65.734 45.5396L65.7196 45.7862L64.6016 49.5752Z" fill="#B5A4F8"/>
<path d="M68.5068 54.5963L69.8818 49.9942L64.6022 49.5752L63.252 54.1473L68.5068 54.5963Z" fill="#B5A4F8"/>
<path d="M67.1916 59.0011L68.5067 54.596L63.2518 54.147L61.9473 58.5521L67.1916 59.0011Z" fill="#B5A4F8"/>
<path d="M59.051 49.1314L64.602 49.5751L65.72 45.7861L65.7344 45.5395L60.3112 45.1701L60.3021 45.2928L59.051 49.1314Z" fill="#B5A4F8"/>
<path d="M63.2517 54.1468L64.6019 49.5747L59.051 49.131L57.5781 53.6639L63.2517 54.1468Z" fill="#B5A4F8"/>
<path d="M61.9479 58.552L63.2525 54.147L57.5789 53.6641L56.1465 58.06L61.9479 58.552Z" fill="#9981F5"/>
<path d="M59.0522 49.1314L60.3033 45.2928L60.3124 45.1701L54.8854 44.8008L53.5312 48.6929L59.0522 49.1314Z" fill="#B5A4F8"/>
<path d="M57.5778 53.6644L59.0507 49.1314L53.5297 48.6929L51.959 53.1867L57.5778 53.6644Z" fill="#B5A4F8"/>
<path d="M56.1457 58.0602L57.5781 53.6643L51.9593 53.1866L50.4277 57.5773L56.1457 58.0602Z" fill="#B5A4F8"/>
<path d="M51.9584 53.1861L53.5291 48.6923L47.9886 48.2485L46.457 52.7228L51.9584 53.1861Z" fill="#B5A4F8"/>
<path d="M45.0353 57.119L50.4284 57.5772L51.96 53.1865L46.4586 52.7231L44.9609 57.0943L45.0353 57.119Z" fill="#B5A4F8"/>
<path d="M71.9802 3.72335C72.3168 3.72335 72.5099 3.46232 72.5464 3.1569C72.746 1.49408 71.191 0.0348694 69.5876 0.0283434C67.8526 0.0218174 66.3966 1.4001 65.9818 3.02508C65.7248 4.02877 65.8044 5.10164 66.1149 6.08315C66.334 6.77621 67.4273 6.47994 67.2068 5.78165C66.7058 4.19323 66.9498 2.23934 68.5675 1.40924C69.2041 1.08163 69.949 1.06727 70.5595 1.451C71.1544 1.82298 71.4962 2.46906 71.4127 3.1556C71.3775 3.46232 71.6997 3.72335 71.9802 3.72335Z" fill="#2B2C54"/>
<path d="M80.786 3.49105C80.8878 1.85172 79.2662 0.498225 77.6877 0.603946C75.9539 0.720109 74.6402 2.09056 74.104 3.66724C73.7661 4.66311 73.7139 5.74513 73.7687 6.78798C73.8066 7.51367 74.9403 7.51759 74.9011 6.78798C74.8124 5.10558 75.0355 3.09036 76.6075 2.11538C77.2076 1.7434 77.9538 1.58808 78.6126 1.90263C79.2349 2.20021 79.6954 2.78102 79.6511 3.49105C79.608 4.21935 80.7404 4.21674 80.786 3.49105Z" fill="#2B2C54"/>
<path d="M64.9706 3.39436C65.3098 3.39436 65.4964 3.13202 65.5368 2.82791C65.7456 1.25123 64.1396 -0.112705 62.6355 0.00737353C60.9721 0.141809 59.7171 1.55142 59.3636 3.11766C59.1275 4.16312 59.2188 5.2386 59.4393 6.27754C59.5906 6.99018 60.6825 6.68868 60.5312 5.97605C60.205 4.44113 60.2246 2.46636 61.691 1.50313C62.2337 1.14681 62.9173 0.990193 63.5187 1.30083C64.107 1.60494 64.4919 2.15834 64.4032 2.8266C64.364 3.13071 64.6928 3.39436 64.9706 3.39436Z" fill="#2B2C54"/>
<path d="M83.6247 1.82417C83.8282 1.78241 84.1844 1.78894 84.3918 1.83201C84.7088 1.89727 84.9188 1.97559 85.185 2.13091C85.7199 2.44285 86.1347 2.97015 86.1856 3.534C86.213 3.83941 86.4269 4.10045 86.7518 4.10045C87.0375 4.10045 87.3454 3.84072 87.318 3.534C87.1679 1.84898 85.5685 0.618181 83.9104 0.661252C83.0468 0.683441 82.2601 1.07238 81.7174 1.74586C81.1265 2.47939 80.8969 3.39694 80.8734 4.32625C80.846 5.38476 81.0677 6.4472 81.3391 7.46395C81.527 8.16745 82.6189 7.86986 82.431 7.16244C82.2354 6.42631 82.0657 5.67843 82.0188 4.9162C81.977 4.23749 82.007 3.49744 82.3175 2.88791C82.6032 2.32537 83.0559 1.94164 83.6247 1.82417Z" fill="#2B2C54"/>
<path d="M93.7043 4.7023C93.9731 4.77669 94.354 4.61093 94.401 4.30682C94.6789 2.49912 93.0455 0.827166 91.2244 1.00467C89.3197 1.19001 88.0125 2.90113 87.8546 4.72449C87.7555 5.87829 88.1064 7.04252 88.6543 8.04752C89.0027 8.68837 89.9811 8.1167 89.6328 7.47584C88.7978 5.94354 88.5852 3.773 90.1402 2.60485C90.7312 2.16108 91.5166 1.9666 92.2093 2.28637C92.8368 2.57743 93.4226 3.2718 93.3091 4.00663C93.2621 4.30683 93.3847 4.61485 93.7043 4.7023Z" fill="#2B2C54"/>
<path d="M94.5664 4.39536C94.5781 4.61844 94.5886 4.84152 94.6003 5.0646C94.8234 5.07634 95.0465 5.08678 95.2696 5.09852C95.0347 4.8637 94.8012 4.63018 94.5664 4.39536Z" fill="#2B2C54"/>
<path d="M56.3632 3.12729C56.5302 3.13512 56.6972 3.14424 56.8642 3.15207C56.8772 3.11163 56.8903 3.06989 56.9046 3.02944C56.9503 2.88986 56.9959 2.75026 57.0416 2.61067C57.3116 1.78096 56.0697 1.41177 55.7253 2.14886C55.5935 2.55197 55.8062 3.09859 56.3632 3.12729Z" fill="#2B2C54"/>
<path d="M98.1543 49.1128C97.8595 42.6169 97.549 36.1209 97.2333 29.6263C96.9593 23.9865 96.6789 18.3454 96.3945 12.7056C96.2575 9.98691 96.2548 7.2212 95.9783 4.51161C95.9744 4.47245 95.9744 4.4333 95.9718 4.39545C95.9509 4.00127 95.6652 3.71282 95.2686 3.69194C90.8826 3.47006 86.498 3.24818 82.112 3.02499C75.126 2.67128 68.14 2.31757 61.154 1.96386C59.5559 1.88294 57.9578 1.80202 56.361 1.72109C56.0153 1.70413 55.8026 1.8986 55.7218 2.1492C56.0662 1.41177 57.3094 1.78243 57.0381 2.61123C56.9924 2.75089 56.9468 2.89056 56.9011 3.03021C56.8881 3.07067 56.875 3.11243 56.8607 3.15289C61.0796 3.36695 65.2973 3.5797 69.5163 3.79375C76.5023 4.14746 83.4883 4.50117 90.4743 4.85488C91.8493 4.92405 93.2243 4.99453 94.5994 5.06371C94.5876 4.84052 94.5772 4.61733 94.5654 4.39414C94.8003 4.62907 95.0338 4.86271 95.2686 5.09764C95.0455 5.0859 94.8224 5.07545 94.5994 5.06371C94.7011 7.04239 94.8016 9.02107 94.9007 11.0011C95.1681 16.3028 95.433 21.6032 95.6926 26.9049C96.0083 33.3487 96.3175 39.7911 96.6149 46.2362C96.8745 51.8642 97.1289 57.4935 97.3429 63.1229C97.4433 65.7594 97.5777 68.4037 97.5581 71.0428C97.8412 71.1028 98.1256 71.1629 98.4087 71.2216C98.1804 71.2817 97.9534 71.3417 97.7251 71.403C97.7277 71.4004 97.5986 71.5832 97.5529 71.6524C97.5529 71.655 97.5529 71.6575 97.5529 71.6602C97.5568 71.6562 97.5594 71.6523 97.5647 71.6458C97.5594 71.6523 97.5568 71.6589 97.5529 71.6641C97.5529 71.6745 97.5529 71.685 97.5529 71.6954C97.5503 71.852 97.489 71.7672 97.5529 71.6641C97.5529 71.6628 97.5529 71.6615 97.5529 71.6602C97.5307 71.6876 97.5346 71.6798 97.5529 71.6524C97.5568 71.45 97.5568 71.2464 97.5581 71.0428C95.3064 70.569 93.0547 70.0939 90.803 69.6201C90.2016 69.4935 89.0601 69.025 88.4705 69.3513C87.7712 69.7402 87.1281 70.3719 86.494 70.8549C83.9279 72.8061 81.3618 74.7574 78.7957 76.7087C78.0013 77.313 77.1246 77.8768 76.381 78.5451C76.3784 78.5477 76.3771 78.549 76.3744 78.5516C76.4162 78.5542 76.454 78.5595 76.4814 78.5673C76.4958 78.5699 76.5075 78.5738 76.5167 78.5842C76.5101 78.5777 76.4971 78.5712 76.4814 78.5673C76.3536 78.5451 76.0835 78.8127 76.3744 78.5516C76.2857 78.5451 76.1853 78.5464 76.1514 78.5425C71.6715 78.0204 67.1916 77.4905 62.713 76.9554C56.0831 76.1631 49.4533 75.3643 42.83 74.5133C40.5469 74.2197 38.264 73.9273 35.9875 73.5866C35.5061 73.5148 35.0195 73.4483 34.5394 73.3556C34.4911 73.5253 34.4428 73.695 34.3933 73.8647C34.3463 74.0278 34.3567 73.695 34.3998 73.8137C34.3685 73.7276 34.2002 73.4444 34.0684 73.2734C34.0606 73.2643 34.0541 73.2577 34.0463 73.2499C34.0423 73.2499 34.0384 73.2473 34.0345 73.2473C33.8936 73.2421 33.9693 73.1781 34.0463 73.2499C34.1076 73.2551 34.1793 73.2812 34.238 73.2943C34.3372 73.3165 34.4389 73.3361 34.5394 73.3556C35.2882 70.7452 36.0253 68.1322 36.8289 65.5336C38.551 59.9682 40.3187 54.4159 42.0903 48.8649C44.1763 42.3324 46.2766 35.805 48.3848 29.2791C50.2243 23.5819 52.0702 17.8873 53.9188 12.194C54.8986 9.1803 55.8783 6.1666 56.8607 3.15289C56.6937 3.14506 56.5267 3.13593 56.3597 3.1281C55.8026 3.09939 55.59 2.55251 55.7205 2.1492C55.7074 2.17792 55.6917 2.20532 55.6813 2.23795C55.0577 4.15006 54.4354 6.06348 53.8132 7.9756C52.2659 12.7304 50.7226 17.4866 49.1832 22.244C47.2251 28.2936 45.2708 34.3446 43.327 40.3981C41.4419 46.2688 39.562 52.1422 37.7069 58.0234C36.4023 62.157 35.0925 66.2919 33.8662 70.4503C33.5857 71.4005 33.2726 72.3571 33.0717 73.3295C32.9974 73.6884 32.9113 74.0761 33.2074 74.3711C33.4631 74.6256 33.9001 74.6621 34.2367 74.7222C38.607 75.5092 43.0569 75.9556 47.4612 76.5064C53.7636 77.2934 60.0699 78.0504 66.3775 78.7996C68.7323 79.0789 71.0857 79.3569 73.4405 79.6336C74.4228 79.7485 75.5382 80.0409 76.5297 79.9952C76.9994 79.973 77.4103 79.5188 77.7625 79.2499C78.7566 78.4942 79.7507 77.7385 80.7448 76.9828C83.1269 75.1711 85.5091 73.3609 87.8912 71.5492C88.2709 71.2608 88.6492 70.9723 89.0288 70.6852C88.9114 70.6604 88.7953 70.6356 88.6779 70.6108C88.8579 70.5873 89.0393 70.5638 89.2193 70.5403C89.1554 70.5886 89.0927 70.6369 89.0288 70.6852C92.0306 71.3169 95.0338 71.9499 98.0356 72.5816C98.2652 72.6299 98.5574 72.5973 98.7192 72.4002C99.1654 71.856 98.9749 70.7557 98.9658 70.1083C98.941 68.4911 98.8849 66.874 98.8275 65.2582C98.6396 59.8729 98.3983 54.4929 98.1543 49.1128Z" fill="#2B2C54"/>
<path d="M94.5909 4.20903C93.9699 6.69282 93.3502 9.17663 92.7292 11.6604C91.2394 17.6239 89.7483 23.5886 88.2585 29.5534C86.4555 36.7685 84.6526 43.9824 82.8497 51.1975C81.292 57.4325 79.7331 63.6687 78.1754 69.9036C77.4214 72.9238 76.5603 75.9375 75.9068 78.9813C75.8976 79.023 75.8859 79.0648 75.8754 79.1066C75.6563 79.985 77.0117 80.3596 77.2309 79.4799C77.8519 76.9961 78.4715 74.5123 79.0925 72.0285C80.5823 66.0637 82.0735 60.1003 83.5633 54.1355C85.3662 46.9204 87.1691 39.7065 88.9721 32.4914C90.5297 26.2565 92.0887 20.0202 93.6464 13.7853C94.4004 10.765 95.2614 7.75135 95.915 4.70763C95.9241 4.66586 95.9359 4.62408 95.9463 4.58232C96.1655 3.70522 94.8113 3.33063 94.5909 4.20903Z" fill="#2B2C54"/>
<path d="M76.0084 46.128C75.9471 46.3497 75.8858 46.5728 75.8245 46.7946C76.0671 46.8116 76.3111 46.8272 76.5537 46.8442C76.3724 46.6054 76.1911 46.3667 76.0084 46.128Z" fill="#2B2C54"/>
<path d="M76.1167 50.0108C76.0227 50.3513 75.9301 50.6918 75.8362 51.0323C76.4206 51.0597 76.5119 50.303 76.1167 50.0108Z" fill="#2B2C54"/>
<path d="M54.8831 45.3669C55.0135 45.376 55.144 45.3851 55.2744 45.393C55.3253 45.2455 55.3775 45.0981 55.4284 44.9507C55.2471 45.089 55.0657 45.2286 54.8831 45.3669Z" fill="#2B2C54"/>
<path d="M47.9905 48.8151C48.1209 48.8256 48.2527 48.836 48.3832 48.8464C48.434 48.6977 48.4849 48.549 48.5371 48.399C48.3544 48.5385 48.1718 48.6769 47.9905 48.8151Z" fill="#2B2C54"/>
<path d="M57.3506 49.5618C62.3562 49.9611 67.3631 50.3592 72.3688 50.7586C73.1411 50.82 73.9147 50.8813 74.687 50.9439C74.7888 50.5746 74.8905 50.2052 74.991 49.8345C72.1457 49.6074 69.3018 49.3816 66.4565 49.1545C62.4058 48.8321 58.3538 48.5084 54.3031 48.1861C54.1752 48.5541 54.0474 48.9209 53.9182 49.289C55.0623 49.379 56.2064 49.4704 57.3506 49.5618Z" fill="#2B2C54"/>
<path d="M53.9172 49.2873C54.045 48.9194 54.1742 48.5528 54.302 48.1849C53.9133 48.1536 53.5258 48.1236 53.137 48.0923C53.0092 48.4602 52.8814 48.8268 52.7522 49.1947C53.141 49.226 53.5297 49.2573 53.9172 49.2873Z" fill="#2B2C54"/>
<path d="M74.9917 49.8345C74.89 50.2037 74.7882 50.5729 74.6877 50.9434C75.0648 50.9734 75.4405 51.0034 75.8175 51.0334C75.8254 51.0334 75.8306 51.0321 75.8384 51.0334C75.9323 50.6929 76.0249 50.3524 76.1189 50.0119C76.038 49.9519 75.9389 49.9102 75.8175 49.901C75.5423 49.8776 75.267 49.8554 74.9917 49.8345Z" fill="#2B2C54"/>
<path d="M77.1007 46.4293C77.2037 46.0547 76.9167 45.7362 76.5541 45.7114C70.223 45.2794 63.8919 44.8473 57.5608 44.4153C56.6684 44.354 55.7761 44.2939 54.8838 44.2326C54.6255 44.2143 54.4167 44.4231 54.3372 44.6489C53.9367 45.7962 53.5362 46.9448 53.137 48.0921C53.5257 48.1234 53.9132 48.1534 54.3019 48.1847C54.3685 47.9942 54.435 47.8036 54.5015 47.613C54.7598 46.873 55.0181 46.1329 55.2751 45.3929C55.1447 45.3838 55.0142 45.3746 54.8838 45.3668C55.0664 45.2285 55.2478 45.0901 55.4304 44.9505C55.3795 45.0979 55.3273 45.2454 55.2765 45.3929C61.4771 45.8158 67.6777 46.2387 73.8784 46.6616C74.5281 46.706 75.1764 46.7503 75.8261 46.7947C75.8874 46.5728 75.9488 46.3496 76.0101 46.1277C76.1927 46.3666 76.374 46.6054 76.5567 46.8456C76.314 46.8286 76.0701 46.813 75.8274 46.796C75.5495 47.8088 75.2717 48.8217 74.9925 49.8345C75.2678 49.8567 75.543 49.8789 75.8183 49.8998C75.9396 49.9089 76.0387 49.9507 76.1196 50.0107C76.1966 49.7301 76.2736 49.4495 76.3505 49.1689C76.5984 48.2552 76.8489 47.3416 77.1007 46.4293Z" fill="#2B2C54"/>
<path d="M52.7533 49.1949C51.1291 53.8544 49.5036 58.514 47.8794 63.1735C47.6093 63.9462 47.3406 64.7189 47.0706 65.4916C47.4541 65.5347 47.839 65.579 48.2225 65.6221C50.1207 60.1768 52.0201 54.7328 53.9183 49.2875C53.5295 49.2575 53.1407 49.2262 52.7533 49.1949Z" fill="#2B2C54"/>
<path d="M74.6864 50.9429C73.3257 55.8974 71.965 60.852 70.6043 65.8078C70.3956 66.5661 70.1882 67.3258 69.9795 68.0841C70.1191 68.0997 70.2587 68.1154 70.3982 68.1311C70.2156 68.2694 70.0342 68.4078 69.8516 68.5474C69.8934 68.3934 69.9364 68.2381 69.9795 68.0841C66.9411 67.7408 63.9028 67.3963 60.8657 67.053C56.6519 66.5766 52.4382 66.1002 48.2231 65.6238C48.1631 65.7961 48.1031 65.9671 48.0431 66.1394C47.8043 66.8246 46.7098 66.5283 46.9511 65.8378C46.9916 65.723 47.0307 65.6081 47.0712 65.4933C46.5741 65.4371 46.0758 65.381 45.5787 65.3249C44.6668 65.2218 43.7549 65.1187 42.843 65.0156C42.7713 65.2257 42.6982 65.4358 42.6265 65.646C42.4438 65.4071 42.2625 65.1683 42.0799 64.9281C42.3342 64.9568 42.5887 64.9855 42.8417 65.0143C44.4946 60.1928 46.1462 55.3701 47.7991 50.5487C47.9935 49.981 48.1879 49.4145 48.3823 48.8468C48.2518 48.8363 48.12 48.8259 47.9896 48.8154C48.1722 48.6771 48.3535 48.5387 48.5362 48.3991C48.4853 48.5479 48.4344 48.6967 48.3823 48.8468C49.8395 48.9629 51.2967 49.0791 52.7526 49.1952C52.8804 48.8272 53.0083 48.4604 53.1374 48.0924C52.5712 48.0467 52.0037 48.0023 51.4376 47.9566C50.2882 47.8653 49.1389 47.7739 47.9896 47.6825C47.7326 47.6616 47.5199 47.8744 47.443 48.0989C45.7183 53.1317 43.9937 58.1633 42.269 63.1961C42.0238 63.9127 41.7785 64.6292 41.5332 65.3445C41.4015 65.7269 41.7407 66.0232 42.0799 66.0623C45.2578 66.4213 48.4357 66.7815 51.6137 67.1404C56.7094 67.7173 61.805 68.2929 66.9007 68.8698C68.067 69.0016 69.2333 69.1335 70.3996 69.2653C70.6422 69.2927 70.8848 69.0695 70.9462 68.8489C72.5769 62.9103 74.2076 56.9716 75.8383 51.033C75.8305 51.033 75.8253 51.0343 75.8175 51.033C75.4391 51.003 75.0621 50.9729 74.6864 50.9429Z" fill="#2B2C54"/>
<path d="M64.8059 53.7107C59.7103 53.2787 54.6146 52.8466 49.519 52.4133C48.3527 52.3141 47.1864 52.2149 46.0201 52.117C45.2934 52.0557 45.2973 53.1886 46.0201 53.2499C49.198 53.5201 52.376 53.789 55.5539 54.0591C60.6496 54.4912 65.7452 54.9232 70.8409 55.3565C72.0072 55.4557 73.1735 55.5549 74.3398 55.6528C75.0664 55.7141 75.0625 54.5812 74.3398 54.5199C71.1605 54.2497 67.9826 53.9795 64.8059 53.7107Z" fill="#2B2C54"/>
<path d="M70.5899 45.6342C68.6382 52.1745 66.6866 58.7149 64.7362 65.2552C64.4649 66.1663 64.1935 67.076 63.9209 67.987C63.7122 68.6879 64.8054 68.9868 65.0128 68.2885C66.9645 61.7482 68.9161 55.2078 70.8664 48.6675C71.1378 47.7564 71.4091 46.8467 71.6818 45.9357C71.8905 45.2361 70.7973 44.9359 70.5899 45.6342Z" fill="#2B2C54"/>
<path d="M65.173 45.6341C63.3049 51.9604 61.4368 58.2867 59.5686 64.6116C59.3025 65.5122 59.0363 66.4128 58.7702 67.3134C58.5628 68.0143 59.656 68.3132 59.8621 67.6149C61.7303 61.2886 63.5984 54.9623 65.4666 48.6373C65.7327 47.7367 65.9988 46.8362 66.265 45.9356C66.4724 45.2347 65.3792 44.9358 65.173 45.6341Z" fill="#2B2C54"/>
<path d="M59.7553 45.1424C57.7397 51.3356 55.7241 57.5288 53.7086 63.7233C53.4255 64.5925 53.1424 65.4618 52.8606 66.3311C52.6349 67.0267 53.7281 67.3243 53.9525 66.6326C55.9681 60.4394 57.9837 54.2462 59.9992 48.0517C60.2823 47.1825 60.5654 46.3132 60.8472 45.444C61.0742 44.7483 59.981 44.4507 59.7553 45.1424Z" fill="#2B2C54"/>
<path d="M103.162 19.1845L103.187 19.2146C104.399 19.6387 105.285 20.7221 105.783 21.9046C106.276 23.0923 106.429 24.3884 106.576 25.6635C107.217 22.1356 109.403 18.9183 112.447 17.0309C111.004 17.4147 109.428 16.612 108.58 15.3799C107.733 14.1478 107.512 12.5854 107.581 11.0936C107.329 14.2522 105.673 17.2724 103.162 19.1845Z" fill="#D4CAFB"/>
<path d="M107.14 25.6621C107.044 24.832 106.922 23.9667 106.72 23.1327C106.42 23.8988 106.184 24.6937 106.027 25.5107C106.398 25.5616 106.77 25.6112 107.14 25.6621Z" fill="#2B2C54"/>
<path d="M112.595 17.5749C112.45 17.2291 112.304 16.8847 112.158 16.539C111.67 16.8482 111.206 17.1913 110.764 17.5566C111.355 17.7001 111.977 17.7157 112.595 17.5749Z" fill="#2B2C54"/>
<path d="M107.012 11.0932C107.389 11.0932 107.767 11.0932 108.144 11.0932C108.171 10.3548 107.077 10.3783 107.012 11.0932Z" fill="#2B2C54"/>
<path d="M103.335 18.669C102.654 18.4068 102.359 19.5026 103.034 19.7609C103.102 19.787 103.167 19.8144 103.232 19.8444C103.557 19.6031 103.866 19.3474 104.164 19.0786C103.909 18.9234 103.635 18.7851 103.335 18.669Z" fill="#2B2C54"/>
<path d="M107.416 14.2951C107.63 14.9216 107.937 15.5128 108.37 16.0375C108.995 16.7945 109.839 17.3336 110.763 17.5568C111.205 17.1913 111.67 16.8481 112.158 16.5387C112.304 16.8833 112.449 17.2292 112.595 17.5751C111.976 17.716 111.354 17.7017 110.763 17.5581C108.967 19.0447 107.569 20.9673 106.72 23.1326C106.922 23.9666 107.044 24.832 107.14 25.6621C106.77 25.6125 106.398 25.5616 106.027 25.512C106.184 24.6949 106.42 23.9001 106.72 23.1339C106.324 21.4946 105.613 19.9753 104.162 19.08C103.866 19.3488 103.555 19.6047 103.23 19.8461C105.386 20.8237 105.764 23.5724 106.007 25.6621C106.073 26.2377 106.988 26.4987 107.119 25.8122C107.772 22.3978 109.791 19.3815 112.73 17.5176C113.276 17.1718 112.925 16.3377 112.293 16.4813C111.004 16.7763 109.712 16.0636 109.003 14.996C108.241 13.8474 108.097 12.4365 108.146 11.0921C108.044 12.2029 107.796 13.277 107.416 14.2951Z" fill="#2B2C54"/>
<path d="M103.335 18.6689C103.636 18.7838 103.911 18.9221 104.163 19.0788C105.624 17.7566 106.735 16.1186 107.416 14.2952C107.069 13.2771 106.974 12.1664 107.013 11.0935C106.735 14.1621 105.125 17.04 102.649 18.8751C102.07 19.3045 102.634 20.2887 103.221 19.854C103.225 19.8514 103.227 19.8488 103.23 19.8462C103.166 19.8175 103.099 19.7888 103.031 19.7627C102.36 19.5029 102.654 18.4079 103.335 18.6689Z" fill="#2B2C54"/>
<path d="M107.415 14.2953C107.796 13.2772 108.044 12.203 108.144 11.0936C107.767 11.0936 107.389 11.0936 107.012 11.0936C106.973 12.1665 107.068 13.2772 107.415 14.2953Z" fill="#2B2C54"/>
<path d="M52.9558 24.6941C53.5255 24.7056 53.8302 24.5439 53.8699 24.209C53.881 24.007 53.8011 23.8489 53.63 23.7347C53.567 23.6996 53.4743 23.6641 53.3517 23.6281C53.2292 23.5921 53.1373 23.5714 53.076 23.5661L53.0418 23.9976C53.022 24.2263 52.9933 24.4585 52.9558 24.6941ZM52.3492 27.4163L52.3079 27.4127C52.2023 27.4035 52.1084 27.3806 52.0265 27.3439C52.0098 27.0443 52.0167 26.7204 52.0469 26.3721C52.0693 26.114 52.1046 25.8412 52.153 25.5536C52.2007 25.2491 52.2348 24.9793 52.2552 24.7443L52.2835 24.233L52.2917 24.1386C52.3152 23.8679 52.3439 23.7213 52.3778 23.6989C52.3759 23.6713 52.3771 23.6333 52.3813 23.5851C52.3842 23.5515 52.3899 23.4981 52.3984 23.4248C52.409 23.3517 52.4231 23.2631 52.4406 23.1589C52.4603 23.0549 52.4772 22.9824 52.4914 22.9413C52.5625 22.9073 52.6826 22.8977 52.8517 22.9124C53.0905 22.9331 53.347 22.9829 53.6213 23.0617C53.8457 23.1255 54.0037 23.1942 54.0953 23.2677C54.2262 23.3785 54.3034 23.4465 54.3267 23.4717C54.3733 23.5244 54.4289 23.6445 54.4935 23.8319C54.5244 23.9424 54.5331 24.0753 54.5196 24.2306C54.5191 24.2369 54.514 24.2829 54.5044 24.3688C54.4949 24.4546 54.4589 24.5382 54.3965 24.6195C54.3648 24.7393 54.2938 24.8695 54.1837 25.0101C54.0736 25.1506 53.962 25.2466 53.8489 25.2981C53.5493 25.4137 53.2345 25.471 52.9045 25.4698C52.8807 25.5481 52.8507 25.685 52.8146 25.8806C52.7391 26.2842 52.6913 26.6025 52.6711 26.8354L52.6655 26.9364C52.6604 26.9951 52.6551 27.0443 52.6495 27.084L52.6454 27.1312C52.6383 27.2131 52.6451 27.294 52.6658 27.374C52.58 27.4067 52.4744 27.4208 52.3492 27.4163Z" fill="#2B2C54"/>
<path d="M56.0118 25.8443L56.7386 25.8979C56.764 25.9001 56.777 25.897 56.7778 25.8886L56.7731 25.8692C56.7197 25.5516 56.6916 25.3103 56.6889 25.1452C56.679 24.916 56.646 24.7683 56.59 24.7021L56.5073 24.882C56.4151 25.0622 56.3523 25.1963 56.3191 25.2843L56.2177 25.4594C56.1081 25.6423 56.0395 25.7706 56.0118 25.8443ZM55.1795 27.7065L55.1605 27.7048C55.1203 27.7013 55.0143 27.6837 54.8425 27.6518C54.6558 27.6187 54.5525 27.5949 54.5325 27.5805C54.5256 27.5609 54.5233 27.5385 54.5255 27.5133C54.5326 27.4315 54.5971 27.2648 54.719 27.0132C54.7631 26.9219 54.7949 26.8507 54.8142 26.7995C54.8345 26.7378 54.8652 26.6538 54.9063 26.5474C55.0128 26.2776 55.102 26.1088 55.1739 26.0411C55.1798 25.9972 55.2007 25.9282 55.2365 25.834C55.3077 25.6521 55.3803 25.4903 55.4543 25.3487C55.5755 25.1056 55.7605 24.7643 56.0095 24.3251C56.3012 23.8092 56.477 23.538 56.5368 23.5114C56.5946 23.3854 56.6628 23.2983 56.7415 23.2501C56.8164 23.3201 56.8835 23.4919 56.9428 23.7655C56.9656 23.8711 56.9757 23.9502 56.9733 24.0028C57.0112 24.0569 57.0537 24.1811 57.1007 24.3754C57.1282 24.5004 57.1581 24.5971 57.1905 24.6655C57.2056 24.7365 57.2314 24.8445 57.2678 24.9893L57.5274 26.0837C57.7811 27.1607 57.9047 27.7359 57.8983 27.8094L57.8981 27.8125C57.8589 27.8472 57.821 27.8661 57.7846 27.8693C57.7631 27.8716 57.7396 27.8717 57.7143 27.8695C57.6995 27.8682 57.6816 27.8656 57.6606 27.8617C57.642 27.8558 57.62 27.8518 57.5946 27.8496L57.4736 27.8454C57.4394 27.8467 57.4075 27.846 57.3779 27.8435C57.3188 27.8383 57.2636 27.824 57.2124 27.8005C57.1526 27.7044 57.0785 27.4168 56.9902 26.9377C56.9515 26.7208 56.9148 26.5548 56.8801 26.4398C56.8355 26.438 56.7907 26.4384 56.7458 26.4408C56.703 26.4434 56.6541 26.4423 56.5992 26.4376L56.5643 26.4345C56.5243 26.429 56.4716 26.4233 56.4061 26.4176C56.2243 26.4019 56.0018 26.4016 55.7386 26.4168C55.6368 26.5834 55.4983 26.8917 55.323 27.3416L55.1795 27.7065Z" fill="#2B2C54"/>
<path d="M60.4713 28.1216C60.0951 28.0889 59.7251 27.9722 59.3613 27.7715C59.2433 27.7084 59.1163 27.6139 58.9803 27.4879C58.6824 27.2147 58.519 26.914 58.49 26.5859C58.4855 26.539 58.4766 26.4949 58.4631 26.4536C58.4072 26.3134 58.3872 26.0643 58.4034 25.7063C58.4051 25.662 58.4079 25.6179 58.4117 25.5738C58.4505 25.1269 58.5901 24.7447 58.8306 24.4273C59.0712 24.1078 59.457 23.8707 59.9879 23.716C60.2001 23.6498 60.3877 23.6238 60.5504 23.638L60.6576 23.6536C60.757 23.6623 60.848 23.6564 60.9307 23.6361C60.9865 23.6304 61.0409 23.6298 61.0937 23.6344C61.1465 23.639 61.2223 23.6488 61.3211 23.6637C61.4201 23.6765 61.525 23.6941 61.636 23.7164C61.7471 23.7366 61.8262 23.7572 61.8734 23.7782C61.8879 23.8556 61.8938 23.9481 61.8908 24.0556C61.8874 24.0955 61.8799 24.1689 61.8685 24.2757C61.8573 24.3804 61.8189 24.4669 61.7534 24.5352C61.7405 24.5362 61.7246 24.5359 61.7056 24.5343C61.6591 24.5302 61.5911 24.5159 61.5017 24.4912C61.2919 24.4307 61.0961 24.3925 60.9143 24.3768C60.7748 24.3647 60.6295 24.3711 60.4782 24.396L60.465 24.4012C60.3184 24.4223 60.177 24.4565 60.0409 24.5039C59.8675 24.5628 59.7339 24.6802 59.6398 24.8559C59.5909 24.9532 59.553 25.0101 59.526 25.0268L59.5208 25.0866C59.5135 25.1706 59.4983 25.2718 59.4753 25.3903C59.4562 25.488 59.4424 25.5735 59.4339 25.6467C59.4259 25.8617 59.449 26.0614 59.5033 26.2458C59.5202 26.3212 59.5341 26.3933 59.5452 26.4619C59.6002 26.5153 59.6468 26.5669 59.6851 26.6167C59.7255 26.6668 59.7672 26.7137 59.8102 26.7576C59.8534 26.7994 59.9119 26.8373 59.9856 26.8712C60.1044 26.9259 60.3184 26.9751 60.6276 27.0189C60.676 27.0252 60.7191 27.0321 60.7568 27.0396C60.8973 27.0645 61.0148 27.0842 61.1094 27.0988C61.2314 27.1157 61.3204 27.133 61.3764 27.1505C61.4325 27.1659 61.4677 27.1901 61.4819 27.2231C61.4962 27.2539 61.5025 27.3042 61.5007 27.3738C61.4966 27.4707 61.4962 27.5732 61.4996 27.6813C61.5022 27.7745 61.5008 27.8643 61.4954 27.9505C61.4942 27.9652 61.493 27.9788 61.4919 27.9914C61.4886 28.0292 61.482 28.0561 61.4721 28.0721C61.4308 28.1066 61.3769 28.1262 61.3105 28.131C61.2442 28.1337 61.1773 28.1322 61.1097 28.1263C61.0442 28.1206 60.9847 28.1186 60.9313 28.1203C60.7768 28.1344 60.6234 28.1348 60.4713 28.1216Z" fill="#2B2C54"/>
<path d="M62.397 28.3459C62.2554 28.3336 62.1607 28.3201 62.113 28.3054C62.0819 28.2963 62.0635 28.2757 62.0577 28.2435C62.052 28.2113 62.0518 28.1648 62.0571 28.1039L62.0713 27.9402C62.0547 27.8859 62.0651 27.6427 62.1026 27.2104C62.1128 27.0929 62.1505 26.7325 62.2156 26.1293C62.256 25.7861 62.3339 25.1702 62.4493 24.2817C62.4505 24.1698 62.4543 24.0771 62.4607 24.0036C62.4742 23.8484 62.5038 23.7643 62.5496 23.7513C62.5801 23.7434 62.6155 23.7412 62.6556 23.7447L62.7946 23.7631C62.8073 23.7642 62.8294 23.7661 62.8611 23.7689C62.8951 23.7697 62.9249 23.7702 62.9505 23.7703C62.9781 23.7706 62.9993 23.7713 63.0141 23.7726C63.067 23.7772 63.094 23.7849 63.0952 23.7955C63.1186 23.7954 63.1455 23.7925 63.1758 23.7867C63.2694 23.7885 63.3626 23.7934 63.4556 23.8015C63.5761 23.8119 63.6961 23.8276 63.8157 23.8486C63.9627 23.8719 64.1986 23.9019 64.5233 23.9386L64.5268 23.9357L64.6063 23.9394C64.9423 23.9686 65.139 23.9963 65.1964 24.0224C65.1416 24.2608 65.1091 24.4397 65.0987 24.5594L65.0948 24.6415C65.0853 24.7506 65.0622 24.9431 65.0255 25.219C64.9917 25.5353 64.9622 25.8382 64.9371 26.1278C64.916 26.3712 64.8977 26.6064 64.8823 26.8334C64.8661 27.0688 64.8472 27.3113 64.8255 27.561C64.7993 27.8632 64.769 28.1755 64.7347 28.4981C64.6351 28.517 64.5102 28.5199 64.3602 28.5069C64.2503 28.4973 64.1657 28.4783 64.1064 28.4499C64.0687 28.3198 64.0569 28.1486 64.0711 27.9363C64.0854 27.7219 64.0987 27.5444 64.1109 27.4038C64.1233 27.2611 64.1365 27.1217 64.1504 26.9855C64.1645 26.8472 64.176 26.7276 64.1847 26.6269L64.1964 26.4916C64.207 26.3699 64.2711 25.8268 64.3889 24.8624L64.3931 24.7772C64.3953 24.752 64.398 24.7332 64.4012 24.7208C64.4044 24.7084 64.4063 24.698 64.4071 24.6896C64.4089 24.6686 64.4004 24.6562 64.3815 24.6525L64.3084 24.6493C64.2934 24.6501 64.2753 24.6496 64.2542 24.6478C64.0777 24.6451 63.8999 24.6445 63.7209 24.6458C63.3547 24.6458 63.1547 24.6442 63.1208 24.6413C63.087 24.6384 63.0656 24.6397 63.0566 24.6452C63.0478 24.6487 63.0425 24.6609 63.0407 24.6819L63.0416 24.7074L63.0378 24.7514C63.0344 24.8886 63.0233 25.1645 63.0043 25.5794L62.9973 25.7342C62.9855 25.8706 62.9711 26.012 62.9541 26.1585C62.9386 26.2883 62.9253 26.4171 62.9142 26.5451C62.8976 26.7361 62.8868 26.9222 62.8817 27.1036C62.8816 27.203 62.8771 27.3041 62.8681 27.4069C62.8618 27.4803 62.8532 27.5546 62.8424 27.6298C62.8316 27.705 62.8231 27.7793 62.8167 27.8527C62.8089 27.943 62.8042 28.0335 62.8027 28.1243L62.801 28.1812C62.7933 28.2693 62.7579 28.3212 62.6948 28.3369C62.6337 28.3548 62.5344 28.3578 62.397 28.3459Z" fill="#2B2C54"/>
<path d="M65.5531 28.5629C65.5214 28.5601 65.489 28.5531 65.4559 28.5417C65.425 28.5306 65.4088 28.4954 65.4076 28.4361C65.4394 28.3395 65.4619 28.2399 65.475 28.1375L65.4997 28.0001C65.5086 27.8973 65.5162 27.7975 65.5225 27.7008C65.535 27.5074 65.5496 27.3142 65.5664 27.1211C65.6023 26.7077 65.649 26.2921 65.7065 25.8743C65.7723 25.4107 65.8201 25.0068 65.8499 24.6626C65.8694 24.4381 65.8794 24.2498 65.8798 24.0976L65.9322 24.0831C65.9491 24.0846 65.9597 24.0844 65.9641 24.0827C65.9685 24.081 65.9718 24.0802 65.9739 24.0804C65.9746 24.072 65.9983 24.0698 66.0448 24.0739C66.1272 24.081 66.1802 24.0835 66.2038 24.0813C66.2295 24.0793 66.254 24.0793 66.2773 24.0814C66.3111 24.0843 66.3506 24.0951 66.3958 24.1139L66.4518 24.1314L66.5247 24.1377C66.5543 24.1403 66.5868 24.1463 66.6222 24.1557L66.6063 24.2653C66.5594 24.4621 66.5256 24.6801 66.5048 24.9193L66.4822 25.2535C66.4684 25.413 66.45 25.5636 66.4271 25.7054L66.2941 26.4644C66.2938 26.4686 66.2924 26.4717 66.2901 26.4736C66.2901 26.4736 66.2888 26.4767 66.2861 26.4828C66.2936 26.5194 66.2954 26.5607 66.2913 26.6069C66.2848 26.6824 66.2483 26.9065 66.1819 27.2792C66.2071 27.2349 66.2478 27.1581 66.3041 27.0488L66.7648 26.1565C66.9717 25.7601 67.0922 25.5496 67.1262 25.5251C67.1491 25.4573 67.1843 25.3832 67.2318 25.3027C67.2672 25.2381 67.311 25.15 67.3633 25.0382C67.4241 24.9019 67.473 24.8173 67.5099 24.7846L67.511 24.772C67.5141 24.7363 67.534 24.6778 67.5709 24.5964C67.6106 24.5069 67.6389 24.4628 67.6558 24.4643L67.659 24.4646C67.6768 24.4069 67.7033 24.3595 67.7384 24.3224C67.7738 24.2832 67.8179 24.2659 67.8707 24.2705L67.8865 24.2718C68.0012 24.2755 68.1473 24.285 68.3249 24.3004C68.4052 24.3074 68.4557 24.3139 68.4765 24.3199L68.4476 24.6155C68.456 24.6416 68.4495 24.7784 68.428 25.026C68.422 25.0953 68.4127 25.1896 68.4002 25.309C68.3878 25.4285 68.373 25.5498 68.3559 25.6731C68.3411 25.7944 68.331 25.8622 68.3255 25.8765L68.3094 26.1352C68.3078 26.3993 68.2936 26.6856 68.2668 26.9941C68.2401 27.3025 68.2109 27.5896 68.1793 27.8554L68.1542 28.145C68.1287 28.4387 68.0959 28.6336 68.0556 28.7294C68.0301 28.7293 68.0043 28.7313 67.9784 28.7354C67.9548 28.7376 67.9101 28.7379 67.8442 28.7364L67.6629 28.7271C67.6122 28.7226 67.5661 28.7144 67.5245 28.7023C67.4624 28.6822 67.4345 28.6353 67.4409 28.5619L67.4423 28.5462C67.4618 28.4189 67.4925 28.1636 67.5343 27.7804L67.6707 26.5396C67.6931 26.3301 67.7265 26.0677 67.7709 25.7523C67.7169 25.8343 67.6396 25.965 67.5388 26.1444C67.2821 26.5999 67.1241 26.9118 67.0648 27.08C67.0565 27.1025 67.0133 27.195 66.9353 27.3573C66.8345 27.5621 66.7688 27.6811 66.7383 27.7144L66.6214 27.9199C66.47 28.1922 66.3898 28.3438 66.3807 28.3747C66.3526 28.404 66.333 28.434 66.3218 28.4647C66.2917 28.5171 66.2619 28.5536 66.2325 28.5743C66.2128 28.6043 66.147 28.6144 66.035 28.6047C65.9758 28.5996 65.9147 28.5922 65.8517 28.5825L65.7378 28.5694C65.7061 28.5666 65.6806 28.5655 65.6614 28.5659C65.6252 28.567 65.589 28.566 65.5531 28.5629Z" fill="#2B2C54"/>
<path d="M70.933 29.03C70.5568 28.9974 70.1868 28.8807 69.823 28.68C69.705 28.6168 69.578 28.5223 69.442 28.3963C69.1442 28.1231 68.9807 27.8225 68.9517 27.4944C68.9473 27.4475 68.9383 27.4033 68.9249 27.362C68.8689 27.2218 68.849 26.9727 68.8651 26.6147C68.8668 26.5705 68.8696 26.5263 68.8734 26.4823C68.9122 26.0353 69.0518 25.6532 69.2923 25.3358C69.5329 25.0163 69.9187 24.7792 70.4496 24.6244C70.6619 24.5583 70.8494 24.5323 71.0121 24.5464L71.1193 24.5621C71.2187 24.5707 71.3097 24.5649 71.3924 24.5446C71.4482 24.5388 71.5026 24.5383 71.5554 24.5429C71.6082 24.5474 71.6841 24.5572 71.7828 24.5721C71.8818 24.5849 71.9868 24.6025 72.0977 24.6248C72.2088 24.645 72.2879 24.6657 72.3351 24.6867C72.3497 24.764 72.3555 24.8565 72.3525 24.9641C72.3491 25.004 72.3416 25.0773 72.3302 25.1841C72.319 25.2889 72.2806 25.3754 72.2151 25.4437C72.2022 25.4447 72.1863 25.4444 72.1673 25.4427C72.1208 25.4387 72.0528 25.4243 71.9634 25.3996C71.7536 25.3391 71.5578 25.301 71.376 25.2852C71.2365 25.2731 71.0912 25.2795 70.94 25.3044L70.9267 25.3096C70.7801 25.3307 70.6387 25.3649 70.5026 25.4123C70.3293 25.4713 70.1956 25.5886 70.1015 25.7644C70.0526 25.8616 70.0147 25.9186 69.9877 25.9353L69.9825 25.9951C69.9752 26.079 69.9601 26.1802 69.937 26.2987C69.9179 26.3964 69.9041 26.4819 69.8956 26.5552C69.8876 26.7701 69.9107 26.9698 69.965 27.1542C69.9819 27.2297 69.9958 27.3017 70.0069 27.3703C70.0619 27.4237 70.1085 27.4754 70.1468 27.5252C70.1872 27.5752 70.2289 27.6222 70.2719 27.6661C70.3152 27.7079 70.3736 27.7457 70.4473 27.7796C70.5661 27.8343 70.7801 27.8836 71.0893 27.9273C71.1377 27.9337 71.1808 27.9406 71.2185 27.9481C71.359 27.9729 71.4765 27.9927 71.5711 28.0072C71.6931 28.0242 71.7821 28.0414 71.8381 28.0589C71.8943 28.0744 71.9294 28.0986 71.9436 28.1315C71.958 28.1624 71.9642 28.2126 71.9625 28.2822C71.9583 28.3791 71.9579 28.4816 71.9613 28.5897C71.9639 28.683 71.9625 28.7727 71.9571 28.8589C71.9559 28.8736 71.9547 28.8873 71.9536 28.8998C71.9503 28.9376 71.9437 28.9645 71.9338 28.9806C71.8925 29.015 71.8386 29.0347 71.7722 29.0395C71.706 29.0422 71.639 29.0406 71.5714 29.0347C71.5059 29.029 71.4464 29.027 71.393 29.0288C71.2385 29.0428 71.0851 29.0432 70.933 29.03Z" fill="#2B2C54"/>
<path d="M73.765 27.3859L74.4918 27.4395C74.5172 27.4417 74.5302 27.4386 74.531 27.4302L74.5263 27.4108C74.4729 27.0932 74.4449 26.8519 74.4421 26.6868C74.4322 26.4576 74.3992 26.3099 74.3432 26.2437L74.2606 26.4236C74.1683 26.6038 74.1055 26.7379 74.0723 26.8259L73.9709 27.001C73.8613 27.1839 73.7927 27.3122 73.765 27.3859ZM72.9327 29.2481L72.9137 29.2464C72.8735 29.2429 72.7675 29.2253 72.5957 29.1934C72.4091 29.1603 72.3057 29.1365 72.2857 29.1221C72.2789 29.1025 72.2765 29.0801 72.2787 29.0549C72.2858 28.9731 72.3503 28.8064 72.4722 28.5548C72.5163 28.4635 72.5481 28.3923 72.5674 28.3411C72.5877 28.2794 72.6184 28.1954 72.6596 28.0891C72.766 27.8192 72.8552 27.6504 72.9271 27.5827C72.933 27.5388 72.9539 27.4698 72.9898 27.3757C73.0609 27.1937 73.1335 27.0319 73.2075 26.8903C73.3287 26.6472 73.5138 26.3059 73.7627 25.8667C74.0544 25.3508 74.2302 25.0796 74.29 25.053C74.3478 24.927 74.416 24.8399 74.4947 24.7918C74.5696 24.8617 74.6367 25.0335 74.696 25.3071C74.7188 25.4127 74.7289 25.4918 74.7265 25.5444C74.7644 25.5985 74.8069 25.7227 74.8539 25.917C74.8814 26.042 74.9113 26.1387 74.9437 26.2071C74.9588 26.2781 74.9846 26.3861 75.021 26.5309L75.2806 27.6253C75.5343 28.7023 75.6579 29.2775 75.6516 29.351L75.6513 29.3541C75.6121 29.3888 75.5742 29.4077 75.5378 29.4109C75.5163 29.4132 75.4928 29.4133 75.4675 29.4111C75.4527 29.4098 75.4348 29.4072 75.4139 29.4033C75.3952 29.3974 75.3732 29.3934 75.3478 29.3912L75.2268 29.387C75.1926 29.3883 75.1607 29.3876 75.1312 29.3851C75.072 29.3799 75.0168 29.3656 74.9656 29.3422C74.9058 29.246 74.8317 28.9584 74.7434 28.4793C74.7047 28.2624 74.668 28.0964 74.6333 27.9814C74.5887 27.9796 74.544 27.98 74.499 27.9824C74.4562 27.985 74.4073 27.984 74.3524 27.9792L74.3175 27.9762C74.2775 27.9706 74.2248 27.9649 74.1593 27.9592C73.9775 27.9435 73.755 27.9432 73.4918 27.9584C73.39 28.125 73.2515 28.4333 73.0762 28.8832L72.9327 29.2481Z" fill="#2B2C54"/>
<path d="M78.2086 29.6618L78.1642 29.658C78.1114 29.6534 78.0779 29.6473 78.0636 29.6397L78.0027 29.6059L78.0211 27.7364L77.8851 27.7215C77.8005 27.7141 77.725 27.7128 77.6586 27.7176C77.5538 27.7233 77.4739 27.7238 77.4189 27.719C77.3323 27.7115 77.2355 27.6978 77.1286 27.678L76.8859 27.641C76.8654 27.8042 76.8484 27.9507 76.835 28.0806C76.8075 28.3488 76.7644 28.6611 76.7058 29.0176C76.7009 29.0489 76.697 29.0823 76.6939 29.118L76.6808 29.342C76.675 29.4092 76.6656 29.4686 76.6526 29.5204C76.5984 29.5072 76.5353 29.4975 76.4635 29.4912L76.3522 29.4848C76.2967 29.4863 76.2489 29.4853 76.2088 29.4818C76.1771 29.4791 76.1469 29.4712 76.1182 29.4581C76.0795 29.4378 76.0665 29.3542 76.0793 29.2074C76.0856 29.1339 76.0991 29.0399 76.1197 28.9255C76.1686 27.8705 76.1981 27.2726 76.2082 27.1319C76.2347 26.7283 76.2616 26.3691 76.2889 26.0543C76.3259 25.6283 76.3572 25.3901 76.3829 25.3394L76.4001 25.1411C76.4064 25.0677 76.4211 25.0214 76.4441 25.0022C76.4691 24.9833 76.5799 24.9823 76.7765 24.9994C76.8991 25.01 76.987 25.0272 77.0403 25.0509C77.1017 25.0794 77.1285 25.1389 77.1207 25.2291L77.1166 25.2763C77.1024 25.366 77.0914 25.4559 77.0836 25.5462C77.0772 25.6196 77.0729 25.6943 77.0706 25.7702L77.0571 25.9625C77.0474 26.0737 77.0337 26.1824 77.016 26.2887C76.9999 26.3761 76.9827 26.5247 76.9645 26.7345C76.956 26.8332 76.9522 26.9132 76.9533 26.9746C77.2076 27.0136 77.4615 27.0441 77.7151 27.0661C77.8293 27.076 77.9446 27.0839 78.0612 27.0898C78.0686 27.0292 78.0758 26.9589 78.0827 26.8792L78.1036 26.602C78.1095 26.4841 78.1177 26.3653 78.1281 26.2457C78.1417 26.0884 78.1613 25.8998 78.1867 25.68C78.2124 25.4581 78.2539 25.2863 78.3113 25.1644C78.3706 25.1442 78.4435 25.1378 78.5302 25.1453C78.6464 25.1554 78.7488 25.1781 78.8373 25.2132L78.752 26.6012C78.747 26.9538 78.7309 27.2864 78.7038 27.5991C78.6914 27.7418 78.6772 27.8685 78.6612 27.9791C78.6891 28.0259 78.6962 28.202 78.6825 28.5074C78.6734 28.6609 78.6656 28.7755 78.6591 28.851C78.6549 28.8993 78.6477 28.9452 78.6375 28.9887C78.6295 29.0324 78.6223 29.0783 78.616 29.1264C78.6093 29.204 78.6079 29.2937 78.6118 29.3956C78.6132 29.4528 78.613 29.5045 78.6111 29.5509L78.618 29.6561C78.5548 29.6718 78.4184 29.6737 78.2086 29.6618Z" fill="#2B2C54"/>
<path d="M79.2865 29.7554C79.2548 29.7527 79.2224 29.7456 79.1893 29.7343C79.1583 29.7231 79.1422 29.6879 79.141 29.6286C79.1728 29.532 79.1953 29.4325 79.2084 29.33L79.2331 29.1926C79.242 29.0898 79.2496 28.9901 79.2559 28.8933C79.2684 28.6999 79.283 28.5067 79.2998 28.3136C79.3356 27.9003 79.3823 27.4847 79.4399 27.0668C79.5057 26.6032 79.5535 26.1993 79.5833 25.8552C79.6028 25.6307 79.6128 25.4423 79.6132 25.2901L79.6655 25.2756C79.6824 25.2771 79.6931 25.277 79.6975 25.2752C79.7019 25.2735 79.7052 25.2727 79.7073 25.2729C79.708 25.2645 79.7316 25.2624 79.7781 25.2664C79.8606 25.2736 79.9136 25.276 79.9372 25.2739C79.9629 25.2719 79.9874 25.2719 80.0107 25.2739C80.0445 25.2768 80.084 25.2877 80.1292 25.3064L80.1852 25.3239L80.2581 25.3303C80.2877 25.3328 80.3202 25.3388 80.3556 25.3482L80.3397 25.4579C80.2928 25.6546 80.259 25.8726 80.2382 26.1118L80.2156 26.446C80.2018 26.6055 80.1834 26.7561 80.1604 26.8979L80.0275 27.657C80.0271 27.6612 80.0258 27.6642 80.0235 27.6661C80.0235 27.6661 80.0222 27.6692 80.0195 27.6753C80.027 27.7119 80.0287 27.7533 80.0247 27.7994C80.0182 27.875 79.9817 28.0991 79.9153 28.4717C79.9404 28.4274 79.9812 28.3506 80.0375 28.2413L80.4982 27.349C80.7051 26.9526 80.8255 26.7421 80.8596 26.7176C80.8825 26.6498 80.9177 26.5757 80.9651 26.4953C81.0006 26.4307 81.0444 26.3425 81.0967 26.2308C81.1575 26.0944 81.2063 26.0099 81.2433 25.9771L81.2443 25.9645C81.2474 25.9289 81.2674 25.8703 81.3043 25.789C81.344 25.6994 81.3723 25.6554 81.3892 25.6568L81.3924 25.6571C81.4102 25.5994 81.4366 25.5521 81.4718 25.5149C81.5071 25.4757 81.5512 25.4584 81.6041 25.463L81.6199 25.4644C81.7346 25.468 81.8807 25.4775 82.0582 25.4929C82.1385 25.4999 82.1891 25.5064 82.2099 25.5124L82.181 25.808C82.1894 25.8341 82.1829 25.971 82.1614 26.2186C82.1554 26.2878 82.1461 26.3822 82.1336 26.5016C82.1211 26.621 82.1064 26.7423 82.0893 26.8656C82.0745 26.9869 82.0643 27.0548 82.0588 27.0691L82.0428 27.3277C82.0412 27.5919 82.027 27.8782 82.0002 28.1866C81.9735 28.4951 81.9443 28.7822 81.9127 29.0479L81.8876 29.3375C81.8621 29.6313 81.8292 29.8261 81.789 29.922C81.7634 29.9219 81.7377 29.9239 81.7118 29.928C81.6882 29.9301 81.6435 29.9305 81.5776 29.929L81.3963 29.9196C81.3456 29.9152 81.2995 29.907 81.2579 29.8949C81.1958 29.8747 81.1679 29.8279 81.1743 29.7544L81.1757 29.7387C81.1952 29.6114 81.2259 29.3562 81.2676 28.9729L81.404 27.7321C81.4265 27.5226 81.4599 27.2602 81.5043 26.9448C81.4503 27.0268 81.373 27.1575 81.2722 27.3369C81.0155 27.7924 80.8575 28.1043 80.7982 28.2725C80.7898 28.295 80.7467 28.3875 80.6687 28.5499C80.5679 28.7546 80.5022 28.8737 80.4716 28.907L80.3548 29.1124C80.2034 29.3847 80.1232 29.5363 80.1141 29.5672C80.086 29.5965 80.0664 29.6265 80.0552 29.6573C80.0251 29.7096 79.9953 29.7461 79.9658 29.7668C79.9462 29.7968 79.8804 29.807 79.7684 29.7973C79.7092 29.7921 79.6481 29.7847 79.585 29.775L79.4712 29.7619C79.4395 29.7592 79.414 29.758 79.3948 29.7585C79.3585 29.7596 79.3224 29.7585 79.2865 29.7554Z" fill="#2B2C54"/>
<path d="M83.9879 30.1637L83.8801 30.1543C83.7935 30.1468 83.6269 30.1281 83.3803 30.0982L83.3809 30.0919L83.0763 30.0686L82.8572 30.0528C82.7009 30.0392 82.5609 30.0207 82.4372 29.9973C82.437 29.9021 82.445 29.6999 82.4611 29.3905C82.4908 28.8032 82.5251 28.2851 82.5641 27.836C82.6145 27.2548 82.6611 26.9258 82.704 26.8492C82.6934 26.7743 82.6954 26.6529 82.71 26.485C82.7355 26.1913 82.7729 25.8954 82.8221 25.5973C82.8815 25.5517 83.0982 25.5452 83.4723 25.5777C83.6287 25.5912 83.7953 25.6089 83.9723 25.6306C84.0481 25.6414 84.1282 25.6505 84.2127 25.6578C84.2846 25.6641 84.3608 25.6686 84.4415 25.6713C84.5245 25.6722 84.6051 25.676 84.6833 25.6828C84.9031 25.7019 85.1007 25.7434 85.2762 25.8072C85.2918 25.8974 85.2943 26.0033 85.2837 26.125C85.279 26.1796 85.2704 26.2296 85.2579 26.275C85.2366 26.3493 85.1995 26.3841 85.1467 26.3795L84.4939 26.3196L83.8445 26.2569C83.6395 26.2391 83.502 26.2293 83.4319 26.2274L83.4079 26.4664L83.3907 26.6647L83.3704 26.8627C83.347 27.034 83.3284 27.1994 83.3145 27.3589C83.3087 27.426 83.3061 27.4808 83.3067 27.5231C83.3367 27.5447 83.5314 27.5712 83.8907 27.6024C84.1105 27.6215 84.3236 27.6442 84.53 27.6706C84.7364 27.6969 84.8781 27.7325 84.9551 27.7773C84.9771 27.9166 84.9844 28.0293 84.9769 28.1153C84.9687 28.2097 84.942 28.2719 84.8969 28.3018C84.8224 28.3503 84.6393 28.3619 84.3477 28.3365L84.1926 28.3199L83.8499 28.2933L83.2549 28.267L83.1463 29.2248C83.3397 29.2776 83.726 29.3291 84.3051 29.3794C84.7193 29.4153 84.9403 29.4461 84.9678 29.4718C84.9949 29.5524 85.0029 29.645 84.9916 29.7498C84.9824 29.8568 84.9645 29.9525 84.938 30.0369C84.9136 30.1214 84.8721 30.1707 84.8134 30.1846C84.7656 30.1953 84.7121 30.198 84.653 30.1929L84.5103 30.1805L83.9879 30.1637Z" fill="#2B2C54"/>
</svg>
