<svg width="182" height="94" viewBox="0 0 182 94" fill="none" xmlns="http://www.w3.org/2000/svg">
<path d="M178.45 55.581C178.62 55.871 177.95 56.1909 178.48 56.4809C178.52 56.5009 178.54 56.701 178.51 56.721C178.05 57.001 178.03 57.241 178.39 57.681C178.73 58.101 178.59 58.461 178.14 58.681C177.5 58.981 176.89 59.291 176.4 59.821C176.19 60.041 175.79 60.151 175.47 60.191C174.02 60.361 172.57 60.511 171.12 60.631C170.19 60.711 169.25 60.741 168.32 60.801C167.1 60.881 166.27 61.541 165.68 62.571C165.24 63.331 164.76 64.061 164.34 64.821C164.09 65.281 163.88 65.771 163.73 66.271C163.6 66.711 163.6 67.201 163.5 67.651C163.2 68.951 163.25 70.0809 164.7 70.7009C164.81 70.7509 164.84 70.9909 164.91 71.1409C164.45 72.1009 163.44 71.701 162.71 72.101C162.45 73.131 162.83 74.1609 162.81 75.2009C162.81 75.4009 162.97 75.641 163.12 75.811C164.05 76.821 164.3 78.061 164.35 79.371C164.4 80.551 164.57 81.6909 165.02 82.7909C165.53 84.0509 165.4 85.3009 164.77 86.5109C164.55 86.9309 164.24 87.101 163.78 87.091C162.09 87.041 160.41 87.001 158.72 86.961C158.2 86.951 157.64 86.901 157.24 87.321C156.91 87.661 156.52 87.651 156.11 87.631C152.37 87.471 148.64 87.311 144.9 87.161C141.57 87.031 138.24 86.911 134.91 86.781C131.64 86.661 128.37 86.541 125.09 86.401C123.98 86.351 122.87 86.231 121.77 86.191C116.45 86.031 111.13 85.841 105.8 85.751C103 85.701 100.19 85.9209 97.38 85.8909C94.8 85.8609 92.24 86.1409 89.67 86.2009C84.41 86.3109 79.14 86.3609 73.88 86.5109C68.97 86.6509 64.07 86.911 59.16 87.061C55.77 87.161 52.38 87.2309 48.99 87.2009C44.25 87.1609 39.52 87.001 34.78 86.901C32.15 86.841 29.52 86.8009 26.89 86.7309C26.31 86.7209 25.72 86.651 25.14 86.601C24.34 86.521 23.71 86.1009 23.18 85.5409C23.03 85.3809 22.83 85.1409 22.84 84.9509C22.89 84.2009 22.58 83.641 22.23 83.001C21.95 82.501 21.99 81.811 22.46 81.241C22.94 80.661 23.37 80.0309 23.77 79.3909C23.89 79.2009 23.8 78.871 23.81 78.591C24.68 78.111 24.68 78.111 25.65 76.781C25.52 76.741 25.36 76.681 25.21 76.621C25.05 76.561 24.9 76.4909 24.65 76.3909C25.53 75.5309 26.46 75.0809 27.68 75.1109C29.37 75.1509 31.07 75.0809 32.77 75.0409C33.03 75.0309 33.28 74.931 33.53 74.781C31.24 74.371 28.93 74.5509 26.66 74.4209C26.45 73.9809 26.71 73.831 27 73.781C28.41 73.521 29.8 73.1509 31.18 73.2309C31.47 72.6609 31.21 72.431 30.84 72.351C30.39 72.241 29.92 72.181 29.45 72.161C27.82 72.091 26.2 71.911 24.56 72.071C23.34 72.191 22.11 72.261 20.88 72.311C20.48 72.331 20.08 72.2309 19.69 72.1709C19.46 72.1309 19.22 71.941 19.03 71.991C17.98 72.291 17.26 71.641 16.44 71.211C15.61 70.771 15.22 70.031 15.35 69.191C15.61 67.481 14.69 66.161 14.05 64.741C13.89 64.381 13.56 64.091 13.26 63.811C12.92 63.491 12.53 63.2209 12.18 62.9209C10.86 61.7609 9.33 61.1309 7.56 61.0409C7.16 61.0209 6.74002 60.971 6.36002 60.841C4.88002 60.331 4.04 59.2209 4.22 57.6709C4.31 56.8709 4.17002 56.171 3.96002 55.381C4.83002 54.171 4.77002 52.661 5.08002 51.251C5.14002 50.981 4.71002 50.661 5.11002 50.341C5.67002 49.881 5.39001 49.411 5.04001 48.911C5.37001 48.301 6.02002 47.701 5.36002 46.911C5.31002 46.851 5.34001 46.681 5.39001 46.591C5.77001 45.911 5.42 45.331 5.12 44.781C4.84 44.271 4.44002 43.831 4.49002 43.101C4.87002 42.901 5.29001 42.7209 5.67001 42.4809C6.12001 42.2009 6.17999 41.821 5.92999 41.281C5.66999 40.711 5.44001 38.7409 5.67001 38.2909C6.09001 37.5009 6.11 36.681 6.12 35.811C6.13 35.111 6.57 34.4209 6.13 33.6709C5.92 33.6409 5.69002 33.611 5.46002 33.581C5.46002 33.491 5.43001 33.401 5.45001 33.321C5.67001 32.401 6.58 31.921 6.94 30.961C6.75 30.631 6.52002 30.241 6.33002 29.911C6.46002 29.711 6.72 29.4909 6.72 29.2609C6.72 28.3909 6.63 27.5109 6.59 26.6409C6.56 26.0809 6.73 25.701 7.25 25.341C8.42 24.531 8.60001 22.791 7.79001 21.631C7.52001 21.241 7.24999 20.911 6.67999 20.741C7.23999 20.391 7.99 20.2709 7.87 19.4209C7.86 19.3209 7.92002 19.1809 7.99002 19.1109C8.23002 18.8709 8.70002 18.6709 8.71002 18.4209C8.76002 17.7409 8.72 17.031 8.53 16.381C8.27 15.481 8.33999 14.7809 9.17999 14.2609C10.22 13.6209 10.38 12.431 10.77 11.441C10.99 10.881 10.68 10.111 10.61 9.38097C10.89 9.09097 11.19 8.72097 11.55 8.44097C11.86 8.20097 12.23 7.99096 12.61 7.87096C14.69 7.21096 16.83 6.92096 19.01 6.87096C21.94 6.80096 24.86 6.75096 27.79 6.65096C31.12 6.53096 34.44 6.35095 37.77 6.24095C39.23 6.19095 40.69 6.28094 42.16 6.29094C46.14 6.33094 50.12 6.35095 54.1 6.42095C55.14 6.44095 56.18 6.64095 57.22 6.67095C58.26 6.70095 59.31 6.61096 60.36 6.56096C60.89 6.54096 61.41 6.46095 61.94 6.49095C63.76 6.59095 65.56 6.48094 67.37 6.29094C68 6.22094 68.65 6.29096 69.29 6.28096C69.78 6.27096 70.21 6.34096 70.55 6.75096C70.83 7.09096 71.23 7.14095 71.66 7.14095C73.47 7.15095 75.28 7.19096 77.09 7.22096C77.38 7.22096 77.68 7.28096 77.97 7.25096C79.18 7.11096 80.27 7.30097 81.26 8.10097C81.87 8.59097 82.7 8.53096 83.46 8.56096C83.8 8.57096 84.1 8.49095 84.28 8.96095C84.35 9.13095 84.91 9.22096 85.22 9.18096C87.57 8.89096 89.88 9.28097 92.17 9.69097C92.83 9.81097 93.59 9.65095 94.22 10.241C93.57 10.451 92.98 10.641 92.41 10.821C92.24 11.891 93.47 11.3309 93.65 11.9509C93.57 12.0409 93.5 12.171 93.42 12.181C91.96 12.291 90.53 12.531 89.14 13.021C88.6 13.211 87.99 13.2209 87.41 13.2609C86.67 13.3109 86.01 13.501 85.64 14.191C85.23 14.941 85.33 15.6609 86 16.3909C87.4 16.4809 88.91 16.631 90.42 16.661C94.04 16.731 97.67 16.7709 101.29 16.7609C105.56 16.7509 109.83 16.6709 114.1 16.6409C115.21 16.6309 116.32 16.691 117.44 16.721C122.18 16.871 126.91 17.001 131.65 17.181C134.75 17.301 137.84 17.5109 140.94 17.6409C143.8 17.7609 146.67 17.8409 149.53 17.9209C150 17.9309 150.42 17.991 150.87 18.191C151.33 18.391 151.89 18.4109 152.41 18.4509C154.62 18.6309 156.84 18.801 159.06 18.961C160.75 19.081 162.38 19.431 163.95 20.091C164.16 20.181 164.39 20.261 164.62 20.281C165.44 20.361 166.18 20.5409 166.8 21.1709C167.02 21.3909 167.47 21.361 167.77 21.521C168.17 21.731 168.52 22.031 168.97 22.351C168.41 23.461 168.28 24.5309 168.83 25.5409C168.52 26.0009 168.21 26.361 168.02 26.771C167.77 27.301 167.62 27.871 168.01 28.441C168.17 28.671 168.31 28.961 168.33 29.241C168.38 29.851 168.75 30.1609 169.22 30.4509C169.36 30.5309 169.44 30.701 169.6 30.901C169.4 31.301 169.17 31.701 169 32.121C168.78 32.681 168.9 33.1609 169.41 33.5109C169.84 33.8009 170.32 34.0209 170.79 34.2609C171.83 34.7809 172.14 35.941 171.47 36.901C171.2 37.281 170.85 37.621 170.65 38.031C170.4 38.551 170.26 39.1209 170.09 39.6409C170.87 40.4909 171.86 40.181 172.71 40.221C172.95 40.631 172.75 40.811 172.46 40.941C172.06 41.131 171.76 41.371 171.85 41.871C171.92 41.951 171.98 42.071 172.07 42.121C172.35 42.261 172.81 42.161 172.8 42.681C172.79 43.011 172.63 43.231 172.32 43.331C171.98 43.441 171.61 43.551 171.63 43.991C171.65 44.361 171.87 44.641 172.25 44.751C173.94 45.251 174.29 46.6609 174.54 48.1409C174.6 48.4809 174.56 48.841 174.55 49.191C174.55 49.831 174.54 50.461 174.53 50.771C175.2 51.491 175.67 52.0109 176.16 52.5109C177.14 53.5109 178.29 53.891 179.67 53.441C180.06 53.311 180.46 53.2309 180.86 53.1409C180.95 53.1209 181.05 53.191 181.23 53.241C180.63 53.571 180.07 53.851 179.55 54.191C179.16 54.451 178.82 54.771 178.49 55.101C178.42 55.171 178.51 55.401 178.53 55.561L178.45 55.581ZM37.78 74.881C37.77 74.831 37.77 74.7809 37.76 74.7309C37.14 74.7609 36.52 74.791 35.91 74.821C35.91 74.871 35.91 74.921 35.91 74.971C36.54 74.941 37.16 74.911 37.78 74.881ZM34.55 74.741L34.68 74.6709L34.55 74.621V74.741ZM39.25 74.7609C39.21 74.7509 39.17 74.7309 39.12 74.7309C39.11 74.7309 39.1 74.791 39.09 74.821C39.13 74.831 39.17 74.851 39.21 74.841C39.23 74.841 39.24 74.7909 39.25 74.7609ZM34.22 0.000963646C34.11 0.000963646 34 0.0309514 33.9 0.0509514C33.94 0.110951 34 0.230944 34.03 0.230944C34.13 0.220944 34.23 0.150949 34.32 0.110949C34.29 0.060949 34.25 -0.00903635 34.22 0.000963646ZM65.24 92.6409C65.22 92.6309 65.1 92.7809 65.1 92.8609C65.1 92.9509 65.2 93.1109 65.23 93.1109C65.36 93.0809 65.48 93.0009 65.7 92.8909C65.49 92.7709 65.37 92.6909 65.24 92.6409ZM178.45 55.581C178.7 55.601 178.95 55.611 179.19 55.631C179.19 55.591 179.19 55.551 179.19 55.501C178.95 55.531 178.7 55.551 178.45 55.581C178.45 55.581 178.46 55.571 178.45 55.581ZM0.27002 57.3909C0.29002 57.3909 0.349996 57.281 0.339996 57.271C0.289996 57.211 0.210004 57.121 0.160004 57.131C0.100004 57.131 0.05 57.241 0 57.301C0.09 57.341 0.17002 57.3709 0.27002 57.3909Z" fill="white"/>
<path d="M100.351 21.8283C99.9375 22.3332 99.5232 22.8508 99.1225 23.3533C98.1576 24.5593 97.1619 25.8033 96.0999 26.9663C95.6291 27.4827 95.1583 28.0003 94.6776 28.5267C94.0495 29.219 93.4054 29.8998 92.7514 30.568C92.5093 30.8161 92.2647 31.0629 92.0188 31.3071C91.1584 32.1664 90.2721 33.051 89.446 34.0381C88.9593 34.538 88.5266 34.9569 88.1443 35.3062C88.1443 35.3024 88.1418 35.2986 88.1406 35.2948C87.8382 34.6152 87.5223 33.9115 87.2322 33.2117C87.1757 33.075 87.0994 33.0232 86.8475 32.9561C84.2329 32.2601 81.6564 32.0512 79.1918 32.3334C78.2158 32.4448 77.2361 32.6359 76.2798 32.9004C72.1692 34.0381 68.2726 35.7985 64.3673 38.2827C60.837 40.5265 58.2151 43.3967 56.3515 47.0604C55.9815 47.7868 55.9742 48.312 56.322 48.9992C56.5445 49.437 56.7609 49.8838 56.9711 50.328C56.4929 50.371 55.8808 50.4229 55.1039 50.4697C54.8949 50.4837 54.6835 50.495 54.4733 50.5064C53.8636 50.5393 53.2342 50.5748 52.6233 50.6431C48.2915 51.1303 43.7471 51.3328 39.1166 51.2392C38.7392 51.2329 38.3274 51.1822 38.1172 50.8621C37.9082 50.5457 38.0152 50.1382 38.1479 49.7813C38.2819 49.4181 38.4946 49.1473 38.6986 48.8878L38.7269 48.8524C40.1503 47.0401 41.6746 45.2672 43.1484 43.5536C44.9333 41.4782 46.7783 39.3305 48.4488 37.1095C51.7272 32.7498 55.6423 28.3091 60.7694 23.133C62.1412 21.7486 63.4848 21.093 65.4036 20.8741C65.4441 20.8703 65.4859 20.8665 65.5265 20.8614C72.3696 20.154 78.4518 19.9174 84.1173 20.1376C86.8081 20.2413 89.5518 20.1667 92.2081 20.0958C94.3765 20.0363 96.621 19.9743 98.8312 20.011C99.1889 20.0173 99.5736 20.0426 99.9609 20.1844C100.228 20.2805 100.595 20.4565 100.695 20.8349C100.798 21.2234 100.547 21.5891 100.351 21.8283Z" fill="#D4CAFB"/>
<path d="M92.7382 42.7703C92.587 42.2198 92.4297 41.6769 92.3498 41.4036L92.3485 41.4036C91.9244 41.3453 91.3147 41.2631 90.4432 41.139C90.4063 41.096 90.3658 41.077 90.3178 41.0707C90.3105 41.0859 90.3031 41.1024 90.2957 41.1175C89.7635 41.0416 89.1402 40.9517 88.4089 40.8442C86.6056 40.5784 84.6806 40.5607 82.6782 40.791C73.8831 41.7971 64.8261 47.3427 60.9147 54.0626C60.5841 54.5688 60.2141 55.132 59.8428 55.7002C59.4593 56.2874 59.0733 56.8797 58.7242 57.4213C58.8447 57.6099 58.9652 57.7972 59.0906 57.982L59.1274 58.0351C59.5601 58.6793 60.0088 59.3462 60.8606 59.6904C65.3424 61.5153 69.7664 60.8079 74.285 59.5639C76.2924 59.0109 78.2714 58.3338 80.1042 57.315C85.3247 54.4157 91.1734 50.1812 92.7529 43.9409C92.8501 43.5486 92.8451 43.1651 92.7382 42.7703Z" fill="#D4CAFB"/>
<path d="M90.4817 36.3243C90.2113 35.7409 89.0877 33.077 88.7977 32.3227C88.5469 31.671 88.1105 31.4533 87.4725 31.2887C87.4074 31.2723 87.3435 31.2546 87.2795 31.2381C84.5875 30.4953 81.8046 30.2814 79.0044 30.6003C77.0339 30.8256 74.9885 31.3242 72.9283 32.0797C69.2714 33.4212 65.7865 35.1992 62.5672 37.3683C58.92 39.8273 56.1162 43.2379 54.2355 47.5065C53.9466 48.1608 54.2502 48.6366 54.5243 49.2213C54.8304 49.8781 57.4548 55.4376 58.7221 57.4219C59.4105 56.3551 60.2415 55.0895 60.9138 54.0619C64.8265 47.342 73.8822 41.7964 82.6773 40.7903C84.6785 40.56 86.6047 40.5777 88.408 40.8435C89.1394 40.9523 89.7638 41.0422 90.2948 41.1169L90.4424 41.1384C91.3139 41.2624 91.9236 41.3447 92.3477 41.4029C91.8756 39.8032 91.2844 38.0492 90.4817 36.3243Z" fill="#B5A4F8"/>
<path d="M107.73 48.9034C107.678 49.2489 107.626 49.5754 107.595 49.9057C107.536 50.5714 107.424 51.2345 107.319 51.8774C107.294 52.0242 107.269 52.1685 107.246 52.3153C107.199 52.6026 107.123 52.9025 107.01 53.2606C106.885 53.6618 106.617 53.9149 106.278 53.9542C106.166 53.9668 106.051 53.9567 105.935 53.92C105.703 53.8504 105.526 53.7086 105.422 53.5074C105.311 53.2897 105.298 53.0202 105.384 52.7468C105.429 52.6102 105.437 52.4494 105.444 52.2799C105.451 52.1027 105.46 51.9179 105.509 51.723C105.775 50.7043 104.444 48.6503 103.422 48.1833C101.933 47.4999 101.307 46.2484 101.614 44.5639C101.619 44.5336 101.626 44.5044 101.631 44.4753C100.71 43.8464 100.49 43.3566 100.63 42.2467C100.523 42.1835 100.418 42.1215 100.311 42.0557C99.9077 41.8165 99.4983 41.571 99.0865 41.3305C97.3214 40.3016 96.1511 38.7349 95.6066 36.6746C95.4812 36.195 95.346 35.7103 95.2169 35.2382C95.0301 34.5688 94.8395 33.8765 94.6675 33.1868C94.3761 32.0263 93.6644 31.0582 93.0068 30.3115C93.0523 30.2622 94.2212 29.0245 94.2212 29.0245C94.4671 29.3257 94.6945 29.6358 94.9158 29.9382C95.0092 30.0648 95.1014 30.1926 95.1936 30.3191C96.1229 31.5695 96.4646 33.021 96.7952 34.4258C96.9071 34.9041 97.0239 35.4002 97.1616 35.8723C97.7479 37.8857 98.7509 39.1943 100.316 39.989C100.714 40.1928 101.086 40.4345 101.447 40.6686C101.562 40.7446 101.679 40.8192 101.795 40.8926C101.976 40.8496 102.142 40.8192 102.301 40.8015C103.744 40.6357 104.201 41.5887 104.4 42.5315C104.439 42.5404 104.474 42.5492 104.512 42.5593C104.887 42.653 105.273 42.7479 105.653 42.9276C107.011 43.5743 107.423 44.8082 107.76 46.1243C108.012 47.095 107.869 48.015 107.73 48.9034Z" fill="#D4CAFB"/>
<path d="M107.864 46.1703C107.528 44.8542 107.116 43.6203 105.759 42.9748C105.378 42.7939 104.992 42.699 104.617 42.6053C104.58 42.5952 104.543 42.5876 104.506 42.5775C104.307 41.6347 103.85 40.683 102.407 40.8475C102.249 40.8652 102.082 40.8943 101.9 40.9386C101.785 40.8652 101.669 40.7906 101.554 40.7146C101.193 40.4805 100.82 40.2388 100.421 40.035C98.8566 39.2403 97.8536 37.9317 97.2672 35.917C97.1296 35.445 97.0128 34.9501 96.9009 34.4718C96.5703 33.067 96.2285 31.6142 95.2992 30.3639C95.207 30.2386 95.1136 30.1108 95.0214 29.9842C94.8002 29.6805 94.574 29.3704 94.3282 29.0705L94.7793 28.5744C95.2599 28.0467 95.7307 27.5303 96.2015 27.014C97.2635 25.851 98.2592 24.607 99.2242 23.4009C99.6249 22.8998 100.039 22.3809 100.452 21.876C100.65 21.6355 100.9 21.271 100.798 20.8813C100.698 20.5029 100.33 20.3282 100.064 20.232C99.6765 20.0903 99.2918 20.065 98.9328 20.0587C96.7227 20.022 94.4793 20.084 92.3098 20.1434C89.6546 20.2156 86.911 20.2903 84.219 20.1852C78.5535 19.965 72.4713 20.2017 65.6281 20.9104C65.5876 20.9154 65.5458 20.9179 65.5065 20.923C63.5876 21.1419 62.2441 21.7975 60.8723 23.182C55.7452 28.358 51.8301 32.7987 48.5517 37.1572C46.8812 39.3795 45.0361 41.5258 43.2513 43.6013C41.7774 45.3148 40.2532 47.0866 38.8298 48.9001L38.8015 48.9355C38.5974 49.1962 38.3848 49.4658 38.2508 49.829C38.1193 50.1871 38.0123 50.5946 38.2201 50.911C38.4303 51.2312 38.842 51.2818 39.2194 51.2881C43.8499 51.3805 48.3944 51.1793 52.7262 50.6921C53.3359 50.6237 53.9652 50.5883 54.5749 50.5554C54.7851 50.544 54.9953 50.5313 55.2055 50.5187C55.3211 50.7591 55.4342 50.9996 55.5472 51.2388C56.6314 53.5281 57.7512 55.8947 59.1919 58.0283L59.2288 58.0815C59.6615 58.7256 60.1114 59.3926 60.962 59.7368C63.1832 60.6404 65.2286 61.0517 67.2151 60.9947C67.6515 60.9821 68.1075 60.9492 68.5685 60.896C70.459 60.6796 72.3053 60.1519 74.0914 59.6406L74.5732 59.5027C76.4601 58.9661 78.2953 58.4054 80.0126 57.4677C82.5312 56.0921 84.8877 54.3418 86.8999 52.808C90.0062 50.4415 91.9533 47.5561 92.8543 43.9873C92.9526 43.5937 92.949 43.2115 92.8408 42.8179C92.3073 40.8817 91.6238 38.5999 90.5852 36.3701C90.3147 35.7866 90.0492 35.1956 89.7923 34.6249C89.7112 34.4427 89.63 34.2629 89.5489 34.0845C90.375 33.0987 91.2612 32.2128 92.1217 31.3548C92.4462 31.0295 92.7818 30.6967 93.1137 30.3563C93.7713 31.1029 94.483 32.0698 94.7744 33.2315C94.9465 33.9213 95.137 34.6135 95.3238 35.2843C95.4541 35.755 95.5881 36.241 95.7135 36.7193C96.2568 38.7796 97.4283 40.3464 99.1934 41.3765C99.6052 41.6169 100.015 41.8625 100.418 42.1016C100.525 42.1662 100.63 42.2282 100.736 42.2915C100.596 43.4013 100.816 43.8924 101.737 44.5201C101.732 44.5505 101.724 44.5783 101.719 44.6087C101.412 46.2943 102.038 47.5472 103.528 48.2293C104.548 48.6976 105.879 50.7503 105.614 51.7703C105.565 51.9626 105.556 52.1487 105.547 52.3271C105.54 52.4967 105.533 52.6574 105.487 52.7941C105.4 53.0662 105.413 53.3357 105.524 53.5534C105.627 53.7559 105.804 53.8976 106.037 53.9672C106.153 54.0027 106.268 54.0128 106.379 54.0001C106.719 53.9609 106.987 53.7078 107.112 53.3066C107.225 52.9485 107.301 52.6486 107.348 52.3613C107.371 52.2145 107.396 52.069 107.421 51.9222C107.528 51.2805 107.638 50.6161 107.697 49.9517C107.727 49.6214 107.778 49.2962 107.831 48.9494C107.97 48.0623 108.113 47.1435 107.864 46.1703ZM58.8944 54.0546C58.329 53.0383 57.8434 52.0082 57.369 51.0046C57.0641 50.3605 56.7507 49.6936 56.4225 49.0481C56.0734 48.361 56.0807 47.8358 56.4507 47.1093C58.3155 43.4469 60.9362 40.5754 64.4665 38.3329C68.373 35.8487 72.2684 34.0883 76.3802 32.9506C77.3365 32.6861 78.3162 32.495 79.2922 32.3836C81.7568 32.1014 84.3333 32.3115 86.9479 33.0063C87.1986 33.0734 87.2748 33.124 87.3314 33.2619C87.6239 33.9617 87.9374 34.6654 88.241 35.345C88.7942 36.5802 89.3608 37.8533 89.8415 39.1947C87.442 38.7973 84.9983 38.7353 82.5657 39.0138C79.2357 39.3947 75.7914 40.4299 72.3287 42.0915C66.2784 44.9934 61.8778 48.9114 58.8944 54.0546ZM88.509 40.8931C85.1704 47.9712 77.0194 53.542 68.4898 54.5178C65.9084 54.8126 63.3959 54.6747 61.0136 54.1115C64.9263 47.3915 73.982 41.846 82.7783 40.8399C84.7807 40.6096 86.7057 40.6273 88.509 40.8931ZM90.4192 41.1196C90.5188 41.1322 90.5938 41.2019 90.6564 41.4385C90.8089 42.0169 90.9859 42.6471 91.2145 43.4228C91.2317 43.4823 91.2157 43.5443 91.169 43.6836C91.1543 43.7291 91.1395 43.7734 91.126 43.819C90.2324 46.9119 88.4992 49.3962 85.8219 51.4147L85.4642 51.683C82.884 53.6319 80.2154 55.6466 77.1497 56.7754C74.4245 57.779 71.4805 58.756 68.4087 59.1066C68.0423 59.1483 67.6736 59.1812 67.3134 59.2053C65.3712 59.328 63.3627 58.9041 61.3418 57.9461C60.9657 57.7676 60.7395 57.3437 60.501 56.8944C60.3634 56.635 60.222 56.368 60.0401 56.1262C59.9184 55.9643 59.8877 55.8643 59.9516 55.7491C62.6891 56.4641 65.5925 56.654 68.5857 56.311C77.972 55.2416 86.7155 49.1468 90.4192 41.1196ZM89.6854 31.3446C89.4063 31.6294 89.1285 31.9154 88.8495 32.2014C88.6024 31.5952 88.0075 31.4459 87.5748 31.337C87.5096 31.3206 87.4445 31.3029 87.3818 31.2864C84.691 30.5423 81.9068 30.3284 79.1079 30.6486C77.1374 30.8739 75.092 31.3712 73.0306 32.128C69.3748 33.4695 65.89 35.2488 62.6706 37.4166C59.0223 39.8756 56.2196 43.2862 54.3377 47.5548C54.1213 48.0471 54.2099 48.4394 54.3586 48.7684C53.9874 48.8026 53.6174 48.8368 53.2461 48.871C49.111 49.2531 44.8419 49.6505 40.5912 49.4961C41.8524 47.8775 43.1652 46.3386 44.4399 44.8466L44.7177 44.5213C47.0545 41.7853 49.4712 38.9543 51.6604 36.0018C54.3684 32.352 57.5816 29.0679 60.6903 25.8902C61.1968 25.3726 61.7032 24.855 62.2072 24.3362C63.166 23.349 64.126 22.8909 65.6368 22.6985C65.9797 22.6555 66.3227 22.6138 66.6656 22.5745C72.8376 21.8684 78.9603 21.8178 86.2534 21.9595C88.9761 22.0126 91.7431 21.9557 94.4179 21.9C95.6459 21.876 96.9144 21.8481 98.1633 21.8342C98.1806 21.8329 98.199 21.8342 98.2162 21.8329C95.6434 25.2385 92.7449 28.2099 89.6854 31.3446ZM106.184 48.328C105.501 47.4611 104.783 46.8031 103.794 46.4044C103.676 46.3563 103.562 46.2096 103.48 45.9995C103.331 45.6223 103.32 45.1288 103.455 44.8276C103.569 44.5707 103.799 44.4112 104.103 44.3771C104.278 44.3568 104.469 44.3809 104.659 44.4467C105.336 44.6846 105.726 45.0554 105.921 45.6464C106.253 46.6563 106.34 47.5092 106.184 48.328Z" fill="#2B2C54"/>
</svg>
