<svg width="182" height="94" viewBox="0 0 182 94" fill="none" xmlns="http://www.w3.org/2000/svg">
<path d="M178.45 55.581C178.62 55.871 177.95 56.1909 178.48 56.4809C178.52 56.5009 178.54 56.701 178.51 56.721C178.05 57.001 178.03 57.241 178.39 57.681C178.73 58.101 178.59 58.461 178.14 58.681C177.5 58.981 176.89 59.291 176.4 59.821C176.19 60.041 175.79 60.151 175.47 60.191C174.02 60.361 172.57 60.511 171.12 60.631C170.19 60.711 169.25 60.741 168.32 60.801C167.1 60.881 166.27 61.541 165.68 62.571C165.24 63.331 164.76 64.061 164.34 64.821C164.09 65.281 163.88 65.771 163.73 66.271C163.6 66.711 163.6 67.201 163.5 67.651C163.2 68.951 163.25 70.0809 164.7 70.7009C164.81 70.7509 164.84 70.9909 164.91 71.1409C164.45 72.1009 163.44 71.701 162.71 72.101C162.45 73.131 162.83 74.1609 162.81 75.2009C162.81 75.4009 162.97 75.641 163.12 75.811C164.05 76.821 164.3 78.061 164.35 79.371C164.4 80.551 164.57 81.6909 165.02 82.7909C165.53 84.0509 165.4 85.3009 164.77 86.5109C164.55 86.9309 164.24 87.101 163.78 87.091C162.09 87.041 160.41 87.001 158.72 86.961C158.2 86.951 157.64 86.901 157.24 87.321C156.91 87.661 156.52 87.651 156.11 87.631C152.37 87.471 148.64 87.311 144.9 87.161C141.57 87.031 138.24 86.911 134.91 86.781C131.64 86.661 128.37 86.541 125.09 86.401C123.98 86.351 122.87 86.231 121.77 86.191C116.45 86.031 111.13 85.841 105.8 85.751C103 85.701 100.19 85.9209 97.38 85.8909C94.8 85.8609 92.24 86.1409 89.67 86.2009C84.41 86.3109 79.14 86.3609 73.88 86.5109C68.97 86.6509 64.07 86.911 59.16 87.061C55.77 87.161 52.38 87.2309 48.99 87.2009C44.25 87.1609 39.52 87.001 34.78 86.901C32.15 86.841 29.52 86.8009 26.89 86.7309C26.31 86.7209 25.72 86.651 25.14 86.601C24.34 86.521 23.71 86.1009 23.18 85.5409C23.03 85.3809 22.83 85.1409 22.84 84.9509C22.89 84.2009 22.58 83.641 22.23 83.001C21.95 82.501 21.99 81.811 22.46 81.241C22.94 80.661 23.37 80.0309 23.77 79.3909C23.89 79.2009 23.8 78.871 23.81 78.591C24.68 78.111 24.68 78.111 25.65 76.781C25.52 76.741 25.36 76.681 25.21 76.621C25.05 76.561 24.9 76.4909 24.65 76.3909C25.53 75.5309 26.46 75.0809 27.68 75.1109C29.37 75.1509 31.07 75.0809 32.77 75.0409C33.03 75.0309 33.28 74.931 33.53 74.781C31.24 74.371 28.93 74.5509 26.66 74.4209C26.45 73.9809 26.71 73.831 27 73.781C28.41 73.521 29.8 73.1509 31.18 73.2309C31.47 72.6609 31.21 72.431 30.84 72.351C30.39 72.241 29.92 72.181 29.45 72.161C27.82 72.091 26.2 71.911 24.56 72.071C23.34 72.191 22.11 72.261 20.88 72.311C20.48 72.331 20.08 72.2309 19.69 72.1709C19.46 72.1309 19.22 71.941 19.03 71.991C17.98 72.291 17.26 71.641 16.44 71.211C15.61 70.771 15.22 70.031 15.35 69.191C15.61 67.481 14.69 66.161 14.05 64.741C13.89 64.381 13.56 64.091 13.26 63.811C12.92 63.491 12.53 63.2209 12.18 62.9209C10.86 61.7609 9.33 61.1309 7.56 61.0409C7.16 61.0209 6.74002 60.971 6.36002 60.841C4.88002 60.331 4.04 59.2209 4.22 57.6709C4.31 56.8709 4.17002 56.171 3.96002 55.381C4.83002 54.171 4.77002 52.661 5.08002 51.251C5.14002 50.981 4.71002 50.661 5.11002 50.341C5.67002 49.881 5.39001 49.411 5.04001 48.911C5.37001 48.301 6.02002 47.701 5.36002 46.911C5.31002 46.851 5.34001 46.681 5.39001 46.591C5.77001 45.911 5.42 45.331 5.12 44.781C4.84 44.271 4.44002 43.831 4.49002 43.101C4.87002 42.901 5.29001 42.7209 5.67001 42.4809C6.12001 42.2009 6.17999 41.821 5.92999 41.281C5.66999 40.711 5.44001 38.7409 5.67001 38.2909C6.09001 37.5009 6.11 36.681 6.12 35.811C6.13 35.111 6.57 34.4209 6.13 33.6709C5.92 33.6409 5.69002 33.611 5.46002 33.581C5.46002 33.491 5.43001 33.401 5.45001 33.321C5.67001 32.401 6.58 31.921 6.94 30.961C6.75 30.631 6.52002 30.241 6.33002 29.911C6.46002 29.711 6.72 29.4909 6.72 29.2609C6.72 28.3909 6.63 27.5109 6.59 26.6409C6.56 26.0809 6.73 25.701 7.25 25.341C8.42 24.531 8.60001 22.791 7.79001 21.631C7.52001 21.241 7.24999 20.911 6.67999 20.741C7.23999 20.391 7.99 20.2709 7.87 19.4209C7.86 19.3209 7.92002 19.1809 7.99002 19.1109C8.23002 18.8709 8.70002 18.6709 8.71002 18.4209C8.76002 17.7409 8.72 17.031 8.53 16.381C8.27 15.481 8.33999 14.7809 9.17999 14.2609C10.22 13.6209 10.38 12.431 10.77 11.441C10.99 10.881 10.68 10.111 10.61 9.38097C10.89 9.09097 11.19 8.72097 11.55 8.44097C11.86 8.20097 12.23 7.99096 12.61 7.87096C14.69 7.21096 16.83 6.92096 19.01 6.87096C21.94 6.80096 24.86 6.75096 27.79 6.65096C31.12 6.53096 34.44 6.35095 37.77 6.24095C39.23 6.19095 40.69 6.28094 42.16 6.29094C46.14 6.33094 50.12 6.35095 54.1 6.42095C55.14 6.44095 56.18 6.64095 57.22 6.67095C58.26 6.70095 59.31 6.61096 60.36 6.56096C60.89 6.54096 61.41 6.46095 61.94 6.49095C63.76 6.59095 65.56 6.48094 67.37 6.29094C68 6.22094 68.65 6.29096 69.29 6.28096C69.78 6.27096 70.21 6.34096 70.55 6.75096C70.83 7.09096 71.23 7.14095 71.66 7.14095C73.47 7.15095 75.28 7.19096 77.09 7.22096C77.38 7.22096 77.68 7.28096 77.97 7.25096C79.18 7.11096 80.27 7.30097 81.26 8.10097C81.87 8.59097 82.7 8.53096 83.46 8.56096C83.8 8.57096 84.1 8.49095 84.28 8.96095C84.35 9.13095 84.91 9.22096 85.22 9.18096C87.57 8.89096 89.88 9.28097 92.17 9.69097C92.83 9.81097 93.59 9.65095 94.22 10.241C93.57 10.451 92.98 10.641 92.41 10.821C92.24 11.891 93.47 11.3309 93.65 11.9509C93.57 12.0409 93.5 12.171 93.42 12.181C91.96 12.291 90.53 12.531 89.14 13.021C88.6 13.211 87.99 13.2209 87.41 13.2609C86.67 13.3109 86.01 13.501 85.64 14.191C85.23 14.941 85.33 15.6609 86 16.3909C87.4 16.4809 88.91 16.631 90.42 16.661C94.04 16.731 97.67 16.7709 101.29 16.7609C105.56 16.7509 109.83 16.6709 114.1 16.6409C115.21 16.6309 116.32 16.691 117.44 16.721C122.18 16.871 126.91 17.001 131.65 17.181C134.75 17.301 137.84 17.5109 140.94 17.6409C143.8 17.7609 146.67 17.8409 149.53 17.9209C150 17.9309 150.42 17.991 150.87 18.191C151.33 18.391 151.89 18.4109 152.41 18.4509C154.62 18.6309 156.84 18.801 159.06 18.961C160.75 19.081 162.38 19.431 163.95 20.091C164.16 20.181 164.39 20.261 164.62 20.281C165.44 20.361 166.18 20.5409 166.8 21.1709C167.02 21.3909 167.47 21.361 167.77 21.521C168.17 21.731 168.52 22.031 168.97 22.351C168.41 23.461 168.28 24.5309 168.83 25.5409C168.52 26.0009 168.21 26.361 168.02 26.771C167.77 27.301 167.62 27.871 168.01 28.441C168.17 28.671 168.31 28.961 168.33 29.241C168.38 29.851 168.75 30.1609 169.22 30.4509C169.36 30.5309 169.44 30.701 169.6 30.901C169.4 31.301 169.17 31.701 169 32.121C168.78 32.681 168.9 33.1609 169.41 33.5109C169.84 33.8009 170.32 34.0209 170.79 34.2609C171.83 34.7809 172.14 35.941 171.47 36.901C171.2 37.281 170.85 37.621 170.65 38.031C170.4 38.551 170.26 39.1209 170.09 39.6409C170.87 40.4909 171.86 40.181 172.71 40.221C172.95 40.631 172.75 40.811 172.46 40.941C172.06 41.131 171.76 41.371 171.85 41.871C171.92 41.951 171.98 42.071 172.07 42.121C172.35 42.261 172.81 42.161 172.8 42.681C172.79 43.011 172.63 43.231 172.32 43.331C171.98 43.441 171.61 43.551 171.63 43.991C171.65 44.361 171.87 44.641 172.25 44.751C173.94 45.251 174.29 46.6609 174.54 48.1409C174.6 48.4809 174.56 48.841 174.55 49.191C174.55 49.831 174.54 50.461 174.53 50.771C175.2 51.491 175.67 52.0109 176.16 52.5109C177.14 53.5109 178.29 53.891 179.67 53.441C180.06 53.311 180.46 53.2309 180.86 53.1409C180.95 53.1209 181.05 53.191 181.23 53.241C180.63 53.571 180.07 53.851 179.55 54.191C179.16 54.451 178.82 54.771 178.49 55.101C178.42 55.171 178.51 55.401 178.53 55.561L178.45 55.581ZM37.78 74.881C37.77 74.831 37.77 74.7809 37.76 74.7309C37.14 74.7609 36.52 74.791 35.91 74.821C35.91 74.871 35.91 74.921 35.91 74.971C36.54 74.941 37.16 74.911 37.78 74.881ZM34.55 74.741L34.68 74.6709L34.55 74.621V74.741ZM39.25 74.7609C39.21 74.7509 39.17 74.7309 39.12 74.7309C39.11 74.7309 39.1 74.791 39.09 74.821C39.13 74.831 39.17 74.851 39.21 74.841C39.23 74.841 39.24 74.7909 39.25 74.7609ZM34.22 0.000963646C34.11 0.000963646 34 0.0309514 33.9 0.0509514C33.94 0.110951 34 0.230944 34.03 0.230944C34.13 0.220944 34.23 0.150949 34.32 0.110949C34.29 0.060949 34.25 -0.00903635 34.22 0.000963646ZM65.24 92.6409C65.22 92.6309 65.1 92.7809 65.1 92.8609C65.1 92.9509 65.2 93.1109 65.23 93.1109C65.36 93.0809 65.48 93.0009 65.7 92.8909C65.49 92.7709 65.37 92.6909 65.24 92.6409ZM178.45 55.581C178.7 55.601 178.95 55.611 179.19 55.631C179.19 55.591 179.19 55.551 179.19 55.501C178.95 55.531 178.7 55.551 178.45 55.581C178.45 55.581 178.46 55.571 178.45 55.581ZM0.27002 57.3909C0.29002 57.3909 0.349996 57.281 0.339996 57.271C0.289996 57.211 0.210004 57.121 0.160004 57.131C0.100004 57.131 0.05 57.241 0 57.301C0.09 57.341 0.17002 57.3709 0.27002 57.3909Z" fill="white"/>
<path d="M33.8571 17.7298C34.0221 17.1524 33.525 15.3217 34.2435 15.1999C34.2999 15.1537 34.3751 15.1117 34.4774 15.0802C47.5922 11.3368 61.2334 9.79783 74.6469 7.58074C75.8207 7.34559 76.9444 7.24902 78.0995 7.01597C79.0206 6.85431 79.4216 7.96075 78.8702 8.48143C79.6931 14.9458 79.2837 21.5299 79.4341 28.0384C79.5929 32.3844 79.5365 36.7388 79.3986 41.0827C79.6681 41.1184 79.902 41.1709 79.7955 41.5278C84.2527 44.8471 88.4029 48.6326 92.6576 52.2038C94.2429 53.9779 98.0986 55.5127 98.1236 58.0825C98.1696 58.5864 98.1654 59.2834 97.6077 59.4073C97.5847 59.6277 97.4552 59.8314 97.1816 59.9342C83.4507 65.0361 69.3019 69.2876 55.1595 72.9995C48.3024 68.811 42.8258 62.5817 37.036 57.0705C36.2214 55.9368 34.893 54.8303 34.1516 53.5811C33.8863 53.4992 33.6733 53.2641 33.6419 52.9723C32.4764 41.2696 33.1135 29.4409 33.8571 17.7298Z" fill="#D4CAFB"/>
<path d="M35.0476 52.9382C34.9787 53.2531 34.8032 53.4967 34.4356 53.608C34.3375 53.6185 34.2414 53.608 34.1516 53.5807C33.8863 53.4988 33.6733 53.2636 33.6419 52.9718C32.4764 41.2691 33.1135 29.4404 33.8571 17.7293C34.0221 17.152 33.525 15.3212 34.2435 15.1994C34.3249 15.1847 34.4231 15.1931 34.5401 15.2288C34.5421 15.2267 34.5421 15.2267 34.5421 15.2267C34.6696 15.5941 34.7761 15.9657 34.8659 16.3437C35.787 20.2194 34.8179 24.5528 34.8596 28.5229C34.7865 33.1041 34.586 37.6831 34.6111 42.2643C34.6278 44.9076 34.5046 47.5572 34.8179 50.1857C34.7155 50.9101 35.2231 52.1488 35.0476 52.9382Z" fill="#2B2C54"/>
<path d="M79.3982 41.0821C79.394 41.2354 79.3878 41.3866 79.3836 41.5398C79.3752 41.8233 79.1726 42.0605 78.9053 42.1109C78.8656 42.1193 78.8259 42.1235 78.7862 42.1235C77.6959 42.4636 78.4667 37.0699 78.2494 36.1546C78.1972 30.7861 77.9132 25.4953 77.8505 20.1416C77.6375 16.3771 77.6521 12.5602 77.8777 8.79788C77.8965 8.48295 77.9173 8.16803 77.9382 7.8552C78.1513 7.28623 79.1392 7.57806 78.8322 8.19112C78.8447 8.2877 78.8572 8.38427 78.8698 8.48085C79.6927 14.9453 79.2833 21.5293 79.4337 28.0378C79.5925 32.3838 79.5361 36.7382 79.3982 41.0821Z" fill="#2B2C54"/>
<path d="M97.6081 59.4079C97.5852 59.6283 97.4557 59.832 97.1821 59.9349C83.4511 65.0367 69.3024 69.2882 55.1599 73.0002C48.3028 68.8116 42.8263 62.5824 37.0365 57.0711C36.2219 55.9374 34.8935 54.8309 34.152 53.5817C33.9327 53.2143 33.7656 52.8343 33.6758 52.4396C33.7969 51.9546 34.6637 52.1016 34.6533 52.5803L35.048 52.9393C41.8571 59.1685 47.7765 66.4665 55.3333 71.8412C68.3207 68.1566 81.2454 64.1507 93.9655 59.6241C94.8678 59.2903 95.7847 58.9901 96.6808 58.6353C96.7017 58.6269 96.7226 58.6206 96.7434 58.6143C97.2677 58.4526 97.6583 58.9607 97.6081 59.4079Z" fill="#2B2C54"/>
<path d="M97.6075 59.4069C97.5532 59.4216 97.4926 59.4279 97.4258 59.4279C96.9015 59.3901 96.7699 59.0353 96.7428 58.6133C96.7156 58.2522 96.7678 57.8428 96.7114 57.5405C95.9762 56.4613 81.7419 45.7013 78.9055 42.1111C78.2935 41.3385 78.2099 40.8976 78.9013 40.9564C78.9013 40.9564 78.8992 40.9543 78.8992 40.9522C79.0162 41.0467 79.2146 41.0593 79.3984 41.0824C79.6678 41.1181 79.9018 41.1706 79.7952 41.5275C84.2525 44.8468 88.4027 48.6322 92.6573 52.2035C94.2426 53.9776 98.0983 55.5123 98.1234 58.0821C98.1693 58.586 98.1652 59.2831 97.6075 59.4069Z" fill="#2B2C54"/>
<path d="M78.8702 8.48143C78.7637 8.58221 78.6238 8.65989 78.4462 8.70398C78.2541 8.73547 78.0661 8.76907 77.8781 8.79846C76.8609 8.96852 75.8897 9.11759 74.8767 9.26455C61.482 10.9484 48.1458 13.1109 34.9203 15.8843C34.9871 16.067 34.9495 16.2307 34.866 16.3441C34.6968 16.5709 34.3396 16.5982 34.2352 16.1762C34.1976 15.8108 33.972 15.4287 34.2435 15.1999C34.2999 15.1537 34.3751 15.1117 34.4775 15.0802C47.5923 11.3368 61.2334 9.79783 74.6469 7.58074C75.8208 7.34559 76.9445 7.24902 78.0995 7.01597C79.0206 6.85431 79.4217 7.96075 78.8702 8.48143Z" fill="#2B2C54"/>
<path d="M36.7282 18.4037C36.4045 18.2399 36.394 17.7235 36.7846 17.6416C40.2205 17.0915 43.6501 16.3966 47.1131 15.9284C53.0116 14.992 58.8453 13.6651 64.7437 12.7539C67.2438 12.5356 69.7565 12.3697 72.1961 11.7398C73.0295 11.6559 75.4461 10.6313 75.774 11.6118C75.8408 11.9393 75.6006 12.2353 75.279 12.271C73.5099 12.3676 71.8347 13.0142 70.0865 13.2641C59.0186 14.2908 48.2118 17.2595 37.171 18.4331C37.0332 18.5192 36.8577 18.5024 36.7282 18.4037Z" fill="#2B2C54"/>
<path d="M37.8832 47.918C37.7036 47.8865 37.5991 47.6954 37.6493 47.5232C37.549 47.0697 38.138 47.0131 38.4513 46.9291C40.9222 46.3139 43.4161 45.8205 45.9016 45.2705C54.0454 43.5488 62.2142 41.928 70.2911 39.9167C71.9788 39.5304 73.7082 39.3246 75.3645 38.825C75.657 38.7767 75.9473 38.9488 76.0079 39.2511C76.1186 39.9461 75.2894 39.9335 74.8298 40.1035C62.6466 42.6671 50.5573 45.7848 38.2487 47.708C38.1714 47.8361 38.044 47.9515 37.8832 47.918Z" fill="#2B2C54"/>
<path d="M75.2003 39.3426C74.2521 39.7268 74.91 32.2127 74.8056 31.2889C75.0959 24.6985 75.1627 18.0703 75.0165 11.482C76.9444 9.46022 75.8374 23.8293 76.1235 25.0281C76.063 29.1705 75.5888 33.3212 75.7413 37.4677C75.6724 38.0472 76.063 39.309 75.2003 39.3426Z" fill="#2B2C54"/>
<path d="M37.0571 47.1736C35.76 37.583 36.2509 27.9442 36.7166 18.3158C36.6122 16.8923 37.9552 17.3353 37.4999 18.0009C37.6628 20.4972 37.8383 23.0019 37.6732 25.5045C37.0738 32.0655 37.4581 38.6769 37.9114 45.2358C37.7881 45.9706 38.5923 47.2345 37.6983 47.5977C37.4163 47.6565 37.1072 47.4675 37.0571 47.1736Z" fill="#2B2C54"/>
<path d="M37.8158 52.0491C34.3632 51.2576 47.5971 48.608 48.2425 48.1629C57.2719 45.6938 66.1864 42.9372 75.3745 41.1148C76.0971 40.9783 76.3519 42.0701 75.6063 42.2422C73.8894 42.6243 72.1537 42.9204 70.4368 43.2983C59.5256 46.0613 48.6957 49.263 37.8158 52.0491Z" fill="#2B2C54"/>
<path d="M43.1291 54.9008C42.3583 54.8336 42.5066 53.9728 43.2084 53.872C50.2118 51.4072 57.4616 49.7465 64.5819 47.6785C68.4146 46.8219 72.191 45.5265 75.9965 44.5943C76.8132 44.2164 77.3813 45.537 76.5083 45.8372C65.4529 49.0641 54.1385 51.5605 43.1291 54.9008Z" fill="#2B2C54"/>
<path d="M46.3789 57.4165C46.2118 57.301 46.1513 57.0722 46.2661 56.8979C46.2661 56.8979 46.2661 56.8979 46.264 56.8979C52.6512 54.2315 59.5292 52.7493 66.1942 50.8618C68.0531 50.633 77.659 46.5557 78.1999 48.0044C78.5195 49.3229 75.2883 49.325 74.4675 49.7659C71.5266 50.5658 68.6484 51.5862 65.6762 52.2748C62.6017 53.0453 59.5731 54.0363 56.4923 54.7795C53.163 55.6697 49.796 57.1625 46.3789 57.4165Z" fill="#2B2C54"/>
<path d="M49.703 61.1882C48.5375 60.1678 50.693 60.0629 51.3426 59.8319C54.9748 58.5806 58.7052 57.6526 62.3332 56.3992C68.3883 54.6923 74.4663 53.0295 80.5924 51.6501C81.3757 51.6123 82.7187 50.7557 83.0759 51.8244C83.1531 52.1981 82.9067 52.5445 82.5474 52.6327C78.391 53.5061 74.1697 54.5264 70.0634 55.5636C63.2313 57.134 56.5538 60.0839 49.703 61.1882Z" fill="#2B2C54"/>
<path d="M63.1166 60.5246C60.4034 59.836 67.9101 58.2067 68.4448 57.9254C71.3898 57.1402 74.2263 55.8973 77.2632 55.5299C77.9065 55.4102 78.1154 56.3676 77.4658 56.5208C72.6848 57.3123 68.167 59.1767 63.4884 60.4007C63.3965 60.4994 63.2523 60.5498 63.1166 60.5246Z" fill="#2B2C54"/>
<path d="M68.7966 65.7359C67.3366 64.8016 78.0516 62.0534 78.9873 61.6523C79.9982 61.3605 81.0008 60.7831 82.0284 60.6719C82.4399 60.7894 82.4984 61.4235 82.0994 61.5999C79.5659 62.5992 76.9258 63.2753 74.3358 64.1067C72.5103 64.5833 70.6785 65.7422 68.7966 65.7359Z" fill="#2B2C54"/>
<path d="M69.3108 65.8929C68.9265 65.3093 60.9122 59.8358 63.6108 60.0563C64.1622 60.4888 72.8344 66.1134 69.3108 65.8929Z" fill="#2B2C54"/>
<path d="M81.8033 60.9426C81.6382 60.4681 82.0622 60.1427 82.4904 60.0839C81.0179 58.7801 79.3282 57.7471 77.8118 56.4916C77.4045 56.6008 76.897 55.9667 77.1497 55.5888C77.9872 54.7616 81.8158 57.8563 82.7661 58.4442C83.4846 59.0425 84.9049 60.508 83.4094 61.0727C82.9019 61.2302 82.0748 61.6396 81.8033 60.9426Z" fill="#2B2C54"/>
<path d="M37.2592 54.381C36.9062 54.1249 36.0686 53.5979 36.666 53.1696C37.067 53.01 37.3866 53.4845 37.7375 53.6294C38.2221 53.9527 37.7458 54.6938 37.2592 54.381Z" fill="#2B2C54"/>
<path d="M40.1027 57.0481C39.7915 56.687 39.2213 56.3826 39.1816 55.8745C39.2339 55.5407 39.8124 55.4231 39.8709 55.8136C40.226 56.0886 41.0886 56.4414 40.7043 56.9956C40.556 57.172 40.274 57.2035 40.1027 57.0481Z" fill="#2B2C54"/>
<path d="M85.5567 34.2559C84.3551 32.034 86.4949 29.9436 88.757 30.7604C89.1581 28.5056 91.7644 27.9796 93.3809 29.3345C94.4793 30.5821 94.796 32.9321 93.4309 34.1019C95.9271 35.5537 93.9542 39.7016 91.4202 39.6272C90.4045 39.5701 89.3406 39.1357 88.8517 38.1874C85.4964 41.6552 81.3372 36.9208 85.5567 34.2559Z" fill="#D4CAFB"/>
<path d="M99.8387 28.6974C98.1585 29.2442 96.7227 27.3996 97.0068 25.818C97.2702 24.4959 99.2981 23.3555 100.562 23.333C100.72 18.6245 107.098 19.6074 106.105 23.7293C111.02 24.6222 107.902 30.151 104.695 29.1768C104.368 30.7532 103.297 32.7709 101.397 32.0649C99.8524 31.7188 99.1397 30.1008 99.8387 28.6974Z" fill="#D4CAFB"/>
<path d="M112.415 52.0428C111.668 53.6763 109.85 55.303 108.97 56.4606C108.642 56.8586 108.154 57.7273 108.091 57.9038C107.972 58.1963 107.875 58.4991 107.822 58.8123C107.82 58.8192 107.819 58.8261 107.819 58.8331V58.84C107.807 59.2034 107.789 59.2207 107.86 59.4837C107.865 59.5079 107.886 59.5633 107.891 59.5841C107.891 59.5858 107.891 59.5858 107.891 59.5858C107.927 59.6585 107.968 59.7277 108.013 59.7935C108.015 59.7969 108.018 59.8038 108.025 59.8125C108.027 59.816 108.03 59.8194 108.032 59.8229L108.034 59.8246C108.036 59.8281 108.039 59.8298 108.041 59.8333C108.046 59.8402 108.049 59.8454 108.055 59.8506C108.092 59.8973 108.263 60.0582 108.313 60.1084C108.492 60.2416 108.686 60.3541 108.888 60.451C108.889 60.451 108.891 60.4527 108.893 60.4527C108.895 60.4545 108.896 60.4545 108.898 60.4545C108.901 60.4562 108.907 60.4579 108.912 60.4614C108.939 60.4718 108.979 60.4891 109.007 60.4977C109.122 60.5272 109.273 60.6068 109.397 60.6085C109.387 60.6085 109.378 60.6085 109.371 60.6102C109.427 60.6102 109.687 60.6033 109.73 60.605H109.731C109.781 60.5929 109.833 60.5843 109.883 60.5687C109.915 60.56 110.084 60.4649 109.967 60.5427C109.948 60.5566 109.938 60.5635 109.933 60.567C109.948 60.5583 110.024 60.5064 110.072 60.4752C110.074 60.4735 110.074 60.4735 110.076 60.4718C110.108 60.4389 110.155 60.3974 110.191 60.3576C110.193 60.3541 110.196 60.3507 110.198 60.3455C110.224 60.2987 110.251 60.252 110.279 60.207V60.2053C110.284 60.1863 110.289 60.1638 110.294 60.1395C110.296 60.1395 110.296 60.1395 110.296 60.1361C110.296 60.1361 110.294 60.1344 110.296 60.1326C110.299 60.1222 110.301 60.1118 110.303 60.1032C110.303 60.1032 110.301 60.1015 110.303 60.0998C110.305 60.0928 110.306 60.0824 110.31 60.0721C110.313 60.0617 110.313 60.0513 110.313 60.0409C110.313 60.0392 110.311 60.0392 110.311 60.0374C110.294 59.9959 110.294 59.9873 110.299 59.9959C110.299 59.9907 110.298 59.9855 110.296 59.9803C110.303 59.9942 110.311 60.0115 110.32 60.034C110.322 60.0323 110.322 60.0323 110.322 60.0323H110.323C109.826 57.9159 112.876 58.5423 111.818 60.9667C111.096 62.6227 108.884 62.6383 107.578 61.6969C106.884 61.2124 106.462 60.6708 106.252 60.098C105.758 61.5118 104.871 62.8373 103.317 64.0625C103.215 64.1472 103.112 64.2476 103.005 64.348C103.126 64.431 103.229 64.5574 103.305 64.7304C103.684 65.895 104.703 67.5614 102.83 67.8694C98.9856 69.0721 94.8436 68.9181 90.8652 69.143C89.8805 69.0911 86.997 69.0635 86.5786 68.0494C86.5924 67.5424 86.8024 67.0233 87.071 66.5422C86.9591 66.5197 86.8524 66.4557 86.7869 66.3622C86.6905 66.3467 86.5872 66.3103 86.4805 66.2515C78.3928 62.2143 83.6589 54.2335 78.9368 49.0976C78.9265 49.0751 78.9162 49.0543 78.9076 49.0353H78.9058C77.9986 49.0335 78.1088 47.7028 78.5547 47.1179C80.4483 44.6019 90.0578 42.3436 93.3476 42.3488C96.9628 42.0841 106.231 41.3798 108.068 45.121C108.147 45.4048 108.177 45.6955 108.161 45.9828C108.521 46.1575 108.175 46.6075 107.937 46.9743C107.87 47.1352 107.791 47.291 107.702 47.4398C107.548 47.779 107.414 48.1268 107.295 48.4798C108.306 47.4883 109.783 46.938 111.164 47.2685C113.372 47.7288 113.314 50.4317 112.415 52.0428Z" fill="#D4CAFB"/>
<path d="M87.4712 65.8937C87.4471 66.0563 87.3576 66.193 87.225 66.2778C87.108 66.354 86.9565 66.3886 86.7878 66.3609C86.6913 66.3453 86.5881 66.309 86.4813 66.2501C78.3936 62.213 83.6598 54.2322 78.9377 49.0962C78.9273 49.0737 78.917 49.053 78.9084 49.0339H78.9067C78.3627 47.859 80.2443 48.9803 80.5765 49.3333C81.0104 49.7884 81.3547 50.2781 81.6284 50.7955C83.1829 53.7217 82.5339 57.52 83.281 60.6781C83.8509 62.3739 84.8975 63.9729 86.5192 64.8017C87.1079 65.0319 87.3868 65.3555 87.4591 65.6497C87.4798 65.7345 87.4832 65.8158 87.4712 65.8937Z" fill="#2B2C54"/>
<path d="M107.936 46.9738C107.854 47.0984 107.787 47.2126 107.761 47.3026C107.74 47.3475 107.719 47.3925 107.7 47.4393C107.547 47.7784 107.413 48.1263 107.294 48.4793V48.481C107.029 49.2718 106.848 50.092 106.757 50.9209C106.745 51.0144 106.736 51.1061 106.728 51.1995C106.723 53.1134 106.885 54.9442 106.823 56.6747C106.779 57.8635 106.631 59.0073 106.251 60.0975C105.757 61.5113 104.87 62.8368 103.316 64.0619C103.214 64.1467 103.111 64.2471 103.004 64.3474C102.827 64.517 102.643 64.6814 102.446 64.7524C102.257 64.8216 102.056 64.806 101.837 64.6226C101.82 64.6087 101.804 64.5949 101.787 64.5793C101.594 64.3596 101.56 64.1484 101.622 63.9529C101.711 63.6605 102.011 63.4061 102.29 63.2192C107.702 59.407 104.134 53.5322 105.963 48.7994C106.356 47.7819 106.998 46.818 108.031 45.939C108.081 45.9511 108.124 45.9649 108.16 45.9822C108.52 46.157 108.174 46.6069 107.936 46.9738Z" fill="#2B2C54"/>
<path d="M102.448 64.7515C102.399 65.0543 102.159 65.2585 101.825 65.4004C100.956 65.7707 99.4323 65.7292 98.8143 65.9334C96.1804 66.2432 93.5516 66.7519 90.8919 66.7086C90.0604 66.7035 89.2048 66.6585 88.3699 66.5927C88.0239 66.565 87.6796 66.5339 87.3439 66.4993C87.2612 66.546 87.1648 66.5564 87.0719 66.5408C86.96 66.5183 86.8532 66.4543 86.7878 66.3608C86.7345 66.2881 86.7086 66.1982 86.7224 66.0995C86.8102 65.8971 87.0839 65.7534 87.4592 65.6496C88.5438 65.3502 90.4701 65.39 91.1381 65.3018C94.2954 65.0734 97.4698 64.5698 100.598 64.1355C100.897 64.0922 101.281 63.9693 101.624 63.952C101.92 63.933 102.187 63.9918 102.345 64.2445C102.388 64.3102 102.423 64.3916 102.448 64.4868C102.464 64.5819 102.462 64.6702 102.448 64.7515Z" fill="#2B2C54"/>
<path d="M102.829 67.8686C98.9851 69.0713 94.8431 68.9173 90.8647 69.1422C89.88 69.0903 86.9965 69.0626 86.5781 68.0486C86.5919 67.5416 86.8019 67.0225 87.0705 66.5414C87.1187 66.4514 87.1703 66.3649 87.2237 66.2784C87.3046 66.1451 87.3872 66.0171 87.4699 65.8942C87.5267 65.8111 87.5818 65.7315 87.6351 65.6537C88.0449 65.4737 88.1671 65.9375 88.0793 66.2489C88.3427 66.2559 88.4167 66.4358 88.3685 66.5933C88.3203 66.7646 88.1309 66.9117 87.8899 66.7906C87.8038 67.0588 87.7178 67.3253 87.6386 67.597C89.6923 68.0382 91.734 67.6662 93.7723 67.5329C96.6696 67.2613 99.6461 67.3772 102.468 66.5795C102.273 66.1832 102.055 65.8008 101.832 65.4183C101.829 65.4131 101.827 65.4062 101.824 65.401C101.681 65.1016 101.712 64.83 101.838 64.6223C101.95 64.4372 102.137 64.3039 102.344 64.2451C102.564 64.1845 102.805 64.2087 103.005 64.3472C103.125 64.4302 103.229 64.5566 103.304 64.7296C103.683 65.8942 104.702 67.5606 102.829 67.8686Z" fill="#2B2C54"/>
<path d="M108.068 45.121C106.231 41.3798 96.9628 42.0841 93.3476 42.3488C90.0578 42.3436 80.4483 44.6019 78.5547 47.1179C78.1088 47.7028 77.9986 49.0335 78.9058 49.0353H78.9076C78.9695 49.0353 79.0367 49.0301 79.109 49.0162C79.8682 49.7084 80.7186 50.3037 81.6276 50.7969C83.9103 52.0411 86.57 52.6536 89.1282 52.5792C94.8746 52.5187 100.723 51.1637 105.965 48.7999C106.183 48.703 106.402 48.6027 106.619 48.5006C107.061 48.2479 107.433 47.8759 107.702 47.4398C107.791 47.291 107.87 47.1352 107.937 46.9743C108.067 46.6594 108.144 46.3219 108.161 45.9828C108.177 45.6955 108.147 45.4048 108.068 45.121ZM104.982 47.7184C104.322 48.0455 103.56 48.3102 102.828 48.4711C99.719 49.589 96.4963 50.5511 93.2099 50.9941C93.2082 50.9959 93.2082 50.9941 93.2082 50.9941C92.9138 51.0357 92.6194 51.072 92.3251 51.1014C92.2045 51.1153 92.084 51.1274 91.9618 51.1395C91.8465 51.1499 91.7294 51.1603 91.6123 51.1689C90.7413 51.2416 89.8667 51.271 88.9888 51.2554C87.4273 51.2727 85.8866 50.982 84.3889 50.5148C84.3648 50.5079 84.3407 50.4992 84.3148 50.4923C83.9206 50.3677 83.5281 50.231 83.1408 50.0839C82.0734 49.6842 81.0336 49.2118 80.0283 48.7203C79.9715 48.5352 79.7528 48.5075 79.6031 48.4244C79.622 46.8826 84.8347 45.9724 86.1672 45.474C92.0444 43.9564 98.254 43.3179 104.291 44.2194C108.122 45.1002 107.041 46.7026 104.982 47.7184Z" fill="#2B2C54"/>
<path d="M88.0239 51.9965C87.6899 51.9879 87.2406 52.0207 87.0702 51.666C86.1887 51.6746 83.4877 52.0657 84.4207 50.4599C84.1109 50.5533 83.801 50.6502 83.4911 50.7471C83.4309 51.0257 83.09 50.9825 82.911 50.8475C81.7937 50.0117 87.1356 48.4058 87.7347 48.1463C92.8958 46.7013 99.3463 46.1251 104.573 47.3278C105.31 47.6289 105.155 48.719 104.354 48.7935C103.709 48.8315 103.049 48.8108 102.459 48.8523C102.385 49.5687 100.932 49.7539 100.367 50.1034C96.504 51.4341 92.1676 52.064 88.0239 51.9965ZM85.8014 50.048C86.1715 49.9753 86.5365 49.8888 86.898 49.7867C86.9032 49.7712 86.91 49.7573 86.9169 49.7417C86.5451 49.8386 86.1732 49.9425 85.8014 50.048ZM99.1225 49.2295C98.9779 49.2538 98.835 49.2763 98.6904 49.3005C99.1431 49.2382 99.6165 49.3333 100.038 49.1326C99.7319 49.0928 99.4272 49.1949 99.1225 49.2295Z" fill="#2B2C54"/>
<path d="M98.0008 49.7179C97.0556 48.7211 98.4483 48.4322 99.2402 48.3941C99.6155 48.3837 100.092 48.0221 100.388 48.3733C100.735 49.178 99.3263 49.2334 98.8546 49.531C98.7014 49.8459 98.2693 49.9342 98.0008 49.7179Z" fill="#2B2C54"/>
<path d="M93.4309 34.1019C94.796 32.9321 94.4793 30.5821 93.3809 29.3345C91.7644 27.9796 89.1581 28.5056 88.757 30.7604C86.4949 29.9436 84.3551 32.034 85.5567 34.2559C81.3372 36.9208 85.4964 41.6552 88.8517 38.1874C89.3406 39.1357 90.4045 39.5701 91.4202 39.6272C93.9542 39.7016 95.9271 35.5537 93.4309 34.1019ZM91.6302 38.7585C90.494 38.7758 89.3681 38.1355 89.3113 36.9087C89.0083 36.3324 88.3834 36.7719 88.5452 37.3291C86.8822 39.8244 82.9985 38.0871 85.221 35.4343C85.2244 35.4309 85.2279 35.4291 85.2296 35.4257C85.4465 35.1765 85.6548 34.9827 85.9354 34.7785C86.4983 35.244 87.1233 34.2957 86.5517 33.915C85.6428 32.8854 86.5104 31.3141 87.867 31.5235C88.423 31.4595 89.5162 32.3905 89.5316 31.3453C89.5798 29.4816 91.5389 28.9642 92.8249 30.0561C93.6306 31.077 93.8922 33.3803 92.293 33.7315C91.8609 33.908 92.0072 34.5691 92.4686 34.5431C92.9902 34.7127 93.486 35.0778 93.7167 35.5866C94.2469 36.6318 92.8043 38.8018 91.6302 38.7585Z" fill="#2B2C54"/>
<path d="M106.105 23.7303C107.098 19.6084 100.72 18.6255 100.562 23.334C99.2981 23.3565 97.2702 24.4969 97.0068 25.8189C96.7227 27.4006 98.1585 29.2452 99.8387 28.6984C99.1397 30.1018 99.8524 31.7198 101.397 32.0659C103.297 32.7719 104.368 30.7542 104.695 29.1777C107.902 30.152 111.02 24.6232 106.105 23.7303ZM104.752 28.2485C104.723 27.6446 103.893 27.5667 103.858 28.2035C104.034 29.0255 103.251 31.2698 102.271 31.2733C100.321 31.3044 100.04 29.3819 101.199 28.1447C101.534 27.7086 100.958 27.1549 100.536 27.5009C99.997 27.6688 99.3308 28.008 98.7524 27.7345C98.019 27.2708 97.5422 26.0681 98.2118 25.3621C99.0519 24.5765 100.25 23.8047 101.419 24.1992C101.808 24.1421 101.791 23.6247 101.455 23.4932C101.598 19.6464 106.186 21.1589 105.196 23.6247C104.637 23.7649 104.829 24.5557 105.387 24.4588C106.267 24.5938 107.245 24.8551 107.754 25.6528C108.29 26.9645 106.012 29.2366 104.752 28.2485Z" fill="#2B2C54"/>
<path d="M88.0855 50.5668C87.6981 49.8538 90.4973 49.5389 90.9639 49.3987C91.8625 49.3433 95.7479 48.1476 96.0165 49.1374C95.9321 49.6566 95.2091 49.3762 94.8459 49.4351C92.7852 49.6081 90.7039 49.9559 88.6983 50.4699C88.6674 50.7416 88.2249 50.7606 88.0855 50.5668Z" fill="#D4CAFB"/>
<path d="M91.5612 51.0459C91.4941 50.5545 92.7387 50.6479 93.071 50.6099C93.2001 50.6116 93.3017 50.7414 93.2931 50.866C93.1106 51.3245 92.3359 50.9871 91.9365 51.1446C91.8401 51.309 91.5664 51.238 91.5612 51.0459Z" fill="#D4CAFB"/>
<path d="M97.8754 49.2677C97.6086 49.2556 97.5845 48.8524 97.8462 48.8022C98.1974 48.8143 98.8946 48.4734 99.0116 48.9596C98.9583 49.4615 98.2232 49.1967 97.8754 49.2677Z" fill="#D4CAFB"/>
<path d="M107.819 58.8326C107.819 58.8257 107.82 58.8187 107.822 58.8118C107.875 58.4986 107.972 58.1958 108.091 57.9033C108.154 57.7268 108.641 56.8581 108.97 56.4601C109.85 55.3025 111.668 53.6759 112.415 52.0423C113.314 50.4313 113.372 47.7283 111.163 47.268C109.783 46.9375 108.306 47.4878 107.295 48.4793V48.4811C106.922 48.8462 106.612 49.2719 106.393 49.7374C106.107 50.2375 106.366 50.7133 106.758 50.921C107.126 51.12 107.614 51.0819 107.879 50.6112C107.979 50.4001 108.094 50.1994 108.23 50.0108C108.233 50.0056 108.237 50.0021 108.239 49.9986C108.24 49.9935 108.244 49.9883 108.247 49.9848C108.385 49.8014 108.576 49.6474 108.743 49.4951L108.745 49.4934C109.254 49.1213 109.482 49.0365 110.1 48.9137C110.103 48.9137 110.106 48.9119 110.11 48.9119C110.521 48.8739 110.754 48.9344 110.909 48.9933C110.798 48.9656 110.976 49.0262 111.083 49.0833C111.124 49.104 111.153 49.1265 111.155 49.1421C111.155 49.1525 111.119 49.1179 111.096 49.0988C111.1 49.104 111.105 49.1092 111.11 49.1161C111.131 49.1386 111.155 49.1629 111.177 49.1836C111.186 49.2009 111.215 49.2563 111.234 49.2874C111.236 49.2909 111.236 49.2926 111.237 49.2944C111.258 49.3549 111.305 49.4847 111.293 49.5089C111.387 50.1942 110.859 51.6114 110.058 52.5701C109.177 53.5651 107.71 55.0758 106.824 56.6747C106.187 57.8237 105.851 59.0177 106.252 60.0975C106.462 60.6703 106.884 61.212 107.578 61.6965C108.884 62.6378 111.096 62.6222 111.818 60.9662C112.876 58.5419 109.826 57.9155 110.323 60.0318H110.322C110.322 60.0318 110.322 60.0318 110.32 60.0335C110.311 60.011 110.303 59.9937 110.296 59.9799C110.298 59.9851 110.299 59.9902 110.299 59.9954C110.294 59.9868 110.294 59.9954 110.311 60.037C110.306 60.0231 110.303 60.011 110.301 60.0024V59.9972C110.304 60.0041 110.31 60.0197 110.311 60.037C110.311 60.0387 110.313 60.0387 110.313 60.0404C110.313 60.0508 110.313 60.0612 110.31 60.0716C110.306 60.082 110.304 60.0924 110.303 60.0993C110.301 60.101 110.303 60.1027 110.303 60.1027C110.301 60.1114 110.299 60.1218 110.296 60.1321C110.294 60.1339 110.296 60.1356 110.296 60.1356C110.296 60.1391 110.296 60.1391 110.294 60.1391C110.289 60.1633 110.284 60.1858 110.279 60.2048V60.2066C110.251 60.2516 110.223 60.2983 110.198 60.345C110.196 60.3502 110.192 60.3537 110.191 60.3571C110.155 60.3969 110.108 60.4384 110.075 60.4713C110.074 60.473 110.074 60.473 110.072 60.4748C110.024 60.5059 109.948 60.5578 109.933 60.5665C109.938 60.563 109.948 60.5561 109.967 60.5423C110.084 60.4644 109.915 60.5596 109.883 60.5682C109.833 60.5838 109.781 60.5924 109.731 60.6046H109.729C109.686 60.6028 109.426 60.6098 109.371 60.6098C109.378 60.608 109.387 60.608 109.397 60.608C109.273 60.6063 109.122 60.5267 109.006 60.4973C108.979 60.4886 108.939 60.4713 108.912 60.4609C108.907 60.4575 108.901 60.4557 108.898 60.454C108.896 60.454 108.894 60.454 108.893 60.4523C108.891 60.4523 108.889 60.4505 108.888 60.4505C108.686 60.3536 108.492 60.2412 108.313 60.1079C108.263 60.0577 108.092 59.8968 108.054 59.8501C108.049 59.8449 108.046 59.8397 108.041 59.8328C108.039 59.8293 108.035 59.8276 108.034 59.8241L108.032 59.8224C108.03 59.8189 108.027 59.8155 108.025 59.812C108.018 59.8034 108.015 59.7964 108.013 59.793C107.968 59.7272 107.927 59.658 107.891 59.5853C107.891 59.5853 107.891 59.5853 107.891 59.5836C107.886 59.5628 107.865 59.5075 107.86 59.4832C107.789 59.2202 107.806 59.2029 107.819 58.8395V58.8326V58.8326ZM110.325 60.037C110.327 60.0422 110.327 60.0474 110.329 60.0526C110.327 60.0491 110.325 60.0456 110.323 60.0422C110.325 60.0404 110.325 60.0387 110.325 60.037ZM110.277 60.2135C110.272 60.2325 110.267 60.2464 110.263 60.2464C110.26 60.2446 110.267 60.2308 110.277 60.2135Z" fill="#2B2C54"/>
</svg>
