<svg width="86" height="83" viewBox="0 0 86 83" fill="none" xmlns="http://www.w3.org/2000/svg">
<path d="M20.4458 14.2427C20.5237 13.0816 20.204 11.9454 19.7278 10.9375C18.8947 9.16859 18.0484 7.37146 16.4373 6.07745C15.8571 5.61021 15.2826 5.19187 14.6065 4.93811C13.3026 4.44574 11.9693 4.01532 10.6581 3.53669C10.1267 3.34228 9.60334 3.10629 9.10173 2.83602C7.75523 2.09883 6.51142 1.1553 4.98881 0.77583C4.85197 1.5106 4.83074 1.52401 5.09533 2.08082C6.21286 4.44887 6.89573 6.93136 7.19248 9.53648C7.23212 9.89961 7.29281 10.2563 7.36742 10.6134C7.91473 13.2248 8.99973 15.5015 11.2217 17.1521C11.878 17.6421 12.6481 17.7589 13.3216 18.1171C14.5383 18.7535 15.8051 18.7783 17.1114 18.6231C17.3139 18.6003 17.5156 18.6124 17.7454 18.6112C18.0939 19.1562 18.3936 19.6999 18.7644 20.1898C19.7421 21.4679 20.7766 22.7056 21.7545 23.9768C23.1169 25.7451 24.4798 27.4925 26.2837 28.8749C26.9601 29.3933 27.5678 29.8752 28.438 29.89C29.3849 32.1215 30.8511 33.9133 32.473 35.6115C35.6424 38.9155 38.7832 42.2466 41.9383 45.5642C42.3319 45.978 42.7466 46.3784 43.1546 46.7717C44.2089 47.7732 45.2704 48.7679 46.3176 49.7761C46.957 50.3841 47.575 51.0125 48.2142 51.6274C49.044 52.4143 49.9168 53.1605 50.704 53.9812C53.1202 56.4932 55.5008 59.0392 57.9099 61.5581C58.3374 62.0076 58.8073 62.4303 59.3139 62.7773C60.2585 63.4347 61.1032 64.1872 61.8828 65.0355C63.3197 66.6107 64.7708 68.1723 66.2148 69.7406C66.425 69.9688 66.62 70.2453 66.881 70.3911C67.9116 70.9532 68.62 71.8624 69.4213 72.6765C69.6795 72.9337 69.9083 73.2528 70.2175 73.4207C71.0697 73.8739 71.6502 74.6058 72.3234 75.2564C72.7313 75.6497 73.1677 76.0228 73.6333 76.3409C74.5711 76.9913 75.5236 77.6071 76.4905 78.2094C76.7511 78.3692 77.0546 78.4882 77.3521 78.5653C77.8433 78.6961 78.2978 78.3453 78.3385 77.831C78.3506 77.6293 78.3565 77.3927 78.2702 77.2234C77.7988 76.3062 77.4545 75.3156 76.7217 74.5451C75.9007 73.6818 75.0014 72.8862 74.4792 71.7727C74.3536 71.5049 74.0517 71.3232 73.8487 71.0883C73.6117 70.8177 73.3749 70.5402 73.1665 70.2424C72.2062 68.8255 71.3096 67.3683 70.051 66.1807C69.8265 65.9661 69.638 65.7107 69.4421 65.469C68.7528 64.6299 68.0636 63.7838 67.3745 62.9378C67.1447 62.6604 66.8303 62.4227 66.6781 62.1055C66.3199 61.3931 65.7625 60.8498 65.2407 60.2726C64.9289 59.9305 64.5895 59.5808 64.3626 59.1851C63.9159 58.3939 63.2692 57.7996 62.6011 57.2257C61.7284 56.4795 60.8695 55.7406 60.3389 54.6827C60.1797 54.3653 59.8794 54.1209 59.6284 53.857C54.1798 48.1279 48.7313 42.3988 43.2757 36.6765C42.9568 36.3412 42.5883 36.0395 42.2407 35.7383C41.7363 35.3008 41.1964 34.8903 40.7136 34.4255C39.15 32.9028 37.815 31.1561 35.9796 29.9192C35.8084 29.8034 35.6732 29.6399 35.5238 29.4899C34.824 28.7898 34.138 28.097 33.3023 27.5398C32.7132 27.149 32.1614 26.6615 32.1341 25.8043C32.1211 25.4905 31.8511 25.1495 31.6209 24.886C31.0725 24.2594 30.4885 23.6667 29.9044 23.074C29.2115 22.3811 28.6334 21.5518 27.6823 21.1518C26.6585 20.0467 25.2617 19.3709 24.3025 18.1838C23.9175 17.7075 23.3977 17.3323 22.9058 16.9509C22.3319 16.5116 21.7293 16.0995 21.1193 15.7082C20.5645 15.3391 20.402 14.8753 20.4458 14.2427Z" fill="#D4CAFB"/>
<path fill-rule="evenodd" clip-rule="evenodd" d="M18.8921 17.8737C19.0678 18.3656 19.1518 18.904 19.4338 19.3219C20.0042 20.1789 20.638 21.0097 21.3221 21.779C23.144 23.8304 25.0085 25.8481 26.8517 27.8861C27.2175 28.2923 27.6198 28.3581 28.1117 28.1824C29.292 27.7733 30.0523 26.894 30.7807 25.8955C30.5514 25.5972 30.3909 25.3355 30.1732 25.1281C29.1131 24.0777 28.1455 22.9531 26.9219 22.0379C25.5275 20.9861 24.3708 19.6269 23.1063 18.3973C22.1476 17.4679 21.1603 16.5726 19.6695 16.5909C19.189 16.8644 19.106 17.3985 18.8921 17.8737Z" fill="#D4CAFB"/>
<path fill-rule="evenodd" clip-rule="evenodd" d="M28.4445 29.883C27.5674 29.8679 26.9666 29.3862 26.2902 28.8678C24.4863 27.4854 23.1234 25.738 21.761 23.9697C20.7761 22.6984 19.7488 21.4538 18.7708 20.1827C18.3931 19.6927 18.1004 19.1491 17.7519 18.6041C17.522 18.6053 17.3204 18.5933 17.1179 18.616C15.8116 18.7713 14.5517 18.7466 13.3281 18.11C12.6544 17.7588 11.8843 17.642 11.2282 17.145C9.00621 15.4944 7.92122 13.2177 7.37391 10.6063C7.2993 10.2492 7.23861 9.89254 7.19897 9.5294C6.90204 6.93125 6.21935 4.44179 5.10182 2.07374C4.83723 1.51692 4.85846 1.50354 4.99529 0.768754C6.52487 1.14839 7.76172 2.09176 9.10822 2.82895C9.60286 3.09904 10.1262 3.33503 10.6646 3.52961C11.9757 4.00823 13.3092 4.43171 14.6129 4.93104C15.2891 5.18479 15.8634 5.6101 16.4438 6.07038C18.0549 7.36438 18.8943 9.16134 19.7343 10.9305C20.2104 11.9383 20.5301 13.0745 20.4522 14.2356C20.4085 14.8683 20.5708 15.3389 21.1262 15.6872C21.7363 16.0716 22.3389 16.4837 22.9127 16.9299C23.4047 17.3044 23.9244 17.6865 24.3094 18.1628C25.2685 19.3499 26.6651 20.0326 27.6892 21.1308C28.6404 21.5238 29.2185 22.3531 29.9113 23.053C30.4953 23.6457 31.0794 24.2384 31.6278 24.865C31.8579 25.1285 32.1279 25.4695 32.141 25.7833C32.1682 26.6405 32.7201 27.128 33.3092 27.5188C34.1448 28.076 34.8308 28.7688 35.5306 29.4689C35.68 29.6189 35.8152 29.7824 35.9864 29.8982C37.8218 31.1351 39.1638 32.882 40.7204 34.4045C41.2032 34.8693 41.7431 35.2798 42.2475 35.7173C42.6019 36.0256 42.9636 36.3202 43.2825 36.6556C48.7382 42.3778 54.1867 48.1069 59.6352 53.836C59.8862 54.0999 60.1865 54.3443 60.3457 54.6617C60.8763 55.7196 61.7353 56.4585 62.608 57.2047C63.276 57.7786 63.9227 58.3729 64.3695 59.1641C64.5962 59.5667 64.9358 59.9095 65.2475 60.2516C65.7763 60.829 66.3267 61.3721 66.6849 62.0845C66.8441 62.4019 67.1517 62.6325 67.3814 62.9168C68.0707 63.7559 68.7598 64.6019 69.4489 65.448C69.6448 65.6897 69.8334 65.9451 70.0578 66.1597C71.3164 67.3473 72.2129 68.8115 73.1734 70.2215C73.3748 70.519 73.6186 70.7967 73.8555 71.0673C74.0586 71.3022 74.3604 71.4839 74.486 71.7517C75.0083 72.8652 75.9076 73.6608 76.7286 74.5241C77.4614 75.2946 77.8056 76.2852 78.2771 77.2024C78.3633 77.3717 78.3574 77.6083 78.3454 77.81C78.3046 78.3243 77.8501 78.6751 77.3589 78.5443C77.0614 78.4672 76.7578 78.3551 76.4973 78.1884C75.5306 77.5792 74.5781 76.9633 73.6401 76.3199C73.1745 76.0018 72.7382 75.6287 72.3302 75.2355C71.6571 74.5848 71.0765 73.8529 70.2243 73.3997C69.915 73.2388 69.6862 72.9196 69.4282 72.6555C68.6338 71.8416 67.9182 70.9392 66.8879 70.3701C66.6269 70.2243 66.4319 69.9478 66.2217 69.7196C64.7705 68.158 63.3194 66.5964 61.8896 65.0145C61.117 64.1663 60.2725 63.4069 59.3208 62.7563C58.8143 62.4023 58.3444 61.9796 57.9167 61.5371C55.5076 59.0182 53.1271 56.4723 50.7108 53.9602C49.9166 53.1394 49.0439 52.3932 48.221 51.6064C47.5816 50.9984 46.9636 50.3701 46.3244 49.7551C45.2771 48.7538 44.2156 47.7591 43.1615 46.7507C42.7465 46.3573 42.3387 45.957 41.9452 45.5432C38.79 42.2256 35.6492 38.8945 32.4798 35.5905C30.8507 33.906 29.3915 32.1074 28.4445 29.883ZM29.1213 29.0016C29.4647 29.7484 29.6583 30.3592 30.0079 30.8554C30.6939 31.8268 31.4008 32.7986 32.2148 33.6617C35.1989 36.8566 38.226 40.0038 41.2458 43.1648C42.5349 44.5203 43.7669 45.9372 45.3063 47.0344C45.6416 47.2726 45.9119 47.5998 46.2039 47.8996C47.5071 49.2485 48.7607 50.638 50.2573 51.7759C50.7493 52.1504 51.162 52.6344 51.5964 53.084C54.1141 55.717 56.5675 58.4111 59.1567 60.9693C61.8475 63.6415 64.6669 66.1846 67.4361 68.7821C67.6266 68.961 67.8387 69.1126 68.0508 69.2641C69.6727 70.4052 71.1373 71.7094 72.4223 73.2321C72.7535 73.6304 73.0846 74.0356 73.4515 74.4C74.1516 75.0862 74.8658 75.7657 75.6089 76.4042C75.7997 76.5691 76.1124 76.5979 76.4023 76.7027C76.4017 75.8948 75.9036 75.4853 75.5045 75.0157C74.2257 73.5211 72.947 72.0265 71.6897 70.5115C71.4598 70.2342 71.2593 69.9018 71.1702 69.5653C70.9857 68.8712 70.4957 68.4132 70.0557 67.9077C68.6954 66.3344 67.3563 64.7478 66.017 63.1681C65.8817 63.0115 65.7889 62.8211 65.682 62.6443C64.8857 61.3499 63.8618 60.2447 62.7805 59.2078C61.5018 57.9917 60.1372 56.8641 59.2575 55.289C59.0842 54.9782 58.7909 54.7341 58.5398 54.4701C53.2 48.8482 47.8601 43.2333 42.5201 37.6184C42.2352 37.3187 41.9584 36.9705 41.6079 36.7807C40.8521 36.3717 40.3107 35.7453 39.7408 35.1459C39.0285 34.3899 38.3378 33.6065 37.597 32.8775C36.856 32.1555 36.0651 31.481 35.2884 30.793C34.4709 30.0691 33.6387 29.3726 32.8283 28.6419C32.297 28.169 31.8015 27.6551 31.2914 27.1687C30.9475 27.5501 30.7091 27.8923 30.403 28.1562C30.0268 28.4393 29.6242 28.666 29.1213 29.0016ZM15.987 10.1191C15.402 10.3969 15.1073 10.2084 14.8498 9.92339C14.2941 9.31052 13.6749 8.73087 13.2043 8.05746C12.1084 6.49085 10.5683 5.42148 9.09276 4.27713C8.60091 3.89568 8.05128 3.59635 7.51592 3.28344C7.37168 3.20322 7.16915 3.22599 6.81524 3.17532C7.14632 3.58059 7.32795 3.83587 7.54525 4.05722C8.61192 5.12167 9.63596 6.21986 10.8312 7.15521C11.9788 8.04759 13.0257 9.06976 14.1016 10.0439C14.2241 10.1584 14.4577 10.2827 14.247 10.6326C13.539 10.5382 12.9708 10.1478 12.4257 9.66755C11.6419 8.98627 10.8438 8.31857 10.0386 7.65764C9.90222 7.54279 9.74738 7.32998 9.43399 7.60765C9.82051 8.57843 10.3398 9.53163 10.9447 10.4034C11.5766 11.3107 12.2937 12.1505 12.9588 13.1213C12.1911 13.4642 11.7326 13.1393 11.3539 12.691C10.6096 11.8227 9.85821 10.9611 9.36207 9.91798C9.12409 9.41058 8.81564 8.93623 8.46232 8.30754C8.40539 8.63344 8.3389 8.78498 8.35629 8.9247C8.62703 10.6238 9.08797 12.2372 9.97607 13.7568C11.3184 16.0469 13.3623 17.0244 15.8495 17.261C17.4962 17.4137 17.471 17.3086 18.5619 16.0198C19.2368 15.2149 19.3355 14.3329 19.1571 13.3952C18.6961 10.9531 17.2788 8.3199 15.2519 6.66724C14.5079 6.06357 13.6997 5.79953 12.7573 5.88731C13.7095 7.35281 15.1871 8.41365 15.987 10.1191ZM18.8915 17.8736C19.0672 18.3655 19.1512 18.9038 19.4332 19.3218C20.0036 20.1788 20.6374 21.0095 21.3215 21.7788C23.1434 23.8303 25.0079 25.848 26.8511 27.886C27.2169 28.2922 27.6192 28.358 28.1111 28.1823C29.2914 27.7732 30.0517 26.8938 30.7801 25.8953C30.5508 25.5971 30.3902 25.3354 30.1726 25.128C29.1125 24.0776 28.1449 22.953 26.9212 22.0378C25.5269 20.986 24.3701 19.6268 23.1057 18.3972C22.147 17.4678 21.1597 16.5725 19.6689 16.5908C19.1884 16.8642 19.1054 17.3984 18.8915 17.8736Z" fill="#2B2C54"/>
<path fill-rule="evenodd" clip-rule="evenodd" d="M48.5409 45.2423C49.7434 45.8923 50.4048 46.4521 50.6546 47.0434C49.2606 46.8134 48.715 46.354 48.5409 45.2423Z" fill="#2B2C54"/>
<path fill-rule="evenodd" clip-rule="evenodd" d="M38.7296 35.2114C39.2828 35.6431 39.8291 36.0747 40.4369 36.5566C40.3016 36.6716 40.1932 36.829 40.1099 36.82C39.3116 36.7164 38.8156 36.2234 38.614 35.3756C38.6077 35.3476 38.6646 35.3003 38.7296 35.2114Z" fill="#2B2C54"/>
<path fill-rule="evenodd" clip-rule="evenodd" d="M45.161 42.0026C45.5682 42.4307 45.8192 42.6947 46.2195 43.1156C45.4766 43.0273 45.2398 42.7498 45.161 42.0026Z" fill="#2B2C54"/>
<path fill-rule="evenodd" clip-rule="evenodd" d="M43.2351 39.6283C43.7814 39.7813 44.0401 40.0176 44.0493 40.4845C43.3385 40.5014 43.3385 40.5014 43.2351 39.6283Z" fill="#2B2C54"/>
<path fill-rule="evenodd" clip-rule="evenodd" d="M42.3169 38.4907C42.3078 38.574 42.2916 38.6642 42.2826 38.7475C42.1653 38.7028 42.0548 38.6652 41.9375 38.6205C41.9746 38.5308 42.0186 38.4414 42.0557 38.3518C42.1451 38.3958 42.2276 38.4397 42.3169 38.4907Z" fill="#2B2C54"/>
<path fill-rule="evenodd" clip-rule="evenodd" d="M57.6371 35.9262C58.2428 35.2857 58.7928 34.5895 59.4124 33.9629C63.2207 30.1199 67.0359 26.2907 70.865 22.4685C72.1878 21.1457 73.5315 19.8438 74.8891 18.5628C75.3138 18.159 75.648 17.7343 75.8917 17.1982C76.1075 16.7318 76.3442 16.2514 76.6784 15.8685C77.5556 14.8729 78.1195 13.745 78.4258 12.464C78.5233 12.0672 78.6417 11.6495 78.8575 11.3153C80.0828 9.44248 80.7442 7.2703 82.0809 5.4532C82.443 4.95889 82.6588 4.3532 82.9025 3.78231C82.993 3.55952 82.9721 3.29496 82.9999 3.07217C82.5544 2.75192 82.1297 2.84243 81.7468 2.98863C80.779 3.35066 79.7974 3.70572 78.8645 4.1513C77.1309 4.97282 75.3068 5.58548 73.6916 6.67157C72.9745 7.15195 72.0625 7.326 71.241 7.65322C69.1384 8.48867 67.2517 9.63741 65.6504 11.2526C63.0884 13.8355 60.4706 16.3697 57.9016 18.9457C47.7231 29.1382 37.5515 39.3377 27.3729 49.5371C22.0121 54.9118 16.6374 60.2796 11.2905 65.6682C10.3089 66.6568 9.31328 67.6733 8.53353 68.8151C7.90694 69.7341 7.20377 70.4999 6.32655 71.1544C5.83224 71.5233 5.37971 71.948 5.2892 72.6442C5.25439 72.9088 4.99679 73.1803 4.78793 73.3892C4.41894 73.7582 4.00818 74.0715 3.6183 74.4265C3.2145 74.7955 3.05438 75.262 3.0126 75.812C2.90817 77.1 3.46514 78.1304 4.224 79.0702C4.67654 79.6342 5.24047 80.1145 5.75566 80.6297C6.93225 81.8063 6.93921 81.7854 8.54049 82.1405C9.21581 82.2867 9.77278 82.1753 10.2532 81.688C10.9076 81.0196 11.569 80.3582 12.2304 79.6968C12.5228 79.4044 12.7943 79.0424 13.1494 78.8614C14.0545 78.4019 14.7228 77.6848 15.4051 76.9747C15.8019 76.5639 16.15 76.0835 16.6165 75.7632C17.9672 74.8443 18.9906 73.5911 20.1184 72.4493C20.8843 71.6765 21.5526 70.7923 22.59 70.3328C22.771 70.2493 22.9102 70.0752 23.0564 69.929C25.7577 67.1929 28.4312 64.429 31.1673 61.7207C33.416 59.4859 35.7622 57.3416 38.0249 55.1207C40.8097 52.3916 43.5458 49.6067 46.3167 46.8637C47.6117 45.5826 48.9345 44.3364 50.2503 43.0832C52.0187 41.3984 53.794 39.7206 55.5554 38.0288C56.2656 37.3465 56.9618 36.6433 57.6371 35.9262Z" fill="#D4CAFB"/>
<path fill-rule="evenodd" clip-rule="evenodd" d="M67.0079 20.2897C65.7895 21.5011 64.5781 22.7125 63.3667 23.9309C62.6357 24.6689 61.8699 25.3651 61.3477 26.291C61.1249 26.6879 60.7351 26.9872 60.4009 27.3214C57.9363 29.786 55.416 32.1949 53.028 34.7291C51.4268 36.4278 49.8185 38.1266 48.1267 39.7418C47.8274 40.0272 47.5489 40.3544 47.2008 40.5772C45.871 41.4266 44.7989 42.5614 43.678 43.6475C42.4039 44.8798 41.1647 46.1399 39.8976 47.3722C37.252 49.9412 34.5925 52.5033 31.9399 55.0723C31.2298 55.7615 30.5196 56.4508 29.8513 57.1748C28.3335 58.8248 26.6626 60.3078 24.95 61.7489C24.1145 62.4521 23.2791 63.1553 22.5063 63.9211C20.2436 66.142 18.0088 68.3977 15.76 70.6325C15.398 70.9946 15.0151 71.3427 14.5695 71.7604C13.7689 71.3427 13.3651 70.8344 13.01 70.2566C13.1353 70.0895 13.198 69.9154 13.3163 69.8597C14.4581 69.2819 15.2518 68.3142 16.136 67.4439C16.6581 66.9357 17.1594 66.4135 17.6816 65.8983C18.1619 65.4319 18.6841 65.0489 19.262 64.6799C20.6613 63.7958 21.9632 62.7445 22.8335 61.2685C22.9936 61.004 23.2095 60.7673 23.4253 60.5445C23.8917 60.0571 24.3373 59.5698 24.6785 58.971C24.9569 58.4907 25.4304 58.1147 25.8202 57.7039C26.5304 56.952 27.3658 56.3115 27.8184 55.3299C27.9228 55.1071 28.1525 54.933 28.3335 54.752C32.3228 50.7279 36.2007 46.5785 40.3362 42.7076C44.6596 38.6557 48.7881 34.4019 53.0072 30.2455C53.5989 29.6676 54.0863 28.9854 54.6224 28.3518C54.8243 28.1151 55.0053 27.8575 55.2211 27.6347C56.885 25.9917 58.5559 24.3556 60.2268 22.7125C60.9996 21.9467 61.8351 21.2366 62.3642 20.2549C62.5591 19.8999 62.9003 19.6283 63.1927 19.3359C64.0003 18.5283 64.8218 17.7277 65.6294 16.9201C65.9218 16.6277 66.256 16.3422 66.444 15.9802C66.9731 14.9846 67.8225 14.3093 68.6649 13.5156C69.4585 13.5992 70.2801 13.6758 71.032 13.7523C72.0345 14.6017 71.1016 15.5973 71.4845 16.5093C70.8092 17.1846 70.1617 17.853 69.4864 18.5005C69.2636 18.7163 69.0199 18.9739 68.7415 19.0366C67.9895 19.2245 67.5161 19.7745 67.0079 20.2897Z" fill="#D4CAFB"/>
<path fill-rule="evenodd" clip-rule="evenodd" d="M67.6347 11.1831C68.0385 11.2736 68.0246 11.5382 68.0176 11.7958C68.0107 12.2065 68.0873 12.6382 67.767 12.9793C67.5164 13.2439 67.2449 13.4875 67.0081 13.766C66.5417 14.316 66.0961 14.8869 65.6366 15.4439C65.3721 15.7642 65.1145 16.0914 64.829 16.3838C64.0701 17.1705 63.2974 17.9363 62.5246 18.7161C62.3087 18.9389 62.0511 19.1338 61.8771 19.3914C60.1714 21.9047 57.8182 23.8262 55.7505 26.0054C54.9289 26.8687 54.0099 27.6345 53.4251 28.7136C53.2371 29.0687 52.8751 29.3332 52.5827 29.6256C49.7213 32.494 46.8529 35.3624 43.9776 38.2238C43.5738 38.6207 43.1004 38.9479 42.6617 39.3099C42.2997 39.6023 41.9168 39.8808 41.5826 40.201C36.9389 44.7403 32.3022 49.2935 27.6654 53.8398C27.4426 54.0556 27.1711 54.2575 27.0319 54.522C26.4331 55.6499 25.4445 56.4297 24.6021 57.3417C24.2192 57.7594 23.9198 58.2537 23.5369 58.6714C22.4787 59.8063 21.692 61.1778 20.4945 62.1943C20.1394 62.4936 19.7774 62.8417 19.3597 62.9949C18.5869 63.2734 18.0438 63.7955 17.4938 64.3595C16.2198 65.6544 14.9248 66.9354 13.6368 68.2234C13.5254 68.3348 13.428 68.4532 13.3166 68.5646C13.052 68.8222 12.7666 69.0658 12.3558 68.9057C12.0286 68.7734 11.9242 68.481 11.8824 68.1608C11.8337 67.8057 11.7989 67.4506 11.7571 67.0329C30.2414 48.2562 49.1922 29.9529 67.6347 11.1831Z" fill="#D4CAFB"/>
<path fill-rule="evenodd" clip-rule="evenodd" d="M35.9431 55.9563C34.509 57.3905 33.1931 58.957 31.6615 60.2658C30.3526 61.3867 29.2595 62.7165 27.9716 63.8095C26.5443 65.0209 25.2564 66.3785 23.8013 67.5412C23.1538 68.0564 22.4854 68.5716 21.7544 68.9545C21.093 69.3026 20.543 69.7412 20.0209 70.2495C18.9487 71.3077 17.8696 72.352 16.7905 73.3963C16.2405 73.3337 15.9063 73.0064 15.5443 72.7628C15.5443 72.6514 15.5025 72.5261 15.5512 72.4704C15.8575 72.1153 16.1639 71.7672 16.4911 71.44C19.0949 68.8222 21.6987 66.2115 24.3165 63.6076C24.7203 63.2108 25.2076 62.8975 25.6253 62.5146C26.426 61.7766 27.2475 61.0525 27.9785 60.2519C29.0298 59.0962 30.3178 58.219 31.4944 57.2095C31.7659 56.9728 32.0722 56.7639 32.3229 56.5063C36.7995 52.0158 41.2691 47.5183 45.7388 43.0277C46.066 42.6935 46.3793 42.3246 46.7692 42.0878C47.8065 41.4473 48.6002 40.5562 49.4217 39.6929C50.5357 38.5302 51.6357 37.3467 52.7496 36.191C53.5015 35.4112 54.1559 34.527 55.1724 34.0258C55.4857 33.8726 55.7085 33.5384 55.9661 33.2808C57.6231 31.6308 59.28 29.9738 60.93 28.3169C61.5497 27.6903 62.218 27.1124 62.6149 26.2909C62.768 25.9776 63.0744 25.7339 63.332 25.4763C64.7244 24.0769 66.0681 22.6219 67.5371 21.2991C68.9225 20.0459 70.2314 18.7161 71.5751 17.4212C72.3896 16.6414 73.2668 16.6206 74.2207 17.3516C73.9839 17.6231 73.7681 17.9016 73.5244 18.1522C66.5554 25.1491 59.5655 32.1321 52.6104 39.1429C51.2945 40.4657 50.111 41.9208 48.816 43.2644C48.0293 44.086 47.1173 44.7891 46.3097 45.5967C42.8426 49.036 39.3894 52.4962 35.9431 55.9563Z" fill="#D4CAFB"/>
<path fill-rule="evenodd" clip-rule="evenodd" d="M57.6371 35.9262C58.2428 35.2857 58.7928 34.5895 59.4124 33.9629C63.2207 30.1199 67.0359 26.2907 70.865 22.4685C72.1878 21.1457 73.5315 19.8438 74.8891 18.5628C75.3138 18.159 75.648 17.7343 75.8917 17.1982C76.1075 16.7318 76.3442 16.2514 76.6784 15.8685C77.5556 14.8729 78.1195 13.745 78.4258 12.464C78.5233 12.0672 78.6417 11.6495 78.8575 11.3153C80.0828 9.44248 80.7442 7.2703 82.0809 5.4532C82.443 4.95889 82.6588 4.3532 82.9025 3.78231C82.993 3.55952 82.9721 3.29496 82.9999 3.07217C82.5544 2.75192 82.1297 2.84243 81.7468 2.98863C80.779 3.35066 79.7974 3.70572 78.8645 4.1513C77.1309 4.97282 75.3068 5.58548 73.6916 6.67157C72.9745 7.15195 72.0625 7.326 71.241 7.65322C69.1384 8.48867 67.2517 9.63741 65.6504 11.2526C63.0884 13.8355 60.4706 16.3697 57.9016 18.9457C47.7231 29.1382 37.5515 39.3377 27.3729 49.5371C22.0121 54.9118 16.6374 60.2796 11.2905 65.6682C10.3089 66.6568 9.31328 67.6733 8.53353 68.8151C7.90694 69.7341 7.20377 70.4999 6.32655 71.1544C5.83224 71.5233 5.37971 71.948 5.2892 72.6442C5.25439 72.9088 4.99679 73.1803 4.78793 73.3892C4.41894 73.7582 4.00818 74.0715 3.6183 74.4265C3.2145 74.7955 3.05438 75.262 3.0126 75.812C2.90817 77.1 3.46514 78.1304 4.224 79.0702C4.67654 79.6342 5.24047 80.1145 5.75566 80.6297C6.93225 81.8063 6.93921 81.7854 8.54049 82.1405C9.21581 82.2867 9.77278 82.1753 10.2532 81.688C10.9076 81.0196 11.569 80.3582 12.2304 79.6968C12.5228 79.4044 12.7943 79.0424 13.1494 78.8614C14.0545 78.4019 14.7228 77.6848 15.4051 76.9747C15.8019 76.5639 16.15 76.0835 16.6165 75.7632C17.9672 74.8443 18.9906 73.5911 20.1184 72.4493C20.8843 71.6765 21.5526 70.7923 22.59 70.3328C22.771 70.2493 22.9102 70.0752 23.0564 69.929C25.7577 67.1929 28.4312 64.429 31.1673 61.7207C33.416 59.4859 35.7622 57.3416 38.0249 55.1207C40.8097 52.3916 43.5458 49.6067 46.3167 46.8637C47.6117 45.5826 48.9345 44.3364 50.2503 43.0832C52.0187 41.3984 53.794 39.7206 55.5554 38.0288C56.2656 37.3465 56.9618 36.6433 57.6371 35.9262ZM81.148 4.46459C80.8208 5.73865 79.9227 7.18677 78.9062 8.09184C78.2657 7.52095 77.5417 7.17284 77.3746 6.19815C78.6138 5.61333 79.7556 4.86839 81.148 4.46459ZM69.765 9.70703C70.6074 9.1988 71.422 8.64183 72.3062 8.21715C73.6568 7.56967 75.0562 7.02664 76.5809 6.3722C76.8803 7.4374 77.5556 8.14057 78.3214 8.76716C78.774 9.13615 78.8645 9.37982 78.6626 9.81147C78.0012 11.2178 77.3398 12.6242 76.6296 14.0026C76.2815 14.6849 75.822 15.3046 75.4391 15.9033C74.4505 15.778 73.5872 15.6666 72.6612 15.5482C72.7796 14.4621 72.3619 13.7102 71.429 13.2229C71.2201 13.1115 71.0948 12.8539 70.9486 12.6729C70.3707 12.5824 69.8068 12.4919 69.2986 12.4153C68.7625 11.5729 69.0758 10.8349 69.3473 10.1108C69.403 9.95071 69.5979 9.8045 69.765 9.70703ZM67.008 20.2894C65.7897 21.5008 64.5783 22.7122 63.3669 23.9306C62.6359 24.6685 61.87 25.3648 61.3479 26.2907C61.1251 26.6875 60.7352 26.9869 60.401 27.3211C57.9365 29.7857 55.4162 32.1945 53.0282 34.7287C51.4269 36.4275 49.8187 38.1262 48.1269 39.7414C47.8275 40.0269 47.549 40.3541 47.2009 40.5769C45.8712 41.4263 44.799 42.5611 43.6781 43.6472C42.404 44.8795 41.1648 46.1396 39.8977 47.3719C37.2521 49.9409 34.5926 52.5029 31.94 55.0719C31.2299 55.7612 30.5198 56.4504 29.8514 57.1745C28.3337 58.8245 26.6628 60.3074 24.9501 61.7486C24.1147 62.4517 23.2792 63.1549 22.5064 63.9208C20.2437 66.1417 18.0089 68.3974 15.7602 70.6322C15.3981 70.9942 15.0152 71.3423 14.5697 71.76C13.769 71.3423 13.3652 70.8341 13.0101 70.2562C13.1355 70.0891 13.1981 69.9151 13.3165 69.8594C14.4583 69.2816 15.2519 68.3138 16.1361 67.4436C16.6583 66.9353 17.1595 66.4132 17.6817 65.898C18.1621 65.4315 18.6842 65.0486 19.2621 64.6796C20.6615 63.7954 21.9634 62.7442 22.8336 61.2682C22.9938 61.0036 23.2096 60.7669 23.4254 60.5441C23.8919 60.0568 24.3375 59.5695 24.6786 58.9707C24.9571 58.4903 25.4305 58.1144 25.8204 57.7036C26.5305 56.9517 27.366 56.3112 27.8185 55.3295C27.9229 55.1068 28.1527 54.9327 28.3337 54.7517C32.323 50.7276 36.2008 46.5782 40.3363 42.7073C44.6598 38.6554 48.7883 34.4015 53.0073 30.2452C53.5991 29.6673 54.0864 28.985 54.6225 28.3515C54.8244 28.1148 55.0054 27.8572 55.2212 27.6344C56.8852 25.9913 58.5561 24.3553 60.227 22.7122C60.9998 21.9464 61.8352 21.2362 62.3643 20.2546C62.5593 19.8995 62.9004 19.628 63.1928 19.3356C64.0004 18.528 64.8219 17.7273 65.6295 16.9197C65.922 16.6273 66.2561 16.3419 66.4441 15.9799C66.9732 14.9843 67.8226 14.309 68.665 13.5153C69.4587 13.5988 70.2802 13.6754 71.0321 13.752C72.0347 14.6014 71.1017 15.597 71.4847 16.509C70.8093 17.1843 70.1619 17.8527 69.4865 18.5001C69.2638 18.716 69.0201 18.9736 68.7416 19.0362C67.9897 19.2242 67.5163 19.7742 67.008 20.2894ZM67.6346 11.183C68.0384 11.2735 68.0245 11.5381 68.0175 11.7957C68.0106 12.2064 68.0872 12.6381 67.7669 12.9792C67.5163 13.2438 67.2448 13.4874 67.008 13.7659C66.5416 14.3159 66.096 14.8868 65.6365 15.4438C65.3719 15.764 65.1144 16.0913 64.8289 16.3837C64.07 17.1704 63.2973 17.9362 62.5245 18.716C62.3086 18.9388 62.051 19.1337 61.877 19.3913C60.1713 21.9046 57.8181 23.8261 55.7504 26.0053C54.9288 26.8686 54.0098 27.6344 53.425 28.7135C53.237 29.0686 52.875 29.3331 52.5826 29.6255C49.7212 32.4939 46.8528 35.3623 43.9775 38.2237C43.5737 38.6206 43.1003 38.9478 42.6616 39.3098C42.2996 39.6022 41.9167 39.8807 41.5825 40.2009C36.9388 44.7402 32.3021 49.2934 27.6653 53.8397C27.4425 54.0555 27.171 54.2574 27.0318 54.5219C26.433 55.6498 25.4444 56.4296 24.602 57.3416C24.2191 57.7593 23.9197 58.2536 23.5368 58.6713C22.4786 59.8062 21.6919 61.1777 20.4944 62.1941C20.1393 62.4935 19.7773 62.8416 19.3596 62.9948C18.5868 63.2733 18.0437 63.7954 17.4937 64.3594C16.2197 65.6543 14.9247 66.9353 13.6367 68.2233C13.5253 68.3347 13.4279 68.4531 13.3165 68.5645C13.0519 68.8221 12.7665 69.0657 12.3557 68.9056C12.0285 68.7733 11.9241 68.4809 11.8823 68.1607C11.8336 67.8056 11.7987 67.4505 11.757 67.0328C30.2413 48.2561 49.1921 29.9528 67.6346 11.183ZM9.80063 68.8012C10.657 68.9404 11.3462 69.2607 11.7082 70.1518C11.8753 70.5626 12.2443 70.8968 12.5646 71.2309C13.2817 71.9759 14.0127 72.7069 14.7507 73.4309C15.1684 73.8417 15.4817 74.2943 15.5513 74.9696C15.0431 75.3664 14.5975 75.3664 14.1937 75.0531C12.4323 73.6885 10.7823 72.2126 9.5848 70.305C9.25759 69.7898 9.18797 69.2189 9.80063 68.8012ZM9.20189 80.5183C8.15062 80.6715 7.35694 80.3234 6.70947 79.5367C6.05503 78.75 5.18477 78.1582 4.76705 77.1487C4.28666 76.0069 4.24489 75.8189 5.02464 74.9348C5.26135 74.6702 5.52591 74.4335 5.83224 74.1202C7.23162 75.1715 10.0304 78.019 10.6361 78.9797C10.288 79.6342 9.68924 80.0519 9.20189 80.5183ZM11.1652 77.6012C9.98861 76.4386 8.82594 75.255 7.69112 74.0436C7.45441 73.793 7.31517 73.424 7.21074 73.0828C7.15504 72.8949 7.12023 72.5746 7.53795 72.512C7.88606 73.4727 8.56138 74.1898 9.26455 74.886C10.1487 75.7563 11.0051 76.6474 12.0981 77.7614C11.569 77.6778 11.2905 77.7196 11.1652 77.6012ZM13.407 77.2392C13.3583 77.2392 13.2956 77.2183 13.2608 77.1835C12.0355 75.993 10.8101 74.8025 9.59177 73.605C9.40379 73.424 9.22974 73.236 9.05569 73.0411C8.95126 72.9227 8.86075 72.7974 8.78417 72.6651C8.51265 72.2335 8.24809 71.7949 7.84429 71.1335C8.19935 71.0569 8.47087 70.9037 8.65189 70.9733C8.91644 71.0847 9.20885 71.3075 9.33417 71.5582C10.0652 73.048 11.2905 74.0575 12.5785 75.0183C13.212 75.4917 13.5462 76.167 13.7133 76.9259C13.7272 76.9886 13.6089 77.086 13.5532 77.1696C13.4975 77.1974 13.4557 77.2392 13.407 77.2392ZM35.9432 55.9561C34.5091 57.3903 33.1932 58.9568 31.6616 60.2657C30.3527 61.3866 29.2596 62.7163 27.9717 63.8094C26.5444 65.0208 25.2564 66.3784 23.8014 67.541C23.1539 68.0562 22.4855 68.5714 21.7545 68.9543C21.0931 69.3024 20.5431 69.7411 20.021 70.2493C18.9488 71.3075 17.8697 72.3518 16.7906 73.3961C16.2406 73.3335 15.9064 73.0063 15.5443 72.7626C15.5443 72.6512 15.5026 72.5259 15.5513 72.4702C15.8576 72.1151 16.164 71.767 16.4912 71.4398C19.095 68.8221 21.6988 66.2113 24.3166 63.6075C24.7204 63.2106 25.2077 62.8973 25.6254 62.5144C26.4261 61.7764 27.2476 61.0524 27.9786 60.2517C29.0299 59.096 30.3179 58.2188 31.4945 57.2093C31.766 56.9726 32.0723 56.7637 32.323 56.5061C36.7996 52.0156 41.2692 47.5181 45.7389 43.0275C46.0661 42.6934 46.3794 42.3244 46.7693 42.0877C47.8066 41.4472 48.6003 40.556 49.4218 39.6927C50.5358 38.53 51.6358 37.3465 52.7497 36.1908C53.5016 35.411 54.156 34.5268 55.1725 34.0256C55.4858 33.8724 55.7086 33.5382 55.9662 33.2806C57.6232 31.6306 59.2801 29.9737 60.9301 28.3167C61.5498 27.6901 62.2181 27.1122 62.615 26.2907C62.7681 25.9774 63.0745 25.7337 63.3321 25.4761C64.7245 24.0768 66.0682 22.6217 67.5372 21.2989C68.9226 20.0457 70.2315 18.716 71.5752 17.421C72.3897 16.6413 73.267 16.6204 74.2208 17.3514C73.984 17.6229 73.7682 17.9014 73.5246 18.152C66.5555 25.1489 59.5656 32.1319 52.6105 39.1427C51.2946 40.4655 50.1111 41.9206 48.8161 43.2643C48.0294 44.0858 47.1174 44.789 46.3098 45.5966C42.8427 49.0358 39.3895 52.496 35.9432 55.9561Z" fill="#2B2C54"/>
</svg>
