<svg width="182" height="94" viewBox="0 0 182 94" fill="none" xmlns="http://www.w3.org/2000/svg">
<path d="M178.45 55.581C178.62 55.871 177.95 56.1909 178.48 56.4809C178.52 56.5009 178.54 56.701 178.51 56.721C178.05 57.001 178.03 57.241 178.39 57.681C178.73 58.101 178.59 58.461 178.14 58.681C177.5 58.981 176.89 59.291 176.4 59.821C176.19 60.041 175.79 60.151 175.47 60.191C174.02 60.361 172.57 60.511 171.12 60.631C170.19 60.711 169.25 60.741 168.32 60.801C167.1 60.881 166.27 61.541 165.68 62.571C165.24 63.331 164.76 64.061 164.34 64.821C164.09 65.281 163.88 65.771 163.73 66.271C163.6 66.711 163.6 67.201 163.5 67.651C163.2 68.951 163.25 70.0809 164.7 70.7009C164.81 70.7509 164.84 70.9909 164.91 71.1409C164.45 72.1009 163.44 71.701 162.71 72.101C162.45 73.131 162.83 74.1609 162.81 75.2009C162.81 75.4009 162.97 75.641 163.12 75.811C164.05 76.821 164.3 78.061 164.35 79.371C164.4 80.551 164.57 81.6909 165.02 82.7909C165.53 84.0509 165.4 85.3009 164.77 86.5109C164.55 86.9309 164.24 87.101 163.78 87.091C162.09 87.041 160.41 87.001 158.72 86.961C158.2 86.951 157.64 86.901 157.24 87.321C156.91 87.661 156.52 87.651 156.11 87.631C152.37 87.471 148.64 87.311 144.9 87.161C141.57 87.031 138.24 86.911 134.91 86.781C131.64 86.661 128.37 86.541 125.09 86.401C123.98 86.351 122.87 86.231 121.77 86.191C116.45 86.031 111.13 85.841 105.8 85.751C103 85.701 100.19 85.9209 97.38 85.8909C94.8 85.8609 92.24 86.1409 89.67 86.2009C84.41 86.3109 79.14 86.3609 73.88 86.5109C68.97 86.6509 64.07 86.911 59.16 87.061C55.77 87.161 52.38 87.2309 48.99 87.2009C44.25 87.1609 39.52 87.001 34.78 86.901C32.15 86.841 29.52 86.8009 26.89 86.7309C26.31 86.7209 25.72 86.651 25.14 86.601C24.34 86.521 23.71 86.1009 23.18 85.5409C23.03 85.3809 22.83 85.1409 22.84 84.9509C22.89 84.2009 22.58 83.641 22.23 83.001C21.95 82.501 21.99 81.811 22.46 81.241C22.94 80.661 23.37 80.0309 23.77 79.3909C23.89 79.2009 23.8 78.871 23.81 78.591C24.68 78.111 24.68 78.111 25.65 76.781C25.52 76.741 25.36 76.681 25.21 76.621C25.05 76.561 24.9 76.4909 24.65 76.3909C25.53 75.5309 26.46 75.0809 27.68 75.1109C29.37 75.1509 31.07 75.0809 32.77 75.0409C33.03 75.0309 33.28 74.931 33.53 74.781C31.24 74.371 28.93 74.5509 26.66 74.4209C26.45 73.9809 26.71 73.831 27 73.781C28.41 73.521 29.8 73.1509 31.18 73.2309C31.47 72.6609 31.21 72.431 30.84 72.351C30.39 72.241 29.92 72.181 29.45 72.161C27.82 72.091 26.2 71.911 24.56 72.071C23.34 72.191 22.11 72.261 20.88 72.311C20.48 72.331 20.08 72.2309 19.69 72.1709C19.46 72.1309 19.22 71.941 19.03 71.991C17.98 72.291 17.26 71.641 16.44 71.211C15.61 70.771 15.22 70.031 15.35 69.191C15.61 67.481 14.69 66.161 14.05 64.741C13.89 64.381 13.56 64.091 13.26 63.811C12.92 63.491 12.53 63.2209 12.18 62.9209C10.86 61.7609 9.33 61.1309 7.56 61.0409C7.16 61.0209 6.74002 60.971 6.36002 60.841C4.88002 60.331 4.04 59.2209 4.22 57.6709C4.31 56.8709 4.17002 56.171 3.96002 55.381C4.83002 54.171 4.77002 52.661 5.08002 51.251C5.14002 50.981 4.71002 50.661 5.11002 50.341C5.67002 49.881 5.39001 49.411 5.04001 48.911C5.37001 48.301 6.02002 47.701 5.36002 46.911C5.31002 46.851 5.34001 46.681 5.39001 46.591C5.77001 45.911 5.42 45.331 5.12 44.781C4.84 44.271 4.44002 43.831 4.49002 43.101C4.87002 42.901 5.29001 42.7209 5.67001 42.4809C6.12001 42.2009 6.17999 41.821 5.92999 41.281C5.66999 40.711 5.44001 38.7409 5.67001 38.2909C6.09001 37.5009 6.11 36.681 6.12 35.811C6.13 35.111 6.57 34.4209 6.13 33.6709C5.92 33.6409 5.69002 33.611 5.46002 33.581C5.46002 33.491 5.43001 33.401 5.45001 33.321C5.67001 32.401 6.58 31.921 6.94 30.961C6.75 30.631 6.52002 30.241 6.33002 29.911C6.46002 29.711 6.72 29.4909 6.72 29.2609C6.72 28.3909 6.63 27.5109 6.59 26.6409C6.56 26.0809 6.73 25.701 7.25 25.341C8.42 24.531 8.60001 22.791 7.79001 21.631C7.52001 21.241 7.24999 20.911 6.67999 20.741C7.23999 20.391 7.99 20.2709 7.87 19.4209C7.86 19.3209 7.92002 19.1809 7.99002 19.1109C8.23002 18.8709 8.70002 18.6709 8.71002 18.4209C8.76002 17.7409 8.72 17.031 8.53 16.381C8.27 15.481 8.33999 14.7809 9.17999 14.2609C10.22 13.6209 10.38 12.431 10.77 11.441C10.99 10.881 10.68 10.111 10.61 9.38097C10.89 9.09097 11.19 8.72097 11.55 8.44097C11.86 8.20097 12.23 7.99096 12.61 7.87096C14.69 7.21096 16.83 6.92096 19.01 6.87096C21.94 6.80096 24.86 6.75096 27.79 6.65096C31.12 6.53096 34.44 6.35095 37.77 6.24095C39.23 6.19095 40.69 6.28094 42.16 6.29094C46.14 6.33094 50.12 6.35095 54.1 6.42095C55.14 6.44095 56.18 6.64095 57.22 6.67095C58.26 6.70095 59.31 6.61096 60.36 6.56096C60.89 6.54096 61.41 6.46095 61.94 6.49095C63.76 6.59095 65.56 6.48094 67.37 6.29094C68 6.22094 68.65 6.29096 69.29 6.28096C69.78 6.27096 70.21 6.34096 70.55 6.75096C70.83 7.09096 71.23 7.14095 71.66 7.14095C73.47 7.15095 75.28 7.19096 77.09 7.22096C77.38 7.22096 77.68 7.28096 77.97 7.25096C79.18 7.11096 80.27 7.30097 81.26 8.10097C81.87 8.59097 82.7 8.53096 83.46 8.56096C83.8 8.57096 84.1 8.49095 84.28 8.96095C84.35 9.13095 84.91 9.22096 85.22 9.18096C87.57 8.89096 89.88 9.28097 92.17 9.69097C92.83 9.81097 93.59 9.65095 94.22 10.241C93.57 10.451 92.98 10.641 92.41 10.821C92.24 11.891 93.47 11.3309 93.65 11.9509C93.57 12.0409 93.5 12.171 93.42 12.181C91.96 12.291 90.53 12.531 89.14 13.021C88.6 13.211 87.99 13.2209 87.41 13.2609C86.67 13.3109 86.01 13.501 85.64 14.191C85.23 14.941 85.33 15.6609 86 16.3909C87.4 16.4809 88.91 16.631 90.42 16.661C94.04 16.731 97.67 16.7709 101.29 16.7609C105.56 16.7509 109.83 16.6709 114.1 16.6409C115.21 16.6309 116.32 16.691 117.44 16.721C122.18 16.871 126.91 17.001 131.65 17.181C134.75 17.301 137.84 17.5109 140.94 17.6409C143.8 17.7609 146.67 17.8409 149.53 17.9209C150 17.9309 150.42 17.991 150.87 18.191C151.33 18.391 151.89 18.4109 152.41 18.4509C154.62 18.6309 156.84 18.801 159.06 18.961C160.75 19.081 162.38 19.431 163.95 20.091C164.16 20.181 164.39 20.261 164.62 20.281C165.44 20.361 166.18 20.5409 166.8 21.1709C167.02 21.3909 167.47 21.361 167.77 21.521C168.17 21.731 168.52 22.031 168.97 22.351C168.41 23.461 168.28 24.5309 168.83 25.5409C168.52 26.0009 168.21 26.361 168.02 26.771C167.77 27.301 167.62 27.871 168.01 28.441C168.17 28.671 168.31 28.961 168.33 29.241C168.38 29.851 168.75 30.1609 169.22 30.4509C169.36 30.5309 169.44 30.701 169.6 30.901C169.4 31.301 169.17 31.701 169 32.121C168.78 32.681 168.9 33.1609 169.41 33.5109C169.84 33.8009 170.32 34.0209 170.79 34.2609C171.83 34.7809 172.14 35.941 171.47 36.901C171.2 37.281 170.85 37.621 170.65 38.031C170.4 38.551 170.26 39.1209 170.09 39.6409C170.87 40.4909 171.86 40.181 172.71 40.221C172.95 40.631 172.75 40.811 172.46 40.941C172.06 41.131 171.76 41.371 171.85 41.871C171.92 41.951 171.98 42.071 172.07 42.121C172.35 42.261 172.81 42.161 172.8 42.681C172.79 43.011 172.63 43.231 172.32 43.331C171.98 43.441 171.61 43.551 171.63 43.991C171.65 44.361 171.87 44.641 172.25 44.751C173.94 45.251 174.29 46.6609 174.54 48.1409C174.6 48.4809 174.56 48.841 174.55 49.191C174.55 49.831 174.54 50.461 174.53 50.771C175.2 51.491 175.67 52.0109 176.16 52.5109C177.14 53.5109 178.29 53.891 179.67 53.441C180.06 53.311 180.46 53.2309 180.86 53.1409C180.95 53.1209 181.05 53.191 181.23 53.241C180.63 53.571 180.07 53.851 179.55 54.191C179.16 54.451 178.82 54.771 178.49 55.101C178.42 55.171 178.51 55.401 178.53 55.561L178.45 55.581ZM37.78 74.881C37.77 74.831 37.77 74.7809 37.76 74.7309C37.14 74.7609 36.52 74.791 35.91 74.821C35.91 74.871 35.91 74.921 35.91 74.971C36.54 74.941 37.16 74.911 37.78 74.881ZM34.55 74.741L34.68 74.6709L34.55 74.621V74.741ZM39.25 74.7609C39.21 74.7509 39.17 74.7309 39.12 74.7309C39.11 74.7309 39.1 74.791 39.09 74.821C39.13 74.831 39.17 74.851 39.21 74.841C39.23 74.841 39.24 74.7909 39.25 74.7609ZM34.22 0.000963646C34.11 0.000963646 34 0.0309514 33.9 0.0509514C33.94 0.110951 34 0.230944 34.03 0.230944C34.13 0.220944 34.23 0.150949 34.32 0.110949C34.29 0.060949 34.25 -0.00903635 34.22 0.000963646ZM65.24 92.6409C65.22 92.6309 65.1 92.7809 65.1 92.8609C65.1 92.9509 65.2 93.1109 65.23 93.1109C65.36 93.0809 65.48 93.0009 65.7 92.8909C65.49 92.7709 65.37 92.6909 65.24 92.6409ZM178.45 55.581C178.7 55.601 178.95 55.611 179.19 55.631C179.19 55.591 179.19 55.551 179.19 55.501C178.95 55.531 178.7 55.551 178.45 55.581C178.45 55.581 178.46 55.571 178.45 55.581ZM0.27002 57.3909C0.29002 57.3909 0.349996 57.281 0.339996 57.271C0.289996 57.211 0.210004 57.121 0.160004 57.131C0.100004 57.131 0.05 57.241 0 57.301C0.09 57.341 0.17002 57.3709 0.27002 57.3909Z" fill="white"/>
<path d="M78.7571 38.584L78.7569 38.5837C77.5565 36.9001 75.8184 35.9162 73.9662 35.7464C73.2182 35.572 72.4245 35.562 71.6244 35.7284C71.2283 35.6829 70.8368 35.6794 70.4849 35.7157L70.4849 35.7157L70.4789 35.7163C68.8289 35.9 67.5377 36.8355 66.5905 38.0061C65.6464 39.1728 65.0065 40.6146 64.6421 41.9391L64.6418 41.94C63.5318 45.9941 65.443 49.5258 68.3143 51.149C71.213 52.7877 75.0811 52.4725 77.7231 48.9475C79.8136 46.1584 81.127 41.911 78.7571 38.584Z" stroke="#2B2C54" stroke-width="1.5"/>
<path d="M88.4604 67.4435L88.4606 67.444C88.8215 68.617 89.4139 70.5759 89.7133 72.5368C89.863 73.5176 89.9438 74.5252 89.8772 75.4523C89.8112 76.3709 89.596 77.2773 89.0954 77.9973C88.5951 78.7192 87.8563 79.2024 87.059 79.534C86.2606 79.8661 85.3571 80.0655 84.4636 80.1927C83.2648 80.3634 81.968 80.4142 80.9151 80.4553C80.4348 80.4741 80.0052 80.4909 79.6589 80.5162L79.6575 80.5163C74.9558 80.8507 70.041 80.7956 65.3528 80.5442C65.0164 80.5267 64.5975 80.5267 64.1029 80.5267C63.8681 80.5267 63.6162 80.5267 63.348 80.5248C62.5383 80.5192 61.6196 80.4956 60.7239 80.3923C59.8341 80.2898 58.9237 80.1043 58.1465 79.7527C57.364 79.3987 56.6576 78.8479 56.2944 77.9905L56.293 77.9873C55.92 77.0954 55.9464 76.0135 56.0551 75.0722C56.128 74.4412 56.2537 73.7746 56.3601 73.2102C56.4113 72.9388 56.458 72.6911 56.4923 72.4823L88.4604 67.4435ZM88.4604 67.4435C87.4025 64.0135 85.912 60.5409 83.7002 57.6183C81.3257 54.4733 77.2465 52.2193 73.2494 52.1184L73.2483 52.1184M88.4604 67.4435L73.2483 52.1184M73.2483 52.1184C71.7335 52.0824 70.5531 52.3541 69.3035 52.8847L73.2483 52.1184ZM79.116 75.7519L79.1164 75.7519C79.4306 75.7324 79.7477 75.7153 80.0658 75.6982C81.5732 75.6173 83.1005 75.5352 84.4209 75.187L79.116 75.7519ZM79.116 75.7519C75.1526 76 71.0551 75.9333 67.0495 75.8318L67.0485 75.8318M79.116 75.7519L67.0485 75.8318M84.9578 74.6154C84.9263 74.7973 84.9062 74.9507 84.892 75.0708L84.9582 74.6132C84.9581 74.6139 84.9579 74.6147 84.9578 74.6154ZM84.9578 74.6154C85.0209 74.2387 84.9921 73.7948 84.91 73.2884M84.9578 74.6154L84.91 73.2884M67.0485 75.8318C65.0926 75.785 63.1352 75.6446 61.1895 75.4237L61.1878 75.4235M67.0485 75.8318L61.1878 75.4235M61.1878 75.4235C60.9875 75.4012 60.8185 75.373 60.6773 75.3446C60.7012 75.117 60.746 74.8542 60.8054 74.5637C60.8394 74.3981 60.8799 74.2164 60.921 74.0324C60.9987 73.6843 61.0782 73.3281 61.1178 73.058C61.8934 67.852 63.2282 62.5335 66.3806 58.8718C66.8969 58.7073 67.3721 58.4582 67.786 58.2364C67.824 58.2161 67.8615 58.196 67.8985 58.1761C68.3511 57.9331 68.7325 57.7283 69.1213 57.5981L69.1228 57.5976M61.1878 75.4235L69.1228 57.5976M69.1228 57.5976C70.299 57.201 71.6232 56.9624 72.8398 56.9873C76.439 57.0682 79.302 59.2128 81.0916 62.3777L81.0916 62.3777M69.1228 57.5976L81.0916 62.3777M81.0916 62.3777C82.7591 65.3263 84.0138 68.4258 84.6043 71.7469L84.6042 71.7469M81.0916 62.3777L84.6042 71.7469M84.6042 71.7469L84.6054 71.7533M84.6042 71.7469L84.6054 71.7533M84.6054 71.7533C84.6496 71.9897 84.6949 72.2026 84.7392 72.4108M84.6054 71.7533L84.7392 72.4108M84.7392 72.4108C84.8 72.6964 84.8589 72.9729 84.91 73.2884M84.7392 72.4108L84.91 73.2884" stroke="#2B2C54" stroke-width="1.5"/>
<path d="M67.1439 57.1167C67.1506 57.1167 67.1556 57.1184 67.1607 57.1201C67.1657 57.1218 67.1707 57.1235 67.1774 57.1235M67.1439 57.1167L86.2787 70.5938C86.1488 69.8127 85.9882 69.0559 85.847 68.3904C85.7412 67.8915 85.6462 67.4438 85.5832 67.0757C85.4828 66.4938 85.1618 66.1488 84.7672 65.9796C84.4595 65.1475 84.0583 64.41 83.4831 63.8552M67.1439 57.1167C66.9032 57.137 66.6824 57.1911 66.4751 57.2656L67.1439 57.1167ZM67.1774 57.1235C67.3044 57.1167 67.4248 57.1167 67.5385 57.1235M67.1774 57.1235V56.3735C67.2077 56.3735 67.237 56.3754 67.2651 56.3789C67.2857 56.3815 67.3046 56.3847 67.3216 56.3882C67.305 56.3968 67.2902 56.4047 67.2776 56.4116C67.2467 56.4284 67.2327 56.4363 67.2237 56.4415C67.2148 56.4465 67.2107 56.4488 67.2 56.4542L67.5385 57.1235M67.1774 57.1235L67.5717 56.5666L67.7392 57.022M67.5385 57.1235C67.5608 57.1122 67.5824 57.1002 67.6039 57.0882C67.647 57.0641 67.6901 57.04 67.7392 57.022M67.5385 57.1235L67.5695 56.6036L67.7392 57.022M67.7392 57.022C69.1571 56.4469 70.6485 55.9395 72.14 56.0816M72.14 56.0816C72.2135 56.0782 72.2888 56.0731 72.364 56.068C72.4393 56.063 72.5145 56.0579 72.5881 56.0545M72.14 56.0816L72.1518 55.9579L72.5881 56.0545M72.14 56.0816L72.1341 55.954L72.1547 55.3299C72.2041 55.3271 72.2562 55.3236 72.3136 55.3197L72.3171 55.3195C72.39 55.3146 72.472 55.3091 72.5536 55.3053L72.5881 56.0545M72.5881 56.0545C72.7754 55.2088 73.5846 54.4308 74.5544 54.7149C77.8332 55.674 80.3148 58.9343 82.3373 61.5916C82.3693 61.6337 82.4012 61.6756 82.433 61.7173C82.7273 62.103 82.8009 62.4818 82.7206 62.8134C82.9748 63.1652 83.2222 63.5034 83.463 63.8282M83.463 63.8282C83.4664 63.8316 83.4697 63.8366 83.473 63.8417C83.4764 63.8468 83.4797 63.8519 83.4831 63.8552M83.463 63.8282L83.625 63.7081L83.4831 63.8552M83.463 63.8282L83.9964 63.3009C84.0185 63.3233 84.0358 63.3436 84.048 63.3585C84.0482 63.3588 84.0484 63.359 84.0486 63.3593L83.6527 63.6875L83.4831 63.8552M87.016 70.4557C86.9 69.7606 86.7611 69.0878 86.6346 68.4894C86.6161 68.4019 86.598 68.3163 86.5802 68.2326C86.474 67.7319 86.3827 67.3014 86.3224 66.9491L86.3223 66.9482C86.2029 66.2563 85.8454 65.7547 85.3668 65.4505C85.0563 64.6799 84.6428 63.9489 84.0502 63.3609C83.8708 63.1187 83.6875 62.8689 83.5004 62.6114C83.5138 62.1478 83.3504 61.6834 83.0298 61.263C82.9948 61.217 82.9596 61.1708 82.9242 61.1243C81.936 59.8259 80.8022 58.3362 79.5072 57.0455C78.1657 55.7086 76.6003 54.5319 74.765 53.9951C74.0218 53.7775 73.3337 53.975 72.8229 54.3647C72.492 54.6172 72.2295 54.9525 72.0531 55.322C70.422 55.2102 68.8404 55.7664 67.4662 56.3234C67.4275 56.3381 67.3923 56.3537 67.3616 56.3684C67.316 56.3684 67.2701 56.3692 67.2239 56.3708C67.1981 56.3681 67.1714 56.3667 67.1439 56.3667H67.1124L67.0809 56.3694C66.7729 56.3953 66.4939 56.4635 66.2398 56.5532C66.0189 56.6209 65.7745 56.7086 65.5168 56.8387C64.9756 57.1086 64.625 57.5261 64.4578 58.0021C64.1273 58.4741 63.8634 58.9985 63.6389 59.4827C62.7897 60.0218 62.256 60.9369 61.8995 61.7854C61.5403 62.6404 61.3083 63.5619 61.1373 64.2409C61.1335 64.2562 61.1296 64.2714 61.1258 64.2865C60.1198 65.5839 59.1899 67.671 58.8111 69.7075C58.0726 71.3819 57.7403 73.3364 57.8688 74.9756L57.8691 74.9786C57.9183 75.5758 58.1405 76.1089 58.5456 76.5108C58.8813 76.8439 59.3044 77.049 59.7651 77.1461C60.9879 78.3422 62.7004 78.2786 63.9661 77.4352V77.6742L64.6287 77.5401C65.5463 78.1741 66.7118 78.362 67.7808 78.3289C68.9217 78.2936 70.0723 78.0044 70.9449 77.5969C72.0921 78.088 73.4318 78.3877 74.7034 78.437C76.089 78.4906 77.5254 78.2509 78.5312 77.491L78.5312 77.491L78.5396 77.4845C78.5502 77.4763 78.5609 77.4679 78.5718 77.4592C78.7995 77.4943 79.0323 77.5281 79.2663 77.5559C79.6038 77.5973 79.9089 77.5577 80.1783 77.4689C80.4268 77.4839 80.6858 77.4929 80.9584 77.4868L80.9584 77.4869L80.9707 77.4864C81.3882 77.4702 81.8062 77.3463 82.1746 77.1271C82.3959 77.109 82.6103 77.0618 82.8134 76.9872C83.7804 77.8503 85.2372 77.6262 86.0513 76.856C87.022 75.9421 87.2668 74.5276 87.27 73.1966C87.3942 72.8235 87.4182 72.417 87.3356 72.0049C87.2624 71.625 87.1816 71.242 87.1029 70.8692C87.0735 70.7297 87.0444 70.5916 87.016 70.4557Z" stroke="#2B2C54" stroke-width="1.5"/>
<path d="M101.098 30.9039L101.097 30.9034C100.337 29.8418 99.2413 29.218 98.0604 29.1026C97.5912 28.9952 97.0999 28.9922 96.6166 29.085C96.3703 29.0596 96.1315 29.0632 95.9214 29.0852L95.9214 29.0852L95.9171 29.0857C94.838 29.205 94.0065 29.8181 93.4119 30.5524C92.8201 31.2831 92.4242 32.1765 92.2001 32.9869L92.2001 32.9869L92.1994 32.9893C91.5046 35.5338 92.7043 37.7632 94.5168 38.788C96.3572 39.8284 98.8173 39.6168 100.479 37.3981L100.479 37.3981C101.745 35.7072 102.62 33.035 101.098 30.9039Z" stroke="#2B2C54" stroke-width="1.5"/>
<path d="M106.881 48.0674L106.881 48.0675C107.095 48.7634 107.451 49.9421 107.634 51.1259C107.725 51.7182 107.777 52.3379 107.737 52.9161C107.698 53.4855 107.566 54.0828 107.23 54.5716L107.229 54.5737C106.889 55.0646 106.395 55.3806 105.891 55.5902C105.386 55.8002 104.823 55.9231 104.281 56.0004C103.55 56.1048 102.742 56.1362 102.11 56.1608C101.84 56.1713 101.602 56.1805 101.416 56.1937L106.881 48.0674ZM106.881 48.0674C106.251 46.0171 105.356 43.9247 104.02 42.1589L104.02 42.1588C102.563 40.233 100.069 38.8434 97.6016 38.7832L97.6014 38.7832C96.6672 38.7607 95.9286 38.9313 95.1672 39.2522C93.2649 39.6401 91.7447 40.8478 90.613 42.3221C89.4649 43.8176 88.6765 45.6358 88.2548 47.3208L88.2548 47.3211C88.1896 47.5818 88.1215 47.8462 88.0527 48.1135C87.8049 49.0761 87.5472 50.077 87.3798 51.0875L106.881 48.0674ZM104.014 50.7499C104.038 50.8891 104.067 51.0333 104.095 51.1675C104.098 51.1861 104.102 51.2046 104.106 51.2228C104.137 51.3776 104.165 51.5223 104.188 51.6639C104.233 51.9521 104.244 52.177 104.214 52.3555C104.21 52.3798 104.206 52.4033 104.203 52.426C104.176 52.4326 104.149 52.4397 104.12 52.4474L104.12 52.4474L104.014 50.7499ZM104.014 50.7499C104.014 50.7497 104.014 50.7494 104.014 50.7492L104.753 50.6218L104.014 50.7513C104.014 50.7508 104.014 50.7503 104.014 50.7499ZM93.9289 52.8218L93.9309 52.8219C96.2973 52.8827 98.7087 52.9223 101.04 52.7758C101.04 52.7758 101.04 52.7758 101.041 52.7757L101.088 53.5243L93.9289 52.8218ZM93.9289 52.8218C92.788 52.7954 91.6435 52.7098 90.5007 52.5838M93.9289 52.8218L90.5007 52.5838M90.5007 52.5838C90.5089 52.5384 90.5182 52.4906 90.5284 52.4404C90.5454 52.3564 90.567 52.2584 90.5896 52.1555C90.637 51.9404 90.6891 51.7038 90.7143 51.529C91.1689 48.4881 91.9423 45.4456 93.7031 43.3525C94.0064 43.2465 94.2792 43.1023 94.5014 42.9833C94.5206 42.973 94.5395 42.9629 94.558 42.9529C94.8353 42.8043 95.0393 42.6948 95.2449 42.6262" stroke="#2B2C54" stroke-width="1.5"/>
<path d="M106.227 50.8127L106.229 50.8209C106.277 51.1021 106.257 51.3632 106.199 51.601C106.194 52.4106 106.043 53.3406 105.384 53.9665L105.381 53.9698C104.843 54.4749 103.895 54.6669 103.191 54.1625C103.12 54.1802 103.048 54.1935 102.975 54.2021C102.733 54.3345 102.46 54.4134 102.179 54.423C102.178 54.423 102.177 54.423 102.177 54.423L102.152 53.6734C101.978 53.6802 101.804 53.6734 101.637 53.6599L106.227 50.8127ZM106.227 50.8127L106.226 50.8045C106.194 50.6409 106.155 50.4534 106.118 50.274C106.09 50.1376 106.063 50.0059 106.04 49.8928C105.957 49.3894 105.841 48.8422 105.748 48.4062C105.697 48.1645 105.653 47.9569 105.626 47.8099C105.546 47.3582 105.321 47.0101 105.011 46.7811C104.824 46.3377 104.573 45.9041 104.217 45.5468C104.134 45.4344 104.048 45.3171 103.961 45.197C103.943 44.8814 103.818 44.5801 103.62 44.3176L103.62 44.3176L103.617 44.3143C103.587 44.2742 103.556 44.2337 103.525 44.1928C102.948 43.4377 102.275 42.5571 101.507 41.79C100.696 40.9809 99.728 40.2441 98.5721 39.9032L98.5716 39.9031C98.0261 39.7427 97.5195 39.8888 97.1498 40.1712C96.9689 40.3094 96.8181 40.4808 96.7016 40.6701C95.7269 40.6497 94.8031 40.9875 94.0457 41.294L94.0406 41.2961C94.0285 41.2964 94.0164 41.2969 94.0043 41.2976C93.9556 41.296 93.8996 41.2988 93.8387 41.3103C93.68 41.3291 93.5097 41.3637 93.3404 41.4261C93.1816 41.4731 93.0244 41.5367 92.8642 41.6214C92.5076 41.8038 92.2403 42.0871 92.1088 42.4428C91.9265 42.7088 91.7811 42.9933 91.6605 43.2495C91.126 43.6244 90.801 44.2066 90.5925 44.7025C90.3764 45.2166 90.2347 45.7668 90.1343 46.1639C89.5252 46.9693 88.9812 48.2059 88.7501 49.4173C88.2989 50.4491 88.1004 51.6397 88.182 52.6497C88.2142 53.0678 88.3727 53.4561 88.6721 53.7524C88.8984 53.9763 89.1742 54.1174 89.4655 54.1919C90.251 54.9032 91.2962 54.895 92.1086 54.437H92.3772C92.9844 54.8336 93.7234 54.9407 94.369 54.9203C95.0303 54.8996 95.6969 54.7433 96.2323 54.5149C96.9197 54.7922 97.7009 54.9585 98.445 54.987C99.2616 55.0182 100.153 54.8868 100.821 54.4271C100.922 54.442 101.026 54.4557 101.133 54.4663C101.351 54.4922 101.555 54.4721 101.741 54.4186L106.227 50.8127ZM89.8251 53.5041L89.8259 53.4975V53.5034L89.8251 53.5041Z" stroke="#2B2C54" stroke-width="1.5"/>
<path d="M52.2733 30.9039L52.2729 30.9034C51.5133 29.8418 50.4171 29.218 49.2362 29.1026C48.767 28.9952 48.2756 28.9922 47.7924 29.085C47.5461 29.0596 47.3073 29.0632 47.0972 29.0852L47.0972 29.0852L47.0928 29.0857C46.0138 29.205 45.1823 29.8181 44.5877 30.5524C43.9959 31.2831 43.6 32.1765 43.3759 32.9869L43.3759 32.9869L43.3752 32.9893C42.6804 35.5338 43.88 37.7632 45.6926 38.788C47.5329 39.8284 49.9931 39.6168 51.6547 37.3981L51.6547 37.3981C52.9208 35.7072 53.7957 33.035 52.2733 30.9039Z" stroke="#2B2C54" stroke-width="1.5"/>
<path d="M58.057 48.0674L58.057 48.0675C58.2707 48.7634 58.6272 49.9421 58.8095 51.1259C58.9007 51.7182 58.9527 52.3379 58.9131 52.9161C58.8742 53.4855 58.7422 54.0828 58.4062 54.5716L58.4047 54.5737C58.0648 55.0646 57.5708 55.3806 57.0666 55.5902C56.5615 55.8002 55.9991 55.9231 55.4571 56.0004C54.7258 56.1048 53.9174 56.1362 53.2861 56.1608C53.0156 56.1713 52.7776 56.1805 52.5921 56.1937L58.057 48.0674ZM58.057 48.0674C57.427 46.0171 56.5317 43.9247 55.1961 42.1589L55.196 42.1588C53.7389 40.233 51.245 38.8434 48.7774 38.7832L48.7772 38.7832C47.843 38.7607 47.1044 38.9313 46.343 39.2522C44.4406 39.6401 42.9205 40.8478 41.7888 42.3221C40.6406 43.8176 39.8523 45.6358 39.4306 47.3208L39.4306 47.3211C39.3654 47.5819 39.2973 47.8462 39.2285 48.1135C38.9807 49.0762 38.723 50.077 38.5555 51.0875L58.057 48.0674ZM55.1898 50.7499C55.2139 50.8891 55.2431 51.0333 55.2703 51.1675C55.2741 51.1861 55.2778 51.2046 55.2815 51.2228C55.3127 51.3776 55.3412 51.5223 55.3636 51.6639C55.409 51.9521 55.42 52.177 55.3903 52.3555C55.386 52.3798 55.3821 52.4033 55.3784 52.426C55.3521 52.4326 55.3245 52.4397 55.2955 52.4474L55.2955 52.4474L55.1898 50.7499ZM55.1898 50.7499C55.1898 50.7497 55.1898 50.7494 55.1897 50.7492L55.9287 50.6218L55.1901 50.7513C55.19 50.7508 55.1899 50.7503 55.1898 50.7499ZM45.1047 52.8218L45.1066 52.8219C47.4731 52.8827 49.8845 52.9223 52.2154 52.7758C52.2158 52.7758 52.2163 52.7758 52.2167 52.7757L52.2637 53.5243L45.1047 52.8218ZM45.1047 52.8218C43.9638 52.7954 42.8192 52.7098 41.6765 52.5838M45.1047 52.8218L41.6765 52.5838M41.6765 52.5838C41.6847 52.5384 41.694 52.4906 41.7041 52.4404C41.7212 52.3564 41.7428 52.2584 41.7654 52.1555C41.8128 51.9403 41.8649 51.7038 41.8901 51.529C42.3447 48.4881 43.1181 45.4456 44.8788 43.3525C45.1821 43.2465 45.4549 43.1023 45.6772 42.9833C45.6964 42.973 45.7152 42.9629 45.7338 42.9529C46.011 42.8043 46.2151 42.6948 46.4207 42.6262" stroke="#2B2C54" stroke-width="1.5"/>
<path d="M57.4033 50.8127L57.4047 50.8209C57.4526 51.1021 57.4331 51.3632 57.3753 51.601C57.3699 52.4106 57.2183 53.3406 56.5602 53.9665L56.5568 53.9698L56.5568 53.9698C56.0191 54.4749 55.0709 54.6669 54.3667 54.1625C54.2962 54.1802 54.2241 54.1935 54.1506 54.2021C53.9087 54.3345 53.6362 54.4134 53.3547 54.423C53.354 54.423 53.3532 54.423 53.3524 54.423L57.4033 50.8127ZM57.4033 50.8127L57.4017 50.8045C57.37 50.6409 57.3312 50.4534 57.294 50.274C57.2658 50.1376 57.2385 50.0059 57.2161 49.8928C57.1327 49.3894 57.0166 48.8422 56.924 48.4061C56.8727 48.1644 56.8287 47.9569 56.8015 47.8099C56.7217 47.3582 56.4971 47.0101 56.1864 46.7811C56.0002 46.3377 55.7486 45.9041 55.3927 45.5468C55.3095 45.4344 55.2238 45.3171 55.1365 45.197C55.119 44.8814 54.9941 44.5801 54.7957 44.3176L54.7957 44.3176L54.7932 44.3143C54.7625 44.2742 54.7315 44.2337 54.7003 44.1928C54.1235 43.4378 53.4507 42.5571 52.6824 41.79C51.8719 40.9809 50.9038 40.2441 49.7479 39.9032L49.7473 39.9031C49.2019 39.7427 48.6953 39.8888 48.3256 40.1712C48.1446 40.3094 47.9939 40.4808 47.8774 40.6701C46.9027 40.6497 45.9789 40.9875 45.2215 41.294L45.2164 41.2961C45.2043 41.2964 45.1922 41.2969 45.1801 41.2976C45.1314 41.296 45.0753 41.2988 45.0145 41.3103C44.8558 41.3291 44.6855 41.3637 44.5161 41.4261C44.3574 41.4731 44.2002 41.5367 44.04 41.6214C43.6834 41.8038 43.4161 42.0871 43.2846 42.4428C43.1022 42.7088 42.9569 42.9933 42.8363 43.2495C42.3018 43.6244 41.9768 44.2066 41.7683 44.7025C41.5522 45.2166 41.4105 45.7668 41.3101 46.1639C40.701 46.9693 40.157 48.2059 39.9258 49.4173C39.4746 50.4491 39.2762 51.6397 39.3578 52.6497C39.39 53.0678 39.5485 53.4561 39.8479 53.7524C40.0742 53.9763 40.3499 54.1174 40.6413 54.1919C41.4268 54.9032 42.4719 54.895 43.2844 54.437L57.4033 50.8127ZM48.372 41.4142C48.4857 40.9135 48.9606 40.4535 49.5358 40.6226C51.4626 41.1908 52.9174 43.0948 54.112 44.6582C54.1406 44.6956 54.1691 44.7329 54.1974 44.7699C54.3713 44.9999 54.4181 45.2232 54.3713 45.4194L48.1097 40.6819L48.1822 40.6764L48.3138 40.6664L48.372 41.4142ZM48.372 41.4142L48.1124 41.3552L48.1045 41.4345M48.372 41.4142C48.3285 41.4176 48.2834 41.4209 48.2382 41.4243C48.1931 41.4277 48.148 41.4311 48.1045 41.4345M48.1045 41.4345L48.0981 41.352L48.1045 41.4345ZM41.0017 53.5034L41.0009 53.5041L41.0017 53.4975V53.5034Z" stroke="#2B2C54" stroke-width="1.5"/>
<path d="M78.1462 39.0192C77.0561 37.4902 75.4911 36.6242 73.8458 36.4889C73.1569 36.3197 72.4145 36.313 71.6587 36.4889C71.2708 36.4347 70.8896 36.428 70.5619 36.4618C67.7662 36.773 66.0541 39.6349 65.3652 42.1381C63.3387 49.5397 72.3209 54.9048 77.123 48.4978C79.1361 45.8119 80.2329 41.9487 78.1462 39.0192Z" fill="#D4CAFB"/>
<path d="M87.7437 67.6646C86.7004 64.2818 85.2424 60.899 83.1022 58.071C80.8549 55.0941 76.9825 52.963 73.2305 52.8683C71.8059 52.8344 70.7157 53.0915 69.5252 53.6057C63.7667 54.7017 60.0548 60.9126 58.6904 66.3318C58.1687 68.4156 57.5802 70.4791 57.2324 72.6035C56.9983 74.0311 56.3964 76.2908 56.9849 77.698C58.0484 80.2081 63.3186 79.6871 65.3919 79.7954C70.0603 80.0457 74.9426 80.0998 79.6043 79.7683C82.012 79.5924 86.9144 79.8292 88.4794 77.5695C90.0511 75.3098 88.4661 70.0123 87.7437 67.6646ZM85.6972 74.7414C85.4965 75.8984 85.8242 75.5872 84.6137 75.9119C82.9216 76.3584 80.9084 76.3923 79.1628 76.5005C75.1633 76.7508 71.0367 76.6832 67.0305 76.5817C65.0508 76.5343 63.0712 76.3923 61.1048 76.169C60.436 76.0946 60.0682 75.9593 59.921 75.939C59.8274 75.0797 60.2621 73.7266 60.3758 72.9486C61.165 67.6511 62.5495 62.0559 65.9604 58.2131C66.977 57.9492 67.8933 57.2185 68.8832 56.887C70.1272 56.4675 71.5383 56.2105 72.8559 56.2375C76.7819 56.3255 79.8584 58.6731 81.7445 62.0086C83.4433 65.0125 84.7341 68.1923 85.3427 71.6157C85.5233 72.5832 85.8644 73.7469 85.6972 74.7414Z" fill="#D4CAFB"/>
<path d="M86.5998 72.15C86.4994 71.629 86.3857 71.1081 86.2787 70.5939C86.0513 69.2272 85.7303 67.935 85.5832 67.0758C85.4828 66.4939 85.1618 66.1489 84.7672 65.9797C84.4595 65.1476 84.0583 64.4101 83.4831 63.8553C83.4764 63.8486 83.4697 63.835 83.463 63.8283C83.2222 63.5035 82.9748 63.1653 82.7206 62.8134C82.8009 62.4819 82.7273 62.103 82.433 61.7174C80.3932 59.0382 77.8851 55.6893 74.5544 54.715C73.5846 54.4309 72.7754 55.2089 72.5881 56.0546C72.4409 56.0614 72.2871 56.0749 72.14 56.0817C70.6485 55.9396 69.1571 56.447 67.7392 57.0221C67.6656 57.0491 67.6054 57.0897 67.5385 57.1236C67.4248 57.1168 67.3044 57.1168 67.1774 57.1236C67.164 57.1236 67.1573 57.1168 67.1439 57.1168C66.9032 57.1371 66.6824 57.1912 66.4751 57.2656C66.2745 57.3265 66.0671 57.401 65.8531 57.5092C65.4451 57.7122 65.2244 58.0166 65.1375 58.3414C64.7696 58.842 64.4821 59.4374 64.2212 60.0125C62.7231 60.7838 62.1746 63.2058 61.8135 64.6266C60.8437 65.8174 59.894 67.9012 59.5328 69.9309C58.8172 71.514 58.4962 73.3813 58.6165 74.9171C58.6901 75.8102 59.2586 76.3446 60.1281 76.4461H60.1348C61.158 77.6166 62.7498 77.5286 63.8534 76.5814C63.9804 76.6356 64.1209 76.6829 64.2881 76.7032C64.4285 76.7235 64.5757 76.7303 64.7161 76.7438C64.7161 76.7506 64.7161 76.7574 64.7161 76.7574C64.7496 76.7506 64.7763 76.7506 64.8098 76.7506C64.8165 76.7506 64.8231 76.7506 64.8298 76.7506C66.3347 78.0293 69.1637 77.6436 70.7355 76.8656C70.8023 76.8318 70.8559 76.7979 70.9094 76.7574C73.1566 77.8398 76.4672 78.1105 78.0791 76.8927C78.166 76.825 78.2529 76.7506 78.3332 76.6626C78.6743 76.7168 79.0154 76.7709 79.3565 76.8115C79.6307 76.8453 79.8648 76.7979 80.0654 76.71C80.353 76.7303 80.6406 76.7438 80.9416 76.7371C81.2894 76.7235 81.6438 76.6017 81.9381 76.3852C82.3327 76.392 82.6939 76.2702 82.9815 76.047C83.055 76.1349 83.1219 76.2296 83.1955 76.3108C83.8108 76.9941 84.9077 76.9062 85.5363 76.3108C86.2988 75.5937 86.5329 74.3962 86.5195 73.0633C86.6332 72.7927 86.6666 72.4815 86.5998 72.15Z" fill="#D4CAFB"/>
<path d="M100.487 31.34C99.8385 30.4334 98.9155 29.9259 97.939 29.8448C97.5311 29.7433 97.0897 29.7433 96.6482 29.8448C96.4208 29.8109 96.1934 29.8109 95.9995 29.8312C94.3475 30.0139 93.3309 31.7121 92.9229 33.187C91.7258 37.5711 97.0361 40.7441 99.8786 36.9486C101.069 35.3587 101.725 33.072 100.487 31.34Z" fill="#D4CAFB"/>
<path d="M106.164 48.2878C105.549 46.2851 104.686 44.2825 103.422 42.6114C102.091 40.8524 99.8038 39.5872 97.5834 39.5331C96.7407 39.5128 96.0919 39.6684 95.3896 39.9728C91.9787 40.6223 89.785 44.2961 88.9824 47.503C88.6747 48.7343 88.327 49.9589 88.1196 51.2105C87.9792 52.0562 87.6247 53.3958 87.9725 54.2212C88.6012 55.7096 91.7179 55.3984 92.9485 55.4661C95.7107 55.6149 98.6 55.6487 101.362 55.4458C102.787 55.3443 105.689 55.4796 106.612 54.1468C107.529 52.814 106.592 49.6815 106.164 48.2878ZM104.954 52.4824C104.833 53.1658 105.027 52.9831 104.312 53.1725C103.315 53.4364 102.118 53.4567 101.088 53.5243C98.7203 53.6732 96.2792 53.6326 93.9116 53.5717C92.7411 53.5446 91.5707 53.4567 90.407 53.3281C90.0124 53.2808 89.7917 53.2064 89.7047 53.1928C89.6512 52.6854 89.9054 51.8871 89.9723 51.4202C90.4404 48.2878 91.2631 44.9726 93.2762 42.6994C93.8781 42.5438 94.4199 42.1108 95.0084 41.9146C95.7441 41.671 96.5801 41.5154 97.3627 41.5289C99.6834 41.583 101.509 42.97 102.626 44.9388C103.629 46.7114 104.399 48.599 104.753 50.6219C104.853 51.2037 105.054 51.8871 104.954 52.4824Z" fill="#D4CAFB"/>
<path d="M105.49 50.947C105.429 50.6358 105.362 50.3313 105.302 50.0269C105.169 49.215 104.981 48.4505 104.888 47.9431C104.827 47.598 104.64 47.3951 104.406 47.2936C104.225 46.7997 103.985 46.3599 103.644 46.0352C103.637 46.0284 103.637 46.0216 103.63 46.0149C103.49 45.8254 103.343 45.6225 103.195 45.4195C103.242 45.2233 103.195 45 103.022 44.77C101.811 43.1869 100.333 41.2045 98.36 40.6227C97.7848 40.4536 97.3099 40.9136 97.1962 41.4143C97.1093 41.421 97.0156 41.4278 96.9287 41.4346C96.0459 41.3466 95.163 41.6511 94.327 41.9893C94.2869 42.0096 94.2468 42.0299 94.2066 42.0502C94.1397 42.0435 94.0662 42.0435 93.9926 42.0502C93.9859 42.0502 93.9792 42.0435 93.9725 42.0502C93.8321 42.0638 93.6983 42.0908 93.5779 42.1382C93.4576 42.172 93.3372 42.2194 93.2101 42.287C92.9693 42.4088 92.8356 42.5847 92.7887 42.7809C92.568 43.0786 92.4008 43.4304 92.247 43.7687C91.3642 44.2288 91.0364 45.6631 90.8224 46.502C90.2472 47.2056 89.6854 48.437 89.4714 49.6412C89.0434 50.5817 88.8561 51.6845 88.9297 52.591C88.9698 53.1188 89.3109 53.4367 89.8259 53.4976C89.8259 53.4976 89.8259 53.4976 89.8326 53.4976C90.4412 54.1877 91.3775 54.1404 92.033 53.5788C92.1066 53.6127 92.1935 53.6397 92.2938 53.6532C92.3741 53.6668 92.461 53.6668 92.548 53.6803V53.6871C92.568 53.6871 92.5881 53.6871 92.6015 53.6803C92.6082 53.6803 92.6082 53.6803 92.6148 53.6803C93.5044 54.4381 95.1764 54.208 96.1061 53.748C96.1462 53.7277 96.1796 53.7074 96.2131 53.6871C97.544 54.3298 99.497 54.4854 100.453 53.7683C100.507 53.7277 100.554 53.6803 100.607 53.6329C100.808 53.6668 101.008 53.7006 101.216 53.7209C101.376 53.7412 101.517 53.7141 101.637 53.66C101.804 53.6735 101.978 53.6803 102.152 53.6735C102.359 53.6668 102.567 53.5924 102.741 53.4638C102.975 53.4706 103.189 53.3962 103.356 53.2676C103.403 53.3217 103.436 53.3759 103.483 53.4232C103.851 53.8291 104.493 53.775 104.868 53.4232C105.316 52.997 105.456 52.2934 105.449 51.5018C105.503 51.3259 105.523 51.1432 105.49 50.947Z" fill="#D4CAFB"/>
<path d="M51.663 31.34C51.0143 30.4334 50.0913 29.9259 49.1148 29.8448C48.7068 29.7433 48.2654 29.7433 47.824 29.8448C47.5966 29.8109 47.3692 29.8109 47.1753 29.8312C45.5233 30.0139 44.5067 31.7121 44.0987 33.187C42.9015 37.5711 48.2119 40.7441 51.0544 36.9486C52.2449 35.3587 52.9003 33.072 51.663 31.34Z" fill="#D4CAFB"/>
<path d="M57.34 48.2878C56.7247 46.2851 55.862 44.2825 54.5979 42.6114C53.267 40.8524 50.9796 39.5872 48.7591 39.5331C47.9164 39.5128 47.2677 39.6684 46.5654 39.9728C43.1545 40.6223 40.9608 44.2961 40.1582 47.503C39.8505 48.7343 39.5027 49.9589 39.2954 51.2105C39.155 52.0562 38.8005 53.3958 39.1483 54.2212C39.777 55.7096 42.8936 55.3984 44.1243 55.4661C46.8865 55.6149 49.7757 55.6487 52.538 55.4458C53.9625 55.3443 56.8652 55.4796 57.7881 54.1468C58.7044 52.814 57.7681 49.6815 57.34 48.2878ZM56.1295 52.4824C56.0091 53.1658 56.2031 52.9831 55.4874 53.1725C54.4909 53.4364 53.2937 53.4567 52.2637 53.5243C49.8961 53.6732 47.455 53.6326 45.0873 53.5717C43.9169 53.5446 42.7465 53.4567 41.5828 53.3281C41.1882 53.2808 40.9675 53.2064 40.8805 53.1928C40.827 52.6854 41.0811 51.8871 41.148 51.4202C41.6162 48.2878 42.4388 44.9726 44.452 42.6994C45.0539 42.5438 45.5957 42.1108 46.1842 41.9146C46.9199 41.671 47.7559 41.5154 48.5384 41.5289C50.8592 41.583 52.6851 42.97 53.802 44.9388C54.8052 46.7114 55.5744 48.599 55.9288 50.6219C56.0292 51.2037 56.2298 51.8871 56.1295 52.4824Z" fill="#D4CAFB"/>
<path d="M56.6653 50.947C56.6051 50.6358 56.5382 50.3313 56.4781 50.0269C56.3443 49.215 56.157 48.4505 56.0634 47.9431C56.0032 47.598 55.8159 47.3951 55.5818 47.2936C55.4013 46.7997 55.1605 46.3599 54.8194 46.0352C54.8127 46.0284 54.8127 46.0216 54.806 46.0149C54.6656 45.8254 54.5184 45.6225 54.3713 45.4195C54.4181 45.2233 54.3713 45 54.1974 44.77C52.9868 43.1869 51.5088 41.2045 49.5358 40.6227C48.9606 40.4536 48.4857 40.9136 48.372 41.4143C48.2851 41.421 48.1914 41.4278 48.1045 41.4346C47.2217 41.3466 46.3388 41.6511 45.5028 41.9893C45.4627 42.0096 45.4225 42.0299 45.3824 42.0502C45.3155 42.0435 45.242 42.0435 45.1684 42.0502C45.1617 42.0502 45.155 42.0435 45.1483 42.0502C45.0079 42.0638 44.8741 42.0908 44.7537 42.1382C44.6333 42.172 44.513 42.2194 44.3859 42.287C44.1451 42.4088 44.0113 42.5847 43.9645 42.7809C43.7438 43.0786 43.5766 43.4304 43.4228 43.7687C42.5399 44.2288 42.2122 45.6631 41.9982 46.502C41.423 47.2056 40.8612 48.437 40.6472 49.6412C40.2192 50.5817 40.0319 51.6845 40.1055 52.591C40.1456 53.1188 40.4867 53.4367 41.0017 53.4976C41.0017 53.4976 41.0017 53.4976 41.0084 53.4976C41.617 54.1877 42.5533 54.1404 43.2088 53.5788C43.2823 53.6127 43.3693 53.6397 43.4696 53.6532C43.5499 53.6668 43.6368 53.6668 43.7238 53.6803V53.6871C43.7438 53.6871 43.7639 53.6871 43.7773 53.6803C43.7839 53.6803 43.7839 53.6803 43.7906 53.6803C44.6802 54.4381 46.3522 54.208 47.2818 53.748C47.322 53.7277 47.3554 53.7074 47.3889 53.6871C48.7198 54.3298 50.6727 54.4854 51.6291 53.7683C51.6827 53.7277 51.7295 53.6803 51.783 53.6329C51.9836 53.6668 52.1843 53.7006 52.3916 53.7209C52.5521 53.7412 52.6926 53.7141 52.8129 53.66C52.9802 53.6735 53.154 53.6803 53.3279 53.6735C53.5353 53.6668 53.7426 53.5924 53.9165 53.4638C54.1506 53.4706 54.3646 53.3962 54.5318 53.2676C54.5786 53.3217 54.6121 53.3759 54.6589 53.4232C55.0267 53.8291 55.6688 53.775 56.0433 53.4232C56.4914 52.997 56.6319 52.2934 56.6252 51.5018C56.6787 51.3259 56.6988 51.1432 56.6653 50.947Z" fill="#D4CAFB"/>
<path d="M87.8155 28.9816C87.8039 28.0498 86.3671 28.0498 86.3845 28.9816C86.4251 31.5836 86.4656 34.2912 86.3266 36.9225C85.9674 36.2954 85.6603 35.5922 85.4054 35.1819C84.7218 34.086 83.3894 32.7499 83.0302 31.525C83.0302 31.525 83.0302 31.5309 83.0244 31.5309C82.9027 31.0738 82.0685 31.0386 82.0742 31.6539C82.1032 33.1718 83.65 34.8655 84.3858 36.1313C84.9593 37.1159 85.5445 38.6865 86.5525 39.3194C87.0391 39.6242 87.5664 39.2139 87.6127 38.7041C87.9024 35.5277 87.856 32.1697 87.8155 28.9816Z" fill="#2B2C54"/>
<path d="M87.1303 4.13912C83.1851 3.58238 79.3093 3.48276 75.3698 4.13327C71.4999 4.7662 67.1722 5.69216 63.9279 8.05392C59.0268 11.6171 54.9251 19.7514 59.9421 24.8851C62.7461 27.7568 66.871 29.3391 70.5961 30.5229C72.2414 31.0445 73.9678 31.6364 75.7001 31.7653C76.9978 31.8591 78.2665 31.9411 79.5642 32.0818C80.0277 32.1345 81.5398 31.9528 81.8874 32.2224C82.6115 32.785 83.3183 31.5367 82.6057 30.98C82.0032 30.5112 81.2327 30.7456 80.5317 30.7221C78.6315 30.6518 76.2736 30.5463 74.414 30.1302C70.7931 29.3156 67.0796 27.9912 63.8758 26.0865C62.2189 25.102 60.5272 23.842 59.6524 22.0545C58.4822 19.6459 59.189 16.6746 60.3593 14.3949C62.4738 10.2633 66.1526 7.966 70.4513 6.66498C78.9385 4.0981 88.3238 4.3501 95.8725 9.29046C100.235 12.1445 101.058 16.9559 98.0972 21.3278C96.9096 23.0801 95.4844 24.4046 93.8101 25.6587C93.0859 26.1979 92.3676 26.8191 91.5623 27.2293C90.3688 27.8388 89.1407 27.8798 87.8661 27.9795C87.7445 27.9267 87.6112 27.915 87.4953 27.9502C87.3795 27.9853 87.2636 28.0205 87.1477 28.0556C86.4641 28.2608 86.6147 29.2629 87.3157 29.2922C87.3853 29.2981 87.449 29.2922 87.5185 29.2981C87.6402 29.3625 87.7734 29.3567 87.8951 29.3039C91.2089 29.2981 93.4683 27.915 96.0811 25.7408C98.6707 23.59 101.023 20.3316 101.313 16.8739C101.944 9.34321 93.4393 5.02991 87.1303 4.13912Z" fill="#2B2C54"/>
<path d="M67.283 6.59469C66.947 6.59469 66.6225 6.65916 66.3097 6.76465C65.9621 5.90902 65.852 4.94205 65.3364 4.13331C64.7918 3.27768 64.0155 2.55099 63.1871 1.98838C61.2753 0.693222 59.0796 0.30056 56.8375 0.0895833C51.6235 -0.396834 46.4153 1.05656 43.0783 5.45776C40.6567 8.65171 36.9432 15.022 40.4134 18.6672C41.9139 20.2495 44.0342 20.7067 46.1198 20.9294C46.5659 20.9763 47.7362 20.8473 48.1475 21.0231C48.3445 21.0231 48.5415 21.0231 48.7442 21.0231C48.5646 21.4861 48.4314 21.9549 48.3445 22.4472C48.1244 23.3849 47.8462 24.4105 47.8115 25.3716C47.7883 26.0221 48.5994 26.2975 49.0339 25.8814C50.6155 24.387 52.0638 21.9608 54.5144 22.037C55.8874 22.078 56.9303 22.5937 58.2975 22.0897C59.1433 21.7791 58.7783 20.4019 57.9209 20.7125C56.1539 21.3572 54.4101 19.9741 52.7243 20.6715C51.5656 21.1521 50.5923 22.1132 49.6828 23.0919C50.1231 21.3161 50.4359 19.599 48.1475 19.5697C45.9692 19.5463 42.9914 19.4291 41.4214 17.6416C39.3358 15.2623 41.2302 11.0018 42.6033 8.73962C45.2682 4.35014 49.5437 1.08001 54.8388 1.34373C57.2315 1.46094 59.7806 1.64261 61.9067 2.86158C63.0944 3.54726 64.1198 4.55526 64.6354 5.85628C64.9193 6.58298 64.9598 7.3331 65.4059 7.98361C65.6087 8.2825 66.0026 8.43488 66.3329 8.22976C66.5356 8.10083 66.947 7.77851 67.2077 7.61442C67.3177 7.62028 67.4336 7.58512 67.5263 7.48549C67.5553 7.45619 67.59 7.42102 67.619 7.39172C67.8971 7.11042 67.6943 6.60055 67.283 6.59469Z" fill="#2B2C54"/>
<path d="M69.5063 15.8071C68.9559 15.8071 68.3824 16.0474 67.9942 16.4401C67.6235 16.8151 67.3454 17.4305 67.3685 17.9696C67.4207 19.1417 68.3071 20.138 69.5121 20.138C70.0625 20.138 70.636 19.8977 71.0241 19.5051C71.3949 19.13 71.673 18.5147 71.6498 17.9755C71.5977 16.8034 70.7055 15.8071 69.5063 15.8071Z" fill="#2B2C54"/>
<path d="M78.6029 15.0806C78.0873 15.0806 77.5485 15.3091 77.1836 15.6783C76.8359 16.03 76.5752 16.6101 76.5926 17.1141C76.639 18.2159 77.4732 19.1477 78.6029 19.1477C79.1185 19.1477 79.6573 18.9192 80.0223 18.5499C80.3699 18.1983 80.6306 17.6181 80.6132 17.1141C80.5669 16.0124 79.7326 15.0806 78.6029 15.0806Z" fill="#2B2C54"/>
<path d="M89.472 15.6433C89.1476 14.8638 88.3365 14.2368 87.4617 14.2778C86.697 14.3129 85.9613 14.6939 85.5615 15.3796C85.3124 15.8132 85.2371 16.3055 85.3008 16.7978C85.3703 17.3135 85.5789 17.671 85.9033 18.0753L85.9381 18.1222C86.2567 18.509 86.9751 18.7786 87.4559 18.761C87.9947 18.7376 88.6204 18.5618 88.9738 18.1222L89.0086 18.0753C89.2577 17.7706 89.4546 17.4717 89.5763 17.0908C89.7327 16.622 89.6574 16.0887 89.472 15.6433Z" fill="#2B2C54"/>
<path d="M60.8937 10.8963C60.8358 10.4568 60.7547 10.0935 60.4302 9.77114C60.1579 9.4957 59.7061 9.28471 59.3179 9.30229C58.9124 9.31987 58.4894 9.45468 58.2056 9.77114C58.1245 9.87663 58.0434 9.98797 57.9565 10.0935C57.8116 10.3396 57.7421 10.6092 57.7421 10.8963C57.6784 11.4003 57.9391 11.8282 58.2345 12.2032C58.4547 12.4845 58.9819 12.6721 59.3179 12.6603C59.6945 12.6428 60.158 12.5197 60.4013 12.2032C60.6909 11.8282 60.9574 11.3886 60.8937 10.8963Z" fill="#2B2C54"/>
<path d="M54.2542 10.6621C54.1673 10.0292 53.6227 9.41383 52.9333 9.47829C52.4235 9.52517 52.0006 9.75374 51.792 10.2519C51.7688 10.3046 51.7689 10.3574 51.7515 10.4101C51.456 10.8086 51.3807 11.3654 51.653 11.8401C52.1454 12.6957 53.2345 12.5785 53.8197 11.9162C54.1325 11.5705 54.3179 11.1427 54.2542 10.6621Z" fill="#2B2C54"/>
<path d="M47.8477 9.51323C47.5464 9.3257 47.2046 9.33155 46.8686 9.30225C46.9729 9.31397 47.0772 9.33155 47.1873 9.34327C46.6717 9.27295 46.2082 9.31983 45.8142 9.71248C45.4898 10.0407 45.3623 10.4743 45.4261 10.9197C45.484 11.3417 45.7099 11.6757 46.017 11.8926C46.2893 12.3731 46.8686 12.6427 47.4537 12.3966C48.0852 12.127 48.4965 11.4648 48.5371 10.7791C48.5661 10.2634 48.2706 9.78281 47.8477 9.51323Z" fill="#2B2C54"/>
</svg>
