<svg width="182" height="94" viewBox="0 0 182 94" fill="none" xmlns="http://www.w3.org/2000/svg">
<path d="M178.45 55.581C178.62 55.871 177.95 56.1909 178.48 56.4809C178.52 56.5009 178.54 56.701 178.51 56.721C178.05 57.001 178.03 57.241 178.39 57.681C178.73 58.101 178.59 58.461 178.14 58.681C177.5 58.981 176.89 59.291 176.4 59.821C176.19 60.041 175.79 60.151 175.47 60.191C174.02 60.361 172.57 60.511 171.12 60.631C170.19 60.711 169.25 60.741 168.32 60.801C167.1 60.881 166.27 61.541 165.68 62.571C165.24 63.331 164.76 64.061 164.34 64.821C164.09 65.281 163.88 65.771 163.73 66.271C163.6 66.711 163.6 67.201 163.5 67.651C163.2 68.951 163.25 70.0809 164.7 70.7009C164.81 70.7509 164.84 70.9909 164.91 71.1409C164.45 72.1009 163.44 71.701 162.71 72.101C162.45 73.131 162.83 74.1609 162.81 75.2009C162.81 75.4009 162.97 75.641 163.12 75.811C164.05 76.821 164.3 78.061 164.35 79.371C164.4 80.551 164.57 81.6909 165.02 82.7909C165.53 84.0509 165.4 85.3009 164.77 86.5109C164.55 86.9309 164.24 87.101 163.78 87.091C162.09 87.041 160.41 87.001 158.72 86.961C158.2 86.951 157.64 86.901 157.24 87.321C156.91 87.661 156.52 87.651 156.11 87.631C152.37 87.471 148.64 87.311 144.9 87.161C141.57 87.031 138.24 86.911 134.91 86.781C131.64 86.661 128.37 86.541 125.09 86.401C123.98 86.351 122.87 86.231 121.77 86.191C116.45 86.031 111.13 85.841 105.8 85.751C103 85.701 100.19 85.9209 97.38 85.8909C94.8 85.8609 92.24 86.1409 89.67 86.2009C84.41 86.3109 79.14 86.3609 73.88 86.5109C68.97 86.6509 64.07 86.911 59.16 87.061C55.77 87.161 52.38 87.2309 48.99 87.2009C44.25 87.1609 39.52 87.001 34.78 86.901C32.15 86.841 29.52 86.8009 26.89 86.7309C26.31 86.7209 25.72 86.651 25.14 86.601C24.34 86.521 23.71 86.1009 23.18 85.5409C23.03 85.3809 22.83 85.1409 22.84 84.9509C22.89 84.2009 22.58 83.641 22.23 83.001C21.95 82.501 21.99 81.811 22.46 81.241C22.94 80.661 23.37 80.0309 23.77 79.3909C23.89 79.2009 23.8 78.871 23.81 78.591C24.68 78.111 24.68 78.111 25.65 76.781C25.52 76.741 25.36 76.681 25.21 76.621C25.05 76.561 24.9 76.4909 24.65 76.3909C25.53 75.5309 26.46 75.0809 27.68 75.1109C29.37 75.1509 31.07 75.0809 32.77 75.0409C33.03 75.0309 33.28 74.931 33.53 74.781C31.24 74.371 28.93 74.5509 26.66 74.4209C26.45 73.9809 26.71 73.831 27 73.781C28.41 73.521 29.8 73.1509 31.18 73.2309C31.47 72.6609 31.21 72.431 30.84 72.351C30.39 72.241 29.92 72.181 29.45 72.161C27.82 72.091 26.2 71.911 24.56 72.071C23.34 72.191 22.11 72.261 20.88 72.311C20.48 72.331 20.08 72.2309 19.69 72.1709C19.46 72.1309 19.22 71.941 19.03 71.991C17.98 72.291 17.26 71.641 16.44 71.211C15.61 70.771 15.22 70.031 15.35 69.191C15.61 67.481 14.69 66.161 14.05 64.741C13.89 64.381 13.56 64.091 13.26 63.811C12.92 63.491 12.53 63.2209 12.18 62.9209C10.86 61.7609 9.33 61.1309 7.56 61.0409C7.16 61.0209 6.74002 60.971 6.36002 60.841C4.88002 60.331 4.04 59.2209 4.22 57.6709C4.31 56.8709 4.17002 56.171 3.96002 55.381C4.83002 54.171 4.77002 52.661 5.08002 51.251C5.14002 50.981 4.71002 50.661 5.11002 50.341C5.67002 49.881 5.39001 49.411 5.04001 48.911C5.37001 48.301 6.02002 47.701 5.36002 46.911C5.31002 46.851 5.34001 46.681 5.39001 46.591C5.77001 45.911 5.42 45.331 5.12 44.781C4.84 44.271 4.44002 43.831 4.49002 43.101C4.87002 42.901 5.29001 42.7209 5.67001 42.4809C6.12001 42.2009 6.17999 41.821 5.92999 41.281C5.66999 40.711 5.44001 38.7409 5.67001 38.2909C6.09001 37.5009 6.11 36.681 6.12 35.811C6.13 35.111 6.57 34.4209 6.13 33.6709C5.92 33.6409 5.69002 33.611 5.46002 33.581C5.46002 33.491 5.43001 33.401 5.45001 33.321C5.67001 32.401 6.58 31.921 6.94 30.961C6.75 30.631 6.52002 30.241 6.33002 29.911C6.46002 29.711 6.72 29.4909 6.72 29.2609C6.72 28.3909 6.63 27.5109 6.59 26.6409C6.56 26.0809 6.73 25.701 7.25 25.341C8.42 24.531 8.60001 22.791 7.79001 21.631C7.52001 21.241 7.24999 20.911 6.67999 20.741C7.23999 20.391 7.99 20.2709 7.87 19.4209C7.86 19.3209 7.92002 19.1809 7.99002 19.1109C8.23002 18.8709 8.70002 18.6709 8.71002 18.4209C8.76002 17.7409 8.72 17.031 8.53 16.381C8.27 15.481 8.33999 14.7809 9.17999 14.2609C10.22 13.6209 10.38 12.431 10.77 11.441C10.99 10.881 10.68 10.111 10.61 9.38097C10.89 9.09097 11.19 8.72097 11.55 8.44097C11.86 8.20097 12.23 7.99096 12.61 7.87096C14.69 7.21096 16.83 6.92096 19.01 6.87096C21.94 6.80096 24.86 6.75096 27.79 6.65096C31.12 6.53096 34.44 6.35095 37.77 6.24095C39.23 6.19095 40.69 6.28094 42.16 6.29094C46.14 6.33094 50.12 6.35095 54.1 6.42095C55.14 6.44095 56.18 6.64095 57.22 6.67095C58.26 6.70095 59.31 6.61096 60.36 6.56096C60.89 6.54096 61.41 6.46095 61.94 6.49095C63.76 6.59095 65.56 6.48094 67.37 6.29094C68 6.22094 68.65 6.29096 69.29 6.28096C69.78 6.27096 70.21 6.34096 70.55 6.75096C70.83 7.09096 71.23 7.14095 71.66 7.14095C73.47 7.15095 75.28 7.19096 77.09 7.22096C77.38 7.22096 77.68 7.28096 77.97 7.25096C79.18 7.11096 80.27 7.30097 81.26 8.10097C81.87 8.59097 82.7 8.53096 83.46 8.56096C83.8 8.57096 84.1 8.49095 84.28 8.96095C84.35 9.13095 84.91 9.22096 85.22 9.18096C87.57 8.89096 89.88 9.28097 92.17 9.69097C92.83 9.81097 93.59 9.65095 94.22 10.241C93.57 10.451 92.98 10.641 92.41 10.821C92.24 11.891 93.47 11.3309 93.65 11.9509C93.57 12.0409 93.5 12.171 93.42 12.181C91.96 12.291 90.53 12.531 89.14 13.021C88.6 13.211 87.99 13.2209 87.41 13.2609C86.67 13.3109 86.01 13.501 85.64 14.191C85.23 14.941 85.33 15.6609 86 16.3909C87.4 16.4809 88.91 16.631 90.42 16.661C94.04 16.731 97.67 16.7709 101.29 16.7609C105.56 16.7509 109.83 16.6709 114.1 16.6409C115.21 16.6309 116.32 16.691 117.44 16.721C122.18 16.871 126.91 17.001 131.65 17.181C134.75 17.301 137.84 17.5109 140.94 17.6409C143.8 17.7609 146.67 17.8409 149.53 17.9209C150 17.9309 150.42 17.991 150.87 18.191C151.33 18.391 151.89 18.4109 152.41 18.4509C154.62 18.6309 156.84 18.801 159.06 18.961C160.75 19.081 162.38 19.431 163.95 20.091C164.16 20.181 164.39 20.261 164.62 20.281C165.44 20.361 166.18 20.5409 166.8 21.1709C167.02 21.3909 167.47 21.361 167.77 21.521C168.17 21.731 168.52 22.031 168.97 22.351C168.41 23.461 168.28 24.5309 168.83 25.5409C168.52 26.0009 168.21 26.361 168.02 26.771C167.77 27.301 167.62 27.871 168.01 28.441C168.17 28.671 168.31 28.961 168.33 29.241C168.38 29.851 168.75 30.1609 169.22 30.4509C169.36 30.5309 169.44 30.701 169.6 30.901C169.4 31.301 169.17 31.701 169 32.121C168.78 32.681 168.9 33.1609 169.41 33.5109C169.84 33.8009 170.32 34.0209 170.79 34.2609C171.83 34.7809 172.14 35.941 171.47 36.901C171.2 37.281 170.85 37.621 170.65 38.031C170.4 38.551 170.26 39.1209 170.09 39.6409C170.87 40.4909 171.86 40.181 172.71 40.221C172.95 40.631 172.75 40.811 172.46 40.941C172.06 41.131 171.76 41.371 171.85 41.871C171.92 41.951 171.98 42.071 172.07 42.121C172.35 42.261 172.81 42.161 172.8 42.681C172.79 43.011 172.63 43.231 172.32 43.331C171.98 43.441 171.61 43.551 171.63 43.991C171.65 44.361 171.87 44.641 172.25 44.751C173.94 45.251 174.29 46.6609 174.54 48.1409C174.6 48.4809 174.56 48.841 174.55 49.191C174.55 49.831 174.54 50.461 174.53 50.771C175.2 51.491 175.67 52.0109 176.16 52.5109C177.14 53.5109 178.29 53.891 179.67 53.441C180.06 53.311 180.46 53.2309 180.86 53.1409C180.95 53.1209 181.05 53.191 181.23 53.241C180.63 53.571 180.07 53.851 179.55 54.191C179.16 54.451 178.82 54.771 178.49 55.101C178.42 55.171 178.51 55.401 178.53 55.561L178.45 55.581ZM37.78 74.881C37.77 74.831 37.77 74.7809 37.76 74.7309C37.14 74.7609 36.52 74.791 35.91 74.821C35.91 74.871 35.91 74.921 35.91 74.971C36.54 74.941 37.16 74.911 37.78 74.881ZM34.55 74.741L34.68 74.6709L34.55 74.621V74.741ZM39.25 74.7609C39.21 74.7509 39.17 74.7309 39.12 74.7309C39.11 74.7309 39.1 74.791 39.09 74.821C39.13 74.831 39.17 74.851 39.21 74.841C39.23 74.841 39.24 74.7909 39.25 74.7609ZM34.22 0.000963646C34.11 0.000963646 34 0.0309514 33.9 0.0509514C33.94 0.110951 34 0.230944 34.03 0.230944C34.13 0.220944 34.23 0.150949 34.32 0.110949C34.29 0.060949 34.25 -0.00903635 34.22 0.000963646ZM65.24 92.6409C65.22 92.6309 65.1 92.7809 65.1 92.8609C65.1 92.9509 65.2 93.1109 65.23 93.1109C65.36 93.0809 65.48 93.0009 65.7 92.8909C65.49 92.7709 65.37 92.6909 65.24 92.6409ZM178.45 55.581C178.7 55.601 178.95 55.611 179.19 55.631C179.19 55.591 179.19 55.551 179.19 55.501C178.95 55.531 178.7 55.551 178.45 55.581C178.45 55.581 178.46 55.571 178.45 55.581ZM0.27002 57.3909C0.29002 57.3909 0.349996 57.281 0.339996 57.271C0.289996 57.211 0.210004 57.121 0.160004 57.131C0.100004 57.131 0.05 57.241 0 57.301C0.09 57.341 0.17002 57.3709 0.27002 57.3909Z" fill="white"/>
<path d="M64.3377 30.381C64.5434 30.3078 64.7807 30.0098 64.9705 29.7693C68.5564 25.2157 72.406 20.7822 76.4191 16.5945C76.6616 16.3436 77.0308 16.2547 77.363 16.3802C77.69 16.5056 77.9114 16.8141 77.922 17.1592C78.1118 23.0931 79.1823 28.959 81.1018 34.5844C81.1809 34.8249 81.2917 35.1491 81.4446 35.2798C81.5923 35.4052 81.914 35.4628 82.2304 35.5098C83.9811 35.7608 85.8004 35.9019 87.5618 36.0379C91.2584 36.3254 95.0816 36.6234 98.6517 37.9566C98.9418 38.0663 99.1527 38.3225 99.2054 38.6258C99.2529 38.9342 99.1369 39.2427 98.8943 39.4361C93.99 43.3677 88.8221 47.0796 83.5223 50.4831C83.997 54.7806 84.9936 59.0206 86.4913 63.0828C86.602 63.3861 86.5335 63.7207 86.3172 63.9559C86.101 64.1912 85.7741 64.2958 85.4577 64.2173C80.1315 62.8894 75.1113 59.993 71.3144 56.0563C70.998 55.7321 70.5708 55.2877 70.2492 55.293C70.0751 55.2982 69.8115 55.4341 69.5847 55.5544L55.6102 62.9103C55.2833 63.0828 54.8878 63.0306 54.6136 62.7848C54.3393 62.5391 54.2549 62.1522 54.3973 61.8124L59.0748 50.6399C59.2067 50.3263 59.3702 49.9289 59.328 49.6675C59.2911 49.4479 59.0854 49.1865 58.8639 48.9094C55.7948 45.1243 52.2669 41.6947 48.3857 38.7251C48.0798 38.4898 47.969 38.0873 48.1009 37.7318C48.238 37.3762 48.5913 37.1514 48.9763 37.1776L64.1531 38.2127C64.6594 38.2493 64.9969 38.6571 64.9652 39.1329C64.9336 39.6086 64.517 39.9694 64.0371 39.938L51.6183 39.0911C54.7612 41.7208 57.6458 44.6485 60.2192 47.8272C60.4987 48.1723 60.9258 48.6951 61.0418 49.38C61.1684 50.1328 60.8889 50.8072 60.6832 51.3039L56.9391 60.2492L68.7673 54.0225C69.1312 53.8291 69.6269 53.5677 70.2228 53.5625C71.3091 53.5468 72.0738 54.3362 72.58 54.859C75.7704 58.1684 79.8837 60.6936 84.3028 62.0895C83.0108 58.2102 82.146 54.195 81.7399 50.1276C81.7083 49.8034 81.8612 49.4898 82.1354 49.312C87.0924 46.1542 91.9387 42.7141 96.5582 39.0806C93.6631 38.2441 90.6256 38.0088 87.4352 37.7579C85.6475 37.6167 83.7965 37.4756 81.9878 37.2142C81.5659 37.1514 80.8593 37.0521 80.3108 36.5816C79.7993 36.1424 79.5936 35.5359 79.4565 35.1334C77.7058 29.9942 76.6405 24.6667 76.2872 19.2609C72.8173 22.9676 69.4846 26.8521 66.3522 30.8254C66.0357 31.2228 65.6086 31.7717 64.9125 32.007C64.4168 32.1743 63.9317 32.1325 63.5414 32.1011C60.7729 31.8606 57.9463 31.8763 55.2095 31.892L35.3867 32.0018C39.8691 39.4361 45.5275 46.0235 52.2194 51.6019C52.5253 51.8581 52.6149 52.2816 52.4462 52.6371C49.7726 58.1946 47.2044 63.888 44.805 69.5814C53.1844 67.6522 61.3424 64.7924 69.0838 61.07C69.4265 60.9079 69.8959 60.6779 70.4496 60.6936C71.2037 60.7145 71.7626 61.1537 72.1371 61.4464C73.2656 62.33 74.3888 63.224 75.512 64.118C78.4968 66.4968 81.5817 68.954 84.7563 71.1603C87.3244 72.9483 90.093 74.6317 93.0936 75.1284C91.7647 70.9407 91.6961 66.4968 91.6276 62.1836C91.5854 59.35 91.5379 56.4222 91.1319 53.6304C91.0844 53.3115 91.2215 52.9926 91.4852 52.8044C98.2984 47.9579 104.69 42.4684 110.506 36.4718C103.15 34.3544 95.609 32.6187 88.0733 31.3169C87.7463 31.2594 87.2559 31.1757 86.8446 30.8359C86.3383 30.4176 86.1801 29.806 86.0905 29.44L80.1052 5.71484C74.0882 12.7257 67.3752 19.1929 60.1401 24.9595C60.0504 25.0327 59.9502 25.0797 59.8448 25.1111L61.4057 30.2399C62.1651 30.2713 62.9244 30.3183 63.6785 30.381C63.9369 30.4072 64.1901 30.4281 64.3377 30.381Z" fill="#D4CAFB"/>
<path d="M70.3924 62.4287C70.5611 62.4339 70.867 62.6692 71.0515 62.8104C72.1801 63.6887 73.298 64.5827 74.416 65.4715C77.4218 67.8659 80.5279 70.3388 83.7499 72.5817C86.9087 74.7775 90.368 76.8321 94.3284 76.9994C94.6237 77.0099 94.9031 76.874 95.0719 76.6387C95.2459 76.4034 95.2828 76.095 95.1774 75.8231C93.511 71.5465 93.4424 66.9876 93.3686 62.1621C93.3264 59.4487 93.2842 56.6464 92.9309 53.9121C100.061 48.799 106.731 42.9906 112.764 36.6437C112.97 36.4241 113.049 36.1157 112.97 35.8281C112.891 35.5406 112.664 35.3105 112.374 35.2217C104.522 32.9004 96.4483 31.0183 88.3747 29.6171C88.2587 29.5962 88.0161 29.5544 87.9581 29.5126C87.8895 29.4551 87.8104 29.1309 87.784 29.0264L81.3822 3.65436C81.3031 3.34067 81.0499 3.09494 80.7283 3.02175C80.4066 2.94855 80.0744 3.06359 79.8634 3.31454C73.6408 10.7384 66.6377 17.5716 59.044 23.6153C58.6696 23.9133 58.6063 24.457 58.9122 24.8334C59.1442 25.1157 59.5133 25.2151 59.8456 25.1157C59.951 25.0844 60.0512 25.0373 60.1409 24.9641C67.376 19.2027 74.089 12.7356 80.106 5.71945L86.0913 29.4446C86.1862 29.8106 86.3391 30.4275 86.8454 30.8405C87.2567 31.1803 87.7472 31.264 88.0741 31.3215C95.6151 32.6233 103.151 34.359 110.507 36.4764C104.691 42.473 98.2939 47.9625 91.486 52.809C91.2223 52.9972 91.0852 53.3161 91.1327 53.635C91.5387 56.4269 91.5862 59.3546 91.6284 62.1882C91.6917 66.5014 91.7602 70.9453 93.0944 75.133C90.0991 74.6363 87.3253 72.9529 84.7571 71.1649C81.5825 68.9586 78.4976 66.5014 75.5129 64.1226C74.3896 63.2286 73.2664 62.3346 72.1379 61.4511C71.7635 61.1583 71.2045 60.7191 70.4504 60.6982C69.8967 60.6825 69.4274 60.9073 69.0846 61.0746C61.3432 64.8023 53.1853 67.662 44.8058 69.586C47.2052 63.8926 49.7734 58.1992 52.447 52.6417C52.6158 52.2862 52.5261 51.8627 52.2202 51.6065C45.523 46.0229 39.8699 39.4355 35.3875 32.0064L55.2103 31.8966C57.9472 31.8809 60.7737 31.8652 63.5422 32.1057C63.9325 32.1371 64.4176 32.1789 64.9133 32.0116C65.6094 31.7763 66.0418 31.2274 66.353 30.83C69.4854 26.8515 72.8181 22.9722 76.288 19.2655C76.6414 24.6713 77.7066 29.9988 79.4574 35.138C79.5945 35.5406 79.8001 36.147 80.3116 36.5862C80.8601 37.0567 81.5667 37.156 81.9886 37.2188C83.7974 37.4802 85.6483 37.6214 87.436 37.7625C90.6264 38.0082 93.6639 38.2435 96.559 39.0852C91.9395 42.7188 87.0932 46.1589 82.1362 49.3166C81.862 49.4944 81.7091 49.8081 81.7407 50.1322C82.1521 54.1997 83.0116 58.2149 84.3036 62.0941C79.8898 60.7034 75.7765 58.173 72.5808 54.8636C72.0746 54.3408 71.3099 53.5514 70.2236 53.5671C69.6277 53.5775 69.132 53.8389 68.7682 54.0272L56.9399 60.2538L60.6841 51.3085C60.8897 50.8171 61.1745 50.1374 61.0426 49.3846C60.9266 48.7049 60.4995 48.1769 60.22 47.8318C57.6466 44.6532 54.7568 41.7254 51.6191 39.0957L64.0379 39.9426C64.5178 39.974 64.9344 39.6133 64.9661 39.1375C64.9977 38.6617 64.6602 38.2487 64.1539 38.2174L48.9771 37.1822C48.5921 37.1561 48.2388 37.3809 48.1017 37.7364C47.9646 38.0919 48.0806 38.4944 48.3865 38.7297C52.2677 41.6993 55.7903 45.1289 58.8647 48.9141C59.0862 49.1859 59.2919 49.4526 59.3288 49.6721C59.371 49.9335 59.2075 50.3257 59.0756 50.6446L54.3981 61.817C54.2558 62.1516 54.3454 62.5437 54.6144 62.7894C54.8886 63.0352 55.2841 63.0822 55.611 62.9149L69.5856 55.559C69.8176 55.4387 70.076 55.3028 70.25 55.2976C70.5717 55.2924 71.0041 55.7367 71.3152 56.0609C75.1121 59.9924 80.1324 62.894 85.4585 64.222C85.7749 64.3004 86.1018 64.201 86.3181 63.9606C86.5343 63.7253 86.6028 63.3855 86.4921 63.0875C84.9997 59.0252 84.003 54.7852 83.5232 50.4877C88.8229 47.0894 93.9908 43.3723 98.8951 39.4407C99.1377 39.2473 99.259 38.9388 99.2062 38.6304C99.1588 38.3219 98.9426 38.0657 98.6525 37.9612C95.0825 36.628 91.2592 36.33 87.5626 36.0425C85.8013 35.9065 83.9819 35.7654 82.2312 35.5144C81.9148 35.4674 81.5931 35.4151 81.4454 35.2844C81.2925 35.1537 81.1818 34.8295 81.1027 34.589C79.1884 28.9636 78.1179 23.1029 77.9228 17.1638C77.9123 16.8135 77.6908 16.505 77.3638 16.3848C77.0316 16.2593 76.6624 16.343 76.4199 16.5991C72.4068 20.7868 68.5572 25.2203 64.9713 29.774C64.7815 30.0145 64.5442 30.3125 64.3385 30.3857C64.1909 30.4379 63.9325 30.4118 63.6741 30.3909C62.92 30.3281 62.1606 30.2811 61.4012 30.2497C59.313 30.1608 57.23 30.1661 55.1944 30.1765L33.8635 30.2915C33.5524 30.2915 33.2676 30.4589 33.1147 30.7255C32.9618 30.9921 32.9618 31.3215 33.1147 31.5881C37.7026 39.5296 43.5771 46.5666 50.5855 52.511C47.7642 58.4031 45.059 64.4468 42.5488 70.48C42.4275 70.778 42.4803 71.1178 42.6859 71.3635C42.8336 71.5361 43.0392 71.6459 43.2607 71.6668C43.3556 71.6772 43.4506 71.672 43.5402 71.6511C52.6316 69.701 61.4803 66.6687 69.844 62.6378C70.0285 62.5385 70.2658 62.4287 70.3924 62.4287Z" fill="#2B2C54"/>
</svg>
