<svg width="36" height="36" viewBox="0 0 36 36" fill="none" xmlns="http://www.w3.org/2000/svg">
<path d="M36 18C36 8.05891 27.9411 4.21466e-05 18 4.21466e-05C8.05887 4.21466e-05 0 8.05891 0 18C0 26.9844 6.58234 34.431 15.1875 35.7814V23.2032H10.6172V18H15.1875V14.0344C15.1875 9.52317 17.8748 7.03129 21.9864 7.03129C23.9557 7.03129 26.0156 7.38285 26.0156 7.38285V11.8125H23.7459C21.5098 11.8125 20.8125 13.2001 20.8125 14.6235V18H25.8047L25.0066 23.2032H20.8125V35.7814C29.4177 34.431 36 26.9844 36 18Z" fill="white"/>
<path d="M25.0066 23.1532L25.8047 17.9501H20.8125V14.5736C20.8125 13.1501 21.5098 11.7626 23.7459 11.7626H26.0156V7.33289C26.0156 7.33289 23.9557 6.98132 21.9864 6.98132C17.8748 6.98132 15.1875 9.4732 15.1875 13.9844V17.9501H10.6172V23.1532H15.1875V35.7314C16.1039 35.8752 17.0432 35.9501 18 35.9501C18.9568 35.9501 19.8961 35.8752 20.8125 35.7314V23.1532H25.0066Z" fill="#595BA9"/>
</svg>
