<svg width="36" height="36" viewBox="0 0 36 36" fill="none" xmlns="http://www.w3.org/2000/svg">
<g clip-path="url(#clip0_1_5950)">
<path d="M10.5449 0.12662C8.62971 0.21698 7.32182 0.52262 6.17846 0.9719C4.99514 1.43306 3.99218 2.0519 2.99426 3.05342C1.99634 4.05494 1.38182 5.05862 0.923905 6.24374C0.480745 7.38962 0.180505 8.69858 0.095905 10.6149C0.0113051 12.5311 -0.00741495 13.1471 0.00194505 18.0352C0.011305 22.9233 0.0329051 23.536 0.125785 25.4562C0.217225 27.3711 0.521785 28.6786 0.971065 29.8223C1.43294 31.0056 2.05106 32.0082 3.05294 33.0065C4.05482 34.0048 5.05778 34.6179 6.24578 35.0765C7.39058 35.5189 8.69991 35.8206 10.6158 35.9045C12.5317 35.9884 13.1484 36.0078 18.0351 35.9985C22.9217 35.9891 23.5369 35.9675 25.4568 35.8764C27.3767 35.7853 28.6774 35.4786 29.8215 35.0315C31.0048 34.5685 32.0081 33.9515 33.0057 32.9493C34.0032 31.947 34.6174 30.9426 35.0749 29.7568C35.5185 28.612 35.8198 27.3027 35.9029 25.3882C35.9868 23.4669 36.0066 22.8534 35.9973 17.9661C35.9879 13.0787 35.9659 12.466 35.8749 10.5465C35.7838 8.62694 35.4789 7.32338 35.0299 6.17894C34.5673 4.99562 33.9499 3.99374 32.9484 2.99474C31.9469 1.99574 30.9418 1.38194 29.7563 0.92546C28.6108 0.4823 27.3022 0.18026 25.3863 0.0974601C23.4703 0.0146601 22.8537 -0.00657988 17.9652 0.00278012C13.0768 0.0121401 12.4648 0.0330201 10.5449 0.12662ZM10.7551 32.6663C9.00015 32.59 8.04722 32.2984 7.41218 32.0543C6.57122 31.7303 5.97218 31.3386 5.33931 30.7119C4.70643 30.0851 4.31762 29.4839 3.9893 28.6447C3.7427 28.0097 3.4457 27.0579 3.36362 25.3029C3.27434 23.406 3.25562 22.8365 3.24518 18.0309C3.23474 13.2252 3.2531 12.6564 3.33626 10.7589C3.41114 9.0053 3.70454 8.0513 3.94826 7.41662C4.27226 6.57458 4.6625 5.97662 5.2907 5.3441C5.9189 4.71158 6.5183 4.32206 7.35818 3.99374C7.9925 3.74606 8.94435 3.45158 10.6986 3.36806C12.5969 3.27806 13.1657 3.26006 17.9706 3.24962C22.7755 3.23918 23.3458 3.25718 25.2448 3.3407C26.9983 3.41702 27.9527 3.70754 28.5867 3.9527C29.428 4.2767 30.0267 4.66586 30.6592 5.29514C31.2917 5.92442 31.6816 6.52166 32.0099 7.36334C32.2579 7.99586 32.5524 8.94734 32.6352 10.7027C32.7256 12.601 32.7461 13.1701 32.7547 17.9747C32.7634 22.7793 32.7465 23.3499 32.6633 25.2467C32.5866 27.0017 32.2957 27.955 32.0513 28.5907C31.7273 29.4313 31.3367 30.0307 30.7081 30.6629C30.0796 31.2951 29.4809 31.6846 28.6407 32.0129C28.0071 32.2602 27.0541 32.5554 25.3013 32.6389C23.403 32.7282 22.8342 32.7469 18.0275 32.7574C13.2208 32.7678 12.6538 32.7484 10.7555 32.6663M25.4291 8.38034C25.4298 8.80758 25.5572 9.22501 25.7952 9.57984C26.0331 9.93467 26.371 10.211 26.766 10.3738C27.161 10.5366 27.5954 10.5786 28.0143 10.4945C28.4332 10.4104 28.8177 10.2039 29.1192 9.90128C29.4208 9.59863 29.6258 9.21334 29.7084 8.79416C29.7909 8.37497 29.7473 7.94072 29.5831 7.54632C29.4188 7.15192 29.1413 6.81508 28.7856 6.57842C28.4299 6.34175 28.012 6.21589 27.5848 6.21674C27.012 6.21789 26.4632 6.44646 26.059 6.85219C25.6547 7.25792 25.4281 7.8076 25.4291 8.38034M8.7575 18.0186C8.76758 23.1234 12.9133 27.2523 18.0171 27.2425C23.1208 27.2328 27.2525 23.0874 27.2428 17.9826C27.2331 12.8778 23.0862 8.7479 17.9818 8.75798C12.8773 8.76806 8.74778 12.9145 8.7575 18.0186ZM11.9997 18.0121C11.9973 16.8254 12.3469 15.6647 13.0043 14.6767C13.6616 13.6886 14.5972 12.9177 15.6927 12.4614C16.7881 12.0051 17.9943 11.8839 19.1587 12.1131C20.323 12.3423 21.3933 12.9117 22.2341 13.7492C23.0749 14.5866 23.6485 15.6546 23.8823 16.8181C24.1161 17.9815 23.9997 19.1882 23.5477 20.2854C23.0957 21.3827 22.3285 22.3213 21.3431 22.9826C20.3577 23.6438 19.1984 23.998 18.0117 24.0004C17.2237 24.002 16.4431 23.8485 15.7145 23.5484C14.9859 23.2483 14.3235 22.8077 13.7652 22.2516C13.207 21.6955 12.7637 21.0349 12.4607 20.3075C12.1578 19.5801 12.0011 18.8001 11.9997 18.0121" fill="white"/>
</g>
<defs>
<clipPath id="clip0_1_5950">
<rect width="36" height="36" fill="white"/>
</clipPath>
</defs>
</svg>
