<svg width="220" height="97" viewBox="0 0 220 97" fill="none" xmlns="http://www.w3.org/2000/svg">
<path d="M0 0H220V97L0 86V0Z" fill="white"/>
<path d="M86.165 13H87.7459V39.6447H86.0623L86.165 13Z" fill="black"/>
<path d="M91.0104 13H89.4296V39.6447H91.0104V13Z" fill="black"/>
<path d="M98.8136 13H92.7637V39.6447H98.8136V13Z" fill="black"/>
<path d="M102.08 13H100.602V39.6447H102.08V13Z" fill="black"/>
<path d="M106.891 13H104.656V39.6447H106.891V13Z" fill="black"/>
<path d="M113.178 13H110.945V39.6447H113.178V13Z" fill="black"/>
<path d="M116.753 13H115.275V39.6447H116.753V13Z" fill="black"/>
<path d="M124.556 13H119.711V39.6447H124.556V13Z" fill="black"/>
<path d="M131.74 13H126.963V39.6447H131.74V13Z" fill="black"/>
<path d="M135.899 13H133.699V39.6447H135.899V13Z" fill="black"/>
<path d="M141.088 13H139.473V39.6447H141.088V13Z" fill="black"/>
<path d="M147.826 13H146.176V39.6447H147.826V13Z" fill="black"/>
<path d="M154.186 13H152.535V39.6447H154.186V13Z" fill="black"/>
<path d="M158.652 13H156.385V39.6447H158.652V13Z" fill="black"/>
<path d="M162.329 13H160.748V39.6447H162.329V13Z" fill="black"/>
<path d="M165.353 13H163.945V39.6447H165.353V13Z" fill="black"/>
<path d="M168.896 13H167.348V39.6447H168.896V13Z" fill="black"/>
<path d="M176.868 13H175.254V39.6447H176.868V13Z" fill="black"/>
<path d="M183.776 13H178.998V39.6447H183.776V13Z" fill="black"/>
<path d="M187.97 13H186.422V39.6447H187.97V13Z" fill="black"/>
<path d="M194.742 13H189.965V39.6447H194.742V13Z" fill="black"/>
<path d="M200 13L199.897 39.6447H198.246V13H200Z" fill="black"/>
<path d="M64.7496 13.1184H59.1992V69.0114H64.7496V13.1184Z" fill="url(#paint0_linear_4_8)"/>
<path d="M81.7092 13.1184H59.1992V18.0231H81.7092V13.1184Z" fill="url(#paint1_linear_4_8)"/>
<path d="M81.7092 38.6125H59.1992V43.5172H81.7092V38.6125Z" fill="url(#paint2_linear_4_8)"/>
<path d="M81.7092 64.1067H59.1992V69.0114H81.7092V64.1067Z" fill="url(#paint3_linear_4_8)"/>
<path d="M88.096 68.2145C87.3148 67.6505 86.7207 66.8269 86.3137 65.7459C85.9066 64.6627 85.7031 63.365 85.7031 61.8487V57.9351C85.7031 56.4086 85.9025 55.1047 86.2993 54.0216C86.696 52.9385 87.2757 52.117 88.0384 51.5529C88.799 50.9889 89.7138 50.7069 90.7807 50.7069C91.6729 50.7069 92.4911 50.9807 93.2332 51.5264C93.9753 52.074 94.5735 52.8425 95.0299 53.8336L94.7236 57.4569C94.7236 56.7049 94.6064 56.0611 94.3741 55.5257C94.1418 54.9903 93.8047 54.5836 93.3627 54.3036C92.9207 54.0237 92.3862 53.8847 91.7551 53.8847C90.7746 53.8847 90.016 54.2444 89.4774 54.9617C88.9388 55.679 88.6695 56.6885 88.6695 57.9862V61.8487C88.6695 63.1362 88.9388 64.1294 89.4774 64.8303C90.016 65.5313 90.7746 65.8807 91.7551 65.8807C92.3862 65.8807 92.9207 65.7356 93.3627 65.4454C93.8047 65.1552 94.1418 64.7363 94.3741 64.1886C94.6064 63.6409 94.7236 62.987 94.7236 62.2227L94.9271 65.9666C94.627 66.8433 94.1336 67.579 93.449 68.1716C92.7645 68.7643 91.9237 69.0606 90.9246 69.0606C89.8207 69.0606 88.8771 68.7786 88.096 68.2145ZM94.7236 43.9016H97.692V68.752H94.7236V43.9016Z" fill="url(#paint4_linear_4_8)"/>
<path d="M113.984 68.4946C113.157 68.4946 112.349 68.2535 111.661 67.8018L111.342 67.5934C110.425 66.9926 109.724 66.1097 109.243 64.9449C108.762 63.78 108.521 62.374 108.521 60.7248V58.769C108.521 57.0524 108.754 55.5892 109.216 54.3732C109.679 53.1593 110.351 52.2335 111.233 51.6C112.115 50.9645 113.176 50.6477 114.417 50.6477C115.587 50.6477 116.586 51.0094 117.412 51.7349C118.241 52.4584 118.872 53.5067 119.308 54.876C119.744 56.2472 119.962 57.8903 119.962 59.8052V60.9414H110.516V58.2009H117.345C117.264 56.7867 116.968 55.6852 116.461 54.9005C115.953 54.1157 115.27 53.7213 114.417 53.7213C113.373 53.7213 112.567 54.1443 111.996 54.9904C111.424 55.8365 111.138 57.034 111.138 58.5831V60.7881C111.138 62.2248 111.445 63.3284 112.055 64.0968C112.668 64.8652 113.535 65.2494 114.66 65.2494C115.217 65.2494 115.77 65.1104 116.319 64.8325C116.868 64.5545 117.357 64.1642 117.791 63.6635L119.6 65.9033C118.907 66.7269 118.128 67.3666 117.264 67.8161C116.401 68.2678 115.534 68.4926 114.66 68.4926H113.984V68.4946Z" fill="url(#paint5_linear_4_8)"/>
<path d="M133.469 68.4944C133.469 68.4944 133.097 68.3943 132.355 68.194C131.613 67.9938 130.918 67.6933 130.273 67.2908C129.627 66.8902 129.031 66.3875 128.488 65.7866L130.162 63.2975C130.937 64.0107 131.708 64.5462 132.472 64.9018C133.237 65.2573 133.993 65.4372 134.742 65.4372C135.858 65.4372 136.695 65.2287 137.252 64.8098C137.809 64.3929 138.088 63.7655 138.088 62.9297C138.088 62.3718 137.936 61.9549 137.632 61.6769C137.328 61.399 136.95 61.211 136.497 61.117C136.045 61.023 135.41 60.9351 134.588 60.8574C134.514 60.8574 134.435 60.8554 134.353 60.8493C134.271 60.8431 134.191 60.835 134.119 60.8247C134.082 60.8247 134.045 60.8227 134.008 60.8166C133.971 60.8104 133.934 60.8084 133.897 60.8084C132.966 60.7185 132.176 60.555 131.531 60.3159C130.885 60.0768 130.349 59.6272 129.919 58.9712C129.489 58.3131 129.276 57.3731 129.276 56.1469C129.276 54.9207 129.483 53.901 129.898 53.0896C130.314 52.2763 130.93 51.6673 131.753 51.2606C132.573 50.8539 133.603 50.6516 134.838 50.6516C135.585 50.6516 136.298 50.7354 136.976 50.903C137.655 51.0705 138.302 51.3178 138.921 51.6469C139.54 51.9759 140.134 52.3907 140.705 52.8914L139.003 55.3805C138.284 54.8226 137.577 54.4057 136.88 54.1278C136.183 53.8499 135.502 53.7109 134.838 53.7109C133.878 53.7109 133.159 53.9091 132.68 54.3036C132.201 54.7 131.96 55.2927 131.96 56.0835C131.96 56.5515 132.096 56.903 132.369 57.136C132.641 57.369 132.986 57.5263 133.399 57.604C133.813 57.6817 134.405 57.7491 135.171 57.8043C135.227 57.8145 135.284 57.8206 135.344 57.8206C135.404 57.8206 135.465 57.8268 135.531 57.837C135.558 57.837 135.587 57.837 135.613 57.837C135.64 57.837 135.669 57.8431 135.696 57.8533C136.701 57.931 137.556 58.0924 138.261 58.3377C138.966 58.5829 139.56 59.0672 140.039 59.7907C140.518 60.5141 140.759 61.5625 140.759 62.9317C140.759 64.1804 140.537 65.2124 140.095 66.0319C139.653 66.8514 138.985 67.4665 138.095 67.8793C137.204 68.2921 136.086 68.4985 134.74 68.4985C133.893 68.4944 133.469 68.4944 133.469 68.4944Z" fill="url(#paint6_linear_4_8)"/>
<path d="M151.961 43.9016H155.425V47.3758H151.961V43.9016ZM151.961 50.9868H155.425V68.6662H151.961V50.9868Z" fill="url(#paint7_linear_4_8)"/>
<path d="M168.761 68.8603C168.009 68.2677 167.438 67.4032 167.045 66.267C166.652 65.1307 166.457 63.7656 166.457 62.1756V58.0659C166.457 56.4617 166.648 55.0925 167.031 53.9562C167.413 52.8199 167.972 51.9555 168.706 51.3628C169.44 50.7702 170.32 50.4739 171.348 50.4739C172.207 50.4739 172.994 50.762 173.71 51.3363C174.425 51.9105 175.001 52.7178 175.44 53.76L175.147 57.5652C175.147 56.7764 175.033 56.1 174.809 55.538C174.585 54.976 174.261 54.5489 173.835 54.2546C173.409 53.9603 172.893 53.8152 172.287 53.8152C171.343 53.8152 170.612 54.1912 170.094 54.9453C169.576 55.6994 169.317 56.758 169.317 58.1211V62.1777C169.317 63.5305 169.576 64.5728 170.094 65.3085C170.612 66.0442 171.343 66.4121 172.287 66.4121C172.893 66.4121 173.409 66.2588 173.835 65.9543C174.261 65.6498 174.585 65.2104 174.809 64.6362C175.033 64.0619 175.147 63.3732 175.147 62.5721L175.342 66.502C175.052 67.4236 174.579 68.1941 173.919 68.8174C173.261 69.4386 172.449 69.7513 171.487 69.7513C170.423 69.7493 169.514 69.453 168.761 68.8603ZM171.29 77C170.521 77 169.767 76.7916 169.109 76.3951L168.819 76.2194C167.956 75.6983 167.285 74.9666 166.809 74.0204L168.743 71.7766C169.117 72.4346 169.563 72.9435 170.081 73.3011C170.599 73.6608 171.144 73.8386 171.713 73.8386C172.807 73.8386 173.652 73.4523 174.25 72.6819C174.848 71.9094 175.147 70.8181 175.147 69.4059V50.7947H178.006V68.8664C178.006 70.577 177.761 72.0422 177.27 73.2643C176.779 74.4864 176.067 75.4122 175.134 76.0457C174.201 76.6792 173.074 76.996 171.757 76.996H171.29V77Z" fill="url(#paint8_linear_4_8)"/>
<path d="M188.514 50.7333H191.324V68.6661H188.514V50.7333ZM197.191 57.8002C197.191 56.5331 196.93 55.5542 196.406 54.8635C195.881 54.1727 195.147 53.8274 194.202 53.8274C193.283 53.8274 192.574 54.1319 192.074 54.7429C191.575 55.3539 191.324 56.2123 191.324 57.3179L191.034 53.8621C191.474 52.779 192.052 51.9452 192.763 51.3566C193.474 50.7681 194.261 50.4758 195.125 50.4758C196.677 50.4758 197.877 51.1114 198.726 52.3846C199.575 53.6577 200.001 55.4561 200.001 57.7838V68.6681H197.191V57.8002Z" fill="url(#paint9_linear_4_8)"/>
<path d="M20 13.1184H25.6573V69.0298H20V13.1184ZM22.4689 37.9443H36.2257C37.2988 37.9443 38.2506 37.5867 39.0831 36.8673C39.9157 36.15 40.5571 35.1323 41.0114 33.8121C41.4637 32.4919 41.6918 30.9756 41.6918 29.2589C41.6918 27.5423 41.4657 26.0259 41.0114 24.7057C40.5592 23.3856 39.9198 22.3678 39.0975 21.6505C38.2753 20.9332 37.3173 20.5735 36.2278 20.5735H22.471V13.1184H36.0058C38.3349 13.1184 40.3824 13.7846 42.1482 15.1171C43.9141 16.4495 45.2832 18.3399 46.2535 20.7861C47.2238 23.2323 47.7089 26.0566 47.7089 29.2589C47.7089 32.4613 47.2197 35.2855 46.2391 37.7318C45.2585 40.178 43.8853 42.0683 42.1194 43.4007C40.3536 44.7332 38.3143 45.3994 36.0037 45.3994H22.4689V37.9443V37.9443ZM33.4526 43.6685L39.0831 41.9007L49.4008 69.0298H42.6889L33.4526 43.6685Z" fill="url(#paint10_linear_4_8)"/>
<defs>
<linearGradient id="paint0_linear_4_8" x1="7.60017" y1="41.0657" x2="226.328" y2="41.0657" gradientUnits="userSpaceOnUse">
<stop stop-color="#FF0000"/>
<stop offset="1" stop-color="#5D3587"/>
</linearGradient>
<linearGradient id="paint1_linear_4_8" x1="7.60017" y1="15.5716" x2="226.328" y2="15.5716" gradientUnits="userSpaceOnUse">
<stop stop-color="#FF0000"/>
<stop offset="1" stop-color="#5D3587"/>
</linearGradient>
<linearGradient id="paint2_linear_4_8" x1="7.60017" y1="41.0657" x2="226.328" y2="41.0657" gradientUnits="userSpaceOnUse">
<stop stop-color="#FF0000"/>
<stop offset="1" stop-color="#5D3587"/>
</linearGradient>
<linearGradient id="paint3_linear_4_8" x1="7.60017" y1="66.5599" x2="226.328" y2="66.5599" gradientUnits="userSpaceOnUse">
<stop stop-color="#FF0000"/>
<stop offset="1" stop-color="#5D3587"/>
</linearGradient>
<linearGradient id="paint4_linear_4_8" x1="7.60186" y1="56.4814" x2="226.329" y2="56.4814" gradientUnits="userSpaceOnUse">
<stop stop-color="#FF0000"/>
<stop offset="1" stop-color="#4F35A4"/>
</linearGradient>
<linearGradient id="paint5_linear_4_8" x1="7.60179" y1="59.5706" x2="226.329" y2="59.5706" gradientUnits="userSpaceOnUse">
<stop stop-color="#FF0000"/>
<stop offset="1" stop-color="#4F35A4"/>
</linearGradient>
<linearGradient id="paint6_linear_4_8" x1="7.60155" y1="59.5704" x2="226.329" y2="59.5704" gradientUnits="userSpaceOnUse">
<stop stop-color="#FF0000"/>
<stop offset="1" stop-color="#4F35A4"/>
</linearGradient>
<linearGradient id="paint7_linear_4_8" x1="7.60233" y1="56.2845" x2="226.329" y2="56.2845" gradientUnits="userSpaceOnUse">
<stop stop-color="#FF0000"/>
<stop offset="1" stop-color="#4F35A4"/>
</linearGradient>
<linearGradient id="paint8_linear_4_8" x1="7.60119" y1="63.7374" x2="226.329" y2="63.7374" gradientUnits="userSpaceOnUse">
<stop stop-color="#FF0000"/>
<stop offset="1" stop-color="#4F35A4"/>
</linearGradient>
<linearGradient id="paint9_linear_4_8" x1="7.60228" y1="59.5704" x2="226.33" y2="59.5704" gradientUnits="userSpaceOnUse">
<stop stop-color="#FF0000"/>
<stop offset="1" stop-color="#4F35A4"/>
</linearGradient>
<linearGradient id="paint10_linear_4_8" x1="7.60128" y1="41.0754" x2="226.329" y2="41.0754" gradientUnits="userSpaceOnUse">
<stop stop-color="#FF0000"/>
<stop offset="1" stop-color="#5D3587"/>
</linearGradient>
</defs>
</svg>
