<svg width="24" height="24" viewBox="0 0 24 24" fill="none" xmlns="http://www.w3.org/2000/svg">
<g clip-path="url(#clip0_1_5942)">
<path d="M3.84039 5.75977C3.55734 5.75977 3.29754 5.8448 3.07539 5.98477L11.2954 13.1623C11.7298 13.5417 12.2553 13.5417 12.6904 13.1623L20.9254 5.97727C20.704 5.83871 20.4419 5.75977 20.1604 5.75977H3.84039ZM2.48289 6.73477C2.43301 6.88117 2.40039 7.03606 2.40039 7.19977V16.7998C2.40039 17.5975 3.04264 18.2398 3.84039 18.2398H20.1604C20.9581 18.2398 21.6004 17.5975 21.6004 16.7998V7.19977C21.6004 7.03606 21.5678 6.88117 21.5179 6.73477L13.3204 13.8898C12.5567 14.5559 11.4289 14.5493 10.6654 13.8823L2.48289 6.73482V6.73477Z" fill="#DA5685"/>
</g>
<defs>
<clipPath id="clip0_1_5942">
<rect width="24" height="24" fill="white"/>
</clipPath>
</defs>
</svg>
