<svg width="32" height="36" viewBox="0 0 32 36" fill="none" xmlns="http://www.w3.org/2000/svg">
<path d="M31.7724 9.02747C29.7179 9.02747 27.8223 8.34684 26.3 7.19864C24.5542 5.88239 23.2998 3.95161 22.8568 1.72622C22.7471 1.17637 22.6881 0.60895 22.6824 0.0274658H16.8135V16.0643L16.8064 24.8485C16.8064 27.1969 15.2771 29.1882 13.1572 29.8885C12.542 30.0917 11.8775 30.188 11.1856 30.15C10.3025 30.1015 9.47494 29.835 8.75564 29.4047C7.22494 28.4893 6.18713 26.8285 6.159 24.9286C6.11471 21.9593 8.51518 19.5385 11.4824 19.5385C12.0681 19.5385 12.6306 19.6341 13.1572 19.8078V15.4245V13.8488C12.6017 13.7665 12.0364 13.7236 11.4648 13.7236C8.21705 13.7236 5.17955 15.0736 3.0083 17.5057C1.36721 19.3437 0.382832 21.6886 0.230957 24.1475C0.0319728 27.3776 1.21393 30.4482 3.50611 32.7136C3.84291 33.0462 4.19658 33.3549 4.56643 33.6397C6.53166 35.1521 8.93424 35.9719 11.4648 35.9719C12.0364 35.9719 12.6017 35.9297 13.1572 35.8475C15.5211 35.4973 17.7022 34.4152 19.4235 32.7136C21.5385 30.6232 22.7071 27.848 22.7197 24.8942L22.6895 11.7767C23.6985 12.555 24.8017 13.1991 25.9857 13.699C27.8272 14.476 29.7798 14.8697 31.7893 14.869V10.6074V9.02606C31.7907 9.02747 31.7738 9.02747 31.7724 9.02747Z" fill="white"/>
</svg>
