<svg width="36" height="20" viewBox="0 0 36 20" fill="none" xmlns="http://www.w3.org/2000/svg">
<path fill-rule="evenodd" clip-rule="evenodd" d="M17.6138 19.9161H19.7655C19.7655 19.9161 20.4153 19.8464 20.7476 19.4983C21.053 19.1783 21.0432 18.5778 21.0432 18.5778C21.0432 18.5778 21.0011 15.7662 22.3409 15.3521C23.6622 14.944 25.3585 18.0695 27.1563 19.2714C28.5159 20.1806 29.5491 19.9816 29.5491 19.9816L34.3568 19.9161C34.3568 19.9161 36.8716 19.765 35.6791 17.8395C35.5815 17.6822 34.9844 16.4151 32.1044 13.8119C29.0896 11.0871 29.4937 11.5279 33.125 6.81482C35.3364 3.94452 36.2204 2.1923 35.9441 1.44186C35.681 0.726843 34.0543 0.91572 34.0543 0.91572L28.6413 0.948309C28.6413 0.948309 28.2397 0.895105 27.9423 1.06843C27.6514 1.23792 27.4646 1.63394 27.4646 1.63394C27.4646 1.63394 26.6076 3.8549 25.4654 5.74403C23.055 9.72968 22.0911 9.94065 21.6971 9.69276C20.7804 9.11589 21.0095 7.37576 21.0095 6.13918C21.0095 2.27649 21.6111 0.665984 19.8379 0.249099C19.2496 0.110837 18.8162 0.0193619 17.3113 0.00442478C15.3797 -0.0147097 13.7453 0.0102274 12.8197 0.451801C12.2038 0.745485 11.7287 1.39976 12.0182 1.43741C12.3761 1.48383 13.1861 1.65036 13.6156 2.21946C14.1705 2.95459 14.1511 4.60485 14.1511 4.60485C14.1511 4.60485 14.4699 9.15181 13.4067 9.71646C12.6772 10.1038 11.6762 9.31304 9.52725 5.69699C8.4264 3.84478 7.59492 1.79714 7.59492 1.79714C7.59492 1.79714 7.43482 1.41457 7.14883 1.20977C6.80199 0.961642 6.31736 0.883006 6.31736 0.883006L1.17337 0.91572C1.17337 0.91572 0.401356 0.936706 0.11765 1.26372C-0.134745 1.55481 0.0974957 2.15613 0.0974957 2.15613C0.0974957 2.15613 4.1244 11.331 8.68449 15.9547C12.8662 20.1944 17.6138 19.9161 17.6138 19.9161Z" fill="white"/>
</svg>
