<svg width="56" height="50" viewBox="0 0 56 50" fill="none" xmlns="http://www.w3.org/2000/svg">
<path d="M0.355469 43.9578C1.35299 31.1345 1.13614 21.2236 0.919285 8.40026C5.60331 9.83473 10.4608 11.0519 12.8028 11.6604C13.3667 11.7908 13.8871 12.0082 14.4943 12.0082C15.275 12.0082 21.6938 9.92167 25.1201 8.44373C25.5972 8.22639 26.0743 8.05251 26.5947 8.00904C27.1585 7.96557 27.7223 8.18292 28.2428 8.35679C31.6257 9.57392 35.0086 10.8345 38.4349 12.0516C39.2156 12.3559 40.0396 12.6167 40.907 12.6167C41.6877 12.6167 42.425 12.3994 43.1189 12.1386C47.4994 10.7476 51.4027 10.2694 55.7398 8.87842C55.6964 21.3105 55.3928 32.2646 55.7398 43.8708C49.9281 46.4355 42.9021 49.5652 41.6877 49.5652C40.5167 49.5652 29.1102 43.1319 28.1127 43.5231C23.8624 45.2618 16.099 49.4348 15.0147 49.3479C14.4076 49.3044 13.8871 48.9567 13.2799 48.7828C9.55004 47.783 5.25635 45.6965 0.355469 43.9578Z" fill="white"/>
<path d="M41.6877 49.9999C41.1672 49.9999 39.4758 49.174 35.7459 47.3049C33.0569 45.9573 29.0235 43.9143 28.2862 43.9143C28.2862 43.9143 28.2862 43.9143 28.2428 43.9143C26.4646 44.6533 24.0792 45.7835 21.7806 46.9136C17.9206 48.7828 15.7087 49.8261 15.0147 49.7826C14.581 49.7391 14.1907 49.6087 13.8004 49.4348C13.5835 49.3479 13.41 49.261 13.1932 49.2175C11.068 48.6089 8.76938 47.6526 6.29725 46.6528C4.34557 45.8704 2.35052 45.0445 0.22536 44.262C0.0952485 44.2186 -0.0348634 44.0447 0.00850726 43.9143C0.962661 32.0473 0.789179 22.8319 0.615697 11.1388L0.572327 8.40026C0.572327 8.26986 0.615696 8.18292 0.702437 8.09598C0.789178 8.00904 0.919292 8.00904 1.00603 8.05251C4.64917 9.1827 8.46578 10.1825 10.9379 10.8345C11.6752 11.0084 12.3258 11.1823 12.8462 11.3561C12.9763 11.3996 13.1064 11.4431 13.2366 11.4865C13.6269 11.617 14.0172 11.7039 14.4076 11.7039C15.0581 11.7039 21.2601 9.7478 24.9033 8.18292C25.3803 7.96557 25.9008 7.74823 26.508 7.70476C27.1585 7.66129 27.8091 7.9221 28.2862 8.09598L38.4783 11.7908C39.2156 12.0516 39.9962 12.3559 40.8203 12.3559C41.5576 12.3559 42.2515 12.1386 42.9454 11.9212C45.1573 11.2257 47.2391 10.7476 49.2775 10.2694C51.316 9.83473 53.3978 9.35658 55.5663 8.66107C55.653 8.61761 55.7831 8.66107 55.8699 8.70454C55.9566 8.79148 56 8.87842 56 9.00883C56 12.3125 55.9566 15.5291 55.9133 18.6154C55.8265 27.2657 55.7398 35.4379 56 44.0012C56 44.1316 55.9133 44.262 55.7831 44.349L54.2218 45.0445C47.4126 48.0004 42.772 49.9999 41.6877 49.9999ZM28.2428 43.2623C29.0668 43.2623 31.1053 44.2186 36.0929 46.6963C38.3915 47.87 41.254 49.3044 41.7311 49.3044C42.7286 49.3044 49.0173 46.5224 54.0483 44.3055L55.4362 43.6969C55.176 35.2205 55.2627 27.1353 55.3494 18.5285C55.3928 15.5726 55.3928 12.5298 55.4362 9.40004C53.3978 10.0086 51.4461 10.4868 49.5378 10.878C47.4994 11.3127 45.4176 11.7908 43.249 12.4863C42.5551 12.7037 41.7744 12.9645 40.9504 12.9645C39.9962 12.9645 39.1288 12.6602 38.3482 12.3559L28.1561 8.66107C27.679 8.4872 27.1585 8.31332 26.6381 8.31332C26.161 8.31332 25.6839 8.53067 25.2936 8.70454C21.8673 10.1825 15.4051 12.269 14.5377 12.269C14.0606 12.269 13.5835 12.1386 13.1498 12.0082C13.0197 11.9647 12.8896 11.9212 12.7595 11.8778C12.239 11.7474 11.5885 11.5735 10.8512 11.3561C8.42241 10.7041 4.86602 9.79126 1.30963 8.70454L1.353 10.9649C1.52648 22.5711 1.65659 31.7865 0.74581 43.5665C2.78423 44.3055 4.73591 45.088 6.60085 45.8704C9.0296 46.8702 11.3282 47.8265 13.41 48.4351C13.6269 48.522 13.8871 48.6089 14.104 48.6959C14.4509 48.8263 14.7545 48.9567 15.1015 49.0001C15.6653 49.0436 18.788 47.5222 21.5203 46.2181C23.819 45.0879 26.2477 43.9578 28.0693 43.2188C28.0693 43.2623 28.156 43.2623 28.2428 43.2623Z" fill="#2B2C54"/>
<path d="M17.4423 39.9587C17.3556 39.9587 17.2255 39.9152 17.1821 39.8282C15.4473 37.4809 13.539 35.1336 11.5439 32.8732C11.4138 32.7428 11.4138 32.5255 11.5873 32.3951C11.7174 32.2647 11.9343 32.2647 12.0644 32.4385C14.1028 34.6989 16.0111 37.0462 17.7459 39.437C17.876 39.6109 17.8327 39.8282 17.6592 39.9152C17.5724 39.9152 17.4857 39.9587 17.4423 39.9587Z" fill="#2B2C54"/>
<path d="M11.9775 39.9586C11.8907 39.9586 11.8473 39.9152 11.7606 39.8717C11.6305 39.7413 11.5871 39.5239 11.7172 39.3935C13.4954 37.0897 15.4905 34.8728 17.7024 32.7863C17.8325 32.6559 18.0493 32.6559 18.1795 32.7863C18.3096 32.9167 18.3096 33.134 18.1795 33.2644C16.0109 35.3509 14.0159 37.5244 12.2811 39.7848C12.1943 39.8717 12.1076 39.9586 11.9775 39.9586Z" fill="#2B2C54"/>
<path d="M15.0149 47.3484C14.9281 47.3484 14.8848 47.305 14.8848 47.218L14.9715 40.6108C14.9715 40.5673 15.0149 40.4803 15.1016 40.4803C15.145 40.4803 15.2317 40.5238 15.2317 40.6108L15.145 47.218C15.145 47.305 15.1016 47.3484 15.0149 47.3484Z" fill="#2B2C54"/>
<path d="M15.0576 31.0042C15.0142 31.0042 14.9275 30.9607 14.9275 30.8738L14.3203 13.4862C14.3203 13.4428 14.3637 13.3558 14.4504 13.3558C14.4938 13.3558 14.5805 13.3993 14.5805 13.4862L15.1877 30.8738C15.1877 30.9607 15.1444 31.0042 15.0576 31.0042Z" fill="#2B2C54"/>
<path d="M41.6876 48.0439C41.6442 48.0439 41.5574 48.0005 41.5574 47.9135C41.4707 39.8283 41.4273 31.6127 41.5141 23.5275C41.5141 23.484 41.5575 23.3971 41.6442 23.3971C41.6876 23.3971 41.7743 23.4406 41.7743 23.5275C41.6876 31.6127 41.7309 39.8283 41.8177 47.9135C41.8177 48.0005 41.7743 48.0439 41.6876 48.0439Z" fill="#2B2C54"/>
<path d="M27.7659 31.0911C27.7225 31.0911 27.6357 31.0477 27.6357 30.9607C27.2888 23.9622 27.0285 16.8334 26.8984 9.83487C26.8984 9.7914 26.9418 9.70447 27.0285 9.70447C27.0719 9.70447 27.1587 9.74793 27.1587 9.83487C27.3321 16.8334 27.5924 23.9622 27.896 30.9607C27.8526 31.0477 27.8092 31.0911 27.7659 31.0911Z" fill="#2B2C54"/>
<path d="M40.6051 19.7457C38.957 17.1375 37.5257 14.4425 36.3114 11.7039C35.5307 9.92172 34.7934 8.00909 34.8801 6.09646C34.9669 4.14037 35.9644 2.1408 37.8727 1.27143C39.434 0.532455 41.1689 0.271642 42.9471 0.532455C44.9421 0.836737 47.9781 2.18427 48.2817 5.3575C48.4118 6.61809 48.1515 7.87869 47.848 9.09581C46.8071 13.0515 45.1156 16.8333 42.8603 20.3108C42.6001 20.702 42.2531 21.1367 41.7761 21.0932C41.1689 21.0497 40.9954 20.3542 40.6051 19.7457Z" fill="#D4CAFB"/>
<path d="M41.8194 21.3975C41.1254 21.3975 40.8218 20.8324 40.5182 20.3108C40.4315 20.1804 40.3881 20.05 40.3014 19.9196C38.6533 17.3115 37.2221 14.5729 36.0077 11.7909C35.2704 10.0956 34.4897 8.09607 34.5331 6.00957C34.6198 3.74919 35.8776 1.74962 37.6992 0.880243C39.3472 0.0978046 41.1688 -0.163008 42.947 0.0978049C45.3324 0.445556 48.2382 2.01043 48.5852 5.22713C48.7153 6.53119 48.4551 7.87873 48.1081 9.09585C47.0672 13.095 45.3758 16.8768 43.0771 20.4412C42.9036 20.8759 42.4699 21.3975 41.8194 21.3975ZM40.9086 19.5718C40.9953 19.7022 41.0821 19.8761 41.1688 20.0065C41.429 20.4847 41.6025 20.702 41.8194 20.7455C42.0796 20.7455 42.2964 20.5716 42.6 20.0935C44.8553 16.616 46.5034 12.8776 47.5443 8.96544C47.8479 7.79179 48.1081 6.57466 47.978 5.35753C47.6744 2.53206 45.0722 1.18453 42.9036 0.836775C41.2556 0.575962 39.5641 0.836775 38.0461 1.53228C36.4414 2.27125 35.3571 4.05347 35.2704 6.05303C35.1837 8.00913 35.9643 9.87829 36.6583 11.5301C37.8293 14.3121 39.2605 17.0072 40.9086 19.5718Z" fill="#2B2C54"/>
<path d="M40.8226 4.35777C38.6974 4.74899 38.5239 7.35712 38.8709 8.2265C39.2612 9.18281 40.3889 10.5303 42.2972 10.0522C44.5524 9.48709 44.5958 7.35712 44.3356 6.35734C43.9019 4.48818 41.8201 4.1839 40.8226 4.35777Z" fill="white"/>
<path d="M41.5582 10.5304C39.9101 10.5304 38.9125 9.22629 38.5656 8.35691C38.3054 7.66141 38.3054 6.35734 38.8258 5.40103C39.2595 4.66206 39.9101 4.14043 40.7341 4.01003C42.0352 3.74921 44.2038 4.31431 44.6808 6.27041C44.9844 7.4006 44.8543 9.74791 42.3822 10.3999C42.122 10.4869 41.8184 10.5304 41.5582 10.5304ZM40.8642 4.70553C40.2137 4.83594 39.7366 5.18369 39.433 5.74878C38.9993 6.57469 38.9993 7.66141 39.1728 8.0961C39.5197 8.922 40.5173 10.1391 42.2087 9.74791C44.6375 9.13935 44.0303 6.57469 43.9869 6.48775C43.5966 4.79247 41.6883 4.53165 40.8642 4.70553Z" fill="#2B2C54"/>
<path d="M28.4169 42.0018C28.3736 42.0018 28.2868 41.9583 28.2868 41.9148L27.8965 36.1335C27.8965 36.09 27.9399 36.0031 27.9832 36.0031C28.0266 36.0031 28.1133 36.0465 28.1133 36.09L28.5037 41.8713C28.547 41.9583 28.4603 42.0018 28.4169 42.0018Z" fill="#2B2C54"/>
<path d="M19.9602 36.6551C19.4397 36.6551 18.9193 36.5247 18.529 36.2639C18.3555 36.1769 18.3121 35.9596 18.3988 35.7857C18.4856 35.6118 18.7024 35.5684 18.8759 35.6553C19.4831 36.0465 20.3071 36.0465 21.2179 35.6553C21.3914 35.5684 21.6083 35.6553 21.6516 35.8292C21.7384 36.0031 21.6516 36.2204 21.4782 36.2639C20.9577 36.5681 20.4373 36.6551 19.9602 36.6551ZM23.7334 34.8729C23.6467 34.8729 23.5166 34.8294 23.4732 34.7425C23.3431 34.5686 23.3865 34.3512 23.5599 34.2643C24.1671 33.8296 24.8177 33.3949 25.5984 33.1341C25.7718 33.0906 25.9887 33.0472 26.1622 33.0037C26.3357 32.9602 26.5525 33.0906 26.5525 33.2645C26.5959 33.4384 26.4658 33.6557 26.2923 33.6557C26.1188 33.6992 25.9453 33.7427 25.8152 33.7861C25.1647 34.0035 24.6442 34.3512 23.9936 34.8294C23.8635 34.8729 23.7768 34.8729 23.7334 34.8729ZM31.5835 34.047C30.8462 34.047 30.0655 33.9166 29.3282 33.7861L28.9379 33.7427C28.7644 33.6992 28.6343 33.5253 28.6343 33.3515C28.6777 33.1776 28.8512 33.0472 29.0246 33.0472L29.415 33.0906C30.1956 33.221 30.9763 33.3515 31.7136 33.308C31.8871 33.308 32.0606 33.4384 32.0606 33.6557C32.0606 33.8296 31.9305 34.0035 31.7136 34.0035C31.6703 34.047 31.6269 34.047 31.5835 34.047ZM34.3159 33.2211C34.2291 33.2211 34.099 33.1776 34.0556 33.0906C33.9255 32.9168 33.9689 32.6994 34.1424 32.6125C34.7929 32.1343 35.3134 31.4388 35.7471 30.5695C35.8338 30.3956 36.0507 30.3086 36.2242 30.3956C36.3977 30.4825 36.4844 30.6999 36.3977 30.8737C35.9639 31.83 35.3568 32.6125 34.6195 33.1776C34.446 33.1776 34.4026 33.2211 34.3159 33.2211ZM36.7012 28.3525C36.6579 28.3525 36.6579 28.3525 36.7012 28.3525C36.4844 28.3525 36.3543 28.1787 36.3543 27.9613C36.3976 27.5266 36.441 27.005 36.441 26.4399C36.441 26.0922 36.441 25.7009 36.3977 25.2228C36.3977 25.0489 36.5278 24.875 36.7446 24.875C36.9181 24.875 37.0916 25.0054 37.0916 25.2228C37.0916 25.7444 37.135 26.0922 37.135 26.4834C37.135 27.0485 37.0916 27.5701 37.0482 28.0483C37.0048 28.2221 36.8747 28.3525 36.7012 28.3525ZM36.6579 22.7885C36.441 22.7885 36.3109 22.6147 36.3109 22.4408C36.3109 21.3106 36.441 20.4412 36.6579 19.6153C36.7013 19.4414 36.8747 19.311 37.0916 19.3545C37.2651 19.398 37.3952 19.5718 37.3518 19.7892C37.135 20.5716 37.0482 21.3975 37.0482 22.4843C37.0048 22.6147 36.8314 22.7885 36.6579 22.7885Z" fill="#2B2C54"/>
<path d="M2.39419 43.0451C2.35082 43.0451 2.26408 43.0016 2.26408 42.9147L2.2207 40.3935C2.2207 40.35 2.26408 40.2631 2.35082 40.2631C2.39419 40.2631 2.48093 40.3065 2.48093 40.3935L2.5243 42.9147C2.5243 43.0016 2.48093 43.0451 2.39419 43.0451Z" fill="#2B2C54"/>
<path d="M53.7024 43.132C53.6591 43.132 53.5723 43.0885 53.5723 43.045L53.3555 40.0891C53.3555 40.0457 53.3988 39.9587 53.4422 39.9587C53.5289 39.9587 53.5723 40.0022 53.5723 40.0457L53.7892 43.0016C53.8325 43.0885 53.7892 43.132 53.7024 43.132Z" fill="#2B2C54"/>
<path d="M52.6156 43.4362C52.5723 43.4362 52.5289 43.3928 52.4855 43.3493C52.4422 42.8711 52.4421 42.3495 52.5289 41.8714C52.5289 41.8279 52.6156 41.7844 52.659 41.7844C52.7024 41.7844 52.7457 41.8714 52.7457 41.9148C52.659 42.393 52.659 42.8711 52.7024 43.3493C52.7457 43.3493 52.7024 43.4362 52.6156 43.4362Z" fill="#2B2C54"/>
<path d="M2.26333 13.3993C2.21996 13.3993 2.13321 13.3558 2.13321 13.2689L2.08984 10.313C2.08984 10.2696 2.13321 10.1826 2.21995 10.1826C2.26332 10.1826 2.35007 10.2261 2.35007 10.313L2.39344 13.2689C2.39344 13.3124 2.35007 13.3993 2.26333 13.3993Z" fill="#2B2C54"/>
<path d="M3.34886 12.3125C3.26212 12.3125 3.21875 12.269 3.21875 12.1821L3.26212 10.7476C3.26212 10.7041 3.30549 10.6607 3.39223 10.6172C3.4356 10.6172 3.52234 10.6607 3.52234 10.7476L3.47897 12.1821C3.4356 12.269 3.39223 12.3125 3.34886 12.3125Z" fill="#2B2C54"/>
<path d="M40.5161 47.5223C40.4727 47.5223 40.386 47.4789 40.386 47.3919L40.2559 44.0883C40.2559 44.0448 40.2992 43.9579 40.386 43.9579C40.4293 43.9579 40.5161 44.0014 40.5161 44.0883L40.6462 47.3919C40.6462 47.4354 40.6028 47.4789 40.5161 47.5223Z" fill="#2B2C54"/>
<path d="M39.5176 47.0442C39.4743 47.0442 39.3875 47.0007 39.3875 46.9137L39.3008 45.5227C39.3008 45.4793 39.3442 45.3923 39.4309 45.3923C39.4743 45.3923 39.561 45.4358 39.561 45.5227L39.6477 46.9137C39.6477 46.9572 39.561 47.0442 39.5176 47.0442Z" fill="#2B2C54"/>
<path d="M54.0455 15.138C54.0021 15.138 53.9153 15.0945 53.9153 15.0076C53.872 13.8339 53.872 12.6168 53.9153 11.4432C53.9153 11.3997 53.9587 11.3562 54.0455 11.3127C54.0888 11.3127 54.1756 11.3562 54.1756 11.4432C54.1322 12.6168 54.1322 13.7905 54.1756 14.9641C54.1756 15.0945 54.1322 15.138 54.0455 15.138Z" fill="#2B2C54"/>
<path d="M53.0073 13.7036C52.9639 13.7036 52.9206 13.6601 52.8772 13.6167C52.7905 12.9646 52.7471 12.3126 52.7905 11.6606C52.7905 11.6171 52.8338 11.5302 52.9206 11.5302C52.9639 11.5302 53.0507 11.5736 53.0507 11.6606C53.0507 12.3126 53.0507 12.9646 53.1374 13.5732C53.1374 13.6601 53.094 13.7036 53.0073 13.7036Z" fill="#2B2C54"/>
</svg>
