<svg width="56" height="49" viewBox="0 0 56 49" fill="none" xmlns="http://www.w3.org/2000/svg">
<path d="M16.5518 5.1322H45.7779C51.246 5.1322 55.6582 9.51524 55.6582 14.9472V28.3211C55.6582 32.8165 52.6036 36.6001 48.4554 37.7614L50.4918 48.6254L41.3657 38.136H16.5895C11.1214 38.136 6.70922 33.753 6.70922 28.3211V14.9472C6.67151 9.5527 11.0837 5.1322 16.5518 5.1322Z" fill="white"/>
<path d="M50.454 49C50.3786 49 50.2655 48.9625 50.19 48.8876L41.1771 38.5107H16.5517C10.9328 38.5107 6.33203 33.9403 6.33203 28.3585V14.9847C6.33203 9.40286 10.9328 4.83252 16.5517 4.83252H45.7778C51.3968 4.83252 55.9976 9.40286 55.9976 14.9847V28.3585C55.9976 32.779 53.0561 36.7125 48.8325 38.0611L50.7934 48.6628C50.8311 48.8127 50.7557 48.9625 50.6049 49C50.5672 49 50.4917 49 50.454 49ZM16.5517 5.46937C11.2722 5.46937 6.97312 9.74001 6.97312 14.9847V28.3585C6.97312 33.6032 11.2722 37.8738 16.5517 37.8738H41.3279C41.4411 37.8738 41.5165 37.9113 41.5919 37.9862L49.9261 47.5764L48.1159 37.8738C48.0782 37.724 48.1914 37.5367 48.3422 37.4992C52.4527 36.3379 55.3188 32.5917 55.3188 28.3585V14.9847C55.3188 9.74001 51.0197 5.46937 45.7401 5.46937H16.5517Z" fill="#2B2C54"/>
<path d="M14.5217 36.6751C14.484 36.6751 14.484 36.6751 14.4463 36.6376C14.4085 36.6001 14.4085 36.5252 14.4463 36.4878L16.5958 34.3524C16.6335 34.315 16.7089 34.315 16.7466 34.3524C16.7843 34.3899 16.7843 34.4648 16.7466 34.5023L14.5971 36.6376C14.5594 36.6751 14.5594 36.6751 14.5217 36.6751Z" fill="#2B2C54"/>
<path d="M17.2365 36.6751C17.1988 36.6751 17.1988 36.6751 17.1611 36.6376C17.1234 36.6001 17.1234 36.5252 17.1611 36.4878L19.3106 34.3524C19.3483 34.315 19.4238 34.315 19.4615 34.3524C19.4992 34.3899 19.4992 34.4648 19.4615 34.5023L17.3119 36.6376C17.3119 36.6751 17.2742 36.6751 17.2365 36.6751Z" fill="#2B2C54"/>
<path d="M19.8732 36.6751C19.8355 36.6751 19.8355 36.6751 19.7978 36.6376C19.7601 36.6001 19.7601 36.5252 19.7978 36.4878L21.9474 34.3524C21.9851 34.315 22.0605 34.315 22.0982 34.3524C22.1359 34.3899 22.1359 34.4648 22.0982 34.5023L19.9486 36.6376C19.9109 36.6751 19.911 36.6751 19.8732 36.6751Z" fill="#2B2C54"/>
<path d="M22.5139 36.6751C22.4762 36.6751 22.4762 36.6751 22.4384 36.6376C22.4007 36.6001 22.4007 36.5252 22.4384 36.4878L24.588 34.3524C24.6257 34.315 24.7011 34.315 24.7388 34.3524C24.7765 34.3899 24.7765 34.4648 24.7388 34.5023L22.5893 36.6376C22.5893 36.6751 22.5516 36.6751 22.5139 36.6751Z" fill="#2B2C54"/>
<path d="M24.8537 36.6751C24.816 36.6751 24.816 36.6751 24.7783 36.6376C24.7406 36.6001 24.7406 36.5252 24.7783 36.4878L26.9278 34.3524C26.9655 34.315 27.0409 34.315 27.0787 34.3524C27.1164 34.3899 27.1164 34.4648 27.0787 34.5023L24.9291 36.6376C24.9291 36.6751 24.8914 36.6751 24.8537 36.6751Z" fill="#2B2C54"/>
<path d="M27.6076 36.6751C27.5699 36.6751 27.5699 36.6751 27.5322 36.6376C27.4945 36.6001 27.4945 36.5252 27.5322 36.4878L29.6817 34.3524C29.7194 34.315 29.7948 34.315 29.8326 34.3524C29.8703 34.3899 29.8703 34.4648 29.8326 34.5023L27.683 36.6376C27.6453 36.6751 27.6453 36.6751 27.6076 36.6751Z" fill="#2B2C54"/>
<path d="M30.2072 36.6751C30.1695 36.6751 30.1695 36.6751 30.1318 36.6376C30.0941 36.6001 30.0941 36.5252 30.1318 36.4878L32.2813 34.3524C32.319 34.315 32.3945 34.315 32.4322 34.3524C32.4699 34.3899 32.4699 34.4648 32.4322 34.5023L30.2827 36.6376C30.2827 36.6751 30.2449 36.6751 30.2072 36.6751Z" fill="#2B2C54"/>
<path d="M32.883 36.6751C32.8453 36.6751 32.8453 36.6751 32.8076 36.6376C32.7699 36.6001 32.7699 36.5252 32.8076 36.4878L34.9571 34.3524C34.9948 34.315 35.0702 34.315 35.1079 34.3524C35.1457 34.3899 35.1457 34.4648 35.1079 34.5023L32.9584 36.6376C32.9207 36.6751 32.9207 36.6751 32.883 36.6751Z" fill="#2B2C54"/>
<path d="M35.7912 36.6751C35.7535 36.6751 35.7535 36.6751 35.7158 36.6376C35.6781 36.6001 35.6781 36.5252 35.7158 36.4878L37.8653 34.3524C37.903 34.315 37.9784 34.315 38.0162 34.3524C38.0539 34.3899 38.0539 34.4648 38.0162 34.5023L35.8666 36.6376C35.8666 36.6751 35.8289 36.6751 35.7912 36.6751Z" fill="#2B2C54"/>
<path d="M38.5432 36.6751C38.5055 36.6751 38.5054 36.6751 38.4677 36.6376C38.43 36.6001 38.43 36.5252 38.4677 36.4878L40.6173 34.3524C40.655 34.315 40.7304 34.315 40.7681 34.3524C40.8058 34.3899 40.8058 34.4648 40.7681 34.5023L38.6186 36.6376C38.5809 36.6751 38.5809 36.6751 38.5432 36.6751Z" fill="#2B2C54"/>
<path d="M41.1447 36.675C41.107 36.675 41.107 36.675 41.0693 36.6376C41.0316 36.6001 41.0316 36.5252 41.0693 36.4877L43.6337 33.9403C43.6714 33.9029 43.7468 33.9029 43.7845 33.9403C43.8222 33.9778 43.8222 34.0527 43.7845 34.0902L41.2202 36.6376C41.2202 36.675 41.1824 36.675 41.1447 36.675Z" fill="#2B2C54"/>
<path d="M49.5881 28.2836C49.5504 28.2836 49.5504 28.2836 49.5127 28.2462C49.4749 28.2087 49.4749 28.1338 49.5127 28.0963L54.566 23.0764C54.6037 23.039 54.6791 23.039 54.7168 23.0764C54.7545 23.1139 54.7545 23.1888 54.7168 23.2263L49.6635 28.2462C49.6635 28.2836 49.6258 28.2836 49.5881 28.2836Z" fill="#2B2C54"/>
<path d="M50.6096 24.425C50.5719 24.425 50.5719 24.425 50.5341 24.3875C50.4964 24.35 50.4964 24.2751 50.5341 24.2377L54.6069 20.1918C54.6446 20.1543 54.7201 20.1543 54.7578 20.1918C54.7955 20.2293 54.7955 20.3042 54.7578 20.3416L50.685 24.425C50.6473 24.425 50.6473 24.425 50.6096 24.425Z" fill="#2B2C54"/>
<path d="M50.6096 21.6529C50.5719 21.6529 50.5719 21.6529 50.5341 21.6154C50.4964 21.578 50.4964 21.503 50.5341 21.4656L54.6069 17.4197C54.6446 17.3822 54.7201 17.3822 54.7578 17.4197C54.7955 17.4572 54.7955 17.5321 54.7578 17.5696L50.685 21.6154C50.6473 21.6529 50.6473 21.6529 50.6096 21.6529Z" fill="#2B2C54"/>
<path d="M50.385 19.2554C50.3472 19.2554 50.3472 19.2554 50.3095 19.218C50.2718 19.1805 50.2718 19.1056 50.3095 19.0681L54.3824 15.0222C54.4201 14.9848 54.4955 14.9848 54.5332 15.0222C54.5709 15.0597 54.5709 15.1346 54.5332 15.1721L50.4604 19.218C50.4604 19.2554 50.4227 19.2554 50.385 19.2554Z" fill="#2B2C54"/>
<path d="M50.385 16.633C50.3472 16.633 50.3472 16.633 50.3095 16.5955C50.2718 16.5581 50.2718 16.4831 50.3095 16.4457L53.7035 13.0741C53.7412 13.0367 53.8167 13.0367 53.8544 13.0741C53.8921 13.1116 53.8921 13.1865 53.8544 13.224L50.4604 16.5955C50.4604 16.633 50.4227 16.633 50.385 16.633Z" fill="#2B2C54"/>
<path d="M50.4182 13.8984C50.3805 13.8984 50.3804 13.8984 50.3427 13.8609C50.305 13.8235 50.305 13.7486 50.3427 13.7111L52.9825 11.0888C53.0202 11.0513 53.0956 11.0513 53.1333 11.0888C53.1711 11.1262 53.1711 11.2012 53.1333 11.2386L50.4936 13.8609C50.4559 13.8984 50.4182 13.8984 50.4182 13.8984Z" fill="#2B2C54"/>
<path d="M50.6096 11.3136C50.5719 11.3136 50.5719 11.3136 50.5341 11.2761C50.4964 11.2387 50.4964 11.1638 50.5341 11.1263L52.0426 9.62783C52.0803 9.59037 52.1557 9.59037 52.1934 9.62783C52.2311 9.66529 52.2311 9.74021 52.1934 9.77767L50.685 11.2761C50.6473 11.3136 50.6096 11.3136 50.6096 11.3136Z" fill="#2B2C54"/>
<path d="M50.2678 8.80355C50.2301 8.80355 50.2301 8.80355 50.1923 8.76608C50.1546 8.72862 50.1546 8.6537 50.1923 8.61624L50.8334 7.97939C50.8712 7.94193 50.9466 7.94193 50.9843 7.97939C51.022 8.01685 51.022 8.09177 50.9843 8.12924L50.3432 8.76608C50.3432 8.80355 50.3055 8.80355 50.2678 8.80355Z" fill="#2B2C54"/>
<path d="M42.8029 37.874C42.7652 37.874 42.7652 37.874 42.7275 37.8365C42.6898 37.7991 42.6898 37.7241 42.7275 37.6867L54.3802 26.111C54.418 26.0735 54.4934 26.0735 54.5311 26.111C54.5688 26.1484 54.5688 26.2234 54.5311 26.2608L42.8784 37.8365C42.8406 37.8365 42.8029 37.874 42.8029 37.874Z" fill="#2B2C54"/>
<path d="M44.0842 39.2601C44.0464 39.2601 44.0465 39.2601 44.0088 39.2226C43.971 39.1852 43.971 39.1102 44.0088 39.0728L54.0022 29.1454C54.0399 29.1079 54.1153 29.1079 54.153 29.1454C54.1907 29.1829 54.1907 29.2578 54.153 29.2953L44.1596 39.2226C44.1596 39.2601 44.1219 39.2601 44.0842 39.2601Z" fill="#2B2C54"/>
<path d="M50.0822 35.776C50.0445 35.776 50.0445 35.776 50.0068 35.7385C49.9691 35.7011 49.9691 35.6261 50.0068 35.5887L53.2877 32.3295C53.3254 32.292 53.4008 32.292 53.4385 32.3295C53.4762 32.3669 53.4762 32.4419 53.4385 32.4793L50.1577 35.7385C50.1199 35.776 50.1199 35.776 50.0822 35.776Z" fill="#2B2C54"/>
<path d="M45.2893 40.9832C45.2515 40.9832 45.2515 40.9832 45.2138 40.9458C45.1761 40.9083 45.1761 40.8334 45.2138 40.7959L47.2502 38.773C47.288 38.7355 47.3634 38.7355 47.4011 38.773C47.4388 38.8104 47.4388 38.8854 47.4011 38.9228L45.3647 40.9458C45.3647 40.9458 45.327 40.9832 45.2893 40.9832Z" fill="#2B2C54"/>
<path d="M46.4963 42.4816C46.4586 42.4816 46.4586 42.4816 46.4209 42.4442C46.3832 42.4067 46.3832 42.3318 46.4209 42.2943L47.7785 40.9457C47.8162 40.9082 47.8916 40.9082 47.9293 40.9457C47.967 40.9832 47.967 41.0581 47.9293 41.0955L46.5717 42.4442C46.5717 42.4816 46.534 42.4816 46.4963 42.4816Z" fill="#2B2C54"/>
<path d="M47.6271 44.13C47.5894 44.13 47.5894 44.13 47.5517 44.0926C47.514 44.0551 47.514 43.9802 47.5517 43.9427L48.3437 43.156C48.3814 43.1186 48.4568 43.1186 48.4945 43.156C48.5322 43.1935 48.5322 43.2684 48.4945 43.3059L47.7026 44.0926C47.7026 44.0926 47.6649 44.13 47.6271 44.13Z" fill="#2B2C54"/>
<g opacity="0.1294">
<path d="M51.176 15.9962C51.1005 14.198 50.8743 12.3999 50.8743 10.5642C50.912 9.25308 50.7988 7.90445 50.2709 6.70568C50.0069 6.18121 49.8183 5.69421 49.1773 5.76913C48.8756 5.76913 48.6116 6.03137 48.5362 6.2936C48.4985 6.44345 48.4985 6.55583 48.5362 6.70568C48.5362 6.7806 48.5739 6.81806 48.6116 6.85553C48.6493 6.96791 48.6493 6.93045 48.8379 7.30507C48.9887 7.71715 49.1018 8.12922 49.1773 8.57876C49.2904 9.55277 49.215 10.5268 49.2527 11.5008C49.2904 12.7745 49.4035 14.0482 49.4412 15.3219C49.5167 17.5321 49.3658 19.7798 49.3658 21.9901C49.3658 23.2638 49.3658 25.0245 49.1773 25.6613C49.1773 25.7363 49.1396 25.7737 49.1396 25.8487C49.1396 25.8861 49.1018 25.9236 49.1018 25.961C48.9133 26.6354 48.7247 27.0474 48.6493 27.2347C47.9705 28.9954 45.5193 32.0673 43.8977 32.5543C42.2761 33.0788 41.5219 33.1162 39.7495 33.0413C38.241 33.0413 36.7326 33.0039 35.1864 33.0039C33.6403 32.9664 32.0564 33.0413 30.5103 33.0039C28.7001 32.9289 26.8523 33.0413 25.0421 33.0039C22.1761 32.9664 19.2346 32.8166 17.1228 33.0788C16.0292 33.1537 15.8784 32.9289 15.1619 33.2286C14.0305 34.0528 13.2009 35.2516 12.0695 36.1132C11.2399 37.0123 12.4844 38.286 13.3894 37.4244C14.1814 36.7875 15.3504 35.4763 15.8784 34.9519C16.1423 34.9893 16.3686 34.9893 16.6326 35.0268C19.3855 34.9893 22.1007 34.8769 24.8536 34.8395C27.7573 34.8395 30.6611 34.802 33.5271 34.7271C35.639 34.7271 37.7508 34.7271 39.8626 34.6147C40.7677 34.6147 41.635 34.6147 42.5024 34.4649C43.3321 34.315 44.1617 34.1652 44.9159 33.7906C45.5193 33.5283 46.0095 33.1162 46.4998 32.6667C47.4048 31.88 48.1968 30.9435 48.8756 29.9694C49.3658 29.2577 49.7806 28.5084 50.0823 27.7217C50.384 27.0849 50.6103 26.3731 50.7234 25.6613C50.8366 25.0245 50.912 24.3502 50.9874 23.7133C50.9497 22.7019 50.9874 21.6904 50.9874 20.6789C51.1005 19.1055 51.2891 17.5321 51.176 15.9962Z" fill="#2B2C54"/>
</g>
<path d="M39.4834 0.337158H10.2573C4.78916 0.337158 0.376953 4.72019 0.376953 10.1521V23.526C0.376953 28.0214 3.43154 31.8051 7.57977 32.9664L5.54337 43.8303L14.6694 33.341H39.4457C44.9138 33.341 49.326 28.958 49.326 23.526V10.1521C49.3637 4.72019 44.9515 0.337158 39.4834 0.337158Z" fill="white"/>
<path d="M5.54353 44.2049C5.50581 44.2049 5.43039 44.2049 5.39268 44.1675C5.24184 44.0925 5.16642 43.9427 5.20413 43.8303L7.16511 33.2286C2.94147 31.9174 0 27.984 0 23.526V10.1521C0 4.57034 4.60075 0 10.2197 0H39.4458C45.0648 0 49.6655 4.57034 49.6655 10.1521V23.526C49.6655 29.1078 45.0648 33.6782 39.4458 33.6782H14.8205L5.80751 44.0551C5.73209 44.1675 5.65666 44.2049 5.54353 44.2049ZM10.2574 0.674313C4.97787 0.674313 0.678795 4.94496 0.678795 10.1896V23.5635C0.678795 27.7967 3.54484 31.5803 7.65535 32.7042C7.80619 32.7416 7.91932 32.9289 7.88161 33.0788L6.07148 42.7814L14.4056 33.1911C14.4811 33.1162 14.5565 33.0788 14.6696 33.0788H39.4458C44.7254 33.0788 49.0244 28.8081 49.0244 23.5635V10.1896C49.0244 4.94496 44.7254 0.674313 39.4458 0.674313H10.2574Z" fill="#2B2C54"/>
<path d="M14.5217 36.6751C14.484 36.6751 14.484 36.6751 14.4463 36.6376C14.4085 36.6001 14.4085 36.5252 14.4463 36.4878L16.5958 34.3524C16.6335 34.315 16.7089 34.315 16.7466 34.3524C16.7843 34.3899 16.7843 34.4648 16.7466 34.5023L14.5971 36.6376C14.5594 36.6751 14.5594 36.6751 14.5217 36.6751Z" fill="#2B2C54"/>
<path d="M17.2365 36.6751C17.1988 36.6751 17.1988 36.6751 17.1611 36.6376C17.1234 36.6001 17.1234 36.5252 17.1611 36.4878L19.3106 34.3524C19.3483 34.315 19.4238 34.315 19.4615 34.3524C19.4992 34.3899 19.4992 34.4648 19.4615 34.5023L17.3119 36.6376C17.3119 36.6751 17.2742 36.6751 17.2365 36.6751Z" fill="#2B2C54"/>
<path d="M19.8732 36.6751C19.8355 36.6751 19.8355 36.6751 19.7978 36.6376C19.7601 36.6001 19.7601 36.5252 19.7978 36.4878L21.9474 34.3524C21.9851 34.315 22.0605 34.315 22.0982 34.3524C22.1359 34.3899 22.1359 34.4648 22.0982 34.5023L19.9486 36.6376C19.9109 36.6751 19.911 36.6751 19.8732 36.6751Z" fill="#2B2C54"/>
<path d="M22.5139 36.6751C22.4762 36.6751 22.4762 36.6751 22.4384 36.6376C22.4007 36.6001 22.4007 36.5252 22.4384 36.4878L24.588 34.3524C24.6257 34.315 24.7011 34.315 24.7388 34.3524C24.7765 34.3899 24.7765 34.4648 24.7388 34.5023L22.5893 36.6376C22.5893 36.6751 22.5516 36.6751 22.5139 36.6751Z" fill="#2B2C54"/>
<path d="M24.8537 36.6751C24.816 36.6751 24.816 36.6751 24.7783 36.6376C24.7406 36.6001 24.7406 36.5252 24.7783 36.4878L26.9278 34.3524C26.9655 34.315 27.0409 34.315 27.0787 34.3524C27.1164 34.3899 27.1164 34.4648 27.0787 34.5023L24.9291 36.6376C24.9291 36.6751 24.8914 36.6751 24.8537 36.6751Z" fill="#2B2C54"/>
<path d="M27.6076 36.6751C27.5699 36.6751 27.5699 36.6751 27.5322 36.6376C27.4945 36.6001 27.4945 36.5252 27.5322 36.4878L29.6817 34.3524C29.7194 34.315 29.7948 34.315 29.8326 34.3524C29.8703 34.3899 29.8703 34.4648 29.8326 34.5023L27.683 36.6376C27.6453 36.6751 27.6453 36.6751 27.6076 36.6751Z" fill="#2B2C54"/>
<path d="M30.2072 36.6751C30.1695 36.6751 30.1695 36.6751 30.1318 36.6376C30.0941 36.6001 30.0941 36.5252 30.1318 36.4878L32.2813 34.3524C32.319 34.315 32.3945 34.315 32.4322 34.3524C32.4699 34.3899 32.4699 34.4648 32.4322 34.5023L30.2827 36.6376C30.2827 36.6751 30.2449 36.6751 30.2072 36.6751Z" fill="#2B2C54"/>
<path d="M32.883 36.6751C32.8453 36.6751 32.8453 36.6751 32.8076 36.6376C32.7699 36.6001 32.7699 36.5252 32.8076 36.4878L34.9571 34.3524C34.9948 34.315 35.0702 34.315 35.1079 34.3524C35.1457 34.3899 35.1457 34.4648 35.1079 34.5023L32.9584 36.6376C32.9207 36.6751 32.9207 36.6751 32.883 36.6751Z" fill="#2B2C54"/>
<path d="M35.7912 36.6751C35.7535 36.6751 35.7535 36.6751 35.7158 36.6376C35.6781 36.6001 35.6781 36.5252 35.7158 36.4878L37.8653 34.3524C37.903 34.315 37.9784 34.315 38.0162 34.3524C38.0539 34.3899 38.0539 34.4648 38.0162 34.5023L35.8666 36.6376C35.8666 36.6751 35.8289 36.6751 35.7912 36.6751Z" fill="#2B2C54"/>
<path d="M38.5432 36.6751C38.5055 36.6751 38.5054 36.6751 38.4677 36.6376C38.43 36.6001 38.43 36.5252 38.4677 36.4878L40.6173 34.3524C40.655 34.315 40.7304 34.315 40.7681 34.3524C40.8058 34.3899 40.8058 34.4648 40.7681 34.5023L38.6186 36.6376C38.5809 36.6751 38.5809 36.6751 38.5432 36.6751Z" fill="#2B2C54"/>
<path d="M41.1447 36.675C41.107 36.675 41.107 36.675 41.0693 36.6376C41.0316 36.6001 41.0316 36.5252 41.0693 36.4877L43.6337 33.9403C43.6714 33.9029 43.7468 33.9029 43.7845 33.9403C43.8222 33.9778 43.8222 34.0527 43.7845 34.0902L41.2202 36.6376C41.2202 36.675 41.1824 36.675 41.1447 36.675Z" fill="#2B2C54"/>
<path d="M49.5881 28.2836C49.5504 28.2836 49.5504 28.2836 49.5127 28.2462C49.4749 28.2087 49.4749 28.1338 49.5127 28.0963L54.566 23.0764C54.6037 23.039 54.6791 23.039 54.7168 23.0764C54.7545 23.1139 54.7545 23.1888 54.7168 23.2263L49.6635 28.2462C49.6635 28.2836 49.6258 28.2836 49.5881 28.2836Z" fill="#2B2C54"/>
<path d="M50.6096 24.425C50.5719 24.425 50.5719 24.425 50.5341 24.3875C50.4964 24.35 50.4964 24.2751 50.5341 24.2377L54.6069 20.1918C54.6446 20.1543 54.7201 20.1543 54.7578 20.1918C54.7955 20.2293 54.7955 20.3042 54.7578 20.3416L50.685 24.425C50.6473 24.425 50.6473 24.425 50.6096 24.425Z" fill="#2B2C54"/>
<path d="M50.6096 21.6529C50.5719 21.6529 50.5719 21.6529 50.5341 21.6154C50.4964 21.578 50.4964 21.503 50.5341 21.4656L54.6069 17.4197C54.6446 17.3822 54.7201 17.3822 54.7578 17.4197C54.7955 17.4572 54.7955 17.5321 54.7578 17.5696L50.685 21.6154C50.6473 21.6529 50.6473 21.6529 50.6096 21.6529Z" fill="#2B2C54"/>
<path d="M50.385 19.2554C50.3472 19.2554 50.3472 19.2554 50.3095 19.218C50.2718 19.1805 50.2718 19.1056 50.3095 19.0681L54.3824 15.0222C54.4201 14.9848 54.4955 14.9848 54.5332 15.0222C54.5709 15.0597 54.5709 15.1346 54.5332 15.1721L50.4604 19.218C50.4604 19.2554 50.4227 19.2554 50.385 19.2554Z" fill="#2B2C54"/>
<path d="M50.385 16.633C50.3472 16.633 50.3472 16.633 50.3095 16.5955C50.2718 16.5581 50.2718 16.4831 50.3095 16.4457L53.7035 13.0741C53.7412 13.0367 53.8167 13.0367 53.8544 13.0741C53.8921 13.1116 53.8921 13.1865 53.8544 13.224L50.4604 16.5955C50.4604 16.633 50.4227 16.633 50.385 16.633Z" fill="#2B2C54"/>
<path d="M50.4182 13.8984C50.3805 13.8984 50.3804 13.8984 50.3427 13.8609C50.305 13.8235 50.305 13.7486 50.3427 13.7111L52.9825 11.0888C53.0202 11.0513 53.0956 11.0513 53.1333 11.0888C53.1711 11.1262 53.1711 11.2012 53.1333 11.2386L50.4936 13.8609C50.4559 13.8984 50.4182 13.8984 50.4182 13.8984Z" fill="#2B2C54"/>
<path d="M50.6096 11.3136C50.5719 11.3136 50.5719 11.3136 50.5341 11.2761C50.4964 11.2387 50.4964 11.1638 50.5341 11.1263L52.0426 9.62783C52.0803 9.59037 52.1557 9.59037 52.1934 9.62783C52.2311 9.66529 52.2311 9.74021 52.1934 9.77767L50.685 11.2761C50.6473 11.3136 50.6096 11.3136 50.6096 11.3136Z" fill="#2B2C54"/>
<path d="M50.2678 8.80355C50.2301 8.80355 50.2301 8.80355 50.1923 8.76608C50.1546 8.72862 50.1546 8.6537 50.1923 8.61624L50.8334 7.97939C50.8712 7.94193 50.9466 7.94193 50.9843 7.97939C51.022 8.01685 51.022 8.09177 50.9843 8.12924L50.3432 8.76608C50.3432 8.80355 50.3055 8.80355 50.2678 8.80355Z" fill="#2B2C54"/>
<path d="M42.8029 37.874C42.7652 37.874 42.7652 37.874 42.7275 37.8365C42.6898 37.7991 42.6898 37.7241 42.7275 37.6867L54.3802 26.111C54.418 26.0735 54.4934 26.0735 54.5311 26.111C54.5688 26.1484 54.5688 26.2234 54.5311 26.2608L42.8784 37.8365C42.8406 37.8365 42.8029 37.874 42.8029 37.874Z" fill="#2B2C54"/>
<path d="M44.0842 39.2601C44.0464 39.2601 44.0465 39.2601 44.0088 39.2226C43.971 39.1852 43.971 39.1102 44.0088 39.0728L54.0022 29.1454C54.0399 29.1079 54.1153 29.1079 54.153 29.1454C54.1907 29.1829 54.1907 29.2578 54.153 29.2953L44.1596 39.2226C44.1596 39.2601 44.1219 39.2601 44.0842 39.2601Z" fill="#2B2C54"/>
<path d="M50.0822 35.776C50.0445 35.776 50.0445 35.776 50.0068 35.7385C49.9691 35.7011 49.9691 35.6261 50.0068 35.5887L53.2877 32.3295C53.3254 32.292 53.4008 32.292 53.4385 32.3295C53.4762 32.3669 53.4762 32.4419 53.4385 32.4793L50.1577 35.7385C50.1199 35.776 50.1199 35.776 50.0822 35.776Z" fill="#2B2C54"/>
<path d="M45.2893 40.9832C45.2515 40.9832 45.2515 40.9832 45.2138 40.9458C45.1761 40.9083 45.1761 40.8334 45.2138 40.7959L47.2502 38.773C47.288 38.7355 47.3634 38.7355 47.4011 38.773C47.4388 38.8104 47.4388 38.8854 47.4011 38.9228L45.3647 40.9458C45.3647 40.9458 45.327 40.9832 45.2893 40.9832Z" fill="#2B2C54"/>
<path d="M46.4963 42.4816C46.4586 42.4816 46.4586 42.4816 46.4209 42.4442C46.3832 42.4067 46.3832 42.3318 46.4209 42.2943L47.7785 40.9457C47.8162 40.9082 47.8916 40.9082 47.9293 40.9457C47.967 40.9832 47.967 41.0581 47.9293 41.0955L46.5717 42.4442C46.5717 42.4816 46.534 42.4816 46.4963 42.4816Z" fill="#2B2C54"/>
<path d="M47.6271 44.13C47.5894 44.13 47.5894 44.13 47.5517 44.0926C47.514 44.0551 47.514 43.9802 47.5517 43.9427L48.3437 43.156C48.3814 43.1186 48.4568 43.1186 48.4945 43.156C48.5322 43.1935 48.5322 43.2684 48.4945 43.3059L47.7026 44.0926C47.7026 44.0926 47.6649 44.13 47.6271 44.13Z" fill="#2B2C54"/>
<g opacity="0.1294">
<path d="M51.176 15.9962C51.1005 14.198 50.8743 12.3999 50.8743 10.5642C50.912 9.25308 50.7988 7.90445 50.2709 6.70568C50.0069 6.18121 49.8183 5.69421 49.1773 5.76913C48.8756 5.76913 48.6116 6.03137 48.5362 6.2936C48.4985 6.44345 48.4985 6.55583 48.5362 6.70568C48.5362 6.7806 48.5739 6.81806 48.6116 6.85553C48.6493 6.96791 48.6493 6.93045 48.8379 7.30507C48.9887 7.71715 49.1018 8.12922 49.1773 8.57876C49.2904 9.55277 49.215 10.5268 49.2527 11.5008C49.2904 12.7745 49.4035 14.0482 49.4412 15.3219C49.5167 17.5321 49.3658 19.7798 49.3658 21.9901C49.3658 23.2638 49.3658 25.0245 49.1773 25.6613C49.1773 25.7363 49.1396 25.7737 49.1396 25.8487C49.1396 25.8861 49.1018 25.9236 49.1018 25.961C48.9133 26.6354 48.7247 27.0474 48.6493 27.2347C47.9705 28.9954 45.5193 32.0673 43.8977 32.5543C42.2761 33.0788 41.5219 33.1162 39.7495 33.0413C38.241 33.0413 36.7326 33.0039 35.1864 33.0039C33.6403 32.9664 32.0564 33.0413 30.5103 33.0039C28.7001 32.9289 26.8523 33.0413 25.0421 33.0039C22.1761 32.9664 19.2346 32.8166 17.1228 33.0788C16.0292 33.1537 15.8784 32.9289 15.1619 33.2286C14.0305 34.0528 13.2009 35.2516 12.0695 36.1132C11.2399 37.0123 12.4844 38.286 13.3894 37.4244C14.1814 36.7875 15.3504 35.4763 15.8784 34.9519C16.1423 34.9893 16.3686 34.9893 16.6326 35.0268C19.3855 34.9893 22.1007 34.8769 24.8536 34.8395C27.7573 34.8395 30.6611 34.802 33.5271 34.7271C35.639 34.7271 37.7508 34.7271 39.8626 34.6147C40.7677 34.6147 41.635 34.6147 42.5024 34.4649C43.3321 34.315 44.1617 34.1652 44.9159 33.7906C45.5193 33.5283 46.0095 33.1162 46.4998 32.6667C47.4048 31.88 48.1968 30.9435 48.8756 29.9694C49.3658 29.2577 49.7806 28.5084 50.0823 27.7217C50.384 27.0849 50.6103 26.3731 50.7234 25.6613C50.8366 25.0245 50.912 24.3502 50.9874 23.7133C50.9497 22.7019 50.9874 21.6904 50.9874 20.6789C51.1005 19.1055 51.2891 17.5321 51.176 15.9962Z" fill="#2B2C54"/>
</g>
<path d="M36.4259 9.14075H9.12305V11.6882H36.4259V9.14075Z" fill="#D4CAFB"/>
<path d="M36.4274 12.0253H9.12457C8.93601 12.0253 8.78516 11.8755 8.78516 11.6881V9.14074C8.78516 8.95343 8.93601 8.80359 9.12457 8.80359H36.4274C36.6159 8.80359 36.7668 8.95343 36.7668 9.14074V11.6881C36.7668 11.8755 36.6159 12.0253 36.4274 12.0253ZM9.46395 11.3885H36.088V9.4779H9.46395V11.3885Z" fill="#2B2C54"/>
<path d="M25.9045 15.2468H9.12305V17.7942H25.9045V15.2468Z" fill="white"/>
<path d="M25.906 18.1314H9.12457C8.93601 18.1314 8.78516 17.9815 8.78516 17.7942V15.2468C8.78516 15.0595 8.93601 14.9097 9.12457 14.9097H25.906C26.0946 14.9097 26.2454 15.0595 26.2454 15.2468V17.7942C26.2454 18.019 26.0946 18.1314 25.906 18.1314ZM9.46395 17.4945H25.5666V15.584H9.46395V17.4945Z" fill="#2B2C54"/>
<path d="M36.4259 21.3907H9.12305V23.9382H36.4259V21.3907Z" fill="#D4CAFB"/>
<path d="M36.4274 24.2753H9.12457C8.93601 24.2753 8.78516 24.1255 8.78516 23.9382V21.3907C8.78516 21.2034 8.93601 21.0536 9.12457 21.0536H36.4274C36.6159 21.0536 36.7668 21.2034 36.7668 21.3907V23.9382C36.7668 24.1255 36.6159 24.2753 36.4274 24.2753ZM9.46395 23.601H36.088V21.6904H9.46395V23.601Z" fill="#2B2C54"/>
</svg>
