<svg width="46" height="56" viewBox="0 0 46 56" fill="none" xmlns="http://www.w3.org/2000/svg">
<path d="M0.380859 49.5418V6.5008C0.380859 3.1442 3.08162 0.424927 6.41538 0.424927H25.9115C29.2453 0.424927 31.9461 3.1442 31.9461 6.5008V49.5843C31.9461 52.9409 29.2453 55.6601 25.9115 55.6601H6.45758C3.12382 55.6601 0.380859 52.9409 0.380859 49.5418Z" fill="#D4CAFB"/>
<path d="M25.9527 56H6.37212C2.86957 56 0 53.1108 0 49.5842V6.41578C0 2.88923 2.86957 0 6.37212 0H25.9527C29.4552 0 32.3248 2.88923 32.3248 6.41578V49.5842C32.3248 53.1533 29.4552 56 25.9527 56ZM6.37212 0.764796C3.24936 0.764796 0.759585 3.31411 0.759585 6.41578V49.5842C0.759585 52.7284 3.29156 55.2352 6.37212 55.2352H25.9527C29.0754 55.2352 31.5652 52.6859 31.5652 49.5842V6.41578C31.5652 3.27162 29.0332 0.764796 25.9527 0.764796H6.37212Z" fill="#2B2C54"/>
<path d="M31.9461 6.28833H0.380859V47.9697H31.9461V6.28833Z" fill="white"/>
<path d="M31.945 48.3095H0.379793C0.168795 48.3095 0 48.1396 0 47.9271V6.28828C0 6.07584 0.168795 5.90588 0.379793 5.90588H31.945C32.156 5.90588 32.3248 6.07584 32.3248 6.28828V47.9696C32.3248 48.1396 32.156 48.3095 31.945 48.3095ZM0.759585 47.5872H31.5652V6.62819H0.759585V47.5872Z" fill="#2B2C54"/>
<path d="M19.3305 51.2838H13.6336C13.4226 51.2838 13.2538 51.1139 13.2538 50.9014C13.2538 50.689 13.4226 50.519 13.6336 50.519H19.3305C19.5415 50.519 19.7103 50.689 19.7103 50.9014C19.7103 51.1139 19.5415 51.2838 19.3305 51.2838Z" fill="#2B2C54"/>
<path d="M19.5791 14.3611H5.65323C5.44223 14.3611 5.27344 14.1912 5.27344 13.9787C5.27344 13.7663 5.44223 13.5963 5.65323 13.5963H19.5791C19.7901 13.5963 19.9588 13.7663 19.9588 13.9787C19.9588 14.1912 19.7901 14.3611 19.5791 14.3611Z" fill="#2B2C54"/>
<path d="M12.6161 22.9864H5.65323C5.44223 22.9864 5.27344 22.8164 5.27344 22.604C5.27344 22.3915 5.44223 22.2216 5.65323 22.2216H12.6161C12.8271 22.2216 12.9959 22.3915 12.9959 22.604C12.9959 22.8164 12.8271 22.9864 12.6161 22.9864Z" fill="#2B2C54"/>
<path d="M12.6161 31.6116H5.65323C5.44223 31.6116 5.27344 31.4416 5.27344 31.2292C5.27344 31.0168 5.44223 30.8468 5.65323 30.8468H12.6161C12.8271 30.8468 12.9959 31.0168 12.9959 31.2292C12.9959 31.4841 12.8271 31.6116 12.6161 31.6116Z" fill="#2B2C54"/>
<path d="M12.6161 40.2792H5.65323C5.44223 40.2792 5.27344 40.1092 5.27344 39.8968C5.27344 39.6844 5.44223 39.5144 5.65323 39.5144H12.6161C12.8271 39.5144 12.9959 39.6844 12.9959 39.8968C12.9959 40.1092 12.8271 40.2792 12.6161 40.2792Z" fill="#2B2C54"/>
<g opacity="0.1294">
<path d="M29.8386 6.33079C28.7414 6.28831 27.6864 6.24582 26.5892 6.24582C23.6774 6.20333 20.8079 6.20333 17.8961 6.24582C15.6173 6.24582 13.3386 6.37328 11.0598 6.20333C8.27463 6.11835 5.48947 5.9484 2.6621 6.07586C2.28231 6.07586 1.86032 6.07586 1.48052 6.07586C1.22732 6.07586 0.974123 6.03337 0.763126 6.16084C-0.291861 6.58573 0.0457345 8.24278 1.18512 8.24278C2.5355 8.32776 3.92809 8.24278 5.27847 8.28527C6.92425 8.28527 8.52784 8.41274 10.1736 8.45523C16.2503 8.49771 22.3271 8.49772 28.4038 8.41274C29.2056 8.41274 30.0074 8.41274 30.8092 8.41274C31.4843 8.49772 32.1595 8.15781 32.1595 7.39301C32.1173 6.03337 30.7247 6.41577 29.8386 6.33079Z" fill="#2B2C54"/>
</g>
<path d="M31.8629 12.9166C24.2248 12.9166 18.0215 19.3749 18.0215 27.3628C18.0215 30.6769 19.0765 33.6936 20.8489 36.1579L19.1609 43.1685L24.9422 39.9394C26.9678 41.1716 29.3309 41.8514 31.8207 41.8514C39.4588 41.8514 45.6621 35.3931 45.6621 27.4052C45.6621 19.4174 39.501 12.9166 31.8629 12.9166Z" fill="white"/>
<path d="M19.1598 43.5084C19.0754 43.5084 18.991 43.4659 18.9488 43.4234C18.8222 43.3384 18.78 43.1685 18.8222 43.041L20.468 36.2003C18.6112 33.6085 17.6406 30.5494 17.6406 27.3202C17.6406 19.1624 24.0127 12.4917 31.8197 12.4917C39.6266 12.4917 45.9987 19.1624 45.9987 27.3202C45.9987 35.478 39.6266 42.1488 31.8197 42.1488C29.4143 42.1488 27.0511 41.5114 24.9411 40.2793L19.3286 43.4234C19.2864 43.5084 19.2442 43.5084 19.1598 43.5084ZM31.8619 13.2565C24.4347 13.2565 18.4002 19.5873 18.4002 27.3627C18.4002 30.5069 19.3708 33.4386 21.1854 35.9454C21.2698 36.0304 21.2698 36.1579 21.2276 36.2428L19.7506 42.4037L24.8145 39.5569C24.9411 39.5145 25.0677 39.5145 25.1943 39.5569C27.2199 40.7891 29.5409 41.4265 31.8619 41.4265C39.289 41.4265 45.3235 35.0956 45.3235 27.3202C45.3235 19.5873 39.289 13.2565 31.8619 13.2565Z" fill="#2B2C54"/>
<path d="M32.2011 34.3308L26.6308 26.3854C25.7024 25.0683 25.9978 23.2413 27.2638 22.3065C28.5298 21.3718 30.3022 21.6267 31.2306 22.9439L32.2011 24.3035L33.1717 22.9439C34.1001 21.6267 35.8725 21.3293 37.1385 22.3065C38.4045 23.2413 38.6999 25.1108 37.7715 26.3854L32.2011 34.3308Z" fill="#D4CAFB"/>
<path d="M32.201 34.6708C32.0744 34.6708 31.99 34.6283 31.9056 34.5008L26.3353 26.5979C25.2803 25.1108 25.6179 23.0714 27.0527 22.0092C27.7279 21.4993 28.5718 21.2868 29.458 21.4143C30.302 21.5418 31.0616 22.0091 31.568 22.7315L32.2432 23.6662L32.9184 22.7315C33.4248 22.0091 34.1844 21.5418 35.0284 21.4143C35.8724 21.2868 36.7163 21.4993 37.4337 22.0092C38.8685 23.0714 39.1639 25.1533 38.1511 26.5979L32.5808 34.5433C32.4542 34.6283 32.3276 34.6708 32.201 34.6708ZM28.9517 22.0941C28.4453 22.0941 27.9389 22.2641 27.5169 22.5615C26.4197 23.4113 26.1665 24.9834 26.9683 26.1305L32.2432 33.651L37.5181 26.1305C38.3199 24.9834 38.0667 23.3688 36.9696 22.5615C36.421 22.1791 35.788 22.0091 35.155 22.0941C34.4798 22.1791 33.9312 22.5615 33.5092 23.1139L32.5386 24.4735C32.4542 24.5585 32.3698 24.6434 32.2432 24.6434C32.1166 24.6434 32.0322 24.601 31.9478 24.4735L30.9772 23.1139C30.5974 22.5615 30.0066 22.1791 29.3314 22.0941C29.2048 22.0941 29.0783 22.0941 28.9517 22.0941Z" fill="#2B2C54"/>
<g opacity="0.1294">
<path d="M31.991 43.4659C31.991 43.3809 31.991 43.3384 31.991 43.3384C31.991 43.2534 31.9488 43.1684 31.9488 43.0835C31.8644 42.7436 31.9066 42.4461 31.9488 42.1487C31.8222 42.1062 31.6956 42.1062 31.569 42.1062C29.9654 42.0637 26.8849 41.2565 25.3235 40.4067C24.9015 40.2367 24.4795 40.5342 24.0997 40.7466C23.2979 41.129 22.5383 41.6389 21.7366 42.0213C21.2302 42.2762 20.7238 42.4886 20.2174 42.7011C19.922 42.8285 19.5844 42.9135 19.4578 43.2109C19.078 43.8058 19.711 44.6131 20.3862 44.4006C21.7787 43.8483 23.0869 43.1684 24.3529 42.4036C24.8171 42.1487 24.8593 42.1487 25.0281 42.0637C25.3235 42.2337 25.6611 42.3612 25.9565 42.4886C27.6445 43.2109 30.303 43.6783 31.358 43.7633C31.6112 43.8058 31.8644 43.8058 32.0332 43.7633C31.991 43.6783 31.991 43.5508 31.991 43.4659Z" fill="#2B2C54"/>
</g>
</svg>
