<svg width="63" height="56" viewBox="0 0 63 56" fill="none" xmlns="http://www.w3.org/2000/svg">
<path d="M0.373806 39.7695L51.752 39.7695L51.752 3.78807L0.373806 3.78807L0.373806 39.7695Z" fill="#F6F4FE"/>
<path d="M51.7159 40.0805H0.337776C0.150128 40.0805 0 39.9287 0 39.739V3.79545C0 3.60568 0.150128 3.45386 0.337776 3.45386H51.7159C51.9036 3.45386 52.0537 3.60568 52.0537 3.79545V39.7769C52.0537 39.9667 51.9036 40.0805 51.7159 40.0805ZM0.675553 39.4353H51.4157V4.13705H0.675553V39.4353Z" fill="#2B2C54"/>
<path d="M0.373806 6.99609L51.752 6.99609V2.2517L0.373806 2.2517V6.99609Z" fill="#9981F5"/>
<path d="M51.7159 7.32529H0.337776C0.150128 7.32529 0 7.17348 0 6.9837V2.27726C0 2.08749 0.150128 1.93567 0.337776 1.93567H51.7159C51.9036 1.93567 52.0537 2.08749 52.0537 2.27726V7.02165C52.0537 7.17347 51.9036 7.32529 51.7159 7.32529ZM0.675553 6.68006H51.4157V2.5809H0.675553V6.68006Z" fill="#2B2C54"/>
<path d="M12.3915 11.9178H5.86133V16.3206H12.3915V11.9178Z" fill="#F6F4FE"/>
<path d="M12.3894 16.6622H5.85921C5.67157 16.6622 5.52148 16.5103 5.52148 16.3206V11.9178C5.52148 11.728 5.67157 11.5762 5.85921 11.5762H12.3894C12.577 11.5762 12.7272 11.728 12.7272 11.9178V16.3206C12.6896 16.5103 12.577 16.6622 12.3894 16.6622ZM6.15947 15.979H12.0516V12.2214H6.15947V15.979Z" fill="#2B2C54"/>
<path d="M23.6825 11.9178H17.1523V16.3206H23.6825V11.9178Z" fill="#F6F4FE"/>
<path d="M23.6804 16.6622H17.1503C16.9626 16.6622 16.8125 16.5103 16.8125 16.3206V11.9178C16.8125 11.728 16.9626 11.5762 17.1503 11.5762H23.6804C23.8681 11.5762 24.0182 11.728 24.0182 11.9178V16.3206C23.9807 16.5103 23.8305 16.6622 23.6804 16.6622ZM17.4505 15.979H23.3427V12.2214H17.4505V15.979Z" fill="#2B2C54"/>
<path d="M34.9461 11.918H28.416V16.3208H34.9461V11.918Z" fill="#F6F4FE"/>
<path d="M34.9441 16.6623H28.4139C28.2263 16.6623 28.0762 16.5105 28.0762 16.3207V11.9179C28.0762 11.7281 28.2263 11.5763 28.4139 11.5763H34.9441C35.1317 11.5763 35.2819 11.7281 35.2819 11.9179V16.3207C35.2819 16.5105 35.1317 16.6623 34.9441 16.6623ZM28.7517 15.9791H34.6439V12.2215H28.7517V15.9791Z" fill="#2B2C54"/>
<path d="M46.2372 11.9178H39.707V16.3206H46.2372V11.9178Z" fill="#F6F4FE"/>
<path d="M46.2351 16.6622H39.705C39.5173 16.6622 39.3672 16.5103 39.3672 16.3206V11.9178C39.3672 11.728 39.5173 11.5762 39.705 11.5762H46.2351C46.4228 11.5762 46.5729 11.728 46.5729 11.9178V16.3206C46.5729 16.5103 46.4228 16.6622 46.2351 16.6622ZM40.0427 15.979H45.9349V12.2214H40.0427V15.979Z" fill="#2B2C54"/>
<path d="M12.3915 21.7863H5.86133V26.1891H12.3915V21.7863Z" fill="#F6F4FE"/>
<path d="M12.3894 26.5306H5.85921C5.67157 26.5306 5.52148 26.3787 5.52148 26.189V21.7862C5.52148 21.5964 5.67157 21.4446 5.85921 21.4446H12.3894C12.577 21.4446 12.7272 21.5964 12.7272 21.7862V26.189C12.6896 26.3787 12.577 26.5306 12.3894 26.5306ZM6.15947 25.8474H12.0516V22.0898H6.15947V25.8474Z" fill="#2B2C54"/>
<path d="M23.6825 21.7863H17.1523V26.1891H23.6825V21.7863Z" fill="#F6F4FE"/>
<path d="M23.6804 26.5306H17.1503C16.9626 26.5306 16.8125 26.3787 16.8125 26.189V21.7862C16.8125 21.5964 16.9626 21.4446 17.1503 21.4446H23.6804C23.8681 21.4446 24.0182 21.5964 24.0182 21.7862V26.189C23.9807 26.3787 23.8305 26.5306 23.6804 26.5306ZM17.4505 25.8474H23.3427V22.0898H17.4505V25.8474Z" fill="#2B2C54"/>
<path d="M34.9461 21.7863H28.416V26.1891H34.9461V21.7863Z" fill="#F6F4FE"/>
<path d="M34.9441 26.5306H28.4139C28.2263 26.5306 28.0762 26.3787 28.0762 26.189V21.7862C28.0762 21.5964 28.2263 21.4446 28.4139 21.4446H34.9441C35.1317 21.4446 35.2819 21.5964 35.2819 21.7862V26.189C35.2819 26.3787 35.1317 26.5306 34.9441 26.5306ZM28.7517 25.8474H34.6439V22.0898H28.7517V25.8474Z" fill="#2B2C54"/>
<path d="M46.2372 21.7863H39.707V26.1891H46.2372V21.7863Z" fill="#F6F4FE"/>
<path d="M46.2351 26.5306H39.705C39.5173 26.5306 39.3672 26.3787 39.3672 26.189V21.7862C39.3672 21.5964 39.5173 21.4446 39.705 21.4446H46.2351C46.4228 21.4446 46.5729 21.5964 46.5729 21.7862V26.189C46.5729 26.3787 46.4228 26.5306 46.2351 26.5306ZM40.0427 25.8474H45.9349V22.0898H40.0427V25.8474Z" fill="#2B2C54"/>
<path d="M12.3915 30.6298H5.86133V35.0326H12.3915V30.6298Z" fill="#F6F4FE"/>
<path d="M12.3894 35.3362H5.85921C5.67157 35.3362 5.52148 35.1844 5.52148 34.9946V30.5918C5.52148 30.4021 5.67157 30.2502 5.85921 30.2502H12.3894C12.577 30.2502 12.7272 30.4021 12.7272 30.5918V34.9946C12.6896 35.2224 12.577 35.3362 12.3894 35.3362ZM6.15947 34.691H12.0516V30.9334H6.15947V34.691Z" fill="#2B2C54"/>
<path d="M23.6825 30.6298H17.1523V35.0326H23.6825V30.6298Z" fill="#F6F4FE"/>
<path d="M23.6804 35.3362H17.1503C16.9626 35.3362 16.8125 35.1844 16.8125 34.9946V30.5918C16.8125 30.4021 16.9626 30.2502 17.1503 30.2502H23.6804C23.8681 30.2502 24.0182 30.4021 24.0182 30.5918V34.9946C23.9807 35.2224 23.8305 35.3362 23.6804 35.3362ZM17.4505 34.691H23.3427V30.9334H17.4505V34.691Z" fill="#2B2C54"/>
<path d="M34.9461 30.6298H28.416V35.0326H34.9461V30.6298Z" fill="#F6F4FE"/>
<path d="M34.9441 35.3362H28.4139C28.2263 35.3362 28.0762 35.1844 28.0762 34.9946V30.5918C28.0762 30.4021 28.2263 30.2502 28.4139 30.2502H34.9441C35.1317 30.2502 35.2819 30.4021 35.2819 30.5918V34.9946C35.2819 35.2224 35.1317 35.3362 34.9441 35.3362ZM28.7517 34.691H34.6439V30.9334H28.7517V34.691Z" fill="#2B2C54"/>
<path d="M46.2372 30.6298H39.707V35.0326H46.2372V30.6298Z" fill="#F6F4FE"/>
<path d="M46.2351 35.3362H39.705C39.5173 35.3362 39.3672 35.1844 39.3672 34.9946V30.5918C39.3672 30.4021 39.5173 30.2502 39.705 30.2502H46.2351C46.4228 30.2502 46.5729 30.4021 46.5729 30.5918V34.9946C46.5729 35.2224 46.4228 35.3362 46.2351 35.3362ZM40.0427 34.691H45.9349V30.9334H40.0427V34.691Z" fill="#2B2C54"/>
<path d="M35.9511 4.972C35.7634 4.972 35.6133 4.82018 35.6133 4.6304V0.341475C35.6133 0.151699 35.7634 -0.00012207 35.9511 -0.00012207C36.1387 -0.00012207 36.2888 0.151699 36.2888 0.341475V4.6304C36.2888 4.82018 36.1387 4.972 35.9511 4.972Z" fill="#2B2C54"/>
<path d="M16.1366 4.97212C15.949 4.97212 15.7988 4.8203 15.7988 4.63052V0.341597C15.7988 0.151821 15.949 0 16.1366 0C16.3243 0 16.4744 0.151821 16.4744 0.341597V4.63052C16.4744 4.8203 16.3243 4.97212 16.1366 4.97212Z" fill="#2B2C54"/>
<path d="M17.8239 13.626C17.7864 13.626 17.7864 13.626 17.7489 13.588C17.7113 13.5501 17.7113 13.4742 17.7489 13.4362C18.0866 13.0946 18.4244 12.753 18.7621 12.4494C18.7997 12.4114 18.8747 12.4114 18.9123 12.4494C18.9498 12.4873 18.9498 12.5632 18.9123 12.6012C18.5745 12.9048 18.2367 13.2464 17.899 13.588C17.899 13.588 17.8614 13.626 17.8239 13.626Z" fill="#2B2C54"/>
<path d="M22.2946 15.5995C22.2571 15.5995 22.2571 15.5995 22.2196 15.5616C22.182 15.5236 22.182 15.4477 22.2196 15.4098L22.9326 14.6886C22.9701 14.6507 23.0452 14.6507 23.0827 14.6886C23.1202 14.7266 23.1202 14.8025 23.0827 14.8404L22.3696 15.5616C22.3696 15.5616 22.3321 15.5995 22.2946 15.5995Z" fill="#2B2C54"/>
<path d="M6.60734 23.1906C6.56981 23.1906 6.56983 23.1906 6.5323 23.1527C6.49477 23.1147 6.49477 23.0388 6.5323 23.0009C6.71995 22.8111 6.90759 22.6213 7.09524 22.4315C7.13277 22.3936 7.20784 22.3936 7.24537 22.4315C7.2829 22.4695 7.2829 22.5454 7.24537 22.5834C7.05772 22.7731 6.87007 22.9629 6.68243 23.1527C6.6449 23.1906 6.64487 23.1906 6.60734 23.1906Z" fill="#2B2C54"/>
<path d="M6.60734 24.7847C6.56981 24.7847 6.56983 24.7848 6.5323 24.7468C6.49477 24.7088 6.49477 24.6329 6.5323 24.595C7.1703 23.8359 7.84585 23.0768 8.55891 22.3936C8.59644 22.3556 8.67151 22.3556 8.70904 22.3936C8.74657 22.4315 8.74657 22.5074 8.70904 22.5454C8.0335 23.2665 7.35795 23.9877 6.71995 24.7468C6.68242 24.7848 6.64487 24.7847 6.60734 24.7847Z" fill="#2B2C54"/>
<path d="M7.72624 25.5817C7.68871 25.5817 7.68872 25.5817 7.65119 25.5437C7.61366 25.5058 7.61366 25.4299 7.65119 25.3919C8.47685 24.3671 9.34005 23.3423 10.2032 22.3935C10.2408 22.3555 10.3158 22.3555 10.3533 22.3935C10.3908 22.4314 10.3908 22.5073 10.3533 22.5453C9.49013 23.4942 8.62698 24.5189 7.80132 25.5437C7.80132 25.5817 7.76376 25.5817 7.72624 25.5817Z" fill="#2B2C54"/>
<path d="M9.42167 25.5437C9.38414 25.5437 9.38416 25.5437 9.34663 25.5058C9.3091 25.4678 9.3091 25.3919 9.34663 25.354C10.0222 24.5569 10.6977 23.7219 11.3732 22.9248C11.4108 22.8869 11.4858 22.8869 11.5234 22.9248C11.5609 22.9628 11.5609 23.0387 11.5234 23.0766C10.8478 23.8737 10.1723 24.6708 9.49676 25.4678C9.49676 25.5437 9.4592 25.5437 9.42167 25.5437Z" fill="#2B2C54"/>
<path d="M11.0695 25.5439C11.032 25.5439 11.032 25.5439 10.9945 25.5059C10.9569 25.468 10.9194 25.3921 10.957 25.3541C11.1071 25.1264 11.2572 24.8987 11.4448 24.7089C11.4823 24.6709 11.5574 24.6709 11.5949 24.7089C11.6325 24.7468 11.6325 24.8228 11.5949 24.8607C11.4448 25.0505 11.2572 25.2782 11.107 25.5059C11.1446 25.5439 11.107 25.5439 11.0695 25.5439Z" fill="#2B2C54"/>
<path d="M17.9411 14.9163C17.9036 14.9163 17.866 14.9163 17.866 14.8784C17.8285 14.8404 17.8285 14.7645 17.866 14.7266C18.6542 14.0434 19.4423 13.2843 20.1929 12.5252C20.2304 12.4872 20.3055 12.4872 20.343 12.5252C20.3806 12.5631 20.3806 12.639 20.343 12.677C19.5924 13.4361 18.8418 14.1952 18.0162 14.8784C17.9786 14.9163 17.9411 14.9163 17.9411 14.9163Z" fill="#2B2C54"/>
<path d="M18.9508 15.7135C18.9133 15.7135 18.8758 15.7135 18.8758 15.6756C18.8383 15.6376 18.8383 15.5617 18.8758 15.5238C19.9266 14.499 20.9775 13.5121 22.0658 12.5633C22.1034 12.5253 22.1784 12.5253 22.216 12.5633C22.2535 12.6012 22.2535 12.6771 22.216 12.7151C21.1276 13.664 20.0768 14.6508 19.0259 15.6756C18.9884 15.7135 18.9884 15.7135 18.9508 15.7135Z" fill="#2B2C54"/>
<path d="M20.5661 15.7513C20.5286 15.7513 20.491 15.7513 20.491 15.7134C20.4535 15.6754 20.4535 15.5995 20.491 15.5615C21.2416 14.8404 22.0298 14.1192 22.8179 13.3981C22.8554 13.3601 22.9305 13.3601 22.968 13.3981C23.0056 13.4361 23.0056 13.512 22.968 13.5499C22.1799 14.2331 21.3918 14.9922 20.6412 15.7134C20.6412 15.7513 20.6037 15.7513 20.5661 15.7513Z" fill="#2B2C54"/>
<path d="M29.1619 32.4137C29.1244 32.4137 29.1244 32.4137 29.0869 32.3757C29.0493 32.3378 29.0493 32.2619 29.0869 32.2239L29.875 31.275C29.9125 31.2371 29.9876 31.2371 30.0251 31.275C30.0626 31.313 30.0626 31.3889 30.0251 31.4269L29.237 32.3757C29.237 32.4137 29.1995 32.4137 29.1619 32.4137Z" fill="#2B2C54"/>
<path d="M29.2375 34.2355C29.2 34.2355 29.2 34.2355 29.1625 34.1976C29.1249 34.1596 29.0874 34.0837 29.1249 34.0458C29.8004 33.0589 30.5886 32.11 31.3767 31.1991C31.4142 31.1612 31.4893 31.1612 31.5268 31.1991C31.5644 31.2371 31.5644 31.313 31.5268 31.3509C30.7387 32.2619 29.9881 33.2107 29.275 34.1976C29.275 34.1976 29.275 34.2355 29.2375 34.2355Z" fill="#2B2C54"/>
<path d="M30.9645 34.2734C30.927 34.2734 30.927 34.2734 30.8895 34.2355C30.8519 34.1975 30.8519 34.1216 30.8895 34.0837L32.5783 31.9961C32.6158 31.9582 32.6909 31.9582 32.7284 31.9961C32.766 32.0341 32.766 32.11 32.7284 32.1479L31.0396 34.2355C31.0021 34.2355 31.002 34.2734 30.9645 34.2734Z" fill="#2B2C54"/>
<path d="M32.3861 34.3114C32.3486 34.3114 32.3485 34.3114 32.311 34.2735C32.2735 34.2355 32.236 34.1596 32.2735 34.1217L32.6488 33.5903C32.6863 33.5523 32.7614 33.5144 32.7989 33.5523C32.8364 33.5903 32.874 33.6662 32.8364 33.7042L32.4611 34.2355C32.4611 34.3114 32.4236 34.3114 32.3861 34.3114Z" fill="#2B2C54"/>
<g opacity="0.1294">
<path d="M51.718 7.05969H0.339844V8.61585H51.718V7.05969Z" fill="#2B2C54"/>
</g>
<path d="M47.5546 48.6966C55.3479 48.6966 61.6657 42.3071 61.6657 34.4254C61.6657 26.5437 55.3479 20.1543 47.5546 20.1543C39.7612 20.1543 33.4434 26.5437 33.4434 34.4254C33.4434 42.3071 39.7612 48.6966 47.5546 48.6966Z" fill="#F6F4FE"/>
<path d="M47.5524 49.0001C39.5962 49.0001 33.1035 42.4339 33.1035 34.3874C33.1035 26.3409 39.5962 19.7747 47.5524 19.7747C55.5087 19.7747 62.0014 26.3409 62.0014 34.3874C62.0014 42.4339 55.5087 49.0001 47.5524 49.0001ZM47.5524 20.4578C39.9339 20.4578 33.779 26.7204 33.779 34.3874C33.779 42.0543 39.9714 48.3169 47.5524 48.3169C55.171 48.3169 61.3258 42.0543 61.3258 34.3874C61.3258 26.7204 55.171 20.4578 47.5524 20.4578Z" fill="#2B2C54"/>
<path d="M47.5487 24.4812C47.3611 24.4812 47.2109 24.3294 47.2109 24.1396V22.2039C47.2109 22.0141 47.3611 21.8623 47.5487 21.8623C47.7364 21.8623 47.8864 22.0141 47.8864 22.2039V24.1396C47.8864 24.3294 47.7364 24.4812 47.5487 24.4812Z" fill="#2B2C54"/>
<path d="M47.5487 46.9507C47.3611 46.9507 47.2109 46.7989 47.2109 46.6091V44.6734C47.2109 44.4836 47.3611 44.3318 47.5487 44.3318C47.7364 44.3318 47.8864 44.4836 47.8864 44.6734V46.6091C47.8864 46.7989 47.7364 46.9507 47.5487 46.9507Z" fill="#2B2C54"/>
<path d="M59.6053 34.7288H57.6913C57.5036 34.7288 57.3535 34.577 57.3535 34.3872C57.3535 34.1975 57.5036 34.0457 57.6913 34.0457H59.6053C59.7929 34.0457 59.9431 34.1975 59.9431 34.3872C59.9431 34.577 59.7929 34.7288 59.6053 34.7288Z" fill="#2B2C54"/>
<path d="M37.4237 34.7288H35.5096C35.322 34.7288 35.1719 34.577 35.1719 34.3872C35.1719 34.1975 35.322 34.0457 35.5096 34.0457H37.4237C37.6113 34.0457 37.7614 34.1975 37.7614 34.3872C37.7614 34.577 37.6113 34.7288 37.4237 34.7288Z" fill="#2B2C54"/>
<path d="M47.8936 34.4254C47.8185 34.4254 47.7435 34.3874 47.6684 34.3115C47.5558 34.1976 47.5558 33.9699 47.6684 33.856L52.8851 28.5803C52.9977 28.4664 53.2228 28.4664 53.3354 28.5803C53.448 28.6941 53.448 28.9219 53.3354 29.0357L48.1188 34.3115C48.0438 34.3874 47.9687 34.4254 47.8936 34.4254Z" fill="#2B2C54"/>
<path d="M47.5522 35.9816C48.402 35.9816 49.0909 35.2849 49.0909 34.4254C49.0909 33.566 48.402 32.8693 47.5522 32.8693C46.7024 32.8693 46.0134 33.566 46.0134 34.4254C46.0134 35.2849 46.7024 35.9816 47.5522 35.9816Z" fill="#F6F4FE"/>
<path d="M47.5519 36.2852C46.5386 36.2852 45.7129 35.4501 45.7129 34.4254C45.7129 33.4006 46.5386 32.5656 47.5519 32.5656C48.5652 32.5656 49.3908 33.4006 49.3908 34.4254C49.3908 35.4501 48.5652 36.2852 47.5519 36.2852ZM47.5519 33.2108C46.8763 33.2108 46.3509 33.7422 46.3509 34.4254C46.3509 35.1085 46.8763 35.6399 47.5519 35.6399C48.2274 35.6399 48.7528 35.1085 48.7528 34.4254C48.7528 33.7422 48.2274 33.2108 47.5519 33.2108Z" fill="#2B2C54"/>
<g opacity="0.1294">
<path d="M33.889 32.1481C33.9265 32.0342 33.9265 31.9203 33.964 31.7685C34.1892 30.516 34.6021 29.2635 35.165 28.1248C35.09 28.0489 35.0149 27.973 34.9398 27.8971C34.1517 28.7701 33.4762 29.7569 32.9883 30.8576C32.613 31.7306 32.2752 32.6415 32.05 33.5524C32.0125 33.7422 31.975 33.9699 31.9374 34.1597C31.7873 35.2224 31.8249 36.1334 32.1626 37.8793C32.2752 38.3727 32.3878 38.8661 32.613 39.3216C32.688 39.6252 32.9132 39.853 33.1759 39.9289C33.889 40.1566 34.4895 39.2836 34.0766 38.6763C34.0766 38.6763 34.0766 38.7143 34.1142 38.7143C34.1142 38.6763 34.0766 38.6763 34.0766 38.6384C34.0391 38.4866 34.0016 38.2968 33.9265 38.145C33.4762 36.7406 33.4011 36.2093 33.4762 34.6531C33.5137 33.7422 33.6263 33.059 33.889 32.1481Z" fill="#2B2C54"/>
</g>
</svg>
