<svg width="93" height="120" viewBox="0 0 93 120" fill="none" xmlns="http://www.w3.org/2000/svg">
<path d="M42.6152 2.40593C42.6905 7.21796 42.7658 12.1052 42.8411 16.9172C42.8411 17.1428 42.8411 17.4435 43.067 17.5939C43.2176 17.7443 43.4434 17.7443 43.594 17.6691C45.3257 17.5939 47.0574 17.5939 48.8644 17.5187C49.6926 17.5187 50.5209 17.4435 51.3491 17.6691C52.1773 17.8947 52.9302 18.2706 53.3819 18.9473C53.6831 19.3232 53.8337 19.8495 54.0596 20.2255C54.8878 21.4285 56.6195 21.6541 58.0501 21.6541C62.6429 21.7292 67.2357 21.4285 71.7532 20.7518C72.5814 16.3157 72.8826 11.7292 72.5814 7.14278C69.1933 7.96984 65.8051 8.34578 62.3417 8.2706C61.0617 8.2706 59.7818 8.1954 58.5018 7.81946C58.2007 7.74427 57.8995 7.66909 57.6736 7.44352C56.9207 6.84202 57.0713 5.63901 56.9207 4.66157C56.6195 3.233 55.2642 2.18036 53.8337 1.80442C52.4031 1.42849 50.8973 1.57887 49.4668 1.72924C47.208 1.95481 45.0246 2.18037 42.6152 2.40593Z" fill="#D4CAFB"/>
<path d="M23.7142 34.3608C21.0037 34.5864 18.5191 36.1654 17.0885 38.4962C15.658 40.827 15.4321 43.7593 16.4109 46.2405C16.9379 47.5939 17.9167 48.8721 19.272 49.4736C20.0249 49.7744 20.9284 49.9248 21.7566 49.9248C23.413 49.9999 25.2201 49.9999 26.7259 49.3232C29.3611 48.1202 30.7164 45.0375 30.6411 42.1052C30.5658 40.1503 29.8882 38.2706 28.6835 36.7669C27.4035 35.3383 25.5212 34.436 23.7142 34.3608Z" fill="#D4CAFB"/>
<path d="M31.7007 82.1804C31.7007 82.1804 16.4164 82.1804 16.1152 82.03C16.1905 74.436 16.7176 66.7668 17.7717 59.248C18.0728 57.1428 18.374 54.9623 19.654 53.233C20.8586 51.5037 23.1927 50.3007 25.1503 51.1277C27.1079 51.8796 27.9361 54.1353 28.3879 56.1653C29.0655 58.9473 29.3666 61.7292 29.6678 64.5864C30.4207 70.3759 31.0983 76.2405 31.7007 82.1804Z" fill="#D4CAFB"/>
<path d="M66.8594 34.1353C64.9771 34.5112 63.0195 35.1879 61.6642 36.6165C60.9113 37.4435 60.4596 38.421 60.0079 39.3984C59.4055 40.7518 58.8031 42.3308 59.029 43.8345C59.1796 44.8871 59.7066 45.8646 60.2337 46.7668C60.5348 47.3683 60.836 47.8947 61.2878 48.3458C61.8901 49.0225 62.7936 49.3984 63.6218 49.624C65.1277 50.0751 66.7089 50.2255 68.2147 50.0751C68.8923 49.9999 69.4946 49.9247 70.1723 49.624C72.3557 48.7217 73.4098 46.1653 73.711 43.8345C74.0121 41.6541 73.711 39.3232 72.5816 37.4435C71.4522 35.639 69.2687 34.2104 66.8594 34.1353Z" fill="#D4CAFB"/>
<path d="M19.1213 60.2255H19.046C18.9707 60.1504 18.9707 60.0752 18.9707 59.9248C20.7777 57.2932 22.7353 54.812 24.8435 52.406C24.9188 52.3308 25.0693 52.3308 25.1446 52.406C25.2199 52.4812 25.2199 52.6316 25.1446 52.7067C23.0364 55.0376 21.0789 57.594 19.3472 60.1504C19.1966 60.2255 19.1965 60.2255 19.1213 60.2255Z" fill="#2B2C54"/>
<path d="M18.8283 66.0903H18.753C18.6777 66.0151 18.6777 65.9399 18.6777 65.7895C21.0871 62.1805 23.7223 58.6466 26.4328 55.3384C26.5081 55.2632 26.5834 55.2632 26.734 55.3384C26.8093 55.4136 26.8093 55.4887 26.734 55.6391C24.0235 58.9474 21.3883 62.4812 18.9789 66.0903C18.9789 66.0151 18.9036 66.0903 18.8283 66.0903Z" fill="#2B2C54"/>
<path d="M19.1224 70.6016C19.0471 70.6016 19.0471 70.6016 18.9718 70.5264C18.8965 70.4512 18.8965 70.376 18.8965 70.2256L26.9527 59.3985C27.028 59.3233 27.1033 59.3234 27.2539 59.3234C27.3292 59.3986 27.3292 59.4737 27.3292 59.6241L19.2729 70.4512C19.2729 70.6016 19.1976 70.6016 19.1224 70.6016Z" fill="#2B2C54"/>
<path d="M18.9025 76.842H18.8272C18.7519 76.7668 18.6766 76.6916 18.7519 76.5413C21.4624 72.3307 24.3988 68.1202 27.4105 64.1353C27.4858 64.0601 27.5611 64.0601 27.7116 64.0601C27.7869 64.1352 27.7869 64.2104 27.7869 64.3608C24.7752 68.3458 21.8389 72.5563 19.1283 76.7668C19.0531 76.842 18.9778 76.842 18.9025 76.842Z" fill="#2B2C54"/>
<path d="M19.5782 80.7519C19.5029 80.7519 19.5029 80.7519 19.4276 80.6767C19.3523 80.6015 19.3523 80.5263 19.4276 80.376L28.1614 68.9474C28.2367 68.8722 28.312 68.8722 28.4626 68.9474C28.5379 69.0226 28.5379 69.0978 28.4626 69.2481L19.7287 80.6767C19.7287 80.7519 19.6534 80.7519 19.5782 80.7519Z" fill="#2B2C54"/>
<path d="M23.0393 80.9023C22.964 80.9023 22.964 80.9023 22.964 80.9023C22.8887 80.8271 22.8887 80.7519 22.8887 80.6015L28.6109 72.782C28.6862 72.7068 28.7614 72.7068 28.912 72.7068C28.9873 72.782 28.9874 72.8572 28.9874 73.0075L23.2651 80.8271C23.1145 80.9023 23.0393 80.9023 23.0393 80.9023Z" fill="#2B2C54"/>
<path d="M26.3535 80.6766C26.2783 80.6766 26.2782 80.6766 26.203 80.6014C26.1277 80.5262 26.1277 80.4511 26.203 80.3007L28.9134 76.9172C28.9887 76.842 29.064 76.842 29.2146 76.9172C29.2899 76.9924 29.2899 77.0676 29.2146 77.218L26.5041 80.6014C26.4288 80.6766 26.3535 80.6766 26.3535 80.6766Z" fill="#2B2C54"/>
<path d="M59.709 82.4061C59.709 74.4362 60.236 66.5414 61.2901 58.6467C61.5913 56.4662 61.9678 54.2106 63.323 52.4813C64.6783 50.7519 67.3135 49.7745 69.1205 51.0527C69.9487 51.579 70.4758 52.4061 70.8522 53.3083C72.5087 56.767 72.9604 60.6768 73.2615 64.4362C73.7886 70.3008 74.3909 76.0903 74.9179 81.9549C74.9179 82.1053 74.9179 82.2557 74.8427 82.4061C74.7674 82.4813 74.6921 82.4813 74.5415 82.4813C71.831 82.8572 69.1205 82.7068 66.41 82.5565C64.9794 82.4813 63.5488 82.4061 62.1183 82.2557C61.2148 82.1053 60.3866 82.1053 59.709 82.4061Z" fill="#9981F5"/>
<g opacity="0.1294">
<path d="M30.6376 40.1504C30.6376 40.0752 30.6376 40 30.6376 39.9248C30.5623 39.4737 30.6376 38.9474 30.3364 38.5715C30.1105 38.2707 29.7341 38.1955 29.4329 38.4211C29.0564 38.6466 29.0565 39.0978 29.1318 39.4737C29.2071 39.9248 29.207 40.376 29.207 40.7519C29.207 41.3534 29.1317 42.406 28.9058 43.3835C28.1529 46.4662 26.4965 47.8948 24.6142 48.2707C23.7107 48.3459 23.3342 48.4211 21.9037 48.4211C21.6778 48.4211 20.8496 48.3459 20.6237 48.3459C20.0214 48.2707 19.4944 48.1955 18.892 48.0451C18.6661 47.97 18.4403 48.0451 18.2897 48.1203C17.6874 48.4211 17.838 49.3985 18.4403 49.5489C18.6662 49.6241 18.8167 49.6241 19.0426 49.6993C19.1179 49.7745 19.1932 49.8497 19.3438 49.9248C20.0214 50.1504 20.7743 50.376 21.5272 50.4511C21.979 50.4511 22.4307 50.4511 22.8825 50.4511C23.3342 50.4511 23.7107 50.4511 24.1625 50.4511H24.2378C26.1954 50.5263 27.9271 49.3985 29.207 47.9699C30.5623 46.5414 31.1646 43.6842 31.2399 42.4812C31.2399 41.6541 31.2399 40.4511 30.6376 40.1504Z" fill="#2B2C54"/>
</g>
<g opacity="0.1294">
<path d="M31.3223 81.5038C31.3223 81.4286 31.3223 81.2782 31.3223 81.1278C31.5482 80.3759 31.3223 79.5489 31.3976 78.797C31.3223 76.8421 31.3223 76.6917 31.0964 74.5113C30.7953 71.9549 30.4188 69.0226 30.1176 65.9399C29.8165 63.609 29.3647 58.1955 28.5365 54.5865C28.3859 54.1353 28.2353 53.4586 27.8589 53.0827C27.7836 52.8571 27.633 52.6316 27.4824 52.406C27.1813 52.0301 27.0307 51.3534 26.5036 51.203C25.9013 51.0526 25.2989 51.7293 25.6754 52.3308C27.633 55.1128 27.5577 57.9699 27.5577 61.6541C27.8589 67.218 27.5577 72.8571 27.7083 78.4211C27.7083 79.6241 27.633 80.3008 27.633 80.9774C27.633 81.4286 27.5577 81.8797 27.7083 82.2556C27.7836 82.5564 28.0095 82.782 28.2353 82.8571C28.7624 83.0075 29.0635 82.8572 29.2894 82.6316C30.0423 83.2331 31.3976 82.6316 31.3223 81.5038C31.3223 81.6541 31.3223 81.579 31.3223 81.5038Z" fill="#2B2C54"/>
</g>
<g opacity="0.1294">
<path d="M74.013 41.2031C73.7119 40.8272 73.0343 41.1279 73.1096 41.5791C73.1096 42.1054 72.6578 43.2332 72.3566 44.0603C71.7543 45.7144 70.399 47.0678 68.2909 48.1204C67.5379 48.4212 65.8062 48.7971 64.1498 48.7219C63.7733 48.7219 63.3215 48.5715 62.4933 48.4212C62.2674 48.346 62.0416 48.4212 61.891 48.4963C61.2887 48.7971 61.4392 49.7746 62.1169 49.9249C64.8274 50.8272 67.9897 50.3009 70.4743 48.8723C71.4531 48.1956 72.5072 47.3685 72.9589 46.2407L72.8836 46.3911C73.2601 45.7896 73.5612 45.1129 73.7871 44.4362C74.013 43.7595 74.1636 42.7069 74.1636 42.3309C74.0883 42.0302 74.2389 41.5791 74.013 41.2031Z" fill="#2B2C54"/>
</g>
<g opacity="0.1294">
<path d="M75.3668 80.3008C75.2915 79.173 75.2161 78.1203 75.1408 76.9925C75.0655 75.7143 74.9149 74.4361 74.8397 73.1579C74.4632 73.0827 74.0867 73.1579 73.7855 73.3835C73.7103 70.2256 73.635 67.1429 73.3338 64.0602C73.0326 60.3008 72.8821 58.1955 72.4303 56.6166C72.2045 55.0376 71.9033 54.2106 71.6022 53.6842C71.2257 52.7068 70.6233 51.8797 69.9457 51.1278C69.5692 50.7519 69.3434 50.2256 68.741 50.2256C68.0634 50.2256 67.6116 51.1278 68.1386 51.6542C69.3433 53.0075 69.3433 53.3835 69.6445 54.5865C69.7951 55.5639 69.7951 55.6391 69.9457 56.9925C69.9457 57.2933 69.9457 57.594 69.9457 57.8947C69.9457 57.8196 69.9457 57.8196 69.9457 57.7444C69.9457 58.7218 70.1716 59.6993 70.2469 60.6767C70.3221 63.9098 70.4728 67.1429 70.548 70.376C70.6233 73.5338 70.7739 76.6166 70.9245 79.7744C70.9998 80.3008 70.9245 80.7519 71.0751 81.2782C71.0751 81.3534 71.0751 81.3534 71.0751 81.4286C71.0751 81.8797 71.0751 82.3309 71.4515 82.6316C71.9786 83.1579 72.9574 83.0827 73.3338 82.406C73.4091 82.3308 73.4091 82.2557 73.4091 82.1805C74.0114 82.7068 74.915 82.5564 75.3668 81.9549C75.442 81.4286 75.3668 80.9023 75.3668 80.3008Z" fill="#2B2C54"/>
</g>
<path d="M23.0461 51.0526C21.9167 51.0526 20.7873 50.827 19.7333 50.4511C18.9803 50.2255 18.4533 49.9248 18.0015 49.5489C17.0227 48.797 16.3451 47.7443 15.8181 46.2406C15.5169 45.2631 15.3663 44.4361 15.291 43.609C15.291 42.6315 15.4416 41.5789 15.8933 40.3759C16.571 38.421 17.7003 36.7669 19.1309 35.5639C20.7873 34.2105 22.8202 33.609 24.7025 33.7594C26.5848 33.9849 28.3918 35.2631 29.6718 37.2932C30.6506 38.8722 31.1776 40.9022 31.2529 43.0827C31.2529 43.9849 31.1776 44.6616 31.0271 45.3383C30.5 47.5188 28.7683 49.3985 26.5095 50.3007C25.3802 50.8271 24.2508 51.0526 23.0461 51.0526ZM23.9496 34.9624C22.519 34.9624 21.0132 35.4887 19.8085 36.5413C18.5286 37.594 17.5498 39.0225 16.9474 40.827C16.571 41.8797 16.4204 42.7819 16.4204 43.609C16.4204 44.2857 16.571 45.0376 16.8721 45.8646C17.3239 47.1428 17.9262 48.0451 18.6792 48.6466C19.0556 48.9473 19.5074 49.1729 20.1097 49.3985C22.0673 50.0752 24.2508 50.0752 25.9825 49.3233C27.8648 48.5714 29.2953 46.9173 29.8224 45.1127C29.9729 44.5112 30.0482 43.9098 30.0482 43.0827C30.0482 41.1278 29.5965 39.3233 28.693 37.8947C28.1659 37.0676 26.7354 35.1128 24.5519 34.8872C24.326 34.9624 24.1002 34.9624 23.9496 34.9624Z" fill="#2B2C54"/>
<path d="M24.5444 83.1579C21.9845 83.1579 19.1987 83.0827 16.3376 82.9323C16.0364 82.9323 15.8105 82.6315 15.8105 82.3308C15.9611 73.9849 16.4129 66.391 17.1658 59.3233C17.3917 57.0677 17.6928 54.8872 18.8222 53.0075C19.8763 51.203 22.2104 49.4737 24.695 50.0752C27.1796 50.6015 28.8361 53.0827 29.589 57.3684C31.0195 65.6391 31.6972 74.0601 32.3748 82.2556C32.3748 82.406 32.3748 82.5564 32.2242 82.7067C32.1489 82.8571 31.9983 82.8571 31.8477 82.9323C29.4384 83.0827 27.029 83.1579 24.5444 83.1579ZM16.9399 81.8045C22.1351 82.1052 26.7279 82.1052 31.0948 81.8045C30.4925 73.8346 29.8149 65.5639 28.3843 57.594C27.7067 53.7594 26.3514 51.6541 24.3938 51.203C22.5868 50.7518 20.7045 52.1052 19.7257 53.609C18.7469 55.2631 18.4458 57.218 18.2199 59.3985C17.5423 66.3909 17.0905 73.6842 16.9399 81.8045Z" fill="#2B2C54"/>
<path d="M18.5965 104.06C18.2953 104.06 17.9941 103.835 17.9941 103.459V103.384L18.0695 82.4813C18.0695 82.1805 18.2953 81.8798 18.6718 81.8798C18.973 81.8798 19.2741 82.1053 19.2741 82.4813L19.1988 103.384C19.1988 103.835 18.8977 104.06 18.5965 104.06Z" fill="#2B2C54"/>
<path d="M29.5092 104.21C29.208 104.21 28.9068 103.985 28.9068 103.609C28.9068 96.6165 28.7562 89.5488 28.4551 82.5564C28.4551 82.2556 28.681 81.9548 28.9821 81.9548C29.2833 81.9548 29.5845 82.1804 29.5845 82.4812C29.8856 89.4736 30.0362 96.5413 30.0362 103.534C30.1115 103.985 29.8104 104.21 29.5092 104.21Z" fill="#2B2C54"/>
<path d="M17.5419 59.2481C17.3914 59.2481 17.2408 59.1729 17.1655 59.0977C11.4433 53.6842 5.79639 47.9699 0.450657 42.1804C0.224781 41.9549 0.224781 41.5789 0.450657 41.3534C0.676533 41.1278 1.05302 41.1278 1.2789 41.3534C6.62463 47.1429 12.1962 52.8571 17.9184 58.2707C18.1443 58.4962 18.1443 58.8722 17.9184 59.0977C17.8431 59.2481 17.6925 59.2481 17.5419 59.2481Z" fill="#2B2C54"/>
<path d="M29.2898 59.9999C29.1393 59.9999 29.064 59.9999 28.9887 59.9247C28.7628 59.7743 28.6875 59.3984 28.8381 59.0977C33.2803 52.7819 37.9484 46.6164 42.8424 40.6766C43.0683 40.451 43.3694 40.3758 43.6706 40.6014C43.8965 40.827 43.9718 41.1277 43.746 41.4285C38.852 47.3683 34.1838 53.5337 29.8169 59.8495C29.6663 59.9247 29.5157 59.9999 29.2898 59.9999Z" fill="#2B2C54"/>
<path d="M66.3303 51.0526C65.2009 51.0526 64.0715 50.827 63.0174 50.4511C62.2645 50.2255 61.7374 49.9248 61.2857 49.5489C60.3069 48.797 59.6292 47.7443 59.1022 46.2406C58.801 45.2631 58.6505 44.4361 58.5752 43.609C58.5752 42.6315 58.7258 41.5789 59.1776 40.3759C59.8552 38.421 60.9845 36.7669 62.4151 35.5639C64.0715 34.2105 66.1044 33.609 67.9867 33.7594C69.869 33.9849 71.676 35.2631 72.9559 37.2932C73.9347 38.8722 74.4618 40.9022 74.5371 43.0827C74.5371 43.9849 74.4618 44.6616 74.3112 45.3383C73.7842 47.5188 72.0525 49.3985 69.7937 50.3007C68.589 50.8271 67.4597 51.0526 66.3303 51.0526ZM67.1585 34.9624C65.728 34.9624 64.2221 35.4887 63.0174 36.5413C61.7375 37.594 60.7586 39.0225 60.1563 40.827C59.7798 41.8797 59.6293 42.7819 59.6293 43.609C59.6293 44.2857 59.7799 45.0376 60.081 45.8646C60.5328 47.1428 61.1351 48.0451 61.8881 48.6466C62.2645 48.9473 62.7163 49.1729 63.3186 49.3985C65.2762 50.0752 67.4596 50.0752 69.1913 49.3233C71.0736 48.5714 72.5042 46.9173 73.0312 45.1127C73.1818 44.5112 73.2571 43.9098 73.2571 43.0827C73.2571 41.1278 72.8053 39.3233 71.9018 37.8947C71.3748 37.0676 69.9443 35.1128 67.7608 34.8872C67.6102 34.9624 67.3844 34.9624 67.1585 34.9624Z" fill="#2B2C54"/>
<path d="M67.8365 83.1579C65.2766 83.1579 62.4907 83.0827 59.6296 82.9323C59.3285 82.9323 59.1025 82.6315 59.1025 82.3308C59.2531 73.9849 59.7049 66.4661 60.4578 59.3233C60.6837 57.0677 60.9848 54.8872 62.1142 53.0075C63.1683 51.203 65.5024 49.4737 67.987 50.0752C70.4717 50.6015 72.1281 53.0827 72.881 57.3684C74.3116 65.6391 74.9892 74.0601 75.6668 82.2556C75.6668 82.406 75.6668 82.5564 75.5162 82.7067C75.4409 82.8571 75.2904 82.8571 75.1398 82.9323C72.7304 83.0827 70.3211 83.1579 67.8365 83.1579ZM60.2319 81.8045C65.4271 82.1052 70.0199 82.1052 74.3869 81.8045C73.7845 73.8346 73.1069 65.5639 71.6764 57.594C70.9987 53.7594 69.6434 51.6541 67.6858 51.203C65.8788 50.7518 63.9966 52.1052 63.0178 53.609C62.039 55.2631 61.7378 57.218 61.5119 59.3985C60.759 66.3909 60.3825 73.6842 60.2319 81.8045Z" fill="#2B2C54"/>
<path d="M61.8924 104.06C61.5912 104.06 61.29 103.835 61.29 103.459L61.3653 82.5564C61.3653 82.2556 61.5912 81.9548 61.9677 81.9548C62.2689 81.9548 62.5701 82.1804 62.5701 82.5564V82.6315L62.4947 103.534C62.4194 103.835 62.1936 104.06 61.8924 104.06Z" fill="#2B2C54"/>
<path d="M72.809 104.21C72.5078 104.21 72.2066 103.985 72.2066 103.609C72.2066 96.6165 72.0561 89.5488 71.7549 82.5564C71.7549 82.2556 71.9807 81.9548 72.2819 81.9548C72.5831 81.9548 72.8843 82.1804 72.8843 82.4812C73.1854 89.4736 73.336 96.5413 73.336 103.534C73.336 103.985 73.1102 104.21 72.809 104.21Z" fill="#2B2C54"/>
<path d="M60.7617 59.248C60.6111 59.248 60.4606 59.1728 60.3853 59.0976C54.6631 53.6841 49.0161 47.9698 43.6704 42.1803C43.4445 41.9548 43.4445 41.5788 43.6704 41.3533C43.8963 41.1277 44.2728 41.1277 44.4987 41.3533C49.7691 47.1427 55.416 52.857 61.1382 58.2705C61.3641 58.4961 61.3641 58.8721 61.1382 59.0976C61.1382 59.248 60.9123 59.248 60.7617 59.248Z" fill="#2B2C54"/>
<path d="M72.5818 60C72.4313 60 72.356 60 72.2807 59.9248C72.0548 59.7745 71.9795 59.3985 72.1301 59.0978C76.5723 52.782 81.2404 46.6166 86.1344 40.6767C86.3603 40.4512 86.6614 40.376 86.9626 40.6015C87.1885 40.8271 87.2638 41.1278 87.038 41.4286C82.144 47.3684 77.4759 53.5339 73.1089 59.8497C72.8831 59.9248 72.7324 60 72.5818 60Z" fill="#2B2C54"/>
<path d="M45.4732 105.038C45.172 105.038 44.8709 104.812 44.8709 104.511C44.4944 88.1203 43.9674 70.0752 43.4403 52.5564C42.9133 35.0376 42.4615 16.9925 42.0098 0.601506C42.0098 0.300754 42.2356 0 42.5368 0C42.8379 0 43.1391 0.225562 43.1391 0.526314C43.5156 16.9173 44.0427 34.9624 44.5697 52.4812C45.0968 70 45.5485 88.0451 46.0003 104.436C46.0756 104.737 45.7743 105.038 45.4732 105.038Z" fill="#2B2C54"/>
<path d="M92.4586 105.038H0.602327C0.301159 105.038 0 104.812 0 104.436C0 104.135 0.225885 103.835 0.527053 103.835H92.3833C92.6845 103.835 92.9856 104.06 92.9856 104.436C93.0609 104.737 92.835 105.038 92.4586 105.038Z" fill="#2B2C54"/>
<path d="M11.9715 112.256C11.6703 112.256 11.4444 112.03 11.3691 111.729C11.3691 111.429 11.595 111.128 11.8962 111.128C37.6461 110.075 63.6971 109.774 89.447 110.301C89.7481 110.301 90.0492 110.602 89.974 110.902C89.974 111.203 89.7481 111.429 89.3717 111.429C63.7724 110.902 37.646 111.203 11.9715 112.256Z" fill="#2B2C54"/>
<path d="M53.8372 120L26.7321 119.474C26.4309 119.474 26.1298 119.173 26.2051 118.872C26.2051 118.571 26.4309 118.346 26.8074 118.346L53.8372 118.872C54.1384 118.872 54.4396 119.173 54.3643 119.474C54.4396 119.774 54.1384 120 53.8372 120Z" fill="#2B2C54"/>
<path d="M63.2505 8.87222C62.0459 8.87222 60.9165 8.79702 59.7118 8.72183C57.9048 8.57146 56.7754 7.89476 56.399 6.84213C56.2484 6.31582 56.2484 5.7895 56.3237 5.33837C56.3237 5.11281 56.3237 4.88725 56.3237 4.66169C56.2484 3.53387 55.1943 2.78199 54.2155 2.48124C53.0861 2.1053 51.8062 2.25567 50.5263 2.33085L42.8464 3.08273C42.5453 3.08273 42.2441 2.85717 42.2441 2.55642C42.2441 2.25567 42.47 1.95491 42.7711 1.95491L50.4509 1.20304C51.7309 1.05266 53.1614 0.97748 54.5167 1.35342C55.8719 1.80455 57.3025 2.93236 57.4531 4.58649C57.4531 4.88725 57.4531 5.18801 57.4531 5.48876C57.4531 5.8647 57.3778 6.24063 57.5284 6.46619C57.7542 7.0677 58.5071 7.44364 59.8624 7.59401C64.0787 7.96995 68.2952 7.66921 72.3609 6.61658C72.6621 6.54139 72.9632 6.69176 73.0385 7.0677C73.1138 7.36845 72.9632 7.66921 72.5868 7.7444C69.4998 8.49628 66.4128 8.87222 63.2505 8.87222Z" fill="#2B2C54"/>
<path d="M58.4266 22.3309C58.1254 22.3309 57.8241 22.3309 57.5983 22.3309C56.1677 22.3309 54.5866 22.1053 53.7584 20.9023C53.5325 20.5264 53.382 20.2256 53.3067 19.8497C53.1561 19.5489 53.0808 19.2482 52.9302 19.0226C52.4032 18.3459 51.3491 18.3459 50.3703 18.3459H43.2175C42.9163 18.3459 42.6152 18.1203 42.6152 17.7444C42.6152 17.4436 42.8411 17.1429 43.2175 17.1429H50.3703C51.2738 17.1429 52.9302 17.1429 53.8337 18.2707C54.1348 18.6467 54.2855 19.0226 54.436 19.3985C54.5113 19.6993 54.6619 20 54.8125 20.2256C55.3395 21.0527 56.6195 21.1279 57.7489 21.1279C62.1158 21.203 66.784 20.9023 71.6027 20.3008C72.1297 16.0151 72.3555 11.6542 72.2802 7.29328C72.2802 6.99253 72.5061 6.69177 72.8826 6.69177C73.1838 6.69177 73.485 6.91734 73.485 7.29328C73.5602 11.8046 73.3344 16.391 72.732 20.9023C72.732 21.1279 72.5061 21.3534 72.2049 21.4286C67.311 22.0301 62.7182 22.3309 58.4266 22.3309Z" fill="#2B2C54"/>
</svg>
