<svg width="137" height="120" viewBox="0 0 137 120" fill="none" xmlns="http://www.w3.org/2000/svg">
<path d="M53.6515 111.901C44.6542 111.901 35.6569 108.273 29.3758 101.861C29.1212 101.608 29.1212 101.186 29.3758 100.933C29.6304 100.68 30.0548 100.68 30.3095 100.933C37.3545 108.104 47.8797 111.648 57.8956 110.298C58.2351 110.213 58.5746 110.467 58.6595 110.888C58.7444 111.226 58.4897 111.563 58.0653 111.648C56.5375 111.732 55.0945 111.901 53.6515 111.901Z" fill="#2B2C54"/>
<path d="M52.2901 115.107C52.0355 115.107 51.7808 114.938 51.6959 114.685C51.6111 114.347 51.7808 114.01 52.1203 113.841C53.9028 113.166 55.6004 112.238 57.1283 111.142C55.4307 110.213 53.818 109.032 52.2901 107.851C52.0355 107.598 51.9506 107.261 52.2052 106.923C52.4599 106.67 52.7994 106.586 53.1389 106.839C54.8365 108.189 56.7039 109.454 58.6561 110.467C58.8259 110.551 58.9956 110.72 58.9956 110.973C58.9956 111.226 58.9108 111.395 58.741 111.563C56.8736 113.082 54.8365 114.263 52.5447 115.107C52.375 115.107 52.2901 115.107 52.2901 115.107Z" fill="#2B2C54"/>
<path d="M122.404 38.0807C122.319 38.0807 122.319 38.0807 122.404 38.0807C121.979 38.0807 121.725 37.7432 121.725 37.4058C122.489 28.463 118.16 19.3515 110.775 14.2895C110.521 14.1208 110.436 13.699 110.605 13.3615C110.775 13.1084 111.2 13.024 111.539 13.1928C119.348 18.5922 123.847 28.1255 123.083 37.4901C122.998 37.8276 122.743 38.0807 122.404 38.0807Z" fill="#2B2C54"/>
<path d="M113.063 20.617C112.808 20.617 112.554 20.4483 112.469 20.1108C111.875 17.9173 111.111 15.7238 110.177 13.699C110.092 13.4459 110.092 13.1928 110.262 13.0241C110.432 12.8554 110.686 12.771 110.941 12.8554L117.647 14.7114C117.986 14.7958 118.156 15.1332 118.071 15.4707C117.986 15.8082 117.647 15.9769 117.307 15.8925L111.875 14.3739C112.554 16.1456 113.148 17.9173 113.742 19.7734C113.827 20.1108 113.657 20.4483 113.318 20.5327C113.233 20.617 113.148 20.617 113.063 20.617Z" fill="#2B2C54"/>
<path d="M131.816 36.8997C131.392 36.8997 131.137 36.5622 131.137 36.2248C131.732 30.5722 130.798 24.8354 128.336 19.6047C128.167 19.2672 128.336 18.9298 128.676 18.761C129.015 18.5923 129.355 18.761 129.525 19.0985C132.071 24.4979 133.005 30.4879 132.411 36.3091C132.496 36.6466 132.156 36.8997 131.816 36.8997Z" fill="#2B2C54"/>
<path d="M41.8479 120H41.7631C35.2273 118.735 29.031 115.36 24.3626 110.635C24.108 110.382 24.108 109.96 24.3626 109.707C24.6173 109.454 25.0417 109.454 25.2963 109.707C29.7949 114.263 35.7366 117.469 42.0177 118.735C42.3572 118.819 42.6119 119.156 42.527 119.494C42.3572 119.747 42.1026 120 41.8479 120Z" fill="#2B2C54"/>
<path d="M53.6515 111.901C44.6542 111.901 35.6569 108.273 29.3758 101.861C29.1212 101.608 29.1212 101.186 29.3758 100.933C29.6304 100.68 30.0548 100.68 30.3095 100.933C37.3545 108.104 47.8797 111.648 57.8956 110.298C58.2351 110.213 58.5746 110.467 58.6595 110.888C58.7444 111.226 58.4897 111.563 58.0653 111.648C56.5375 111.732 55.0945 111.901 53.6515 111.901Z" fill="#2B2C54"/>
<path d="M52.2901 115.107C52.0355 115.107 51.7808 114.938 51.6959 114.685C51.6111 114.347 51.7808 114.01 52.1203 113.841C53.9028 113.166 55.6004 112.238 57.1283 111.142C55.4307 110.213 53.818 109.032 52.2901 107.851C52.0355 107.598 51.9506 107.261 52.2052 106.923C52.4599 106.67 52.7994 106.586 53.1389 106.839C54.8365 108.189 56.7039 109.454 58.6561 110.467C58.8259 110.551 58.9956 110.72 58.9956 110.973C58.9956 111.226 58.9108 111.395 58.741 111.563C56.8736 113.082 54.8365 114.263 52.5447 115.107C52.375 115.107 52.2901 115.107 52.2901 115.107Z" fill="#2B2C54"/>
<path d="M122.404 38.0807C122.319 38.0807 122.319 38.0807 122.404 38.0807C121.979 38.0807 121.725 37.7432 121.725 37.4058C122.489 28.463 118.16 19.3515 110.775 14.2895C110.521 14.1208 110.436 13.699 110.605 13.3615C110.775 13.1084 111.2 13.024 111.539 13.1928C119.348 18.5922 123.847 28.1255 123.083 37.4901C122.998 37.8276 122.743 38.0807 122.404 38.0807Z" fill="#2B2C54"/>
<path d="M113.063 20.617C112.808 20.617 112.554 20.4483 112.469 20.1108C111.875 17.9173 111.111 15.7238 110.177 13.699C110.092 13.4459 110.092 13.1928 110.262 13.0241C110.432 12.8554 110.686 12.771 110.941 12.8554L117.647 14.7114C117.986 14.7958 118.156 15.1332 118.071 15.4707C117.986 15.8082 117.647 15.9769 117.307 15.8925L111.875 14.3739C112.554 16.1456 113.148 17.9173 113.742 19.7734C113.827 20.1108 113.657 20.4483 113.318 20.5327C113.233 20.617 113.148 20.617 113.063 20.617Z" fill="#2B2C54"/>
<path d="M29.3714 41.7084C25.5518 42.9739 22.0717 45.6736 20.2892 49.3013C18.4219 52.929 18.337 57.4004 20.2892 60.9438C23.0903 66.0901 30.1353 68.4524 35.6525 66.3432C41.679 64.0653 45.3289 56.8942 43.5464 50.6512C41.7639 44.5768 34.634 39.9367 29.3714 41.7084ZM36.6711 57.9066C36.1618 59.1721 34.8886 60.3532 33.7003 60.9438C30.8993 62.2937 27.6738 61.1125 26.0611 58.5816C24.3635 55.9662 24.6181 52.4228 26.4006 49.8919C27.2494 48.6264 28.3528 47.614 29.9656 47.3609C31.4085 47.1078 32.8515 47.3609 33.9549 48.2889C34.7189 48.4576 35.3979 48.7107 35.9921 49.2169C37.0955 50.145 37.6048 52.001 37.6897 53.3509C37.6048 54.8695 37.2653 56.5568 36.6711 57.9066Z" fill="#D4CAFB"/>
<path d="M58.3972 53.3508C56.7845 52.8446 55.2566 52.001 54.1532 50.7355C52.7102 48.9638 52.2858 46.3485 52.9649 44.155C53.559 41.8771 55.002 39.9367 56.8693 38.4181C55.2566 35.8871 53.559 33.6092 51.7765 31.3313C49.5696 32.9343 47.5325 34.4529 45.071 34.5372C42.7792 34.6216 40.4875 33.3561 39.0445 31.5844C37.6015 29.7284 36.8376 27.4505 36.583 25.1726C36.4981 24.9195 36.4132 24.9195 36.3283 24.9195C33.8668 24.7508 31.4053 24.5821 29.0286 24.4133C28.6042 26.6912 27.5857 28.716 25.9729 30.1502C24.3602 31.5844 22.2382 32.5125 20.0313 32.4281C19.0976 32.4281 18.2488 32.2594 17.4 32.0063C15.9571 31.6688 14.4292 31.3313 13.4107 30.2346C11.4584 31.5844 9.76081 32.9343 8.06321 34.4529C8.91201 35.0434 9.25154 35.8027 9.59106 36.6464C10.2701 38.3337 10.7794 40.1898 10.355 41.9614C9.93058 43.8175 8.57249 45.2517 6.87489 46.1797C5.26216 47.1078 3.30992 47.4452 1.44255 47.5296C0.933271 50.2293 0.67863 53.0134 0.59375 55.8818C2.20647 56.4724 3.73432 56.8942 5.0924 57.7379C6.45049 58.4972 7.63881 59.6783 8.23297 61.1125C8.91202 62.7154 8.74225 64.6559 8.06321 66.2588C7.38417 67.8618 6.11097 69.2116 4.75288 70.3084C6.45049 73.0081 8.06321 75.4547 9.67594 77.9857C12.2223 76.2984 15.4478 75.7922 18.2488 76.7202C18.9279 76.9733 19.6069 77.2264 20.2011 77.7326C20.8801 78.3231 21.4743 79.0824 21.8138 79.8417C22.8324 81.7821 23.1719 84.06 22.8324 86.1692C25.8032 86.7597 28.6891 87.0972 31.575 87.3503C31.4053 84.3975 32.6785 81.3603 35.0551 79.7574C37.4318 78.1544 40.827 77.9857 43.2036 79.5886C44.3071 80.3479 45.2408 81.4447 46.0896 82.5414C48.7208 80.6854 51.2673 78.8293 53.6439 76.8046C52.2858 74.6954 50.9277 72.6706 50.8428 70.3084C50.758 67.8618 52.2858 65.4995 54.3229 64.234C56.3601 62.8842 58.9914 62.5467 61.368 62.7998C62.2168 59.9314 62.8958 57.1473 63.49 54.3632C61.7075 53.9414 60.0099 53.7727 58.3972 53.3508ZM43.0339 59.5939C42.0153 61.7874 40.4026 63.6435 38.4503 65.0777C37.3469 65.9214 36.0737 66.5963 34.7156 67.0181C29.2833 68.7898 22.8324 65.6683 20.286 60.6063C18.4186 56.8942 18.5035 52.2541 20.5406 48.6263C22.5777 44.9986 26.3125 42.3833 30.4716 41.7927C34.2063 41.2865 38.8747 43.3113 41.5909 46.939C44.3071 50.5668 44.9012 55.46 43.0339 59.5939Z" fill="#9981F5"/>
<g opacity="0.1294">
<path d="M46.4286 53.6041C46.3438 53.1823 46.2589 52.7604 46.174 52.3386C46.0891 52.2542 46.0891 52.1699 46.0042 52.0855C45.2403 50.5669 44.3066 49.1327 43.2881 47.7828C43.1183 47.8672 42.9486 48.1203 42.9486 48.289C42.8637 49.0483 43.373 49.6389 43.5427 50.3982C44.2218 52.2542 44.5613 53.1823 44.3915 54.9539C44.3915 55.6289 43.2881 59.2566 42.9486 59.7628C42.5242 60.6065 42.0998 61.3657 41.5056 62.0407C41.3358 62.2094 41.251 62.2938 41.3358 62.2938C41.0812 62.5469 40.8265 62.8 40.5719 62.9687C39.9777 63.4749 39.4685 63.8967 38.8743 64.4029C38.7045 64.4873 38.4499 64.7404 38.2801 64.9091C38.365 64.7404 38.1104 64.9935 37.8557 65.2466C37.686 65.3309 37.1767 65.7528 36.8372 65.8371C34.8001 66.5121 32.7629 66.9339 31.6595 67.0183C30.2165 67.187 28.7736 66.7652 27.5852 66.5121C26.8213 66.259 26.0574 65.4997 25.2086 65.6684C24.8691 65.7528 24.6144 66.0059 24.5295 66.3433C24.6144 66.4277 24.6993 66.5121 24.7842 66.5964C25.0388 66.8495 25.3783 67.1026 25.633 67.3557C26.7364 68.0307 27.755 68.7056 28.8584 69.4649C30.6409 69.9711 32.5083 70.0554 34.8 69.6336C34.8 69.6336 34.7152 69.6336 34.6303 69.6336C37.0069 69.1274 37.7709 68.7899 39.5533 67.9463C41.0812 67.0183 42.3544 65.7528 43.2881 64.2342C43.2881 64.1498 43.373 64.1498 43.373 64.0655C44.4764 62.7156 45.3252 61.1126 45.9194 59.4253C46.5984 57.4849 46.5984 55.5445 46.4286 53.6041Z" fill="#2B2C54"/>
</g>
<g opacity="0.1294">
<path d="M52.2051 73.0925C51.9504 73.0925 51.6958 73.1769 51.526 73.2613C51.1865 73.43 51.0168 73.6831 50.847 74.0205C50.6772 74.2736 50.5075 74.4424 50.3377 74.6955C49.8284 75.286 49.7436 75.5391 48.6401 76.6359C48.0459 77.2265 47.1123 77.6483 46.7727 78.4076C46.7727 78.4076 46.7727 78.4076 46.7727 78.4919C46.5181 78.6607 46.3483 78.745 46.0937 78.9138C45.6693 79.1669 45.0751 79.3356 44.8205 79.7574C43.8868 80.8542 45.3298 82.4571 46.5181 81.6978C47.7913 81.0229 48.9796 80.2636 49.9982 79.2512C50.0831 79.1669 50.0831 79.1669 50.1679 79.0825C51.0168 78.4076 51.7807 77.7326 52.5446 76.9734C52.7992 76.7203 53.1388 76.3828 53.3934 75.961C53.1388 75.3704 52.8841 74.8642 52.6295 74.2736C52.5446 73.8518 52.3748 73.5144 52.2051 73.0925Z" fill="#2B2C54"/>
</g>
<g opacity="0.1294">
<path d="M60.4288 53.9414C59.9195 55.7975 59.4102 57.5691 58.8161 59.4252C58.5614 60.2688 58.3068 61.1125 57.9673 61.9562C58.3068 62.378 58.8161 62.5467 59.3254 62.4624H59.4102C59.8346 63.0529 61.023 62.9686 61.1927 62.1249C61.2776 61.7031 61.4474 61.3656 61.6171 60.9438C61.702 60.8594 61.7869 60.8594 61.8718 60.775C62.3811 60.3532 62.5508 59.6783 62.7206 59.0877C62.9752 57.9066 63.145 56.7255 63.2299 55.46C63.2299 55.3756 63.2299 55.2913 63.2299 55.2069C62.3811 54.8694 61.4474 54.4476 60.4288 53.9414Z" fill="#2B2C54"/>
</g>
<path d="M31.4906 87.8566C28.35 87.6035 25.4641 87.1816 22.663 86.6755C22.3235 86.5911 22.0689 86.2536 22.1537 85.9162C22.4084 83.8914 22.0689 81.7822 21.1352 79.9262C20.7108 79.0825 20.2015 78.4076 19.6922 77.9858C19.2678 77.6483 18.6737 77.3108 17.9946 77.1421C15.4482 76.2985 12.3925 76.8046 10.0159 78.3232C9.67635 78.492 9.33683 78.4076 9.08219 78.1545C7.46946 75.7079 5.85674 73.1769 4.15913 70.4772C3.98937 70.2241 4.07425 69.8023 4.32889 69.6335C5.77186 68.4524 6.8753 67.1869 7.46946 65.8371C8.1485 64.2341 8.23338 62.5468 7.63922 61.197C7.04506 59.6784 5.68698 58.7503 4.75329 58.1598C3.64985 57.4849 2.37665 57.063 1.01856 56.5568L0.424401 56.3881C0.16976 56.3037 0 56.0506 0 55.7975C0.0848802 52.676 0.339521 49.8076 0.848802 47.361C0.933683 47.1079 1.18832 46.8547 1.44296 46.8547C3.56497 46.686 5.26258 46.3486 6.62066 45.5893C8.23338 44.7456 9.42171 43.3114 9.76123 41.7928C10.1856 40.1055 9.59147 38.2494 9.08219 36.8996C8.82755 36.2246 8.48803 35.4654 7.80898 35.0435C7.63922 34.9592 7.55434 34.7904 7.55434 34.5373C7.55434 34.3686 7.63922 34.1155 7.80898 34.0311C9.76123 32.3438 11.4588 30.994 13.2413 29.8128C13.496 29.6441 13.8355 29.6441 14.0901 29.8972C14.9389 30.8252 16.297 31.1627 17.74 31.5002C18.6737 31.6689 19.4376 31.8376 20.2864 31.922C22.2386 32.0064 24.2757 31.2471 25.8036 29.8128C27.2466 28.463 28.2651 26.6069 28.6895 24.4134C28.7744 24.076 29.029 23.9072 29.3686 23.9072L36.6683 24.4134C37.0927 24.4134 37.3473 24.6665 37.5171 25.0884C37.5171 25.1727 37.5171 25.1727 37.5171 25.2571C37.8566 27.7881 38.6205 29.8128 39.8088 31.3314C41.2518 33.1031 43.3738 34.1155 45.326 34.0311C47.6178 33.9468 49.6549 32.4282 51.6921 30.9096C51.9467 30.7409 52.3711 30.7409 52.6257 30.994C54.6629 33.5249 56.2756 35.8872 57.7186 38.1651C57.8883 38.4182 57.8034 38.7556 57.5488 39.0087C56.2756 40.1055 54.578 41.9615 53.8989 44.4081C53.3048 46.6017 53.7292 48.8795 55.0024 50.4825C55.8512 51.5792 57.2093 52.4229 58.9069 52.9291C60.4347 53.4353 62.0475 53.5197 63.8299 53.6884C63.9997 53.6884 64.1695 53.7728 64.2543 53.9415C64.3392 54.1102 64.4241 54.2789 64.3392 54.4477C63.745 57.2318 63.066 60.0158 62.2172 62.8843C62.1323 63.2217 61.8777 63.3905 61.5382 63.3061C58.9918 63.053 56.6151 63.5592 54.8326 64.656C52.8804 65.9214 51.6072 68.115 51.6072 70.2241C51.6921 72.3333 52.8804 74.2737 54.2385 76.2985L54.3233 76.3828C54.4931 76.6359 54.4082 76.9734 54.2385 77.2265C51.7769 79.3356 49.0608 81.276 46.5992 83.0477C46.3446 83.2165 45.9202 83.2165 45.7504 82.879C44.9865 81.951 44.1377 80.8542 43.0343 80.0949C40.9123 78.6607 37.7717 78.7451 35.6497 80.1793C33.5277 81.6135 32.2545 84.3976 32.4243 87.266C32.4243 87.4348 32.3394 87.6035 32.2545 87.7722C31.8301 87.7722 31.6603 87.8566 31.4906 87.8566ZM23.4269 85.4943C25.8036 85.9162 28.2651 86.2536 30.8115 86.5067C30.8964 83.4696 32.2545 80.6855 34.6311 79.0825C37.2624 77.2265 40.9123 77.2265 43.5436 78.9138C44.5621 79.6731 45.4109 80.6011 46.1748 81.5291C48.3817 80.0106 50.5886 78.3232 52.7955 76.5515C51.5223 74.6111 50.2491 72.502 50.2491 70.1397C50.1642 67.6088 51.6921 64.9934 54.0687 63.4748C55.9361 62.2937 58.3976 61.7032 61.0289 61.8719C61.7079 59.4253 62.387 57.063 62.8962 54.7008C61.3684 54.532 59.8406 54.3633 58.3976 53.9415C56.4454 53.3509 54.9175 52.4229 53.8989 51.1574C52.3711 49.3014 51.8618 46.5173 52.5409 43.9863C53.0501 41.9615 54.3233 40.0211 56.1907 38.3338C54.9175 36.3934 53.4745 34.3686 51.8618 32.2595C49.8247 33.6937 47.7876 35.1279 45.326 35.2123C42.9494 35.2966 40.403 34.1155 38.7054 32.0064C37.3473 30.319 36.4985 28.1255 36.159 25.5102L29.6232 25.004C29.1139 27.1975 28.0105 29.1379 26.4826 30.5721C24.7001 32.1751 22.4084 33.1031 20.1166 33.0187C19.1829 33.0187 18.2493 32.7656 17.3156 32.5969C15.9575 32.2595 14.5145 31.922 13.4111 31.0783C11.9681 32.0907 10.61 33.1031 9.08219 34.453C9.67635 35.0435 10.0159 35.8028 10.1856 36.3934C10.7798 37.9963 11.4588 40.0211 10.9496 42.0459C10.5251 43.9019 9.16706 45.5893 7.21482 46.686C5.77186 47.4453 4.07425 47.9515 2.03713 48.1202C1.61273 50.3138 1.35808 52.7604 1.2732 55.3757L1.44296 55.4601C2.88593 55.9663 4.15913 56.3881 5.43234 57.1474C6.62066 57.8223 8.1485 59.0034 8.91242 60.7751C9.59147 62.4624 9.59147 64.4872 8.74267 66.4276C8.1485 67.8619 7.12994 69.1273 5.68698 70.3928C7.12994 72.7551 8.57291 74.9486 9.93099 77.0577C12.5623 75.5392 15.7028 75.1173 18.5039 76.0454C19.3527 76.2985 20.0317 76.7203 20.6259 77.1421C21.3049 77.7327 21.8991 78.492 22.4933 79.5044C23.2572 81.276 23.5967 83.3852 23.4269 85.4943Z" fill="#2B2C54"/>
<path d="M31.1513 62.1249C28.9444 62.1249 26.7375 60.9438 25.5492 59.0034C24.276 56.9786 24.0213 54.1945 25.0399 51.8323C25.7189 50.2293 26.8224 48.7951 28.1804 47.9515C29.7083 47.0234 31.4908 46.686 33.1884 47.1922C35.0557 47.6984 36.4138 48.542 37.2626 49.6388C38.2812 50.9886 38.8754 52.7603 38.8754 54.7007C38.8754 56.0506 38.6207 57.1473 38.0266 58.0754C37.5173 58.8347 36.9231 59.5096 36.3289 60.0158C34.886 61.2813 33.5279 61.9562 32.1698 62.2093C31.8303 62.1249 31.4908 62.1249 31.1513 62.1249ZM31.5757 48.2889C30.642 48.2889 29.6234 48.542 28.7746 49.0482C27.6712 49.7231 26.7375 50.9043 26.1433 52.2541C25.2945 54.2789 25.4643 56.6411 26.5677 58.3285C27.6712 60.1001 29.878 61.1125 31.8303 60.7751C32.9337 60.6063 34.0372 60.0158 35.3953 58.919C35.9046 58.4972 36.4987 57.991 36.8382 57.3161C37.2626 56.6411 37.5173 55.7131 37.5173 54.6164C37.5173 53.0134 37.008 51.4948 36.1592 50.3981C35.4801 49.47 34.2918 48.8795 32.764 48.4576C32.4245 48.2889 32.0001 48.2889 31.5757 48.2889Z" fill="#2B2C54"/>
<path d="M31.5804 68.1151C26.8271 68.1151 21.989 65.2466 19.7821 60.8596C17.8298 56.9788 17.9147 52.0856 20.0367 48.2891C22.1587 44.4083 26.1481 41.7086 30.477 41.118C34.5512 40.6118 39.4743 42.8897 42.1905 46.5174C44.9915 50.3139 45.5857 55.5446 43.6334 59.9316C42.6149 62.1251 41.0021 64.1499 38.8801 65.6685C37.6069 66.5965 36.3337 67.2714 34.9756 67.6933C33.9571 67.9464 32.7688 68.1151 31.5804 68.1151ZM31.7502 42.2991C31.4107 42.2991 31.0712 42.2991 30.7316 42.3835C26.7423 42.8897 23.1773 45.3363 21.225 48.8797C19.3577 52.3387 19.2728 56.7257 21.0553 60.2691C23.5168 65.2466 29.6282 67.9464 34.721 66.3434C35.9093 65.9216 37.0977 65.331 38.286 64.4873C40.2382 63.0531 41.6812 61.2814 42.6149 59.2567C44.3974 55.3758 43.8032 50.567 41.3417 47.1923C38.965 44.2395 35.1454 42.2991 31.7502 42.2991Z" fill="#2B2C54"/>
<path d="M58.3972 53.3508C56.7845 52.8446 55.2566 52.001 54.1532 50.7355C52.7102 48.9638 52.2858 46.3485 52.9649 44.155C53.559 41.8771 55.002 39.9367 56.8693 38.4181C55.2566 35.8871 53.559 33.6092 51.7765 31.3313C49.5696 32.9343 47.5325 34.4529 45.071 34.5372C42.7792 34.6216 40.4875 33.3561 39.0445 31.5844C37.6015 29.7284 36.8376 27.4505 36.583 25.1726C36.4981 24.9195 36.4132 24.9195 36.3283 24.9195C33.8668 24.7508 31.4053 24.5821 29.0286 24.4133C28.6042 26.6912 27.5857 28.716 25.9729 30.1502C24.3602 31.5844 22.2382 32.5125 20.0313 32.4281C19.0976 32.4281 18.2488 32.2594 17.4 32.0063C15.9571 31.6688 14.4292 31.3313 13.4107 30.2346C11.4584 31.5844 9.76081 32.9343 8.06321 34.4529C8.91201 35.0434 9.25154 35.8027 9.59106 36.6464C10.2701 38.3337 10.7794 40.1898 10.355 41.9614C9.93058 43.8175 8.57249 45.2517 6.87489 46.1797C5.26216 47.1078 3.30992 47.4452 1.44255 47.5296C0.933271 50.2293 0.67863 53.0134 0.59375 55.8818C2.20647 56.4724 3.73432 56.8942 5.0924 57.7379C6.45049 58.4972 7.63881 59.6783 8.23297 61.1125C8.91202 62.7154 8.74225 64.6559 8.06321 66.2588C7.38417 67.8618 6.11097 69.2116 4.75288 70.3084C6.45049 73.0081 8.06321 75.4547 9.67594 77.9857C12.2223 76.2984 15.4478 75.7922 18.2488 76.7202C18.9279 76.9733 19.6069 77.2264 20.2011 77.7326C20.8801 78.3231 21.4743 79.0824 21.8138 79.8417C22.8324 81.7821 23.1719 84.06 22.8324 86.1692C25.8032 86.7597 28.6891 87.0972 31.575 87.3503C31.4053 84.3975 32.6785 81.3603 35.0551 79.7574C37.4318 78.1544 40.827 77.9857 43.2036 79.5886C44.3071 80.3479 45.2408 81.4447 46.0896 82.5414C48.7208 80.6854 51.2673 78.8293 53.6439 76.8046C52.2858 74.6954 50.9277 72.6706 50.8428 70.3084C50.758 67.8618 52.2858 65.4995 54.3229 64.234C56.3601 62.8842 58.9914 62.5467 61.368 62.7998C62.2168 59.9314 62.8958 57.1473 63.49 54.3632C61.7075 53.9414 60.0099 53.7727 58.3972 53.3508ZM43.0339 59.5939C42.0153 61.7874 40.4026 63.6435 38.4503 65.0777C37.3469 65.9214 36.0737 66.5963 34.7156 67.0181C29.2833 68.7898 22.8324 65.6683 20.286 60.6063C18.4186 56.8942 18.5035 52.2541 20.5406 48.6263C22.5777 44.9986 26.3125 42.3833 30.4716 41.7927C34.2063 41.2865 38.8747 43.3113 41.5909 46.939C44.3071 50.5668 44.9012 55.46 43.0339 59.5939Z" fill="#9981F5"/>
<g opacity="0.1294">
<path d="M46.4286 53.6041C46.3438 53.1823 46.2589 52.7604 46.174 52.3386C46.0891 52.2542 46.0891 52.1699 46.0042 52.0855C45.2403 50.5669 44.3066 49.1327 43.2881 47.7828C43.1183 47.8672 42.9486 48.1203 42.9486 48.289C42.8637 49.0483 43.373 49.6389 43.5427 50.3982C44.2218 52.2542 44.5613 53.1823 44.3915 54.9539C44.3915 55.6289 43.2881 59.2566 42.9486 59.7628C42.5242 60.6065 42.0998 61.3657 41.5056 62.0407C41.3358 62.2094 41.251 62.2938 41.3358 62.2938C41.0812 62.5469 40.8265 62.8 40.5719 62.9687C39.9777 63.4749 39.4685 63.8967 38.8743 64.4029C38.7045 64.4873 38.4499 64.7404 38.2801 64.9091C38.365 64.7404 38.1104 64.9935 37.8557 65.2466C37.686 65.3309 37.1767 65.7528 36.8372 65.8371C34.8001 66.5121 32.7629 66.9339 31.6595 67.0183C30.2165 67.187 28.7736 66.7652 27.5852 66.5121C26.8213 66.259 26.0574 65.4997 25.2086 65.6684C24.8691 65.7528 24.6144 66.0059 24.5295 66.3433C24.6144 66.4277 24.6993 66.5121 24.7842 66.5964C25.0388 66.8495 25.3783 67.1026 25.633 67.3557C26.7364 68.0307 27.755 68.7056 28.8584 69.4649C30.6409 69.9711 32.5083 70.0554 34.8 69.6336C34.8 69.6336 34.7152 69.6336 34.6303 69.6336C37.0069 69.1274 37.7709 68.7899 39.5533 67.9463C41.0812 67.0183 42.3544 65.7528 43.2881 64.2342C43.2881 64.1498 43.373 64.1498 43.373 64.0655C44.4764 62.7156 45.3252 61.1126 45.9194 59.4253C46.5984 57.4849 46.5984 55.5445 46.4286 53.6041Z" fill="#2B2C54"/>
</g>
<g opacity="0.1294">
<path d="M52.2051 73.0925C51.9504 73.0925 51.6958 73.1769 51.526 73.2613C51.1865 73.43 51.0168 73.6831 50.847 74.0205C50.6772 74.2736 50.5075 74.4424 50.3377 74.6955C49.8284 75.286 49.7436 75.5391 48.6401 76.6359C48.0459 77.2265 47.1123 77.6483 46.7727 78.4076C46.7727 78.4076 46.7727 78.4076 46.7727 78.4919C46.5181 78.6607 46.3483 78.745 46.0937 78.9138C45.6693 79.1669 45.0751 79.3356 44.8205 79.7574C43.8868 80.8542 45.3298 82.4571 46.5181 81.6978C47.7913 81.0229 48.9796 80.2636 49.9982 79.2512C50.0831 79.1669 50.0831 79.1669 50.1679 79.0825C51.0168 78.4076 51.7807 77.7326 52.5446 76.9734C52.7992 76.7203 53.1388 76.3828 53.3934 75.961C53.1388 75.3704 52.8841 74.8642 52.6295 74.2736C52.5446 73.8518 52.3748 73.5144 52.2051 73.0925Z" fill="#2B2C54"/>
</g>
<g opacity="0.1294">
<path d="M60.4288 53.9414C59.9195 55.7975 59.4102 57.5691 58.8161 59.4252C58.5614 60.2688 58.3068 61.1125 57.9673 61.9562C58.3068 62.378 58.8161 62.5467 59.3254 62.4624H59.4102C59.8346 63.0529 61.023 62.9686 61.1927 62.1249C61.2776 61.7031 61.4474 61.3656 61.6171 60.9438C61.702 60.8594 61.7869 60.8594 61.8718 60.775C62.3811 60.3532 62.5508 59.6783 62.7206 59.0877C62.9752 57.9066 63.145 56.7255 63.2299 55.46C63.2299 55.3756 63.2299 55.2913 63.2299 55.2069C62.3811 54.8694 61.4474 54.4476 60.4288 53.9414Z" fill="#2B2C54"/>
</g>
<path d="M31.4906 87.8566C28.35 87.6035 25.4641 87.1816 22.663 86.6755C22.3235 86.5911 22.0689 86.2536 22.1537 85.9162C22.4084 83.8914 22.0689 81.7822 21.1352 79.9262C20.7108 79.0825 20.2015 78.4076 19.6922 77.9858C19.2678 77.6483 18.6737 77.3108 17.9946 77.1421C15.4482 76.2985 12.3925 76.8046 10.0159 78.3232C9.67635 78.492 9.33683 78.4076 9.08219 78.1545C7.46946 75.7079 5.85674 73.1769 4.15913 70.4772C3.98937 70.2241 4.07425 69.8023 4.32889 69.6335C5.77186 68.4524 6.8753 67.1869 7.46946 65.8371C8.1485 64.2341 8.23338 62.5468 7.63922 61.197C7.04506 59.6784 5.68698 58.7503 4.75329 58.1598C3.64985 57.4849 2.37665 57.063 1.01856 56.5568L0.424401 56.3881C0.16976 56.3037 0 56.0506 0 55.7975C0.0848802 52.676 0.339521 49.8076 0.848802 47.361C0.933683 47.1079 1.18832 46.8547 1.44296 46.8547C3.56497 46.686 5.26258 46.3486 6.62066 45.5893C8.23338 44.7456 9.42171 43.3114 9.76123 41.7928C10.1856 40.1055 9.59147 38.2494 9.08219 36.8996C8.82755 36.2246 8.48803 35.4654 7.80898 35.0435C7.63922 34.9592 7.55434 34.7904 7.55434 34.5373C7.55434 34.3686 7.63922 34.1155 7.80898 34.0311C9.76123 32.3438 11.4588 30.994 13.2413 29.8128C13.496 29.6441 13.8355 29.6441 14.0901 29.8972C14.9389 30.8252 16.297 31.1627 17.74 31.5002C18.6737 31.6689 19.4376 31.8376 20.2864 31.922C22.2386 32.0064 24.2757 31.2471 25.8036 29.8128C27.2466 28.463 28.2651 26.6069 28.6895 24.4134C28.7744 24.076 29.029 23.9072 29.3686 23.9072L36.6683 24.4134C37.0927 24.4134 37.3473 24.6665 37.5171 25.0884C37.5171 25.1727 37.5171 25.1727 37.5171 25.2571C37.8566 27.7881 38.6205 29.8128 39.8088 31.3314C41.2518 33.1031 43.3738 34.1155 45.326 34.0311C47.6178 33.9468 49.6549 32.4282 51.6921 30.9096C51.9467 30.7409 52.3711 30.7409 52.6257 30.994C54.6629 33.5249 56.2756 35.8872 57.7186 38.1651C57.8883 38.4182 57.8034 38.7556 57.5488 39.0087C56.2756 40.1055 54.578 41.9615 53.8989 44.4081C53.3048 46.6017 53.7292 48.8795 55.0024 50.4825C55.8512 51.5792 57.2093 52.4229 58.9069 52.9291C60.4347 53.4353 62.0475 53.5197 63.8299 53.6884C63.9997 53.6884 64.1695 53.7728 64.2543 53.9415C64.3392 54.1102 64.4241 54.2789 64.3392 54.4477C63.745 57.2318 63.066 60.0158 62.2172 62.8843C62.1323 63.2217 61.8777 63.3905 61.5382 63.3061C58.9918 63.053 56.6151 63.5592 54.8326 64.656C52.8804 65.9214 51.6072 68.115 51.6072 70.2241C51.6921 72.3333 52.8804 74.2737 54.2385 76.2985L54.3233 76.3828C54.4931 76.6359 54.4082 76.9734 54.2385 77.2265C51.7769 79.3356 49.0608 81.276 46.5992 83.0477C46.3446 83.2165 45.9202 83.2165 45.7504 82.879C44.9865 81.951 44.1377 80.8542 43.0343 80.0949C40.9123 78.6607 37.7717 78.7451 35.6497 80.1793C33.5277 81.6135 32.2545 84.3976 32.4243 87.266C32.4243 87.4348 32.3394 87.6035 32.2545 87.7722C31.8301 87.7722 31.6603 87.8566 31.4906 87.8566ZM23.4269 85.4943C25.8036 85.9162 28.2651 86.2536 30.8115 86.5067C30.8964 83.4696 32.2545 80.6855 34.6311 79.0825C37.2624 77.2265 40.9123 77.2265 43.5436 78.9138C44.5621 79.6731 45.4109 80.6011 46.1748 81.5291C48.3817 80.0106 50.5886 78.3232 52.7955 76.5515C51.5223 74.6111 50.2491 72.502 50.2491 70.1397C50.1642 67.6088 51.6921 64.9934 54.0687 63.4748C55.9361 62.2937 58.3976 61.7032 61.0289 61.8719C61.7079 59.4253 62.387 57.063 62.8962 54.7008C61.3684 54.532 59.8406 54.3633 58.3976 53.9415C56.4454 53.3509 54.9175 52.4229 53.8989 51.1574C52.3711 49.3014 51.8618 46.5173 52.5409 43.9863C53.0501 41.9615 54.3233 40.0211 56.1907 38.3338C54.9175 36.3934 53.4745 34.3686 51.8618 32.2595C49.8247 33.6937 47.7876 35.1279 45.326 35.2123C42.9494 35.2966 40.403 34.1155 38.7054 32.0064C37.3473 30.319 36.4985 28.1255 36.159 25.5102L29.6232 25.004C29.1139 27.1975 28.0105 29.1379 26.4826 30.5721C24.7001 32.1751 22.4084 33.1031 20.1166 33.0187C19.1829 33.0187 18.2493 32.7656 17.3156 32.5969C15.9575 32.2595 14.5145 31.922 13.4111 31.0783C11.9681 32.0907 10.61 33.1031 9.08219 34.453C9.67635 35.0435 10.0159 35.8028 10.1856 36.3934C10.7798 37.9963 11.4588 40.0211 10.9496 42.0459C10.5251 43.9019 9.16706 45.5893 7.21482 46.686C5.77186 47.4453 4.07425 47.9515 2.03713 48.1202C1.61273 50.3138 1.35808 52.7604 1.2732 55.3757L1.44296 55.4601C2.88593 55.9663 4.15913 56.3881 5.43234 57.1474C6.62066 57.8223 8.1485 59.0034 8.91242 60.7751C9.59147 62.4624 9.59147 64.4872 8.74267 66.4276C8.1485 67.8619 7.12994 69.1273 5.68698 70.3928C7.12994 72.7551 8.57291 74.9486 9.93099 77.0577C12.5623 75.5392 15.7028 75.1173 18.5039 76.0454C19.3527 76.2985 20.0317 76.7203 20.6259 77.1421C21.3049 77.7327 21.8991 78.492 22.4933 79.5044C23.2572 81.276 23.5967 83.3852 23.4269 85.4943Z" fill="#2B2C54"/>
<path d="M31.1513 62.1249C28.9444 62.1249 26.7375 60.9438 25.5492 59.0034C24.276 56.9786 24.0213 54.1945 25.0399 51.8323C25.7189 50.2293 26.8224 48.7951 28.1804 47.9515C29.7083 47.0234 31.4908 46.686 33.1884 47.1922C35.0557 47.6984 36.4138 48.542 37.2626 49.6388C38.2812 50.9886 38.8754 52.7603 38.8754 54.7007C38.8754 56.0506 38.6207 57.1473 38.0266 58.0754C37.5173 58.8347 36.9231 59.5096 36.3289 60.0158C34.886 61.2813 33.5279 61.9562 32.1698 62.2093C31.8303 62.1249 31.4908 62.1249 31.1513 62.1249ZM31.5757 48.2889C30.642 48.2889 29.6234 48.542 28.7746 49.0482C27.6712 49.7231 26.7375 50.9043 26.1433 52.2541C25.2945 54.2789 25.4643 56.6411 26.5677 58.3285C27.6712 60.1001 29.878 61.1125 31.8303 60.7751C32.9337 60.6063 34.0372 60.0158 35.3953 58.919C35.9046 58.4972 36.4987 57.991 36.8382 57.3161C37.2626 56.6411 37.5173 55.7131 37.5173 54.6164C37.5173 53.0134 37.008 51.4948 36.1592 50.3981C35.4801 49.47 34.2918 48.8795 32.764 48.4576C32.4245 48.2889 32.0001 48.2889 31.5757 48.2889Z" fill="#2B2C54"/>
<path d="M31.5804 68.1151C26.8271 68.1151 21.989 65.2466 19.7821 60.8596C17.8298 56.9788 17.9147 52.0856 20.0367 48.2891C22.1587 44.4083 26.1481 41.7086 30.477 41.118C34.5512 40.6118 39.4743 42.8897 42.1905 46.5174C44.9915 50.3139 45.5857 55.5446 43.6334 59.9316C42.6149 62.1251 41.0021 64.1499 38.8801 65.6685C37.6069 66.5965 36.3337 67.2714 34.9756 67.6933C33.9571 67.9464 32.7688 68.1151 31.5804 68.1151ZM31.7502 42.2991C31.4107 42.2991 31.0712 42.2991 30.7316 42.3835C26.7423 42.8897 23.1773 45.3363 21.225 48.8797C19.3577 52.3387 19.2728 56.7257 21.0553 60.2691C23.5168 65.2466 29.6282 67.9464 34.721 66.3434C35.9093 65.9216 37.0977 65.331 38.286 64.4873C40.2382 63.0531 41.6812 61.2814 42.6149 59.2567C44.3974 55.3758 43.8032 50.567 41.3417 47.1923C38.965 44.2395 35.1454 42.2991 31.7502 42.2991Z" fill="#2B2C54"/>
<path d="M94.8174 14.7957L93.3744 10.1556L96.3452 6.02167L88.9606 0.959717C88.0269 2.4783 87.0933 3.99689 86.0747 5.51548C85.9898 5.59984 85.9898 5.68421 85.9049 5.76857C85.8201 5.85294 85.6503 5.85294 85.5654 5.85294C83.9527 5.85294 82.2551 5.76857 80.6424 5.76857C79.7936 4.24999 79.0296 2.81577 78.1808 1.46591C78.0959 1.38155 78.0111 1.21281 77.9262 1.21281C77.7564 1.21281 77.6715 1.21282 77.5867 1.29718C75.6344 2.4783 73.6822 3.57506 71.7299 4.75618C71.6451 4.75618 71.645 4.84055 71.5602 4.84055C71.4753 4.92492 71.5602 5.09365 71.6451 5.26238C72.409 6.52787 73.2578 7.79336 74.2763 8.89011C73.4275 10.4931 72.4939 12.0116 71.4753 13.4459C71.2207 13.7833 70.966 14.1208 70.5416 14.2895C70.2021 14.3739 69.8626 14.2895 69.523 14.2052C68.165 13.7833 66.8069 13.3615 65.4488 12.9397C64.3454 15.6394 64.0907 18.6766 64.8546 21.4606C64.9395 21.7137 70.0323 20.9544 70.0323 20.9544L73.088 26.1851L70.6265 30.1503L76.2286 34.1999L79.1145 29.9816L84.2073 30.066L86.1596 34.453L93.7988 31.8376L91.9314 27.2819L94.6476 22.8949L99.8253 22.473L99.995 16.2299L94.8174 14.7957ZM85.9898 17.158C86.0747 17.4111 85.8201 17.8329 85.7352 18.0016C85.6503 18.1704 85.5654 18.3391 85.4805 18.5078C85.3108 18.7609 85.0561 19.0984 84.8015 19.3515C84.2922 19.8577 83.6132 20.1951 82.9341 20.4482C82.6795 20.5326 82.34 20.617 82.0853 20.7013C81.8307 20.7857 81.576 20.7857 81.3214 20.7013C81.1516 20.7013 80.9819 20.617 80.8121 20.617C81.2365 20.617 80.8121 20.617 80.5575 20.5326C79.7936 20.2795 79.0296 19.6889 78.6052 19.014C78.3506 18.5922 78.1808 18.086 78.1808 17.6642C78.1808 17.2423 78.2657 16.7361 78.4355 16.3987C78.6901 15.8081 78.9448 15.2176 79.3692 14.7114C79.7936 14.1208 80.3028 13.5302 80.9819 13.1928C81.6609 12.8553 82.34 12.8553 83.019 13.024C83.2736 12.9397 83.6132 12.8553 83.8678 12.9397C84.3771 13.1084 84.7166 13.3615 85.0561 13.699C85.3957 14.1208 85.5654 14.4583 85.82 14.9645C85.9049 15.1332 85.9049 15.2176 85.9898 15.3863C85.9898 15.4707 85.9898 15.555 86.0747 15.6394C86.0747 15.8081 86.0747 15.8925 86.1596 16.0612V15.9768C86.1596 15.8925 86.1596 15.8925 86.1596 15.9768C86.1596 16.1456 86.1596 16.2299 86.2444 16.3987C86.2444 16.483 86.2444 16.5674 86.2444 16.6518C86.0747 16.7361 86.0747 16.9892 85.9898 17.158Z" fill="#D4CAFB"/>
<path d="M72.4069 20.364C72.322 20.364 72.322 20.364 72.4069 20.364C72.2372 20.364 72.1523 20.1952 72.2372 20.1109C73.6801 15.2176 75.3777 10.24 77.33 5.51555C77.4149 5.43119 77.4997 5.34682 77.5846 5.43119C77.6695 5.51555 77.7544 5.59992 77.6695 5.68429C75.7173 10.4088 74.0196 15.302 72.5767 20.2796C72.5767 20.2796 72.4918 20.364 72.4069 20.364Z" fill="#2B2C54"/>
<path d="M74.6074 21.2075C74.4376 21.2075 74.3527 21.0388 74.4376 20.9544C75.7957 16.3143 77.5782 11.7585 79.7002 7.37151C79.785 7.28714 79.8699 7.20278 79.9548 7.28714C80.0397 7.37151 80.1246 7.45587 80.0397 7.54024C77.9177 11.8429 76.1352 16.3987 74.7771 21.0388C74.7771 21.1231 74.6922 21.2075 74.6074 21.2075Z" fill="#2B2C54"/>
<path d="M73.7595 30.0659C73.5897 29.9816 73.5048 29.8972 73.5897 29.7285L77.3244 20.87C77.4093 20.7857 77.4942 20.7013 77.5791 20.7857C77.6639 20.87 77.7488 20.9544 77.6639 21.0388L73.9292 29.8972C73.9292 30.0659 73.8443 30.0659 73.7595 30.0659Z" fill="#2B2C54"/>
<path d="M78.5969 28.21C78.4271 28.1256 78.3422 28.0413 78.4271 27.9569L80.4642 22.895C80.5491 22.8106 80.634 22.7262 80.7189 22.8106C80.8037 22.8949 80.8886 22.9793 80.8037 23.0637L78.7666 28.1256C78.7666 28.1256 78.6817 28.21 78.5969 28.21Z" fill="#2B2C54"/>
<path d="M82.5085 11.5055C82.3387 11.4212 82.2538 11.3368 82.3387 11.2524L83.3573 8.13089C83.3573 8.04652 83.527 7.96216 83.6119 7.96216C83.6968 7.96216 83.7817 8.13089 83.7817 8.21526L82.7631 11.3368C82.6782 11.4212 82.5934 11.5055 82.5085 11.5055Z" fill="#2B2C54"/>
<path d="M86.4045 12.2648C86.3196 12.2648 86.3196 12.2648 86.4045 12.2648C86.2347 12.1805 86.1498 12.0961 86.2347 12.0117C87.2533 9.31202 88.4416 6.69667 89.7148 4.1657C89.7997 4.08133 89.8846 3.99697 89.9695 4.08133C90.0543 4.1657 90.1392 4.25006 90.0543 4.33443C88.7811 6.86541 87.5928 9.48075 86.6591 12.1805C86.5742 12.2648 86.4894 12.2648 86.4045 12.2648Z" fill="#2B2C54"/>
<path d="M82.5006 28.2097H82.4157C82.3308 28.1254 82.2459 28.041 82.3308 27.9566L91.7525 8.21502C91.8374 8.13065 91.9223 8.04628 92.0072 8.13065C92.092 8.21501 92.1769 8.29938 92.092 8.38375L82.6703 28.1254C82.6703 28.2097 82.5855 28.2097 82.5006 28.2097Z" fill="#2B2C54"/>
<path d="M86.2408 29.0537H86.1559C86.0711 28.9693 85.9862 28.8849 86.071 28.8006L92.3522 15.3864C92.4371 15.302 92.5219 15.2177 92.6068 15.302C92.6917 15.3864 92.7766 15.4708 92.6917 15.5551L86.4106 28.9693C86.4106 28.9693 86.3257 29.0537 86.2408 29.0537Z" fill="#2B2C54"/>
<path d="M92.9435 22.3041H92.8586C92.7737 22.2197 92.6888 22.1354 92.7737 22.051L95.5747 17.0734C95.6596 16.989 95.7445 16.9047 95.8294 16.989C95.9143 17.0734 95.9991 17.1578 95.9143 17.2421L93.1132 22.2197C93.1132 22.3041 93.0283 22.3041 92.9435 22.3041Z" fill="#2B2C54"/>
<path d="M88.2755 31.7532H88.1906C88.1057 31.6689 88.0208 31.5845 88.1057 31.5001L89.3789 28.9692C89.4638 28.8848 89.5487 28.8004 89.6336 28.8848C89.7184 28.9692 89.8033 29.0535 89.7184 29.1379L88.4452 31.6689C88.4452 31.6689 88.3604 31.7532 88.2755 31.7532Z" fill="#2B2C54"/>
<path d="M67.1405 19.1827H67.0556C66.9707 19.0984 66.8858 19.014 66.9707 18.9296L68.6683 15.4706C68.7532 15.3863 68.8381 15.3019 68.923 15.3863C69.0078 15.4706 69.0927 15.555 69.0078 15.6394L67.3102 19.0984C67.2253 19.1827 67.1405 19.1827 67.1405 19.1827Z" fill="#2B2C54"/>
<path d="M74.2721 6.10596H74.1872C74.1023 6.0216 74.0174 5.93723 74.1023 5.85286L75.3755 3.65935C75.4604 3.57498 75.5453 3.49062 75.6301 3.57498C75.715 3.65935 75.7999 3.74372 75.715 3.82808L74.4418 6.02159C74.4418 6.10596 74.3569 6.10596 74.2721 6.10596Z" fill="#2B2C54"/>
<g opacity="0.1294">
<path d="M87.5108 18.0858C87.4259 17.3265 86.2376 17.2422 86.0678 18.0015C85.8132 18.7607 85.8981 18.592 85.1341 19.3513C84.3702 19.9419 84.6248 19.7731 83.4365 20.195C82.3331 20.5324 82.7575 20.4481 81.8238 20.4481C81.654 20.4481 81.5692 20.3637 81.3994 20.3637C80.975 20.195 81.0599 20.2793 80.2111 19.7731C79.8716 19.6044 79.532 19.2669 79.1076 19.2669C77.8344 19.0138 77.2403 20.8699 78.3437 21.4605C80.296 22.8103 82.3331 23.4009 84.6249 22.3041C85.8132 21.6292 86.662 20.6168 87.0864 19.3513C87.2561 18.9295 87.5108 18.5076 87.5108 18.0858Z" fill="#2B2C54"/>
</g>
<g opacity="0.1294">
<path d="M90.905 30.5722C90.1411 30.8253 89.8865 30.994 88.4435 31.2471C87.7645 31.4158 87.0005 31.3315 86.4064 31.7533C85.218 32.597 86.2366 34.5374 87.5947 34.1155C89.2923 33.7781 91.1597 33.6937 92.5177 32.5126C93.5363 31.4158 92.2631 29.8972 90.905 30.5722Z" fill="#2B2C54"/>
</g>
<g opacity="0.1294">
<path d="M100.923 20.0263C100.923 19.7732 100.838 19.4357 100.753 19.267C100.159 18.1702 98.4612 18.3389 98.0368 19.4357C98.0368 19.5201 97.9519 19.5201 97.9519 19.6044C97.867 19.8575 97.7821 20.0263 97.6973 20.2794C97.6124 20.4481 97.5275 20.7012 97.4426 20.7856C97.2729 21.0387 97.188 21.2918 97.188 21.5449C97.188 23.4009 99.8193 23.7384 100.329 21.9667C100.583 21.3761 100.753 20.7856 100.838 20.195C100.923 20.195 100.923 20.1106 100.923 20.0263Z" fill="#2B2C54"/>
</g>
<path d="M86.0736 34.8748C85.8189 34.8748 85.5643 34.706 85.4794 34.4529C84.8852 33.1031 84.376 31.7532 83.5272 30.4877C81.9144 30.6565 80.3866 30.5721 78.8587 30.4034C78.4343 31.1626 78.0099 32.0063 77.5007 32.7656C77.246 33.2718 76.9914 33.778 76.6519 34.2842C76.4821 34.5373 76.1426 34.706 75.8879 34.5373C73.4264 33.6093 71.2195 32.0063 69.6068 30.0659C69.437 29.8128 69.437 29.5597 69.6068 29.3066C70.4556 28.2098 71.3044 27.0287 72.1532 25.5945C71.2195 24.329 70.3707 22.8948 69.6068 21.1231C69.2673 21.2075 68.9277 21.2918 68.5882 21.2918C67.3999 21.5449 66.1267 21.798 64.8535 21.9668C64.514 21.9668 64.2593 21.798 64.1745 21.4606C63.4105 18.6765 63.6652 15.6393 64.7686 12.2647C64.8535 11.9272 65.193 11.7585 65.5325 11.8429C67.2302 12.2647 68.9278 12.6865 70.6254 13.1084C71.3044 11.6741 72.2381 10.2399 73.0869 8.89006C72.2381 7.7933 71.3893 6.61218 70.5405 5.17796C70.3707 4.92486 70.4556 4.5874 70.7102 4.41866C72.5776 2.81571 74.8694 1.38149 77.5855 0.20037C77.9251 0.031638 78.2646 0.200369 78.4343 0.453467C79.2831 1.88769 80.0471 3.40627 80.6412 4.92486C82.3388 4.67176 84.0364 4.58739 85.734 4.75613C86.498 3.32191 87.3468 1.80332 88.3653 0.284734C88.5351 0.0316367 88.8746 -0.0527286 89.2141 0.0316373C91.2513 1.04403 93.1186 2.30952 94.8162 3.65937C95.2406 4.0812 95.7499 4.41866 96.1743 4.84049C96.429 5.00923 96.6836 5.26232 96.7685 5.68415C96.8534 5.85288 96.7685 6.02162 96.6836 6.19035C96.2592 6.78091 95.9197 7.2871 95.4953 7.87767C94.986 8.63696 94.3918 9.48062 93.7977 10.3243C94.307 11.5054 94.8162 12.7709 95.2406 14.0364C96.6836 14.2051 98.551 14.4582 100.503 15.2175C100.758 15.3019 100.928 15.555 100.928 15.8081C101.097 18.339 100.758 20.7013 99.909 22.8948C99.8242 23.1479 99.5695 23.3166 99.3149 23.3166H98.7207C97.4475 23.2323 96.0894 23.2323 94.7313 23.3166C94.2221 24.5821 93.3733 25.8476 92.2698 27.1975C93.0337 28.4629 93.7977 29.8128 94.4767 31.4158C94.6465 31.7532 94.4767 32.0907 94.2221 32.2594C91.5059 33.778 88.8746 34.6217 86.0736 34.8748ZM83.8667 29.2222C84.1213 29.2222 84.2911 29.3066 84.376 29.4753C85.3096 30.8252 85.9038 32.2594 86.4131 33.5249C88.62 33.2718 90.8269 32.5125 92.9489 31.5001C92.2698 30.0659 91.5908 28.8004 90.8269 27.6193C90.6571 27.3662 90.742 27.1131 90.9117 26.86C92.2698 25.257 93.1186 23.9072 93.6279 22.5573C93.7128 22.3042 93.9674 22.1355 94.1372 22.1355C95.7499 21.9668 97.2778 22.0511 98.7207 22.1355H98.8056C99.3998 20.3638 99.7393 18.4234 99.6544 16.3986C97.787 15.7237 96.0894 15.4706 94.7313 15.3862C94.4767 15.3862 94.2221 15.2175 94.1372 14.9644C93.6279 13.5302 93.0337 12.0116 92.4396 10.6617C92.3547 10.493 92.3547 10.2399 92.5245 10.0712C93.2035 9.05879 93.7977 8.21513 94.4767 7.2871C94.8162 6.86527 95.0709 6.35908 95.4104 5.93725C95.4104 5.93725 95.3255 5.93725 95.3255 5.85288C94.9011 5.43105 94.4767 5.09359 93.9674 4.67176C92.4396 3.40627 90.8269 2.30952 89.1293 1.46586C88.1956 2.90008 87.4317 4.3343 86.7526 5.76852C86.6677 6.02162 86.4131 6.10598 86.0736 6.10598C84.2062 5.93725 82.254 6.02161 80.3866 6.27471C80.0471 6.35908 79.7924 6.19035 79.7075 5.85288C79.1134 4.41866 78.4343 2.98444 77.6704 1.63459C75.4635 2.64698 73.5962 3.74374 72.0683 5.09359C72.8322 6.44345 73.7659 7.62457 74.5298 8.63696C74.6996 8.89006 74.6996 9.14315 74.5298 9.39625C73.4264 11.0836 72.4078 12.6865 71.6439 14.3738C71.4742 14.6269 71.2195 14.7957 70.88 14.7113C69.0975 14.2895 67.4848 13.8676 65.7872 13.4458C64.9384 16.1455 64.7686 18.5921 65.193 20.7857C66.2965 20.6169 67.315 20.4482 68.3336 20.1951C68.8429 20.1107 69.3522 19.942 69.8614 19.8576C70.201 19.7733 70.4556 19.942 70.5405 20.2794C71.3893 22.3042 72.323 23.9072 73.4264 25.257C73.5962 25.5101 73.5962 25.7632 73.5113 26.0163C72.5776 27.4506 71.7288 28.6317 70.9649 29.7284C72.2381 31.247 73.9357 32.4281 75.8031 33.1874C75.9728 32.85 76.1426 32.5125 76.3123 32.175C76.8216 31.247 77.3309 30.319 77.8402 29.391C77.9251 29.1379 78.1797 29.0535 78.4343 29.0535C80.1319 29.2222 81.9144 29.3066 83.612 29.1379C83.7818 29.2222 83.8667 29.2222 83.8667 29.2222Z" fill="#2B2C54"/>
<path d="M81.4803 20.87C80.8012 20.87 80.0373 20.7013 79.4431 20.4482C78.849 20.1951 78.4246 19.8576 78.1699 19.5202C77.8304 19.014 77.6607 18.3391 77.6607 17.9172C77.4909 16.2299 77.9153 14.7113 78.849 13.6146C79.9524 12.2647 81.7349 11.6741 83.1779 12.1803C83.2627 12.1803 83.3476 12.2647 83.4325 12.3491C85.0452 12.8553 86.1487 14.3739 86.2335 16.0612C86.3184 17.6641 85.4696 19.2671 84.0267 20.1951C83.3476 20.6169 82.4139 20.87 81.4803 20.87ZM82.1593 13.2771C81.3105 13.2771 80.4617 13.6989 79.8675 14.3739C79.1885 15.2175 78.849 16.3986 79.0187 17.7485C79.0187 18.086 79.1036 18.4234 79.2734 18.7609C79.4431 18.9296 79.6129 19.0983 79.9524 19.2671C81.0559 19.7733 82.4139 19.6889 83.4325 19.0983C84.4511 18.5078 85.1301 17.3267 85.0452 16.1455C84.9604 14.9644 84.1964 13.8677 83.093 13.5302H83.0081C82.9232 13.5302 82.7535 13.4458 82.5837 13.3615C82.4139 13.2771 82.2442 13.2771 82.1593 13.2771Z" fill="#2B2C54"/>
<path d="M72.4069 20.364C72.322 20.364 72.322 20.364 72.4069 20.364C72.2372 20.364 72.1523 20.1952 72.2372 20.1109C73.6801 15.2176 75.3777 10.24 77.33 5.51555C77.4149 5.43119 77.4997 5.34682 77.5846 5.43119C77.6695 5.51555 77.7544 5.59992 77.6695 5.68429C75.7173 10.4088 74.0196 15.302 72.5767 20.2796C72.5767 20.2796 72.4918 20.364 72.4069 20.364Z" fill="#2B2C54"/>
<path d="M74.6074 21.2075C74.4376 21.2075 74.3527 21.0388 74.4376 20.9544C75.7957 16.3143 77.5782 11.7585 79.7002 7.37151C79.785 7.28714 79.8699 7.20278 79.9548 7.28714C80.0397 7.37151 80.1246 7.45587 80.0397 7.54024C77.9177 11.8429 76.1352 16.3987 74.7771 21.0388C74.7771 21.1231 74.6922 21.2075 74.6074 21.2075Z" fill="#2B2C54"/>
<path d="M73.7595 30.0659C73.5897 29.9816 73.5048 29.8972 73.5897 29.7285L77.3244 20.87C77.4093 20.7857 77.4942 20.7013 77.5791 20.7857C77.6639 20.87 77.7488 20.9544 77.6639 21.0388L73.9292 29.8972C73.9292 30.0659 73.8443 30.0659 73.7595 30.0659Z" fill="#2B2C54"/>
<path d="M78.5969 28.21C78.4271 28.1256 78.3422 28.0413 78.4271 27.9569L80.4642 22.895C80.5491 22.8106 80.634 22.7262 80.7189 22.8106C80.8037 22.8949 80.8886 22.9793 80.8037 23.0637L78.7666 28.1256C78.7666 28.1256 78.6817 28.21 78.5969 28.21Z" fill="#2B2C54"/>
<path d="M82.5085 11.5055C82.3387 11.4212 82.2538 11.3368 82.3387 11.2524L83.3573 8.13089C83.3573 8.04652 83.527 7.96216 83.6119 7.96216C83.6968 7.96216 83.7817 8.13089 83.7817 8.21526L82.7631 11.3368C82.6782 11.4212 82.5934 11.5055 82.5085 11.5055Z" fill="#2B2C54"/>
<path d="M86.4045 12.2648C86.3196 12.2648 86.3196 12.2648 86.4045 12.2648C86.2347 12.1805 86.1498 12.0961 86.2347 12.0117C87.2533 9.31202 88.4416 6.69667 89.7148 4.1657C89.7997 4.08133 89.8846 3.99697 89.9695 4.08133C90.0543 4.1657 90.1392 4.25006 90.0543 4.33443C88.7811 6.86541 87.5928 9.48075 86.6591 12.1805C86.5742 12.2648 86.4894 12.2648 86.4045 12.2648Z" fill="#2B2C54"/>
<path d="M82.5006 28.2097H82.4157C82.3308 28.1254 82.2459 28.041 82.3308 27.9566L91.7525 8.21502C91.8374 8.13065 91.9223 8.04628 92.0072 8.13065C92.092 8.21501 92.1769 8.29938 92.092 8.38375L82.6703 28.1254C82.6703 28.2097 82.5855 28.2097 82.5006 28.2097Z" fill="#2B2C54"/>
<path d="M86.2408 29.0537H86.1559C86.0711 28.9693 85.9862 28.8849 86.071 28.8006L92.3522 15.3864C92.4371 15.302 92.5219 15.2177 92.6068 15.302C92.6917 15.3864 92.7766 15.4708 92.6917 15.5551L86.4106 28.9693C86.4106 28.9693 86.3257 29.0537 86.2408 29.0537Z" fill="#2B2C54"/>
<path d="M92.9435 22.3041H92.8586C92.7737 22.2197 92.6888 22.1354 92.7737 22.051L95.5747 17.0734C95.6596 16.989 95.7445 16.9047 95.8294 16.989C95.9143 17.0734 95.9991 17.1578 95.9143 17.2421L93.1132 22.2197C93.1132 22.3041 93.0283 22.3041 92.9435 22.3041Z" fill="#2B2C54"/>
<path d="M88.2755 31.7532H88.1906C88.1057 31.6689 88.0208 31.5845 88.1057 31.5001L89.3789 28.9692C89.4638 28.8848 89.5487 28.8004 89.6336 28.8848C89.7184 28.9692 89.8033 29.0535 89.7184 29.1379L88.4452 31.6689C88.4452 31.6689 88.3604 31.7532 88.2755 31.7532Z" fill="#2B2C54"/>
<path d="M67.1405 19.1827H67.0556C66.9707 19.0984 66.8858 19.014 66.9707 18.9296L68.6683 15.4706C68.7532 15.3863 68.8381 15.3019 68.923 15.3863C69.0078 15.4706 69.0927 15.555 69.0078 15.6394L67.3102 19.0984C67.2253 19.1827 67.1405 19.1827 67.1405 19.1827Z" fill="#2B2C54"/>
<path d="M74.2721 6.10596H74.1872C74.1023 6.0216 74.0174 5.93723 74.1023 5.85286L75.3755 3.65935C75.4604 3.57498 75.5453 3.49062 75.6301 3.57498C75.715 3.65935 75.7999 3.74372 75.715 3.82808L74.4418 6.02159C74.4418 6.10596 74.3569 6.10596 74.2721 6.10596Z" fill="#2B2C54"/>
<g opacity="0.1294">
<path d="M87.5108 18.0858C87.4259 17.3265 86.2376 17.2422 86.0678 18.0015C85.8132 18.7607 85.8981 18.592 85.1341 19.3513C84.3702 19.9419 84.6248 19.7731 83.4365 20.195C82.3331 20.5324 82.7575 20.4481 81.8238 20.4481C81.654 20.4481 81.5692 20.3637 81.3994 20.3637C80.975 20.195 81.0599 20.2793 80.2111 19.7731C79.8716 19.6044 79.532 19.2669 79.1076 19.2669C77.8344 19.0138 77.2403 20.8699 78.3437 21.4605C80.296 22.8103 82.3331 23.4009 84.6249 22.3041C85.8132 21.6292 86.662 20.6168 87.0864 19.3513C87.2561 18.9295 87.5108 18.5076 87.5108 18.0858Z" fill="#2B2C54"/>
</g>
<g opacity="0.1294">
<path d="M90.905 30.5722C90.1411 30.8253 89.8865 30.994 88.4435 31.2471C87.7645 31.4158 87.0005 31.3315 86.4064 31.7533C85.218 32.597 86.2366 34.5374 87.5947 34.1155C89.2923 33.7781 91.1597 33.6937 92.5177 32.5126C93.5363 31.4158 92.2631 29.8972 90.905 30.5722Z" fill="#2B2C54"/>
</g>
<g opacity="0.1294">
<path d="M100.923 20.0263C100.923 19.7732 100.838 19.4357 100.753 19.267C100.159 18.1702 98.4612 18.3389 98.0368 19.4357C98.0368 19.5201 97.9519 19.5201 97.9519 19.6044C97.867 19.8575 97.7821 20.0263 97.6973 20.2794C97.6124 20.4481 97.5275 20.7012 97.4426 20.7856C97.2729 21.0387 97.188 21.2918 97.188 21.5449C97.188 23.4009 99.8193 23.7384 100.329 21.9667C100.583 21.3761 100.753 20.7856 100.838 20.195C100.923 20.195 100.923 20.1106 100.923 20.0263Z" fill="#2B2C54"/>
</g>
<path d="M86.0736 34.8748C85.8189 34.8748 85.5643 34.706 85.4794 34.4529C84.8852 33.1031 84.376 31.7532 83.5272 30.4877C81.9144 30.6565 80.3866 30.5721 78.8587 30.4034C78.4343 31.1626 78.0099 32.0063 77.5007 32.7656C77.246 33.2718 76.9914 33.778 76.6519 34.2842C76.4821 34.5373 76.1426 34.706 75.8879 34.5373C73.4264 33.6093 71.2195 32.0063 69.6068 30.0659C69.437 29.8128 69.437 29.5597 69.6068 29.3066C70.4556 28.2098 71.3044 27.0287 72.1532 25.5945C71.2195 24.329 70.3707 22.8948 69.6068 21.1231C69.2673 21.2075 68.9277 21.2918 68.5882 21.2918C67.3999 21.5449 66.1267 21.798 64.8535 21.9668C64.514 21.9668 64.2593 21.798 64.1745 21.4606C63.4105 18.6765 63.6652 15.6393 64.7686 12.2647C64.8535 11.9272 65.193 11.7585 65.5325 11.8429C67.2302 12.2647 68.9278 12.6865 70.6254 13.1084C71.3044 11.6741 72.2381 10.2399 73.0869 8.89006C72.2381 7.7933 71.3893 6.61218 70.5405 5.17796C70.3707 4.92486 70.4556 4.5874 70.7102 4.41866C72.5776 2.81571 74.8694 1.38149 77.5855 0.20037C77.9251 0.031638 78.2646 0.200369 78.4343 0.453467C79.2831 1.88769 80.0471 3.40627 80.6412 4.92486C82.3388 4.67176 84.0364 4.58739 85.734 4.75613C86.498 3.32191 87.3468 1.80332 88.3653 0.284734C88.5351 0.0316367 88.8746 -0.0527286 89.2141 0.0316373C91.2513 1.04403 93.1186 2.30952 94.8162 3.65937C95.2406 4.0812 95.7499 4.41866 96.1743 4.84049C96.429 5.00923 96.6836 5.26232 96.7685 5.68415C96.8534 5.85288 96.7685 6.02162 96.6836 6.19035C96.2592 6.78091 95.9197 7.2871 95.4953 7.87767C94.986 8.63696 94.3918 9.48062 93.7977 10.3243C94.307 11.5054 94.8162 12.7709 95.2406 14.0364C96.6836 14.2051 98.551 14.4582 100.503 15.2175C100.758 15.3019 100.928 15.555 100.928 15.8081C101.097 18.339 100.758 20.7013 99.909 22.8948C99.8242 23.1479 99.5695 23.3166 99.3149 23.3166H98.7207C97.4475 23.2323 96.0894 23.2323 94.7313 23.3166C94.2221 24.5821 93.3733 25.8476 92.2698 27.1975C93.0337 28.4629 93.7977 29.8128 94.4767 31.4158C94.6465 31.7532 94.4767 32.0907 94.2221 32.2594C91.5059 33.778 88.8746 34.6217 86.0736 34.8748ZM83.8667 29.2222C84.1213 29.2222 84.2911 29.3066 84.376 29.4753C85.3096 30.8252 85.9038 32.2594 86.4131 33.5249C88.62 33.2718 90.8269 32.5125 92.9489 31.5001C92.2698 30.0659 91.5908 28.8004 90.8269 27.6193C90.6571 27.3662 90.742 27.1131 90.9117 26.86C92.2698 25.257 93.1186 23.9072 93.6279 22.5573C93.7128 22.3042 93.9674 22.1355 94.1372 22.1355C95.7499 21.9668 97.2778 22.0511 98.7207 22.1355H98.8056C99.3998 20.3638 99.7393 18.4234 99.6544 16.3986C97.787 15.7237 96.0894 15.4706 94.7313 15.3862C94.4767 15.3862 94.2221 15.2175 94.1372 14.9644C93.6279 13.5302 93.0337 12.0116 92.4396 10.6617C92.3547 10.493 92.3547 10.2399 92.5245 10.0712C93.2035 9.05879 93.7977 8.21513 94.4767 7.2871C94.8162 6.86527 95.0709 6.35908 95.4104 5.93725C95.4104 5.93725 95.3255 5.93725 95.3255 5.85288C94.9011 5.43105 94.4767 5.09359 93.9674 4.67176C92.4396 3.40627 90.8269 2.30952 89.1293 1.46586C88.1956 2.90008 87.4317 4.3343 86.7526 5.76852C86.6677 6.02162 86.4131 6.10598 86.0736 6.10598C84.2062 5.93725 82.254 6.02161 80.3866 6.27471C80.0471 6.35908 79.7924 6.19035 79.7075 5.85288C79.1134 4.41866 78.4343 2.98444 77.6704 1.63459C75.4635 2.64698 73.5962 3.74374 72.0683 5.09359C72.8322 6.44345 73.7659 7.62457 74.5298 8.63696C74.6996 8.89006 74.6996 9.14315 74.5298 9.39625C73.4264 11.0836 72.4078 12.6865 71.6439 14.3738C71.4742 14.6269 71.2195 14.7957 70.88 14.7113C69.0975 14.2895 67.4848 13.8676 65.7872 13.4458C64.9384 16.1455 64.7686 18.5921 65.193 20.7857C66.2965 20.6169 67.315 20.4482 68.3336 20.1951C68.8429 20.1107 69.3522 19.942 69.8614 19.8576C70.201 19.7733 70.4556 19.942 70.5405 20.2794C71.3893 22.3042 72.323 23.9072 73.4264 25.257C73.5962 25.5101 73.5962 25.7632 73.5113 26.0163C72.5776 27.4506 71.7288 28.6317 70.9649 29.7284C72.2381 31.247 73.9357 32.4281 75.8031 33.1874C75.9728 32.85 76.1426 32.5125 76.3123 32.175C76.8216 31.247 77.3309 30.319 77.8402 29.391C77.9251 29.1379 78.1797 29.0535 78.4343 29.0535C80.1319 29.2222 81.9144 29.3066 83.612 29.1379C83.7818 29.2222 83.8667 29.2222 83.8667 29.2222Z" fill="#2B2C54"/>
<path d="M81.4803 20.87C80.8012 20.87 80.0373 20.7013 79.4431 20.4482C78.849 20.1951 78.4246 19.8576 78.1699 19.5202C77.8304 19.014 77.6607 18.3391 77.6607 17.9172C77.4909 16.2299 77.9153 14.7113 78.849 13.6146C79.9524 12.2647 81.7349 11.6741 83.1779 12.1803C83.2627 12.1803 83.3476 12.2647 83.4325 12.3491C85.0452 12.8553 86.1487 14.3739 86.2335 16.0612C86.3184 17.6641 85.4696 19.2671 84.0267 20.1951C83.3476 20.6169 82.4139 20.87 81.4803 20.87ZM82.1593 13.2771C81.3105 13.2771 80.4617 13.6989 79.8675 14.3739C79.1885 15.2175 78.849 16.3986 79.0187 17.7485C79.0187 18.086 79.1036 18.4234 79.2734 18.7609C79.4431 18.9296 79.6129 19.0983 79.9524 19.2671C81.0559 19.7733 82.4139 19.6889 83.4325 19.0983C84.4511 18.5078 85.1301 17.3267 85.0452 16.1455C84.9604 14.9644 84.1964 13.8677 83.093 13.5302H83.0081C82.9232 13.5302 82.7535 13.4458 82.5837 13.3615C82.4139 13.2771 82.2442 13.2771 82.1593 13.2771Z" fill="#2B2C54"/>
<path d="M127.664 80.348C125.796 77.3952 125.033 73.6831 125.966 70.3928C126.73 67.5244 128.597 65.0777 130.889 62.9686C128.258 59.0034 125.287 55.2069 122.062 51.6636C121.807 51.3261 121.468 51.073 121.128 50.8199C120.619 50.3981 119.855 50.145 119.176 49.7231C116.29 52.8447 111.961 54.6164 107.547 54.532C101.86 53.8571 96.8523 49.7231 94.9 44.3237C89.4677 45.1674 84.0354 46.7703 79.0274 48.8795C80.046 50.5668 80.3006 52.676 80.3006 54.7007C80.3006 56.8943 79.8762 59.0878 78.9425 61.0282C78.0089 62.9686 76.3961 64.6559 74.4439 65.4996C73.2556 66.0058 72.0672 66.1745 70.794 66.3432C68.5872 66.512 66.4651 66.512 64.2583 66.3432C64.2583 66.3432 60.0991 81.6135 60.6084 81.6135C61.9665 81.9509 63.3246 82.2884 64.5978 82.7102C66.0407 83.132 67.5686 83.6382 68.8418 84.4819C70.115 85.3256 71.2184 86.5067 71.558 88.0253C71.8126 89.0377 71.7277 90.0501 71.558 91.0625C70.9638 94.6902 69.0116 98.0648 66.2954 100.511C66.2954 100.511 76.5659 110.635 76.7357 110.551C77.924 108.864 79.7913 107.851 81.6587 106.839C82.4226 106.417 83.1866 106.08 84.0354 105.742C87.091 104.814 90.5711 105.742 92.8629 107.936C95.1547 110.045 96.4279 113.251 96.5976 116.457C100.247 116.288 103.897 115.95 107.462 115.613C109.075 115.444 110.688 115.275 112.131 114.094C112.046 110.888 112.725 107.683 114.083 104.814C114.762 103.38 115.611 102.114 116.799 101.102C118.582 99.5834 120.958 98.9928 123.335 99.1616C125.627 99.3303 127.918 100.09 130.125 100.933C132.502 96.4619 134.879 91.9061 135.643 86.7598C132.587 85.4943 129.616 83.3008 127.664 80.348ZM110.178 81.3604C109.924 83.4695 108.99 85.4099 107.632 87.0129C106.953 87.8565 106.189 88.5315 105.34 89.122C104.491 89.7126 103.473 90.3032 102.454 90.5562C101.351 90.8093 100.163 90.725 99.0592 90.725C97.8708 90.725 96.6825 90.725 95.5791 90.3032C94.5605 89.9657 93.6268 89.2908 92.778 88.4471C92.0141 87.6878 91.0804 87.0129 90.4863 86.0849C88.3642 82.3728 88.9584 77.3952 91.5048 74.0205C92.8629 72.1645 94.8152 70.8146 96.7674 69.8022C98.8894 68.7055 101.436 68.2837 103.812 68.9586C104.576 69.1273 104.746 69.8022 104.661 70.3928C108.736 72.3332 110.688 77.0577 110.178 81.3604Z" fill="#D4CAFB"/>
<path d="M109.925 66.3432C106.615 64.1496 102.371 63.3903 99.1457 63.7278C93.5436 64.3184 89.4693 67.1868 86.4985 71.9113C83.6126 76.6358 83.1033 82.8789 85.3951 87.9408C87.6868 93.0028 92.7796 96.7992 98.2969 97.4742C102.965 98.0647 107.803 96.4618 111.368 93.4246C114.933 90.3874 116.376 85.916 116.801 81.1916C117.055 78.8293 116.122 70.3927 109.925 66.3432ZM103.644 90.7249C99.1457 92.2435 93.7982 90.5562 90.9972 86.7597C90.1484 85.663 89.5542 84.3975 89.2996 82.9632C89.0449 81.6134 89.2147 80.1792 89.5542 78.8293C90.403 75.539 92.2704 72.4175 95.0714 70.5615C97.8725 68.7054 101.777 68.1992 104.748 69.8022C108.482 71.7426 110.859 75.7921 111.029 79.8417C111.284 84.5662 108.058 89.2063 103.644 90.7249Z" fill="#9981F5"/>
<g opacity="0.1294">
<path d="M117.905 79.4198C117.735 78.8293 117.565 78.3231 117.31 77.7325C116.971 76.7201 116.547 75.7077 116.207 74.611C116.122 74.611 116.037 74.611 116.037 74.611C114.849 75.1172 115.528 75.9608 115.528 76.9732C115.613 77.9856 115.867 78.998 116.037 80.0104C116.207 81.0228 116.207 82.0352 116.122 83.1319V83.2163C115.952 83.8068 115.698 84.313 115.528 84.9036C114.849 87.2658 114.594 88.0251 113.236 89.8812C113.151 89.9655 113.066 90.1343 112.897 90.303C112.812 90.4717 112.387 90.9779 112.302 91.1467C112.302 91.231 112.218 91.231 112.218 91.231C112.133 91.3154 112.133 91.3998 112.048 91.4841C111.878 91.7372 111.029 92.5809 111.029 92.5809C109.841 93.5089 110.011 93.4246 108.738 94.3526C107.804 94.9431 106.785 95.5337 105.767 95.9555C104.494 96.4617 102.966 97.221 101.013 97.3054C99.4856 97.3054 97.9577 97.3054 96.5148 97.1367C94.223 96.7148 93.6289 96.293 91.6766 95.1962C91.0825 94.8588 90.4883 94.0995 89.7244 94.2682C90.2336 94.8588 90.8278 95.4493 91.3371 95.9555C92.0161 96.7148 92.78 97.3897 93.4591 98.0647C95.7509 98.9927 98.2973 99.4989 100.759 99.3302C102.202 99.2458 103.56 99.2458 104.918 98.824C107.295 98.2334 109.586 96.9679 111.539 95.4493C112.982 94.1838 114.509 93.0027 115.698 91.4841C117.395 88.7844 118.159 85.5785 118.159 83.2163C118.159 82.457 118.074 80.9384 117.905 79.4198Z" fill="#2B2C54"/>
</g>
<g opacity="0.1294">
<path d="M136.41 86.9284C136.24 86.1691 135.137 86.0847 134.797 86.7596C133.185 89.5437 131.572 92.3278 129.959 95.0275C129.28 96.1243 128.346 97.1367 127.837 98.3178C127.667 98.6552 127.413 98.9083 127.413 99.2458C127.243 100.258 128.431 101.102 129.365 100.511C129.705 100.343 129.874 100.005 130.044 99.6676C130.214 99.4989 130.299 99.3302 130.469 99.1614C132.081 96.7992 132.93 94.0151 134.288 91.4841C134.967 90.1343 135.646 88.8688 136.325 87.5189C136.41 87.4346 136.41 87.1815 136.41 86.9284Z" fill="#2B2C54"/>
</g>
<g opacity="0.1294">
<path d="M110.437 111.394C109.758 111.226 109.164 111.563 108.57 111.648C104.496 112.744 101.695 112.829 97.0263 112.66C94.9043 112.744 94.9043 115.782 97.0263 115.866C100.591 115.95 104.241 116.035 107.721 115.107C108.57 114.938 109.334 114.769 110.183 114.516C110.692 114.432 111.201 114.179 111.456 113.672C111.88 112.913 111.371 111.648 110.437 111.394Z" fill="#2B2C54"/>
</g>
<path d="M96.4275 116.71C96.088 116.71 95.8334 116.457 95.7485 116.119C95.5787 113.082 94.2207 110.129 91.9289 108.02C90.9952 107.176 89.5522 106.08 87.7698 105.911C86.2419 105.742 84.7141 106.248 83.2711 106.839C80.9793 107.682 78.6876 108.779 77.2446 110.973C77.1597 111.141 76.99 111.226 76.8202 111.226C76.6505 111.226 76.4807 111.226 76.3109 111.141C71.8972 107.767 68.4171 104.477 65.7009 100.933C65.4463 100.68 65.5311 100.258 65.7858 100.005C68.502 97.8117 70.3693 94.6058 70.9635 91.2311C71.2181 89.8813 71.2181 88.8689 70.8786 88.0252C70.3693 86.5066 69.0112 85.1568 66.6346 84.06C64.5126 83.0476 62.2208 82.3727 59.7593 81.9509C59.5895 81.9509 59.4198 81.8665 59.3349 81.6978C59.25 81.529 59.1651 81.3603 59.25 81.1916C60.0988 76.0453 61.6267 70.8146 63.6638 65.6683C63.8335 65.3308 64.1731 65.1621 64.5126 65.3308C67.3136 66.3432 74.1889 66.4275 76.99 63.0529C81.6584 57.4848 79.4515 51.1573 78.6876 49.3856C78.5178 49.0482 78.6876 48.7107 79.0271 48.542C81.6584 47.2765 86.157 46.011 90.8255 44.6611C92.2684 44.2393 93.7963 43.8175 95.2392 43.3956C95.4939 43.3113 95.7485 43.3956 95.9183 43.5644C96.088 43.7331 96.1729 43.9862 96.088 44.1549C95.8334 45.1673 98.3798 49.9762 102.369 52.0853C111.536 56.8098 117.393 50.9042 119.006 48.9638C119.091 48.7951 119.26 48.7107 119.515 48.7107C119.685 48.7107 119.854 48.7951 120.024 48.8794C124.523 53.4352 128.343 57.9066 131.738 62.6311C131.907 62.8842 131.907 63.306 131.568 63.5591C127.663 66.3432 125.626 71.5739 126.645 76.214C127.663 80.8541 131.653 84.8193 136.491 86.0848C136.661 86.1692 136.831 86.2535 136.915 86.4223C137 86.591 137 86.7597 137 86.9285C135.472 92.1591 133.181 97.3055 130.549 101.692C130.38 101.946 130.04 102.114 129.701 101.946C126.136 100.427 122.74 99.1615 119.6 100.258C117.308 101.018 115.356 103.127 114.337 105.911C113.573 108.02 113.234 110.382 112.979 112.829C112.894 113.335 112.894 113.841 112.809 114.432C112.809 114.685 112.555 114.938 112.3 115.022C106.698 116.035 101.52 116.625 96.4275 116.71ZM87.2605 104.645C87.5151 104.645 87.6849 104.645 87.9395 104.645C89.6371 104.814 91.3347 105.658 92.8626 107.092C95.1543 109.285 96.6822 112.238 97.0217 115.444C101.775 115.275 106.528 114.685 111.536 113.672C111.621 113.335 111.621 112.913 111.621 112.576C111.876 110.045 112.13 107.682 113.064 105.405C114.252 102.283 116.459 99.9208 119.175 98.9928C122.571 97.8117 126.221 99.0772 129.701 100.511C132.077 96.4618 134.114 91.8217 135.557 87.0972C130.465 85.5786 126.475 81.3603 125.372 76.4671C124.268 71.4895 126.305 66.0057 130.295 62.8842C127.154 58.5815 123.674 54.4476 119.6 50.3137C117.563 52.5072 111.282 57.9909 101.86 53.1821C98.21 51.326 95.3241 47.1921 94.8997 44.8299C93.7114 45.1673 92.4382 45.5048 91.2499 45.9266C86.921 47.1921 82.8467 48.3732 80.2154 49.5544C81.1491 52.0853 82.8467 58.4128 78.0934 63.9809C75.0377 67.6087 68.1624 67.693 64.7672 66.8494C62.9847 71.4895 61.6266 76.214 60.7778 80.9385C63.1545 81.3603 65.3614 82.0352 67.3985 83.0476C70.1147 84.3131 71.7274 85.9161 72.3216 87.7721C72.6611 88.8689 72.6611 90.05 72.4064 91.653C71.7274 95.112 69.86 98.4022 67.2287 100.849C69.6903 103.97 72.8308 106.923 76.6504 109.876C78.2632 107.767 80.5549 106.67 82.8467 105.826C84.1199 105.152 85.6478 104.645 87.2605 104.645Z" fill="#2B2C54"/>
<path d="M99.6549 91.9061C95.9202 91.9061 92.1855 90.1344 89.9786 87.0972C89.0449 85.8317 88.4507 84.3975 88.1961 83.0477C87.9414 81.7822 88.1112 80.3479 88.4507 78.6606C89.3844 75.0329 91.5064 71.827 94.2226 70.0553C97.3632 67.9461 101.437 67.693 104.578 69.2116C108.398 71.1521 110.944 75.3704 111.199 79.8417C111.368 84.735 107.973 89.7126 103.305 91.2311C102.116 91.7373 100.928 91.9061 99.6549 91.9061ZM100.249 69.5491C98.4666 69.5491 96.5992 70.0553 94.9016 71.1521C92.3552 72.8394 90.4879 75.6234 89.6391 78.9981C89.2995 80.4323 89.2146 81.6978 89.3844 82.8789C89.5542 84.06 90.1483 85.2412 90.9123 86.3379C93.5435 89.8813 98.6364 91.4842 102.795 90.05C106.955 88.6158 110.01 84.2288 109.841 79.9261C109.671 75.8765 107.379 72.1644 103.899 70.3928C102.88 69.8022 101.607 69.5491 100.249 69.5491Z" fill="#2B2C54"/>
<path d="M99.741 98.1491C99.062 98.1491 98.4678 98.1491 97.7888 98.0648C92.0169 97.3898 86.7543 93.509 84.3777 88.1096C82.001 82.8789 82.4254 76.4671 85.4811 71.4895C88.5368 66.4276 92.9506 63.6435 98.5527 62.9686C102.203 62.5467 106.616 63.6435 109.757 65.7526C116.462 70.1397 117.141 79.1668 116.972 81.1916C116.378 86.8441 114.595 90.978 111.285 93.8465C108.059 96.6305 103.815 98.1491 99.741 98.1491ZM98.7224 64.3184C93.4599 64.909 89.4705 67.4399 86.5846 72.1644C83.6986 76.8046 83.3591 82.7102 85.566 87.6034C87.7729 92.4966 92.6959 96.1243 97.9585 96.7993C102.372 97.3055 107.041 95.8713 110.521 92.8341C113.492 90.2187 115.189 86.4223 115.698 81.0229C115.953 78.4919 114.85 70.5615 109.078 66.765C106.107 64.9933 102.033 63.9809 98.7224 64.3184Z" fill="#2B2C54"/>
<path d="M109.925 66.3432C106.615 64.1496 102.371 63.3903 99.1457 63.7278C93.5436 64.3184 89.4693 67.1868 86.4985 71.9113C83.6126 76.6358 83.1033 82.8789 85.3951 87.9408C87.6868 93.0028 92.7796 96.7992 98.2969 97.4742C102.965 98.0647 107.803 96.4618 111.368 93.4246C114.933 90.3874 116.376 85.916 116.801 81.1916C117.055 78.8293 116.122 70.3927 109.925 66.3432ZM103.644 90.7249C99.1457 92.2435 93.7982 90.5562 90.9972 86.7597C90.1484 85.663 89.5542 84.3975 89.2996 82.9632C89.0449 81.6134 89.2147 80.1792 89.5542 78.8293C90.403 75.539 92.2704 72.4175 95.0714 70.5615C97.8725 68.7054 101.777 68.1992 104.748 69.8022C108.482 71.7426 110.859 75.7921 111.029 79.8417C111.284 84.5662 108.058 89.2063 103.644 90.7249Z" fill="#9981F5"/>
<g opacity="0.1294">
<path d="M117.905 79.4198C117.735 78.8293 117.565 78.3231 117.31 77.7325C116.971 76.7201 116.547 75.7077 116.207 74.611C116.122 74.611 116.037 74.611 116.037 74.611C114.849 75.1172 115.528 75.9608 115.528 76.9732C115.613 77.9856 115.867 78.998 116.037 80.0104C116.207 81.0228 116.207 82.0352 116.122 83.1319V83.2163C115.952 83.8068 115.698 84.313 115.528 84.9036C114.849 87.2658 114.594 88.0251 113.236 89.8812C113.151 89.9655 113.066 90.1343 112.897 90.303C112.812 90.4717 112.387 90.9779 112.302 91.1467C112.302 91.231 112.218 91.231 112.218 91.231C112.133 91.3154 112.133 91.3998 112.048 91.4841C111.878 91.7372 111.029 92.5809 111.029 92.5809C109.841 93.5089 110.011 93.4246 108.738 94.3526C107.804 94.9431 106.785 95.5337 105.767 95.9555C104.494 96.4617 102.966 97.221 101.013 97.3054C99.4856 97.3054 97.9577 97.3054 96.5148 97.1367C94.223 96.7148 93.6289 96.293 91.6766 95.1962C91.0825 94.8588 90.4883 94.0995 89.7244 94.2682C90.2336 94.8588 90.8278 95.4493 91.3371 95.9555C92.0161 96.7148 92.78 97.3897 93.4591 98.0647C95.7509 98.9927 98.2973 99.4989 100.759 99.3302C102.202 99.2458 103.56 99.2458 104.918 98.824C107.295 98.2334 109.586 96.9679 111.539 95.4493C112.982 94.1838 114.509 93.0027 115.698 91.4841C117.395 88.7844 118.159 85.5785 118.159 83.2163C118.159 82.457 118.074 80.9384 117.905 79.4198Z" fill="#2B2C54"/>
</g>
<g opacity="0.1294">
<path d="M136.41 86.9284C136.24 86.1691 135.137 86.0847 134.797 86.7596C133.185 89.5437 131.572 92.3278 129.959 95.0275C129.28 96.1243 128.346 97.1367 127.837 98.3178C127.667 98.6552 127.413 98.9083 127.413 99.2458C127.243 100.258 128.431 101.102 129.365 100.511C129.705 100.343 129.874 100.005 130.044 99.6676C130.214 99.4989 130.299 99.3302 130.469 99.1614C132.081 96.7992 132.93 94.0151 134.288 91.4841C134.967 90.1343 135.646 88.8688 136.325 87.5189C136.41 87.4346 136.41 87.1815 136.41 86.9284Z" fill="#2B2C54"/>
</g>
<g opacity="0.1294">
<path d="M110.437 111.394C109.758 111.226 109.164 111.563 108.57 111.648C104.496 112.744 101.695 112.829 97.0263 112.66C94.9043 112.744 94.9043 115.782 97.0263 115.866C100.591 115.95 104.241 116.035 107.721 115.107C108.57 114.938 109.334 114.769 110.183 114.516C110.692 114.432 111.201 114.179 111.456 113.672C111.88 112.913 111.371 111.648 110.437 111.394Z" fill="#2B2C54"/>
</g>
<path d="M96.4275 116.71C96.088 116.71 95.8334 116.457 95.7485 116.119C95.5787 113.082 94.2207 110.129 91.9289 108.02C90.9952 107.176 89.5522 106.08 87.7698 105.911C86.2419 105.742 84.7141 106.248 83.2711 106.839C80.9793 107.682 78.6876 108.779 77.2446 110.973C77.1597 111.141 76.99 111.226 76.8202 111.226C76.6505 111.226 76.4807 111.226 76.3109 111.141C71.8972 107.767 68.4171 104.477 65.7009 100.933C65.4463 100.68 65.5311 100.258 65.7858 100.005C68.502 97.8117 70.3693 94.6058 70.9635 91.2311C71.2181 89.8813 71.2181 88.8689 70.8786 88.0252C70.3693 86.5066 69.0112 85.1568 66.6346 84.06C64.5126 83.0476 62.2208 82.3727 59.7593 81.9509C59.5895 81.9509 59.4198 81.8665 59.3349 81.6978C59.25 81.529 59.1651 81.3603 59.25 81.1916C60.0988 76.0453 61.6267 70.8146 63.6638 65.6683C63.8335 65.3308 64.1731 65.1621 64.5126 65.3308C67.3136 66.3432 74.1889 66.4275 76.99 63.0529C81.6584 57.4848 79.4515 51.1573 78.6876 49.3856C78.5178 49.0482 78.6876 48.7107 79.0271 48.542C81.6584 47.2765 86.157 46.011 90.8255 44.6611C92.2684 44.2393 93.7963 43.8175 95.2392 43.3956C95.4939 43.3113 95.7485 43.3956 95.9183 43.5644C96.088 43.7331 96.1729 43.9862 96.088 44.1549C95.8334 45.1673 98.3798 49.9762 102.369 52.0853C111.536 56.8098 117.393 50.9042 119.006 48.9638C119.091 48.7951 119.26 48.7107 119.515 48.7107C119.685 48.7107 119.854 48.7951 120.024 48.8794C124.523 53.4352 128.343 57.9066 131.738 62.6311C131.907 62.8842 131.907 63.306 131.568 63.5591C127.663 66.3432 125.626 71.5739 126.645 76.214C127.663 80.8541 131.653 84.8193 136.491 86.0848C136.661 86.1692 136.831 86.2535 136.915 86.4223C137 86.591 137 86.7597 137 86.9285C135.472 92.1591 133.181 97.3055 130.549 101.692C130.38 101.946 130.04 102.114 129.701 101.946C126.136 100.427 122.74 99.1615 119.6 100.258C117.308 101.018 115.356 103.127 114.337 105.911C113.573 108.02 113.234 110.382 112.979 112.829C112.894 113.335 112.894 113.841 112.809 114.432C112.809 114.685 112.555 114.938 112.3 115.022C106.698 116.035 101.52 116.625 96.4275 116.71ZM87.2605 104.645C87.5151 104.645 87.6849 104.645 87.9395 104.645C89.6371 104.814 91.3347 105.658 92.8626 107.092C95.1543 109.285 96.6822 112.238 97.0217 115.444C101.775 115.275 106.528 114.685 111.536 113.672C111.621 113.335 111.621 112.913 111.621 112.576C111.876 110.045 112.13 107.682 113.064 105.405C114.252 102.283 116.459 99.9208 119.175 98.9928C122.571 97.8117 126.221 99.0772 129.701 100.511C132.077 96.4618 134.114 91.8217 135.557 87.0972C130.465 85.5786 126.475 81.3603 125.372 76.4671C124.268 71.4895 126.305 66.0057 130.295 62.8842C127.154 58.5815 123.674 54.4476 119.6 50.3137C117.563 52.5072 111.282 57.9909 101.86 53.1821C98.21 51.326 95.3241 47.1921 94.8997 44.8299C93.7114 45.1673 92.4382 45.5048 91.2499 45.9266C86.921 47.1921 82.8467 48.3732 80.2154 49.5544C81.1491 52.0853 82.8467 58.4128 78.0934 63.9809C75.0377 67.6087 68.1624 67.693 64.7672 66.8494C62.9847 71.4895 61.6266 76.214 60.7778 80.9385C63.1545 81.3603 65.3614 82.0352 67.3985 83.0476C70.1147 84.3131 71.7274 85.9161 72.3216 87.7721C72.6611 88.8689 72.6611 90.05 72.4064 91.653C71.7274 95.112 69.86 98.4022 67.2287 100.849C69.6903 103.97 72.8308 106.923 76.6504 109.876C78.2632 107.767 80.5549 106.67 82.8467 105.826C84.1199 105.152 85.6478 104.645 87.2605 104.645Z" fill="#2B2C54"/>
<path d="M99.6549 91.9061C95.9202 91.9061 92.1855 90.1344 89.9786 87.0972C89.0449 85.8317 88.4507 84.3975 88.1961 83.0477C87.9414 81.7822 88.1112 80.3479 88.4507 78.6606C89.3844 75.0329 91.5064 71.827 94.2226 70.0553C97.3632 67.9461 101.437 67.693 104.578 69.2116C108.398 71.1521 110.944 75.3704 111.199 79.8417C111.368 84.735 107.973 89.7126 103.305 91.2311C102.116 91.7373 100.928 91.9061 99.6549 91.9061ZM100.249 69.5491C98.4666 69.5491 96.5992 70.0553 94.9016 71.1521C92.3552 72.8394 90.4879 75.6234 89.6391 78.9981C89.2995 80.4323 89.2146 81.6978 89.3844 82.8789C89.5542 84.06 90.1483 85.2412 90.9123 86.3379C93.5435 89.8813 98.6364 91.4842 102.795 90.05C106.955 88.6158 110.01 84.2288 109.841 79.9261C109.671 75.8765 107.379 72.1644 103.899 70.3928C102.88 69.8022 101.607 69.5491 100.249 69.5491Z" fill="#2B2C54"/>
<path d="M99.741 98.1491C99.062 98.1491 98.4678 98.1491 97.7888 98.0648C92.0169 97.3898 86.7543 93.509 84.3777 88.1096C82.001 82.8789 82.4254 76.4671 85.4811 71.4895C88.5368 66.4276 92.9506 63.6435 98.5527 62.9686C102.203 62.5467 106.616 63.6435 109.757 65.7526C116.462 70.1397 117.141 79.1668 116.972 81.1916C116.378 86.8441 114.595 90.978 111.285 93.8465C108.059 96.6305 103.815 98.1491 99.741 98.1491ZM98.7224 64.3184C93.4599 64.909 89.4705 67.4399 86.5846 72.1644C83.6986 76.8046 83.3591 82.7102 85.566 87.6034C87.7729 92.4966 92.6959 96.1243 97.9585 96.7993C102.372 97.3055 107.041 95.8713 110.521 92.8341C113.492 90.2187 115.189 86.4223 115.698 81.0229C115.953 78.4919 114.85 70.5615 109.078 66.765C106.107 64.9933 102.033 63.9809 98.7224 64.3184Z" fill="#2B2C54"/>
<path d="M131.816 36.8997C131.392 36.8997 131.137 36.5622 131.137 36.2248C131.732 30.5722 130.798 24.8354 128.336 19.6047C128.167 19.2672 128.336 18.9298 128.676 18.761C129.015 18.5923 129.355 18.761 129.525 19.0985C132.071 24.4979 133.005 30.4879 132.411 36.3091C132.496 36.6466 132.156 36.8997 131.816 36.8997Z" fill="#2B2C54"/>
<path d="M41.8479 120H41.7631C35.2273 118.735 29.031 115.36 24.3626 110.635C24.108 110.382 24.108 109.96 24.3626 109.707C24.6173 109.454 25.0417 109.454 25.2963 109.707C29.7949 114.263 35.7366 117.469 42.0177 118.735C42.3572 118.819 42.6119 119.156 42.527 119.494C42.3572 119.747 42.1026 120 41.8479 120Z" fill="#2B2C54"/>
</svg>
