<svg width="162" height="120" viewBox="0 0 162 120" fill="none" xmlns="http://www.w3.org/2000/svg">
<path d="M26.9701 40.8046C22.2008 53.9477 17.4315 67.1694 14.252 81.0208C16.7161 81.8078 19.2597 82.3587 21.8828 82.4374C22.8367 79.0532 23.8701 75.6691 24.8239 72.285C24.8239 72.285 24.6649 72.2063 24.506 72.1276C26.4932 72.5211 28.2419 73.5442 29.7522 74.8821C31.2625 76.22 32.4548 77.7153 33.8856 79.5255C33.7266 81.4143 35.1574 83.3031 36.9856 83.9327C38.8139 84.5623 40.8806 84.1688 42.6293 83.067C42.4704 83.9327 42.4704 84.7984 42.6293 85.5854C42.7088 85.9789 42.7883 86.2937 42.9473 86.6085C43.3447 87.3169 43.9806 87.7891 44.696 88.1826C45.8884 88.8122 47.3191 88.9696 48.7499 88.7335C48.591 90.3075 49.7833 91.8815 51.3731 92.4324C52.8833 92.9833 54.6321 92.7472 56.2219 92.1176C56.4603 92.6685 56.6988 93.2194 57.1757 93.6129C57.6526 94.0851 58.368 94.2425 59.0834 94.3212C60.7527 94.4786 62.422 94.0851 63.9322 93.1407C65.6015 94.0064 67.7477 94.0851 69.4169 93.2194C69.8939 92.9833 70.2913 92.7472 70.6093 92.3537C71.3247 91.6454 71.6426 90.6223 71.6426 89.5992C71.7221 88.5761 71.5631 87.6317 71.4836 86.6085C72.358 87.553 73.2324 88.5761 74.3452 89.2057C75.4581 89.914 76.8094 90.2288 78.0812 89.914C79.1145 89.5992 79.9889 88.8909 80.5453 88.0252C81.1017 87.1594 81.4197 86.0576 81.4992 84.8771C81.8966 85.5854 82.3736 86.215 82.8505 86.8446C83.3274 87.3955 83.8044 88.0252 84.4403 88.4187C85.0762 88.8122 85.7916 89.127 86.5864 89.0483C87.7788 88.8909 88.6531 88.0252 89.1301 86.9233C89.607 85.9002 89.6865 84.7197 89.766 83.5392C89.766 82.9096 89.8455 82.2013 89.8455 81.493C90.4814 82.5948 91.0378 83.7753 91.9122 84.7984C92.7071 85.8215 93.7404 86.6872 95.0122 87.0807C95.3302 87.1594 95.6481 87.2381 95.9661 87.3168C96.443 87.4743 97.0789 87.5529 97.4764 87.2381C97.7943 87.002 97.9533 86.5298 98.0328 86.1363C98.1123 85.7428 98.0328 85.2706 98.2712 84.8771C102.961 83.1457 107.492 81.1782 111.943 79.132C112.42 80.7847 112.897 82.3587 113.533 83.9327C116.872 83.1457 120.051 81.9652 123.072 80.4699C125.695 79.4467 128.318 78.3449 130.623 76.9283C130.226 63.864 128 50.6422 121.959 39.0732C121.561 38.3649 121.164 37.5779 120.608 37.027C114.01 39.3093 107.571 42.0638 101.371 45.2906C101.53 45.6054 101.689 45.9202 101.689 46.3137C95.2507 46.7859 89.0506 44.661 82.93 42.536C81.0222 41.8277 79.035 41.1981 77.0478 41.0407C75.2196 40.8833 73.4708 41.1981 71.4041 41.4342C69.258 40.175 66.8733 39.3093 64.4092 38.6797C62.9784 38.2862 61.4681 37.8927 59.9578 37.9714C58.6065 37.9714 57.1757 38.2862 55.9039 38.6797C48.7499 40.7259 41.9934 44.5823 34.601 45.2906C34.6805 44.8184 34.6805 44.2674 34.76 43.7952C34.76 43.5591 34.8395 43.2443 34.6805 43.0082C31.8984 42.0638 29.4342 41.1194 26.9701 40.8046Z" fill="#D4CAFB"/>
<path d="M126.805 76.6922C126.726 76.6922 126.726 76.6922 126.805 76.6922L120.128 74.2524C120.049 74.2524 119.969 74.095 120.049 74.0163C120.049 73.9376 120.208 73.8589 120.287 73.9376L126.885 76.3774C126.964 76.3774 127.044 76.5348 126.964 76.6135C126.964 76.6922 126.885 76.6922 126.805 76.6922Z" fill="#2B2C54"/>
<path d="M128.953 74.2525C125.296 72.9933 121.719 71.5767 118.222 70.0027C118.142 69.924 118.063 69.8453 118.142 69.7666C118.222 69.6879 118.301 69.6092 118.381 69.6879C121.799 71.3406 125.376 72.7572 128.953 73.9377C129.032 73.9377 129.112 74.0951 129.112 74.1738C129.191 74.2525 129.112 74.2525 128.953 74.2525Z" fill="#2B2C54"/>
<path d="M129.59 70.4749C129.51 70.4749 129.51 70.4749 129.59 70.4749C125.536 69.137 121.482 67.6416 117.587 66.0676C117.508 65.9889 117.428 65.9102 117.508 65.8315C117.587 65.7528 117.667 65.6741 117.746 65.7528C121.641 67.4055 125.615 68.8221 129.669 70.16C129.749 70.16 129.828 70.3175 129.828 70.3962C129.749 70.3962 129.669 70.4749 129.59 70.4749Z" fill="#2B2C54"/>
<path d="M129.584 66.776C129.504 66.776 129.504 66.776 129.584 66.776C124.815 65.0446 121.238 63.5492 116.23 61.4243C116.15 61.3456 116.071 61.2669 116.15 61.1882C116.23 61.1095 116.309 61.0308 116.389 61.1095C121.397 63.1557 124.974 64.6511 129.663 66.4612C129.743 66.4612 129.822 66.6186 129.743 66.6973C129.743 66.6973 129.663 66.776 129.584 66.776Z" fill="#2B2C54"/>
<path d="M128.397 62.6048L114.884 57.1744C114.804 57.0957 114.725 57.017 114.804 56.9383C114.884 56.8596 114.963 56.7809 115.043 56.8596L128.476 62.29C128.556 62.3687 128.635 62.4474 128.556 62.5261C128.556 62.5261 128.476 62.6048 128.397 62.6048Z" fill="#2B2C54"/>
<path d="M127.916 58.6697H127.837L113.29 52.2949C113.211 52.2162 113.131 52.1375 113.211 52.0588C113.29 51.9801 113.37 51.9014 113.449 51.9801L127.996 58.3549C128.075 58.4336 128.154 58.5123 128.075 58.591C128.075 58.591 127.996 58.6697 127.916 58.6697Z" fill="#2B2C54"/>
<path d="M126.565 53.6329H126.485L111.78 47.1007C111.701 47.022 111.621 46.9433 111.701 46.8646C111.78 46.7859 111.86 46.7072 111.939 46.7859L126.644 53.3181C126.724 53.3968 126.803 53.4755 126.724 53.5542C126.644 53.6329 126.644 53.6329 126.565 53.6329Z" fill="#2B2C54"/>
<path d="M123.229 47.1007C119.493 45.6841 115.757 44.3462 112.101 43.087C112.021 43.087 111.942 42.9296 111.942 42.8509C111.942 42.7722 112.101 42.6935 112.18 42.6935C115.916 43.9527 119.573 45.2906 123.229 46.7072C123.309 46.7859 123.388 46.8646 123.309 46.9433C123.388 47.022 123.309 47.1007 123.229 47.1007Z" fill="#2B2C54"/>
<path d="M122.913 42.5361L117.587 40.3325C117.508 40.2538 117.428 40.1751 117.508 40.0964C117.587 40.0177 117.667 39.939 117.746 40.0177L122.992 42.2213C123.072 42.3 123.151 42.3787 123.072 42.4574C123.072 42.4574 122.992 42.5361 122.913 42.5361Z" fill="#2B2C54"/>
<path d="M11.7868 36.0039C16.9535 37.7353 22.1998 39.3093 27.2075 40.8047C26.4127 44.1888 24.2665 47.1795 22.8357 50.4062C22.1203 52.1376 21.5639 53.869 21.0074 55.6791C18.4638 64.0214 15.9997 72.4424 13.615 80.8634C9.00467 79.2894 5.4277 78.5024 0.419922 77.6367C4.95076 63.5492 9.08417 50.0127 11.7868 36.0039Z" fill="#9981F5"/>
<g opacity="0.1294">
<path d="M109.635 77.5579C108.84 77.794 108.045 78.1088 107.251 78.4236C107.092 78.4236 106.933 78.4236 106.694 78.5023C106.297 78.581 105.899 78.7384 105.581 78.8958C105.184 79.0532 104.786 79.1319 104.389 79.368C104.23 79.4467 103.753 79.6041 103.594 79.6828C103.515 79.6828 103.515 79.6828 103.435 79.7615C103.356 79.7615 103.197 79.8403 103.117 79.8403C103.038 79.8403 102.958 79.8403 102.879 79.8403C102.799 79.8403 102.72 79.8402 102.64 79.7615C102.481 79.6041 102.322 79.4467 102.163 79.2893C102.004 79.0532 102.163 79.2893 102.243 79.4467C102.084 79.2893 102.004 79.1319 101.845 78.9745C101.766 78.8958 101.766 78.8958 101.766 78.8171C101.607 78.6597 101.527 78.4236 101.368 78.2662C100.891 77.4792 100.415 76.6922 99.9376 75.8265C99.0632 74.0951 98.1888 72.2849 97.235 70.5535C96.6786 69.373 96.2016 68.1925 95.4862 67.0907C93.499 64.0214 91.5118 61.6603 88.4912 58.9845C86.5835 57.0957 84.3579 55.443 82.0527 54.105C80.4629 53.2393 78.7937 52.3736 76.9654 52.2162C75.6936 51.9014 75.3757 53.7903 76.727 53.9477C77.9193 54.0264 79.2706 54.5773 80.6219 55.3643C80.4629 55.6791 80.5424 56.0726 80.8604 56.3874C82.1322 57.4892 83.6425 58.3549 84.9938 59.378C84.9143 59.2993 85.7092 59.9289 85.8681 60.0863C86.0271 60.2437 86.1861 60.4011 86.3451 60.5585C86.1861 60.6372 86.1066 60.7946 86.1861 61.0307C86.2656 61.5816 86.9015 62.2112 87.2194 62.7621C88.7297 64.9658 90.399 67.0907 91.6708 69.4517C93.34 72.6785 94.5324 75.9052 95.0888 80.3125C95.4067 81.6504 95.5657 84.1688 95.0888 84.8771C95.0888 84.9558 95.0093 84.9558 94.9298 85.0345C94.9298 85.0345 94.8503 85.0345 94.8503 85.1132C94.7708 85.1132 94.7708 85.1132 94.6913 85.1919H94.6119C94.4529 85.1919 94.3734 85.1919 94.2939 85.1919C94.2144 85.1919 94.2144 85.1919 94.1349 85.1919C93.658 85.0345 93.8965 85.1919 93.1811 84.7984C91.9887 84.1688 91.0349 85.8215 92.1477 86.5298C95.0093 88.576 96.9965 87.8677 97.5529 85.1132C97.8709 83.4605 97.6324 81.7291 97.3145 80.0763C97.394 80.3124 97.4734 80.5485 97.5529 80.8634C97.7119 81.8865 97.8709 82.7522 97.9504 83.6179L97.8709 83.6966C97.5529 84.2475 97.7914 84.7984 98.2683 85.1132C98.5068 85.428 98.9042 85.5854 99.3017 85.5067C99.6196 85.428 99.7786 85.1919 99.8581 84.9558C102.958 83.7753 106.058 82.4374 108.999 80.706C109.715 80.3125 109.715 80.2337 110.271 79.9976C110.589 79.8402 110.907 79.6828 111.066 79.4467C111.225 79.368 111.304 79.2106 111.463 79.0532C111.861 77.6366 110.51 77.0857 109.635 77.5579Z" fill="#2B2C54"/>
</g>
<g opacity="0.1294">
<path d="M129.666 74.3313C129.508 74.3313 129.349 74.41 129.19 74.41C128.474 74.6461 127.838 75.1183 127.123 75.3544C125.851 75.984 125.374 76.0627 123.625 76.8497C120.684 78.4237 115.835 79.9191 113.212 80.9422C111.464 81.4931 112.179 83.9328 113.928 83.5393C116.63 82.6736 119.253 81.4144 121.877 80.3126C123.307 79.683 125.931 78.7385 128.077 77.6367C129.11 77.0858 130.382 76.4562 130.541 76.1414C131.256 75.5118 130.62 74.3313 129.666 74.3313Z" fill="#2B2C54"/>
</g>
<g opacity="0.1294">
<path d="M41.4326 81.9653C40.9557 82.2801 40.3198 82.2014 39.1275 82.2014C38.3326 82.1227 37.2992 82.2014 36.3454 81.8866C35.7095 81.7292 35.153 81.257 34.5966 81.3357C33.4043 81.4144 33.3248 83.1458 34.4377 83.4606C35.2325 83.7754 36.1069 84.0902 36.9813 84.2476C37.6967 84.405 38.4916 84.5624 39.207 84.405C40.1608 84.2476 41.0352 83.8541 41.8301 83.3819C42.148 83.1458 42.625 82.9884 42.7045 82.5949C42.8634 81.8866 41.9891 81.4931 41.4326 81.9653Z" fill="#2B2C54"/>
</g>
<g opacity="0.1294">
<path d="M53.833 83.5392C53.4355 83.6966 53.356 83.8541 52.7201 84.2476C51.4483 84.9559 50.8919 85.0346 49.2226 85.4281C47.6329 85.8216 47.7124 85.7429 45.9636 85.9003C45.4072 85.9003 44.8508 85.9003 44.2944 85.8216C43.8969 85.7429 43.579 85.5855 43.1815 85.6642C41.7507 85.8216 41.5918 87.9465 43.0225 88.34C46.679 89.3631 49.6201 88.34 52.1637 86.766C52.9586 86.2938 53.674 85.8216 54.3894 85.192C54.7868 84.7985 54.8663 84.8772 54.9458 84.3263C54.8663 83.7753 54.3894 83.3818 53.833 83.5392Z" fill="#2B2C54"/>
</g>
<g opacity="0.1294">
<path d="M69.0973 90.937C68.3024 91.0157 68.5409 91.1731 68.1435 91.2518C67.8255 91.3305 67.746 91.488 66.6332 91.7241C65.8383 91.8815 65.8383 91.8814 65.6793 91.8814C65.8383 91.724 65.9178 91.4092 65.8383 91.1731C65.8383 90.7009 65.3614 90.3074 64.8844 90.3074C64.328 90.3074 63.8511 90.8583 63.2947 91.0157C62.1818 91.4879 62.4203 91.4092 60.8305 91.9601C59.3997 92.3537 58.6843 92.3537 58.1279 92.3537C57.5715 92.3537 57.0946 92.0388 56.6176 91.9601C57.5715 91.5666 58.4459 91.0944 59.3202 90.5435C60.2741 89.9139 61.228 89.2056 62.0229 88.4186C62.1818 88.2612 62.3408 88.0251 62.3408 87.789C62.3408 87.4742 62.1818 87.2381 61.9434 87.0807C61.6254 86.9233 61.228 86.9233 60.91 87.2381C60.9895 87.1594 61.069 87.0807 60.9895 87.1594C60.5921 87.3955 60.1946 87.6316 59.7972 87.8677C57.4125 89.363 54.3125 90.2287 52.3253 90.5435C51.8483 90.6222 51.3714 90.6222 50.8945 90.6222C50.815 90.6222 50.815 90.6222 50.815 90.6222C50.815 90.6222 50.815 90.6222 50.7355 90.6222C50.3381 90.6222 50.0201 90.3861 49.6227 90.4648C48.7483 90.5435 48.6688 91.8815 49.5432 92.0389C50.3381 92.275 51.0535 92.5898 51.9278 92.6685C52.8022 92.7472 53.6766 92.6685 54.4715 92.5111C54.9484 92.5111 55.3458 92.3536 55.8228 92.2749C55.4253 92.7472 55.4253 93.5342 56.0612 93.849C58.2869 94.9508 60.6716 94.7147 62.8177 93.7703C63.2152 93.6129 63.6126 93.4555 64.0101 93.2194C64.0101 93.849 64.5665 94.5573 65.2819 94.4786C66.6332 94.3212 68.1435 94.2425 69.3358 93.3768C69.6538 93.1407 70.1307 92.9046 70.2897 92.4324C70.4486 91.8028 69.8127 90.8583 69.0973 90.937Z" fill="#2B2C54"/>
</g>
<g opacity="0.1294">
<path d="M80.144 85.8215C79.2696 86.215 79.5081 86.2937 78.9517 86.6872C78.1568 87.2381 78.2363 87.1594 77.0439 87.4742C76.0901 87.6316 76.6465 87.6317 75.8516 87.6317C75.7721 87.6317 75.6926 87.6317 75.5337 87.6317C75.4542 87.6317 75.2952 87.5529 75.2157 87.5529C74.5003 87.4742 73.7849 86.9233 73.0695 87.3169C72.1951 87.7891 72.3541 89.2844 73.3875 89.5205C74.3413 89.7566 75.2952 90.0714 76.2491 89.9927C77.4414 89.914 78.5542 89.5205 79.5081 88.8909C79.985 88.5761 80.3825 88.1825 80.8594 87.8677C81.1773 87.6316 81.4953 87.3169 81.4953 86.9233C81.4158 86.1363 80.7799 85.6641 80.144 85.8215Z" fill="#2B2C54"/>
</g>
<g opacity="0.1294">
<path d="M89.6843 82.5162C89.6843 82.044 89.3664 81.4931 88.8099 81.4144H88.7304C88.7304 80.4699 88.7304 79.5255 88.492 78.5811C88.174 77.1645 87.3791 75.9053 86.6638 74.5674C86.0278 73.1507 85.3125 71.8128 84.2791 70.711C83.8817 70.3175 83.1663 70.711 83.1663 71.2619C83.1663 71.7341 83.6432 72.0489 83.8817 72.4425C85.1535 74.2526 85.5509 75.5905 86.1073 77.7154C86.8227 79.9977 86.9817 81.0208 86.7432 83.3819V83.4606C86.7432 83.5393 86.7432 83.6967 86.6638 83.7754C86.6638 83.8541 86.6637 83.9328 86.5843 84.0115C86.5048 84.1689 86.3458 84.405 86.1868 84.5624C86.0278 84.7198 85.7099 85.1133 85.4714 85.3494C85.3919 85.3494 85.3919 85.4281 85.3124 85.4281C84.915 85.4281 84.6765 85.4281 83.6432 85.1133C83.3252 84.9559 83.3252 85.0346 83.6432 85.1133C83.1663 84.9559 82.6893 84.5624 82.1329 84.4837C80.9406 84.2476 80.3842 85.979 81.4175 86.5299C81.815 86.6873 82.2124 86.9234 82.5303 87.0808C82.6098 87.4743 82.8483 87.7891 83.1663 88.0252C83.2457 88.1039 83.3252 88.1039 83.4047 88.1826C83.4047 88.6548 83.7227 89.127 84.2791 89.2844C84.756 89.4418 85.3124 89.5205 85.7894 89.4418C85.9484 89.4418 86.3458 89.2844 86.3458 89.2057C86.9022 88.9696 87.3791 88.6548 87.6176 88.1826C87.7766 87.9465 87.7766 87.6317 87.6971 87.3956C87.9356 87.1595 88.0151 86.9234 88.0151 86.6873C88.492 85.979 88.8894 85.192 89.1279 84.405C89.2074 83.8541 89.2869 83.2245 89.2869 82.6736C89.6843 82.5949 89.6843 82.5949 89.6843 82.5162Z" fill="#2B2C54"/>
</g>
<path d="M21.4027 83.0671H21.3232C17.5872 82.3588 13.6923 81.7292 9.87683 80.706C8.36655 80.2338 7.01524 79.919 5.50496 79.5255C3.8357 79.132 2.16645 78.7385 0.417699 78.1876C0.0997448 78.1089 -0.0592321 77.7154 0.0202564 77.4006C0.0997448 77.0858 0.497187 76.9284 0.815141 77.0071C2.4844 77.558 4.15366 77.9515 5.74343 78.345C7.17422 78.6598 8.76399 79.0533 10.1948 79.5255C13.7718 80.4699 17.3487 81.1782 20.9257 81.8078C22.436 75.6692 24.5027 69.6879 26.5694 63.9427C27.7617 60.4799 29.0335 56.9384 30.1464 53.3968C30.1464 53.3968 30.1464 53.3968 30.1464 53.3181C30.5438 52.3737 30.9413 51.508 31.3387 50.5636C32.3721 48.2025 33.4054 45.9202 33.8823 43.2444L33.8029 43.1657C33.7234 43.1657 33.6439 43.1657 33.5644 43.1657C30.2259 41.9065 26.8079 41.0408 23.4694 40.0964C19.4949 39.0733 15.441 37.9714 11.4666 36.3187C11.1486 36.1613 10.9897 35.8465 11.1486 35.5317C11.3076 35.2169 11.6256 35.0595 11.9435 35.2169C15.8385 36.8696 19.8924 37.8927 23.7873 38.9159C27.1258 39.7816 30.6233 40.726 33.9618 41.9852C34.5977 42.0639 35.1542 42.6148 35.1542 43.2444V43.3231C34.6772 46.1563 33.5644 48.5961 32.531 50.9571C32.1336 51.8228 31.7362 52.6885 31.4182 53.6329C30.3054 57.2531 29.0335 60.7947 27.8412 64.2575C25.695 70.4749 23.6283 76.2988 22.1181 82.5949C21.9591 82.9097 21.7206 83.0671 21.4027 83.0671Z" fill="#2B2C54"/>
<path d="M13.7744 81.1783C13.6949 81.1783 13.6949 81.1783 13.6154 81.1783C13.2974 81.0996 13.059 80.7848 13.1385 80.47C16.6359 66.6973 21.4847 52.1377 26.572 40.4112C26.731 40.0964 27.0489 39.939 27.3669 40.0964C27.6848 40.2538 27.8438 40.5686 27.6848 40.8834C22.6771 52.5312 17.7488 67.0908 14.3308 80.7848C14.3308 81.0209 14.0128 81.1783 13.7744 81.1783Z" fill="#2B2C54"/>
<path d="M113.054 84.8772C112.974 84.8772 112.895 84.8772 112.815 84.7985C112.656 84.7198 112.577 84.5624 112.497 84.405C110.112 76.2201 107.569 68.0352 104.866 59.2994C103.435 54.8134 102.005 50.1701 100.574 45.5267C100.494 45.2906 100.574 44.9758 100.892 44.8184C107.012 41.513 113.451 38.6797 120.049 36.4761C120.366 36.3974 120.684 36.5548 120.843 36.8696C120.923 37.1844 120.764 37.4992 120.446 37.6566C114.087 39.8602 107.807 42.5361 101.925 45.6841C103.276 50.2488 104.707 54.656 106.059 58.9846C108.682 67.4843 111.146 75.4331 113.53 83.4606C119.174 81.493 124.738 79.2107 130.144 76.6923C130.461 76.5349 130.779 76.6923 130.938 77.0071C131.097 77.3219 130.938 77.6367 130.62 77.7941C124.977 80.3912 119.174 82.7522 113.292 84.7985C113.133 84.7985 113.133 84.8772 113.054 84.8772Z" fill="#2B2C54"/>
<path d="M120.286 81.729C120.048 81.729 119.81 81.5716 119.73 81.2568C116.233 68.1137 112.179 54.892 107.727 41.985C107.648 41.6702 107.807 41.3554 108.125 41.198C108.443 41.1193 108.761 41.2767 108.92 41.5915C113.371 54.4985 117.345 67.7202 120.922 80.942C121.002 81.2568 120.843 81.5716 120.525 81.6503C120.445 81.729 120.366 81.729 120.286 81.729Z" fill="#2B2C54"/>
<path d="M53.2775 63.864C51.8467 63.864 50.2569 63.2344 49.5415 61.8964C48.2697 59.378 50.6543 56.5448 51.5287 55.6791C54.8672 51.9014 58.2852 47.8877 62.5776 44.9757C67.4264 41.5916 72.6726 40.0963 77.4419 40.7259C79.9061 41.0407 82.2113 41.9064 84.4369 42.6934C85.1523 42.9295 85.8677 43.2443 86.6626 43.4804C91.3524 45.0544 96.2012 45.9202 101.13 45.9989C101.447 45.9989 101.765 46.3137 101.765 46.6285C101.765 46.9433 101.527 47.2581 101.13 47.2581C96.0422 47.1794 91.114 46.3137 86.3447 44.7396C85.6293 44.5035 84.8344 44.1887 84.119 43.9526C81.9728 43.1656 79.6676 42.2999 77.4419 42.0638C72.9906 41.5129 68.0623 42.9295 63.452 46.1563C59.3186 49.0682 55.9006 52.9246 52.6416 56.7022C50.8133 58.8271 50.2569 60.4011 50.8133 61.5816C51.3697 62.6047 52.6415 62.9983 53.6749 62.9196C54.8672 62.8409 55.9801 62.29 57.2519 61.739C58.0468 61.3455 58.9211 60.952 59.716 60.4798C64.8033 57.9614 69.6521 55.6004 74.1829 52.4523C74.4214 52.2949 74.8188 52.2949 75.0573 52.6097C75.2163 52.8458 75.2163 53.2394 74.8983 53.4755C70.288 56.7022 65.4392 59.0632 60.2724 61.6603C59.4776 62.0538 58.6032 62.4474 57.8083 62.9196C56.457 63.5492 55.1852 64.1788 53.7544 64.2575C53.5159 63.864 53.3569 63.864 53.2775 63.864Z" fill="#2B2C54"/>
<path d="M98.109 85.7429C97.8706 85.7429 97.6321 85.5855 97.5526 85.3494C97.3936 85.0346 97.5526 84.7198 97.8706 84.5624C102.242 82.7523 106.614 80.9421 110.907 79.0533C111.225 78.8959 111.543 79.0533 111.702 79.3681C111.861 79.6829 111.702 79.9977 111.384 80.1551C107.091 82.044 102.64 83.8541 98.268 85.6642C98.268 85.6642 98.1885 85.7429 98.109 85.7429Z" fill="#2B2C54"/>
<path d="M96.3629 88.1038C96.2039 88.1038 96.1244 88.1038 96.0449 88.1038C94.0577 87.8677 92.0705 86.6085 90.6397 84.4836C89.6858 83.1457 89.0499 81.6504 88.4935 80.2338C88.3345 79.7616 88.0961 79.2893 87.9371 78.8958C86.2678 75.2756 84.0422 71.8914 81.3396 68.9795C81.1011 68.7434 81.1011 68.3499 81.3396 68.1138C81.578 67.8777 81.9755 67.8777 82.2139 68.1138C85.0755 71.1045 87.3012 74.5673 89.0499 78.3449C89.2884 78.8171 89.4474 79.2893 89.6858 79.7615C90.3217 81.1782 90.8782 82.5948 91.7525 83.854C93.0244 85.6641 94.6141 86.7659 96.2834 86.9233C96.3629 86.9233 96.6808 87.002 96.7603 86.8446C96.9193 86.7659 96.9988 86.4511 96.9988 85.9002C96.7603 78.9745 94.4551 71.9701 90.4807 66.225C86.5063 60.4798 80.7831 55.8365 74.2651 53.1606C73.9471 53.0032 73.7882 52.6884 73.9471 52.3736C74.1061 52.0588 74.4241 51.9014 74.742 52.0588C81.419 54.8133 87.3807 59.6141 91.4346 65.5954C95.568 71.498 97.9526 78.7384 98.1911 85.9002C98.1911 86.2937 98.2706 87.3955 97.3962 87.8677C96.9988 88.0251 96.6808 88.1038 96.3629 88.1038Z" fill="#2B2C54"/>
<path d="M66.1581 94.7146C65.2838 94.7146 64.2504 94.5573 63.0581 93.6915C62.8196 93.5341 62.7401 93.1406 62.8991 92.8258C63.0581 92.5897 63.4555 92.511 63.7735 92.6684C64.8863 93.4554 65.8402 93.4554 66.7146 93.3767H66.7941C68.0659 93.298 69.4172 92.6684 70.1326 91.8027C70.4505 91.4092 70.848 90.7796 70.689 90.0713V89.9926C70.689 88.7334 70.53 87.3955 70.371 86.451C70.2915 86.2149 70.4505 85.9002 70.689 85.8215C70.9275 85.7427 71.2454 85.7427 71.4044 85.9788C72.3582 87.0019 73.2326 88.0251 74.4249 88.7334C75.6173 89.4417 76.9686 89.6778 78.0019 89.2843C79.4327 88.7334 80.8635 86.2937 80.5455 84.9557C80.4661 84.6409 80.7045 84.3261 81.0225 84.2474C81.3404 84.1687 81.6584 84.4048 81.7379 84.7196C82.2148 86.8445 80.2276 89.7565 78.3994 90.4648C76.9686 90.937 75.2993 90.7009 73.789 89.8352C73.0736 89.363 72.3582 88.8121 71.8018 88.2612C71.8813 88.8908 71.8813 89.5204 71.8813 90.15C71.9608 91.0944 71.7223 91.9601 71.0069 92.7471C70.0531 93.9276 68.3838 94.7146 66.7941 94.7146H66.7146C66.5556 94.6359 66.3966 94.7146 66.1581 94.7146Z" fill="#2B2C54"/>
<path d="M86.1086 89.7566C85.6317 89.7566 85.1548 89.5992 84.6778 89.4418C82.3727 88.5761 81.1803 86.0576 79.988 83.6966C79.1931 82.0439 78.3187 80.3125 77.2059 79.2894C76.9674 79.0532 76.9674 78.6597 77.1264 78.4236C77.3649 78.1875 77.7623 78.1876 78.0008 78.345C79.3521 79.5255 80.2265 81.3356 81.1008 83.067C82.2137 85.3493 83.247 87.4743 85.1548 88.1826C85.9496 88.4974 86.9035 88.8909 88.2548 86.6872C88.6523 86.0576 88.7317 85.3493 88.7317 84.641C88.8907 82.7522 88.3343 80.8634 87.8574 78.9746C87.7779 78.6597 87.6984 78.4236 87.6189 78.1088C87.5394 77.794 87.6984 77.4792 88.0958 77.4005C88.4138 77.3218 88.7317 77.4792 88.8112 77.8727C88.8907 78.1875 88.9702 78.4237 89.0497 78.7385C89.5266 80.706 90.083 82.7522 89.9241 84.7984C89.8446 85.6641 89.7651 86.6086 89.2881 87.3956C88.0958 89.2844 87.0625 89.7566 86.1086 89.7566Z" fill="#2B2C54"/>
<path d="M46.6793 89.4417C46.5998 89.4417 46.5998 89.4417 46.5203 89.4417C44.2152 89.363 42.3074 88.0251 41.751 86.215C41.5126 85.5067 41.5126 84.7984 41.6715 84.0901C40.3997 84.8771 38.8894 85.1919 37.4586 84.8771C35.233 84.4836 33.3252 82.6735 32.9278 80.5486C32.7688 79.6828 33.0868 79.2106 33.3252 78.8958C33.5637 78.6597 33.9611 78.6597 34.1996 78.8958C34.4381 79.1319 34.4381 79.5254 34.1996 79.7615C34.1201 79.8402 34.1201 79.9977 34.1201 80.3125C34.3586 81.9652 35.8689 83.3818 37.6176 83.6966C39.3664 84.0114 41.1946 83.3031 42.1485 81.9652C42.3074 81.7291 42.6254 81.6504 42.8639 81.8078C43.1023 81.7291 43.2613 81.6504 43.4203 81.5717C45.8049 80.6272 48.3486 80.0764 50.9717 79.8402C53.0384 79.6828 54.4692 80.155 55.1051 81.3356C55.423 81.8865 55.5025 82.5161 55.423 83.3031C55.2641 84.3262 54.8666 85.2706 54.2307 85.9789C53.5948 86.6872 52.7999 87.2381 52.005 87.7103C50.5742 88.4973 48.746 89.4417 46.6793 89.4417ZM43.1023 83.1457C42.8639 84.1688 42.7049 85.0345 42.9433 85.8215C43.4203 87.3168 45.0895 88.1825 46.5998 88.1825C48.3486 88.2613 50.0973 87.3955 51.3691 86.6872C52.0845 86.2937 52.7999 85.8215 53.2768 85.2706C53.7538 84.7197 54.1512 83.9327 54.2307 83.2244C54.3102 82.8309 54.3102 82.3587 54.0717 81.9652C53.5948 81.0994 52.164 81.0208 51.1307 81.0995C48.6665 81.2569 46.2024 81.8078 43.8972 82.7522C43.4998 82.8309 43.2613 82.9883 43.1023 83.1457Z" fill="#2B2C54"/>
<path d="M52.6412 93.4555C51.6874 93.4555 50.813 93.2195 50.0181 92.8259C48.5873 91.9602 47.6334 90.2288 47.7924 88.5761C47.7924 88.2613 48.1104 88.0252 48.4283 88.0252C48.7463 88.0252 48.9847 88.34 48.9847 88.6548C48.9053 89.8353 49.5412 91.1732 50.5745 91.7241C51.6079 92.3537 52.9592 92.3537 54.39 91.8815C55.7413 91.4093 56.8541 90.5436 58.0464 89.6779C59.7157 88.4187 61.226 86.9234 61.3849 85.1132C61.3849 85.0345 61.3849 84.8771 61.3849 84.7984C61.3849 84.7197 61.226 84.641 61.067 84.4836C60.1926 83.9327 59.0003 83.854 57.7285 84.0901C56.6156 84.3262 55.6618 84.7985 54.6284 85.3494L54.4694 85.4281C54.1515 85.5855 53.8335 85.4281 53.6746 85.1919C53.5156 84.9558 53.6746 84.5623 53.913 84.4049L54.072 84.3262C55.1848 83.7753 56.2182 83.2244 57.49 82.9883C59.0798 82.6735 60.5901 82.8309 61.7029 83.4605C61.9414 83.6179 62.3388 83.854 62.4978 84.3262C62.6568 84.641 62.6568 84.9559 62.6568 85.2707C62.4978 87.553 60.749 89.2057 58.8413 90.6223C57.649 91.5667 56.3772 92.5111 54.8669 92.9833C54.1515 93.2981 53.3566 93.4555 52.6412 93.4555Z" fill="#2B2C54"/>
<path d="M59.7153 95.1869C58.841 95.1869 57.9666 94.9507 57.2512 94.6359C56.3768 94.1637 55.423 93.298 55.5025 92.1175C55.5025 91.8027 55.8204 91.5666 56.1384 91.5666C56.4563 91.5666 56.6948 91.8814 56.6948 92.1962C56.6948 92.7471 57.2512 93.298 57.8076 93.5341C58.6025 93.9276 59.5564 94.085 60.5102 93.9276C61.941 93.6915 63.2128 92.7471 64.2462 91.8814C65.4385 90.8583 65.9154 90.0713 65.8359 89.2843C65.7565 88.4186 64.7231 87.789 63.8487 87.7103C62.9744 87.6316 62.1 88.0251 61.0666 88.8121C60.8282 89.0482 60.4307 88.9695 60.1923 88.7334C59.9538 88.4973 60.0333 88.1038 60.2718 87.8677C61.0666 87.2381 62.3385 86.4511 63.8487 86.5298C65.2 86.6085 66.7898 87.6316 66.9488 89.1269C67.1078 90.7009 65.9154 91.9601 64.9616 92.7471C63.8487 93.6915 62.4179 94.7933 60.6692 95.1082C60.3512 95.1082 60.0333 95.1869 59.7153 95.1869Z" fill="#2B2C54"/>
<path d="M42.7877 82.5949C42.4697 82.5949 42.2312 82.3588 42.2312 82.1227C41.9928 80.8635 40.6415 80.1552 39.8466 79.8404C37.5414 78.896 35.5542 78.896 33.885 79.9191C33.6465 80.0765 33.249 79.9978 33.0901 79.7617C30.7849 76.6136 27.9233 74.2526 24.5053 72.7573C24.1874 72.5999 24.0284 72.2851 24.1874 71.9703C24.3463 71.6555 24.6643 71.4981 24.9823 71.6555C28.4003 73.1508 31.3413 75.4331 33.726 78.5812C35.6337 77.6368 37.8594 77.6368 40.3235 78.6599C42.0723 79.3682 43.1851 80.5487 43.4236 81.8866C43.5031 82.2014 43.2646 82.5162 42.9466 82.5949C42.7877 82.5949 42.7877 82.5949 42.7877 82.5949Z" fill="#2B2C54"/>
<path d="M34.0406 46.0776C33.8021 46.0776 33.4842 45.9202 33.4842 45.6054C33.4047 45.2906 33.6431 44.9758 33.9611 44.8971C40.6381 43.4018 46.8382 41.2769 51.9255 39.388L52.4024 39.2306C54.3896 38.5223 56.3768 37.814 58.523 37.5779C63.4513 37.027 67.9822 39.1519 71.9566 40.9621C72.2745 41.1195 72.354 41.4343 72.2745 41.7491C72.1156 42.0639 71.7976 42.1426 71.4796 42.0639C67.6642 40.2537 63.2923 38.2862 58.682 38.7584C56.6948 38.9945 54.7076 39.7028 52.8793 40.3324L52.4024 40.4898C47.2357 42.3787 41.0356 44.5036 34.279 45.9989C34.1201 46.0776 34.0406 46.0776 34.0406 46.0776Z" fill="#2B2C54"/>
<path d="M45.9639 35.6891C45.7255 35.6891 45.5665 35.6104 45.487 35.3743C45.328 35.0595 45.4075 34.7446 45.646 34.5085C51.1307 31.0457 57.7282 29.393 64.2463 29.7078C64.5642 29.7078 64.8027 30.0226 64.8027 30.3374C64.8027 30.6522 64.4847 30.8883 64.1668 30.8883C57.8872 30.5735 51.5281 32.1475 46.2819 35.4529C46.2024 35.6103 46.1229 35.6891 45.9639 35.6891Z" fill="#2B2C54"/>
<path d="M42.2315 29.7865C42.0725 29.7865 41.8341 29.7078 41.7546 29.5504C41.5956 29.2356 41.6751 28.9208 41.9136 28.6847C45.1726 26.5597 48.9085 25.1431 52.724 24.4348C53.0419 24.3561 53.3599 24.5922 53.4394 24.907C53.5189 25.2218 53.2804 25.5366 52.9625 25.6153C49.306 26.2449 45.729 27.6616 42.629 29.6291C42.47 29.7865 42.311 29.7865 42.2315 29.7865Z" fill="#2B2C54"/>
<path d="M80.9406 95.5805C80.6226 95.5805 80.3842 95.3444 80.3047 95.0296C80.3047 94.7148 80.5432 94.4 80.8611 94.4C84.3586 94.3213 87.8561 92.9834 90.5587 90.7798C90.7972 90.5437 91.1946 90.6224 91.4331 90.8585C91.6715 91.0946 91.592 91.4881 91.3536 91.7242C88.4125 94.0852 84.756 95.5018 80.9406 95.5805Z" fill="#2B2C54"/>
<path d="M126.805 76.6922C126.726 76.6922 126.726 76.6922 126.805 76.6922L120.128 74.2524C120.049 74.2524 119.969 74.095 120.049 74.0163C120.049 73.9376 120.208 73.8589 120.287 73.9376L126.885 76.3774C126.964 76.3774 127.044 76.5348 126.964 76.6135C126.964 76.6922 126.885 76.6922 126.805 76.6922Z" fill="#2B2C54"/>
<path d="M128.953 74.2525C125.296 72.9933 121.719 71.5767 118.222 70.0027C118.142 69.924 118.063 69.8453 118.142 69.7666C118.222 69.6879 118.301 69.6092 118.381 69.6879C121.799 71.3406 125.376 72.7572 128.953 73.9377C129.032 73.9377 129.112 74.0951 129.112 74.1738C129.191 74.2525 129.112 74.2525 128.953 74.2525Z" fill="#2B2C54"/>
<path d="M129.59 70.4749C129.51 70.4749 129.51 70.4749 129.59 70.4749C125.536 69.137 121.482 67.6416 117.587 66.0676C117.508 65.9889 117.428 65.9102 117.508 65.8315C117.587 65.7528 117.667 65.6741 117.746 65.7528C121.641 67.4055 125.615 68.8221 129.669 70.16C129.749 70.16 129.828 70.3175 129.828 70.3962C129.749 70.3962 129.669 70.4749 129.59 70.4749Z" fill="#2B2C54"/>
<path d="M129.584 66.776C129.504 66.776 129.504 66.776 129.584 66.776C124.815 65.0446 121.238 63.5492 116.23 61.4243C116.15 61.3456 116.071 61.2669 116.15 61.1882C116.23 61.1095 116.309 61.0308 116.389 61.1095C121.397 63.1557 124.974 64.6511 129.663 66.4612C129.743 66.4612 129.822 66.6186 129.743 66.6973C129.743 66.6973 129.663 66.776 129.584 66.776Z" fill="#2B2C54"/>
<path d="M128.397 62.6048L114.884 57.1744C114.804 57.0957 114.725 57.017 114.804 56.9383C114.884 56.8596 114.963 56.7809 115.043 56.8596L128.476 62.29C128.556 62.3687 128.635 62.4474 128.556 62.5261C128.556 62.5261 128.476 62.6048 128.397 62.6048Z" fill="#2B2C54"/>
<path d="M127.916 58.6697H127.837L113.29 52.2949C113.211 52.2162 113.131 52.1375 113.211 52.0588C113.29 51.9801 113.37 51.9014 113.449 51.9801L127.996 58.3549C128.075 58.4336 128.154 58.5123 128.075 58.591C128.075 58.591 127.996 58.6697 127.916 58.6697Z" fill="#2B2C54"/>
<path d="M126.565 53.6329H126.485L111.78 47.1007C111.701 47.022 111.621 46.9433 111.701 46.8646C111.78 46.7859 111.86 46.7072 111.939 46.7859L126.644 53.3181C126.724 53.3968 126.803 53.4755 126.724 53.5542C126.644 53.6329 126.644 53.6329 126.565 53.6329Z" fill="#2B2C54"/>
<path d="M123.229 47.1007C119.493 45.6841 115.757 44.3462 112.101 43.087C112.021 43.087 111.942 42.9296 111.942 42.8509C111.942 42.7722 112.101 42.6935 112.18 42.6935C115.916 43.9527 119.573 45.2906 123.229 46.7072C123.309 46.7859 123.388 46.8646 123.309 46.9433C123.388 47.022 123.309 47.1007 123.229 47.1007Z" fill="#2B2C54"/>
<path d="M122.913 42.5361L117.587 40.3325C117.508 40.2538 117.428 40.1751 117.508 40.0964C117.587 40.0177 117.667 39.939 117.746 40.0177L122.992 42.2213C123.072 42.3 123.151 42.3787 123.072 42.4574C123.072 42.4574 122.992 42.5361 122.913 42.5361Z" fill="#2B2C54"/>
<path d="M11.7868 36.0039C16.9535 37.7353 22.1998 39.3093 27.2075 40.8047C26.4127 44.1888 24.2665 47.1795 22.8357 50.4062C22.1203 52.1376 21.5639 53.869 21.0074 55.6791C18.4638 64.0214 15.9997 72.4424 13.615 80.8634C9.00467 79.2894 5.4277 78.5024 0.419922 77.6367C4.95076 63.5492 9.08417 50.0127 11.7868 36.0039Z" fill="#9981F5"/>
<g opacity="0.1294">
<path d="M109.635 77.5579C108.84 77.794 108.045 78.1088 107.251 78.4236C107.092 78.4236 106.933 78.4236 106.694 78.5023C106.297 78.581 105.899 78.7384 105.581 78.8958C105.184 79.0532 104.786 79.1319 104.389 79.368C104.23 79.4467 103.753 79.6041 103.594 79.6828C103.515 79.6828 103.515 79.6828 103.435 79.7615C103.356 79.7615 103.197 79.8403 103.117 79.8403C103.038 79.8403 102.958 79.8403 102.879 79.8403C102.799 79.8403 102.72 79.8402 102.64 79.7615C102.481 79.6041 102.322 79.4467 102.163 79.2893C102.004 79.0532 102.163 79.2893 102.243 79.4467C102.084 79.2893 102.004 79.1319 101.845 78.9745C101.766 78.8958 101.766 78.8958 101.766 78.8171C101.607 78.6597 101.527 78.4236 101.368 78.2662C100.891 77.4792 100.415 76.6922 99.9376 75.8265C99.0632 74.0951 98.1888 72.2849 97.235 70.5535C96.6786 69.373 96.2016 68.1925 95.4862 67.0907C93.499 64.0214 91.5118 61.6603 88.4912 58.9845C86.5835 57.0957 84.3579 55.443 82.0527 54.105C80.4629 53.2393 78.7937 52.3736 76.9654 52.2162C75.6936 51.9014 75.3757 53.7903 76.727 53.9477C77.9193 54.0264 79.2706 54.5773 80.6219 55.3643C80.4629 55.6791 80.5424 56.0726 80.8604 56.3874C82.1322 57.4892 83.6425 58.3549 84.9938 59.378C84.9143 59.2993 85.7092 59.9289 85.8681 60.0863C86.0271 60.2437 86.1861 60.4011 86.3451 60.5585C86.1861 60.6372 86.1066 60.7946 86.1861 61.0307C86.2656 61.5816 86.9015 62.2112 87.2194 62.7621C88.7297 64.9658 90.399 67.0907 91.6708 69.4517C93.34 72.6785 94.5324 75.9052 95.0888 80.3125C95.4067 81.6504 95.5657 84.1688 95.0888 84.8771C95.0888 84.9558 95.0093 84.9558 94.9298 85.0345C94.9298 85.0345 94.8503 85.0345 94.8503 85.1132C94.7708 85.1132 94.7708 85.1132 94.6913 85.1919H94.6119C94.4529 85.1919 94.3734 85.1919 94.2939 85.1919C94.2144 85.1919 94.2144 85.1919 94.1349 85.1919C93.658 85.0345 93.8965 85.1919 93.1811 84.7984C91.9887 84.1688 91.0349 85.8215 92.1477 86.5298C95.0093 88.576 96.9965 87.8677 97.5529 85.1132C97.8709 83.4605 97.6324 81.7291 97.3145 80.0763C97.394 80.3124 97.4734 80.5485 97.5529 80.8634C97.7119 81.8865 97.8709 82.7522 97.9504 83.6179L97.8709 83.6966C97.5529 84.2475 97.7914 84.7984 98.2683 85.1132C98.5068 85.428 98.9042 85.5854 99.3017 85.5067C99.6196 85.428 99.7786 85.1919 99.8581 84.9558C102.958 83.7753 106.058 82.4374 108.999 80.706C109.715 80.3125 109.715 80.2337 110.271 79.9976C110.589 79.8402 110.907 79.6828 111.066 79.4467C111.225 79.368 111.304 79.2106 111.463 79.0532C111.861 77.6366 110.51 77.0857 109.635 77.5579Z" fill="#2B2C54"/>
</g>
<g opacity="0.1294">
<path d="M129.666 74.3313C129.508 74.3313 129.349 74.41 129.19 74.41C128.474 74.6461 127.838 75.1183 127.123 75.3544C125.851 75.984 125.374 76.0627 123.625 76.8497C120.684 78.4237 115.835 79.9191 113.212 80.9422C111.464 81.4931 112.179 83.9328 113.928 83.5393C116.63 82.6736 119.253 81.4144 121.877 80.3126C123.307 79.683 125.931 78.7385 128.077 77.6367C129.11 77.0858 130.382 76.4562 130.541 76.1414C131.256 75.5118 130.62 74.3313 129.666 74.3313Z" fill="#2B2C54"/>
</g>
<g opacity="0.1294">
<path d="M41.4326 81.9653C40.9557 82.2801 40.3198 82.2014 39.1275 82.2014C38.3326 82.1227 37.2992 82.2014 36.3454 81.8866C35.7095 81.7292 35.153 81.257 34.5966 81.3357C33.4043 81.4144 33.3248 83.1458 34.4377 83.4606C35.2325 83.7754 36.1069 84.0902 36.9813 84.2476C37.6967 84.405 38.4916 84.5624 39.207 84.405C40.1608 84.2476 41.0352 83.8541 41.8301 83.3819C42.148 83.1458 42.625 82.9884 42.7045 82.5949C42.8634 81.8866 41.9891 81.4931 41.4326 81.9653Z" fill="#2B2C54"/>
</g>
<g opacity="0.1294">
<path d="M53.833 83.5392C53.4355 83.6966 53.356 83.8541 52.7201 84.2476C51.4483 84.9559 50.8919 85.0346 49.2226 85.4281C47.6329 85.8216 47.7124 85.7429 45.9636 85.9003C45.4072 85.9003 44.8508 85.9003 44.2944 85.8216C43.8969 85.7429 43.579 85.5855 43.1815 85.6642C41.7507 85.8216 41.5918 87.9465 43.0225 88.34C46.679 89.3631 49.6201 88.34 52.1637 86.766C52.9586 86.2938 53.674 85.8216 54.3894 85.192C54.7868 84.7985 54.8663 84.8772 54.9458 84.3263C54.8663 83.7753 54.3894 83.3818 53.833 83.5392Z" fill="#2B2C54"/>
</g>
<g opacity="0.1294">
<path d="M69.0973 90.937C68.3024 91.0157 68.5409 91.1731 68.1435 91.2518C67.8255 91.3305 67.746 91.488 66.6332 91.7241C65.8383 91.8815 65.8383 91.8814 65.6793 91.8814C65.8383 91.724 65.9178 91.4092 65.8383 91.1731C65.8383 90.7009 65.3614 90.3074 64.8844 90.3074C64.328 90.3074 63.8511 90.8583 63.2947 91.0157C62.1818 91.4879 62.4203 91.4092 60.8305 91.9601C59.3997 92.3537 58.6843 92.3537 58.1279 92.3537C57.5715 92.3537 57.0946 92.0388 56.6176 91.9601C57.5715 91.5666 58.4459 91.0944 59.3202 90.5435C60.2741 89.9139 61.228 89.2056 62.0229 88.4186C62.1818 88.2612 62.3408 88.0251 62.3408 87.789C62.3408 87.4742 62.1818 87.2381 61.9434 87.0807C61.6254 86.9233 61.228 86.9233 60.91 87.2381C60.9895 87.1594 61.069 87.0807 60.9895 87.1594C60.5921 87.3955 60.1946 87.6316 59.7972 87.8677C57.4125 89.363 54.3125 90.2287 52.3253 90.5435C51.8483 90.6222 51.3714 90.6222 50.8945 90.6222C50.815 90.6222 50.815 90.6222 50.815 90.6222C50.815 90.6222 50.815 90.6222 50.7355 90.6222C50.3381 90.6222 50.0201 90.3861 49.6227 90.4648C48.7483 90.5435 48.6688 91.8815 49.5432 92.0389C50.3381 92.275 51.0535 92.5898 51.9278 92.6685C52.8022 92.7472 53.6766 92.6685 54.4715 92.5111C54.9484 92.5111 55.3458 92.3536 55.8228 92.2749C55.4253 92.7472 55.4253 93.5342 56.0612 93.849C58.2869 94.9508 60.6716 94.7147 62.8177 93.7703C63.2152 93.6129 63.6126 93.4555 64.0101 93.2194C64.0101 93.849 64.5665 94.5573 65.2819 94.4786C66.6332 94.3212 68.1435 94.2425 69.3358 93.3768C69.6538 93.1407 70.1307 92.9046 70.2897 92.4324C70.4486 91.8028 69.8127 90.8583 69.0973 90.937Z" fill="#2B2C54"/>
</g>
<g opacity="0.1294">
<path d="M80.144 85.8215C79.2696 86.215 79.5081 86.2937 78.9517 86.6872C78.1568 87.2381 78.2363 87.1594 77.0439 87.4742C76.0901 87.6316 76.6465 87.6317 75.8516 87.6317C75.7721 87.6317 75.6926 87.6317 75.5337 87.6317C75.4542 87.6317 75.2952 87.5529 75.2157 87.5529C74.5003 87.4742 73.7849 86.9233 73.0695 87.3169C72.1951 87.7891 72.3541 89.2844 73.3875 89.5205C74.3413 89.7566 75.2952 90.0714 76.2491 89.9927C77.4414 89.914 78.5542 89.5205 79.5081 88.8909C79.985 88.5761 80.3825 88.1825 80.8594 87.8677C81.1773 87.6316 81.4953 87.3169 81.4953 86.9233C81.4158 86.1363 80.7799 85.6641 80.144 85.8215Z" fill="#2B2C54"/>
</g>
<g opacity="0.1294">
<path d="M89.6843 82.5162C89.6843 82.044 89.3664 81.4931 88.8099 81.4144H88.7304C88.7304 80.4699 88.7304 79.5255 88.492 78.5811C88.174 77.1645 87.3791 75.9053 86.6638 74.5674C86.0278 73.1507 85.3125 71.8128 84.2791 70.711C83.8817 70.3175 83.1663 70.711 83.1663 71.2619C83.1663 71.7341 83.6432 72.0489 83.8817 72.4425C85.1535 74.2526 85.5509 75.5905 86.1073 77.7154C86.8227 79.9977 86.9817 81.0208 86.7432 83.3819V83.4606C86.7432 83.5393 86.7432 83.6967 86.6638 83.7754C86.6638 83.8541 86.6637 83.9328 86.5843 84.0115C86.5048 84.1689 86.3458 84.405 86.1868 84.5624C86.0278 84.7198 85.7099 85.1133 85.4714 85.3494C85.3919 85.3494 85.3919 85.4281 85.3124 85.4281C84.915 85.4281 84.6765 85.4281 83.6432 85.1133C83.3252 84.9559 83.3252 85.0346 83.6432 85.1133C83.1663 84.9559 82.6893 84.5624 82.1329 84.4837C80.9406 84.2476 80.3842 85.979 81.4175 86.5299C81.815 86.6873 82.2124 86.9234 82.5303 87.0808C82.6098 87.4743 82.8483 87.7891 83.1663 88.0252C83.2457 88.1039 83.3252 88.1039 83.4047 88.1826C83.4047 88.6548 83.7227 89.127 84.2791 89.2844C84.756 89.4418 85.3124 89.5205 85.7894 89.4418C85.9484 89.4418 86.3458 89.2844 86.3458 89.2057C86.9022 88.9696 87.3791 88.6548 87.6176 88.1826C87.7766 87.9465 87.7766 87.6317 87.6971 87.3956C87.9356 87.1595 88.0151 86.9234 88.0151 86.6873C88.492 85.979 88.8894 85.192 89.1279 84.405C89.2074 83.8541 89.2869 83.2245 89.2869 82.6736C89.6843 82.5949 89.6843 82.5949 89.6843 82.5162Z" fill="#2B2C54"/>
</g>
<path d="M21.4027 83.0671H21.3232C17.5872 82.3588 13.6923 81.7292 9.87683 80.706C8.36655 80.2338 7.01524 79.919 5.50496 79.5255C3.8357 79.132 2.16645 78.7385 0.417699 78.1876C0.0997448 78.1089 -0.0592321 77.7154 0.0202564 77.4006C0.0997448 77.0858 0.497187 76.9284 0.815141 77.0071C2.4844 77.558 4.15366 77.9515 5.74343 78.345C7.17422 78.6598 8.76399 79.0533 10.1948 79.5255C13.7718 80.4699 17.3487 81.1782 20.9257 81.8078C22.436 75.6692 24.5027 69.6879 26.5694 63.9427C27.7617 60.4799 29.0335 56.9384 30.1464 53.3968C30.1464 53.3968 30.1464 53.3968 30.1464 53.3181C30.5438 52.3737 30.9413 51.508 31.3387 50.5636C32.3721 48.2025 33.4054 45.9202 33.8823 43.2444L33.8029 43.1657C33.7234 43.1657 33.6439 43.1657 33.5644 43.1657C30.2259 41.9065 26.8079 41.0408 23.4694 40.0964C19.4949 39.0733 15.441 37.9714 11.4666 36.3187C11.1486 36.1613 10.9897 35.8465 11.1486 35.5317C11.3076 35.2169 11.6256 35.0595 11.9435 35.2169C15.8385 36.8696 19.8924 37.8927 23.7873 38.9159C27.1258 39.7816 30.6233 40.726 33.9618 41.9852C34.5977 42.0639 35.1542 42.6148 35.1542 43.2444V43.3231C34.6772 46.1563 33.5644 48.5961 32.531 50.9571C32.1336 51.8228 31.7362 52.6885 31.4182 53.6329C30.3054 57.2531 29.0335 60.7947 27.8412 64.2575C25.695 70.4749 23.6283 76.2988 22.1181 82.5949C21.9591 82.9097 21.7206 83.0671 21.4027 83.0671Z" fill="#2B2C54"/>
<path d="M13.7744 81.1783C13.6949 81.1783 13.6949 81.1783 13.6154 81.1783C13.2974 81.0996 13.059 80.7848 13.1385 80.47C16.6359 66.6973 21.4847 52.1377 26.572 40.4112C26.731 40.0964 27.0489 39.939 27.3669 40.0964C27.6848 40.2538 27.8438 40.5686 27.6848 40.8834C22.6771 52.5312 17.7488 67.0908 14.3308 80.7848C14.3308 81.0209 14.0128 81.1783 13.7744 81.1783Z" fill="#2B2C54"/>
<path d="M113.054 84.8772C112.974 84.8772 112.895 84.8772 112.815 84.7985C112.656 84.7198 112.577 84.5624 112.497 84.405C110.112 76.2201 107.569 68.0352 104.866 59.2994C103.435 54.8134 102.005 50.1701 100.574 45.5267C100.494 45.2906 100.574 44.9758 100.892 44.8184C107.012 41.513 113.451 38.6797 120.049 36.4761C120.366 36.3974 120.684 36.5548 120.843 36.8696C120.923 37.1844 120.764 37.4992 120.446 37.6566C114.087 39.8602 107.807 42.5361 101.925 45.6841C103.276 50.2488 104.707 54.656 106.059 58.9846C108.682 67.4843 111.146 75.4331 113.53 83.4606C119.174 81.493 124.738 79.2107 130.144 76.6923C130.461 76.5349 130.779 76.6923 130.938 77.0071C131.097 77.3219 130.938 77.6367 130.62 77.7941C124.977 80.3912 119.174 82.7522 113.292 84.7985C113.133 84.7985 113.133 84.8772 113.054 84.8772Z" fill="#2B2C54"/>
<path d="M120.286 81.729C120.048 81.729 119.81 81.5716 119.73 81.2568C116.233 68.1137 112.179 54.892 107.727 41.985C107.648 41.6702 107.807 41.3554 108.125 41.198C108.443 41.1193 108.761 41.2767 108.92 41.5915C113.371 54.4985 117.345 67.7202 120.922 80.942C121.002 81.2568 120.843 81.5716 120.525 81.6503C120.445 81.729 120.366 81.729 120.286 81.729Z" fill="#2B2C54"/>
<path d="M53.2775 63.864C51.8467 63.864 50.2569 63.2344 49.5415 61.8964C48.2697 59.378 50.6543 56.5448 51.5287 55.6791C54.8672 51.9014 58.2852 47.8877 62.5776 44.9757C67.4264 41.5916 72.6726 40.0963 77.4419 40.7259C79.9061 41.0407 82.2113 41.9064 84.4369 42.6934C85.1523 42.9295 85.8677 43.2443 86.6626 43.4804C91.3524 45.0544 96.2012 45.9202 101.13 45.9989C101.447 45.9989 101.765 46.3137 101.765 46.6285C101.765 46.9433 101.527 47.2581 101.13 47.2581C96.0422 47.1794 91.114 46.3137 86.3447 44.7396C85.6293 44.5035 84.8344 44.1887 84.119 43.9526C81.9728 43.1656 79.6676 42.2999 77.4419 42.0638C72.9906 41.5129 68.0623 42.9295 63.452 46.1563C59.3186 49.0682 55.9006 52.9246 52.6416 56.7022C50.8133 58.8271 50.2569 60.4011 50.8133 61.5816C51.3697 62.6047 52.6415 62.9983 53.6749 62.9196C54.8672 62.8409 55.9801 62.29 57.2519 61.739C58.0468 61.3455 58.9211 60.952 59.716 60.4798C64.8033 57.9614 69.6521 55.6004 74.1829 52.4523C74.4214 52.2949 74.8188 52.2949 75.0573 52.6097C75.2163 52.8458 75.2163 53.2394 74.8983 53.4755C70.288 56.7022 65.4392 59.0632 60.2724 61.6603C59.4776 62.0538 58.6032 62.4474 57.8083 62.9196C56.457 63.5492 55.1852 64.1788 53.7544 64.2575C53.5159 63.864 53.3569 63.864 53.2775 63.864Z" fill="#2B2C54"/>
<path d="M98.109 85.7429C97.8706 85.7429 97.6321 85.5855 97.5526 85.3494C97.3936 85.0346 97.5526 84.7198 97.8706 84.5624C102.242 82.7523 106.614 80.9421 110.907 79.0533C111.225 78.8959 111.543 79.0533 111.702 79.3681C111.861 79.6829 111.702 79.9977 111.384 80.1551C107.091 82.044 102.64 83.8541 98.268 85.6642C98.268 85.6642 98.1885 85.7429 98.109 85.7429Z" fill="#2B2C54"/>
<path d="M96.3629 88.1038C96.2039 88.1038 96.1244 88.1038 96.0449 88.1038C94.0577 87.8677 92.0705 86.6085 90.6397 84.4836C89.6858 83.1457 89.0499 81.6504 88.4935 80.2338C88.3345 79.7616 88.0961 79.2893 87.9371 78.8958C86.2678 75.2756 84.0422 71.8914 81.3396 68.9795C81.1011 68.7434 81.1011 68.3499 81.3396 68.1138C81.578 67.8777 81.9755 67.8777 82.2139 68.1138C85.0755 71.1045 87.3012 74.5673 89.0499 78.3449C89.2884 78.8171 89.4474 79.2893 89.6858 79.7615C90.3217 81.1782 90.8782 82.5948 91.7525 83.854C93.0244 85.6641 94.6141 86.7659 96.2834 86.9233C96.3629 86.9233 96.6808 87.002 96.7603 86.8446C96.9193 86.7659 96.9988 86.4511 96.9988 85.9002C96.7603 78.9745 94.4551 71.9701 90.4807 66.225C86.5063 60.4798 80.7831 55.8365 74.2651 53.1606C73.9471 53.0032 73.7882 52.6884 73.9471 52.3736C74.1061 52.0588 74.4241 51.9014 74.742 52.0588C81.419 54.8133 87.3807 59.6141 91.4346 65.5954C95.568 71.498 97.9526 78.7384 98.1911 85.9002C98.1911 86.2937 98.2706 87.3955 97.3962 87.8677C96.9988 88.0251 96.6808 88.1038 96.3629 88.1038Z" fill="#2B2C54"/>
<path d="M66.1581 94.7146C65.2838 94.7146 64.2504 94.5573 63.0581 93.6915C62.8196 93.5341 62.7401 93.1406 62.8991 92.8258C63.0581 92.5897 63.4555 92.511 63.7735 92.6684C64.8863 93.4554 65.8402 93.4554 66.7146 93.3767H66.7941C68.0659 93.298 69.4172 92.6684 70.1326 91.8027C70.4505 91.4092 70.848 90.7796 70.689 90.0713V89.9926C70.689 88.7334 70.53 87.3955 70.371 86.451C70.2915 86.2149 70.4505 85.9002 70.689 85.8215C70.9275 85.7427 71.2454 85.7427 71.4044 85.9788C72.3582 87.0019 73.2326 88.0251 74.4249 88.7334C75.6173 89.4417 76.9686 89.6778 78.0019 89.2843C79.4327 88.7334 80.8635 86.2937 80.5455 84.9557C80.4661 84.6409 80.7045 84.3261 81.0225 84.2474C81.3404 84.1687 81.6584 84.4048 81.7379 84.7196C82.2148 86.8445 80.2276 89.7565 78.3994 90.4648C76.9686 90.937 75.2993 90.7009 73.789 89.8352C73.0736 89.363 72.3582 88.8121 71.8018 88.2612C71.8813 88.8908 71.8813 89.5204 71.8813 90.15C71.9608 91.0944 71.7223 91.9601 71.0069 92.7471C70.0531 93.9276 68.3838 94.7146 66.7941 94.7146H66.7146C66.5556 94.6359 66.3966 94.7146 66.1581 94.7146Z" fill="#2B2C54"/>
<path d="M86.1086 89.7566C85.6317 89.7566 85.1548 89.5992 84.6778 89.4418C82.3727 88.5761 81.1803 86.0576 79.988 83.6966C79.1931 82.0439 78.3187 80.3125 77.2059 79.2894C76.9674 79.0532 76.9674 78.6597 77.1264 78.4236C77.3649 78.1875 77.7623 78.1876 78.0008 78.345C79.3521 79.5255 80.2265 81.3356 81.1008 83.067C82.2137 85.3493 83.247 87.4743 85.1548 88.1826C85.9496 88.4974 86.9035 88.8909 88.2548 86.6872C88.6523 86.0576 88.7317 85.3493 88.7317 84.641C88.8907 82.7522 88.3343 80.8634 87.8574 78.9746C87.7779 78.6597 87.6984 78.4236 87.6189 78.1088C87.5394 77.794 87.6984 77.4792 88.0958 77.4005C88.4138 77.3218 88.7317 77.4792 88.8112 77.8727C88.8907 78.1875 88.9702 78.4237 89.0497 78.7385C89.5266 80.706 90.083 82.7522 89.9241 84.7984C89.8446 85.6641 89.7651 86.6086 89.2881 87.3956C88.0958 89.2844 87.0625 89.7566 86.1086 89.7566Z" fill="#2B2C54"/>
<path d="M46.6793 89.4417C46.5998 89.4417 46.5998 89.4417 46.5203 89.4417C44.2152 89.363 42.3074 88.0251 41.751 86.215C41.5126 85.5067 41.5126 84.7984 41.6715 84.0901C40.3997 84.8771 38.8894 85.1919 37.4586 84.8771C35.233 84.4836 33.3252 82.6735 32.9278 80.5486C32.7688 79.6828 33.0868 79.2106 33.3252 78.8958C33.5637 78.6597 33.9611 78.6597 34.1996 78.8958C34.4381 79.1319 34.4381 79.5254 34.1996 79.7615C34.1201 79.8402 34.1201 79.9977 34.1201 80.3125C34.3586 81.9652 35.8689 83.3818 37.6176 83.6966C39.3664 84.0114 41.1946 83.3031 42.1485 81.9652C42.3074 81.7291 42.6254 81.6504 42.8639 81.8078C43.1023 81.7291 43.2613 81.6504 43.4203 81.5717C45.8049 80.6272 48.3486 80.0764 50.9717 79.8402C53.0384 79.6828 54.4692 80.155 55.1051 81.3356C55.423 81.8865 55.5025 82.5161 55.423 83.3031C55.2641 84.3262 54.8666 85.2706 54.2307 85.9789C53.5948 86.6872 52.7999 87.2381 52.005 87.7103C50.5742 88.4973 48.746 89.4417 46.6793 89.4417ZM43.1023 83.1457C42.8639 84.1688 42.7049 85.0345 42.9433 85.8215C43.4203 87.3168 45.0895 88.1825 46.5998 88.1825C48.3486 88.2613 50.0973 87.3955 51.3691 86.6872C52.0845 86.2937 52.7999 85.8215 53.2768 85.2706C53.7538 84.7197 54.1512 83.9327 54.2307 83.2244C54.3102 82.8309 54.3102 82.3587 54.0717 81.9652C53.5948 81.0994 52.164 81.0208 51.1307 81.0995C48.6665 81.2569 46.2024 81.8078 43.8972 82.7522C43.4998 82.8309 43.2613 82.9883 43.1023 83.1457Z" fill="#2B2C54"/>
<path d="M52.6412 93.4555C51.6874 93.4555 50.813 93.2195 50.0181 92.8259C48.5873 91.9602 47.6334 90.2288 47.7924 88.5761C47.7924 88.2613 48.1104 88.0252 48.4283 88.0252C48.7463 88.0252 48.9847 88.34 48.9847 88.6548C48.9053 89.8353 49.5412 91.1732 50.5745 91.7241C51.6079 92.3537 52.9592 92.3537 54.39 91.8815C55.7413 91.4093 56.8541 90.5436 58.0464 89.6779C59.7157 88.4187 61.226 86.9234 61.3849 85.1132C61.3849 85.0345 61.3849 84.8771 61.3849 84.7984C61.3849 84.7197 61.226 84.641 61.067 84.4836C60.1926 83.9327 59.0003 83.854 57.7285 84.0901C56.6156 84.3262 55.6618 84.7985 54.6284 85.3494L54.4694 85.4281C54.1515 85.5855 53.8335 85.4281 53.6746 85.1919C53.5156 84.9558 53.6746 84.5623 53.913 84.4049L54.072 84.3262C55.1848 83.7753 56.2182 83.2244 57.49 82.9883C59.0798 82.6735 60.5901 82.8309 61.7029 83.4605C61.9414 83.6179 62.3388 83.854 62.4978 84.3262C62.6568 84.641 62.6568 84.9559 62.6568 85.2707C62.4978 87.553 60.749 89.2057 58.8413 90.6223C57.649 91.5667 56.3772 92.5111 54.8669 92.9833C54.1515 93.2981 53.3566 93.4555 52.6412 93.4555Z" fill="#2B2C54"/>
<path d="M59.7153 95.1869C58.841 95.1869 57.9666 94.9507 57.2512 94.6359C56.3768 94.1637 55.423 93.298 55.5025 92.1175C55.5025 91.8027 55.8204 91.5666 56.1384 91.5666C56.4563 91.5666 56.6948 91.8814 56.6948 92.1962C56.6948 92.7471 57.2512 93.298 57.8076 93.5341C58.6025 93.9276 59.5564 94.085 60.5102 93.9276C61.941 93.6915 63.2128 92.7471 64.2462 91.8814C65.4385 90.8583 65.9154 90.0713 65.8359 89.2843C65.7565 88.4186 64.7231 87.789 63.8487 87.7103C62.9744 87.6316 62.1 88.0251 61.0666 88.8121C60.8282 89.0482 60.4307 88.9695 60.1923 88.7334C59.9538 88.4973 60.0333 88.1038 60.2718 87.8677C61.0666 87.2381 62.3385 86.4511 63.8487 86.5298C65.2 86.6085 66.7898 87.6316 66.9488 89.1269C67.1078 90.7009 65.9154 91.9601 64.9616 92.7471C63.8487 93.6915 62.4179 94.7933 60.6692 95.1082C60.3512 95.1082 60.0333 95.1869 59.7153 95.1869Z" fill="#2B2C54"/>
<path d="M42.7877 82.5949C42.4697 82.5949 42.2312 82.3588 42.2312 82.1227C41.9928 80.8635 40.6415 80.1552 39.8466 79.8404C37.5414 78.896 35.5542 78.896 33.885 79.9191C33.6465 80.0765 33.249 79.9978 33.0901 79.7617C30.7849 76.6136 27.9233 74.2526 24.5053 72.7573C24.1874 72.5999 24.0284 72.2851 24.1874 71.9703C24.3463 71.6555 24.6643 71.4981 24.9823 71.6555C28.4003 73.1508 31.3413 75.4331 33.726 78.5812C35.6337 77.6368 37.8594 77.6368 40.3235 78.6599C42.0723 79.3682 43.1851 80.5487 43.4236 81.8866C43.5031 82.2014 43.2646 82.5162 42.9466 82.5949C42.7877 82.5949 42.7877 82.5949 42.7877 82.5949Z" fill="#2B2C54"/>
<path d="M34.0406 46.0776C33.8021 46.0776 33.4842 45.9202 33.4842 45.6054C33.4047 45.2906 33.6431 44.9758 33.9611 44.8971C40.6381 43.4018 46.8382 41.2769 51.9255 39.388L52.4024 39.2306C54.3896 38.5223 56.3768 37.814 58.523 37.5779C63.4513 37.027 67.9822 39.1519 71.9566 40.9621C72.2745 41.1195 72.354 41.4343 72.2745 41.7491C72.1156 42.0639 71.7976 42.1426 71.4796 42.0639C67.6642 40.2537 63.2923 38.2862 58.682 38.7584C56.6948 38.9945 54.7076 39.7028 52.8793 40.3324L52.4024 40.4898C47.2357 42.3787 41.0356 44.5036 34.279 45.9989C34.1201 46.0776 34.0406 46.0776 34.0406 46.0776Z" fill="#2B2C54"/>
<path d="M45.9639 35.6891C45.7255 35.6891 45.5665 35.6104 45.487 35.3743C45.328 35.0595 45.4075 34.7446 45.646 34.5085C51.1307 31.0457 57.7282 29.393 64.2463 29.7078C64.5642 29.7078 64.8027 30.0226 64.8027 30.3374C64.8027 30.6522 64.4847 30.8883 64.1668 30.8883C57.8872 30.5735 51.5281 32.1475 46.2819 35.4529C46.2024 35.6103 46.1229 35.6891 45.9639 35.6891Z" fill="#2B2C54"/>
<path d="M42.2315 29.7865C42.0725 29.7865 41.8341 29.7078 41.7546 29.5504C41.5956 29.2356 41.6751 28.9208 41.9136 28.6847C45.1726 26.5597 48.9085 25.1431 52.724 24.4348C53.0419 24.3561 53.3599 24.5922 53.4394 24.907C53.5189 25.2218 53.2804 25.5366 52.9625 25.6153C49.306 26.2449 45.729 27.6616 42.629 29.6291C42.47 29.7865 42.311 29.7865 42.2315 29.7865Z" fill="#2B2C54"/>
<path d="M80.9406 95.5805C80.6226 95.5805 80.3842 95.3444 80.3047 95.0296C80.3047 94.7148 80.5432 94.4 80.8611 94.4C84.3586 94.3213 87.8561 92.9834 90.5587 90.7798C90.7972 90.5437 91.1946 90.6224 91.4331 90.8585C91.6715 91.0946 91.592 91.4881 91.3536 91.7242C88.4125 94.0852 84.756 95.5018 80.9406 95.5805Z" fill="#2B2C54"/>
</svg>
