<svg width="117" height="120" viewBox="0 0 117 120" fill="none" xmlns="http://www.w3.org/2000/svg">
<path d="M1.18611 112.898C11.0184 106.343 20.772 99.7874 30.6043 93.2319C31.9415 92.2954 33.3574 91.437 34.9305 90.9687C36.2677 90.5785 37.6049 90.5785 39.0208 90.5785C53.5726 90.5785 68.1244 90.5005 82.5976 90.5005L115.791 113.132L116.027 119.22L1.10742 118.751L1.18611 112.898Z" fill="#D4CAFB"/>
<path d="M107.293 106.187C107.293 106.187 92.6621 96.1195 92.6621 95.8073C93.0554 91.7492 93.5273 87.6911 94.5499 83.789C95.1005 81.5259 95.9657 79.2627 97.6962 77.7019C99.4267 76.2191 102.416 75.8289 103.989 77.4677C105.011 78.4823 105.326 79.965 105.562 81.3698C106.978 89.5641 107.45 97.9144 107.293 106.187Z" fill="#D4CAFB"/>
<path d="M93.6809 71.7707C92.8944 68.8051 93.6809 65.3713 95.726 63.0301C97.1419 61.3913 99.187 60.2206 101.311 60.0646C103.513 59.9085 105.794 60.6889 107.132 62.4058C108.39 64.0446 108.783 66.1517 108.705 68.2588C108.547 70.9122 107.604 73.6437 105.401 75.1264C104.221 75.9068 102.805 76.2971 101.468 76.2971C100.288 76.3751 99.187 76.219 98.0858 75.8288C96.1193 75.1264 94.1529 73.6437 93.6809 71.7707Z" fill="#D4CAFB"/>
<path d="M50.1848 63.4203C49.3983 60.2207 50.1848 56.7088 52.2299 54.2115C53.6458 52.4946 55.6909 51.246 57.8147 51.0899C60.0172 50.8558 62.2982 51.7923 63.6354 53.5872C64.894 55.3041 65.2872 57.5673 65.2086 59.7524C65.0513 62.5619 64.1074 65.4494 61.9049 67.0102C60.725 67.7906 59.3092 68.1808 57.972 68.2589C56.7921 68.3369 55.6909 68.1808 54.5897 67.7906C52.5446 66.9322 50.6568 65.3714 50.1848 63.4203Z" fill="#D4CAFB"/>
<path d="M9.9108 72.1608C9.12421 69.1173 9.9108 65.6835 11.8773 63.2642C13.2931 61.6253 15.2596 60.4547 17.3833 60.2206C19.5071 60.0645 21.7096 60.923 23.0468 62.6399C24.3053 64.2787 24.6986 66.4639 24.6199 68.571C24.5413 71.2244 23.5973 74.0338 21.3949 75.5946C20.2937 76.3751 18.8779 76.7653 17.5407 76.8433C16.4395 76.9213 15.2596 76.7653 14.237 76.3751C12.2705 75.5946 10.3827 74.0338 9.9108 72.1608Z" fill="#D4CAFB"/>
<path d="M10.3828 106.811C10.6188 100.412 10.8548 93.9343 11.2481 87.5349C11.4054 85.3498 11.5627 83.0866 12.3493 81.1356C13.2145 79.1065 14.8663 77.3116 17.0688 76.9214C17.698 76.8433 18.2487 76.8433 18.878 76.9994C20.6084 77.5457 21.5523 79.4187 22.1816 81.1356C23.9907 86.2083 24.856 91.6711 24.856 97.0559C22.9682 98.4607 21.0017 99.8654 19.1139 101.192C16.2822 103.143 13.4505 105.094 10.3828 106.811Z" fill="#D4CAFB"/>
<g opacity="0.1294">
<path d="M116.652 113.991C116.416 113.679 116.18 113.444 115.944 113.288C115.314 113.288 114.685 113.288 114.134 113.288C113.191 113.288 112.247 113.21 111.303 112.898C111.224 112.898 111.224 112.898 111.145 112.82C103.358 112.898 95.4924 112.664 87.7052 112.508H87.6265C86.6826 112.586 85.6601 112.586 84.6375 112.586C83.615 112.586 82.6711 112.586 81.6485 112.586C79.6821 112.586 77.7156 112.586 75.7491 112.586C71.8162 112.586 67.8046 112.586 63.8717 112.664C63.6357 112.664 63.4784 112.586 63.3998 112.43C57.2644 112.664 51.129 112.82 44.9937 112.508C42.8699 112.43 40.8248 112.43 38.701 112.43C32.8016 112.508 26.9022 112.586 21.0028 112.586C17.6992 112.664 14.3956 112.586 11.0919 112.586C9.44008 112.586 7.78826 112.664 6.13644 112.742C4.48461 112.82 2.83277 112.82 1.2596 112.898C1.02363 112.898 0.866301 112.82 0.708984 112.742C0.787643 113.991 0.866292 115.239 0.94495 116.488C1.02361 117.347 1.10231 118.205 1.18096 119.063C3.85535 119.688 6.68705 119.844 9.4401 119.766C11.9572 119.688 14.3956 119.376 16.9126 119.376C19.4297 119.376 21.8681 119.376 24.3852 119.376C26.9023 119.376 29.4193 119.298 32.015 119.376C32.6443 119.376 33.3522 119.454 33.9815 119.454C38.8583 119.063 43.6565 118.751 48.5333 118.829C51.2077 118.829 53.8821 119.063 56.6352 119.219C60.1748 119.376 63.6357 119.298 67.1754 119.376C72.9174 119.532 78.5808 119.844 84.3229 119.688C88.7278 119.61 93.2113 119.61 97.6162 119.532C103.594 119.298 109.651 119.219 115.629 119.61C116.101 119.61 116.573 119.454 116.966 119.219C116.887 118.673 116.809 118.049 116.809 117.503C116.809 116.722 116.809 115.942 116.809 115.161C116.494 114.771 116.573 114.303 116.652 113.991Z" fill="#2B2C54"/>
</g>
<path d="M12.9894 86.6764H12.9107C12.832 86.5983 12.832 86.5203 12.832 86.3642C14.7198 83.6328 16.7649 81.0574 18.9674 78.5601C19.046 78.4821 19.2034 78.4821 19.282 78.5601C19.3607 78.6382 19.3607 78.7942 19.282 78.8723C17.0796 81.2915 15.0345 83.9449 13.2253 86.5983C13.1467 86.5983 13.068 86.6764 12.9894 86.6764Z" fill="#2B2C54"/>
<path d="M12.671 92.6857H12.5924C12.5137 92.6076 12.5137 92.5296 12.5137 92.3735C15.0307 88.6275 17.7838 84.9596 20.6155 81.5258C20.6941 81.4478 20.7728 81.4478 20.9301 81.5258C21.0088 81.6039 21.0088 81.6819 20.9301 81.838C18.0984 85.2718 15.3454 88.9397 12.8283 92.6857C12.8283 92.6857 12.7497 92.6857 12.671 92.6857Z" fill="#2B2C54"/>
<path d="M13.068 97.446C12.9893 97.446 12.9893 97.446 12.9107 97.368C12.832 97.2899 12.832 97.2119 12.832 97.0558L21.2485 85.8179C21.3272 85.7399 21.4058 85.7399 21.5631 85.7399C21.6418 85.8179 21.6418 85.8959 21.6418 86.052L13.2253 97.2899C13.1467 97.446 13.068 97.446 13.068 97.446Z" fill="#2B2C54"/>
<path d="M12.8247 103.923H12.746C12.6673 103.845 12.5887 103.767 12.6674 103.611C15.4991 99.241 18.5667 94.8707 21.7131 90.7345C21.7917 90.6565 21.8704 90.6565 22.0277 90.6565C22.1064 90.7345 22.1064 90.8126 22.1064 90.9687C18.96 95.1048 15.8923 99.4751 13.0606 103.845C12.9033 103.845 12.8247 103.923 12.8247 103.923Z" fill="#2B2C54"/>
<path d="M18.8843 100.88C18.8056 100.88 18.8056 100.88 18.727 100.802C18.6483 100.724 18.6483 100.646 18.727 100.49L22.4239 95.6511C22.5026 95.573 22.5812 95.573 22.7385 95.6511C22.8172 95.7291 22.8172 95.8071 22.7385 95.9632L19.0416 100.802C19.0416 100.88 18.9629 100.88 18.8843 100.88Z" fill="#2B2C54"/>
<g opacity="0.1294">
<path d="M25.0994 65.7614C25.0994 65.6834 25.0994 65.6053 25.0994 65.5273C25.0207 65.059 25.0994 64.5127 24.7848 64.1225C24.5488 63.8104 24.1555 63.7323 23.8409 63.9665C23.4476 64.2006 23.4476 64.6688 23.5262 65.059C23.6049 65.5273 23.6049 65.9955 23.6049 66.3857C23.6049 67.01 23.5262 68.1026 23.2903 69.1171C22.5037 72.3168 20.7732 73.7996 18.8067 74.1898C17.8628 74.2678 17.4695 74.3459 15.975 74.3459C15.7391 74.3459 14.8738 74.2678 14.6378 74.2678C14.0086 74.1898 13.458 74.1118 12.8287 73.9557C12.5927 73.8776 12.3568 73.9557 12.1994 74.0337C11.5702 74.3459 11.7274 75.3604 12.3567 75.5165C12.5927 75.5945 12.75 75.5945 12.986 75.6726C13.0647 75.7506 13.1433 75.8287 13.3006 75.9067C14.0085 76.1408 14.7952 76.375 15.5817 76.453C16.0537 76.453 16.5256 76.453 16.9976 76.453C17.4695 76.453 17.8628 76.453 18.3348 76.453H18.4134C20.4585 76.531 22.2677 75.3604 23.6049 73.8776C25.0208 72.3949 25.65 69.4293 25.7286 68.1807C25.7286 67.4002 25.7287 66.1516 25.0994 65.7614Z" fill="#2B2C54"/>
</g>
<g opacity="0.1294">
<path d="M21.7897 88.1592C22.0256 91.9052 21.947 95.6512 21.947 99.3971C22.2616 99.163 22.5762 98.9289 22.9695 98.6948C23.5988 98.2265 24.3067 97.6802 24.936 97.212C24.7787 95.7292 24.6214 94.2464 24.4641 92.6856C24.1494 90.2663 23.6775 84.6474 22.8123 80.9014C22.6549 80.4332 22.4976 79.7308 22.1043 79.3406C22.0257 79.1065 21.8683 78.8724 21.711 78.6382C21.3964 78.248 21.2391 77.5457 20.6885 77.3896C20.0592 77.2335 19.4299 77.9359 19.8232 78.5602C21.8683 81.3697 21.7897 84.3352 21.7897 88.1592Z" fill="#2B2C54"/>
</g>
<path d="M17.0784 77.0774C15.8985 77.0774 14.7186 76.8433 13.6174 76.4531C12.8308 76.219 12.2802 75.9068 11.8083 75.5166C10.7857 74.7362 10.0778 73.6436 9.52718 72.0828C9.21255 71.0683 9.05522 70.2098 8.97656 69.3514C8.97656 68.3368 9.13387 67.2443 9.60582 65.9956C10.3137 63.9666 11.4937 62.2497 12.9882 61.001C14.7187 59.5963 16.8424 58.9719 18.8089 59.128C20.7753 59.3621 22.6632 60.6888 24.0003 62.7959C25.0229 64.4348 25.5735 66.5419 25.6522 68.8051C25.6522 69.7416 25.5735 70.444 25.4162 71.1463C24.8656 73.4095 23.0564 75.3605 20.6967 76.297C19.5168 76.8433 18.3369 77.0774 17.0784 77.0774ZM18.0223 60.3767C16.5278 60.3767 14.9546 60.923 13.6961 62.0155C12.3589 63.1081 11.3363 64.5909 10.7071 66.4639C10.3138 67.5564 10.1564 68.4929 10.1564 69.3514C10.1564 70.0537 10.3138 70.8342 10.6284 71.6926C11.1004 73.0193 11.7296 73.9558 12.5162 74.5801C12.9095 74.8923 13.3815 75.1264 14.0107 75.3605C16.0558 76.0629 18.3369 76.0629 20.1461 75.2825C22.1125 74.5021 23.607 72.7852 24.1576 70.9122C24.3149 70.2879 24.3936 69.6635 24.3936 68.8051C24.3936 66.776 23.9217 64.9031 22.9778 63.4203C22.4271 62.5618 20.9326 60.5328 18.6515 60.2986C18.4156 60.3767 18.2583 60.3767 18.0223 60.3767Z" fill="#2B2C54"/>
<path d="M10.2328 107.279C10.1542 107.279 9.99683 107.279 9.91817 107.201C9.76085 107.123 9.60352 106.889 9.60352 106.655C9.76083 99.0068 10.2328 92.1392 10.9407 85.6618C11.1767 83.3206 11.4913 81.0574 12.6712 79.1064C13.7724 77.2334 16.2108 75.4385 18.8066 76.0628C21.4023 76.6091 23.1328 79.1844 23.9194 83.6328C24.6273 87.5348 25.1779 91.749 25.7285 96.8997C25.7285 97.1338 25.6498 97.2899 25.4925 97.446C25.1779 97.6801 24.8632 97.9142 24.5486 98.1484C24.1553 98.4605 23.762 98.7727 23.3687 99.0849C22.8968 99.397 22.4248 99.7872 21.9529 100.099C20.8517 100.802 19.8291 101.426 18.8066 102.05C17.4694 102.831 16.2108 103.689 14.8736 104.47C13.5364 105.25 12.1993 106.109 10.9407 106.967L10.8621 107.045L10.7048 107.123C10.3901 107.279 10.3115 107.279 10.2328 107.279ZM17.784 77.1554C16.1322 77.1554 14.4803 78.404 13.6938 79.7307C12.6712 81.4476 12.3566 83.4767 12.1206 85.7399C11.4913 91.9051 11.0194 98.3825 10.8621 105.562C11.9633 104.86 13.0645 104.236 14.1657 103.533C15.5029 102.753 16.7615 101.894 18.0987 101.114C19.1212 100.49 20.1438 99.7872 21.245 99.1629C21.717 98.8507 22.1889 98.4605 22.6608 98.1484C23.0541 97.8362 23.4474 97.524 23.8407 97.2119C24.0767 97.0558 24.234 96.8997 24.47 96.7436C23.998 91.749 23.4474 87.6909 22.7395 83.8669C22.0316 79.8868 20.6157 77.7017 18.5706 77.2334C18.256 77.2334 18.02 77.1554 17.784 77.1554Z" fill="#2B2C54"/>
<g opacity="0.1294">
<path d="M108.159 66.542C107.372 66.6981 107.372 67.4785 107.294 68.0248C107.372 67.4785 107.294 68.2589 107.215 68.6491C106.743 70.5221 106.271 71.5366 105.563 72.239C104.462 73.2535 101.788 74.3461 100.687 74.3461C100.608 74.3461 100.608 74.3461 100.608 74.3461C100.451 74.3461 100.215 74.2681 100.057 74.2681C99.6639 74.19 99.2706 74.112 98.8773 74.112C98.7987 74.112 98.6414 74.112 98.5627 74.112C98.2481 74.112 97.8548 74.034 97.5402 74.19C96.3603 74.5802 96.5962 76.3752 97.8548 76.4532C99.1133 76.5313 98.0121 76.5313 99.5066 76.6093C99.8213 76.6093 100.136 76.5313 100.45 76.5313C101.788 76.5313 103.361 76.2191 105.17 75.3607C107.687 74.112 109.103 71.3025 109.339 68.5711C109.418 67.6346 109.575 66.464 108.159 66.542Z" fill="#2B2C54"/>
</g>
<g opacity="0.1294">
<path d="M103.748 89.0958C103.827 91.281 103.669 93.4661 103.748 95.5732C103.905 97.9144 104.22 99.6313 104.141 103.689C104.141 104.002 104.141 104.236 104.063 104.47C104.456 104.782 104.849 105.016 105.243 105.328C105.793 105.719 106.344 106.109 106.816 106.499C106.816 106.031 106.816 105.562 106.737 105.094C106.58 104.08 106.58 104.08 106.58 103.689C106.58 101.816 106.816 96.1975 106.659 92.9979C106.659 91.0468 106.423 88.5495 106.344 87.3789C106.265 85.1938 106.108 83.0086 105.557 80.9015C105.164 79.4968 104.613 77.8579 103.434 76.9214C102.568 76.4532 101.624 77.6238 102.332 78.4042C104.613 81.2137 104.063 84.6475 103.748 89.0958Z" fill="#2B2C54"/>
</g>
<path d="M100.925 76.9214C99.588 76.9214 98.1721 76.6092 96.8349 76.0629C96.127 75.7508 95.5764 75.4386 95.1044 75.0484C94.1605 74.268 93.4526 73.0974 93.0593 71.4585C92.8233 70.444 92.666 69.5855 92.666 68.7271C92.666 67.7125 92.9806 66.62 93.4526 65.4494C94.3178 63.4203 95.5764 61.7814 97.1496 60.6889C98.9587 59.4402 101.082 58.8939 103.049 59.2061C105.015 59.5183 106.825 61.001 108.004 63.1862C108.948 64.9031 109.42 67.0102 109.263 69.2734C109.184 70.2099 109.106 70.9122 108.87 71.6146C108.162 73.7997 106.195 75.6727 103.836 76.4531C102.97 76.7653 101.948 76.9214 100.925 76.9214ZM101.948 60.2987C100.532 60.2987 99.116 60.7669 97.8575 61.6254C96.5203 62.6399 95.3404 64.0446 94.5538 65.8396C94.0818 66.8541 93.8459 67.8686 93.8459 68.7271C93.8459 69.4294 93.9245 70.2099 94.1605 71.1463C94.5538 72.5511 95.1044 73.4876 95.891 74.1899C96.2843 74.5021 96.7562 74.7362 97.3068 75.0484C99.352 75.9068 101.554 75.9849 103.442 75.3606C105.487 74.6582 107.06 73.0974 107.69 71.2244C107.847 70.6781 108.004 69.9757 108.083 69.1953C108.24 67.1663 107.847 65.2933 106.982 63.7325C106.51 62.874 105.094 60.7669 102.892 60.3767C102.577 60.2987 102.262 60.2987 101.948 60.2987Z" fill="#2B2C54"/>
<path d="M107.294 107.435C107.136 107.435 107.058 107.357 106.9 107.357C106.271 106.889 105.563 106.421 104.934 105.953C103.361 104.782 101.788 103.689 100.215 102.597C99.4279 102.051 98.6414 101.504 97.8548 100.958C96.0456 99.7093 94.1578 98.3826 92.3487 97.134C92.1914 96.9779 92.0341 96.8218 92.1127 96.5877C92.5847 92.8417 93.0566 89.0958 93.6859 85.1937C94.0792 82.8525 94.5511 80.6674 95.8097 78.7944C97.0682 76.9994 99.5853 75.3606 102.102 76.141C104.619 76.8434 106.193 79.4967 106.743 84.0231C107.608 91.7492 107.844 99.5533 108.002 106.889C108.002 107.123 107.844 107.357 107.687 107.435C107.451 107.435 107.372 107.435 107.294 107.435ZM93.2926 96.2755C95.1017 97.4461 96.8322 98.6948 98.5627 99.8654C99.3493 100.412 100.136 100.958 100.922 101.504C102.496 102.597 104.147 103.767 105.721 104.86C106.035 105.094 106.35 105.328 106.743 105.562C106.586 98.6168 106.35 91.2809 105.563 84.0231C105.091 80.043 103.833 77.7018 101.788 77.1555C99.8999 76.6092 97.8548 77.8579 96.8322 79.3407C95.6523 80.9795 95.2591 83.0086 94.8658 85.2718C94.1578 89.0177 93.7645 92.6076 93.2926 96.2755Z" fill="#2B2C54"/>
<path d="M55.2964 90.5005C56.9482 90.5005 58.6 90.5005 60.2519 90.4224C61.9037 90.3444 63.6342 90.2663 65.286 90.1883C65.4433 90.1883 65.522 90.1883 65.6793 90.1883C65.4433 87.613 65.2074 85.0376 64.8927 82.4623C64.4994 78.4822 64.1061 74.4241 62.3757 70.9122C61.9037 70.0538 61.3531 69.1173 60.5665 68.571C58.6787 67.3223 55.9257 68.2588 54.5098 70.0538C53.094 71.8487 52.7007 74.1899 52.386 76.4531C51.7568 81.1356 51.3635 85.74 51.0488 90.4224C52.5433 90.5005 53.8806 90.5005 55.2964 90.5005Z" fill="#9981F5"/>
<g opacity="0.1294">
<path d="M65.7594 58.4258C65.4447 58.0356 64.7368 58.3477 64.8155 58.816C64.8155 59.3623 64.3435 60.5329 64.0289 61.3913C63.3996 63.1082 61.9838 64.513 59.7814 65.6055C58.9948 65.9177 57.1856 66.3079 55.4551 66.2299C55.0618 66.2299 54.5899 66.0738 53.7246 65.9177C53.4887 65.8397 53.2527 65.9177 53.0954 65.9957C52.4661 66.3079 52.6234 67.3224 53.3314 67.4785C56.1631 68.415 59.4667 67.8687 62.0624 66.3859C63.085 65.6836 64.1862 64.8251 64.6581 63.6545L64.5795 63.8106C64.9728 63.1863 65.2874 62.4839 65.5234 61.7815C65.7594 61.0792 65.9167 59.9866 65.9167 59.5964C65.838 59.2062 66.074 58.7379 65.7594 58.4258Z" fill="#2B2C54"/>
</g>
<g opacity="0.1294">
<path d="M61.1953 72.2389C61.3527 73.2535 61.3526 73.3315 61.5099 74.7362C61.5099 75.0484 61.5099 75.3606 61.5099 75.6727C61.5099 75.5947 61.5099 75.5947 61.5099 75.5166C61.5099 76.5312 61.7459 77.5457 61.8246 78.5602C61.9033 81.916 62.0606 85.2718 62.1392 88.6275C62.1392 89.1738 62.2179 89.7201 62.2179 90.2664C63.2404 90.1883 64.263 90.1883 65.2856 90.1103H65.3642C65.2856 87.3789 65.2069 84.7255 64.9709 81.994C64.6563 78.092 64.499 75.9069 64.027 74.268C63.791 72.6291 63.4764 71.7707 63.1618 71.2244C62.7685 70.2099 62.1392 69.3514 61.4313 68.571C61.038 68.1808 60.8021 67.6345 60.1728 67.6345C59.4649 67.6345 58.9929 68.571 59.5435 69.1173C60.8807 70.6781 60.9594 71.0683 61.1953 72.2389Z" fill="#2B2C54"/>
</g>
<path d="M57.7366 68.571C56.5567 68.571 55.3768 68.3368 54.2756 67.9466C53.489 67.7125 52.9384 67.4003 52.4664 67.0101C51.4439 66.2297 50.736 65.1372 50.1854 63.5763C49.8708 62.5618 49.7134 61.7034 49.6348 60.8449C49.6348 59.8304 49.7921 58.7378 50.264 57.4892C50.9719 55.4601 52.1518 53.7432 53.6463 52.4945C55.3768 51.0898 57.5006 50.4655 59.4671 50.6216C61.4335 50.8557 63.3213 52.1824 64.6585 54.2895C65.6811 55.9283 66.2317 58.0354 66.3104 60.2986C66.3104 61.2351 66.2317 61.9375 66.0744 62.6399C65.5238 64.903 63.7146 66.8541 61.3549 67.7906C60.0964 68.3368 58.9164 68.571 57.7366 68.571ZM58.6805 51.8702C57.186 51.8702 55.6128 52.4165 54.3543 53.5091C53.0171 54.6016 51.9945 56.0844 51.3653 57.9574C50.972 59.05 50.8146 59.9865 50.8146 60.8449C50.8146 61.5473 50.9719 62.3277 51.2866 63.1861C51.7585 64.5128 52.3878 65.4493 53.1744 66.0737C53.5677 66.3858 54.0397 66.6199 54.6689 66.8541C56.714 67.5564 58.9951 67.5564 60.8043 66.776C62.7707 65.9956 64.3439 64.2787 64.8158 62.4057C64.9731 61.7814 65.0518 61.1571 65.0518 60.2986C65.0518 58.2696 64.5799 56.3966 63.636 54.9138C63.0853 54.0554 61.5908 52.0263 59.3097 51.7922C59.0738 51.8702 58.8378 51.8702 58.6805 51.8702Z" fill="#2B2C54"/>
<path d="M56.5528 91.0468C56.1595 91.0468 55.6876 91.0468 55.2943 91.0468C54.665 91.0468 54.1144 91.0468 53.4852 91.0468C52.6986 91.0468 51.8333 91.0468 51.0467 91.0468C50.8894 91.0468 50.7321 90.9687 50.6534 90.8907C50.5748 90.7346 50.4961 90.5785 50.4961 90.4224C50.7321 85.74 51.0467 81.3697 51.5187 77.1555C51.7547 74.8143 52.0693 72.5511 53.2491 70.6001C54.3504 68.7271 56.7888 66.9321 59.3845 67.5565C61.9803 68.1027 63.7107 70.6781 64.4973 75.1264C65.2839 79.4967 65.9132 84.2572 66.4638 90.0322C66.4638 90.1883 66.4638 90.3444 66.3065 90.5005C66.2278 90.6566 66.0705 90.7346 65.9132 90.7346H65.4412C64.1827 90.8126 63.0028 90.8127 61.7443 90.8907L60.4071 90.9687C59.1485 91.0468 57.89 91.0468 56.5528 91.0468ZM51.7547 89.8762C52.3839 89.8762 52.9345 89.8762 53.5638 89.8762C54.1931 89.8762 54.7437 89.8762 55.3729 89.8762C57.1821 89.8762 58.7552 89.8762 60.2498 89.7981L61.587 89.7201C62.7668 89.642 63.9467 89.642 65.1266 89.564C64.576 84.0231 63.9467 79.4967 63.2388 75.3605C62.5308 71.3805 61.115 69.1953 59.0699 68.7271C57.1821 68.2588 55.2156 69.6636 54.193 71.2244C53.1705 72.9413 52.8559 74.9704 52.6199 77.2335C52.3052 81.2917 51.9906 85.4278 51.7547 89.8762Z" fill="#2B2C54"/>
<path d="M0.709016 113.991C0.47304 113.991 0.237056 113.835 0.158397 113.601C0.0797387 113.366 0.158436 113.054 0.394411 112.898C8.18159 107.748 14.9462 103.221 20.9242 99.163C25.6437 95.9633 30.1273 92.9978 34.2175 90.2664C34.2962 90.1883 34.4535 90.1883 34.5321 90.1883C42.9486 90.1103 51.6797 89.9542 60.0175 89.7981C67.3327 89.642 74.9626 89.564 82.4351 89.486C82.5138 89.486 82.6711 89.486 82.7497 89.564C90.065 93.8562 97.3802 99.163 104.459 104.314C108.628 107.357 112.64 110.245 116.573 112.898C116.809 113.054 116.888 113.288 116.809 113.601C116.73 113.835 116.494 113.991 116.258 113.991C114.921 113.991 111.145 113.991 106.033 113.913C83.379 113.757 30.0486 113.366 0.709016 113.991ZM45.0724 112.508C68.5912 112.508 92.7394 112.664 106.19 112.82C109.73 112.82 112.561 112.898 114.449 112.898C110.988 110.479 107.37 107.904 103.909 105.328C96.9083 100.256 89.593 94.9488 82.4351 90.7346C74.9626 90.8126 67.49 90.9687 60.1748 91.0468C51.837 91.2029 43.1846 91.3589 34.8468 91.437C30.7565 94.0904 26.3517 97.0559 21.7108 100.256C16.2047 104.002 9.99072 108.138 2.8328 112.82C14.4742 112.586 29.6553 112.508 45.0724 112.508Z" fill="#2B2C54"/>
<path d="M99.1096 120C84.1645 120 56.9487 119.922 7.94448 119.688C3.61827 119.688 1.02255 119.688 0.629258 119.688C0.471941 119.688 0.314595 119.61 0.157278 119.532C0.07862 119.376 0 119.22 0 119.063C0.0786584 117.034 0.0786584 115.318 0 113.835C0 113.523 0.235937 113.21 0.550571 113.21C0.865204 113.21 1.17988 113.445 1.17988 113.757C1.25853 115.161 1.25853 116.722 1.17988 118.517C2.28109 118.517 4.56219 118.517 7.86584 118.517C74.9615 118.829 111.223 118.907 115.707 118.751C115.785 117.737 115.707 116.566 115.707 115.396C115.707 114.693 115.707 113.991 115.707 113.367C115.707 113.054 115.942 112.742 116.336 112.742C116.65 112.742 116.965 112.976 116.965 113.367C116.965 113.913 116.965 114.615 116.965 115.318C116.965 116.722 117.044 118.127 116.965 119.298C116.965 119.532 116.808 119.688 116.572 119.766C116.257 119.922 113.032 120 99.1096 120Z" fill="#2B2C54"/>
<path d="M19.9729 50.5435C22.254 46.7976 22.5686 42.0371 20.7595 38.057C19.5796 35.4817 17.6131 33.2965 16.04 30.8772C14.4668 28.458 13.2869 25.6485 13.8375 22.6049C14.2308 20.4978 14.7814 18.3907 15.6467 16.4397C18.0064 11.289 22.6473 7.38693 27.8387 5.04571C33.0302 2.70448 38.7723 1.76799 44.5143 1.29974C49.9418 0.909541 55.2905 0.67542 60.7179 0.597379C67.2466 0.519338 73.9326 0.831501 79.9893 3.32881C82.9783 4.57746 85.6527 6.45044 87.6978 8.86971C89.7429 11.289 91.0801 14.3326 91.3161 17.5322C92.5746 18.0785 93.5972 19.015 94.5411 20.1076C97.4514 23.4634 98.8673 28.1458 98.3167 32.5161C97.7661 36.9644 95.249 41.1006 91.5521 43.5979C91.3161 43.754 91.0015 43.9881 90.8442 44.3003C90.7655 44.5344 90.7655 44.8466 90.8442 45.1587C91.2374 47.656 91.552 50.0753 91.788 52.5726C90.3722 51.6361 89.1923 50.3875 87.8551 49.3729C84.2368 46.4854 79.5173 44.8466 74.7192 44.8466C70.9436 44.9246 67.168 45.627 63.3923 45.9391C59.6167 46.3293 55.6838 46.3293 52.0655 45.1587C48.4472 43.9881 45.1436 41.4128 43.6491 37.979C39.0869 37.2766 34.3674 38.7594 30.5131 41.1786C26.6589 43.6759 23.3552 47.0317 19.9729 50.5435Z" fill="#D4CAFB"/>
<g opacity="0.1294">
<path d="M98.5541 29.0825C98.3968 27.0534 97.8462 25.0243 97.1383 23.1513C96.5877 22.6051 96.1157 21.9807 95.7224 21.2784C95.4864 20.8882 95.3291 20.498 95.1718 20.1858C94.3852 20.498 95.0145 21.4344 95.1718 22.0588C95.4864 23.2294 95.8797 24.4 96.1157 25.5706C96.509 27.2095 96.509 29.3166 96.1944 30.5652C96.037 32.2041 95.3291 35.0136 94.5425 36.3403C92.9693 38.7595 92.3401 39.5399 90.6096 41.569C90.4523 41.647 90.3736 41.7251 90.2163 41.8031C90.059 41.9592 89.823 42.1933 89.6657 42.4274C89.1151 42.7396 88.8791 42.8176 88.1712 43.0518C87.07 43.2859 86.9126 43.3639 85.4968 43.2859C85.3395 43.2859 85.2608 43.2079 85.1035 43.2079C84.6315 43.1298 84.081 42.8957 83.609 42.9737C83.373 42.8957 83.137 42.8176 82.9011 42.7396C81.6425 42.3494 80.384 42.1153 79.0468 41.9592C74.7993 41.491 70.0797 42.5055 68.7425 42.5835C66.3041 42.7396 61.7419 42.8176 60.7194 43.1298C58.9102 43.2079 57.1011 42.9737 55.2133 42.9737C54.8986 42.9737 54.584 42.8957 54.2694 42.8957C54.1121 42.8957 53.8761 42.8176 53.7188 42.8176C51.2804 42.1153 50.1792 41.647 47.8194 40.0862C46.9542 39.618 46.6395 39.3839 46.0889 38.7595C49.4712 38.7595 52.7749 38.8376 56.1572 38.6815C60.8767 38.3693 65.6749 38.2132 70.3944 37.823C74.3273 37.745 78.6535 36.7305 81.0133 35.7159C84.1596 34.4673 87.7779 31.97 89.6657 27.4436C90.1377 26.273 90.4523 25.0243 90.7669 23.7757C90.8456 23.3855 90.9242 22.9953 91.0029 22.6051C90.9242 23.1513 91.0815 22.2929 90.9242 22.0588C90.9242 21.9807 90.8456 21.9807 90.7669 21.9027C90.6882 22.1368 90.531 22.3709 90.4523 22.6831C89.9803 23.6976 89.4297 24.6341 88.6431 25.4926C88.0138 26.1949 87.5419 27.0534 86.7553 27.7558L86.6767 27.8338C85.8114 28.9264 85.0248 29.5507 83.4517 30.7213C82.9011 31.1115 79.2041 33.7649 73.3834 34.2331C72.2822 34.3112 71.181 34.4673 70.0797 34.4673C69.8438 34.4673 67.1694 34.7794 65.7535 34.9355C63.4724 35.2477 61.1127 35.3257 58.7529 35.4038C55.5279 35.7159 52.3029 35.794 49.0779 35.794C46.9542 35.794 44.7517 35.6379 42.6279 35.6379C40.4255 35.7159 38.2231 35.9501 36.0993 36.4183C33.8182 37.0426 32.0877 37.4328 29.4133 38.7595C28.0761 39.4619 26.8176 40.2423 25.6377 41.1007C24.8511 41.7251 23.9859 42.2714 23.5139 43.2079C23.5926 43.1298 23.5926 43.0518 23.3566 43.3639C22.806 44.2224 22.8847 43.9102 22.6487 44.4565C22.6487 44.3785 22.6487 44.3785 22.7274 44.3004C22.1767 45.2369 21.4688 46.0954 20.8396 47.0319C20.7609 47.344 20.6822 47.7342 20.6036 48.0464C20.5249 48.2805 20.5249 48.4366 20.4463 48.6707C20.6823 49.217 21.3115 49.4511 21.9408 49.3731C22.6487 48.4366 23.4353 47.5001 24.3005 46.7197C25.5591 45.5491 26.8176 44.3785 28.1548 43.2859C29.5707 42.1153 30.9865 41.1788 32.6383 40.4764C34.2902 39.7741 36.0206 39.1497 37.8298 38.8376C38.695 38.6815 39.6389 38.5254 40.5042 38.4474C41.4481 38.3693 42.392 38.3693 43.3359 38.2913C44.1225 38.2132 44.3584 39.1497 44.1225 39.696C44.6731 40.3984 44.5158 40.3203 45.617 41.491C47.5834 43.3639 50.5725 44.9248 52.1456 45.471C54.2694 46.1734 56.5505 46.3295 58.8316 46.4856C63.0005 46.4856 61.5846 46.1734 64.5737 46.0173C66.6974 45.7832 68.8212 45.7052 70.945 45.315C73.6194 45.0808 76.2937 45.0028 78.9681 45.0028C80.6986 45.1589 80.62 44.9248 82.9797 45.7832C83.2944 45.9393 83.1371 45.8612 82.9797 45.7052C83.845 46.3295 83.373 45.8612 84.3956 46.4075C85.1035 46.7977 85.4968 46.9538 85.8901 47.1099C85.8901 47.1879 85.8114 47.1879 85.8114 47.266C86.9913 48.0464 88.0139 48.9829 88.9578 49.9194C89.587 50.5437 90.2163 51.2461 90.7669 51.8704C91.6321 51.9484 92.2614 51.09 91.7108 50.3876C91.7108 50.3096 91.6322 50.2315 91.6322 50.1535C91.4749 48.7488 91.1602 48.8268 90.8456 47.266C90.6883 46.5636 90.9242 45.6271 91.0029 45.0028C91.0029 44.9248 91.0029 44.8467 91.0816 44.7687C91.0816 44.6906 91.1602 44.6126 91.1602 44.5345C91.5535 43.9102 91.2389 44.3004 91.8681 43.6761C92.1041 43.442 92.1827 43.2078 92.1827 42.9737C92.9693 42.1933 93.7559 41.491 94.4639 40.7105C95.6437 39.2278 96.5876 37.5109 97.2955 35.794C97.2955 35.794 97.2956 35.7159 97.3742 35.7159C97.2956 35.872 98.0035 34.3112 98.0821 33.999C98.4754 32.2041 98.6328 30.6433 98.5541 29.0825Z" fill="#2B2C54"/>
</g>
<path d="M19.423 51.7923C19.2657 51.7923 19.187 51.7142 19.0297 51.6362C18.7937 51.4801 18.7151 51.0899 18.8724 50.8558C21.4682 46.7196 21.7041 41.2567 19.3444 36.9645C18.7151 35.7939 17.9285 34.7013 17.1419 33.6868C16.2767 32.5162 15.3328 31.2675 14.7035 29.9408C10.5346 21.5904 15.8834 11.4451 23.2773 6.76268C31.0645 1.84611 40.9754 1.14374 48.9199 0.597454C57.0217 0.0511679 65.4382 -0.573159 73.6973 0.987658C79.3607 2.08023 83.687 4.03125 86.7546 6.91876C90.3729 10.2745 92.1821 15.5813 91.7101 21.0442C91.2382 26.507 88.4851 31.4236 84.3949 34.155C78.6528 37.979 71.1016 38.0571 65.1236 38.1351L47.8187 38.2912C43.0992 38.3692 37.8291 38.3692 33.2669 40.3983C29.1767 42.1932 25.9517 45.549 22.8054 48.7487C21.8615 49.6852 20.8389 50.6997 19.895 51.6362C19.659 51.7142 19.5017 51.7923 19.423 51.7923ZM61.8199 1.14374C57.4937 1.14374 53.2462 1.4559 48.9986 1.76807C40.7395 2.39239 31.3791 3.01672 23.9066 7.77721C16.9846 12.1475 11.8718 21.6685 15.8047 29.3945C16.434 30.6432 17.2993 31.8138 18.1645 32.9844C18.9511 34.077 19.8163 35.2476 20.4456 36.4182C22.4121 40.0861 22.7267 44.4564 21.3895 48.3585C21.5468 48.2024 21.7041 48.0463 21.8615 47.8902C25.0864 44.6125 28.3901 41.2567 32.7163 39.3057C37.5145 37.1986 42.9419 37.1206 47.74 37.0425L65.0449 36.8865C70.9443 36.8084 78.1809 36.7304 83.687 33.1405C87.5412 30.6432 90.0583 26.0388 90.5302 20.9661C91.0022 15.8935 89.2717 10.9769 85.8894 7.77721C82.979 5.04578 78.8888 3.1728 73.4614 2.15827C69.6071 1.37786 65.7528 1.14374 61.8199 1.14374Z" fill="#2B2C54"/>
<path d="M92.1877 53.9775C92.0304 53.9775 91.8731 53.8994 91.7157 53.8214C89.5133 51.4021 87.1536 48.9048 84.2432 47.422C79.8383 45.1588 74.3322 45.471 70.1633 45.9392C69.2194 46.0953 68.1969 46.1734 67.253 46.3295C63.3201 46.8757 59.3085 47.422 55.3755 46.8757C50.9707 46.3295 45.2286 43.7541 43.4195 38.4473C43.3408 38.1352 43.4981 37.823 43.8128 37.6669C44.1274 37.5889 44.442 37.745 44.5993 38.0571C46.2512 42.8176 51.5213 45.1588 55.5329 45.7051C59.3871 46.1734 63.3201 45.6271 67.0957 45.1588C68.1182 45.0028 69.0621 44.9247 70.0847 44.7686C74.4896 44.2223 80.153 43.9102 84.8725 46.3295C87.3895 47.5781 89.4347 49.6072 91.3225 51.5582L90.3785 46.0953C90.2999 45.549 90.1426 44.7686 90.5359 44.0663C90.7718 43.598 91.2438 43.2859 91.6371 42.9737L91.7157 42.8957C95.57 40.0862 98.0084 35.3257 98.0084 30.5652C98.0084 25.8047 95.57 21.1222 91.7157 18.3128C91.4798 18.1567 91.4011 17.7665 91.5584 17.4543C91.7157 17.2202 92.1091 17.1422 92.4237 17.2982C96.5926 20.3418 99.1883 25.4145 99.1883 30.5652C99.1883 35.7159 96.5926 40.7886 92.4237 43.8321L92.345 43.9102C92.0304 44.1443 91.7944 44.3004 91.6371 44.6126C91.4798 44.9247 91.5584 45.393 91.6371 45.9392L92.8956 53.3531C92.9743 53.5873 92.8169 53.8994 92.581 53.9775C92.345 53.9775 92.2663 53.9775 92.1877 53.9775Z" fill="#2B2C54"/>
<path d="M39.1645 23.9317C37.2767 23.9317 35.7822 22.449 35.7822 20.576C35.7822 18.703 37.2767 17.2202 39.1645 17.2202C41.0523 17.2202 42.5468 18.703 42.5468 20.576C42.5468 22.449 40.9737 23.9317 39.1645 23.9317ZM39.1645 18.3908C37.9847 18.3908 36.9621 19.4054 36.9621 20.576C36.9621 21.7466 37.9847 22.7611 39.1645 22.7611C40.3444 22.7611 41.367 21.7466 41.367 20.576C41.2883 19.3273 40.3444 18.3908 39.1645 18.3908Z" fill="#2B2C54"/>
<path d="M52.4692 23.9317C50.5814 23.9317 49.0869 22.449 49.0869 20.576C49.0869 18.703 50.5814 17.2202 52.4692 17.2202C54.357 17.2202 55.8516 18.703 55.8516 20.576C55.8516 22.449 54.357 23.9317 52.4692 23.9317ZM52.4692 18.3908C51.2893 18.3908 50.2668 19.4054 50.2668 20.576C50.2668 21.7466 51.2893 22.7611 52.4692 22.7611C53.6491 22.7611 54.6717 21.7466 54.6717 20.576C54.6717 19.3273 53.6491 18.3908 52.4692 18.3908Z" fill="#2B2C54"/>
<path d="M65.9126 23.9316C64.0248 23.9316 62.5303 22.4488 62.5303 20.5759C62.5303 18.7029 64.0248 17.2201 65.9126 17.2201C67.8004 17.2201 69.2949 18.7029 69.2949 20.5759C69.2949 22.4488 67.8004 23.9316 65.9126 23.9316ZM65.9126 18.3907C64.7327 18.3907 63.7101 19.4052 63.7101 20.5759C63.7101 21.7465 64.7327 22.761 65.9126 22.761C67.0925 22.761 68.115 21.7465 68.115 20.5759C68.115 19.3272 67.1711 18.3907 65.9126 18.3907Z" fill="#2B2C54"/>
</svg>
