<svg width="121" height="120" viewBox="0 0 121 120" fill="none" xmlns="http://www.w3.org/2000/svg">
<path d="M0.86084 13.2736V119.138L83.5596 117.413L84.5134 11.7407L0.86084 13.2736Z" fill="#D4CAFB"/>
<path d="M0.858458 120C0.667689 120 0.476942 119.904 0.286172 119.808C0.0954024 119.617 0 119.425 0 119.233V13.2735C0 12.7945 0.381557 12.5071 0.763097 12.4113L84.4156 10.8784C84.6064 10.8784 84.8926 10.9742 84.988 11.07C85.1787 11.2616 85.2741 11.4532 85.2741 11.6449L84.3203 117.317C84.3203 117.796 83.9387 118.084 83.5572 118.084L0.858458 120C0.953843 120 0.953843 120 0.858458 120ZM1.71695 14.04V118.371L82.7941 116.647L83.748 12.6029L1.71695 14.04Z" fill="#2B2C54"/>
<path d="M108.262 8.00423C108.93 6.37555 109.598 4.84268 110.265 3.214C110.552 2.44756 110.933 1.58533 111.696 1.20211C112.364 0.818892 113.222 0.914685 113.985 1.01049C114.939 1.2021 115.988 1.48952 116.275 2.35176C116.561 3.1182 116.084 4.07625 115.607 4.74688C114.558 6.47136 113.413 8.10004 112.268 9.82453C111.982 10.2077 111.792 10.591 111.41 10.7826C111.124 10.9742 110.742 11.07 110.361 11.07C109.502 11.07 108.644 10.6868 108.167 10.0161C107.69 9.2497 107.69 8.29165 108.262 8.00423Z" fill="#D4CAFB"/>
<path d="M110.363 11.8365C109.218 11.8365 108.073 11.2617 107.501 10.3994C107.12 9.72881 106.929 8.96238 107.12 8.29174C107.215 7.90852 107.406 7.62112 107.596 7.42951L109.504 2.83088C109.79 2.06444 110.267 1.01059 111.221 0.435765C112.175 -0.139063 113.224 -0.0432614 114.083 0.148348C115.704 0.435762 116.658 1.01059 117.04 2.06444C117.516 3.3099 116.753 4.65117 116.372 5.226C115.323 6.95048 114.178 8.67497 113.033 10.3036C112.747 10.6869 112.461 11.1659 111.889 11.4533C111.412 11.7407 110.935 11.8365 110.363 11.8365ZM108.646 8.67496C108.55 8.77076 108.646 9.15399 108.836 9.53721C109.123 9.92042 109.695 10.2078 110.363 10.2078C110.649 10.2078 110.84 10.2078 111.03 10.112C111.221 10.0162 111.412 9.72881 111.603 9.4414C112.747 7.81272 113.892 6.08823 114.941 4.36375C115.323 3.78892 115.704 3.1183 115.513 2.63927C115.323 2.25606 114.75 1.96863 113.796 1.77702C113.224 1.68122 112.556 1.58542 112.08 1.87283C111.603 2.16025 111.316 2.73507 111.03 3.50151L109.027 8.29174C108.932 8.48335 108.836 8.57915 108.646 8.67496Z" fill="#2B2C54"/>
<path d="M18.3189 3.21411C17.1742 3.50153 15.8388 3.88475 15.2665 4.9386C14.9804 5.41762 14.9804 6.08826 14.9804 6.66308C14.885 9.63303 14.885 12.6988 15.1711 15.6687C15.2665 16.7226 15.4573 17.8722 16.125 18.6387C16.7927 19.4051 18.1281 19.7883 18.9865 19.1177C19.6542 18.5429 19.7496 17.5848 19.7496 16.7226C19.845 13.6568 19.845 10.6869 19.9404 7.62113C20.0358 5.99245 19.7496 3.98055 18.3189 3.21411Z" fill="#D4CAFB"/>
<path d="M18.0301 20.2673C17.0763 20.2673 16.2178 19.7882 15.5501 19.1176C14.6917 18.1596 14.5009 16.9141 14.4055 15.6686C14.0239 12.6029 14.1193 9.53715 14.2147 6.5672C14.2147 5.99238 14.2147 5.22594 14.5963 4.45951C15.3593 2.92663 17.1716 2.54342 18.1255 2.35181C18.3163 2.35181 18.507 2.3518 18.6978 2.4476C20.1286 3.21404 20.7963 4.93853 20.7963 7.52525L20.6055 16.6267C20.6055 17.3931 20.6055 18.8302 19.5563 19.6924C19.1747 20.0757 18.6024 20.2673 18.0301 20.2673ZM18.2209 4.07629C17.3624 4.2679 16.4086 4.65111 16.1224 5.32174C15.9316 5.70496 15.9317 6.18399 15.9317 6.66302C15.8363 9.53715 15.8362 12.6029 16.1224 15.5728C16.2178 16.4351 16.4086 17.4889 16.8855 18.0638C17.267 18.5428 18.1255 18.8302 18.6024 18.447C18.984 18.0638 19.0793 17.2973 19.0793 16.6267L19.2701 7.52525C19.1747 5.80077 18.8886 4.65112 18.2209 4.07629Z" fill="#2B2C54"/>
<path d="M44.1692 3.21411C43.0246 3.50153 41.6892 3.88475 41.1169 4.9386C40.8307 5.41762 40.8307 6.08826 40.8307 6.66308C40.7353 9.63303 40.7353 12.6988 41.0215 15.6687C41.1169 16.7226 41.3076 17.8722 41.9753 18.6387C42.643 19.4051 43.9784 19.7883 44.8369 19.1177C45.5046 18.5429 45.6 17.5848 45.6 16.7226C45.6954 13.6568 45.6953 10.6869 45.7907 7.62113C45.8861 5.99245 45.6 3.98055 44.1692 3.21411Z" fill="#D4CAFB"/>
<path d="M43.8804 20.2673C42.9266 20.2673 42.0681 19.7882 41.4004 19.1176C40.542 18.1596 40.3512 16.9141 40.2558 15.6686C39.8743 12.6029 39.9697 9.53715 40.065 6.5672C40.065 5.99238 40.065 5.22594 40.4466 4.45951C41.2097 2.92663 43.022 2.54342 43.9758 2.35181C44.1666 2.35181 44.3574 2.3518 44.5481 2.4476C45.9789 3.21404 46.6466 4.93853 46.6466 7.52525L46.4558 16.6267C46.4558 17.3931 46.4558 18.8302 45.4066 19.6924C45.0251 20.0757 44.4528 20.2673 43.8804 20.2673ZM44.0712 4.07629C43.2128 4.2679 42.2589 4.65111 41.9727 5.32174C41.782 5.70496 41.782 6.18399 41.782 6.66302C41.6866 9.53715 41.6866 12.6029 41.9727 15.5728C42.0681 16.4351 42.2589 17.4889 42.7358 18.0638C43.1174 18.5428 43.9758 18.8302 44.4528 18.447C44.8343 18.0638 44.9297 17.2973 44.9297 16.6267L45.1205 7.52525C45.0251 5.80077 44.7389 4.65112 44.0712 4.07629Z" fill="#2B2C54"/>
<path d="M70.0173 3.21411C68.8727 3.50153 67.5374 3.88475 66.965 4.9386C66.6789 5.41762 66.6789 6.08826 66.6789 6.66308C66.5835 9.63303 66.5835 12.6988 66.8697 15.6687C66.965 16.7226 67.1558 17.8722 67.8235 18.6387C68.4912 19.4051 69.8266 19.7883 70.685 19.1177C71.3527 18.5429 71.4481 17.5848 71.4481 16.7226C71.5435 13.6568 71.5435 10.6869 71.6389 7.62113C71.7343 5.99245 71.4481 3.98055 70.0173 3.21411Z" fill="#D4CAFB"/>
<path d="M69.7286 20.2673C68.7747 20.2673 67.9163 19.7882 67.2486 19.1176C66.3901 18.1596 66.1994 16.9141 66.104 15.6686C65.7224 12.6029 65.8178 9.53715 65.9132 6.5672C65.9132 5.99238 65.9132 5.22594 66.2947 4.45951C67.0578 2.92663 68.8701 2.54342 69.824 2.35181C70.0147 2.35181 70.2055 2.3518 70.3963 2.4476C71.8271 3.21404 72.4947 4.93853 72.4947 7.52525L72.304 16.6267C72.304 17.3931 72.304 18.8302 71.2548 19.6924C70.7778 20.0757 70.3009 20.2673 69.7286 20.2673ZM69.824 4.07629C68.9655 4.2679 68.0117 4.65111 67.7255 5.32174C67.5347 5.70496 67.5347 6.18399 67.5347 6.66302C67.4394 9.53715 67.4393 12.6029 67.7255 15.5728C67.8209 16.4351 68.0117 17.4889 68.4886 18.0638C68.8701 18.5428 69.7286 18.8302 70.2055 18.447C70.5871 18.0638 70.6824 17.2973 70.6824 16.6267L70.8732 7.52525C70.8732 5.80077 70.5871 4.65112 69.824 4.07629Z" fill="#2B2C54"/>
<path d="M88.7111 42.3025C83.8464 51.9788 80.031 60.8886 74.5941 71.8103C74.1172 73.2474 73.4495 74.6845 73.1633 76.2173C72.8772 77.7502 72.8772 79.3789 73.7356 80.6243C74.5941 81.9656 76.2156 82.7321 77.7418 82.253C78.9818 81.774 79.6495 80.6243 80.3172 79.4747C86.708 68.4571 92.2403 56.8648 98.0588 45.5598L88.7111 42.3025Z" fill="#D4CAFB"/>
<path d="M76.7872 83.1152C75.3564 83.1152 73.9257 82.3488 73.0672 81.0075C72.018 79.283 72.1133 77.367 72.3995 75.9299C72.5903 74.7802 72.9718 73.7264 73.3533 72.7683C73.5441 72.3851 73.6395 71.9061 73.8303 71.5229V71.4271C76.5964 65.8704 78.9811 60.7928 81.2703 55.9067C83.4642 51.2123 85.5626 46.7095 87.9473 42.015C88.138 41.6318 88.5196 41.4402 88.9011 41.6318L98.2488 44.8892C98.4396 44.985 98.6304 45.1766 98.7257 45.3682C98.8211 45.5598 98.8211 45.8472 98.7257 46.0388C97.1042 49.2004 95.3873 52.5535 93.7657 55.7151C89.6642 63.7627 85.4673 72.0977 80.8888 79.9537C80.3165 81.0075 79.458 82.4446 77.8365 83.0194C77.5503 83.1152 77.1688 83.1152 76.7872 83.1152ZM75.3564 72.0977C75.2611 72.4809 75.0703 72.9599 74.8795 73.3431C74.498 74.397 74.1164 75.355 73.9257 76.3131C73.7349 77.3669 73.6395 78.8998 74.4026 80.1453C74.9749 81.1033 76.3103 81.7739 77.4549 81.3907C78.4088 81.1033 78.9811 80.0495 79.6488 78.9956C84.1319 71.1396 88.4242 62.9005 92.4303 54.8529C93.8611 51.9787 95.3873 48.913 96.9134 45.943L89.1873 43.2605C86.9934 47.7633 84.9903 51.9787 82.8918 56.4815C80.5072 61.4634 78.1226 66.541 75.3564 72.0977Z" fill="#2B2C54"/>
<path d="M98.2488 48.1463C96.4364 47.3799 89.5687 44.1225 86.6118 42.2064C90.0457 36.3623 91.1903 32.626 94.2426 26.4945C95.3872 24.0993 99.8703 15.4769 100.729 13.6566C104.353 6.3755 109.6 7.90836 112.461 9.92026C117.517 13.465 111.793 20.363 110.744 22.2791C106.166 31.0931 102.255 38.5659 98.2488 48.1463Z" fill="#9981F5"/>
<path d="M98.2479 48.9129C98.1526 48.9129 98.0572 48.9129 97.9618 48.8171C96.1495 48.0506 89.1864 44.7933 86.2294 42.8772C85.8479 42.5898 85.7525 42.1108 85.9433 41.7275C88.0418 38.087 89.2818 35.3086 90.7125 32.1471C91.571 30.231 92.4295 28.3149 93.5741 26.0156C94.3372 24.4827 96.3403 20.6505 97.9618 17.489C98.9156 15.5729 99.7741 13.9442 100.156 13.1778C101.777 10.0162 103.78 8.10011 106.165 7.52528C109.122 6.75884 111.793 8.19591 113.128 9.15395C118.088 12.6029 114.082 18.8302 112.365 21.5128C112.079 21.9918 111.793 22.375 111.697 22.5666C106.737 31.7638 103.017 38.9492 99.1064 48.338C99.011 48.5297 98.8202 48.7213 98.6295 48.8171C98.5341 48.9129 98.3433 48.9129 98.2479 48.9129ZM87.7556 41.9192C90.5218 43.5478 95.5772 46.0387 97.8664 46.9968C101.682 37.9912 105.402 30.6142 110.171 21.896C110.362 21.6086 110.553 21.2253 110.934 20.7463C113.51 16.8183 115.417 12.8903 112.174 10.591C111.125 9.82459 108.931 8.67494 106.546 9.24976C104.639 9.72879 102.922 11.3575 101.586 14.04C101.205 14.7106 100.346 16.4351 99.3926 18.3512C97.771 21.5128 95.7679 25.3449 95.1002 26.8778C93.9556 29.1771 93.0972 31.0932 92.2387 32.9135C90.9033 35.7876 89.7587 38.566 87.7556 41.9192Z" fill="#2B2C54"/>
<path d="M104.926 46.3263C104.353 46.3263 103.781 46.1347 103.304 45.8473C101.969 44.985 101.396 43.0689 101.969 41.2486C102.446 39.7158 103.4 38.5661 104.353 37.5123L112.652 27.7402C114.273 25.8241 115.99 23.8122 117.135 21.5129C118.375 19.022 118.661 16.531 117.993 14.5191C117.326 12.2198 115.227 10.3995 113.033 10.3037C112.557 10.3037 112.27 9.92051 112.27 9.44149C112.27 8.96247 112.652 8.67505 113.129 8.67505C115.99 8.77085 118.661 10.9744 119.615 14.0401C120.378 16.531 119.997 19.4052 118.661 22.2793C117.421 24.7702 115.704 26.8779 113.987 28.8898L105.689 38.6619C104.926 39.62 103.972 40.6738 103.686 41.8235C103.4 42.7815 103.59 44.027 104.353 44.6018C104.735 44.8892 105.307 44.8892 105.784 44.6976C105.975 44.6018 106.261 44.4102 106.356 44.027C106.356 43.5479 106.833 43.2605 107.215 43.2605C107.692 43.2605 107.978 43.7395 107.978 44.1228C107.883 44.985 107.31 45.6556 106.452 46.0389C105.88 46.2305 105.403 46.3263 104.926 46.3263Z" fill="#2B2C54"/>
<path d="M72.7806 87.7138C72.6852 87.7138 72.5898 87.7138 72.399 87.618C72.0175 87.4264 71.8267 86.9474 72.0175 86.5642L74.3067 81.6781C74.4975 81.2949 74.9744 81.1033 75.3559 81.2949C75.7375 81.4865 75.9282 81.9655 75.7375 82.3487L73.4482 87.2348C73.3529 87.5222 73.0667 87.7138 72.7806 87.7138Z" fill="#2B2C54"/>
<path d="M69.1494 35.596C51.5986 35.117 33.857 35.0212 16.3062 35.4044C15.8293 35.4044 15.4478 35.0212 15.4478 34.638C15.4478 34.159 15.8293 33.7757 16.2108 33.7757C33.7616 33.3925 51.5986 33.3925 69.1494 33.9674C69.6264 33.9674 69.9125 34.3506 69.9125 34.8296C69.9125 35.2128 69.6264 35.596 69.1494 35.596Z" fill="#2B2C54"/>
<path d="M46.4533 52.9367C36.1517 52.9367 25.8501 52.6493 15.6439 52.1703C15.167 52.1703 14.8809 51.7871 14.8809 51.3081C14.8809 50.829 15.2624 50.5416 15.7393 50.5416C32.8132 51.4039 50.1733 51.4997 67.2472 50.9248C67.7241 50.9248 68.0102 51.308 68.1056 51.6913C68.1056 52.1703 67.7241 52.5535 67.3426 52.5535C60.2841 52.7451 53.321 52.9367 46.4533 52.9367Z" fill="#2B2C54"/>
<path d="M45.6915 70.1816C35.39 70.1816 25.0884 69.9899 14.8822 69.6067C14.4053 69.6067 14.1191 69.2235 14.1191 68.7445C14.1191 68.2655 14.5007 67.978 14.9776 67.978C31.67 68.5529 48.5531 68.6487 65.1501 68.2655C65.627 68.2655 65.9131 68.6487 66.0085 69.0319C66.0085 69.5109 65.627 69.8941 65.2454 69.8941C58.7593 70.0857 52.1777 70.1816 45.6915 70.1816Z" fill="#2B2C54"/>
<path d="M31.6721 86.1809C25.8537 86.1809 20.0352 86.0851 14.2167 85.8935C13.7398 85.8935 13.4536 85.5103 13.4536 85.0313C13.4536 84.5523 13.8351 84.169 14.3121 84.2648C28.0475 84.7438 41.9737 84.648 55.8045 83.9774C56.2814 83.9774 56.663 84.2648 56.663 84.7438C56.663 85.2229 56.3768 85.6061 55.8999 85.6061C47.7922 86.0851 39.7799 86.1809 31.6721 86.1809Z" fill="#2B2C54"/>
<path d="M13.6424 101.031C13.1655 101.031 12.7839 100.647 12.7839 100.168C12.7839 99.6893 13.1655 99.3061 13.6424 99.3061L66.3903 99.0187C66.8672 99.0187 67.2487 99.4019 67.2487 99.8809C67.2487 100.36 66.8672 100.743 66.3903 100.743L13.6424 101.031Z" fill="#2B2C54"/>
<g opacity="0.1294">
<path d="M94.4313 46.2303C93.2867 45.6555 92.2374 44.9849 91.0928 44.5058H90.9974C90.9974 44.5058 90.9975 44.5058 90.9021 44.5058C90.2344 44.2184 89.5667 43.931 88.899 43.6436C88.5174 43.452 88.0405 43.3562 87.659 43.452C86.3236 43.7394 86.0374 45.7513 87.2774 46.3262C88.2313 46.8052 89.2805 47.0926 90.139 47.6674C91.4744 48.6255 92.9052 49.5835 94.5267 50.1583C94.4313 50.0625 94.2405 50.0625 94.1452 49.9667C95.3852 50.6374 97.0067 50.4457 97.1975 48.8171C97.4836 47.1884 95.5759 46.8052 94.4313 46.2303Z" fill="#2B2C54"/>
</g>
<g opacity="0.1294">
<path d="M114.461 12.3156C113.984 10.9743 111.79 11.3576 111.886 12.8904C111.981 15.4772 109.692 18.6387 107.784 22.1835C106.067 25.2492 104.541 28.4108 103.015 31.5723C101.679 34.3507 100.153 37.0332 98.8178 39.9073C98.2455 41.3444 97.4825 42.6857 96.8148 44.1227C96.4332 45.0808 95.7655 46.4221 96.9101 47.1885C97.4825 47.6675 98.4363 47.5717 99.0086 47.0927C99.5809 46.3263 99.8671 45.1766 100.153 44.2186C100.153 44.2186 100.249 44.1228 100.249 43.9311C101.393 41.6318 102.442 39.2367 103.682 36.9374C107.021 30.0395 111.218 23.6206 113.984 16.4352C114.366 15.573 114.556 14.6149 114.652 13.6569C114.556 13.2737 114.652 12.6988 114.461 12.3156Z" fill="#2B2C54"/>
</g>
<g opacity="0.1294">
<path d="M84.7984 38.6618C85.0846 32.7219 84.3215 26.8778 84.2261 20.9379C84.2261 18.7344 83.9399 16.5309 83.8446 14.3274C83.7492 13.561 83.8446 12.6029 83.2723 12.0281C82.223 10.8784 80.1246 11.7407 80.2199 13.2736C80.6969 18.3512 80.7922 23.4289 80.983 28.4107C81.3645 35.6919 81.2692 42.973 81.1738 50.1584C81.1738 50.829 80.983 51.4996 81.2692 52.0745C81.5553 52.8409 82.5092 53.2241 83.2723 53.0325C84.6077 52.6493 84.5123 51.2122 84.6077 50.0626C84.6077 48.8171 84.8938 47.5716 84.8938 46.2304C84.7984 43.7394 84.703 41.1527 84.7984 38.6618Z" fill="#2B2C54"/>
</g>
<g opacity="0.1294">
<path d="M83.7489 96.1447C83.7489 92.1209 83.7489 88.1929 84.0351 84.1691C84.1304 82.4446 83.9397 80.8159 84.0351 79.0914C84.1304 78.2292 84.6074 77.367 84.512 76.5047C84.3212 74.5886 81.4597 74.397 80.9827 76.2173C80.6966 77.0795 80.5058 77.9418 80.4104 78.804C79.9335 79.283 79.6474 79.9537 79.2658 80.5285C79.1704 80.7201 78.9797 80.9117 78.7889 81.1033C78.7889 81.1033 78.6935 81.1033 78.6935 81.1991C78.5981 81.1991 78.5027 81.1991 78.4074 81.1991C76.4997 81.1991 74.8781 82.5404 75.832 84.5523C76.6904 85.8936 78.5027 85.9894 79.8381 85.4145C79.7427 87.9054 79.7427 90.4922 79.8381 92.9831C79.8381 94.8992 79.7427 96.8153 79.7427 98.7314C79.7427 101.797 80.315 104.863 80.5058 107.929C80.6012 111.09 80.315 111.761 80.1243 114.635C80.0289 115.21 79.7427 115.689 79.8381 116.264C79.9335 117.413 81.2689 117.988 82.2228 117.413C82.5089 117.222 82.6997 117.03 82.8904 116.647C82.9858 116.551 82.9858 116.359 83.0812 116.264C83.0812 116.264 83.0812 116.359 82.9858 116.455C83.4627 115.497 83.5581 114.348 83.7489 113.294C84.1305 112.24 84.0351 108.408 84.0351 105.821C84.0351 102.659 83.7489 99.402 83.7489 96.1447Z" fill="#2B2C54"/>
</g>
<g opacity="0.1294">
<path d="M19.1669 17.2017C18.5946 16.2436 18.8807 16.7226 18.4038 15.2856C18.3084 15.094 18.213 14.9024 18.1176 14.7107C17.0684 13.2737 14.6838 14.4233 15.1607 16.1478C15.3515 16.8184 15.5422 17.5849 15.733 18.2555C15.9238 18.7345 16.1146 19.2136 16.4961 19.501C18.0223 20.6506 20.1207 18.8303 19.1669 17.2017Z" fill="#2B2C54"/>
</g>
<g opacity="0.1294">
<path d="M44.7326 15.2855C44.351 14.8065 44.2557 14.04 43.6833 13.7526C42.2526 12.6029 40.2495 14.4232 41.2033 15.9561C41.6803 16.6267 41.9664 17.5848 42.6341 18.1596C43.6833 19.0219 45.4003 18.1596 45.3049 16.8183C45.3049 16.2435 44.9233 15.7645 44.7326 15.2855Z" fill="#2B2C54"/>
</g>
<g opacity="0.1294">
<path d="M70.7748 15.8602C70.4887 14.998 70.584 13.9441 70.0117 13.2735C68.9625 11.8364 66.5779 12.9861 67.1502 14.7106C67.5317 15.8602 67.4364 17.3931 68.4856 18.1595C70.0118 19.0218 71.3471 17.3931 70.7748 15.8602Z" fill="#2B2C54"/>
</g>
</svg>
