<svg width="111" height="120" viewBox="0 0 111 120" fill="none" xmlns="http://www.w3.org/2000/svg">
<path d="M19.0255 89.8555C18.8601 89.8555 18.7774 89.7729 18.6119 89.6903C12.2432 84.4873 8.43848 76.4763 8.43848 68.3001C8.43848 67.9697 8.68655 67.6394 9.10011 67.6394C9.43096 67.6394 9.76184 67.8872 9.76184 68.3001C9.76184 76.1459 13.3184 83.744 19.4391 88.6993C19.6872 88.947 19.7699 89.2774 19.5218 89.6077C19.3563 89.7729 19.1909 89.8555 19.0255 89.8555Z" fill="#2B2C54"/>
<path d="M19.021 90.1858C18.9383 90.1858 18.9383 90.1858 18.8556 90.1858C16.5397 89.6903 14.2237 88.947 11.9905 88.1211C11.6596 87.956 11.4942 87.6256 11.6596 87.2953C11.825 86.9649 12.1559 86.7997 12.4867 86.9649C14.3891 87.7082 16.3743 88.2863 18.3593 88.7819C18.1939 86.8823 17.7803 85.0654 17.2014 83.3311C17.1186 83.0007 17.2841 82.6704 17.6149 82.5052C17.9458 82.4226 18.2766 82.5878 18.442 82.9181C19.1864 85.0654 19.6 87.2953 19.7654 89.5251C19.7654 89.6903 19.6826 89.9381 19.5172 90.0207C19.3518 90.1033 19.1864 90.1858 19.021 90.1858Z" fill="#2B2C54"/>
<path d="M82.8754 102.491C82.6272 102.491 82.379 102.326 82.2963 102.078C82.1309 101.748 82.2964 101.418 82.6272 101.253C90.154 97.8665 95.9438 90.8465 97.7635 82.8355C97.8462 82.5052 98.1769 82.2574 98.5078 82.34C98.8386 82.4226 99.0869 82.7529 99.0041 83.0833C97.1018 91.5072 91.0637 98.8575 83.2061 102.409C83.0407 102.491 82.9581 102.491 82.8754 102.491Z" fill="#2B2C54"/>
<path d="M99.5064 88.947C99.1756 88.947 98.8447 88.6992 98.8447 88.2863C98.8447 86.7997 98.5966 85.2306 98.1831 83.8266C96.9424 84.8176 95.7017 85.7261 94.2956 86.5519C93.9647 86.7171 93.6339 86.6345 93.4684 86.3042C93.303 85.9738 93.3858 85.6435 93.7166 85.4783C95.2881 84.5698 96.7769 83.4962 98.1003 82.34C98.2657 82.1748 98.5139 82.1748 98.6793 82.1748C98.8447 82.2574 99.0102 82.34 99.0929 82.5877C99.7546 84.4873 100.085 86.3868 100.085 88.3689C100.085 88.6992 99.8373 88.947 99.5064 88.947Z" fill="#2B2C54"/>
<path d="M54.5921 13.6269C54.4267 13.6269 54.1786 13.5443 54.0958 13.3791C53.9304 13.1314 54.0131 12.7184 54.2612 12.4707C60.7127 8.09352 69.4802 7.5154 76.5107 10.9015C76.8415 11.0667 76.9242 11.397 76.8415 11.7274C76.6761 12.0577 76.3453 12.1403 76.0144 12.0577C69.3975 8.83681 61.1263 9.41493 55.0056 13.5443C54.8402 13.5443 54.7575 13.6269 54.5921 13.6269Z" fill="#2B2C54"/>
<path d="M59.9713 13.9572C58.0689 13.7921 56.1665 13.7095 54.2641 13.7921C54.016 13.7921 53.7679 13.6269 53.6852 13.4617C53.6025 13.2139 53.6025 12.9662 53.7679 12.801L57.159 8.25868C57.4072 8.01091 57.7381 7.92833 58.069 8.0935C58.3171 8.34127 58.3998 8.67162 58.2343 9.00197L55.5876 12.5532H55.6703C57.1591 12.5532 58.6479 12.6358 60.0539 12.7184C60.3848 12.7184 60.633 13.0488 60.633 13.3791C60.5503 13.7095 60.3021 13.9572 59.9713 13.9572Z" fill="#2B2C54"/>
<path d="M80.8137 5.69856C80.7309 5.69856 80.5655 5.69856 80.4828 5.61597C76.0164 2.89057 70.64 1.32141 65.4292 1.32141C65.0984 1.32141 64.7676 1.07364 64.7676 0.660704C64.7676 0.330353 65.0157 0 65.4292 0C70.9709 0 76.4299 1.56917 81.1444 4.45975C81.4753 4.62492 81.558 5.03786 81.3099 5.28562C81.2272 5.61597 80.9791 5.69856 80.8137 5.69856Z" fill="#2B2C54"/>
<path d="M87.0153 111.494C86.7671 111.494 86.6016 111.411 86.4362 111.163C86.2708 110.833 86.3535 110.502 86.6844 110.337C91.2335 107.86 95.2037 104.061 97.7678 99.6009C97.9332 99.2705 98.3467 99.1879 98.5949 99.3531C98.9257 99.5183 99.0084 99.9312 98.843 100.179C96.1135 104.969 92.1433 108.851 87.2633 111.411C87.2633 111.494 87.098 111.494 87.0153 111.494Z" fill="#2B2C54"/>
<path d="M5.62713 83.0006C5.46171 83.0006 5.21359 82.918 5.13088 82.7529C1.7397 78.3757 -0.0800112 72.9249 0.00270044 67.3915C0.00270044 67.0612 0.250876 66.7308 0.664434 66.7308C0.99528 66.7308 1.32607 66.9786 1.32607 67.3915C1.24335 72.6771 2.98032 77.7976 6.20607 82.0096C6.45421 82.2573 6.37151 82.6703 6.12338 82.918C5.95796 82.918 5.79255 83.0006 5.62713 83.0006Z" fill="#2B2C54"/>
<path d="M6.70117 14.04C7.611 27.667 7.77644 41.294 7.4456 54.921C11.333 53.8473 15.3859 53.4344 19.4388 53.7647C19.935 53.7647 20.5141 53.8473 20.9276 54.2603C21.3412 54.6732 21.4238 55.4165 21.1757 55.9946C21.0103 56.5727 20.5967 57.0682 20.2659 57.5638C19.7696 58.3071 19.3561 59.2155 19.2734 60.124C19.1907 62.1061 20.8449 63.8404 22.8299 64.5011C24.7323 65.0793 26.8001 64.8315 28.9506 64.1708C30.5221 63.5927 31.5147 61.6932 30.9357 60.0414C30.6876 59.2981 30.1913 58.72 29.9432 57.9767C29.5297 56.8205 29.695 55.3339 30.6875 54.508C31.5974 53.7648 32.838 53.7647 33.996 53.7647C37.8834 53.8473 41.7709 53.8473 45.4929 53.8473C45.3275 48.4791 45.4103 43.1109 45.7411 37.5775C44.914 38.3208 43.756 38.6512 42.598 38.5686C41.4401 38.5686 40.3649 38.1557 39.455 37.5775C38.7934 37.1646 38.2144 36.6691 37.8008 36.0084C37.3873 35.1825 37.3872 34.1915 37.4699 33.283C37.6354 32.1268 37.9662 30.8879 38.876 30.1446C39.2896 29.8143 39.7859 29.5665 40.2822 29.3188C41.192 28.9058 42.1845 28.5755 43.2598 28.5755C44.2523 28.5755 45.3275 29.071 45.9065 30.0621C45.6584 26.263 45.4929 22.464 45.9065 18.665C46.0719 17.261 46.3201 15.7744 45.9065 14.453C44.914 14.1226 43.8387 14.1226 42.8462 14.2052C32.1764 14.7007 21.4239 14.9485 10.7541 14.2878C9.34796 14.2878 7.94185 14.1226 6.70117 14.04Z" fill="#D4CAFB"/>
<g opacity="0.1294">
<path d="M46.0697 15.3614C46.0697 14.8659 46.235 14.3704 45.8215 14.04C45.7388 13.8748 45.5733 13.8748 45.4079 13.7922C45.0771 15.7743 44.7462 17.6739 44.3326 19.656C43.7536 22.6291 43.1747 25.6023 42.5957 28.5754C42.8438 28.9058 43.1747 29.071 43.5883 28.9884C43.9191 29.8143 45.1597 29.9794 45.5733 29.1536C45.656 28.9884 45.7388 28.7406 45.7388 28.5754V28.4929V28.4103C45.7388 28.3277 45.7388 28.2451 45.7388 28.1625C45.7388 27.9147 45.8215 27.5018 45.7388 27.3366C45.5734 24.3635 45.4906 20.4819 45.7388 18.252C46.0696 17.3435 46.0697 16.3525 46.0697 15.3614Z" fill="#2B2C54"/>
</g>
<g opacity="0.1294">
<path d="M45.072 52.3607V52.2781C44.9065 50.296 44.9066 48.3139 44.9893 46.2492C44.9066 43.8542 45.2374 41.5417 45.4028 39.1467C45.4028 37.9904 44.0794 37.6601 43.4177 38.1556C42.9215 37.9078 42.2598 38.3208 42.2598 38.8989C42.4252 41.7069 42.5906 44.4323 42.5906 47.2403C42.5079 48.5617 42.5906 49.8005 42.5906 51.1219C41.9289 51.4522 42.0944 51.3697 41.5981 51.6174C37.7934 52.4433 35.9738 52.2781 31.1765 53.3517C30.1839 53.5995 30.5975 55.0861 31.59 54.8383C34.2368 54.3428 37.049 54.3428 40.0266 53.9299C40.9364 53.8473 41.8462 53.7647 42.6733 53.4343C42.6733 53.5169 42.6734 53.5995 42.7561 53.5995C42.9215 54.0125 43.3351 54.1776 43.6659 54.0951C44.1622 54.2602 44.8238 54.095 45.072 53.5995C45.2374 53.3518 45.2374 53.0214 45.1547 52.6911C45.1547 52.6085 45.1547 52.4433 45.072 52.3607Z" fill="#2B2C54"/>
</g>
<g opacity="0.1294">
<path d="M31.0151 58.72C30.9324 58.307 30.9324 57.8941 30.6842 57.5638C30.3534 57.0682 29.609 57.1508 29.3609 57.6463C29.1954 57.8941 29.1955 58.1419 29.2782 58.3896C29.3609 59.0503 29.3608 58.8026 29.4436 59.2981C29.4436 59.4633 29.4436 59.8762 29.4436 60.0414C29.1954 61.3628 28.2857 61.7757 26.3006 62.1887C25.1426 62.4364 23.5711 62.3539 21.3379 61.4454C19.6009 61.0324 18.9392 63.5101 20.5935 64.0056C22.4131 64.6663 24.3982 65.2444 26.3833 64.9141C27.7067 64.6663 28.9474 64.0056 29.9399 63.0971C30.9324 62.0235 31.2632 60.2891 31.0151 58.72Z" fill="#2B2C54"/>
</g>
<path d="M25.968 65.6574C25.7198 65.6574 25.4717 65.6574 25.2236 65.6574C22.9076 65.4922 21.0053 64.8315 19.8473 63.5927C19.351 63.0971 18.772 62.3538 18.6893 61.2802C18.6066 60.2066 19.0202 59.2981 19.4337 58.5548L20.5917 56.2423C20.8399 55.8294 21.0053 55.4165 20.9226 55.0861C20.9226 55.0035 20.8398 54.921 20.7571 54.8384C20.6744 54.7558 20.5918 54.7558 20.4263 54.7558C20.3436 54.7558 20.3436 54.7558 20.2609 54.7558C16.1253 54.2602 11.8242 54.5906 7.52324 55.5816C7.35782 55.6642 7.10971 55.5816 7.027 55.4165C6.86157 55.3339 6.77892 55.0861 6.77892 54.921C7.02706 41.9547 6.86159 28.658 6.11719 14.2878C6.11719 14.1226 6.19986 13.9574 6.28257 13.7922C6.36528 13.6271 6.53079 13.6271 6.77892 13.6271C19.9301 13.8748 33.3293 13.9574 46.4805 13.7097C46.7286 13.7097 46.9767 13.8748 47.0594 14.1226C47.1421 14.453 47.1421 14.7833 47.0594 15.0311C46.7286 19.5734 46.6458 24.3635 46.8113 30.1446C46.8113 30.3924 46.6459 30.6401 46.4805 30.7227C46.2324 30.8053 45.9842 30.8053 45.8188 30.6402C44.6608 29.6491 42.9238 29.2362 41.435 29.7317C39.9462 30.2272 38.7883 31.466 38.3747 32.9526C38.0439 34.1914 38.3747 35.5954 39.2018 36.4213C39.6981 36.9168 40.2771 37.2472 41.2696 37.4949C42.0967 37.7427 44.2473 38.2382 45.7361 37.1646C45.9015 36.9994 46.2323 36.9994 46.3977 37.082C46.6458 37.1646 46.7286 37.4123 46.7286 37.6601C46.3977 42.8631 46.2324 48.1488 46.4805 53.9299C46.4805 54.0951 46.3977 54.2603 46.315 54.4254C46.1496 54.508 45.9842 54.5906 45.8188 54.5906C41.7659 54.3428 37.6303 54.3428 33.4947 54.5906C32.4195 54.6732 31.3442 54.7558 30.9307 55.4991C30.4344 56.2423 30.8479 57.316 31.0961 57.8941C31.1788 58.0593 31.2615 58.307 31.3442 58.4722C31.7578 59.2981 32.0886 60.124 32.1713 61.0324C32.2541 62.519 31.2615 64.0056 29.7727 64.8315C28.4493 65.327 27.2914 65.6574 25.968 65.6574ZM20.3435 53.4344C20.6744 53.4344 21.0053 53.5169 21.3361 53.7647C21.7497 54.0125 21.9978 54.4254 21.9978 54.8384C22.0805 55.5817 21.7496 56.2423 21.5842 56.7379L20.4263 59.0503C20.0128 59.7936 19.7646 60.4543 19.8473 61.115C19.93 61.7757 20.3436 62.2713 20.6744 62.6016C21.9151 63.8404 23.9002 64.2534 25.2236 64.336C26.7124 64.4185 27.8703 64.2534 28.8629 63.7578C29.9381 63.1797 30.5998 62.1061 30.5998 61.115C30.5998 60.4543 30.269 59.7936 29.9382 59.0503C29.8555 58.8026 29.69 58.6374 29.6073 58.3896C28.9456 56.903 28.9456 55.6642 29.5246 54.7558C30.269 53.5995 31.7578 53.3518 33.0812 53.3518C36.9686 53.1866 40.9388 53.1866 44.8263 53.3518C44.6608 48.2313 44.7435 43.4412 45.0743 38.8163C43.4201 39.477 41.6004 39.0641 40.6079 38.7338C39.8635 38.486 38.871 38.073 38.0438 37.3298C36.8859 36.1735 36.4723 34.3566 36.8859 32.7048C37.3821 30.8053 38.871 29.1536 40.7734 28.5755C42.2622 28.0799 43.9164 28.3277 45.2398 28.9884C45.1571 23.7028 45.2397 19.1605 45.5706 14.9485C32.833 15.1137 19.9301 15.1137 7.19248 14.8659C7.85417 28.658 8.10225 41.5417 7.85411 54.0951C12.0724 53.2692 16.208 53.0214 20.1782 53.4344C20.1782 53.4344 20.2608 53.4344 20.3435 53.4344Z" fill="#2B2C54"/>
<g opacity="0.1294">
<path d="M46.0697 15.3614C46.0697 14.8659 46.235 14.3704 45.8215 14.04C45.7388 13.8748 45.5733 13.8748 45.4079 13.7922C45.0771 15.7743 44.7462 17.6739 44.3326 19.656C43.7536 22.6291 43.1747 25.6023 42.5957 28.5754C42.8438 28.9058 43.1747 29.071 43.5883 28.9884C43.9191 29.8143 45.1597 29.9794 45.5733 29.1536C45.656 28.9884 45.7388 28.7406 45.7388 28.5754V28.4929V28.4103C45.7388 28.3277 45.7388 28.2451 45.7388 28.1625C45.7388 27.9147 45.8215 27.5018 45.7388 27.3366C45.5734 24.3635 45.4906 20.4819 45.7388 18.252C46.0696 17.3435 46.0697 16.3525 46.0697 15.3614Z" fill="#2B2C54"/>
</g>
<g opacity="0.1294">
<path d="M45.072 52.3607V52.2781C44.9065 50.296 44.9066 48.3139 44.9893 46.2492C44.9066 43.8542 45.2374 41.5417 45.4028 39.1467C45.4028 37.9904 44.0794 37.6601 43.4177 38.1556C42.9215 37.9078 42.2598 38.3208 42.2598 38.8989C42.4252 41.7069 42.5906 44.4323 42.5906 47.2403C42.5079 48.5617 42.5906 49.8005 42.5906 51.1219C41.9289 51.4522 42.0944 51.3697 41.5981 51.6174C37.7934 52.4433 35.9738 52.2781 31.1765 53.3517C30.1839 53.5995 30.5975 55.0861 31.59 54.8383C34.2368 54.3428 37.049 54.3428 40.0266 53.9299C40.9364 53.8473 41.8462 53.7647 42.6733 53.4343C42.6733 53.5169 42.6734 53.5995 42.7561 53.5995C42.9215 54.0125 43.3351 54.1776 43.6659 54.0951C44.1622 54.2602 44.8238 54.095 45.072 53.5995C45.2374 53.3518 45.2374 53.0214 45.1547 52.6911C45.1547 52.6085 45.1547 52.4433 45.072 52.3607Z" fill="#2B2C54"/>
</g>
<g opacity="0.1294">
<path d="M31.0151 58.72C30.9324 58.307 30.9324 57.8941 30.6842 57.5638C30.3534 57.0682 29.609 57.1508 29.3609 57.6463C29.1954 57.8941 29.1955 58.1419 29.2782 58.3896C29.3609 59.0503 29.3608 58.8026 29.4436 59.2981C29.4436 59.4633 29.4436 59.8762 29.4436 60.0414C29.1954 61.3628 28.2857 61.7757 26.3006 62.1887C25.1426 62.4364 23.5711 62.3539 21.3379 61.4454C19.6009 61.0324 18.9392 63.5101 20.5935 64.0056C22.4131 64.6663 24.3982 65.2444 26.3833 64.9141C27.7067 64.6663 28.9474 64.0056 29.9399 63.0971C30.9324 62.0235 31.2632 60.2891 31.0151 58.72Z" fill="#2B2C54"/>
</g>
<path d="M25.968 65.6574C25.7198 65.6574 25.4717 65.6574 25.2236 65.6574C22.9076 65.4922 21.0053 64.8315 19.8473 63.5927C19.351 63.0971 18.772 62.3538 18.6893 61.2802C18.6066 60.2066 19.0202 59.2981 19.4337 58.5548L20.5917 56.2423C20.8399 55.8294 21.0053 55.4165 20.9226 55.0861C20.9226 55.0035 20.8398 54.921 20.7571 54.8384C20.6744 54.7558 20.5918 54.7558 20.4263 54.7558C20.3436 54.7558 20.3436 54.7558 20.2609 54.7558C16.1253 54.2602 11.8242 54.5906 7.52324 55.5816C7.35782 55.6642 7.10971 55.5816 7.027 55.4165C6.86157 55.3339 6.77892 55.0861 6.77892 54.921C7.02706 41.9547 6.86159 28.658 6.11719 14.2878C6.11719 14.1226 6.19986 13.9574 6.28257 13.7922C6.36528 13.6271 6.53079 13.6271 6.77892 13.6271C19.9301 13.8748 33.3293 13.9574 46.4805 13.7097C46.7286 13.7097 46.9767 13.8748 47.0594 14.1226C47.1421 14.453 47.1421 14.7833 47.0594 15.0311C46.7286 19.5734 46.6458 24.3635 46.8113 30.1446C46.8113 30.3924 46.6459 30.6401 46.4805 30.7227C46.2324 30.8053 45.9842 30.8053 45.8188 30.6402C44.6608 29.6491 42.9238 29.2362 41.435 29.7317C39.9462 30.2272 38.7883 31.466 38.3747 32.9526C38.0439 34.1914 38.3747 35.5954 39.2018 36.4213C39.6981 36.9168 40.2771 37.2472 41.2696 37.4949C42.0967 37.7427 44.2473 38.2382 45.7361 37.1646C45.9015 36.9994 46.2323 36.9994 46.3977 37.082C46.6458 37.1646 46.7286 37.4123 46.7286 37.6601C46.3977 42.8631 46.2324 48.1488 46.4805 53.9299C46.4805 54.0951 46.3977 54.2603 46.315 54.4254C46.1496 54.508 45.9842 54.5906 45.8188 54.5906C41.7659 54.3428 37.6303 54.3428 33.4947 54.5906C32.4195 54.6732 31.3442 54.7558 30.9307 55.4991C30.4344 56.2423 30.8479 57.316 31.0961 57.8941C31.1788 58.0593 31.2615 58.307 31.3442 58.4722C31.7578 59.2981 32.0886 60.124 32.1713 61.0324C32.2541 62.519 31.2615 64.0056 29.7727 64.8315C28.4493 65.327 27.2914 65.6574 25.968 65.6574ZM20.3435 53.4344C20.6744 53.4344 21.0053 53.5169 21.3361 53.7647C21.7497 54.0125 21.9978 54.4254 21.9978 54.8384C22.0805 55.5817 21.7496 56.2423 21.5842 56.7379L20.4263 59.0503C20.0128 59.7936 19.7646 60.4543 19.8473 61.115C19.93 61.7757 20.3436 62.2713 20.6744 62.6016C21.9151 63.8404 23.9002 64.2534 25.2236 64.336C26.7124 64.4185 27.8703 64.2534 28.8629 63.7578C29.9381 63.1797 30.5998 62.1061 30.5998 61.115C30.5998 60.4543 30.269 59.7936 29.9382 59.0503C29.8555 58.8026 29.69 58.6374 29.6073 58.3896C28.9456 56.903 28.9456 55.6642 29.5246 54.7558C30.269 53.5995 31.7578 53.3518 33.0812 53.3518C36.9686 53.1866 40.9388 53.1866 44.8263 53.3518C44.6608 48.2313 44.7435 43.4412 45.0743 38.8163C43.4201 39.477 41.6004 39.0641 40.6079 38.7338C39.8635 38.486 38.871 38.073 38.0438 37.3298C36.8859 36.1735 36.4723 34.3566 36.8859 32.7048C37.3821 30.8053 38.871 29.1536 40.7734 28.5755C42.2622 28.0799 43.9164 28.3277 45.2398 28.9884C45.1571 23.7028 45.2397 19.1605 45.5706 14.9485C32.833 15.1137 19.9301 15.1137 7.19248 14.8659C7.85417 28.658 8.10225 41.5417 7.85411 54.0951C12.0724 53.2692 16.208 53.0214 20.1782 53.4344C20.1782 53.4344 20.2608 53.4344 20.3435 53.4344Z" fill="#2B2C54"/>
<path d="M65.3458 56.0772C64.1051 51.4523 61.0448 47.4881 59.6387 42.698C63.3607 40.7159 67.1655 38.9816 71.0529 37.4124C71.88 37.0821 72.6245 36.7517 73.4516 36.4214C74.0306 36.1736 74.6095 35.9258 74.9403 35.3477C75.1885 34.8522 75.0231 34.2741 74.7749 33.8611C74.5268 33.3656 74.1132 33.0352 73.617 32.6223C72.0454 31.3009 71.5492 28.9885 72.2109 27.0889C72.8726 25.1894 74.6095 23.7028 76.5119 23.0421C77.7525 22.6292 79.2413 22.5466 80.3166 23.3725C80.5647 23.6202 80.8129 23.868 80.9783 24.1158C81.8054 25.3546 82.1362 26.9238 81.8881 28.3278C81.8054 29.071 81.4746 29.8143 81.4746 30.5576C81.4746 31.3009 81.8881 32.1268 82.7152 32.5397C87.1817 30.475 91.7308 28.6581 96.6108 27.2541C97.9342 29.2362 98.6786 31.5487 99.5057 33.7785C101.822 40.0552 104.634 46.0841 107.529 52.113C108.439 53.9299 109.266 55.8295 110.01 57.729C110.093 58.1419 109.679 58.4723 109.348 58.8026C105.461 61.6932 100.664 63.1798 96.4453 65.4922C96.0318 65.6574 95.701 65.9052 95.4528 66.2355C95.2047 66.5659 95.0393 67.0614 95.3701 67.3917C95.2874 68.0524 95.701 68.6306 96.1973 69.0435C96.6935 69.4564 97.2725 69.7042 97.7688 70.1997C98.5132 70.943 98.844 72.1818 98.5131 73.2555C98.265 74.3291 97.5206 75.2376 96.6108 75.8157C95.701 76.3938 94.6257 76.7242 93.5504 76.8068C92.7233 76.8894 91.7309 76.8893 91.1519 76.3112C90.4075 75.6505 90.3247 74.5769 90.242 73.5033C90.242 72.5122 90.0766 71.356 89.3322 70.7778C88.6705 70.1997 87.678 70.2823 87.099 70.7778C82.5498 72.1818 78.0834 73.8336 73.7824 75.6505C73.2862 75.155 73.038 74.4117 72.7898 73.751C71.5492 69.952 69.7295 66.3181 67.7444 62.7668C69.0678 63.0972 70.5567 62.932 71.7146 62.2713C72.9553 61.6106 73.8651 60.4544 74.1132 59.0504C74.1959 58.8026 74.1959 58.5549 74.1132 58.3897C74.1132 58.1419 73.9479 57.8116 73.7824 57.6464C73.2862 56.8205 72.7071 56.0772 71.9627 55.4991C71.2183 54.921 70.3085 54.5081 69.316 54.5081C68.737 54.5081 68.158 54.5907 67.5791 54.7558C66.8347 54.8384 66.0075 55.3339 65.3458 56.0772Z" fill="#D4CAFB"/>
<path d="M64.6798 52.8563C64.5144 52.8563 64.4316 52.7737 64.4316 52.6085C64.9279 48.7269 65.3415 44.8453 65.5896 40.9636C65.5896 40.881 65.6723 40.7985 65.8377 40.7985C65.9204 40.7985 66.0032 40.881 66.0032 41.0462C65.6723 44.9278 65.3415 48.8095 64.8452 52.6911C64.8452 52.7737 64.7625 52.8563 64.6798 52.8563Z" fill="#2B2C54"/>
<path d="M69.4707 53.0214C69.3053 53.0214 69.2227 52.9388 69.2227 52.7737L69.8843 39.7248C69.8843 39.6422 69.967 39.477 70.1325 39.5596C70.2152 39.5596 70.2978 39.6422 70.2978 39.8074L69.6362 52.8562C69.6362 52.9388 69.5534 53.0214 69.4707 53.0214Z" fill="#2B2C54"/>
<path d="M73.3634 53.9298C73.198 53.9298 73.1152 53.8472 73.1152 53.6821L74.4386 37.8252C74.4386 37.7426 74.5214 37.66 74.6868 37.66C74.7695 37.66 74.8522 37.7426 74.8522 37.9078L73.5288 53.7646C73.5288 53.8472 73.4461 53.9298 73.3634 53.9298Z" fill="#2B2C54"/>
<path d="M75.0978 31.3007C74.9324 31.3007 74.8496 31.2181 74.8496 31.053L75.0978 25.9325C75.0978 25.8499 75.1804 25.7673 75.3459 25.7673C75.4286 25.7673 75.5113 25.8499 75.5113 26.0151L75.2632 31.1355C75.2632 31.2181 75.1805 31.3007 75.0978 31.3007Z" fill="#2B2C54"/>
<path d="M77.2521 72.0165C77.0867 72.0165 77.0039 71.934 77.0039 71.7688L79.568 26.4281C79.568 26.3455 79.6507 26.2629 79.8161 26.2629C79.8988 26.2629 79.9816 26.3455 79.9816 26.5107L77.4175 71.8514C77.5002 71.934 77.4175 72.0165 77.2521 72.0165Z" fill="#2B2C54"/>
<path d="M81.4727 70.3649C81.39 70.3649 81.2246 70.2823 81.2246 70.1171C81.5555 58.3071 82.0517 46.3318 82.7134 34.5218C82.7134 34.4392 82.7961 34.274 82.9615 34.3566C83.0442 34.3566 83.1269 34.4392 83.1269 34.6044C82.4652 46.4144 81.8863 58.3897 81.6382 70.1997C81.6382 70.1997 81.5554 70.3649 81.4727 70.3649Z" fill="#2B2C54"/>
<path d="M85.2793 68.548C85.1966 68.548 85.0312 68.4654 85.0312 68.3002C85.4448 56.4075 85.8583 44.4323 86.1064 32.5397C86.1064 32.4571 86.1892 32.3745 86.3546 32.3745C86.4373 32.3745 86.6027 32.4571 86.52 32.6223C86.2719 44.4323 85.8584 56.4901 85.4448 68.3828C85.4448 68.4654 85.362 68.548 85.2793 68.548Z" fill="#2B2C54"/>
<path d="M89.0861 67.1439C89.0034 67.1439 88.8379 67.0613 88.8379 66.8961L89.9132 31.3008C89.9132 31.2182 89.9958 31.1356 90.1613 31.1356C90.244 31.1356 90.4095 31.2182 90.3267 31.3834L89.2514 66.9787C89.3342 66.9787 89.2515 67.1439 89.0861 67.1439Z" fill="#2B2C54"/>
<path d="M92.5514 75.898C92.4687 75.898 92.386 75.8154 92.3032 75.7329C91.807 66.2353 92.386 56.5725 92.965 47.3227C93.2958 41.7067 93.7094 35.843 93.7921 30.1444C93.7921 30.0618 93.8748 29.9792 94.0403 29.9792C94.123 29.9792 94.2884 30.0618 94.2057 30.227C94.1229 35.9256 93.7094 41.7893 93.3785 47.4053C92.7996 56.7377 92.2205 66.3179 92.7168 75.8154C92.7168 75.8154 92.6341 75.898 92.5514 75.898Z" fill="#2B2C54"/>
<path d="M96.1915 62.8492C96.1088 62.8492 95.9434 62.7667 95.9434 62.6015C96.1915 53.8472 96.8532 44.9277 98.0938 36.256C98.0938 36.1734 98.2593 36.0908 98.342 36.0908C98.4247 36.0908 98.5074 36.1734 98.5074 36.3386C97.3494 45.0103 96.6051 53.8472 96.3569 62.6841C96.4396 62.6841 96.357 62.8492 96.1915 62.8492Z" fill="#2B2C54"/>
<path d="M99.7539 61.0324C99.6712 61.0324 99.6712 61.0324 99.7539 61.0324C99.5885 61.0324 99.5059 60.9498 99.5059 60.7846C99.754 55.1686 100.25 49.4701 100.995 43.8541C100.995 43.7716 101.16 43.689 101.243 43.689C101.325 43.689 101.408 43.7715 101.408 43.9367C100.664 49.5527 100.168 55.2512 99.9194 60.8672C99.9194 60.9498 99.8366 61.0324 99.7539 61.0324Z" fill="#2B2C54"/>
<path d="M103.637 59.7111C103.471 59.7111 103.389 59.6285 103.389 59.4633C103.554 56.6554 103.885 53.93 104.298 51.122C104.298 51.0394 104.464 50.9568 104.547 50.9568C104.629 50.9568 104.712 51.0394 104.712 51.2046C104.298 53.93 104.05 56.7379 103.802 59.4633C103.885 59.6285 103.72 59.7111 103.637 59.7111Z" fill="#2B2C54"/>
<g opacity="0.1294">
<path d="M90.9037 69.2085C90.9037 68.8781 90.8209 68.5478 90.5728 68.3C90.4901 68.2174 90.4901 68.2174 90.5728 68.3C90.7382 68.5478 90.1593 67.8045 90.3247 68.0523C90.4074 68.1349 90.4074 68.1349 90.3247 68.0523C90.0766 67.7219 89.663 67.5567 89.2494 67.4741C89.1667 67.4741 89.084 67.4741 89.084 67.4741C88.5878 67.3916 88.1742 67.4742 87.6779 67.5567C86.5199 67.8045 85.4447 68.2174 84.3694 68.713C83.4596 69.0433 81.8054 69.8692 79.4067 70.6951C77.8352 71.1906 76.3464 71.7687 74.7749 72.3468C74.1959 72.5946 73.3688 72.6772 73.038 73.3379C72.459 74.3289 73.4515 75.5677 74.5267 75.2374C77.587 74.1638 80.8129 73.2553 83.7905 71.8513C84.4522 71.6861 87.3471 70.1996 88.4223 69.704C88.7532 69.6214 89.0013 69.5389 89.3321 69.3737C89.3321 69.3737 89.4148 69.3737 89.4148 69.2911C89.5802 69.4563 89.8284 69.6214 90.0765 69.704C90.0765 69.704 90.0766 69.704 89.9938 69.704C89.9938 69.704 90.0765 69.7866 90.1592 69.7866C90.1592 69.8692 90.2419 69.8692 90.2419 69.9518C90.3246 70.117 90.6555 70.1996 90.821 70.117C91.2345 69.7866 90.9037 69.2911 90.9037 69.2085Z" fill="#2B2C54"/>
</g>
<g opacity="0.1294">
<path d="M109.591 56.4902C109.425 56.0773 109.343 55.7469 109.26 55.334C109.094 55.334 108.929 55.4166 108.764 55.5817C108.515 55.8295 108.515 56.0773 108.433 56.4076C108.102 57.0683 108.185 56.9031 107.606 57.4812C105.538 59.3808 101.402 60.9499 98.8382 62.1062C98.5901 62.1888 98.0111 62.4365 97.763 62.5191C97.0186 62.932 96.026 62.932 95.5297 63.6753C94.9508 64.5838 95.8606 65.74 96.9359 65.4923C100.079 64.336 103.056 62.8495 105.869 61.1151C107.357 60.2067 109.012 59.2982 109.756 57.6464C109.756 57.5638 109.839 57.4813 109.839 57.3987C109.756 57.0683 109.673 56.8206 109.591 56.4902Z" fill="#2B2C54"/>
</g>
<path d="M93.3803 77.715C92.1396 77.715 90.8989 77.3021 90.1545 76.1459C89.5756 75.32 89.5756 74.329 89.5756 73.4205C89.5756 73.0076 89.5756 72.5946 89.4929 72.1817C89.4102 71.6036 88.9139 70.9428 88.4176 70.6951C88.1695 70.6125 88.0041 70.6951 87.8387 70.6951C87.756 70.6951 87.7559 70.7777 87.6732 70.7777C84.7783 71.7687 81.8007 72.925 78.9885 74.0812C77.2515 74.7419 75.5146 75.4026 73.7777 76.0633C73.6123 76.1459 73.4468 76.1459 73.2813 76.0633C73.1159 75.9807 73.0333 75.8155 72.9506 75.6503C71.6272 70.9428 69.7248 66.6483 67.2435 62.8492C67.078 62.6015 67.078 62.3537 67.2435 62.1886C67.4089 61.9408 67.657 61.8582 67.9051 61.9408C69.1458 62.106 70.3038 62.106 71.4617 61.7756C72.3716 61.5279 72.9505 61.1975 73.2813 60.702C73.6122 60.289 73.7777 59.7109 73.7777 59.1328C73.7777 57.3985 72.4543 55.7467 70.7173 55.1686C69.0631 54.6731 66.9953 55.1686 65.7546 56.49C65.5892 56.6552 65.4238 56.7378 65.1757 56.6552C65.0102 56.6552 64.7621 56.49 64.6794 56.3248C64.1004 55.086 63.6042 53.8472 63.0252 52.6084C61.6191 49.3875 60.2956 46.3317 58.8068 43.3585C58.6414 43.0282 58.8069 42.6978 59.055 42.5327C64.0177 39.8073 69.2285 37.4122 74.522 35.3475C74.6047 35.3475 74.6048 35.2649 74.6048 35.2649C74.6875 35.0172 74.5221 34.3565 74.1913 33.9436C73.9431 33.6132 73.695 33.3654 73.3641 33.0351C73.116 32.7873 72.7852 32.457 72.537 32.1266C71.1309 30.3923 71.0482 27.7495 72.2062 25.6848C73.2814 23.8678 75.4319 22.5464 77.7478 22.2987C78.823 22.2161 79.7329 22.2987 80.4773 22.7116C81.5526 23.2897 82.297 24.446 82.5451 25.7674C82.7105 27.0062 82.5451 28.1624 82.2969 29.2361V29.4012C82.2142 29.8968 82.0488 30.3923 82.1316 30.8878C82.1316 31.2182 82.297 31.5485 82.5451 31.7137C86.4326 30.2271 91.5606 28.245 96.7715 26.3455C96.9369 26.2629 97.1023 26.2629 97.2677 26.3455C97.4331 26.4281 97.5159 26.5107 97.5986 26.6758C101.403 37.7426 105.952 48.2312 110.915 57.9766C111.081 58.3069 110.998 58.6373 110.667 58.8025C106.201 61.2801 101.486 63.5925 96.8542 65.8224C96.3579 66.0702 95.8617 66.3179 95.779 66.6483C95.6135 67.1438 95.9444 67.7219 96.3579 68.1349C96.606 68.3001 96.8542 68.5478 97.1023 68.713C97.5159 69.0433 97.9295 69.2911 98.343 69.704C99.4183 70.8603 99.5837 72.8424 98.8393 74.329C98.1776 75.6504 96.8542 76.724 95.2827 77.2195C94.621 77.5499 93.9593 77.715 93.3803 77.715ZM88.0867 69.4563C88.3349 69.4563 88.583 69.5389 88.8312 69.6215C89.741 69.9518 90.4854 71.0254 90.6508 72.0165C90.7335 72.512 90.7336 72.925 90.7336 73.3379C90.7336 74.1638 90.8163 74.9071 91.1471 75.4026C91.8088 76.4762 93.463 76.5588 94.7037 76.1459C96.0271 75.7329 97.0196 74.9071 97.5159 73.8334C98.0949 72.7598 97.9294 71.3558 97.185 70.5299C96.9369 70.1996 96.5234 69.9518 96.1925 69.704C95.9444 69.5389 95.6135 69.2911 95.3654 69.0433C94.621 68.3826 93.9593 67.309 94.3728 66.1528C94.7037 65.4095 95.3654 64.9965 96.1098 64.6662C100.494 62.5189 105.043 60.3716 109.261 57.9766C104.464 48.479 100.08 38.3207 96.3579 27.6669C91.2298 29.4838 86.2672 31.3833 82.4624 32.8699C82.297 32.9525 82.2143 32.9525 82.0489 32.8699C81.2217 32.6221 80.7254 31.8789 80.56 30.8878C80.4773 30.2271 80.6428 29.5664 80.8082 28.9883V28.8231C81.0563 27.9147 81.2217 26.841 81.0563 25.85C80.8908 24.8589 80.3946 24.033 79.6502 23.7027C79.1539 23.4549 78.4922 23.3723 77.6651 23.4549C75.7627 23.6201 74.0258 24.6937 73.116 26.1803C72.2061 27.7495 72.2888 29.8968 73.2813 31.2182C73.5295 31.4659 73.7776 31.7137 74.0258 32.044C74.3566 32.3744 74.6875 32.7047 75.0184 33.1177C75.4319 33.7784 75.9281 34.7694 75.68 35.5953C75.5146 36.0082 75.2664 36.3386 74.8529 36.5038C69.8075 38.4033 64.8448 40.7157 60.0475 43.3585C61.4536 46.1665 62.6943 49.0571 64.0177 52.1128C64.4312 53.1039 64.8448 54.095 65.3411 55.086C66.9126 53.8472 69.0631 53.4343 70.8828 54.0124C73.116 54.6731 74.7702 56.9029 74.7702 59.1328C74.7702 59.7935 74.6875 60.702 74.0258 61.5279C73.5295 62.1886 72.7024 62.6841 71.5444 63.0144C70.6346 63.2622 69.7247 63.4274 68.7322 63.3448C70.8 66.7309 72.5369 70.5299 73.6949 74.7419C75.2664 74.1638 76.7552 73.5857 78.244 73.0076C81.0562 71.9339 84.0339 70.7777 86.9288 69.704C87.5077 69.5389 87.7559 69.4563 88.0867 69.4563Z" fill="#2B2C54"/>
<path d="M64.6798 52.8563C64.5144 52.8563 64.4316 52.7737 64.4316 52.6085C64.9279 48.7269 65.3415 44.8453 65.5896 40.9636C65.5896 40.881 65.6723 40.7985 65.8377 40.7985C65.9204 40.7985 66.0032 40.881 66.0032 41.0462C65.6723 44.9278 65.3415 48.8095 64.8452 52.6911C64.8452 52.7737 64.7625 52.8563 64.6798 52.8563Z" fill="#2B2C54"/>
<path d="M69.4707 53.0214C69.3053 53.0214 69.2227 52.9388 69.2227 52.7737L69.8843 39.7248C69.8843 39.6422 69.967 39.477 70.1325 39.5596C70.2152 39.5596 70.2978 39.6422 70.2978 39.8074L69.6362 52.8562C69.6362 52.9388 69.5534 53.0214 69.4707 53.0214Z" fill="#2B2C54"/>
<path d="M73.3634 53.9298C73.198 53.9298 73.1152 53.8472 73.1152 53.6821L74.4386 37.8252C74.4386 37.7426 74.5214 37.66 74.6868 37.66C74.7695 37.66 74.8522 37.7426 74.8522 37.9078L73.5288 53.7646C73.5288 53.8472 73.4461 53.9298 73.3634 53.9298Z" fill="#2B2C54"/>
<path d="M75.0978 31.3007C74.9324 31.3007 74.8496 31.2181 74.8496 31.053L75.0978 25.9325C75.0978 25.8499 75.1804 25.7673 75.3459 25.7673C75.4286 25.7673 75.5113 25.8499 75.5113 26.0151L75.2632 31.1355C75.2632 31.2181 75.1805 31.3007 75.0978 31.3007Z" fill="#2B2C54"/>
<path d="M77.2521 72.0165C77.0867 72.0165 77.0039 71.934 77.0039 71.7688L79.568 26.4281C79.568 26.3455 79.6507 26.2629 79.8161 26.2629C79.8988 26.2629 79.9816 26.3455 79.9816 26.5107L77.4175 71.8514C77.5002 71.934 77.4175 72.0165 77.2521 72.0165Z" fill="#2B2C54"/>
<path d="M81.4727 70.3649C81.39 70.3649 81.2246 70.2823 81.2246 70.1171C81.5555 58.3071 82.0517 46.3318 82.7134 34.5218C82.7134 34.4392 82.7961 34.274 82.9615 34.3566C83.0442 34.3566 83.1269 34.4392 83.1269 34.6044C82.4652 46.4144 81.8863 58.3897 81.6382 70.1997C81.6382 70.1997 81.5554 70.3649 81.4727 70.3649Z" fill="#2B2C54"/>
<path d="M85.2793 68.548C85.1966 68.548 85.0312 68.4654 85.0312 68.3002C85.4448 56.4075 85.8583 44.4323 86.1064 32.5397C86.1064 32.4571 86.1892 32.3745 86.3546 32.3745C86.4373 32.3745 86.6027 32.4571 86.52 32.6223C86.2719 44.4323 85.8584 56.4901 85.4448 68.3828C85.4448 68.4654 85.362 68.548 85.2793 68.548Z" fill="#2B2C54"/>
<path d="M89.0861 67.1439C89.0034 67.1439 88.8379 67.0613 88.8379 66.8961L89.9132 31.3008C89.9132 31.2182 89.9958 31.1356 90.1613 31.1356C90.244 31.1356 90.4095 31.2182 90.3267 31.3834L89.2514 66.9787C89.3342 66.9787 89.2515 67.1439 89.0861 67.1439Z" fill="#2B2C54"/>
<path d="M92.5514 75.898C92.4687 75.898 92.386 75.8154 92.3032 75.7329C91.807 66.2353 92.386 56.5725 92.965 47.3227C93.2958 41.7067 93.7094 35.843 93.7921 30.1444C93.7921 30.0618 93.8748 29.9792 94.0403 29.9792C94.123 29.9792 94.2884 30.0618 94.2057 30.227C94.1229 35.9256 93.7094 41.7893 93.3785 47.4053C92.7996 56.7377 92.2205 66.3179 92.7168 75.8154C92.7168 75.8154 92.6341 75.898 92.5514 75.898Z" fill="#2B2C54"/>
<path d="M96.1915 62.8492C96.1088 62.8492 95.9434 62.7667 95.9434 62.6015C96.1915 53.8472 96.8532 44.9277 98.0938 36.256C98.0938 36.1734 98.2593 36.0908 98.342 36.0908C98.4247 36.0908 98.5074 36.1734 98.5074 36.3386C97.3494 45.0103 96.6051 53.8472 96.3569 62.6841C96.4396 62.6841 96.357 62.8492 96.1915 62.8492Z" fill="#2B2C54"/>
<path d="M99.7539 61.0324C99.6712 61.0324 99.6712 61.0324 99.7539 61.0324C99.5885 61.0324 99.5059 60.9498 99.5059 60.7846C99.754 55.1686 100.25 49.4701 100.995 43.8541C100.995 43.7716 101.16 43.689 101.243 43.689C101.325 43.689 101.408 43.7715 101.408 43.9367C100.664 49.5527 100.168 55.2512 99.9194 60.8672C99.9194 60.9498 99.8366 61.0324 99.7539 61.0324Z" fill="#2B2C54"/>
<path d="M103.637 59.7111C103.471 59.7111 103.389 59.6285 103.389 59.4633C103.554 56.6554 103.885 53.93 104.298 51.122C104.298 51.0394 104.464 50.9568 104.547 50.9568C104.629 50.9568 104.712 51.0394 104.712 51.2046C104.298 53.93 104.05 56.7379 103.802 59.4633C103.885 59.6285 103.72 59.7111 103.637 59.7111Z" fill="#2B2C54"/>
<g opacity="0.1294">
<path d="M90.9037 69.2085C90.9037 68.8781 90.8209 68.5478 90.5728 68.3C90.4901 68.2174 90.4901 68.2174 90.5728 68.3C90.7382 68.5478 90.1593 67.8045 90.3247 68.0523C90.4074 68.1349 90.4074 68.1349 90.3247 68.0523C90.0766 67.7219 89.663 67.5567 89.2494 67.4741C89.1667 67.4741 89.084 67.4741 89.084 67.4741C88.5878 67.3916 88.1742 67.4742 87.6779 67.5567C86.5199 67.8045 85.4447 68.2174 84.3694 68.713C83.4596 69.0433 81.8054 69.8692 79.4067 70.6951C77.8352 71.1906 76.3464 71.7687 74.7749 72.3468C74.1959 72.5946 73.3688 72.6772 73.038 73.3379C72.459 74.3289 73.4515 75.5677 74.5267 75.2374C77.587 74.1638 80.8129 73.2553 83.7905 71.8513C84.4522 71.6861 87.3471 70.1996 88.4223 69.704C88.7532 69.6214 89.0013 69.5389 89.3321 69.3737C89.3321 69.3737 89.4148 69.3737 89.4148 69.2911C89.5802 69.4563 89.8284 69.6214 90.0765 69.704C90.0765 69.704 90.0766 69.704 89.9938 69.704C89.9938 69.704 90.0765 69.7866 90.1592 69.7866C90.1592 69.8692 90.2419 69.8692 90.2419 69.9518C90.3246 70.117 90.6555 70.1996 90.821 70.117C91.2345 69.7866 90.9037 69.2911 90.9037 69.2085Z" fill="#2B2C54"/>
</g>
<g opacity="0.1294">
<path d="M109.591 56.4902C109.425 56.0773 109.343 55.7469 109.26 55.334C109.094 55.334 108.929 55.4166 108.764 55.5817C108.515 55.8295 108.515 56.0773 108.433 56.4076C108.102 57.0683 108.185 56.9031 107.606 57.4812C105.538 59.3808 101.402 60.9499 98.8382 62.1062C98.5901 62.1888 98.0111 62.4365 97.763 62.5191C97.0186 62.932 96.026 62.932 95.5297 63.6753C94.9508 64.5838 95.8606 65.74 96.9359 65.4923C100.079 64.336 103.056 62.8495 105.869 61.1151C107.357 60.2067 109.012 59.2982 109.756 57.6464C109.756 57.5638 109.839 57.4813 109.839 57.3987C109.756 57.0683 109.673 56.8206 109.591 56.4902Z" fill="#2B2C54"/>
</g>
<path d="M93.3803 77.715C92.1396 77.715 90.8989 77.3021 90.1545 76.1459C89.5756 75.32 89.5756 74.329 89.5756 73.4205C89.5756 73.0076 89.5756 72.5946 89.4929 72.1817C89.4102 71.6036 88.9139 70.9428 88.4176 70.6951C88.1695 70.6125 88.0041 70.6951 87.8387 70.6951C87.756 70.6951 87.7559 70.7777 87.6732 70.7777C84.7783 71.7687 81.8007 72.925 78.9885 74.0812C77.2515 74.7419 75.5146 75.4026 73.7777 76.0633C73.6123 76.1459 73.4468 76.1459 73.2813 76.0633C73.1159 75.9807 73.0333 75.8155 72.9506 75.6503C71.6272 70.9428 69.7248 66.6483 67.2435 62.8492C67.078 62.6015 67.078 62.3537 67.2435 62.1886C67.4089 61.9408 67.657 61.8582 67.9051 61.9408C69.1458 62.106 70.3038 62.106 71.4617 61.7756C72.3716 61.5279 72.9505 61.1975 73.2813 60.702C73.6122 60.289 73.7777 59.7109 73.7777 59.1328C73.7777 57.3985 72.4543 55.7467 70.7173 55.1686C69.0631 54.6731 66.9953 55.1686 65.7546 56.49C65.5892 56.6552 65.4238 56.7378 65.1757 56.6552C65.0102 56.6552 64.7621 56.49 64.6794 56.3248C64.1004 55.086 63.6042 53.8472 63.0252 52.6084C61.6191 49.3875 60.2956 46.3317 58.8068 43.3585C58.6414 43.0282 58.8069 42.6978 59.055 42.5327C64.0177 39.8073 69.2285 37.4122 74.522 35.3475C74.6047 35.3475 74.6048 35.2649 74.6048 35.2649C74.6875 35.0172 74.5221 34.3565 74.1913 33.9436C73.9431 33.6132 73.695 33.3654 73.3641 33.0351C73.116 32.7873 72.7852 32.457 72.537 32.1266C71.1309 30.3923 71.0482 27.7495 72.2062 25.6848C73.2814 23.8678 75.4319 22.5464 77.7478 22.2987C78.823 22.2161 79.7329 22.2987 80.4773 22.7116C81.5526 23.2897 82.297 24.446 82.5451 25.7674C82.7105 27.0062 82.5451 28.1624 82.2969 29.2361V29.4012C82.2142 29.8968 82.0488 30.3923 82.1316 30.8878C82.1316 31.2182 82.297 31.5485 82.5451 31.7137C86.4326 30.2271 91.5606 28.245 96.7715 26.3455C96.9369 26.2629 97.1023 26.2629 97.2677 26.3455C97.4331 26.4281 97.5159 26.5107 97.5986 26.6758C101.403 37.7426 105.952 48.2312 110.915 57.9766C111.081 58.3069 110.998 58.6373 110.667 58.8025C106.201 61.2801 101.486 63.5925 96.8542 65.8224C96.3579 66.0702 95.8617 66.3179 95.779 66.6483C95.6135 67.1438 95.9444 67.7219 96.3579 68.1349C96.606 68.3001 96.8542 68.5478 97.1023 68.713C97.5159 69.0433 97.9295 69.2911 98.343 69.704C99.4183 70.8603 99.5837 72.8424 98.8393 74.329C98.1776 75.6504 96.8542 76.724 95.2827 77.2195C94.621 77.5499 93.9593 77.715 93.3803 77.715ZM88.0867 69.4563C88.3349 69.4563 88.583 69.5389 88.8312 69.6215C89.741 69.9518 90.4854 71.0254 90.6508 72.0165C90.7335 72.512 90.7336 72.925 90.7336 73.3379C90.7336 74.1638 90.8163 74.9071 91.1471 75.4026C91.8088 76.4762 93.463 76.5588 94.7037 76.1459C96.0271 75.7329 97.0196 74.9071 97.5159 73.8334C98.0949 72.7598 97.9294 71.3558 97.185 70.5299C96.9369 70.1996 96.5234 69.9518 96.1925 69.704C95.9444 69.5389 95.6135 69.2911 95.3654 69.0433C94.621 68.3826 93.9593 67.309 94.3728 66.1528C94.7037 65.4095 95.3654 64.9965 96.1098 64.6662C100.494 62.5189 105.043 60.3716 109.261 57.9766C104.464 48.479 100.08 38.3207 96.3579 27.6669C91.2298 29.4838 86.2672 31.3833 82.4624 32.8699C82.297 32.9525 82.2143 32.9525 82.0489 32.8699C81.2217 32.6221 80.7254 31.8789 80.56 30.8878C80.4773 30.2271 80.6428 29.5664 80.8082 28.9883V28.8231C81.0563 27.9147 81.2217 26.841 81.0563 25.85C80.8908 24.8589 80.3946 24.033 79.6502 23.7027C79.1539 23.4549 78.4922 23.3723 77.6651 23.4549C75.7627 23.6201 74.0258 24.6937 73.116 26.1803C72.2061 27.7495 72.2888 29.8968 73.2813 31.2182C73.5295 31.4659 73.7776 31.7137 74.0258 32.044C74.3566 32.3744 74.6875 32.7047 75.0184 33.1177C75.4319 33.7784 75.9281 34.7694 75.68 35.5953C75.5146 36.0082 75.2664 36.3386 74.8529 36.5038C69.8075 38.4033 64.8448 40.7157 60.0475 43.3585C61.4536 46.1665 62.6943 49.0571 64.0177 52.1128C64.4312 53.1039 64.8448 54.095 65.3411 55.086C66.9126 53.8472 69.0631 53.4343 70.8828 54.0124C73.116 54.6731 74.7702 56.9029 74.7702 59.1328C74.7702 59.7935 74.6875 60.702 74.0258 61.5279C73.5295 62.1886 72.7024 62.6841 71.5444 63.0144C70.6346 63.2622 69.7247 63.4274 68.7322 63.3448C70.8 66.7309 72.5369 70.5299 73.6949 74.7419C75.2664 74.1638 76.7552 73.5857 78.244 73.0076C81.0562 71.9339 84.0339 70.7777 86.9288 69.704C87.5077 69.5389 87.7559 69.4563 88.0867 69.4563Z" fill="#2B2C54"/>
<path d="M47.4729 79.4495C48.5481 78.2932 47.8864 76.4763 47.9691 74.9071C48.1346 71.4385 52.5183 69.126 55.5787 70.6952C58.639 72.2643 59.5488 76.8067 57.481 79.6147C57.0674 80.1928 56.4885 80.9361 56.902 81.5968C57.0674 81.8445 57.3983 82.0097 57.7291 82.0923C62.6091 83.8266 67.4891 85.4784 72.2864 87.2127C70.7976 91.5073 69.1433 95.7193 67.241 99.8486C65.3386 97.8665 62.1129 97.0407 59.7142 98.5272C57.3983 99.9312 56.9848 103.895 59.3007 105.382C60.8722 106.373 62.9399 105.96 64.8423 106.043C64.2633 110.915 62.7745 115.705 59.9623 119.505C55.8267 117.688 51.6912 115.953 47.5556 114.136C47.3074 114.054 47.0593 113.889 46.8111 113.723C46.3149 113.228 46.3976 112.319 46.8111 111.741C47.2247 111.163 47.8037 110.668 48.2173 110.172C49.6234 108.355 49.0444 105.382 47.2247 104.061C45.3223 102.657 42.5102 102.987 40.7733 104.474C39.0363 105.96 38.3746 108.603 38.9535 110.833C34.4871 108.273 29.6072 106.456 23.8174 105.547C27.0431 95.4715 30.2689 85.3132 33.4119 75.1549C38.2092 76.4763 42.9237 77.9629 47.4729 79.4495Z" fill="#9981F5"/>
<g opacity="0.1294">
<path d="M71.5438 86.4694C71.0475 86.2216 70.4685 85.9738 69.9723 85.7261C69.3933 85.9738 68.9798 86.4694 68.9798 87.2126C68.897 88.0385 68.6489 89.7729 68.0699 91.6724C67.3255 93.7371 67.1601 93.9849 66.4157 95.7192C66.2503 96.2147 66.0849 96.7102 65.9195 97.2058C65.8368 97.4535 65.6713 97.7839 65.754 98.1142C65.8367 98.9401 66.6638 99.4356 67.4909 99.2705C68.6489 98.7749 68.4008 98.1968 68.6489 97.7839C69.5587 96.1321 70.1377 94.3978 70.7167 92.6634C71.1302 91.2594 71.8746 89.938 72.04 88.4515C72.1228 87.8733 72.2883 87.2952 72.1228 86.7997C71.9574 86.7171 71.7919 86.5519 71.5438 86.4694Z" fill="#2B2C54"/>
</g>
<g opacity="0.1294">
<path d="M64.1753 105.217C63.7617 105.217 63.3482 105.217 62.8519 105.217C62.7692 105.217 62.7692 105.217 62.6865 105.217C62.3557 105.382 62.1903 105.795 62.1903 106.208C62.1075 107.529 62.1075 107.612 61.6939 109.264C60.8668 112.732 60.536 113.228 59.0472 115.953C59.0472 116.036 58.9645 116.118 58.9645 116.201C57.9719 115.705 56.814 115.458 55.7387 115.21C53.3401 114.467 50.8587 113.971 48.3774 113.228C48.1292 113.145 47.8811 113.063 47.6329 113.145C47.2194 113.393 47.3021 114.054 47.7984 114.136C48.7082 114.467 49.9489 114.714 50.4451 114.962C53.5882 116.366 55.4906 117.192 57.8065 118.1C57.8892 118.1 57.9719 118.183 57.9719 118.183C58.3854 118.348 58.7163 118.431 59.1299 118.596C59.5434 118.844 60.0397 119.009 60.4532 118.679C60.7841 118.431 60.8668 118.1 60.7841 117.688C61.1149 117.275 61.3631 116.862 61.6112 116.449C63.1 114.136 63.5136 111.493 64.258 108.933C64.4235 108.273 64.5061 107.612 64.5888 106.951C64.5888 106.621 64.6715 106.208 64.5061 105.877C64.4234 105.465 64.3407 105.299 64.1753 105.217Z" fill="#2B2C54"/>
</g>
<path d="M60.0438 120C59.9611 120 59.8785 120 59.7958 119.917L47.389 114.549C47.1409 114.467 46.7274 114.301 46.4792 113.971C45.7348 113.228 45.9002 111.989 46.3964 111.246C46.6446 110.833 46.9755 110.502 47.3063 110.172C47.4718 109.924 47.7199 109.759 47.8853 109.594C48.4643 108.851 48.6297 107.942 48.547 106.951C48.3816 105.877 47.8853 104.886 47.0582 104.308C45.4866 103.152 43.0052 103.317 41.4337 104.721C39.9449 106.043 39.2832 108.355 39.7795 110.42C39.8622 110.668 39.7796 110.915 39.5314 111.081C39.366 111.246 39.0351 111.246 38.8697 111.163C34.0724 108.438 29.3579 106.786 23.9816 105.877C23.8162 105.877 23.6508 105.712 23.568 105.547C23.4853 105.382 23.4854 105.217 23.4854 105.052C26.6284 95.1411 29.9368 84.8176 33.0799 74.6593C33.1626 74.4942 33.2453 74.329 33.4107 74.2464C33.5762 74.1638 33.7416 74.1638 33.907 74.2464C38.3734 75.733 43.0053 77.2195 47.4717 78.6235C47.8026 77.9628 47.7198 77.137 47.6371 76.2285C47.5544 75.733 47.5544 75.2374 47.5544 74.7419C47.6371 73.0076 48.7124 71.3558 50.4493 70.2822C52.269 69.2085 54.4195 69.1259 56.1564 69.9518C57.728 70.7777 58.886 72.2643 59.2995 74.1638C59.7958 76.1459 59.3822 78.2932 58.3069 79.7798C58.0588 80.1101 57.5625 80.7708 57.728 81.0186C57.8107 81.1012 58.0588 81.1838 58.2242 81.2663L72.7814 86.3868C73.1123 86.4694 73.2777 86.8823 73.195 87.2126C71.7062 91.5072 69.9693 95.8018 68.0669 99.9312C67.9842 100.096 67.8188 100.262 67.5707 100.262C67.4053 100.262 67.1571 100.262 66.9916 100.096C65.4201 98.4446 62.5252 97.4535 60.292 98.8575C59.2995 99.5182 58.6378 100.757 58.6378 102.078C58.6378 103.152 59.0513 104.143 59.8785 104.639C60.871 105.217 62.1117 105.217 63.4351 105.217C64.0141 105.217 64.593 105.217 65.172 105.217C65.3374 105.217 65.5029 105.299 65.5856 105.465C65.6683 105.63 65.751 105.795 65.751 105.96C65.172 111.328 63.435 116.036 60.7883 119.752C60.3747 119.835 60.2093 120 60.0438 120ZM44.4114 102.326C45.5694 102.326 46.7273 102.657 47.6371 103.317C48.7123 104.143 49.4568 105.382 49.6222 106.786C49.7876 108.107 49.5395 109.429 48.7124 110.337C48.547 110.585 48.2988 110.833 48.0507 111.081C47.8025 111.328 47.5545 111.659 47.3063 111.906C47.0582 112.319 46.9754 112.815 47.2235 113.063C47.3063 113.145 47.5545 113.228 47.7199 113.393L59.7131 118.513C61.9463 115.21 63.5177 111.081 64.0967 106.456C63.7659 106.456 63.4351 106.456 63.1869 106.456C61.7808 106.456 60.292 106.538 58.9686 105.712C57.8107 104.969 57.1489 103.648 57.1489 102.161C57.1489 100.427 58.0588 98.6924 59.4649 97.8665C61.9462 96.3799 65.0065 97.1232 67.0743 98.6924C68.7286 95.0585 70.2174 91.2595 71.5408 87.4604L57.5625 82.5878C57.2316 82.5052 56.7355 82.34 56.4046 81.8444C55.7429 80.8534 56.4873 79.7798 56.9836 79.2017C57.8934 77.9628 58.2242 76.2285 57.8107 74.5767C57.4798 73.0902 56.57 71.8513 55.3293 71.1906C54.0059 70.5299 52.269 70.6125 50.8629 71.521C49.5395 72.3469 48.6297 73.5857 48.6297 74.9071C48.6297 75.32 48.6297 75.8155 48.7124 76.2285C48.7951 77.4673 48.9605 78.7887 48.0507 79.8623C47.8852 80.0275 47.6372 80.1101 47.389 80.0275C43.0053 78.6235 38.4561 77.1369 33.9897 75.733C31.0121 85.4783 27.869 95.3063 24.8087 104.804C29.606 105.63 33.9897 107.199 38.2907 109.429C38.1253 107.281 38.9524 105.134 40.5239 103.813C41.5165 102.822 42.9226 102.326 44.4114 102.326Z" fill="#2B2C54"/>
<path d="M47.4729 79.4495C48.5481 78.2932 47.8864 76.4763 47.9691 74.9071C48.1346 71.4385 52.5183 69.126 55.5787 70.6952C58.639 72.2643 59.5488 76.8067 57.481 79.6147C57.0674 80.1928 56.4885 80.9361 56.902 81.5968C57.0674 81.8445 57.3983 82.0097 57.7291 82.0923C62.6091 83.8266 67.4891 85.4784 72.2864 87.2127C70.7976 91.5073 69.1433 95.7193 67.241 99.8486C65.3386 97.8665 62.1129 97.0407 59.7142 98.5272C57.3983 99.9312 56.9848 103.895 59.3007 105.382C60.8722 106.373 62.9399 105.96 64.8423 106.043C64.2633 110.915 62.7745 115.705 59.9623 119.505C55.8267 117.688 51.6912 115.953 47.5556 114.136C47.3074 114.054 47.0593 113.889 46.8111 113.723C46.3149 113.228 46.3976 112.319 46.8111 111.741C47.2247 111.163 47.8037 110.668 48.2173 110.172C49.6234 108.355 49.0444 105.382 47.2247 104.061C45.3223 102.657 42.5102 102.987 40.7733 104.474C39.0363 105.96 38.3746 108.603 38.9535 110.833C34.4871 108.273 29.6072 106.456 23.8174 105.547C27.0431 95.4715 30.2689 85.3132 33.4119 75.1549C38.2092 76.4763 42.9237 77.9629 47.4729 79.4495Z" fill="#9981F5"/>
<g opacity="0.1294">
<path d="M71.5438 86.4694C71.0475 86.2216 70.4685 85.9738 69.9723 85.7261C69.3933 85.9738 68.9798 86.4694 68.9798 87.2126C68.897 88.0385 68.6489 89.7729 68.0699 91.6724C67.3255 93.7371 67.1601 93.9849 66.4157 95.7192C66.2503 96.2147 66.0849 96.7102 65.9195 97.2058C65.8368 97.4535 65.6713 97.7839 65.754 98.1142C65.8367 98.9401 66.6638 99.4356 67.4909 99.2705C68.6489 98.7749 68.4008 98.1968 68.6489 97.7839C69.5587 96.1321 70.1377 94.3978 70.7167 92.6634C71.1302 91.2594 71.8746 89.938 72.04 88.4515C72.1228 87.8733 72.2883 87.2952 72.1228 86.7997C71.9574 86.7171 71.7919 86.5519 71.5438 86.4694Z" fill="#2B2C54"/>
</g>
<g opacity="0.1294">
<path d="M64.1753 105.217C63.7617 105.217 63.3482 105.217 62.8519 105.217C62.7692 105.217 62.7692 105.217 62.6865 105.217C62.3557 105.382 62.1903 105.795 62.1903 106.208C62.1075 107.529 62.1075 107.612 61.6939 109.264C60.8668 112.732 60.536 113.228 59.0472 115.953C59.0472 116.036 58.9645 116.118 58.9645 116.201C57.9719 115.705 56.814 115.458 55.7387 115.21C53.3401 114.467 50.8587 113.971 48.3774 113.228C48.1292 113.145 47.8811 113.063 47.6329 113.145C47.2194 113.393 47.3021 114.054 47.7984 114.136C48.7082 114.467 49.9489 114.714 50.4451 114.962C53.5882 116.366 55.4906 117.192 57.8065 118.1C57.8892 118.1 57.9719 118.183 57.9719 118.183C58.3854 118.348 58.7163 118.431 59.1299 118.596C59.5434 118.844 60.0397 119.009 60.4532 118.679C60.7841 118.431 60.8668 118.1 60.7841 117.688C61.1149 117.275 61.3631 116.862 61.6112 116.449C63.1 114.136 63.5136 111.493 64.258 108.933C64.4235 108.273 64.5061 107.612 64.5888 106.951C64.5888 106.621 64.6715 106.208 64.5061 105.877C64.4234 105.465 64.3407 105.299 64.1753 105.217Z" fill="#2B2C54"/>
</g>
<path d="M60.0438 120C59.9611 120 59.8785 120 59.7958 119.917L47.389 114.549C47.1409 114.467 46.7274 114.301 46.4792 113.971C45.7348 113.228 45.9002 111.989 46.3964 111.246C46.6446 110.833 46.9755 110.502 47.3063 110.172C47.4718 109.924 47.7199 109.759 47.8853 109.594C48.4643 108.851 48.6297 107.942 48.547 106.951C48.3816 105.877 47.8853 104.886 47.0582 104.308C45.4866 103.152 43.0052 103.317 41.4337 104.721C39.9449 106.043 39.2832 108.355 39.7795 110.42C39.8622 110.668 39.7796 110.915 39.5314 111.081C39.366 111.246 39.0351 111.246 38.8697 111.163C34.0724 108.438 29.3579 106.786 23.9816 105.877C23.8162 105.877 23.6508 105.712 23.568 105.547C23.4853 105.382 23.4854 105.217 23.4854 105.052C26.6284 95.1411 29.9368 84.8176 33.0799 74.6593C33.1626 74.4942 33.2453 74.329 33.4107 74.2464C33.5762 74.1638 33.7416 74.1638 33.907 74.2464C38.3734 75.733 43.0053 77.2195 47.4717 78.6235C47.8026 77.9628 47.7198 77.137 47.6371 76.2285C47.5544 75.733 47.5544 75.2374 47.5544 74.7419C47.6371 73.0076 48.7124 71.3558 50.4493 70.2822C52.269 69.2085 54.4195 69.1259 56.1564 69.9518C57.728 70.7777 58.886 72.2643 59.2995 74.1638C59.7958 76.1459 59.3822 78.2932 58.3069 79.7798C58.0588 80.1101 57.5625 80.7708 57.728 81.0186C57.8107 81.1012 58.0588 81.1838 58.2242 81.2663L72.7814 86.3868C73.1123 86.4694 73.2777 86.8823 73.195 87.2126C71.7062 91.5072 69.9693 95.8018 68.0669 99.9312C67.9842 100.096 67.8188 100.262 67.5707 100.262C67.4053 100.262 67.1571 100.262 66.9916 100.096C65.4201 98.4446 62.5252 97.4535 60.292 98.8575C59.2995 99.5182 58.6378 100.757 58.6378 102.078C58.6378 103.152 59.0513 104.143 59.8785 104.639C60.871 105.217 62.1117 105.217 63.4351 105.217C64.0141 105.217 64.593 105.217 65.172 105.217C65.3374 105.217 65.5029 105.299 65.5856 105.465C65.6683 105.63 65.751 105.795 65.751 105.96C65.172 111.328 63.435 116.036 60.7883 119.752C60.3747 119.835 60.2093 120 60.0438 120ZM44.4114 102.326C45.5694 102.326 46.7273 102.657 47.6371 103.317C48.7123 104.143 49.4568 105.382 49.6222 106.786C49.7876 108.107 49.5395 109.429 48.7124 110.337C48.547 110.585 48.2988 110.833 48.0507 111.081C47.8025 111.328 47.5545 111.659 47.3063 111.906C47.0582 112.319 46.9754 112.815 47.2235 113.063C47.3063 113.145 47.5545 113.228 47.7199 113.393L59.7131 118.513C61.9463 115.21 63.5177 111.081 64.0967 106.456C63.7659 106.456 63.4351 106.456 63.1869 106.456C61.7808 106.456 60.292 106.538 58.9686 105.712C57.8107 104.969 57.1489 103.648 57.1489 102.161C57.1489 100.427 58.0588 98.6924 59.4649 97.8665C61.9462 96.3799 65.0065 97.1232 67.0743 98.6924C68.7286 95.0585 70.2174 91.2595 71.5408 87.4604L57.5625 82.5878C57.2316 82.5052 56.7355 82.34 56.4046 81.8444C55.7429 80.8534 56.4873 79.7798 56.9836 79.2017C57.8934 77.9628 58.2242 76.2285 57.8107 74.5767C57.4798 73.0902 56.57 71.8513 55.3293 71.1906C54.0059 70.5299 52.269 70.6125 50.8629 71.521C49.5395 72.3469 48.6297 73.5857 48.6297 74.9071C48.6297 75.32 48.6297 75.8155 48.7124 76.2285C48.7951 77.4673 48.9605 78.7887 48.0507 79.8623C47.8852 80.0275 47.6372 80.1101 47.389 80.0275C43.0053 78.6235 38.4561 77.1369 33.9897 75.733C31.0121 85.4783 27.869 95.3063 24.8087 104.804C29.606 105.63 33.9897 107.199 38.2907 109.429C38.1253 107.281 38.9524 105.134 40.5239 103.813C41.5165 102.822 42.9226 102.326 44.4114 102.326Z" fill="#2B2C54"/>
<path d="M19.0255 89.8555C18.8601 89.8555 18.7774 89.7729 18.6119 89.6903C12.2432 84.4873 8.43848 76.4763 8.43848 68.3001C8.43848 67.9697 8.68655 67.6394 9.10011 67.6394C9.43096 67.6394 9.76184 67.8872 9.76184 68.3001C9.76184 76.1459 13.3184 83.744 19.4391 88.6993C19.6872 88.947 19.7699 89.2774 19.5218 89.6077C19.3563 89.7729 19.1909 89.8555 19.0255 89.8555Z" fill="#2B2C54"/>
<path d="M19.021 90.1858C18.9383 90.1858 18.9383 90.1858 18.8556 90.1858C16.5397 89.6903 14.2237 88.947 11.9905 88.1211C11.6596 87.956 11.4942 87.6256 11.6596 87.2953C11.825 86.9649 12.1559 86.7997 12.4867 86.9649C14.3891 87.7082 16.3743 88.2863 18.3593 88.7819C18.1939 86.8823 17.7803 85.0654 17.2014 83.3311C17.1186 83.0007 17.2841 82.6704 17.6149 82.5052C17.9458 82.4226 18.2766 82.5878 18.442 82.9181C19.1864 85.0654 19.6 87.2953 19.7654 89.5251C19.7654 89.6903 19.6826 89.9381 19.5172 90.0207C19.3518 90.1033 19.1864 90.1858 19.021 90.1858Z" fill="#2B2C54"/>
<path d="M82.8754 102.491C82.6272 102.491 82.379 102.326 82.2963 102.078C82.1309 101.748 82.2964 101.418 82.6272 101.253C90.154 97.8665 95.9438 90.8465 97.7635 82.8355C97.8462 82.5052 98.1769 82.2574 98.5078 82.34C98.8386 82.4226 99.0869 82.7529 99.0041 83.0833C97.1018 91.5072 91.0637 98.8575 83.2061 102.409C83.0407 102.491 82.9581 102.491 82.8754 102.491Z" fill="#2B2C54"/>
<path d="M99.5064 88.947C99.1756 88.947 98.8447 88.6992 98.8447 88.2863C98.8447 86.7997 98.5966 85.2306 98.1831 83.8266C96.9424 84.8176 95.7017 85.7261 94.2956 86.5519C93.9647 86.7171 93.6339 86.6345 93.4684 86.3042C93.303 85.9738 93.3858 85.6435 93.7166 85.4783C95.2881 84.5698 96.7769 83.4962 98.1003 82.34C98.2657 82.1748 98.5139 82.1748 98.6793 82.1748C98.8447 82.2574 99.0102 82.34 99.0929 82.5877C99.7546 84.4873 100.085 86.3868 100.085 88.3689C100.085 88.6992 99.8373 88.947 99.5064 88.947Z" fill="#2B2C54"/>
<path d="M54.5921 13.6269C54.4267 13.6269 54.1786 13.5443 54.0958 13.3791C53.9304 13.1314 54.0131 12.7184 54.2612 12.4707C60.7127 8.09352 69.4802 7.5154 76.5107 10.9015C76.8415 11.0667 76.9242 11.397 76.8415 11.7274C76.6761 12.0577 76.3453 12.1403 76.0144 12.0577C69.3975 8.83681 61.1263 9.41493 55.0056 13.5443C54.8402 13.5443 54.7575 13.6269 54.5921 13.6269Z" fill="#2B2C54"/>
<path d="M59.9713 13.9572C58.0689 13.7921 56.1665 13.7095 54.2641 13.7921C54.016 13.7921 53.7679 13.6269 53.6852 13.4617C53.6025 13.2139 53.6025 12.9662 53.7679 12.801L57.159 8.25868C57.4072 8.01091 57.7381 7.92833 58.069 8.0935C58.3171 8.34127 58.3998 8.67162 58.2343 9.00197L55.5876 12.5532H55.6703C57.1591 12.5532 58.6479 12.6358 60.0539 12.7184C60.3848 12.7184 60.633 13.0488 60.633 13.3791C60.5503 13.7095 60.3021 13.9572 59.9713 13.9572Z" fill="#2B2C54"/>
<path d="M80.8137 5.69856C80.7309 5.69856 80.5655 5.69856 80.4828 5.61597C76.0164 2.89057 70.64 1.32141 65.4292 1.32141C65.0984 1.32141 64.7676 1.07364 64.7676 0.660704C64.7676 0.330353 65.0157 0 65.4292 0C70.9709 0 76.4299 1.56917 81.1444 4.45975C81.4753 4.62492 81.558 5.03786 81.3099 5.28562C81.2272 5.61597 80.9791 5.69856 80.8137 5.69856Z" fill="#2B2C54"/>
<path d="M87.0153 111.494C86.7671 111.494 86.6016 111.411 86.4362 111.163C86.2708 110.833 86.3535 110.502 86.6844 110.337C91.2335 107.86 95.2037 104.061 97.7678 99.6009C97.9332 99.2705 98.3467 99.1879 98.5949 99.3531C98.9257 99.5183 99.0084 99.9312 98.843 100.179C96.1135 104.969 92.1433 108.851 87.2633 111.411C87.2633 111.494 87.098 111.494 87.0153 111.494Z" fill="#2B2C54"/>
<path d="M5.62713 83.0006C5.46171 83.0006 5.21359 82.918 5.13088 82.7529C1.7397 78.3757 -0.0800112 72.9249 0.00270044 67.3915C0.00270044 67.0612 0.250876 66.7308 0.664434 66.7308C0.99528 66.7308 1.32607 66.9786 1.32607 67.3915C1.24335 72.6771 2.98032 77.7976 6.20607 82.0096C6.45421 82.2573 6.37151 82.6703 6.12338 82.918C5.95796 82.918 5.79255 83.0006 5.62713 83.0006Z" fill="#2B2C54"/>
</svg>
