<svg width="120" height="120" viewBox="0 0 120 120" fill="none" xmlns="http://www.w3.org/2000/svg">
<path d="M110.851 34.4614C78.6321 31.543 46.0157 31.8449 13.797 35.3671C9.42166 35.8702 4.44966 36.7759 2.56029 40.8013C0.273165 45.7324 4.54908 51.4685 9.32222 53.9843C16.6808 57.8084 25.3321 58.0097 33.6851 58.1103C58.4457 58.211 83.4052 57.104 107.669 52.0723C108.564 51.871 109.657 51.5691 110.155 50.764C110.453 50.1602 110.453 49.4558 110.453 48.7514C110.354 44.1222 110.155 39.4931 110.851 34.4614Z" fill="#D4CAFB"/>
<path d="M36.7691 58.9154C35.7747 58.9154 34.7803 58.9154 33.7859 58.9154C25.0352 58.9154 16.4833 58.5129 9.12474 54.7894C3.75496 52.0723 -0.520982 45.833 1.96503 40.4994C3.95383 36.1722 8.82637 35.0652 13.7984 34.562C46.017 31.0398 78.733 30.7379 110.952 33.6563C111.15 33.6563 111.349 33.757 111.548 33.9582C111.648 34.1595 111.747 34.3608 111.747 34.6627C111.051 39.6943 111.25 44.3235 111.449 48.852C111.449 49.5565 111.548 50.4622 111.051 51.2672C110.355 52.4748 108.863 52.7767 107.968 52.978C87.5831 57.104 65.5074 58.9154 36.7691 58.9154ZM66.9989 33.3544C49.2986 33.3544 31.4988 34.2601 13.8979 36.1722C9.42305 36.6753 5.04764 37.581 3.35715 41.1032C1.36835 45.4305 5.14708 50.7641 9.82077 53.0786C16.881 56.7015 25.1346 57.0034 33.7859 57.104C63.9163 57.2046 86.6881 55.3932 107.67 51.1666C108.466 50.9653 109.261 50.7641 109.559 50.2609C109.758 49.959 109.758 49.3552 109.758 48.7514C109.559 44.4241 109.361 39.9962 109.957 35.1658C95.6378 33.9582 81.3183 33.3544 66.9989 33.3544Z" fill="#2B2C54"/>
<path d="M71.6742 8.90027C79.6294 9.90661 87.6841 10.9129 95.6393 11.9193C89.0763 21.1776 86.292 32.5492 84.2037 43.8202C83.806 45.7323 83.4082 47.9462 81.8171 49.0532C81.0216 49.657 79.9277 49.9589 79.0327 50.1601C77.2428 50.5627 75.3535 51.0658 73.5636 50.5627C69.8843 49.657 68.0944 45.4304 67.2989 41.6063C65.2106 30.6372 67.5972 19.2656 71.6742 8.90027Z" fill="#D4CAFB"/>
<path d="M75.1544 51.6698C74.5577 51.6698 73.9611 51.5692 73.3645 51.4685C68.7902 50.3616 67.0997 44.9273 66.503 41.8077C64.6137 31.9456 66.1053 20.6746 70.9779 8.59852C71.0773 8.19598 71.4751 7.99471 71.8728 8.09535L95.8379 11.1144C96.1363 11.1144 96.4346 11.3156 96.5341 11.6175C96.6335 11.9194 96.6334 12.2213 96.4345 12.4226C89.9709 21.6809 87.1867 33.0525 85.0985 43.921C84.8001 45.7324 84.3029 48.3489 82.3141 49.7578C81.3197 50.4622 80.2259 50.7641 79.132 50.9654C78.0382 51.2673 76.5465 51.6698 75.1544 51.6698ZM72.2706 9.80612C67.7958 21.379 66.4036 32.0462 68.1935 41.4051C68.6907 44.1223 70.0829 48.7514 73.7622 49.6571C75.3533 50.0597 77.2426 49.6571 78.8337 49.2546C79.7286 49.0533 80.6236 48.7514 81.3197 48.2482C82.6124 47.3425 83.0101 45.4305 83.4079 43.5185C85.3967 32.8513 88.0816 21.7815 94.2469 12.5232L72.2706 9.80612Z" fill="#2B2C54"/>
<path d="M29.7065 56.2988C28.5132 37.9834 27.6182 19.0643 33.1869 1.55397C47.904 -0.358071 62.9195 2.15777 77.5373 0.748901C74.2557 18.6617 71.0736 36.9771 74.3552 54.8899L29.7065 56.2988Z" fill="#D4CAFB"/>
<path d="M29.7073 57.2045C29.2101 57.2045 28.9118 56.9026 28.8124 56.3994C27.5196 36.4739 26.923 18.5611 32.3922 1.35274C32.4916 1.05084 32.79 0.84957 33.0883 0.748936C41.0435 -0.257402 49.0982 -0.0561348 56.954 0.245767C63.7159 0.447034 70.6767 0.648301 77.4386 0.0444983C77.737 0.0444983 77.9359 0.145131 78.1348 0.346399C78.3337 0.547667 78.4331 0.849569 78.3336 1.05084C75.251 17.8567 71.87 36.8765 75.1515 54.7893C75.1515 54.9906 75.1515 55.2925 74.9526 55.4937C74.7537 55.695 74.5549 55.7956 74.356 55.7956L29.7073 57.2045ZM33.8838 2.35908C28.7129 18.863 29.3096 36.172 30.5029 55.4937L73.3616 54.0849C70.3784 36.5746 73.5605 18.1586 76.4442 1.75527C69.8812 2.25844 63.3182 2.05717 56.8545 1.85591C49.2971 1.65464 41.4413 1.45337 33.8838 2.35908Z" fill="#2B2C54"/>
<path d="M114.231 44.0214C81.0181 44.9271 47.7056 45.5309 14.4925 45.8328C10.0177 45.8328 0.471492 48.4493 2.65918 40.8011C1.06813 45.0278 0.67036 50.8645 0.968681 55.3931C1.7642 69.7837 2.06254 84.275 1.66478 98.6656C1.56533 102.49 1.46589 106.414 2.65918 110.037C3.85246 113.66 6.83566 116.981 10.4155 117.786C45.4185 120.101 78.6315 118.692 113.336 118.49C110.95 92.9295 113.436 69.5824 114.231 44.0214Z" fill="#D4CAFB"/>
<path d="M54.7672 120C40.05 120 25.4323 119.698 10.218 118.692H10.1186C6.43926 117.887 3.15771 114.566 1.76554 110.339C0.472819 106.616 0.6717 102.691 0.77114 98.8668V98.6656C1.1689 84.2749 0.970009 69.7837 0.0750462 55.4937C-0.223275 49.8582 0.373379 44.2227 1.76554 40.4992C1.96442 40.0967 2.36216 39.7948 2.85936 39.9961C3.25712 40.0967 3.55548 40.5999 3.45604 41.103C3.05828 42.6125 3.05829 43.7195 3.65493 44.424C4.84822 45.9335 8.62695 45.6316 11.6102 45.3297C12.704 45.229 13.6984 45.1284 14.4939 45.1284C47.6075 44.8265 81.1189 44.2227 114.232 43.317C114.431 43.317 114.73 43.4176 114.829 43.6189C115.028 43.8202 115.127 44.0214 115.028 44.2227C114.829 51.2671 114.431 58.2108 114.133 64.9533C113.238 83.0673 112.343 100.074 114.034 118.591C114.034 118.792 113.934 119.094 113.835 119.296C113.636 119.497 113.437 119.597 113.238 119.597C104.587 119.698 95.836 119.799 87.483 119.899C76.4451 119.899 65.6062 120 54.7672 120ZM10.4169 116.981C36.6691 118.692 61.3302 118.39 87.483 117.987C95.6371 117.887 103.99 117.786 112.343 117.685C110.752 99.4707 111.647 82.5642 112.542 64.752C112.84 58.3114 113.238 51.6696 113.437 44.9271C80.6217 45.8328 47.4087 46.4366 14.5934 46.7385C13.7978 46.7385 12.8034 46.8392 11.809 46.9398C8.22914 47.2417 4.25153 47.6442 2.36216 45.4303C1.86496 48.4493 1.66608 51.8709 1.86496 55.393C2.66048 69.7837 2.95881 84.3756 2.56105 98.7662V98.9675C2.46161 102.59 2.3622 106.414 3.45604 109.836C4.54988 113.459 7.33421 116.277 10.4169 116.981Z" fill="#2B2C54"/>
<path d="M56.4572 17.8569C47.7065 17.8569 38.8563 17.6556 30.1056 17.3537C29.6084 17.3537 29.3101 16.9512 29.3101 16.448C29.3101 15.9448 29.7078 15.6429 30.205 15.6429C44.7233 16.2467 59.5399 16.3474 74.0582 15.9448C74.5554 15.9448 74.8537 16.3474 74.9531 16.7499C74.9531 17.2531 74.5554 17.6556 74.1576 17.6556C68.2906 17.7563 62.4237 17.8569 56.4572 17.8569Z" fill="#2B2C54"/>
<path d="M61.2307 45.6315C60.7335 45.6315 60.4353 45.229 60.3358 44.8265C60.2364 42.21 58.5459 39.5935 56.1593 38.5872C54.6677 37.9834 52.9772 37.8827 51.1873 37.8827C48.9996 37.8827 46.8119 37.8827 45.1214 38.7884C43.1326 39.8954 41.8399 42.3106 42.0388 44.6252C42.0388 45.1284 41.7405 45.5309 41.2433 45.5309C40.7461 45.5309 40.3483 45.229 40.3483 44.7258C40.05 41.7068 41.641 38.5872 44.2265 37.1783C46.3147 36.0713 48.7013 35.9707 51.1873 35.9707C53.1761 35.9707 55.0654 36.0713 56.7559 36.7758C59.8386 37.9834 61.9268 41.2037 62.0263 44.5246C62.0263 45.229 61.7279 45.6315 61.2307 45.6315Z" fill="#2B2C54"/>
<path d="M114.329 69.0794C103.888 68.5762 95.933 68.7775 85.4918 69.6832C82.0114 69.9851 78.531 70.3876 75.4483 71.8971C72.3657 73.5073 69.7803 76.4256 69.5814 79.9478C69.3825 83.8725 72.4652 87.3947 76.045 89.0049C79.6249 90.615 83.6025 90.7156 87.5801 90.7156C95.5353 90.8163 103.491 91.0175 111.446 91.1182C112.937 91.1182 114.628 91.1182 115.921 90.4137C118.506 88.9042 118.804 85.4827 118.904 82.4637C119.003 79.8472 119.003 77.1301 119.103 74.5136C119.103 73.306 118.705 71.6958 118.307 70.5889C118.009 69.4819 114.926 68.9787 114.329 69.0794Z" fill="#D4CAFB"/>
<path d="M112.242 92.0239C111.944 92.0239 111.646 92.0239 111.447 92.0239L87.581 91.6214C83.8022 91.5208 79.5263 91.5207 75.7475 89.81C72.1677 88.1998 68.5878 84.577 68.7867 79.9479C68.8862 76.4257 71.3722 73.0041 75.0515 71.1927C78.2335 69.5826 81.8134 69.18 85.3932 68.8781C96.1328 67.9724 103.989 67.8718 114.231 68.2743C115.225 68.1737 118.507 68.6769 119.103 70.287C119.302 70.8908 119.998 73.0041 119.998 74.5136L119.8 82.4637C119.7 85.7846 119.203 89.5081 116.319 91.1182C115.026 91.9233 113.535 92.0239 112.242 92.0239ZM103.79 69.6832C98.0221 69.6832 92.3541 69.9851 85.5922 70.4883C82.1118 70.7902 78.7307 71.1927 75.847 72.6016C72.6649 74.2117 70.5766 77.0295 70.4772 79.9479C70.2783 83.6713 73.4604 86.8916 76.4436 88.1998C79.924 89.7093 84.0011 89.81 87.581 89.9106L111.447 90.3131C112.839 90.3131 114.33 90.4138 115.524 89.7093C117.612 88.5017 118.01 85.3821 118.109 82.4637L118.308 74.5136C118.308 73.5073 117.91 71.8972 117.512 70.8908C117.314 70.3876 115.126 69.8845 114.43 69.9851C114.33 69.9851 114.33 69.9851 114.231 69.9851C110.552 69.7838 107.171 69.6832 103.79 69.6832Z" fill="#2B2C54"/>
<path d="M84.501 76.1235C83.5066 75.8216 82.3133 76.1235 81.4184 76.828C80.6229 77.5324 80.0263 78.5387 79.7279 79.5451C79.5291 80.1489 79.4295 80.7527 79.529 81.2559C79.6284 81.759 79.8274 82.1616 80.1257 82.4635C81.6173 84.3755 84.8988 84.3755 86.3904 82.4635C87.9814 80.652 87.4842 77.1299 84.501 76.1235Z" fill="#9981F5"/>
<path d="M83.4072 84.8787C83.3077 84.8787 83.3077 84.8787 83.4072 84.8787C81.8161 84.8787 80.424 84.1743 79.6285 83.0673C79.2307 82.5641 78.9324 81.9603 78.8329 81.4572C78.7335 80.8534 78.7334 80.1489 79.0318 79.3438C79.4295 78.0356 80.1256 76.9286 81.0206 76.1236C82.1144 75.2179 83.606 74.916 84.8988 75.3185C86.4898 75.8217 87.5837 77.0293 88.0809 78.5388C88.5781 80.1489 88.2798 81.8597 87.2853 83.0673C86.2909 84.1743 84.8988 84.8787 83.4072 84.8787ZM83.7055 76.828C83.1089 76.828 82.5122 77.0293 82.015 77.4318C81.2194 78.0356 80.8218 79.0419 80.6229 79.7464C80.424 80.2496 80.4239 80.7527 80.5234 81.0546C80.6228 81.3565 80.7223 81.6584 80.9211 81.9603C81.4183 82.6648 82.3133 83.0673 83.3077 83.0673C84.3021 83.0673 85.1971 82.6648 85.7937 81.9603C86.3904 81.1553 86.5893 80.0483 86.2909 78.9413C86.0921 78.3375 85.5949 77.3312 84.2027 76.828C84.1033 76.9286 83.9044 76.828 83.7055 76.828Z" fill="#2B2C54"/>
<path d="M5.94375 44.3234C5.84431 44.3234 5.8443 44.3234 5.74486 44.2227C5.64542 44.1221 5.546 43.9208 5.64544 43.8202C7.33593 41.405 9.3247 39.2917 11.5124 37.4803C11.6118 37.3796 11.8107 37.3796 11.9102 37.4803C12.0096 37.5809 12.0096 37.7822 11.9102 37.8828C9.72248 39.6942 7.73369 41.8075 6.14264 44.1221C6.14264 44.2227 6.04319 44.3234 5.94375 44.3234Z" fill="#2B2C54"/>
<path d="M12.8022 43.5185C12.7028 43.5185 12.7028 43.5185 12.6034 43.4178C12.5039 43.3172 12.5039 43.1159 12.6034 43.0153L17.9731 36.8766C18.0726 36.776 18.2715 36.776 18.3709 36.8766C18.4704 36.9773 18.4704 37.1785 18.3709 37.2792L13.0011 43.4178C13.0011 43.5185 12.9017 43.5185 12.8022 43.5185Z" fill="#2B2C54"/>
<path d="M21.0598 43.3171C20.9604 43.3171 20.9604 43.3171 20.861 43.2164C20.7615 43.1158 20.7615 42.9145 20.861 42.8139L25.833 37.3797C25.9324 37.279 26.1313 37.279 26.2307 37.3797C26.3301 37.4803 26.3301 37.6816 26.2307 37.7822L21.2587 43.2164C21.2587 43.3171 21.1593 43.3171 21.0598 43.3171Z" fill="#2B2C54"/>
<path d="M86.8852 42.512C86.7858 42.512 86.7858 42.512 86.6864 42.4114C86.587 42.3107 86.587 42.1095 86.6864 42.0088L91.6584 36.3733C91.7579 36.2727 91.9568 36.2727 92.0562 36.3733C92.1556 36.474 92.1556 36.6752 92.0562 36.7759L87.0842 42.4114C86.9847 42.4114 86.9847 42.512 86.8852 42.512Z" fill="#2B2C54"/>
<path d="M92.0575 42.9146C91.958 42.9146 91.958 42.9146 91.8585 42.8139C91.7591 42.7133 91.7591 42.512 91.8585 42.4114C93.8473 40.1975 96.035 38.1848 98.3221 36.2727C98.4216 36.1721 98.6205 36.1721 98.7199 36.2727C98.8194 36.3734 98.8194 36.5746 98.7199 36.6753C96.4328 38.4867 94.2451 40.6 92.2563 42.7133C92.1569 42.9146 92.1569 42.9146 92.0575 42.9146Z" fill="#2B2C54"/>
<path d="M100.013 41.7069C99.9138 41.7069 99.9138 41.7069 99.8143 41.6062C99.7149 41.5056 99.7149 41.3043 99.8143 41.2037L104.389 36.4739C104.488 36.3733 104.687 36.3733 104.786 36.4739C104.886 36.5745 104.886 36.7758 104.786 36.8764L100.212 41.6062C100.113 41.7069 100.013 41.7069 100.013 41.7069Z" fill="#2B2C54"/>
<path d="M105.682 42.0088C105.583 42.0088 105.583 42.0088 105.483 41.9082C105.384 41.8075 105.384 41.6063 105.483 41.5056L107.571 38.7885C107.671 38.6879 107.87 38.6879 107.969 38.6879C108.069 38.7885 108.069 38.9898 108.069 39.0904L105.98 41.8075C105.881 42.0088 105.782 42.0088 105.682 42.0088Z" fill="#2B2C54"/>
<path d="M9.32284 112.05C9.2234 112.05 9.12401 112.05 9.12401 111.949C7.73184 110.037 7.53295 107.521 7.43351 105.006C7.23463 101.182 7.23462 97.2568 7.23462 93.4328C7.23462 93.2315 7.33405 93.1309 7.53293 93.1309C7.73181 93.1309 7.83124 93.2315 7.83124 93.4328C7.83124 97.2568 7.83125 101.182 8.03013 105.006C8.12957 107.521 8.32849 109.836 9.62121 111.647C9.72065 111.748 9.72061 111.949 9.52173 112.05C9.42229 112.05 9.42228 112.05 9.32284 112.05Z" fill="#2B2C54"/>
<path d="M15.2891 113.157C15.1896 113.157 15.0902 113.056 14.9908 112.956C13.7975 110.641 13.2009 108.025 13.3997 105.408C13.3997 105.207 13.5986 105.106 13.6981 105.106C13.8969 105.106 13.9964 105.207 13.9964 105.408C13.7975 107.924 14.3941 110.44 15.488 112.654C15.5874 112.754 15.488 112.956 15.3886 113.056C15.3886 113.157 15.3885 113.157 15.2891 113.157Z" fill="#2B2C54"/>
<g opacity="0.1294">
<path d="M79.6288 10.5105C78.7339 8.90034 76.1484 9.20224 75.7506 11.0136C74.3585 18.6618 73.3641 24.5992 72.7674 31.241C72.3696 35.7696 72.6679 40.2981 72.9662 44.726C73.2646 46.0342 74.7562 46.638 75.9495 46.0342C76.6455 45.6317 77.0433 44.8266 76.9439 44.0215C76.9439 42.9146 76.8444 41.9082 76.8444 40.8013C76.9439 33.7569 77.3416 27.2157 78.336 21.6808C78.7338 18.9637 79.1316 16.3472 79.6288 13.6301C79.6288 12.6238 80.2255 11.5168 79.6288 10.5105Z" fill="#2B2C54"/>
</g>
<g opacity="0.1294">
<path d="M28.0187 42.3106C27.7203 42.21 27.0243 42.3106 26.8254 42.3106C26.0298 42.4113 25.2343 42.3107 24.4388 42.4113C21.0578 42.5119 17.5774 42.5119 14.1964 42.5119C12.2076 42.5119 10.3182 42.6125 8.32944 42.3106C8.03112 42.21 7.23563 42.1094 6.93731 42.0087C6.73843 42.0087 6.24123 41.8075 5.94291 41.7068C5.84347 41.7068 5.74404 41.6062 5.6446 41.6062C5.24684 41.4049 4.84906 41.0024 4.25241 41.0024C2.06473 40.5999 1.07034 43.7195 2.9597 44.8265C5.44571 46.6379 8.62781 46.9398 11.611 47.0404C14.097 47.0404 16.583 47.0404 19.069 46.8392C21.3562 46.7385 23.6433 46.5373 25.9304 46.336C26.8253 46.336 27.8198 46.5373 28.6153 45.9335C30.0074 44.9271 29.5103 42.7132 28.0187 42.3106Z" fill="#2B2C54"/>
</g>
<g opacity="0.1294">
<path d="M108.561 39.6943C105.478 39.6943 102.396 40.0969 99.4124 39.9962C94.9376 39.9962 90.4628 39.6943 85.9879 40.3988C82.7064 40.6 83.3032 45.5311 86.5847 44.8267C88.6729 44.4241 93.8438 44.6254 97.8214 44.5248C101.401 44.6254 104.981 44.2229 108.561 44.0216C111.246 44.0216 111.345 39.6943 108.561 39.6943Z" fill="#2B2C54"/>
</g>
<g opacity="0.1294">
<path d="M112.241 94.3386C112.34 94.2379 112.341 94.2379 112.44 94.1373C113.136 93.0303 112.44 91.5208 111.247 91.2189C110.948 91.1183 110.551 91.1183 110.252 91.2189C110.153 91.2189 109.954 91.2189 109.854 91.2189C106.374 91.5208 102.894 91.2189 99.4132 91.3195C94.4412 91.5208 89.4692 91.0177 84.4971 90.4138H84.3977C84 90.3132 82.9061 90.112 82.5083 90.0113C82.5083 90.0113 82.5084 90.0113 82.4089 90.0113C81.1162 89.6088 79.724 89.4075 78.4313 88.8037C77.6358 88.5018 76.8403 87.7974 75.9453 87.9986C75.8459 87.9986 75.7464 88.0993 75.647 88.0993C75.3487 87.7974 75.1498 87.3948 74.7521 87.2942C73.6582 86.1872 71.5699 87.5961 72.4649 89.1056C74.6526 92.1246 78.3319 93.6341 81.9117 94.4392C84.696 95.1436 87.4804 95.5462 90.2647 95.8481C91.8558 96.15 97.4244 96.3512 100.408 96.2506C102.894 96.2506 105.28 95.9487 107.766 95.9487C107.766 99.0684 107.965 102.289 108.065 105.408C108.363 109.635 108.363 113.962 109.357 118.088C109.656 119.195 111.247 119.396 111.843 118.39C112.34 116.78 112.142 115.069 112.241 113.459C112.34 109.534 112.042 105.71 112.142 101.785C112.241 100.175 112.44 98.5652 112.539 96.955C112.639 96.15 112.738 95.043 112.241 94.4392C112.34 94.4392 112.34 94.3386 112.241 94.3386Z" fill="#2B2C54"/>
</g>
<g opacity="0.1294">
<path d="M114.33 45.3297C113.833 43.9208 111.645 44.3233 111.645 45.8328C111.546 53.3804 110.949 61.4311 110.154 67.771C110.154 68.9786 111.745 69.683 112.64 68.7773C113.236 68.1735 113.037 67.1672 113.137 66.4628C113.037 67.2678 113.435 63.8463 113.535 63.1418C113.932 58.4121 114.33 53.5816 114.33 48.7512C114.231 47.6442 114.628 46.4366 114.33 45.3297Z" fill="#2B2C54"/>
</g>
</svg>
